<svg width="96" height="96" viewBox="0 0 96 96" fill="none" xmlns="http://www.w3.org/2000/svg">
<path d="M48 96C74.5097 96 96 74.5101 96 48C96 21.4899 74.5097 0 48 0C21.4903 0 0 21.4899 0 48C0 74.5101 21.4903 96 48 96Z" fill="url(#paint0_linear)"/>
<path fill-rule="evenodd" clip-rule="evenodd" d="M15.6288 54.9309C15.6203 55.1099 15.616 55.289 15.616 55.4695C15.616 56.1505 15.6769 56.8231 15.7952 57.4857H15.616V58.5291C15.616 59.0381 15.6499 59.5429 15.7166 60.042C17.0157 69.7806 30.7495 77.4437 47.5 77.4437C64.2505 77.4437 77.9843 69.7806 79.2834 60.042C79.3501 59.5429 79.384 59.0381 79.384 58.5291V57.4857H79.2048C79.3231 56.8231 79.384 56.1505 79.384 55.4695C79.384 55.289 79.3797 55.1099 79.3712 54.9309C78.8903 44.734 64.8051 36.5549 47.5 36.5549C30.1949 36.5549 16.1097 44.734 15.6288 54.9309ZM13.0101 54.9309C13.2474 48.7087 17.5743 43.4834 23.597 39.9105C29.84 36.2066 38.2974 34 47.5 34C56.7026 34 65.16 36.2066 71.403 39.9105C77.4257 43.4834 81.7526 48.7087 81.9899 54.9309H82V58.5291C82 64.9881 77.5987 70.4137 71.403 74.088C65.16 77.792 56.7026 80 47.5 80C38.2974 80 29.84 77.792 23.597 74.088C17.4013 70.4137 13 64.9881 13 58.5291V54.9309H13.0101Z" fill="#606063"/>
<path d="M80 57.2807C80 68.7231 65.6732 78 48.0001 78C30.3269 78 16 68.7231 16 57.2807V54H80V57.2807Z" fill="#BEBEBE"/>
<path d="M80 55.0007C80 65.4946 65.6732 74 48.0001 74C30.3269 74 16 65.4946 16 55.0007C16 44.5068 30.3269 36 48.0001 36C65.6732 36 80 44.5068 80 55.0007Z" fill="#FAF9FA"/>
<path fill-rule="evenodd" clip-rule="evenodd" d="M20.6176 49.2114C20.6174 49.2236 20.6174 49.2345 20.6174 49.2454C20.6174 50.0767 20.7451 50.8917 20.9898 51.6821H20.6171V52.7532C20.6171 53.2247 20.6584 53.6921 20.739 54.1527C21.9551 61.1042 32.1292 66.5293 44.4998 66.5293C56.8706 66.5293 67.0445 61.1042 68.2606 54.1527C68.3411 53.6921 68.3824 53.2247 68.3824 52.7532V51.6821H68.0105C68.2484 50.9135 68.3756 50.1217 68.3824 49.3136C68.3826 49.2918 68.3827 49.2686 68.3827 49.2454C68.3827 49.2345 68.3827 49.2236 68.3826 49.2114C68.3505 41.6195 57.6703 35.4693 44.5001 35.4693C31.33 35.4693 20.6498 41.6195 20.6176 49.2114ZM18.0003 49.2114H18V52.7532C18 57.7436 21.4961 61.8619 26.2475 64.6024C31.0439 67.3688 37.5035 69 44.4998 69C51.4961 69 57.9559 67.3688 62.7521 64.6024C67.5034 61.8619 70.9997 57.7436 70.9997 52.7532V49.3231C70.9999 49.2972 71 49.2713 71 49.2454C71 44.255 67.5037 40.1381 62.7524 37.3963C57.956 34.6299 51.4964 33 44.5001 33C37.5038 33 31.0442 34.6299 26.2478 37.3963C21.5072 40.1313 18.0163 44.2373 18.0003 49.2114Z" fill="#633001"/>
<path d="M68 53.2308C68 60.8353 57.2548 67 43.9999 67C30.7451 67 20 60.8353 20 53.2308V50H68V53.2308Z" fill="#FEDC90"/>
<path d="M68 49C68 56.7319 57.2548 63 43.9999 63C30.7451 63 20 56.7319 20 49C20 41.2667 30.7451 35 43.9999 35C57.2548 35 68 41.2667 68 49Z" fill="#D1884F"/>
<path fill-rule="evenodd" clip-rule="evenodd" d="M28.5683 41.1134C28.5683 41.125 28.5683 41.1379 28.5683 41.1494C28.5683 42.0269 28.6935 42.8856 28.9335 43.7214H28.568V44.8506C28.568 45.3497 28.6084 45.8431 28.6875 46.3279C29.8806 53.6655 39.8625 59.3921 51.9999 59.3921C64.1372 59.3921 74.1192 53.6655 75.3124 46.3279C75.3913 45.8431 75.4318 45.3497 75.4318 44.8506V43.7214H75.0669C75.3004 42.9087 75.4253 42.0743 75.4318 41.2213C75.4321 41.1969 75.4321 41.1739 75.4321 41.1494C75.4321 41.1379 75.4321 41.125 75.4321 41.1134C75.4005 33.0983 64.9218 26.6079 52.0001 26.6079C39.0785 26.6079 28.5998 33.0983 28.5683 41.1134ZM26.0004 41.1134H26V44.8506C26 50.1183 29.4303 54.4653 34.092 57.3581C38.7977 60.2781 45.1356 62 51.9999 62C58.8643 62 65.202 60.2781 69.9079 57.3581C74.5696 54.4653 77.9997 50.1183 77.9997 44.8506V41.2314C77.9999 41.2041 78 41.1767 78 41.1494C78 35.8817 74.5699 31.5347 69.908 28.6419C65.2023 25.7219 58.8645 24 52.0001 24C45.1359 24 38.7981 25.7219 34.0923 28.6419C29.4412 31.5289 26.0161 35.8616 26.0004 41.1134Z" fill="#633001"/>
<path d="M76 46.0397C76 53.1974 65.4788 59 52.5001 59C39.5212 59 29 53.1974 29 46.0397V43H76V46.0397Z" fill="#FEDC90"/>
<path d="M76 41C76 48.7319 65.4788 55 52.5001 55C39.5212 55 29 48.7319 29 41C29 33.2681 39.5212 27 52.5001 27C65.4788 27 76 33.2681 76 41Z" fill="#D1884F"/>
<path fill-rule="evenodd" clip-rule="evenodd" d="M20.6176 33.6617C20.6174 33.6743 20.6174 33.6855 20.6174 33.6981C20.6174 34.5525 20.7451 35.3887 20.9898 36.201H20.6171V37.3019C20.6171 37.7879 20.6584 38.2669 20.739 38.7403C21.9551 45.8848 32.1292 51.4607 44.4998 51.4607C56.8706 51.4607 67.0445 45.8848 68.2606 38.7403C68.3411 38.2669 68.3824 37.7879 68.3824 37.3019V36.201H68.0105C68.2484 35.4111 68.3756 34.5973 68.3824 33.7667C68.3826 33.7443 68.3827 33.7205 68.3827 33.6981C68.3827 33.6855 68.3827 33.6743 68.3826 33.6617C68.3505 25.8589 57.6703 19.5393 44.5001 19.5393C31.33 19.5393 20.6498 25.8589 20.6176 33.6617ZM18.0003 33.6617H18V37.3019C18 42.4309 21.4961 46.6636 26.2475 49.4802C31.0439 52.3235 37.5035 54 44.4998 54C51.4961 54 57.9559 52.3235 62.7521 49.4802C67.5034 46.6636 70.9997 42.4309 70.9997 37.3019V33.7765C70.9999 33.7499 71 33.7233 71 33.6981C71 28.5677 67.5037 24.3364 62.7524 21.5184C57.956 18.6751 51.4964 17 44.5001 17C37.5038 17 31.0442 18.6751 26.2478 21.5184C21.5072 24.3294 18.0163 28.5495 18.0003 33.6617Z" fill="#633001"/>
<path d="M68 38.2308C68 45.8353 57.2548 52 43.9999 52C30.7451 52 20 45.8353 20 38.2308V35H68V38.2308Z" fill="#FEDC90"/>
<path d="M68 33.5007C68 41.5084 57.2548 48 43.9999 48C30.7451 48 20 41.5084 20 33.5007C20 25.4916 30.7451 19 43.9999 19C57.2548 19 68 25.4916 68 33.5007Z" fill="#D1884F"/>
<path fill-rule="evenodd" clip-rule="evenodd" d="M28 34.5895C28 37.2039 29.7677 39.5462 32.5564 41.1213L30.6243 44.7176L30.6247 44.719H30.6243V53.8204C30.6243 55.0238 31.5321 56 32.6522 56C33.7722 56 34.6801 55.0238 34.6801 53.8204V46.5816L36.759 42.7119C38.0881 43.0148 39.5149 43.1803 40.9999 43.1803C48.1797 43.1803 54 39.3344 54 34.5895C54 29.8459 48.1797 26 40.9999 26C33.8203 26 28 29.8459 28 34.5895Z" fill="url(#paint1_linear)"/>
<path fill-rule="evenodd" clip-rule="evenodd" d="M31.8157 41.1197C31.498 40.9481 31.1932 40.7668 30.9023 40.5757C28.5669 39.0502 27.1293 36.9682 27.1293 34.673C27.1293 29.9913 33.1156 26.1955 40.5001 26.1955C47.8846 26.1955 53.8709 29.9913 53.8709 34.673C53.8709 39.3561 47.8846 43.1519 40.5001 43.1519C38.9727 43.1519 37.5052 42.9886 36.1382 42.6895L34 46.5089V53.6533C34 54.841 33.0662 55.8045 31.9143 55.8045C30.7623 55.8045 29.8285 54.841 29.8285 53.6533V44.6705L31.8157 41.1197ZM27.6992 44.7079V53.6533C27.6992 56.0537 29.5863 58 31.9143 58C34.2422 58 36.1293 56.0537 36.1293 53.6533V47.0972L37.2382 45.1163C38.2915 45.2685 39.3831 45.3474 40.5001 45.3474C44.5211 45.3474 48.2634 44.3175 51.0699 42.5387C53.8415 40.782 56 38.0632 56 34.673C56 31.2842 53.8415 28.5655 51.0699 26.8088C48.2634 25.0299 44.5211 24 40.5001 24C36.479 24 32.7367 25.0299 29.9304 26.8088C27.1587 28.5655 25 31.2842 25 34.673C25 37.6479 26.6519 40.0967 28.9472 41.852L27.9991 43.5451C27.9088 43.7015 27.8366 43.8704 27.7857 44.0476C27.7234 44.2649 27.6953 44.4878 27.6992 44.7079Z" fill="#633001"/>
<path d="M32 31.4993C32 33.9844 35.134 36 39.0001 36C42.866 36 46 33.9844 46 31.4993C46 29.0142 42.866 27 39.0001 27C35.134 27 32 29.0142 32 31.4993Z" fill="#9E7200"/>
<path d="M32 30H46V32H32V30Z" fill="#9E7200"/>
<path d="M32 29.0008C32 31.762 35.134 34 39.0001 34C42.866 34 46 31.762 46 29.0008C46 26.2396 42.866 24 39.0001 24C35.134 24 32 26.2396 32 29.0008Z" fill="#F0B90B"/>
<path d="M36.2996 28.8257L38.3054 27.2499C38.7292 26.9167 39.2708 26.9167 39.6947 27.2499L41.7004 28.8257C42.0998 29.1395 42.0998 29.8605 41.7004 30.1742L39.6947 31.7501C39.2708 32.0833 38.7292 32.0833 38.3054 31.7501L36.2996 30.1742C35.9001 29.8605 35.9001 29.1395 36.2996 28.8257Z" fill="#9E7200"/>
<path fill-rule="evenodd" clip-rule="evenodd" d="M32.0059 22.9478C33.6402 21.6917 35.7653 21 38.0001 21C40.2347 21 42.3599 21.6917 43.9942 22.9478C45.6028 24.1856 47 26.2161 47 28.8755V31.1245C47 33.7839 45.6028 35.8144 43.9942 37.0522C42.3599 38.3083 40.2347 39 38.0001 39C35.7653 39 33.6402 38.3083 32.0059 37.0522C30.3974 35.8144 29 33.7839 29 31.1245V28.8755C29 26.2161 30.3974 24.1856 32.0059 22.9478ZM38.0001 23.6246C34.2293 23.6246 31.1726 25.9762 31.1726 28.8755V31.1245C31.1726 34.0238 34.2293 36.3754 38.0001 36.3754C41.7708 36.3754 44.8276 34.0238 44.8276 31.1245V28.8755C44.8276 25.9762 41.7708 23.6246 38.0001 23.6246Z" fill="#633001"/>
<path d="M75.2023 79.348C75.2023 79.348 72.2512 63.4531 95.0905 63.4531C95.0905 63.4531 94.9624 71.1154 89.9582 75.0992C84.954 79.0832 75.2023 79.348 75.2023 79.348Z" fill="#47B85B"/>
<path d="M95.0906 63.4531C95.0906 63.4531 94.9622 71.1255 89.958 75.0992C84.9538 79.0731 75.2021 79.348 75.2021 79.348C79.5263 73.1227 85.3516 68.8839 89.5474 66.3163C92.0111 64.8082 95.0906 63.4531 95.0906 63.4531Z" fill="#399349"/>
<path d="M68.5299 71.4009C68.5299 71.4009 71.4811 55.5059 48.6415 55.5059C48.6415 55.5059 48.7699 63.168 53.774 67.1521C58.7783 71.1359 68.5299 71.4009 68.5299 71.4009Z" fill="#47B85B"/>
<path d="M68.5299 71.4009C68.5299 71.4009 58.7653 71.1258 53.774 67.1521C48.7699 63.1782 48.6415 55.5059 48.6415 55.5059C48.6415 55.5059 53.0042 57.4724 54.7364 58.4403C59.5737 61.1608 65.9764 65.6134 68.5299 71.4009Z" fill="#399349"/>
<path d="M72.5077 96.4965L71.2246 96.4455C71.2375 96.2926 72.1998 81.2535 67.9271 71.5739C65.4377 65.919 59.1761 61.5479 54.3644 58.8682L55.0958 58.0327C60.0614 60.7939 66.5285 65.3281 69.1333 71.2378C73.4957 81.1009 72.5207 96.3436 72.5077 96.4965Z" fill="#2B6E37"/>
<path d="M53.176 60.3989L58.9115 60.5037L58.882 61.5227L53.1465 61.4179L53.176 60.3989Z" fill="#2B6E37"/>
<path d="M63.196 60.8909L63.7807 64.2735L62.5091 64.412L61.9244 61.0294L63.196 60.8909Z" fill="#2B6E37"/>
<path d="M60.1304 66.1509L65.4553 66.1721L65.449 67.1909L60.1241 67.1698L60.1304 66.1509Z" fill="#2B6E37"/>
<path d="M72.1484 84.7583L71.032 84.2591C72.1611 82.6492 73.3673 80.917 74.6377 79.0931C79.0515 72.7556 84.9668 68.4254 89.1626 65.9087L89.9325 66.7238C85.8393 69.1793 80.0652 73.4077 75.7668 79.5924C74.4964 81.4163 73.2774 83.1484 72.1484 84.7583Z" fill="#2B6E37"/>
<path d="M91.4347 68.2683L91.5424 69.284L85.3124 69.7009L85.2047 68.685L91.4347 68.2683Z" fill="#2B6E37"/>
<path d="M82.032 68.8579L82.6274 71.7011L81.3623 71.8684L80.7668 69.0251L82.032 68.8579Z" fill="#2B6E37"/>
<path d="M85.788 73.7612L85.8933 74.7771L79.0365 75.225L78.9312 74.2091L85.788 73.7612Z" fill="#2B6E37"/>
<path d="M65.8738 71.7064C62.7046 71.3499 56.8664 70.3411 53.3121 67.5086C48.1925 63.4329 48 55.8318 48 55.516C48 55.3835 48.0642 55.2511 48.1796 55.1492C48.2951 55.0473 48.4747 54.9963 48.6415 54.9963C56.058 54.9963 61.601 56.647 65.1296 59.8871C70.352 64.6963 69.2227 71.1971 69.1715 71.472L67.9011 71.3193L68.5299 71.3906L67.9011 71.3193C67.9141 71.2582 68.9917 64.9917 64.1546 60.5392C60.9852 57.6353 55.9938 56.1171 49.3088 56.0153C49.4499 57.778 50.207 63.5857 54.2231 66.785C57.5079 69.4037 63.051 70.3512 66.0536 70.6875L65.8738 71.7064Z" fill="#4D2419"/>
<path d="M75.2023 79.8575C74.8815 79.8575 74.612 79.6741 74.5735 79.4194C74.5223 79.1442 73.3803 72.6437 78.6155 67.8343C82.1312 64.5943 87.6744 62.9436 95.0908 62.9436C95.2576 62.9436 95.4244 62.9945 95.5526 63.0964C95.6809 63.1983 95.7451 63.3206 95.7323 63.4632C95.7323 63.7893 95.5398 71.3802 90.4073 75.4558C85.2877 79.5315 75.6257 79.8474 75.2151 79.8575H75.2023ZM94.4235 63.9625C87.7383 64.0542 82.7599 65.5826 79.5907 68.4864C75.5103 72.2259 75.6386 77.2592 75.7797 78.7979C77.9482 78.6654 85.4417 77.9623 89.5092 74.7324C93.5254 71.5432 94.2824 65.7355 94.4235 63.9625Z" fill="#4D2419"/>
<path d="M72.5077 96.4965L71.2246 96.4455C71.2375 96.2926 72.1998 81.2535 67.9271 71.5739C65.4377 65.919 59.1761 61.5479 54.3644 58.8682L55.0958 58.0327C60.0614 60.7939 66.5285 65.3281 69.1333 71.2378C73.4957 81.1009 72.5207 96.3436 72.5077 96.4965Z" fill="#4D2419"/>
<path d="M53.176 60.3989L58.9115 60.5037L58.882 61.5227L53.1465 61.4179L53.176 60.3989Z" fill="#4D2419"/>
<path d="M63.196 60.8909L63.7807 64.2735L62.5091 64.412L61.9244 61.0294L63.196 60.8909Z" fill="#4D2419"/>
<path d="M60.1304 66.1509L65.4553 66.1721L65.449 67.1909L60.1241 67.1698L60.1304 66.1509Z" fill="#4D2419"/>
<path d="M72.1484 84.7583L71.032 84.2591C72.1611 82.6492 73.3673 80.917 74.6377 79.0931C79.0515 72.7556 84.9668 68.4254 89.1626 65.9087L89.9325 66.7238C85.8393 69.1793 80.0652 73.4077 75.7668 79.5924C74.4964 81.4163 73.2774 83.1484 72.1484 84.7583Z" fill="#4D2419"/>
<path d="M91.4347 68.2683L91.5424 69.284L85.3124 69.7009L85.2047 68.685L91.4347 68.2683Z" fill="#4D2419"/>
<path d="M82.032 68.8579L82.6274 71.7011L81.3623 71.8684L80.7668 69.0251L82.032 68.8579Z" fill="#4D2419"/>
<path d="M85.788 73.7612L85.8933 74.7771L79.0365 75.225L78.9312 74.2091L85.788 73.7612Z" fill="#4D2419"/>
<defs>
<linearGradient id="paint0_linear" x1="48" y1="0" x2="48" y2="96" gradientUnits="userSpaceOnUse">
<stop stop-color="#54DADE"/>
<stop offset="0.762" stop-color="#24C7D6"/>
</linearGradient>
<linearGradient id="paint1_linear" x1="41.1406" y1="26.2875" x2="41.1406" y2="55.7742" gradientUnits="userSpaceOnUse">
<stop stop-color="#9F4A08"/>
<stop offset="0.37" stop-color="#7D3900"/>
<stop offset="1" stop-color="#8D4104"/>
</linearGradient>
</defs>
</svg>
