<svg width="96" height="96" viewBox="0 0 96 96" fill="none" xmlns="http://www.w3.org/2000/svg">
<path d="M94 47C94 72.9575 74.4736 94 48.516 94C22.5587 94 0 72.9575 0 47C0 21.0426 22.5587 0 48.516 0C74.4736 0 94 21.0426 94 47Z" fill="#2B6E37"/>
<path d="M94 47C94 72.9575 74.4736 94 48.516 94C22.5587 94 0 72.9575 0 47C0 21.0426 22.5587 0 48.516 0C74.4736 0 94 21.0426 94 47Z" fill="#2B6E37"/>
<path d="M94 47C94 72.9575 74.4736 94 48.516 94C22.5587 94 0 72.9575 0 47C0 21.0426 22.5587 0 48.516 0C74.4736 0 94 21.0426 94 47Z" fill="#2B6E37"/>
<path d="M92.5313 47C92.5313 72.5518 73.6149 92.5312 48.4688 92.5312C23.3225 92.5312 1.46875 72.5518 1.46875 47C1.46875 21.4482 23.3225 1.46875 48.4688 1.46875C73.6149 1.46875 92.5313 21.4482 92.5313 47Z" fill="white"/>
<path d="M92.5313 47C92.5313 72.5518 73.6149 92.5312 48.4688 92.5312C23.3225 92.5312 1.46875 72.5518 1.46875 47C1.46875 21.4482 23.3225 1.46875 48.4688 1.46875C73.6149 1.46875 92.5313 21.4482 92.5313 47Z" fill="white"/>
<path d="M92.5313 47C92.5313 72.5518 73.6149 92.5312 48.4688 92.5312C23.3225 92.5312 1.46875 72.5518 1.46875 47C1.46875 21.4482 23.3225 1.46875 48.4688 1.46875C73.6149 1.46875 92.5313 21.4482 92.5313 47Z" fill="white"/>
<path d="M35.599 77.3111L28.0121 74.0616C27.5185 73.8466 27.098 73.4924 26.8021 73.0426C26.5062 72.5926 26.3477 72.0662 26.346 71.528V70.5916L26.3185 70.4538C27.9801 70.1251 29.4614 69.1933 30.4769 67.8377L30.6008 67.5759C31.8017 68.3958 33.1794 68.9195 34.6214 69.1046L34.6076 69.2148V73.4007C34.6093 74.766 34.9498 76.11 35.599 77.3111Z" fill="white"/>
<path d="M47 72.9462V76.0994L43.1307 77.3936L41.7812 76.8152C41.2877 76.6005 40.8671 76.2462 40.5713 75.7965C40.2755 75.3465 40.1168 74.8201 40.1151 74.2816V68.2783C40.427 68.1296 40.7302 67.9643 41.0239 67.7827C41.6038 69.0132 42.4351 70.1086 43.4644 70.9978C44.4937 71.8876 45.6984 72.5512 47 72.9462Z" fill="white"/>
<path d="M49.7542 73.3456C51.0182 73.3491 52.2705 73.1009 53.4384 72.6165C54.6061 72.1318 55.6656 71.4204 56.5563 70.5229L56.6388 70.5917V75.6177C56.6365 76.1671 56.4702 76.7029 56.1609 77.1567C55.8519 77.6105 55.4139 77.9619 54.9039 78.1651L49.7542 80.2305L43.131 77.3941L47 76.0995V72.9464C47.8939 73.2119 48.8215 73.3465 49.7542 73.3456Z" fill="white"/>
<path d="M67.6541 64.0925V70.2613C67.6539 70.7739 67.5108 71.2759 67.2408 71.7112C66.9706 72.1466 66.5846 72.4982 66.1258 72.7261L62.1463 74.7227V67.8378L62.05 67.5212C64.2252 66.9798 66.1819 65.7828 67.6541 64.0925Z" fill="white"/>
<path d="M62.1463 67.8377V75.4385C62.1469 76.8946 61.7627 78.3249 61.0324 79.5848C60.3022 80.8446 59.252 81.8889 57.988 82.6121L52.5078 85.7379L49.7539 80.2301L54.9036 78.1648C55.4139 77.9615 55.8519 77.6102 56.1609 77.1563C56.4699 76.7025 56.6365 76.1667 56.6385 75.6174V70.5916L56.556 70.5226C57.3503 69.7342 57.998 68.8112 58.4701 67.7963C58.7729 67.8101 59.0758 67.8377 59.3927 67.8377C60.2881 67.8383 61.1799 67.732 62.05 67.5208L62.1463 67.8377Z" fill="#9A6948"/>
<path d="M43.1307 77.3942L49.7539 80.2306L52.5078 85.7384L55.2617 92.6234H44.2461V82.9845L39.6195 81.0017C38.1349 80.3602 36.8697 79.2994 35.9794 77.9494C35.0893 76.599 34.6123 75.0183 34.6073 73.4009V69.215L34.6211 69.1048C35.0714 69.1839 35.5276 69.2206 35.9844 69.215C37.4138 69.2121 38.8246 68.8925 40.1151 68.2788V74.2822C40.1168 74.8206 40.2755 75.347 40.5713 75.7971C40.8671 76.2468 41.2877 76.6008 41.7812 76.8158L43.1307 77.3942Z" fill="#9A6948"/>
<path d="M39.9503 45.3247C38.6246 46.5876 37.7533 48.2528 37.4716 50.0615C36.9793 49.9854 36.4826 49.9442 35.9847 49.9375C33.9184 49.936 31.9059 50.5984 30.2448 51.8272C28.5836 53.0559 27.3612 54.7861 26.7579 56.7625C26.1547 58.7388 26.2025 60.8565 26.8944 62.8037C27.5864 64.7507 28.8857 66.4239 30.6008 67.5763L30.4768 67.838C29.4613 69.1937 27.98 70.1255 26.3183 70.4542C25.875 70.549 25.4225 70.5952 24.9689 70.5919C23.5708 70.5893 22.2068 70.1607 21.0582 69.3638C19.9095 68.5668 19.0307 67.4391 18.5386 66.1305C17.9501 66.3393 17.3316 66.4509 16.7072 66.4609C15.2465 66.4609 13.8455 65.8808 12.8126 64.8477C11.7797 63.8148 11.1994 62.4139 11.1994 60.9531C11.1994 60.7604 11.2407 60.5815 11.2545 60.4023C10.0125 59.8733 8.95354 58.9909 8.20918 57.8646C7.46485 56.7387 7.06799 55.4183 7.06799 54.0685C7.06799 52.7184 7.46485 51.3983 8.20918 50.2724C8.95354 49.1461 10.0125 48.2637 11.2545 47.7344C11.2407 47.5555 11.1994 47.3766 11.1994 47.1836C11.1901 46.003 11.487 44.8398 12.0612 43.8081C12.6354 42.7762 13.4673 41.9108 14.4757 41.2962C15.484 40.682 16.6345 40.3395 17.8147 40.3022C18.995 40.2649 20.1647 40.5343 21.2099 41.0839C21.6088 40.0446 22.313 39.1504 23.2297 38.5188C24.1464 37.8873 25.2326 37.5477 26.3459 37.5451L26.4561 37.5312C26.7784 39.8281 27.9205 41.931 29.6717 43.4521C31.423 44.9731 33.6652 45.8094 35.9847 45.8068C37.2354 45.8047 38.4745 45.5618 39.6336 45.0906C39.7332 45.1764 39.8389 45.2545 39.9503 45.3247Z" fill="#2F5224"/>
<path d="M74.5391 27.9061C74.5402 29.3395 74.2203 30.7549 73.6032 32.0486C72.9863 33.3426 72.0874 34.4817 70.9726 35.3829C69.911 34.9884 68.7871 34.7878 67.6542 34.7907C65.0979 34.7907 62.6463 35.8062 60.8389 37.614C59.0311 39.4214 58.0156 41.8731 58.0156 44.4296C58.0221 44.9184 58.0635 45.406 58.1396 45.8892C56.3225 46.0884 54.5843 46.742 53.0862 47.7892C52.5313 46.6077 51.7038 45.5749 50.6716 44.7759C49.6393 43.9769 48.432 43.4349 47.1489 43.1941C45.8661 42.9535 44.5442 43.021 43.2926 43.3915C42.0412 43.7619 40.8953 44.4243 39.95 45.3246C39.8387 45.2544 39.7329 45.1763 39.6333 45.0905C38.4742 45.5614 37.2355 45.8043 35.9844 45.8064C33.6649 45.809 31.4227 44.9727 29.6717 43.4517C27.9203 41.9309 26.7783 39.828 26.4559 37.5308C26.377 37.0808 26.3402 36.6246 26.3457 36.1678C26.3476 35.702 26.3844 35.2372 26.4559 34.7769C26.4146 34.7769 26.387 34.7907 26.3457 34.7907C24.5197 34.7907 22.7686 34.0655 21.4775 32.7742C20.1862 31.4831 19.4609 29.7321 19.4609 27.9061C19.4609 26.08 20.1862 24.3289 21.4775 23.0378C22.7686 21.7467 24.5197 21.0213 26.3457 21.0213C26.4008 21.0213 26.4421 21.0351 26.4834 21.0351C26.3953 20.5766 26.3493 20.1111 26.3457 19.6443C26.3457 17.8184 27.071 16.0672 28.3622 14.7761C29.6532 13.4849 31.4045 12.7596 33.2305 12.7596C34.1743 12.7583 35.1078 12.9553 35.9706 13.3379C37.236 11.2061 39.2758 9.6451 41.6643 8.98067C44.0525 8.3162 46.6055 8.59952 48.7901 9.77159C50.1684 8.51137 51.8836 7.67965 53.7269 7.37788C55.5699 7.07611 57.4607 7.31736 59.1689 8.07221C60.8773 8.82703 62.3288 10.0628 63.3466 11.6287C64.3642 13.1946 64.9041 15.0229 64.9005 16.8904C64.8991 17.3515 64.8621 17.8119 64.7901 18.2674H64.9005C67.4567 18.2674 69.9084 19.2829 71.7158 21.0905C73.5236 22.8981 74.5391 25.3497 74.5391 27.9061Z" fill="#5CB34F"/>
<path d="M47 72.9459C45.6981 72.5511 44.494 71.8872 43.4644 70.9977C42.4351 70.1086 41.6038 69.0132 41.0239 67.7823C40.7302 67.9639 40.427 68.1293 40.1151 68.2782C38.8243 68.8918 37.4138 69.2114 35.9844 69.2144C35.5276 69.22 35.0714 69.1832 34.6211 69.1042C33.1791 68.9192 31.8014 68.3954 30.6005 67.5758C28.8855 66.4235 27.5861 64.7503 26.8942 62.8033C26.2023 60.856 26.1544 58.7384 26.7577 56.762C27.361 54.7854 28.5834 53.0555 30.2448 51.8267C31.9059 50.598 33.9181 49.9353 35.9844 49.937C36.4823 49.9435 36.9793 49.9849 37.4713 50.061C37.7533 48.2521 38.6246 46.5871 39.95 45.3243C40.8953 44.4242 42.0409 43.7615 43.2926 43.3911C44.5442 43.0207 45.8661 42.9531 47.1489 43.194C48.432 43.4346 49.6393 43.9769 50.6716 44.7759C51.7038 45.5749 52.5313 46.6074 53.0862 47.7891C54.5843 46.7416 56.3221 46.088 58.1396 45.8889C58.0635 45.4059 58.0221 44.918 58.0156 44.4292C58.0156 41.873 59.0311 39.4214 60.8386 37.6136C62.6463 35.8062 65.0979 34.7907 67.6541 34.7907C68.7868 34.7878 69.911 34.9881 70.9726 35.3826C71.2123 35.4649 71.447 35.5615 71.675 35.672C72.8291 35.0589 74.1225 34.7549 75.4291 34.7895C76.7357 34.8245 78.0109 35.197 79.1309 35.8705C80.251 36.5441 81.1775 37.4961 81.8208 38.6341C82.4638 39.7718 82.8014 41.0567 82.8008 42.3639C82.7978 43.9316 82.3123 45.4606 81.4102 46.7425C82.7405 47.3667 83.9111 48.287 84.8315 49.433C85.7518 50.5789 86.398 51.9201 86.7206 53.3542C87.0428 54.7883 87.0331 56.277 86.6918 57.707C86.3507 59.1364 85.6869 60.4691 84.7516 61.603C83.816 62.7366 82.6339 63.6416 81.295 64.2482C79.9561 64.8548 78.4964 65.1474 77.0271 65.1034C75.5581 65.059 74.1184 64.6795 72.8183 63.9936C71.5184 63.3074 70.3925 62.3336 69.5268 61.1454C69.0612 62.2199 68.4293 63.2142 67.6541 64.0923C66.1819 65.7825 64.2252 66.9792 62.05 67.5209C61.1799 67.7318 60.2878 67.8382 59.3924 67.8376C59.0758 67.8376 58.7729 67.81 58.47 67.7962C57.6937 69.4529 56.4617 70.8547 54.9183 71.8373C53.375 72.8199 51.5837 73.343 49.7539 73.3454C48.8215 73.346 47.8939 73.2114 47 72.9459Z" fill="#7BC24F"/>
<path d="M77.2933 58.1989C75.7804 58.1981 74.2891 57.8412 72.9402 57.157C71.591 56.4729 70.4219 55.4809 69.5271 54.2609C69.0615 55.3355 68.4297 56.3298 67.6544 57.2075C66.1819 58.8978 64.2255 60.0948 62.0503 60.6362C61.1802 60.8474 60.2881 60.9537 59.3927 60.9529C59.0761 60.9529 58.7732 60.9255 58.4704 60.9117C57.694 62.5685 56.462 63.9703 54.9186 64.9528C53.3753 65.9354 51.5837 66.4586 49.7542 66.4607C47.9197 66.463 46.1232 65.9404 44.5763 64.9549C43.0297 63.9691 41.7968 62.5614 41.0242 60.8979C40.7305 61.0795 40.4271 61.2448 40.1154 61.3935C38.8246 62.0071 37.4138 62.327 35.9847 62.3299C35.5279 62.3355 35.0714 62.2985 34.6214 62.2198C33.1794 62.0347 31.8017 61.511 30.6008 60.6914C28.9573 59.584 27.6948 57.9974 26.9848 56.1474C26.2053 58.1804 26.1385 60.4179 26.7953 62.4939C27.4521 64.5698 28.7936 66.3614 30.6008 67.576C31.8017 68.3959 33.1794 68.9196 34.6214 69.1044C35.0714 69.1834 35.5279 69.2202 35.9847 69.2146C37.4138 69.2119 38.8246 68.892 40.1154 68.2784C40.4271 68.1297 40.7305 67.9644 41.0242 67.7825C41.7968 69.4463 43.0297 70.854 44.5763 71.8395C46.1232 72.8253 47.9197 73.3479 49.7542 73.3456C51.5837 73.3432 53.3753 72.8204 54.9186 71.8378C56.462 70.8549 57.694 69.4534 58.4704 67.7963C58.7732 67.8101 59.0761 67.8378 59.3927 67.8378C60.2881 67.8384 61.1802 67.732 62.0503 67.5211C64.2255 66.9797 66.1819 65.7827 67.6544 64.0925C68.4297 63.2147 69.0615 62.2201 69.5271 61.1458C70.8983 63.0388 72.912 64.3677 75.1915 64.8841C77.4713 65.4005 79.8609 65.0686 81.9139 63.9512C83.967 62.8334 85.5423 61.0063 86.346 58.8114C87.1497 56.6165 87.1265 54.2039 86.2805 52.0249C85.5829 53.8423 84.3503 55.4054 82.7459 56.5075C81.1411 57.61 79.2399 58.1998 77.2933 58.1989Z" fill="#44853B"/>
<path d="M81.4431 46.761L81.3811 46.7707C81.0929 48.6745 80.1094 50.4038 78.6204 51.6246C77.1311 52.8454 75.2426 53.4708 73.3191 53.38C72.0807 53.3962 70.8537 53.1401 69.7251 52.6298C68.5965 52.1193 67.5939 51.3673 66.7882 50.4264C66.3875 51.2442 65.8555 51.9906 65.2131 52.6363C63.9241 53.9311 62.2873 54.8244 60.501 55.2086C59.7667 55.3664 59.0173 55.446 58.2662 55.4454C57.9992 55.4454 57.7445 55.4248 57.4895 55.4137C57.0836 56.188 56.5384 56.8813 55.8812 57.4585C54.3017 58.8429 52.2672 59.5967 50.1669 59.5761C49.3858 59.577 48.6077 59.4762 47.8525 59.2759C46.7944 59.0089 45.8024 58.5271 44.9379 57.8612C44.0734 57.1953 43.3546 56.359 42.8264 55.404C42.5829 55.5418 42.3279 55.6616 42.0624 55.7759C40.9626 56.2385 39.7814 56.4773 38.5882 56.4779C38.2048 56.4823 37.8215 56.4547 37.4426 56.3954C36.2458 56.262 35.092 55.8708 34.0609 55.2486C32.5836 54.3826 31.4548 53.0284 30.869 51.4193C29.0986 52.532 27.7378 54.1902 26.9915 56.1434C27.7015 57.9937 28.964 59.5799 30.6073 60.6874C31.8081 61.5069 33.1861 62.0307 34.6281 62.2158C35.0758 62.2957 35.5297 62.3338 35.9844 62.33C37.4138 62.3271 38.8246 62.0075 40.1154 61.3938C40.4271 61.2452 40.7302 61.0795 41.024 60.898C41.7968 62.5615 43.0294 63.9694 44.5763 64.955C46.1232 65.9408 47.9197 66.4631 49.7539 66.461C51.5837 66.4587 53.375 65.9358 54.9183 64.9529C56.4617 63.9703 57.6937 62.5685 58.4701 60.9118C58.7729 60.9256 59.0758 60.9532 59.3927 60.9532C60.2881 60.9538 61.1802 60.8475 62.05 60.6366C64.2255 60.0949 66.1819 58.8981 67.6544 57.2079C68.4294 56.3302 69.0615 55.3355 69.5271 54.2613C70.5479 55.6554 71.9256 56.7491 73.515 57.4273C75.1045 58.1056 76.8474 58.3435 78.5605 58.1162C80.2737 57.8885 81.8937 57.2044 83.2511 56.1348C84.6085 55.065 85.6531 53.6497 86.275 52.0373C85.4046 49.7217 83.6735 47.8314 81.4431 46.761Z" fill="#5CB34F"/>
<path d="M35.599 77.3115C35.2917 76.7407 35.0532 76.1356 34.8884 75.509L28.564 72.7951C28.3163 72.6879 28.1051 72.511 27.9557 72.2863C27.8065 72.0613 27.7254 71.7981 27.7227 71.5281V69.9998C27.2726 70.2021 26.8015 70.3546 26.3181 70.4542C25.8748 70.5491 25.4223 70.5952 24.9688 70.592V71.5281C24.9705 72.336 25.208 73.1256 25.6522 73.8003C26.0965 74.475 26.728 75.0053 27.4693 75.3257L35.0576 78.5781C35.2059 78.6422 35.3646 78.6795 35.5258 78.6883L36.5986 78.7447C36.215 78.3041 35.8798 77.8235 35.599 77.3115Z" fill="#5D241D"/>
<path d="M45.6229 72.397V75.108L42.6942 76.0885C42.5104 76.1505 42.3417 76.2507 42.1996 76.3823C42.0571 76.5139 41.944 76.6743 41.8679 76.8526L43.1293 77.3937L45.0337 78.2091L47.4351 77.4048C47.7091 77.3135 47.9477 77.1384 48.1166 76.904C48.2858 76.6699 48.3768 76.3881 48.3768 76.0994V73.2465C47.4183 73.117 46.4877 72.83 45.6229 72.397Z" fill="#5D241D"/>
<path d="M68.9939 62.1494C68.6191 62.8438 68.1697 63.4951 67.6541 64.0926C67.2347 64.5679 66.7738 65.005 66.2773 65.3992V70.2613C66.2779 70.5189 66.2062 70.7716 66.0705 70.9907C65.9348 71.2098 65.7401 71.3864 65.5089 71.5003L62.1463 73.1818V75.4387C62.1463 75.6616 62.1202 75.8793 62.1023 76.0996H62.1463C62.3608 76.0999 62.572 76.0497 62.7632 75.9536L66.7415 73.957C67.4303 73.6165 68.0099 73.0898 68.4147 72.4365C68.8194 71.7832 69.033 71.0298 69.0312 70.2613V62.3301C69.0239 62.269 69.0113 62.2085 68.9939 62.1494Z" fill="#5D241D"/>
<path d="M52.012 89.8694C51.3754 89.8694 50.7579 89.6491 50.2653 89.2455C49.7727 88.8416 49.4352 88.2797 49.3106 87.6552L48.3771 82.9845L38.4201 78.0055C38.102 77.8465 37.8347 77.6024 37.6476 77.3002C37.4608 76.9979 37.3615 76.6495 37.3615 76.2941V75.2613C37.3615 74.7534 37.563 74.266 37.9222 73.9068C38.2815 73.5475 38.7688 73.346 39.2767 73.346H40.1151V68.2788C38.8246 68.8925 37.4138 69.2121 35.9844 69.215C35.5276 69.2206 35.0714 69.1839 34.6211 69.1048L34.6073 69.215V73.4009C34.6123 75.0183 35.0893 76.599 35.9794 77.9494C36.8697 79.2994 38.1349 80.3602 39.6195 81.0017L44.2461 82.9845V92.6234H55.2617L54.1602 89.8694H52.012Z" fill="#714226"/>
<path d="M62.05 67.5208C61.1799 67.732 60.2881 67.8383 59.3927 67.8377C59.0758 67.8377 58.7729 67.8101 58.4701 67.7963C57.998 68.8112 57.3503 69.7342 56.556 70.5226L56.6385 70.5916V75.6174C56.6365 76.1667 56.4699 76.7025 56.1609 77.1563C55.8519 77.6102 55.4139 77.9615 54.9036 78.1648L49.7539 80.2301L52.5078 85.7379L55.5014 84.0307L55.3293 83.7745C54.9389 83.1885 54.7879 82.4756 54.9069 81.782C55.0261 81.0882 55.4062 80.4666 55.9694 80.0442L57.7401 78.7156C58.2533 78.3307 58.6698 77.832 58.9565 77.2583C59.2432 76.6846 59.3927 76.0521 59.3927 75.4109V73.3455C59.3927 72.615 59.6827 71.9147 60.1991 71.398C60.7158 70.8815 61.4161 70.5916 62.1463 70.5916V67.8377L62.05 67.5208Z" fill="#714226"/>
<path d="M75.2276 34.7908C73.9889 34.7884 72.7689 35.091 71.675 35.672C71.4471 35.5616 71.2126 35.4649 70.9727 35.383C69.911 34.9885 68.7872 34.7878 67.6542 34.7908C65.0979 34.7908 62.6463 35.8063 60.8389 37.614C59.0311 39.4214 58.0156 41.8731 58.0156 44.4296C58.0221 44.9184 58.0635 45.406 58.1396 45.8889C56.3225 46.0884 54.5843 46.742 53.0862 47.7892C52.3319 46.1912 51.0846 44.8776 49.5277 44.0415C47.9709 43.2058 46.1866 42.8918 44.4379 43.1465C42.6892 43.4009 41.0686 44.2102 39.8143 45.4551C38.5603 46.6997 37.739 48.3144 37.4713 50.0611L37.3615 50.0476V54.1783L37.4713 54.1921C37.7533 52.3832 38.6246 50.7179 39.95 49.4554C40.8953 48.555 42.0412 47.8926 43.2926 47.5222C44.5443 47.1518 45.8661 47.0842 47.1489 47.3251C48.432 47.5657 49.6394 48.1079 50.6716 48.9069C51.7038 49.7056 52.5313 50.7385 53.0862 51.9202C54.5843 50.8727 56.3225 50.2191 58.1396 50.0199C58.0635 49.537 58.0221 49.0491 58.0156 48.5603C58.0156 46.0041 59.0311 43.5525 60.8389 41.7447C62.6463 39.9373 65.0979 38.9218 67.6542 38.9218C68.7872 38.9188 69.911 39.1192 70.9727 39.5137C71.2126 39.5959 71.4471 39.6923 71.675 39.803C72.6708 39.2749 73.7721 38.9758 74.8983 38.9274C76.0243 38.8789 77.1473 39.0827 78.1845 39.5237C79.222 39.9643 80.1479 40.6311 80.8949 41.4753C81.6417 42.3196 82.1907 43.3198 82.502 44.4034C82.829 43.279 82.8886 42.0934 82.6762 40.9419C82.4639 39.7901 81.9853 38.7041 81.2789 37.7703C80.5721 36.8364 79.6568 36.0806 78.6063 35.5633C77.5556 35.046 76.3985 34.7814 75.2276 34.7908Z" fill="#8EE05B"/>
<path d="M63.6366 31.2113C62.0612 30.0201 60.2311 29.2106 58.2903 28.8459C56.3495 28.4812 54.3502 28.571 52.45 29.1087C50.5497 29.6465 48.7998 30.617 47.3378 31.9445C45.8758 33.2722 44.7411 34.9205 44.0232 36.7602C44.0754 34.907 42.0459 33.7311 40.2394 33.3095C37.385 32.6659 34.4055 32.8572 31.6569 33.8603C31.0679 34.1426 30.4513 34.3623 29.8171 34.5171C29.1094 34.6176 28.3783 34.531 27.6609 34.6549C27.249 34.7286 26.8421 34.8276 26.4423 34.951C26.3833 35.354 26.3511 35.7609 26.3459 36.1683C26.3404 36.6251 26.3772 37.0813 26.4561 37.5313C26.7785 39.8281 27.9205 41.9311 29.6717 43.4521C31.423 44.9732 33.6652 45.8095 35.9847 45.8068C37.2355 45.8048 38.4745 45.5619 39.6334 45.091C39.7332 45.1765 39.839 45.2546 39.9503 45.3248C40.8956 44.4247 42.0412 43.7623 43.2929 43.3919C44.5446 43.0215 45.8662 42.9539 47.1493 43.1945C48.4321 43.4351 49.6394 43.9774 50.6716 44.7764C51.7041 45.5754 52.5316 46.6082 53.0862 47.7897C54.5846 46.7424 56.3225 46.0888 58.1396 45.8894C58.0635 45.4065 58.0224 44.9188 58.0159 44.43C58.0159 41.8735 59.0314 39.4219 60.8389 37.6144C62.6466 35.8067 65.0983 34.7912 67.6545 34.7912C68.7872 34.7883 69.9111 34.9889 70.973 35.3834C72.7766 33.9182 73.9877 31.8487 74.3822 29.5589C72.6045 28.8626 70.6742 28.6486 68.7872 28.9388C66.8998 29.229 65.1229 30.0128 63.6366 31.2113Z" fill="#44853B"/>
<path d="M71.9062 21.2969C71.4517 21.2969 70.9973 21.2763 70.5417 21.3065C67.5346 21.4036 64.6811 22.6575 62.5761 24.8068C61.5756 23.8119 60.3806 23.0341 59.066 22.5221C57.7512 22.01 56.3453 21.7748 54.9353 21.831C53.5256 21.8872 52.1427 22.2337 50.8731 22.8488C49.6032 23.4639 48.474 24.3343 47.556 25.4057C46.5173 24.5401 45.3042 23.9085 43.999 23.5537C42.6942 23.199 41.3282 23.1295 39.994 23.35C38.6601 23.5706 37.3891 24.076 36.2678 24.8317C35.1463 25.5877 34.201 26.5762 33.496 27.73C32.7231 27.0695 31.8275 26.5677 30.8605 26.2538C29.8931 25.9397 28.8738 25.8195 27.8602 25.9001C25.8309 26.0744 23.8834 26.7811 22.2147 27.949C21.3488 28.544 20.546 29.2259 19.8188 29.9842C20.2558 31.3742 21.1236 32.5895 22.2969 33.4537C23.4705 34.3176 24.8882 34.7861 26.3455 34.7911C26.3868 34.7911 26.4144 34.7773 26.4557 34.7773C26.4474 34.8337 26.4557 34.8916 26.4419 34.948C26.8418 34.8246 27.2486 34.7259 27.6605 34.6519C28.3779 34.5279 29.1091 34.6149 29.8168 34.5144C30.451 34.3596 31.0676 34.1396 31.6565 33.8576C34.4051 32.8544 37.3847 32.6632 40.239 33.3068C42.0456 33.7198 44.0751 34.9039 44.0228 36.7572C44.741 34.918 45.8758 33.2698 47.3381 31.9424C48.8004 30.6152 50.5502 29.6449 52.4505 29.1075C54.3508 28.5702 56.3497 28.4805 58.2903 28.8454C60.2311 29.2103 62.0608 30.0201 63.6362 31.2109C65.122 30.0136 66.898 29.2304 68.7842 28.9402C70.67 28.65 72.5994 28.8634 74.3763 29.5586C74.6489 28.0837 74.5664 26.565 74.1354 25.1283C73.7042 23.6916 72.9372 22.3783 71.8979 21.2969H71.9062Z" fill="#52A147"/>
<path d="M14.0649 62.1072C14.3611 60.8605 14.7378 59.6341 15.1926 58.4362C14.4497 58.2558 13.7954 57.8164 13.3475 57.1969C12.7935 56.5054 12.423 55.6855 12.2702 54.8125C12.1173 53.9401 12.1871 53.0427 12.4731 52.2043C12.7891 51.3633 13.3384 50.6301 14.0566 50.0905C14.4107 49.8205 14.8022 49.6034 15.2187 49.446C15.4941 49.3429 16.3451 49.2974 16.4415 49.0538C16.5269 48.8376 15.8521 47.875 15.753 47.6438C15.5028 47.1025 15.2911 46.5443 15.1196 45.9736C14.7684 44.8441 14.6476 43.6556 14.7644 42.4788C14.8255 41.9765 14.9399 41.4821 15.1058 41.0039C13.9388 41.5617 12.953 42.4377 12.2618 43.5307C11.5707 44.6241 11.2025 45.8904 11.1994 47.1838C11.1994 47.3765 11.2407 47.5557 11.2545 47.7346C10.0125 48.2636 8.95354 49.1461 8.20918 50.2723C7.46485 51.3985 7.06799 52.7187 7.06799 54.0684C7.06799 55.4185 7.46485 56.7386 8.20918 57.8649C8.95354 58.9911 10.0125 59.8735 11.2545 60.4026C11.2407 60.5815 11.1994 60.7607 11.1994 60.9534C11.1994 61.8934 11.4408 62.8175 11.9006 63.6371C12.3604 64.4569 13.0232 65.1449 13.8253 65.6348C13.744 64.4537 13.8247 63.2669 14.0649 62.1072Z" fill="#39632C"/>
<path d="M39.6333 45.0906C38.4742 45.5618 37.2355 45.8047 35.9844 45.8068C33.6649 45.8094 31.4227 44.9731 29.6717 43.4521C27.9203 41.931 26.7783 39.8281 26.4559 37.5312L26.3457 37.5451C25.2562 37.5486 24.192 37.8752 23.2882 38.4836C22.3843 39.0916 21.681 39.9547 21.2675 40.9625C21.6985 42.3767 22.2576 43.7552 22.8194 45.1238C23.0011 45.57 23.1843 46.0159 23.4032 46.4457C23.744 47.1771 24.1939 47.8527 24.7375 48.4491C24.1898 48.8019 23.6738 49.2019 23.1953 49.6443C22.7312 50.1161 22.3252 50.6416 21.9863 51.21C21.3095 52.3483 20.8744 53.6138 20.7085 54.9277C20.4634 57.5644 20.914 60.2193 22.0152 62.6275C20.5119 63.5907 19.3855 65.0415 18.8248 66.7365C19.3862 67.8891 20.2594 68.8615 21.3453 69.543C22.4314 70.2242 23.6867 70.5878 24.9688 70.5919C25.4223 70.5952 25.8748 70.549 26.3182 70.4542C27.9798 70.1255 29.4611 69.1937 30.4766 67.838L30.6005 67.5763C28.8855 66.4239 27.5862 64.7507 26.8943 62.8037C26.2024 60.8565 26.1545 58.7388 26.7578 56.7625C27.3611 54.7861 28.5835 53.0559 30.2445 51.8272C31.906 50.5984 33.9181 49.936 35.9844 49.9375C36.4823 49.9442 36.9793 49.9854 37.4716 50.0615C37.753 48.2528 38.6246 46.5876 39.95 45.3247C39.839 45.2545 39.7329 45.1764 39.6333 45.0906Z" fill="#233D1B"/>
<path d="M22.0151 62.6327C20.9139 60.2245 20.4633 57.5696 20.7084 54.9329C20.8743 53.619 21.3094 52.3535 21.9862 51.2152C22.3251 50.6468 22.7311 50.121 23.1951 49.6495C23.6736 49.2071 24.1897 48.8071 24.7373 48.4543C24.1938 47.858 23.7439 47.1823 23.403 46.4509C23.1841 46.0211 23.001 45.5752 22.8192 45.129C22.2574 43.7604 21.6984 42.3751 21.2674 40.9678C21.2495 41.0092 21.2261 41.0476 21.2096 41.0891C20.2722 40.5873 19.2281 40.3186 18.165 40.3048C17.102 40.291 16.0513 40.533 15.1014 41.0106C14.9355 41.4886 14.8211 41.983 14.7599 42.4853C14.6432 43.6623 14.764 44.8505 15.1152 45.98C15.2867 46.5508 15.4984 47.1092 15.7486 47.6503C15.8546 47.8814 16.5293 48.8441 16.4371 49.0603C16.3407 49.3038 15.4897 49.3493 15.2143 49.4527C14.7978 49.6099 14.4063 49.827 14.0522 50.0969C13.334 50.6365 12.7846 51.3697 12.4687 52.2107C12.1827 53.0491 12.1129 53.9465 12.2657 54.8192C12.4186 55.692 12.7891 56.5118 13.3431 57.2036C13.791 57.8228 14.4453 58.2623 15.1882 58.4426C14.7325 59.6406 14.3548 60.867 14.0577 62.1136C13.8204 63.2713 13.7421 64.456 13.825 65.6345C14.6897 66.1736 15.688 66.4597 16.7069 66.4608C17.3313 66.4509 17.9498 66.3389 18.5383 66.1304C18.6195 66.3425 18.7255 66.5434 18.8247 66.7417C19.3854 65.0467 20.5118 63.5959 22.0151 62.6327Z" fill="#2F5224"/>
<path d="M22.2148 27.9487C23.4808 27.085 24.8958 26.4637 26.3884 26.116C26.4891 24.3685 27.2534 22.7253 28.5252 21.5224C29.7968 20.3195 31.48 19.6477 33.2305 19.6443C34.1743 19.6431 35.1078 19.8401 35.9706 20.2227C37.236 18.0908 39.2758 16.5299 41.6643 15.8654C44.0525 15.201 46.6055 15.4843 48.7901 16.6564C49.8758 15.6614 51.1757 14.9294 52.5895 14.5168C54.0033 14.1041 55.4926 14.0219 56.9434 14.2765C58.3937 14.5311 59.7664 15.1156 60.9552 15.985C62.1437 16.8543 63.1166 17.9853 63.799 19.2905C64.4708 18.6942 64.9005 18.2674 64.9005 18.2674H64.7901C64.8621 17.8119 64.8991 17.3515 64.9005 16.8904C64.9041 15.0229 64.3641 13.1946 63.3466 11.6287C62.3288 10.0628 60.8773 8.82703 59.1689 8.07221C57.4607 7.31736 55.5699 7.07611 53.7269 7.37788C51.8836 7.67965 50.1684 8.51137 48.7901 9.77159C46.6055 8.59952 44.0525 8.3162 41.6643 8.98067C39.2758 9.6451 37.236 11.2061 35.9706 13.3379C35.1078 12.9553 34.1743 12.7583 33.2305 12.7596C31.4045 12.7596 29.6532 13.4849 28.3622 14.7761C27.071 16.0672 26.3457 17.8184 26.3457 19.6443C26.3493 20.1111 26.3953 20.5766 26.4834 21.035C26.4421 21.035 26.4008 21.0213 26.3457 21.0213C24.5197 21.0213 22.7686 21.7467 21.4775 23.0378C20.1862 24.3289 19.4609 26.08 19.4609 27.906C19.4678 28.9414 19.7148 29.9609 20.1825 30.8845C20.0393 30.5931 19.9165 30.2923 19.8148 29.9838C20.5434 29.2255 21.3475 28.5436 22.2148 27.9487Z" fill="#7BC24F"/>
</svg>
