<svg width="1024" height="1024" viewBox="0 0 1024 1024" fill="none" xmlns="http://www.w3.org/2000/svg">
<g id="nftPlantLP" clip-path="url(#clip0)">
<rect width="1024" height="1024" fill="#71BE63"/>
<g id="background">
<g id="Group">
<path id="Vector" d="M1024 0H0V723H1024V0Z" fill="url(#paint0_linear)"/>
</g>
</g>
<g id="tree2">
<g id="Group_2">
<g id="Group_3">
<path id="Vector_2" d="M880.589 411.846C876.853 411.846 873.826 408.949 873.826 405.376V335.69C873.826 332.117 876.851 329.22 880.589 329.22C884.326 329.22 887.35 332.117 887.35 335.69V405.376C887.35 408.949 884.325 411.846 880.589 411.846Z" fill="#674447"/>
</g>
</g>
<g id="Group_4">
<g id="Group_5">
<path id="Vector_3" d="M923.174 329.754C923.174 352.276 904.107 370.533 880.587 370.533C857.067 370.533 838 352.276 838 329.754C838 307.233 857.067 238 880.587 238C904.107 238 923.174 307.232 923.174 329.754Z" fill="#43AB5F"/>
</g>
</g>
<g id="Group_6">
<g id="Group_7">
<path id="Vector_4" d="M880.586 238C874.682 238 869.059 242.37 863.947 249.262H863.948C885.476 249.262 902.927 312.627 902.927 333.24C902.927 351.17 889.712 366.12 872.106 369.716C874.847 370.246 877.681 370.534 880.585 370.534C904.105 370.534 923.173 352.277 923.173 329.755C923.174 307.232 904.106 238 880.586 238Z" fill="#71BE63"/>
</g>
</g>
</g>
<g id="tree3">
<g id="Group_8">
<g id="Group_9">
<path id="Vector_5" d="M951.501 568.037C945.053 568.037 939.83 563.038 939.83 556.871V436.601C939.83 430.434 945.051 425.435 951.501 425.435C957.951 425.435 963.17 430.434 963.17 436.601V556.871C963.17 563.038 957.949 568.037 951.501 568.037Z" fill="#674447"/>
</g>
</g>
<g id="Group_10">
<g id="Group_11">
<path id="Vector_6" d="M1025 426.356C1025 465.225 992.093 496.736 951.5 496.736C910.907 496.736 878 465.225 878 426.356C878 387.487 910.907 268 951.5 268C992.093 268 1025 387.485 1025 426.356Z" fill="#43AB5F"/>
</g>
</g>
<g id="Group_12">
<g id="Group_13">
<path id="Vector_7" d="M951.497 268C941.307 268 931.604 275.542 922.781 287.437H922.783C959.937 287.437 990.055 396.796 990.055 432.373C990.055 463.318 967.248 489.12 936.862 495.325C941.592 496.241 946.484 496.738 951.495 496.738C992.088 496.738 1025 465.227 1025 426.358C1025 387.485 992.09 268 951.497 268Z" fill="#71BE63"/>
</g>
</g>
</g>
<g id="tree1">
<g id="Group_14">
<g id="Group_15">
<path id="Vector_8" d="M170.002 472.846C164.826 472.846 160.633 468.833 160.633 463.883V367.34C160.633 362.39 164.824 358.376 170.002 358.376C175.179 358.376 179.369 362.39 179.369 367.34V463.883C179.369 468.833 175.178 472.846 170.002 472.846Z" fill="#674447"/>
</g>
</g>
<g id="Group_16">
<g id="Group_17">
<path id="Vector_9" d="M229 359.116C229 390.317 202.585 415.611 170 415.611C137.415 415.611 111 390.317 111 359.116C111 327.915 137.415 232 170 232C202.585 232 229 327.913 229 359.116Z" fill="#43AB5F"/>
</g>
</g>
<g id="Group_18">
<g id="Group_19">
<path id="Vector_10" d="M169.998 232C161.819 232 154.029 238.054 146.947 247.602H146.949C176.773 247.602 200.949 335.387 200.949 363.945C200.949 388.786 182.642 409.498 158.25 414.479C162.047 415.214 165.974 415.613 169.997 415.613C202.581 415.613 228.998 390.319 228.998 359.117C229 327.913 202.583 232 169.998 232Z" fill="#71BE63"/>
</g>
</g>
</g>
<g id="casualFarmer" clip-path="url(#clip1)">
<g id="Group_20">
<path id="Vector_11" d="M764.155 202.546C764.155 202.546 783.039 200.067 801.354 208.651C819.663 217.235 823.477 224.862 823.477 224.862C823.477 224.862 812.061 238.45 787.428 234.017C762.792 229.584 750.047 206.142 750.047 206.142C750.047 206.142 755.625 181.53 767.279 173.238C778.209 165.462 792.769 166.499 792.769 166.499C792.769 166.499 795.061 180.231 786.764 192.44C780.451 201.718 764.155 202.546 764.155 202.546Z" fill="#2A6D36"/>
<path id="Vector_12" d="M672.317 719.245C675.779 709.605 684.507 702.112 686.808 700.232C690.676 697.073 716.42 682.826 716.42 682.826L785.137 709.823V719.201C785.137 723.247 783.005 726.997 779.519 729.055L732.958 756.062C716.93 765.315 697.182 765.315 681.155 756.062C675.6 752.854 672.244 747.755 671.029 742.256L670.998 742.246C670.998 742.251 668.316 730.403 672.317 719.245Z" fill="#2B5D99"/>
<path id="Vector_13" d="M565.89 657.257C569.352 647.616 578.08 640.123 580.375 638.243C584.248 635.084 609.992 620.836 609.992 620.836L678.709 647.834V657.212C678.709 661.263 676.572 665.007 673.091 667.065L626.525 694.073C610.497 703.327 590.75 703.327 574.727 694.073C569.167 690.864 565.811 685.767 564.596 680.267L564.571 680.257C564.565 680.262 561.883 668.415 565.89 657.257Z" fill="#2B5D99"/>
<path id="Vector_14" d="M549.01 375.545C549.01 375.545 545.291 397.667 549.01 414.836C552.729 431.999 577.049 437.722 577.049 437.722L589.635 387.655L549.01 375.545Z" fill="#F8DB8F"/>
<path id="Vector_15" d="M632.848 234.017C632.848 234.017 595.927 235.033 574.186 290.224C552.442 345.408 549.009 375.545 549.009 375.545C549.009 375.545 563.505 390.041 581.051 394.617C598.601 399.195 632.848 234.017 632.848 234.017Z" fill="#E9D155"/>
<path id="Vector_16" d="M632.847 234.017C632.847 234.017 601.649 240.374 589.445 290.224C577.236 340.067 568.459 424.992 573.422 495.709C579.526 582.682 590.07 632.154 590.07 632.154C590.07 632.154 597.003 652.109 621.197 660.927C640.945 668.123 679.091 660.108 679.091 648.237V604.805L684.809 608.905L692.822 694.643C692.822 694.643 692.629 708.088 706.937 716.384C735.982 733.231 780.941 724.016 785.136 712.307C792.014 693.121 811.077 526.986 811.077 484.645C811.077 442.3 814.985 340.167 801.923 318.703C777.891 279.225 632.847 234.017 632.847 234.017Z" fill="#2C92BF"/>
<path id="Vector_17" d="M617.673 336.442C617.673 336.442 617.673 323.856 621.288 300.965C624.899 278.078 632.847 248.324 632.847 248.324C635.014 243.623 637.529 239.695 640.297 236.422C662.394 243.692 728.707 266.519 770.225 291.696C762.96 296.403 753.692 304.257 744.131 317.275C723.134 345.87 720.098 386.227 720.098 386.227L617.673 336.442Z" fill="#E9D155"/>
<path id="Vector_18" d="M852.848 517.832C852.848 517.832 854.822 554.613 825.956 556.171C788.762 558.174 790.478 506.961 790.478 506.961L852.848 517.832Z" fill="#F8DB8F"/>
<path id="Vector_19" d="M617.674 255.372C615.1 247.828 617.5 241.996 617.674 238.267C617.847 234.538 615.67 222.576 616.246 214.85C616.816 207.124 621.294 200.736 621.294 200.736C621.358 184.347 622.251 172.222 622.251 172.222C623.183 136.749 649.145 101.267 704.651 116.719C760.154 132.167 764.155 202.547 764.155 202.547L769.373 239.165L769.363 239.16C774.193 247.471 772.378 265.482 768.738 269.495C759.008 280.221 747.325 278.336 744.493 277.672C743.947 280.022 742.986 282.269 741.269 284.085C736.41 289.236 726.11 286.375 722.673 290.224C719.24 294.067 720.099 296.388 713.519 302.111C706.937 307.834 699.499 305.542 691.822 306.4C684.14 307.259 688.341 312.123 681.477 316.417C674.609 320.707 665.167 314.414 662.881 318.992C660.589 323.568 652.581 326.43 643.997 322.14C635.412 317.845 635.13 303.256 630.265 298.679C625.4 294.101 625.976 292.098 624.249 284.883C622.524 277.672 618.249 278.361 616.151 270.065C614.053 261.769 620.247 262.914 617.674 255.372Z" fill="#F8DB8F"/>
<path id="Vector_20" d="M787.046 470.909C787.046 470.909 752.139 451.453 754.431 405.106C756.722 358.758 786.521 303.122 799.886 315.728C838.547 352.177 851.133 417.698 852.848 446.306C854.565 474.915 852.848 517.832 852.848 517.832C852.848 517.832 839.455 523.064 824.24 522.408C809.026 521.753 790.478 506.961 790.478 506.961L787.046 470.909Z" fill="#E9D155"/>
<path id="Vector_21" d="M708.082 437.722L613.239 382.968V457.058C613.239 487.938 629.714 516.472 656.458 531.916C679.398 545.161 708.082 528.603 708.082 502.106V437.722Z" fill="#2B5D99"/>
<path id="Vector_22" d="M666.117 191.676C647.006 183.806 632.991 174.423 622.75 165.363C626.663 132.375 652.729 102.263 704.645 116.714C760.153 132.167 764.154 202.547 764.154 202.547C764.154 202.547 724.481 215.708 666.117 191.676Z" fill="#399349"/>
<g id="Group_21">
<path id="Vector_23" d="M687.342 169.701C687.342 169.701 696.23 145.586 721.073 160.751C721.073 160.751 715.102 171.345 706.626 173.575C698.151 175.806 687.342 169.701 687.342 169.701Z" fill="#47B85B"/>
<path id="Vector_24" d="M721.072 160.751C721.072 160.751 715.093 171.36 706.625 173.576C698.157 175.792 687.34 169.701 687.34 169.701C696.782 163.894 706.345 161.854 712.864 161.061C716.691 160.595 721.072 160.751 721.072 160.751Z" fill="#399349"/>
<path id="Vector_25" d="M686.133 154.193C686.133 154.193 701.441 133.998 676.598 118.833C676.598 118.833 670.905 129.598 673.316 138.474C675.727 147.349 686.133 154.193 686.133 154.193Z" fill="#47B85B"/>
<path id="Vector_26" d="M686.133 154.193C686.133 154.193 675.721 147.327 673.317 138.474C670.898 129.613 676.598 118.833 676.598 118.833C676.598 118.833 679.847 124.471 680.995 126.97C684.186 133.974 687.761 144.431 686.133 154.193Z" fill="#399349"/>
<path id="Vector_27" d="M671.357 191.813L670 190.891C670.13 190.686 682.625 170.363 685.345 154.034C686.942 144.499 683.458 134.249 680.264 127.32L681.695 126.641C684.994 133.786 688.578 144.4 686.913 154.366C684.151 171.01 671.487 191.609 671.357 191.813Z" fill="#2B6E37"/>
<path id="Vector_28" d="M677.806 128.664L683.964 132.618L683.157 134.019L676.998 130.065L677.806 128.664Z" fill="#2B6E37"/>
<path id="Vector_29" d="M688.332 136.003L686.393 141.106L684.904 140.455L686.843 135.352L688.332 136.003Z" fill="#2B6E37"/>
<path id="Vector_30" d="M680.992 141.3L686.768 144.865L685.985 146.28L680.209 142.716L680.992 141.3Z" fill="#2B6E37"/>
<path id="Vector_31" d="M679.9 175.214L679.066 173.777C681.52 172.283 684.15 170.669 686.92 168.971C696.546 163.068 706.276 160.959 712.756 160.237L712.973 161.884C706.651 162.59 697.152 164.65 687.769 170.416C684.998 172.115 682.354 173.72 679.9 175.214Z" fill="#2B6E37"/>
<path id="Vector_32" d="M713.431 165.035L712.775 166.522L705.682 162.966L706.338 161.479L713.431 165.035Z" fill="#2B6E37"/>
<path id="Vector_33" d="M702.755 159.614L701.238 163.972L699.734 163.365L701.251 159.007L702.755 159.614Z" fill="#2B6E37"/>
<path id="Vector_34" d="M703.108 168.942L702.448 170.428L694.648 166.5L695.308 165.014L703.108 168.942Z" fill="#2B6E37"/>
<path id="Vector_35" d="M683.011 152.856C679.835 150.254 674.252 144.972 672.542 138.664C670.076 129.584 675.652 118.862 675.893 118.422C675.994 118.237 676.164 118.095 676.367 118.03C676.57 117.964 676.804 118.012 676.986 118.123C685.054 123.047 689.827 129.028 691.198 135.887C693.218 146.058 687.042 154.369 686.776 154.719L685.511 153.662L686.141 154.179L685.511 153.662C685.571 153.585 691.513 145.567 689.642 136.149C688.404 129.997 684.13 124.567 676.936 119.986C675.748 122.537 672.151 131.135 674.084 138.261C675.664 144.092 680.972 149.093 683.982 151.555L683.011 152.856Z" fill="white"/>
<path id="Vector_36" d="M686.954 170.411C686.605 170.198 686.452 169.763 686.604 169.382C686.757 168.965 690.462 159.146 699.818 155.919C706.109 153.737 713.395 155.116 721.462 160.04C721.643 160.151 721.786 160.333 721.847 160.56C721.91 160.787 721.886 161 721.764 161.191C721.516 161.645 715.528 172.098 706.843 174.371C698.172 176.652 687.422 170.677 686.967 170.419L686.954 170.411ZM719.96 161.018C712.618 156.707 706.04 155.532 700.383 157.475C693.097 159.978 689.406 167.079 688.389 169.317C690.848 170.572 699.534 174.567 706.417 172.766C713.213 170.988 718.457 163.395 719.96 161.018Z" fill="white"/>
<path id="Vector_37" d="M671.357 191.813L670 190.891C670.13 190.686 682.625 170.363 685.345 154.034C686.942 144.499 683.458 134.249 680.264 127.32L681.695 126.641C684.994 133.786 688.578 144.4 686.913 154.366C684.151 171.01 671.487 191.609 671.357 191.813Z" fill="white"/>
<path id="Vector_38" d="M677.806 128.664L683.964 132.618L683.157 134.019L676.998 130.065L677.806 128.664Z" fill="white"/>
<path id="Vector_39" d="M688.332 136.003L686.393 141.106L684.904 140.455L686.843 135.352L688.332 136.003Z" fill="white"/>
<path id="Vector_40" d="M680.992 141.3L686.768 144.865L685.985 146.28L680.209 142.716L680.992 141.3Z" fill="white"/>
<path id="Vector_41" d="M679.9 175.214L679.066 173.777C681.52 172.283 684.15 170.669 686.92 168.971C696.546 163.068 706.276 160.959 712.756 160.237L712.973 161.884C706.651 162.59 697.152 164.65 687.769 170.416C684.998 172.115 682.354 173.72 679.9 175.214Z" fill="white"/>
<path id="Vector_42" d="M713.431 165.035L712.775 166.522L705.682 162.966L706.338 161.479L713.431 165.035Z" fill="white"/>
<path id="Vector_43" d="M702.755 159.614L701.238 163.972L699.734 163.365L701.251 159.007L702.755 159.614Z" fill="white"/>
<path id="Vector_44" d="M703.108 168.942L702.448 170.428L694.648 166.5L695.308 165.014L703.108 168.942Z" fill="white"/>
<path id="Vector_45" d="M687.342 169.701C687.342 169.701 696.23 145.586 721.073 160.751C721.073 160.751 715.102 171.345 706.626 173.575C698.151 175.806 687.342 169.701 687.342 169.701Z" fill="#47B85B"/>
<path id="Vector_46" d="M721.072 160.751C721.072 160.751 715.093 171.36 706.625 173.576C698.157 175.792 687.34 169.701 687.34 169.701C696.782 163.894 706.345 161.854 712.864 161.061C716.691 160.595 721.072 160.751 721.072 160.751Z" fill="#399349"/>
<path id="Vector_47" d="M686.133 154.193C686.133 154.193 701.441 133.998 676.598 118.833C676.598 118.833 670.905 129.598 673.316 138.474C675.727 147.349 686.133 154.193 686.133 154.193Z" fill="#47B85B"/>
<path id="Vector_48" d="M686.133 154.193C686.133 154.193 675.721 147.327 673.317 138.474C670.898 129.613 676.598 118.833 676.598 118.833C676.598 118.833 679.847 124.471 680.995 126.97C684.186 133.974 687.761 144.431 686.133 154.193Z" fill="#399349"/>
<path id="Vector_49" d="M671.357 191.813L670 190.891C670.13 190.686 682.625 170.363 685.345 154.034C686.942 144.499 683.458 134.249 680.264 127.32L681.695 126.641C684.994 133.786 688.578 144.4 686.913 154.366C684.151 171.01 671.487 191.609 671.357 191.813Z" fill="#2B6E37"/>
<path id="Vector_50" d="M677.806 128.664L683.964 132.618L683.157 134.019L676.998 130.065L677.806 128.664Z" fill="#2B6E37"/>
<path id="Vector_51" d="M688.332 136.003L686.393 141.106L684.904 140.455L686.843 135.352L688.332 136.003Z" fill="#2B6E37"/>
<path id="Vector_52" d="M680.992 141.3L686.768 144.865L685.985 146.28L680.209 142.716L680.992 141.3Z" fill="#2B6E37"/>
<path id="Vector_53" d="M679.9 175.214L679.066 173.777C681.52 172.283 684.15 170.669 686.92 168.971C696.546 163.068 706.276 160.959 712.756 160.237L712.973 161.884C706.651 162.59 697.152 164.65 687.769 170.416C684.998 172.115 682.354 173.72 679.9 175.214Z" fill="#2B6E37"/>
<path id="Vector_54" d="M713.431 165.035L712.775 166.522L705.682 162.966L706.338 161.479L713.431 165.035Z" fill="#2B6E37"/>
<path id="Vector_55" d="M702.755 159.614L701.238 163.972L699.734 163.365L701.251 159.007L702.755 159.614Z" fill="#2B6E37"/>
<path id="Vector_56" d="M703.108 168.942L702.448 170.428L694.648 166.5L695.308 165.014L703.108 168.942Z" fill="#2B6E37"/>
<path id="Vector_57" d="M683.011 152.856C679.835 150.254 674.252 144.972 672.542 138.664C670.076 129.584 675.652 118.862 675.893 118.422C675.994 118.237 676.164 118.095 676.367 118.03C676.57 117.964 676.804 118.012 676.986 118.123C685.054 123.047 689.827 129.028 691.198 135.887C693.218 146.058 687.042 154.369 686.776 154.719L685.511 153.662L686.141 154.179L685.511 153.662C685.571 153.585 691.513 145.567 689.642 136.149C688.404 129.997 684.13 124.567 676.936 119.986C675.748 122.537 672.151 131.135 674.084 138.261C675.664 144.092 680.972 149.093 683.982 151.555L683.011 152.856Z" fill="white"/>
<path id="Vector_58" d="M686.954 170.411C686.605 170.198 686.452 169.763 686.604 169.382C686.757 168.965 690.462 159.146 699.818 155.919C706.109 153.737 713.395 155.116 721.462 160.04C721.643 160.151 721.786 160.333 721.847 160.56C721.91 160.787 721.886 161 721.764 161.191C721.516 161.645 715.528 172.098 706.843 174.371C698.172 176.652 687.422 170.677 686.967 170.419L686.954 170.411ZM719.96 161.018C712.618 156.707 706.04 155.532 700.383 157.475C693.097 159.978 689.406 167.079 688.389 169.317C690.848 170.572 699.534 174.567 706.417 172.766C713.213 170.988 718.457 163.395 719.96 161.018Z" fill="white"/>
<path id="Vector_59" d="M671.357 191.813L670 190.891C670.13 190.686 682.625 170.363 685.345 154.034C686.942 144.499 683.458 134.249 680.264 127.32L681.695 126.641C684.994 133.786 688.578 144.4 686.913 154.366C684.151 171.01 671.487 191.609 671.357 191.813Z" fill="white"/>
<path id="Vector_60" d="M677.806 128.664L683.964 132.618L683.157 134.019L676.998 130.065L677.806 128.664Z" fill="white"/>
<path id="Vector_61" d="M688.332 136.003L686.393 141.106L684.904 140.455L686.843 135.352L688.332 136.003Z" fill="white"/>
<path id="Vector_62" d="M680.992 141.3L686.768 144.865L685.985 146.28L680.209 142.716L680.992 141.3Z" fill="white"/>
<path id="Vector_63" d="M679.9 175.214L679.066 173.777C681.52 172.283 684.15 170.669 686.92 168.971C696.546 163.068 706.276 160.959 712.756 160.237L712.973 161.884C706.651 162.59 697.152 164.65 687.769 170.416C684.998 172.115 682.354 173.72 679.9 175.214Z" fill="white"/>
<path id="Vector_64" d="M713.431 165.035L712.775 166.522L705.682 162.966L706.338 161.479L713.431 165.035Z" fill="white"/>
<path id="Vector_65" d="M702.755 159.614L701.238 163.972L699.734 163.365L701.251 159.007L702.755 159.614Z" fill="white"/>
<path id="Vector_66" d="M703.108 168.942L702.448 170.428L694.648 166.5L695.308 165.014L703.108 168.942Z" fill="white"/>
</g>
<path id="Vector_67" d="M617.673 255.371C615.1 247.828 617.5 241.996 617.673 238.267C617.847 234.538 615.67 222.576 616.245 214.85C616.816 207.124 621.294 200.736 621.294 200.736L715.928 255.371L740.962 240.92C740.237 234.225 738.978 223.156 737.838 216.402C737.212 212.708 735.988 209.162 734.678 206.137C753.325 206.132 764.155 202.546 764.155 202.546L769.373 239.164C769.373 239.164 757.937 232.018 749.278 244.604C745.484 250.129 745.559 261.197 745.276 265.775C744.989 270.357 746.134 278.936 741.269 284.089C736.405 289.236 726.104 286.375 722.672 290.224C719.24 294.072 720.099 296.392 713.517 302.11C706.937 307.833 699.498 305.547 691.817 306.405C684.14 307.263 688.34 312.123 681.472 316.417C674.609 320.707 665.166 314.413 662.881 318.991C660.589 323.568 652.58 326.43 643.997 322.14C635.412 317.85 635.124 303.256 630.264 298.679C625.399 294.101 625.971 292.098 624.249 284.883C622.524 277.672 618.248 278.366 616.146 270.07C614.048 261.774 620.247 262.914 617.673 255.371Z" fill="#4D2316"/>
<path id="Vector_68" d="M635.328 193.823C635.328 197.047 637.29 200.796 639.711 202.189C642.131 203.588 644.09 202.105 644.09 198.877C644.09 195.653 642.131 191.904 639.711 190.511C637.29 189.112 635.328 190.595 635.328 193.823Z" fill="#162F4D"/>
<path id="Vector_69" d="M674.703 216.08C674.703 219.303 676.662 223.052 679.082 224.451C681.503 225.844 683.467 224.362 683.467 221.138C683.467 217.91 681.503 214.161 679.082 212.767C676.662 211.369 674.703 212.851 674.703 216.08Z" fill="#162F4D"/>
<path id="Vector_70" d="M657.831 237.28L639.944 226.955C637.365 225.467 634.142 227.327 634.142 230.308V235.014C634.142 239.71 636.652 244.05 640.718 246.4L658.601 256.725C661.179 258.213 664.402 256.353 664.402 253.372V248.666C664.402 243.97 661.898 239.631 657.831 237.28Z" fill="#F8DB8F"/>
<path id="Vector_71" d="M754.431 405.106C755.672 379.963 765.014 352.108 775.433 333.878C770.589 354.617 775.24 383.197 777.892 403.961C781.325 430.859 787.047 470.909 787.047 470.909C787.047 470.909 752.14 451.454 754.431 405.106Z" fill="#BFAB44"/>
</g>
</g>
<g id="plant-bnb" clip-path="url(#clip2)">
<g id="Group_22">
<g id="Group_23">
<path id="Vector_72" d="M234.685 514.231C228.884 514.231 223.196 511.17 219.755 505.515L202.352 476.931C196.896 467.968 199.151 455.891 207.388 449.954C215.626 444.022 226.726 446.475 232.183 455.433L249.582 484.017C255.039 492.98 252.788 505.057 244.55 510.994C241.51 513.183 238.077 514.231 234.685 514.231Z" fill="#2B5D99"/>
<path id="Vector_73" d="M450.549 823.635L263.186 516.081L263.218 516.059L249.608 493.703C246.593 488.752 240.46 487.396 235.91 490.677C230.865 494.31 228.392 500.573 228.987 506.7C229.093 509.122 229.765 511.544 231.088 513.716L429.252 838.997C432.152 843.755 433.087 849.435 431.884 854.993C430.681 860.551 427.52 865.186 422.975 868.039L355.71 910.295C349.597 914.13 347.504 922.635 351.029 929.284C353.397 933.744 357.694 936.235 362.11 936.235C364.275 936.235 366.475 935.635 368.484 934.372L435.752 892.116C446.31 885.484 453.971 874.274 456.758 861.358C459.552 848.442 457.291 834.695 450.549 823.635Z" fill="#B6C5CE"/>
<path id="Vector_74" d="M73.6569 615.257C67.8559 615.257 62.1682 612.196 58.7233 606.541L41.3204 577.957C35.8675 568.994 38.1224 556.917 46.3562 550.981C54.5982 545.048 65.6982 547.501 71.1511 556.46L88.554 585.043C94.0108 594.006 91.7559 606.083 83.5182 612.02C80.4779 614.209 77.0491 615.257 73.6569 615.257Z" fill="#2B5D99"/>
<path id="Vector_75" d="M443.552 949.214C443.552 899.425 415.726 841.575 381.404 820.017C365.272 809.884 350.578 809.572 339.53 817.253V817.246L315.075 832.617L315.083 832.625C302.469 841.196 294.535 860.105 294.535 886.691C294.535 936.481 322.358 994.323 356.681 1015.89C371.759 1025.35 385.575 1026.25 396.333 1020.06L396.33 1020.06L422.807 1003.41H422.784C435.526 994.905 443.552 975.944 443.552 949.214Z" fill="#162F4D"/>
<path id="Vector_76" d="M418.833 964.772C418.833 1014.56 391.01 1037.45 356.684 1015.89C322.362 994.323 294.535 936.481 294.535 886.691C294.535 836.898 322.362 814.011 356.684 835.576C391.01 857.133 418.833 914.975 418.833 964.772Z" fill="#2B5D99"/>
<path id="Vector_77" d="M396.339 950.632C396.339 982.4 378.587 997 356.691 983.246C334.791 969.491 317.043 932.586 317.043 900.825C317.043 869.06 334.794 854.46 356.691 868.214C378.587 881.968 396.339 918.867 396.339 950.632Z" fill="#D6E5E5"/>
<path id="Vector_78" d="M380.23 940.519C380.23 959.379 369.695 968.053 356.692 959.881C343.688 951.716 333.146 929.803 333.146 910.94C333.146 892.077 343.688 883.411 356.692 891.575C369.695 899.744 380.23 921.656 380.23 940.519Z" fill="#BF0025"/>
<path id="Vector_79" d="M493.413 740.115L493.223 740.106C494.984 723.207 483.555 705.215 461.364 692.068L370.084 636.635C339.264 618.384 294.998 614.94 265.159 628.474C225.512 646.465 190.876 668.223 162.235 693.129C151.662 702.321 147.609 713.702 149.645 725.193H149.642L149.645 725.197C150.54 730.244 152.613 735.314 155.823 740.229L180.067 799.2C182.877 807.719 189.694 816.123 200.275 823.172L273.551 870.782C296.346 885.965 330.168 891.505 357.29 884.498C404.174 872.375 440.397 849.624 459.69 820.172C461.045 818.105 462.097 815.979 462.871 813.81L462.881 813.786C463.006 813.424 463.119 813.06 463.232 812.698L486.087 757.741C486.616 756.97 487.145 756.199 487.655 755.424C490.726 750.742 492.523 745.801 493.148 740.749L493.413 740.115Z" fill="#BF0025"/>
<path id="Vector_80" d="M162.234 693.129C140.681 711.87 146.162 739.674 175.224 759.031L263.473 816.372C290.927 834.663 331.659 841.33 364.324 832.891C420.792 818.295 464.421 790.891 487.653 755.42C501.095 734.904 490.472 709.315 461.363 692.068L370.075 636.635C339.263 618.384 294.992 614.94 265.157 628.474C225.51 646.465 190.874 668.223 162.234 693.129Z" fill="#EA2642"/>
<path id="Vector_81" d="M307.145 653.605C324.537 653.605 342.075 658.076 355.298 665.867L446.421 721.207L446.704 721.375C457.614 727.836 461.595 733.949 462.543 736.275C443.624 764.986 406.243 787.765 357.25 800.428C350.279 802.228 342.63 803.141 334.514 803.141C314.375 803.141 293.806 797.449 279.496 787.916L279.351 787.818L279.205 787.727L191.117 730.492C184.681 726.184 181.572 722.295 180.354 720.177C180.621 719.895 180.965 719.564 181.39 719.195C207.796 696.226 239.954 676.068 276.97 659.274C285.026 655.618 295.741 653.605 307.145 653.605Z" fill="#BF0025"/>
<path id="Vector_82" d="M279.348 787.821L279.494 787.916C293.804 797.449 314.372 803.141 334.513 803.141C342.629 803.141 350.274 802.228 357.245 800.428C375.787 795.635 392.658 789.393 407.503 781.93L355.294 750.227C342.074 742.432 324.532 737.966 307.142 737.966C295.739 737.966 285.023 739.978 276.968 743.63C264.095 749.474 251.825 755.728 240.162 762.361L279.202 787.727L279.348 787.821Z" fill="#8F001C"/>
<path id="Vector_83" d="M362.361 922.168C358.832 915.516 351.019 913.239 344.907 917.077L329.361 926.842C313.704 936.681 293.621 931.53 283.638 915.137L102.185 617.085L88.5752 594.729C85.5594 589.779 79.4265 588.422 74.8765 591.703C67.6588 596.9 65.6833 607.484 70.4639 615.332L80.8797 632.439L262.333 930.491C273.781 949.298 292.84 959.621 312.319 959.621C322.488 959.621 332.771 956.807 342.139 950.923L357.687 941.158C363.797 937.319 365.894 928.814 362.361 922.168Z" fill="#B6C5CE"/>
<path id="Vector_84" d="M122.318 689.215C117.902 689.215 113.607 686.722 111.243 682.261C107.713 675.614 109.806 667.11 115.918 663.269L276.88 562.164C282.992 558.323 290.809 560.604 294.335 567.251C297.865 573.901 295.772 582.406 289.66 586.242L128.698 687.352C126.686 688.616 124.488 689.215 122.318 689.215Z" fill="#B6C5CE"/>
</g>
</g>
<g id="Group_24">
<path id="Vector_85" d="M128.681 934.009C128.681 934.009 114.72 852.222 222.762 852.222C222.762 852.222 222.156 891.648 198.484 912.147C174.811 932.647 128.681 934.009 128.681 934.009Z" fill="#47B85B"/>
<path id="Vector_86" d="M222.762 852.222C222.762 852.222 222.155 891.7 198.483 912.147C174.81 932.595 128.68 934.009 128.68 934.009C149.135 901.977 176.692 880.166 196.54 866.954C208.195 859.195 222.762 852.222 222.762 852.222Z" fill="#399349"/>
<path id="Vector_87" d="M97.1197 893.117C97.1197 893.117 111.08 811.33 3.03711 811.33C3.03711 811.33 3.6441 850.755 27.3165 871.255C50.9891 891.754 97.1197 893.117 97.1197 893.117Z" fill="#47B85B"/>
<path id="Vector_88" d="M97.1196 893.117C97.1196 893.117 50.9278 891.702 27.3165 871.255C3.6441 850.808 3.03711 811.33 3.03711 811.33C3.03711 811.33 23.6746 821.448 31.8688 826.429C54.7519 840.427 85.0402 863.338 97.1196 893.117Z" fill="#399349"/>
<path id="Vector_89" d="M115.935 1022.25L109.865 1021.98C109.926 1021.2 114.478 943.813 94.2657 894.007C82.4898 864.91 52.8691 842.418 30.1074 828.63L33.5672 824.331C57.0571 838.539 87.6499 861.869 99.9717 892.278C120.608 943.028 115.996 1021.46 115.935 1022.25Z" fill="#2B6E37"/>
<path id="Vector_90" d="M24.4853 836.507L51.6174 837.046L51.4776 842.29L24.3457 841.751L24.4853 836.507Z" fill="#2B6E37"/>
<path id="Vector_91" d="M71.8864 839.038L74.6523 856.444L68.6369 857.156L65.8711 839.751L71.8864 839.038Z" fill="#2B6E37"/>
<path id="Vector_92" d="M57.3832 866.103L82.5726 866.212L82.543 871.454L57.3535 871.346L57.3832 866.103Z" fill="#2B6E37"/>
<path id="Vector_93" d="M114.234 961.847L108.953 959.278C114.294 950.994 120 942.081 126.01 932.697C146.89 900.087 174.872 877.806 194.72 864.856L198.362 869.05C178.999 881.685 151.685 903.442 131.351 935.266C125.341 944.65 119.575 953.563 114.234 961.847Z" fill="#2B6E37"/>
<path id="Vector_94" d="M205.467 876.998L205.977 882.224L176.506 884.369L175.996 879.142L205.467 876.998Z" fill="#2B6E37"/>
<path id="Vector_95" d="M160.991 880.032L163.807 894.662L157.822 895.523L155.006 880.893L160.991 880.032Z" fill="#2B6E37"/>
<path id="Vector_96" d="M178.757 905.261L179.255 910.488L146.818 912.793L146.32 907.565L178.757 905.261Z" fill="#2B6E37"/>
<path id="Vector_97" d="M84.5523 894.689C69.5605 892.855 41.9425 887.664 25.1291 873.089C0.910481 852.118 0 813.007 0 811.381C0 810.7 0.303494 810.018 0.849767 809.494C1.39604 808.97 2.24581 808.708 3.03486 808.708C38.1185 808.708 64.3401 817.201 81.0318 833.873C105.737 858.619 100.395 892.068 100.152 893.483L94.1428 892.697L97.1174 893.064L94.1428 892.697C94.2041 892.383 99.3019 860.139 76.4196 837.228C61.4267 822.286 37.815 814.475 6.19125 813.95C6.85886 823.02 10.4401 852.904 29.4387 869.366C44.9773 882.841 71.1991 887.716 85.4028 889.446L84.5523 894.689Z" fill="#4D2419"/>
<path id="Vector_98" d="M128.682 936.63C127.164 936.63 125.89 935.686 125.708 934.376C125.465 932.96 120.063 899.512 144.828 874.765C161.46 858.093 187.681 849.6 222.765 849.6C223.554 849.6 224.343 849.862 224.949 850.386C225.557 850.911 225.86 851.54 225.8 852.274C225.8 853.951 224.889 893.01 200.609 913.981C176.391 934.953 130.685 936.578 128.743 936.63H128.682ZM219.608 854.843C187.984 855.314 164.433 863.179 149.441 878.12C130.139 897.362 130.746 923.261 131.414 931.178C141.672 930.496 177.12 926.879 196.361 910.259C215.36 893.849 218.941 863.965 219.608 854.843Z" fill="#4D2419"/>
<path id="Vector_99" d="M115.935 1022.25L109.865 1021.98C109.926 1021.2 114.478 943.813 94.2657 894.007C82.4898 864.91 52.8691 842.418 30.1074 828.63L33.5672 824.331C57.0571 838.539 87.6499 861.869 99.9717 892.278C120.608 943.028 115.996 1021.46 115.935 1022.25Z" fill="#4D2419"/>
<path id="Vector_100" d="M24.4853 836.507L51.6174 837.046L51.4776 842.29L24.3457 841.751L24.4853 836.507Z" fill="#4D2419"/>
<path id="Vector_101" d="M71.8864 839.038L74.6523 856.444L68.6369 857.156L65.8711 839.751L71.8864 839.038Z" fill="#4D2419"/>
<path id="Vector_102" d="M57.3832 866.103L82.5726 866.212L82.543 871.454L57.3535 871.346L57.3832 866.103Z" fill="#4D2419"/>
<path id="Vector_103" d="M114.234 961.847L108.953 959.278C114.294 950.994 120 942.081 126.01 932.697C146.89 900.087 174.872 877.806 194.72 864.856L198.362 869.05C178.999 881.685 151.685 903.442 131.351 935.266C125.341 944.65 119.575 953.563 114.234 961.847Z" fill="#4D2419"/>
<path id="Vector_104" d="M205.467 876.998L205.977 882.224L176.506 884.369L175.996 879.142L205.467 876.998Z" fill="#4D2419"/>
<path id="Vector_105" d="M160.991 880.032L163.807 894.662L157.822 895.523L155.006 880.893L160.991 880.032Z" fill="#4D2419"/>
<path id="Vector_106" d="M178.757 905.261L179.255 910.488L146.818 912.793L146.32 907.565L178.757 905.261Z" fill="#4D2419"/>
</g>
<g id="plant 4">
<g id="Group_25">
<path id="Vector_107" d="M486 648C486 730.843 423.682 798 340.838 798C257.996 798 186 730.843 186 648C186 565.157 257.996 498 340.838 498C423.682 498 486 565.157 486 648Z" fill="#2B6E37"/>
<path id="Vector_108" d="M486 648C486 730.843 423.682 798 340.838 798C257.996 798 186 730.843 186 648C186 565.157 257.996 498 340.838 498C423.682 498 486 565.157 486 648Z" fill="#2B6E37"/>
<path id="Vector_109" d="M486 648C486 730.843 423.682 798 340.838 798C257.996 798 186 730.843 186 648C186 565.157 257.996 498 340.838 498C423.682 498 486 565.157 486 648Z" fill="#2B6E37"/>
<path id="Vector_110" d="M481.312 648C481.312 729.548 420.941 793.312 340.688 793.312C260.434 793.312 190.688 729.548 190.688 648C190.688 566.452 260.434 502.688 340.688 502.688C420.941 502.688 481.312 566.452 481.312 648Z" fill="white"/>
<path id="Vector_111" d="M481.312 648C481.312 729.548 420.941 793.312 340.688 793.312C260.434 793.312 190.688 729.548 190.688 648C190.688 566.452 260.434 502.688 340.688 502.688C420.941 502.688 481.312 566.452 481.312 648Z" fill="white"/>
<path id="Vector_112" d="M481.312 648C481.312 729.548 420.941 793.312 340.688 793.312C260.434 793.312 190.688 729.548 190.688 648C190.688 566.452 260.434 502.688 340.688 502.688C420.941 502.688 481.312 566.452 481.312 648Z" fill="white"/>
<path id="Vector_113" d="M330.287 783.645C335.121 788.185 341.86 790.383 350.209 790.383C362.221 790.383 369.838 784.377 369.838 775.294C369.838 769.143 366.029 765.48 360.61 763.723C357.973 762.844 354.458 761.672 349.916 760.646C341.42 758.596 337.318 756.398 337.318 750.979C337.318 744.826 342.299 741.018 350.649 741.018C356.654 741.018 361.635 743.068 366.615 747.317L369.105 742.482C364.711 738.088 358.12 735.744 350.649 735.744C338.93 735.744 331.166 742.042 331.166 751.271C331.166 757.57 334.828 761.379 340.102 763.576C342.739 764.601 346.107 765.48 350.209 766.505C358.998 768.557 363.539 769.875 363.686 775.588C363.833 781.594 358.852 785.109 350.209 785.109C343.031 785.109 337.904 783.351 332.485 778.957L330.287 783.645Z" fill="#4D2419"/>
<path id="Vector_114" d="M362.797 662.341C362.797 662.341 349.131 588.736 454.894 588.736C454.894 588.736 454.301 624.217 431.128 642.666C407.955 661.115 362.797 662.341 362.797 662.341Z" fill="#47B85B"/>
<path id="Vector_115" d="M454.903 588.736C454.903 588.736 454.308 624.264 431.135 642.666C407.962 661.068 362.805 662.341 362.805 662.341C382.829 633.513 409.804 613.884 429.234 601.994C440.643 595.011 454.903 588.736 454.903 588.736Z" fill="#399349"/>
<path id="Vector_116" d="M331.895 625.539C331.895 625.539 345.561 551.933 239.797 551.933C239.797 551.933 240.391 587.415 263.564 605.864C286.737 624.312 331.895 625.539 331.895 625.539Z" fill="#47B85B"/>
<path id="Vector_117" d="M331.895 625.539C331.895 625.539 286.677 624.265 263.564 605.864C240.391 587.462 239.797 551.933 239.797 551.933C239.797 551.933 259.999 561.04 268.02 565.522C290.421 578.12 320.07 598.739 331.895 625.539Z" fill="#399349"/>
<path id="Vector_118" d="M350.325 741.75L344.384 741.514C344.444 740.806 348.9 671.164 329.114 626.34C317.586 600.154 288.59 579.912 266.309 567.503L269.695 563.634C292.69 576.421 322.637 597.417 334.699 624.784C354.9 670.457 350.385 741.042 350.325 741.75Z" fill="#2B6E37"/>
<path id="Vector_119" d="M260.807 574.593L287.366 575.078L287.229 579.797L260.67 579.311L260.807 574.593Z" fill="#2B6E37"/>
<path id="Vector_120" d="M307.207 576.87L309.914 592.535L304.026 593.176L301.318 577.512L307.207 576.87Z" fill="#2B6E37"/>
<path id="Vector_121" d="M293 601.228L317.658 601.327L317.629 606.044L292.971 605.947L293 601.228Z" fill="#2B6E37"/>
<path id="Vector_122" d="M348.658 687.394L343.488 685.082C348.717 677.627 354.302 669.606 360.185 661.16C380.625 631.813 408.016 611.761 427.446 600.106L431.011 603.881C412.057 615.252 385.319 634.832 365.414 663.472C359.531 671.918 353.886 679.939 348.658 687.394Z" fill="#2B6E37"/>
<path id="Vector_123" d="M437.965 611.033L438.464 615.737L409.614 617.667L409.115 612.963L437.965 611.033Z" fill="#2B6E37"/>
<path id="Vector_124" d="M394.427 613.764L397.184 626.93L391.326 627.705L388.568 614.538L394.427 613.764Z" fill="#2B6E37"/>
<path id="Vector_125" d="M411.824 636.469L412.312 641.173L380.56 643.247L380.072 638.543L411.824 636.469Z" fill="#2B6E37"/>
<path id="Vector_126" d="M319.599 626.954C304.923 625.303 277.888 620.632 261.429 607.515C237.721 588.641 236.83 553.443 236.83 551.98C236.83 551.367 237.127 550.754 237.662 550.282C238.197 549.81 239.029 549.574 239.801 549.574C274.145 549.574 299.813 557.218 316.153 572.222C340.336 594.492 335.107 624.595 334.87 625.868L328.987 625.162L331.899 625.492L328.987 625.162C329.047 624.878 334.037 595.86 311.638 575.242C296.961 561.794 273.847 554.764 242.891 554.292C243.544 562.455 247.05 589.349 265.648 604.164C280.859 616.291 306.527 620.678 320.431 622.236L319.599 626.954Z" fill="#4D2419"/>
<path id="Vector_127" d="M362.795 664.7C361.309 664.7 360.061 663.85 359.883 662.671C359.646 661.397 354.358 631.295 378.6 609.023C394.881 594.02 420.55 586.376 454.893 586.376C455.666 586.376 456.438 586.612 457.032 587.083C457.626 587.555 457.923 588.121 457.864 588.782C457.864 590.292 456.973 625.444 433.205 644.316C409.498 663.19 364.755 664.653 362.854 664.7H362.795ZM451.803 591.094C420.846 591.519 397.792 598.596 383.116 612.043C364.221 629.36 364.815 652.668 365.469 659.793C375.51 659.18 410.211 655.924 429.046 640.967C447.644 626.198 451.15 599.304 451.803 591.094Z" fill="#4D2419"/>
<path id="Vector_128" d="M350.325 741.75L344.384 741.514C344.444 740.806 348.9 671.164 329.114 626.34C317.586 600.154 288.59 579.912 266.309 567.503L269.695 563.634C292.69 576.421 322.637 597.417 334.699 624.784C354.9 670.457 350.385 741.042 350.325 741.75Z" fill="#4D2419"/>
<path id="Vector_129" d="M260.807 574.593L287.366 575.078L287.229 579.797L260.67 579.311L260.807 574.593Z" fill="#4D2419"/>
<path id="Vector_130" d="M307.207 576.87L309.914 592.535L304.026 593.176L301.318 577.512L307.207 576.87Z" fill="#4D2419"/>
<path id="Vector_131" d="M293 601.228L317.658 601.327L317.629 606.044L292.971 605.947L293 601.228Z" fill="#4D2419"/>
<path id="Vector_132" d="M348.658 687.394L343.488 685.082C348.717 677.627 354.302 669.606 360.185 661.16C380.625 631.813 408.016 611.761 427.446 600.106L431.011 603.881C412.057 615.252 385.319 634.832 365.414 663.472C359.531 671.918 353.886 679.939 348.658 687.394Z" fill="#4D2419"/>
<path id="Vector_133" d="M437.965 611.033L438.464 615.737L409.614 617.667L409.115 612.963L437.965 611.033Z" fill="#4D2419"/>
<path id="Vector_134" d="M394.427 613.764L397.184 626.93L391.326 627.705L388.568 614.538L394.427 613.764Z" fill="#4D2419"/>
<path id="Vector_135" d="M411.824 636.469L412.312 641.173L380.56 643.247L380.072 638.543L411.824 636.469Z" fill="#4D2419"/>
</g>
</g>
</g>
</g>
<defs>
<linearGradient id="paint0_linear" x1="564" y1="0" x2="564" y2="723" gradientUnits="userSpaceOnUse">
<stop offset="0.40625" stop-color="#9AF4EF"/>
<stop offset="0.791667" stop-color="#B0EB81"/>
<stop offset="1" stop-color="#71BE63"/>
</linearGradient>
<clipPath id="clip0">
<rect width="1024" height="1024" fill="white"/>
</clipPath>
<clipPath id="clip1">
<rect width="650" height="650" fill="white" transform="matrix(-1 0 0 1 1025 113)"/>
</clipPath>
<clipPath id="clip2">
<rect width="600" height="600" fill="white" transform="translate(0 424)"/>
</clipPath>
</defs>
</svg>
