<svg width="1024" height="1024" viewBox="0 0 1024 1024" fill="none" xmlns="http://www.w3.org/2000/svg">
<g clip-path="url(#clip0)">
<rect width="1024" height="1024" fill="#C8D3DA"/>
<g clip-path="url(#clip1)">
<path d="M1036.74 -188.027L-180.463 -0.243896L-31.427 965.804L1185.78 778.021L1036.74 -188.027Z" fill="url(#paint0_linear)"/>
</g>
<g clip-path="url(#clip2)">
<path d="M449.452 304.751C395.06 273.347 300.824 277.033 300.824 277.033C300.824 277.033 294.784 331.621 349.176 363.025C403.568 394.429 497.788 390.751 497.788 390.751C497.788 390.751 503.844 336.155 449.452 304.751Z" fill="#71BE63"/>
<path d="M442.324 355.008C437.386 351.896 432.27 348.87 427.222 345.816L423.19 308.812L419.978 341.528L408.684 334.892L394.512 326.85L390.488 289.928L387.26 322.804C382.814 320.346 378.386 317.886 373.852 315.488C362.036 309.126 350.039 302.89 337.477 296.962C347.753 304.218 358.559 311.146 369.562 317.98C375.014 321.416 380.65 324.746 386.218 328.134L398.206 335.178L341.841 337.142L405.374 339.344L420.438 347.892C423.772 349.718 427.08 351.568 430.412 353.402L373.426 355.378L438.21 357.624C449.96 363.928 461.91 370.136 474.414 376.02C464.134 368.77 453.312 361.83 442.324 355.008Z" fill="#399349"/>
<path d="M670.773 574.459C582.551 521.72 437.452 520.254 346.688 571.185C287.187 604.573 265.813 652.191 283.001 695.891C282.425 694.431 281.889 692.965 281.401 691.497C296.231 736.103 311.059 780.703 325.888 825.308C340.718 869.914 355.546 914.514 370.376 959.12C375.284 973.88 387.428 988.02 406.858 999.634C459.892 1031.34 547.112 1032.22 601.673 1001.6C622.553 989.888 635.621 975.258 640.831 959.882C670.995 870.84 701.155 781.813 731.319 692.771C731.217 693.073 731.089 693.371 730.985 693.673C745.561 652.155 725.635 607.257 670.773 574.459Z" fill="#190A43"/>
<path d="M743.913 584.662C745.405 548.186 722.133 511.395 674.016 483.615C581.086 429.961 430.373 429.953 338.027 483.617C292.013 510.359 269.065 545.458 269.115 580.584C269.115 580.472 269.103 580.358 269.103 580.246L268.801 686.658C268.701 722.126 292.057 757.648 338.821 784.646C431.769 838.307 582.482 838.297 674.81 784.644C720.683 757.984 743.645 723.028 743.745 688.016L744.047 581.604C744.045 582.622 743.955 583.642 743.913 584.662Z" fill="#3E3D43"/>
<path d="M662.79 490.047C749.592 540.161 750.05 621.679 663.812 671.795C577.591 721.901 436.843 721.911 350.042 671.797C263.258 621.691 262.798 540.155 349.02 490.049C435.257 439.934 576.005 439.942 662.79 490.047Z" fill="#A66206"/>
<path d="M691.867 581.452L691.565 687.864C691.643 660.192 673.419 632.476 636.929 611.408C564.419 569.544 446.818 569.544 374.778 611.408C338.99 632.206 321.076 659.482 320.998 686.8L321.3 580.388C321.376 553.07 339.292 525.792 375.08 504.996C447.118 463.13 564.721 463.13 637.231 504.996C673.721 526.064 691.943 553.78 691.867 581.452Z" fill="#220F57"/>
<path d="M744.047 581.602L743.745 688.014C743.645 723.024 720.682 757.983 674.81 784.641C582.484 838.295 431.769 838.305 338.821 784.643C292.057 757.645 268.699 722.122 268.801 686.656L269.103 580.244C269.003 615.712 292.359 651.234 339.123 678.232C432.071 731.894 582.784 731.884 675.112 678.23C720.984 651.572 743.947 616.612 744.047 581.602Z" fill="#4C2CA7"/>
<path d="M673.864 483.612C766.812 537.274 767.302 624.563 674.958 678.229C582.632 731.883 431.917 731.893 338.969 678.231C246.039 624.577 245.547 537.27 337.875 483.614C430.217 429.95 580.932 429.958 673.864 483.612ZM375.769 656.845C448.279 698.711 565.882 698.709 637.92 656.843C709.958 614.977 709.576 546.86 637.064 504.996C564.554 463.132 446.953 463.132 374.913 504.996C302.875 546.864 303.259 614.981 375.769 656.845Z" fill="#997BEC"/>
<path d="M519.654 199.508C519.738 197.476 518.438 195.428 515.752 193.878C510.564 190.882 502.18 190.882 497.024 193.878C494.456 195.372 493.174 197.328 493.176 199.282C493.176 199.276 493.176 199.27 493.176 199.264V652.529C493.17 654.505 494.474 656.483 497.086 657.989C502.274 660.985 510.658 660.985 515.814 657.989C518.376 656.501 519.658 654.555 519.662 652.603V199.338C519.662 199.396 519.656 199.452 519.654 199.508Z" fill="#B3FA08"/>
<path d="M515.753 193.88C520.941 196.876 520.969 201.732 515.813 204.726C510.657 207.722 502.277 207.722 497.085 204.726C491.897 201.73 491.869 196.874 497.025 193.88C502.183 190.882 510.565 190.882 515.753 193.88Z" fill="#B3FA08"/>
<path d="M519.662 199.339V652.603C519.656 654.555 518.374 656.501 515.814 657.989C510.66 660.985 502.278 660.985 497.086 657.989C494.474 656.483 493.172 654.503 493.176 652.529V199.263C493.17 201.239 494.474 203.217 497.086 204.723C502.274 207.719 510.658 207.719 515.814 204.723C518.374 203.237 519.656 201.289 519.662 199.339Z" fill="#71BE63"/>
<path d="M659.515 444.005C605.124 412.601 510.904 416.279 510.904 416.279C510.904 416.279 504.848 470.877 559.24 502.279C613.616 533.672 707.851 529.986 707.851 529.986C707.851 529.986 713.889 475.399 659.515 444.005Z" fill="#71BE63"/>
<path d="M639.676 485.956C634.224 482.52 628.556 479.19 623.004 475.812L611.036 468.766L667.382 466.802L603.864 464.592L588.782 456.036C585.454 454.212 582.156 452.37 578.834 450.542L635.778 448.558L570.974 446.302C559.236 439.986 547.316 433.794 534.824 427.916C545.098 435.172 555.888 442.112 566.91 448.934C571.852 452.048 576.96 455.07 581.994 458.13L586.044 495.13L589.256 462.426L600.534 469.04L614.704 477.078L618.748 514.01L621.976 481.136C626.414 483.592 630.842 486.06 635.384 488.45C647.184 494.802 659.198 501.048 671.744 506.968C661.486 499.716 650.664 492.778 639.676 485.956Z" fill="#399349"/>
<path d="M553.165 376.523L599.543 349.569C605.999 345.889 600.047 322.735 585.967 292.225C588.463 292.047 590.523 291.513 592.063 290.589C592.031 290.607 592.007 290.629 591.975 290.647L638.353 263.693C640.551 262.415 641.741 260.389 641.749 257.579C641.791 242.951 609.819 212.609 570.337 189.815C564.709 186.565 559.243 183.671 553.991 181.091L565.731 174.269C593.739 158.308 609.171 132.776 600.199 117.236C598.457 114.22 595.925 111.802 592.769 109.978C579.665 102.412 555.815 105.126 533.245 117.988C533.039 118.106 532.833 118.224 532.627 118.344L521.371 124.884C521.793 119.002 522.043 112.764 522.061 106.2C522.189 60.8319 511.969 18.0961 499.239 10.7461C496.745 9.30609 494.341 9.33209 492.085 10.6421L445.707 37.598C445.763 37.564 445.821 37.544 445.877 37.512C444.337 38.362 442.867 39.818 441.481 41.808C427.151 21.412 414.025 6.7821 405.455 1.83612C402.3 0.0141221 399.76 -0.495876 398.01 0.50412L351.63 27.46C352.286 27.086 353.056 26.924 353.924 26.964C353.056 26.924 352.286 27.086 351.63 27.462C345.174 31.142 351.126 54.2899 365.206 84.7958C362.758 84.9718 360.73 85.4898 359.2 86.3798L312.822 113.332C313.12 113.16 313.434 113.002 313.768 112.856C310.968 114.078 309.434 116.258 309.426 119.448C309.384 134.076 341.356 164.404 380.838 187.199C386.464 190.449 391.93 193.353 397.182 195.923L385.444 202.745C357.436 218.707 342.002 244.251 350.976 259.791C352.718 262.805 355.248 265.225 358.402 267.045C371.504 274.611 395.356 271.891 417.929 259.027C418.679 258.601 419.407 258.161 420.137 257.721C419.707 257.981 419.285 258.247 418.849 258.501L429.801 252.137C429.379 258.029 429.141 264.271 429.121 270.835C428.993 316.191 439.203 358.933 451.933 366.283C454.657 367.855 457.275 367.669 459.711 365.975C459.505 366.119 459.297 366.263 459.087 366.387L505.465 339.433C506.947 338.571 508.363 337.149 509.701 335.229C524.029 355.623 537.153 370.253 545.719 375.197C548.873 377.011 551.413 377.521 553.165 376.523Z" fill="#997BEC"/>
<path d="M418.852 258.495L465.229 231.544C469.179 229.248 472.855 226.75 476.251 224.122L429.874 251.076C426.476 253.702 422.798 256.202 418.852 258.495Z" fill="#997BEC"/>
<path d="M398.375 196.511L444.753 169.56C440.457 171.274 436.115 173.35 431.827 175.794L385.449 202.747C389.739 200.301 394.079 198.225 398.375 196.511Z" fill="#997BEC"/>
<path d="M459.078 366.379L505.456 339.427C514.72 334.043 521.486 306.965 521.59 270.493C521.608 263.541 521.376 256.649 520.944 249.931L474.566 276.883C475 283.601 475.232 290.493 475.212 297.445C475.108 333.917 468.342 360.995 459.078 366.379Z" fill="#997BEC"/>
<path d="M359.202 86.3761L312.824 113.33C322.062 107.962 349.096 115.816 380.988 134.228C387.038 137.72 392.908 141.4 398.516 145.158L444.894 118.204C439.286 114.448 433.416 110.768 427.366 107.274C395.474 88.864 368.442 81.0081 359.202 86.3761Z" fill="#997BEC"/>
<path d="M553.159 376.523L599.537 349.569C608.567 344.423 593.331 301.171 565.503 252.973C561.241 245.593 556.927 238.519 552.655 231.859L506.277 258.813C510.551 265.475 514.865 272.547 519.127 279.927C546.951 328.125 562.191 371.377 553.159 376.523Z" fill="#997BEC"/>
<path d="M430.217 127.086L476.595 100.134C472.965 93.0938 469.009 85.8398 464.737 78.4418C442.311 39.598 418.557 9.40409 405.451 1.83612C402.295 0.0141221 399.755 -0.495876 398.005 0.50412L351.627 27.456C353.381 26.456 355.917 26.966 359.073 28.788C372.177 36.354 395.931 66.5499 418.359 105.394C422.631 112.794 426.587 120.048 430.217 127.086Z" fill="#997BEC"/>
<path d="M591.973 290.65L638.351 263.696C640.549 262.418 641.739 260.392 641.747 257.582C641.789 242.954 609.817 212.612 570.336 189.818C564.286 186.326 558.414 183.226 552.804 180.506L506.426 207.458C512.036 210.178 517.908 213.278 523.958 216.77C563.44 239.566 595.409 269.908 595.369 284.534C595.361 287.346 594.171 289.372 591.973 290.65Z" fill="#997BEC"/>
<path d="M492.081 10.6489L445.703 37.6028C447.959 36.2908 450.363 36.2668 452.857 37.7068C465.587 45.0568 475.809 87.7906 475.679 133.16C475.661 140.112 475.389 146.714 474.919 152.896L521.297 125.944C521.767 119.761 522.039 113.161 522.057 106.209C522.185 60.8407 511.965 18.1049 499.235 10.7549C496.743 9.31293 494.339 9.33693 492.081 10.6489Z" fill="#997BEC"/>
<path d="M451.937 366.275C464.667 373.625 475.095 342.799 475.225 297.443C475.243 290.491 475.011 283.599 474.579 276.881C478.209 283.923 482.175 291.193 486.437 298.573C508.867 337.421 532.621 367.629 545.725 375.191C548.879 377.011 551.417 377.521 553.167 376.523C562.197 371.377 546.961 328.125 519.133 279.927C514.871 272.547 510.557 265.473 506.283 258.813C511.891 262.583 517.761 266.249 523.811 269.743C563.293 292.539 595.331 299.165 595.371 284.535C595.413 269.907 563.441 239.565 523.959 216.771C517.909 213.279 512.037 210.179 506.427 207.459C510.723 205.745 515.065 203.669 519.353 201.225C547.361 185.264 562.793 159.732 553.821 144.192C552.079 141.176 549.547 138.758 546.391 136.934C533.287 129.368 509.437 132.082 486.867 144.944C482.579 147.4 478.583 150.062 474.923 152.894C475.393 146.71 475.665 140.11 475.683 133.158C475.811 87.7899 465.591 45.054 452.861 37.704C440.131 30.3541 429.713 61.174 429.583 106.54C429.565 113.492 429.787 120.378 430.219 127.084C426.589 120.044 422.633 112.79 418.361 105.392C395.936 66.5479 372.182 36.354 359.076 28.7861C355.92 26.9641 353.38 26.4541 351.63 27.4541C342.6 32.6001 357.836 75.8399 385.664 124.038C389.926 131.418 394.24 138.492 398.514 145.152C392.906 141.396 387.036 137.716 380.986 134.222C341.504 111.426 309.466 104.814 309.426 119.44C309.386 134.066 341.356 164.396 380.838 187.192C386.888 190.683 392.76 193.797 398.369 196.503C394.074 198.217 389.732 200.293 385.444 202.737C357.436 218.699 342.002 244.243 350.976 259.783C352.718 262.797 355.248 265.217 358.402 267.037C371.504 274.603 395.356 271.883 417.929 259.019C422.227 256.581 426.213 253.901 429.873 251.069C429.403 257.265 429.141 263.873 429.123 270.825C428.995 316.185 439.207 358.927 451.937 366.275Z" fill="#4C2CA7"/>
<path d="M532.628 118.349L486.25 145.303C486.456 145.185 486.662 145.067 486.868 144.947C509.438 132.085 533.288 129.371 546.392 136.937C549.55 138.759 552.08 141.177 553.822 144.195C562.794 159.735 547.362 185.267 519.354 201.229L565.732 174.275C593.74 158.313 609.173 132.781 600.199 117.241C598.457 114.225 595.925 111.807 592.769 109.983C579.666 102.417 555.816 105.131 533.246 117.993C533.04 118.111 532.834 118.231 532.628 118.349Z" fill="#997BEC"/>
<path d="M450.864 155.021C473.866 168.301 492.442 200.493 492.368 226.91C492.33 240.012 487.712 249.234 480.264 253.588C480.2 253.626 480.138 253.666 480.072 253.704C451.996 269.912 421.69 257.066 405.482 228.99C389.302 200.965 393.27 168.375 421.23 152.127C428.804 147.725 439.288 148.337 450.864 155.021Z" fill="#FED322"/>
<path d="M549.997 795.839V753.502C549.997 750.882 548.599 748.461 546.331 747.151L509.665 725.982C507.396 724.673 504.601 724.673 502.332 725.982L465.667 747.151C463.398 748.461 462 750.883 462 753.502V795.839C462 798.46 463.398 800.88 465.667 802.19L502.332 823.359C504.601 824.669 507.396 824.669 509.665 823.359L546.331 802.19C548.599 800.88 549.997 798.46 549.997 795.839Z" fill="#997BEC"/>
<path d="M546.335 747.151L545.639 746.749C546.082 747.702 546.335 748.748 546.335 749.835V792.172C546.335 794.792 544.937 797.213 542.668 798.523L506.003 819.691C503.734 821.001 500.938 821.001 498.67 819.691L462.699 798.924C463.325 800.269 464.343 801.422 465.671 802.189L502.336 823.357C504.605 824.667 507.4 824.667 509.669 823.357L546.335 802.189C548.603 800.879 550.001 798.458 550.001 795.838V753.501C550.001 750.881 548.603 748.461 546.335 747.151V747.151Z" fill="#3D1D95"/>
<path d="M539.845 789.978V759.364C539.845 756.744 538.447 754.323 536.178 753.014L509.666 737.707C507.397 736.398 504.602 736.398 502.333 737.707L475.821 753.014C473.552 754.323 472.154 756.745 472.154 759.364V789.978C472.154 792.598 473.552 795.018 475.821 796.328L502.333 811.635C504.602 812.944 507.397 812.944 509.666 811.635L536.178 796.328C538.447 795.018 539.845 792.598 539.845 789.978V789.978Z" fill="#6240C4"/>
<path d="M536.178 753.014L535.483 752.612C535.926 753.565 536.178 754.611 536.178 755.698V786.311C536.178 788.931 534.781 791.352 532.512 792.661L506 807.968C503.731 809.278 500.935 809.278 498.666 807.968L472.85 793.063C473.475 794.407 474.493 795.561 475.821 796.327L502.333 811.634C504.602 812.943 507.397 812.943 509.666 811.634L536.178 796.327C538.447 795.018 539.845 792.596 539.845 789.977V759.363C539.845 756.744 538.447 754.323 536.178 753.014Z" fill="#3F248A"/>
<path d="M507.436 786.413C507.436 786.413 503.905 765.476 531.231 765.476C531.231 765.476 531.078 775.569 525.091 780.816C519.103 786.064 507.436 786.413 507.436 786.413Z" fill="#997BEC"/>
<path d="M531.231 765.476C531.231 765.476 531.077 775.582 525.09 780.816C519.103 786.05 507.436 786.413 507.436 786.413C512.609 778.213 519.579 772.629 524.599 769.247C527.546 767.261 531.231 765.476 531.231 765.476Z" fill="#997BEC"/>
<path d="M499.452 775.944C499.452 775.944 502.983 755.007 475.656 755.007C475.656 755.007 475.81 765.1 481.797 770.347C487.784 775.595 499.452 775.944 499.452 775.944Z" fill="#997BEC"/>
<path d="M499.452 775.944C499.452 775.944 487.769 775.582 481.797 770.347C475.81 765.113 475.656 755.007 475.656 755.007C475.656 755.007 480.876 757.598 482.948 758.873C488.736 762.456 496.397 768.321 499.452 775.944Z" fill="#997BEC"/>
<path d="M504.211 809L502.676 808.933C502.692 808.732 503.843 788.922 498.731 776.172C495.753 768.724 488.261 762.966 482.504 759.436L483.379 758.336C489.32 761.973 497.057 767.945 500.174 775.729C505.394 788.721 504.227 808.799 504.211 809Z" fill="#997BEC"/>
<path d="M481.082 761.453L487.944 761.591L487.909 762.933L481.047 762.795L481.082 761.453Z" fill="#997BEC"/>
<path d="M493.07 762.101L493.77 766.557L492.248 766.739L491.549 762.284L493.07 762.101Z" fill="#997BEC"/>
<path d="M489.402 769.03L495.773 769.058L495.766 770.4L489.395 770.372L489.402 769.03Z" fill="#997BEC"/>
<path d="M503.781 793.539L502.445 792.882C503.796 790.761 505.239 788.479 506.759 786.077C512.04 777.729 519.117 772.025 524.137 768.71L525.059 769.784C520.161 773.019 513.253 778.588 508.11 786.735C506.59 789.137 505.132 791.419 503.781 793.539Z" fill="#997BEC"/>
<path d="M526.855 771.818L526.984 773.156L519.531 773.705L519.402 772.367L526.855 771.818Z" fill="#997BEC"/>
<path d="M515.607 772.595L516.32 776.34L514.806 776.56L514.094 772.815L515.607 772.595Z" fill="#997BEC"/>
<path d="M520.1 779.054L520.225 780.392L512.022 780.982L511.896 779.644L520.1 779.054Z" fill="#997BEC"/>
<path d="M496.274 776.347C492.482 775.877 485.497 774.548 481.244 770.817C475.119 765.449 474.889 755.437 474.889 755.021C474.889 754.846 474.965 754.672 475.104 754.538C475.242 754.404 475.457 754.336 475.656 754.336C484.53 754.336 491.162 756.511 495.383 760.778C501.632 767.113 500.281 775.676 500.219 776.038L498.699 775.837L499.452 775.931L498.699 775.837C498.715 775.756 500.004 767.502 494.217 761.637C490.425 757.812 484.453 755.813 476.455 755.679C476.623 758 477.529 765.65 482.334 769.864C486.264 773.314 492.896 774.562 496.489 775.005L496.274 776.347Z" fill="#190A43"/>
<path d="M507.435 787.083C507.051 787.083 506.729 786.842 506.683 786.506C506.621 786.144 505.255 777.581 511.519 771.247C515.725 766.979 522.357 764.805 531.23 764.805C531.43 764.805 531.63 764.872 531.783 765.006C531.937 765.14 532.013 765.301 531.998 765.489C531.998 765.919 531.768 775.917 525.627 781.286C519.502 786.654 507.942 787.07 507.45 787.083H507.435ZM530.432 766.147C522.434 766.268 516.477 768.281 512.685 772.106C507.804 777.031 507.957 783.661 508.126 785.688C510.72 785.513 519.686 784.587 524.552 780.333C529.358 776.132 530.263 768.482 530.432 766.147V766.147Z" fill="#190A43"/>
<path d="M504.211 809L502.676 808.933C502.692 808.732 503.843 788.922 498.731 776.172C495.753 768.724 488.261 762.966 482.504 759.436L483.379 758.336C489.32 761.973 497.057 767.945 500.174 775.729C505.394 788.721 504.227 808.799 504.211 809Z" fill="#190A43"/>
<path d="M481.082 761.453L487.944 761.591L487.909 762.933L481.047 762.795L481.082 761.453Z" fill="#190A43"/>
<path d="M493.07 762.101L493.77 766.557L492.248 766.739L491.549 762.284L493.07 762.101Z" fill="#190A43"/>
<path d="M489.402 769.03L495.773 769.058L495.766 770.4L489.395 770.372L489.402 769.03Z" fill="#190A43"/>
<path d="M503.781 793.539L502.445 792.882C503.796 790.761 505.239 788.479 506.759 786.077C512.04 777.729 519.117 772.025 524.137 768.71L525.059 769.784C520.161 773.019 513.253 778.588 508.11 786.735C506.59 789.137 505.132 791.419 503.781 793.539Z" fill="#190A43"/>
<path d="M526.855 771.818L526.984 773.156L519.531 773.705L519.402 772.367L526.855 771.818Z" fill="#190A43"/>
<path d="M515.607 772.595L516.32 776.34L514.806 776.56L514.094 772.815L515.607 772.595Z" fill="#190A43"/>
<path d="M520.1 779.054L520.225 780.392L512.022 780.982L511.896 779.644L520.1 779.054Z" fill="#190A43"/>
</g>
</g>
<defs>
<linearGradient id="paint0_linear" x1="489.95" y1="-103.671" x2="638.986" y2="862.377" gradientUnits="userSpaceOnUse">
<stop stop-color="white"/>
<stop offset="0.40625" stop-color="#9AF4EF"/>
<stop offset="0.791667" stop-color="#B0EB81"/>
<stop offset="1" stop-color="#C8D3DA"/>
</linearGradient>
<clipPath id="clip0">
<rect width="1024" height="1024" fill="white"/>
</clipPath>
<clipPath id="clip1">
<rect width="1231.6" height="977.476" fill="white" transform="translate(-180.463 -0.243896) rotate(-8.7701)"/>
</clipPath>
<clipPath id="clip2">
<rect width="1024" height="1024" fill="white"/>
</clipPath>
</defs>
</svg>
