<svg width="1024" height="1024" viewBox="0 0 1024 1024" fill="none" xmlns="http://www.w3.org/2000/svg">
<g clip-path="url(#clip0)">
<rect width="1024" height="1024" fill="#C8D3DA"/>
<g clip-path="url(#clip1)">
<path d="M1036.74 -188.027L-180.463 -0.243896L-31.427 965.804L1185.78 778.021L1036.74 -188.027Z" fill="url(#paint0_linear)"/>
</g>
<path d="M451.912 308.92C397.28 277.563 302.628 281.244 302.628 281.244C302.628 281.244 296.562 335.75 351.194 367.108C405.826 398.465 500.46 394.792 500.46 394.792C500.46 394.792 506.542 340.278 451.912 308.92Z" fill="#71BE63"/>
<path d="M444.765 359.108C439.805 356 434.667 352.98 429.597 349.93L425.547 312.982L422.321 345.649L410.977 339.022L396.741 330.993L392.699 294.127L389.455 326.955C384.989 324.502 380.541 322.044 375.987 319.65C364.119 313.298 352.069 307.07 339.451 301.151C349.773 308.397 360.625 315.316 371.677 322.14C377.153 325.571 382.813 328.896 388.405 332.278L400.447 339.31L343.833 341.271L407.647 343.47L422.777 352.006C426.127 353.829 429.449 355.676 432.795 357.507L375.559 359.48L440.627 361.722C452.429 368.017 464.431 374.217 476.989 380.092C466.673 372.851 455.801 365.92 444.765 359.108Z" fill="#399349"/>
<path d="M711.288 889.368L711.277 889.372L711.288 889.368Z" fill="#3E3D43"/>
<path d="M677.08 575.121C588.468 522.46 442.728 520.996 351.566 571.851C291.802 605.19 270.334 652.738 287.598 696.373C287.02 694.913 286.482 693.452 285.992 691.985C300.886 736.524 315.782 781.057 330.676 825.599C345.57 870.14 360.466 914.672 375.36 959.213C380.29 973.953 392.488 988.071 412.002 999.669C465.27 1031.32 552.874 1032.21 607.676 1001.64C628.648 989.936 641.774 975.328 647.006 959.975C677.302 871.065 707.596 782.167 737.892 693.259C737.79 693.559 737.66 693.859 737.556 694.16C752.198 652.702 732.184 607.87 677.08 575.121Z" fill="#517188"/>
<path d="M750.533 585.308C752.031 548.887 728.657 512.147 680.327 484.409C586.987 430.833 435.609 430.825 342.855 484.411C296.637 511.111 273.589 546.161 273.639 581.236C273.639 581.125 273.627 581.009 273.627 580.898L273.325 687.152C273.225 722.567 296.685 758.036 343.653 784.995C437.011 838.579 588.389 838.569 681.125 784.993C727.201 758.372 750.265 723.468 750.365 688.508L750.667 582.254C750.663 583.27 750.575 584.29 750.533 585.308Z" fill="#3E3D43"/>
<path d="M669.06 490.835C756.244 540.874 756.706 622.272 670.086 672.313C583.484 722.344 442.114 722.356 354.93 672.315C267.762 622.284 267.302 540.868 353.904 490.835C440.522 440.794 581.892 440.802 669.06 490.835Z" fill="#A66206"/>
<path d="M698.252 582.105L697.95 688.359C698.03 660.727 679.724 633.053 643.074 612.015C570.244 570.213 452.122 570.213 379.766 612.015C343.82 632.782 325.826 660.018 325.75 687.295L326.052 581.041C326.13 553.762 344.122 526.526 380.068 505.761C452.424 463.957 570.546 463.957 643.376 505.761C680.026 526.799 698.33 554.472 698.252 582.105Z" fill="#385870"/>
<path d="M750.667 582.25L750.365 688.503C750.265 723.463 727.199 758.37 681.125 784.989C588.391 838.565 437.011 838.575 343.653 784.991C296.683 758.032 273.223 722.561 273.325 687.147L273.627 580.894C273.527 616.309 296.987 651.778 343.955 678.737C437.313 732.321 588.691 732.309 681.427 678.735C727.503 652.116 750.567 617.212 750.667 582.25Z" fill="#78A5BC"/>
<path d="M680.175 484.408C773.533 537.992 774.025 625.153 681.275 678.739C588.542 732.315 437.162 732.325 343.804 678.741C250.464 625.164 249.97 537.986 342.704 484.41C435.458 430.824 586.835 430.834 680.175 484.408ZM380.766 657.387C453.596 699.19 571.717 699.188 644.073 657.385C716.429 615.581 716.045 547.564 643.213 505.76C570.384 463.959 452.262 463.959 379.906 505.76C307.55 547.566 307.936 615.585 380.766 657.387Z" fill="#A6BED0"/>
<path d="M525.297 200.723C525.381 198.693 524.077 196.649 521.377 195.1C516.165 192.108 507.745 192.108 502.567 195.1C499.987 196.591 498.699 198.544 498.701 200.496C498.701 200.49 498.701 200.484 498.701 200.478V653.075C498.695 655.047 500.005 657.023 502.629 658.527C507.841 661.519 516.261 661.519 521.439 658.527C524.013 657.041 525.297 655.097 525.305 653.148V200.552C525.303 200.61 525.299 200.667 525.297 200.723Z" fill="#71BE63"/>
<path d="M521.377 195.104C526.589 198.096 526.615 202.943 521.437 205.934C516.259 208.926 507.841 208.926 502.627 205.934C497.415 202.941 497.389 198.094 502.567 195.104C507.745 192.113 516.167 192.113 521.377 195.104Z" fill="#71BE63"/>
<path d="M525.305 200.557V653.154C525.299 655.102 524.011 657.047 521.439 658.532C516.261 661.525 507.843 661.525 502.629 658.532C500.005 657.027 498.697 655.051 498.701 653.08V200.484C498.695 202.456 500.005 204.433 502.629 205.936C507.841 208.928 516.261 208.928 521.439 205.936C524.013 204.451 525.301 202.506 525.305 200.557Z" fill="#71BE63"/>
<path d="M662.917 447.97C608.285 416.613 513.651 420.285 513.651 420.285C513.651 420.285 507.567 474.802 562.199 506.157C616.815 537.504 711.465 533.824 711.465 533.824C711.465 533.824 717.531 479.315 662.917 447.97Z" fill="#71BE63"/>
<path d="M642.988 489.862C637.512 486.43 631.818 483.106 626.242 479.734L614.222 472.699L670.816 470.739L607.018 468.532L591.868 459.988C588.524 458.167 585.212 456.328 581.876 454.503L639.07 452.52L573.98 450.268C562.19 443.961 550.218 437.777 537.672 431.908C547.992 439.153 558.83 446.082 569.898 452.896C574.862 456.006 579.992 459.022 585.05 462.078L589.118 499.022L592.344 466.367L603.672 472.97L617.904 480.996L621.966 517.875L625.21 485.049C629.668 487.5 634.114 489.966 638.678 492.352C650.53 498.694 662.596 504.931 675.198 510.841C664.896 503.603 654.024 496.674 642.988 489.862Z" fill="#399349"/>
<path d="M610.4 301.091L667.264 268.238C665.626 265.709 634.51 217.668 594 194.417C591.806 193.159 589.64 192.018 587.498 190.964L592.17 188.264C620.906 171.986 624.442 127.428 624.63 125.082C622.486 124.058 581.76 104.567 553.024 120.857C552.918 120.917 552.812 120.978 552.706 121.04L548.3 123.585C548.464 121.193 548.564 118.73 548.57 116.191C548.702 69.9034 522.416 19.1246 521.032 16.4524L464.17 49.3048C464.162 49.3107 464.14 49.3266 464.132 49.3366C441.07 22.0236 418.73 7.0518 417.16 6L360.294 38.8524C360.42 40.7055 362.192 66.7798 374.082 99.7455C373.984 99.7832 373.906 99.8131 373.858 99.833L316.994 132.685C318.63 135.214 349.738 183.261 390.258 206.518C392.45 207.775 394.616 208.918 396.758 209.972C395.166 210.892 393.598 211.799 392.088 212.674C363.342 228.946 359.806 273.503 359.62 275.85C361.764 276.873 402.5 296.361 431.236 280.081C431.828 279.745 432.398 279.379 432.97 279.019C432.496 279.317 432.028 279.625 431.542 279.906L435.96 277.355C435.796 279.747 435.698 282.208 435.69 284.749C435.558 331.026 461.834 381.809 463.216 384.481L520.082 351.629C520.092 351.621 520.114 351.603 520.126 351.593C543.186 378.904 565.524 393.88 567.094 394.932L623.958 362.079C623.832 360.226 622.06 334.15 610.172 301.182C610.272 301.14 610.352 301.109 610.4 301.091Z" fill="#4789BB"/>
<path d="M492.825 244.103C491.417 245.167 489.94 246.153 488.388 247.051L431.521 279.904C433.073 279.007 434.551 278.021 435.959 276.955C453.019 267.101 475.765 253.959 492.825 244.103Z" fill="#7AB1DA"/>
<path d="M448.938 179.823C450.602 178.879 452.312 178.059 454.062 177.352L397.196 210.204C395.448 210.912 393.738 211.731 392.072 212.675C409.134 202.819 431.84 189.609 448.938 179.823Z" fill="#7AB1DA"/>
<path d="M316.996 132.685L373.862 99.8326C375.508 99.1904 406.788 86.9604 447.306 110.219L390.442 143.072C349.922 119.815 318.644 132.043 316.996 132.685Z" fill="#7AB1DA"/>
<path d="M520.547 184.031C519.309 184.99 495.811 203.189 492.835 244.102L435.971 276.954C438.947 236.043 462.449 217.842 463.683 216.884C480.741 207.03 503.487 193.889 520.547 184.031Z" fill="#7AB1DA"/>
<path d="M463.693 216.888C462.455 217.847 438.957 236.045 435.981 276.958C434.481 278.092 432.899 279.139 431.235 280.08C402.499 296.358 361.765 276.875 359.619 275.849C359.805 273.505 363.345 228.947 392.087 212.673C393.751 211.729 395.461 210.909 397.211 210.202C434.471 228.323 462.233 217.461 463.693 216.888Z" fill="#7AB1DA"/>
<path d="M454.061 177.352C491.319 195.473 519.081 184.607 520.543 184.036L463.679 216.889C462.219 217.461 434.455 228.325 397.197 210.204C414.257 200.348 437.001 187.207 454.061 177.352Z" fill="#7AB1DA"/>
<path d="M390.421 143.069C392.767 144.415 395.085 145.853 397.375 147.368C434.613 172.007 462.223 214.641 463.675 216.884C462.215 217.457 434.451 228.321 397.193 210.2C394.905 209.088 392.585 207.861 390.239 206.517C349.719 183.26 318.613 135.213 316.975 132.684C318.625 132.04 349.903 119.812 390.421 143.069Z" fill="#ACDBFE"/>
<path d="M390.424 143.069L447.288 110.217C449.634 111.563 451.952 113 454.242 114.515C491.48 139.154 519.09 181.789 520.542 184.032L463.678 216.884C462.226 214.639 434.616 172.009 397.378 147.368C395.088 145.853 392.772 144.415 390.424 143.069Z" fill="#7AB1DA"/>
<path d="M463.678 216.882C464.906 219.256 488.238 264.333 490.968 308.524C491.134 311.238 491.22 313.944 491.214 316.62C491.082 362.898 464.592 383.395 463.198 384.474C461.814 381.802 435.54 331.02 435.672 284.742C435.68 282.062 435.78 279.467 435.964 276.952C438.942 236.039 462.442 217.841 463.678 216.882Z" fill="#ACDBFE"/>
<path d="M463.677 216.896L520.541 184.043C521.769 186.417 545.101 231.494 547.831 275.685C547.997 278.399 548.085 281.105 548.077 283.782C547.945 330.059 521.455 350.556 520.061 351.636L463.197 384.488C464.591 383.408 491.079 362.911 491.213 316.634C491.221 313.956 491.135 311.252 490.967 308.538C488.237 264.346 464.907 219.268 463.677 216.896Z" fill="#7AB1DA"/>
<path d="M520.536 184.031C521.988 186.276 549.608 228.927 586.848 253.568L529.984 286.42C492.742 261.781 465.126 219.129 463.672 216.884C480.73 207.03 503.476 193.889 520.536 184.031Z" fill="#7AB1DA"/>
<path d="M463.674 216.887C465.126 219.132 492.746 261.783 529.986 286.424C531.724 289.134 533.426 291.909 535.078 294.758C563.626 343.915 566.9 392.381 567.07 394.932C564.926 393.496 524.224 366.237 495.676 317.081C494.022 314.232 492.454 311.382 490.964 308.531C488.234 264.338 464.904 219.259 463.674 216.887Z" fill="#7AB1DA"/>
<path d="M591.954 261.901C620.502 311.057 623.776 359.523 623.946 362.074L567.082 394.927C566.908 392.376 563.636 343.909 535.09 294.753C533.438 291.904 531.736 289.126 529.998 286.418L586.862 253.566C588.6 256.276 590.3 259.052 591.954 261.901Z" fill="#4789BB"/>
<path d="M493.262 92.4097C495.996 136.597 519.316 181.66 520.542 184.032L463.678 216.884C462.45 214.512 439.132 169.448 436.398 125.262C453.458 115.404 476.204 102.266 493.262 92.4097Z" fill="#7AB1DA"/>
<path d="M488.542 83.8571C490.194 86.7043 491.766 89.5615 493.254 92.4087L436.389 125.261C434.899 122.412 433.329 119.555 431.677 116.709C403.129 67.5413 362.415 40.2859 360.273 38.8524L417.137 6C419.277 7.43355 459.991 34.6889 488.542 83.8571Z" fill="#4789BB"/>
<path d="M360.273 38.8506C362.417 40.2841 403.131 67.5395 431.677 116.708C433.329 119.555 434.901 122.41 436.389 125.259C439.123 169.447 462.443 214.509 463.669 216.881C462.217 214.637 434.607 172.006 397.369 147.365C395.631 144.657 393.927 141.877 392.275 139.028C363.719 89.8679 360.445 41.4016 360.273 38.8506Z" fill="#7AB1DA"/>
<path d="M463.672 216.883L520.536 184.03C521.996 183.46 549.77 172.614 587.026 190.731C589.318 191.844 591.634 193.069 593.982 194.415L537.118 227.268C534.772 225.921 532.454 224.697 530.162 223.583C492.906 205.464 465.136 216.312 463.672 216.883Z" fill="#7AB1DA"/>
<path d="M537.12 227.271C577.63 250.522 608.746 298.563 610.384 301.092C608.738 301.734 577.448 313.97 536.94 290.719C534.596 289.375 532.276 287.935 529.988 286.422C492.746 261.783 465.13 219.131 463.676 216.886C465.136 216.315 492.91 205.469 530.166 223.586C532.454 224.7 534.772 225.925 537.12 227.271Z" fill="#ACDBFE"/>
<path d="M537.123 227.272L593.987 194.42C634.497 217.671 665.613 265.712 667.251 268.241L610.387 301.093C608.749 298.564 577.633 250.523 537.123 227.272Z" fill="#7AB1DA"/>
<path d="M464.153 49.3066C465.537 51.9789 491.821 102.758 491.691 149.045C491.683 151.723 491.583 154.322 491.399 156.833C488.425 197.746 464.913 215.929 463.677 216.887C462.449 214.515 439.131 169.451 436.397 125.265C436.227 122.549 436.143 119.847 436.151 117.167C436.281 70.8775 462.759 50.3863 464.153 49.3066Z" fill="#ACDBFE"/>
<path d="M464.152 49.3035L521.016 16.4512C522.4 19.1234 548.684 69.9021 548.554 116.189C548.546 118.868 548.446 121.466 548.262 123.977C545.288 164.89 521.776 183.073 520.54 184.031L463.676 216.884C464.914 215.927 488.426 197.745 491.398 156.83C491.582 154.317 491.682 151.72 491.69 149.042C491.82 102.753 465.536 51.9758 464.152 49.3035Z" fill="#7AB1DA"/>
<path d="M624.601 125.08C624.415 127.424 620.875 171.981 592.141 188.261L535.277 221.114C564.013 204.836 567.549 160.278 567.737 157.932C584.797 148.076 607.543 134.936 624.601 125.08Z" fill="#4789BB"/>
<path d="M567.752 157.935C567.566 160.279 564.026 204.837 535.292 221.117C533.626 222.059 531.916 222.88 530.166 223.586C492.91 205.467 465.138 216.315 463.676 216.886C464.914 215.929 488.426 197.746 491.398 156.832C492.898 155.698 494.48 154.652 496.144 153.712C524.88 137.42 565.606 156.909 567.752 157.935Z" fill="#7AB1DA"/>
<path d="M553.006 120.86C581.742 104.57 622.468 124.059 624.612 125.085L567.748 157.938C565.604 156.914 524.878 137.423 496.142 153.713C496.036 153.772 495.93 153.834 495.824 153.896L552.688 121.043C552.794 120.98 552.9 120.92 553.006 120.86Z" fill="#4789BB"/>
<path d="M467.661 180.271C486.541 191.109 501.795 217.382 501.733 238.939C501.701 249.632 497.911 257.158 491.797 260.711C491.745 260.743 491.695 260.774 491.641 260.806C468.595 274.034 443.715 263.548 430.407 240.637C417.123 217.766 420.381 191.167 443.335 177.909C449.551 174.318 458.157 174.817 467.661 180.271Z" fill="#FECE00"/>
<g clip-path="url(#clip2)">
<path d="M506.342 820C532.721 820 554.106 798.616 554.106 772.236C554.106 745.857 532.721 724.472 506.342 724.472C479.963 724.472 458.578 745.857 458.578 772.236C458.578 798.616 479.963 820 506.342 820Z" fill="#A6BED0"/>
<path d="M506.341 809.945C527.167 809.945 544.05 793.062 544.05 772.236C544.05 751.41 527.167 734.528 506.341 734.528C485.515 734.528 468.633 751.41 468.633 772.236C468.633 793.062 485.515 809.945 506.341 809.945Z" fill="#77A0BE"/>
<path d="M525.5 739.5C534.024 746.414 538.5 754.67 538.5 766.5C538.5 787.326 532 798.5 513 807.5C504.093 811.72 494.935 808.233 492 807.5C501 810.794 500.005 810 509 810C529.5 807.5 543 793.5 544.5 773.5C544.5 755.837 535 745.5 525.5 739.5Z" fill="#517188"/>
<path d="M529.424 767.069L531.1 765.453C531.695 764.879 531.385 763.87 530.569 763.731L529.456 763.541C529.474 764.009 529.483 764.479 529.483 764.952C529.482 765.662 529.462 766.369 529.424 767.069V767.069Z" fill="#FECE85"/>
<path d="M511.012 780.824C511.012 780.824 507.708 761.196 533.28 761.196C533.28 761.196 533.136 770.658 527.533 775.577C521.93 780.497 511.012 780.824 511.012 780.824Z" fill="#A6BED0"/>
<path d="M533.279 761.196C533.279 761.196 533.135 770.67 527.533 775.577C521.93 780.484 511.012 780.824 511.012 780.824C515.853 773.137 522.375 767.902 527.073 764.732C529.831 762.869 533.279 761.196 533.279 761.196Z" fill="#A6BED0"/>
<path d="M503.543 771.01C503.543 771.01 506.847 751.382 481.275 751.382C481.275 751.382 481.419 760.844 487.022 765.763C492.624 770.683 503.543 771.01 503.543 771.01Z" fill="#A6BED0"/>
<path d="M503.543 771.01C503.543 771.01 492.61 770.67 487.022 765.763C481.419 760.856 481.275 751.382 481.275 751.382C481.275 751.382 486.16 753.81 488.099 755.006C493.515 758.365 500.684 763.864 503.543 771.01Z" fill="#A6BED0"/>
<path d="M507.995 802L506.559 801.937C506.573 801.748 507.65 783.177 502.866 771.224C500.079 764.241 493.069 758.843 487.682 755.534L488.501 754.502C494.06 757.912 501.301 763.511 504.217 770.809C509.101 782.988 508.009 801.811 507.995 802Z" fill="#385870"/>
<path d="M486.352 757.425L492.773 757.554L492.74 758.812L486.319 758.683L486.352 757.425Z" fill="#385870"/>
<path d="M497.57 758.032L498.225 762.209L496.801 762.38L496.147 758.203L497.57 758.032Z" fill="#385870"/>
<path d="M494.139 764.528L500.1 764.554L500.093 765.812L494.131 765.786L494.139 764.528Z" fill="#385870"/>
<path d="M507.594 787.505L506.344 786.889C507.608 784.901 508.958 782.762 510.381 780.51C515.322 772.684 521.945 767.336 526.643 764.229L527.505 765.235C522.922 768.267 516.457 773.489 511.645 781.126C510.223 783.378 508.858 785.517 507.594 787.505Z" fill="#385870"/>
<path d="M529.186 767.142L529.306 768.396L522.331 768.911L522.21 767.657L529.186 767.142Z" fill="#385870"/>
<path d="M518.658 767.87L519.325 771.381L517.908 771.588L517.242 768.077L518.658 767.87Z" fill="#385870"/>
<path d="M522.865 773.925L522.983 775.18L515.306 775.733L515.188 774.478L522.865 773.925Z" fill="#385870"/>
<path d="M500.568 771.388C497.02 770.947 490.484 769.702 486.504 766.204C480.772 761.171 480.557 751.785 480.557 751.395C480.557 751.231 480.628 751.067 480.758 750.942C480.887 750.816 481.088 750.753 481.275 750.753C489.578 750.753 495.785 752.791 499.735 756.792C505.582 762.731 504.318 770.759 504.26 771.098L502.838 770.91L503.542 770.998L502.838 770.91C502.853 770.834 504.059 763.096 498.643 757.598C495.095 754.012 489.507 752.137 482.022 752.011C482.18 754.188 483.028 761.36 487.524 765.31C491.202 768.544 497.408 769.714 500.77 770.129L500.568 771.388Z" fill="#385870"/>
<path d="M511.013 781.453C510.654 781.453 510.352 781.227 510.309 780.912C510.251 780.573 508.973 772.545 514.834 766.606C518.77 762.605 524.976 760.567 533.28 760.567C533.467 760.567 533.653 760.63 533.797 760.756C533.941 760.881 534.013 761.032 533.998 761.209C533.998 761.611 533.783 770.985 528.036 776.018C522.304 781.051 511.487 781.441 511.027 781.453H511.013ZM532.533 761.825C525.048 761.938 519.474 763.826 515.926 767.412C511.358 772.029 511.501 778.245 511.659 780.145C514.087 779.981 522.477 779.113 527.031 775.124C531.527 771.186 532.375 764.014 532.533 761.825V761.825Z" fill="#385870"/>
<path d="M507.995 802L506.559 801.937C506.573 801.748 507.65 783.177 502.866 771.224C500.079 764.241 493.069 758.843 487.682 755.534L488.501 754.502C494.06 757.912 501.301 763.511 504.217 770.809C509.101 782.988 508.009 801.811 507.995 802Z" fill="#385870"/>
<path d="M486.352 757.425L492.773 757.554L492.74 758.812L486.319 758.683L486.352 757.425Z" fill="#385870"/>
<path d="M497.57 758.032L498.225 762.209L496.801 762.38L496.147 758.203L497.57 758.032Z" fill="#385870"/>
<path d="M494.139 764.528L500.1 764.554L500.093 765.812L494.131 765.786L494.139 764.528Z" fill="#385870"/>
<path d="M507.594 787.505L506.344 786.889C507.608 784.901 508.958 782.762 510.381 780.51C515.322 772.684 521.945 767.336 526.643 764.229L527.505 765.235C522.922 768.267 516.457 773.489 511.645 781.126C510.223 783.378 508.858 785.517 507.594 787.505Z" fill="#385870"/>
<path d="M529.186 767.142L529.306 768.396L522.331 768.911L522.21 767.657L529.186 767.142Z" fill="#385870"/>
<path d="M518.658 767.87L519.325 771.381L517.908 771.588L517.242 768.077L518.658 767.87Z" fill="#385870"/>
<path d="M522.865 773.925L522.983 775.18L515.306 775.733L515.188 774.478L522.865 773.925Z" fill="#385870"/>
</g>
</g>
<defs>
<linearGradient id="paint0_linear" x1="489.95" y1="-103.671" x2="638.986" y2="862.377" gradientUnits="userSpaceOnUse">
<stop stop-color="white"/>
<stop offset="0.40625" stop-color="#9AF4EF"/>
<stop offset="0.791667" stop-color="#B0EB81"/>
<stop offset="1" stop-color="#C8D3DA"/>
</linearGradient>
<clipPath id="clip0">
<rect width="1024" height="1024" fill="white"/>
</clipPath>
<clipPath id="clip1">
<rect width="1231.6" height="977.476" fill="white" transform="translate(-180.463 -0.243896) rotate(-8.7701)"/>
</clipPath>
<clipPath id="clip2">
<rect width="181" height="181" fill="white" transform="translate(421 639)"/>
</clipPath>
</defs>
</svg>
