<svg width="186" height="171" viewBox="0 0 186 171" fill="none" xmlns="http://www.w3.org/2000/svg">
<g clip-path="url(#clip0)">
<path d="M72.7517 25.7158C70.9534 25.7158 69.1903 24.8434 68.1236 23.2317L62.7287 15.0853C61.0371 12.5309 61.7361 9.08904 64.2898 7.39699C66.8436 5.7062 70.2846 6.40536 71.9762 8.9585L77.3698 17.1049C79.0615 19.6593 78.3637 23.1012 75.81 24.7932C74.8675 25.4171 73.8034 25.7158 72.7517 25.7158Z" fill="#2B5D99"/>
<path d="M139.67 113.896L81.5875 26.2431L81.5976 26.2368L77.3785 19.8653C76.4436 18.4544 74.5424 18.0678 73.1319 19.003C71.5682 20.0385 70.8015 21.8235 70.986 23.5695C71.0186 24.2599 71.2269 24.9502 71.6373 25.5691L133.068 118.274C133.967 119.63 134.257 121.249 133.884 122.833C133.511 124.417 132.531 125.738 131.122 126.551L110.27 138.594C108.375 139.687 107.726 142.111 108.819 144.006C109.553 145.277 110.885 145.987 112.254 145.987C112.925 145.987 113.607 145.816 114.23 145.456L135.083 133.413C138.356 131.523 140.731 128.328 141.595 124.647C142.461 120.966 141.76 117.048 139.67 113.896Z" fill="#B6C5CE"/>
<path d="M22.8332 54.5083C21.0349 54.5083 19.2717 53.6359 18.2038 52.0242L12.8089 43.8778C11.1185 41.3234 11.8175 37.8815 14.37 36.1895C16.925 34.4987 20.366 35.1978 22.0564 37.751L27.4513 45.8974C29.1429 48.4518 28.4439 51.8937 25.8902 53.5857C24.9477 54.2096 23.8848 54.5083 22.8332 54.5083Z" fill="#2B5D99"/>
<path d="M137.501 149.686C137.501 135.496 128.875 119.009 118.235 112.865C113.234 109.977 108.679 109.888 105.254 112.077V112.075L97.6731 116.456L97.6756 116.458C93.7653 118.901 91.3057 124.29 91.3057 131.867C91.3057 146.057 99.9307 162.542 110.571 168.688C115.245 171.385 119.528 171.64 122.863 169.876L122.862 169.878L131.07 165.133H131.063C135.013 162.708 137.501 157.304 137.501 149.686Z" fill="#162F4D"/>
<path d="M129.838 154.12C129.838 168.31 121.213 174.832 110.572 168.688C99.932 162.542 91.3057 146.057 91.3057 131.867C91.3057 117.676 99.932 111.153 110.572 117.299C121.213 123.443 129.838 139.928 129.838 154.12Z" fill="#2B5D99"/>
<path d="M122.865 150.09C122.865 159.144 117.362 163.305 110.574 159.385C103.785 155.465 98.2832 144.947 98.2832 135.895C98.2832 126.842 103.786 122.681 110.574 126.601C117.362 130.521 122.865 141.037 122.865 150.09Z" fill="#D6E5E5"/>
<path d="M117.871 147.208C117.871 152.583 114.605 155.055 110.574 152.726C106.543 150.399 103.275 144.154 103.275 138.778C103.275 133.402 106.543 130.932 110.574 133.259C114.605 135.587 117.871 141.832 117.871 147.208Z" fill="#BF0025"/>
<path d="M152.958 90.0927L152.899 90.0902C153.445 85.2739 149.902 80.1463 143.023 76.3994L114.726 60.6011C105.172 55.3994 91.4493 54.4178 82.1993 58.2751C69.9086 63.4027 59.1715 69.6036 50.2929 76.7019C47.0151 79.3216 45.7589 82.5651 46.3901 85.84H46.3889L46.3901 85.8412C46.6675 87.2797 47.31 88.7245 48.3051 90.1253L55.8209 106.932C56.6918 109.36 58.8051 111.755 62.0854 113.764L84.8007 127.333C91.8672 131.66 102.352 133.239 110.76 131.242C125.294 127.787 136.523 121.303 142.504 112.909C142.924 112.32 143.25 111.714 143.49 111.096L143.493 111.089C143.532 110.986 143.567 110.882 143.602 110.779L150.687 95.1161C150.851 94.8965 151.015 94.6768 151.173 94.4559C152.125 93.1216 152.682 91.7132 152.876 90.2735L152.958 90.0927Z" fill="#BF0025"/>
<path d="M50.293 76.7019C43.6118 82.0429 45.3109 89.9672 54.32 95.4839L81.6773 111.826C90.1881 117.039 102.815 118.939 112.941 116.534C130.446 112.374 143.971 104.564 151.173 94.4546C155.34 88.6078 152.047 81.3149 143.023 76.3994L114.724 60.6011C105.172 55.3994 91.4481 54.4178 82.1993 58.2751C69.9086 63.4027 59.1715 69.6036 50.293 76.7019Z" fill="#EA2642"/>
<path d="M95.2145 65.4375C100.606 65.4375 106.043 66.7116 110.142 68.9321L138.39 84.704L138.478 84.7517C141.86 86.5931 143.094 88.3354 143.388 88.9982C137.523 97.181 125.935 103.673 110.747 107.282C108.586 107.795 106.215 108.055 103.699 108.055C97.4558 108.055 91.0796 106.433 86.6434 103.716L86.5983 103.688L86.5531 103.662L59.246 87.3501C57.2507 86.1224 56.2869 85.0141 55.9092 84.4103C55.992 84.33 56.0987 84.2358 56.2304 84.1304C64.4163 77.5844 74.3854 71.8392 85.8604 67.053C88.3577 66.0111 91.6794 65.4375 95.2145 65.4375Z" fill="#BF0025"/>
<path d="M86.5978 103.689L86.643 103.716C91.0791 106.433 97.4554 108.055 103.699 108.055C106.215 108.055 108.585 107.795 110.746 107.282C116.494 105.916 121.724 104.137 126.326 102.01L110.141 92.9747C106.043 90.753 100.605 89.4802 95.2141 89.4802C91.679 89.4802 88.3572 90.0538 85.8599 91.0944C81.8693 92.7601 78.0656 94.5425 74.4502 96.4329L86.5526 103.662L86.5978 103.689Z" fill="#8F001C"/>
<path d="M112.332 141.978C111.238 140.082 108.816 139.433 106.921 140.527L102.102 143.31C97.2482 146.114 91.0225 144.646 87.9279 139.974L31.6774 55.0293L27.4583 48.6577C26.5234 47.2469 24.6222 46.8602 23.2117 47.7954C20.9742 49.2766 20.3618 52.2929 21.8438 54.5297L25.0727 59.405L81.3233 144.35C84.8722 149.71 90.7803 152.652 96.819 152.652C99.9714 152.652 103.159 151.85 106.063 150.173L110.883 147.39C112.777 146.296 113.427 143.872 112.332 141.978Z" fill="#B6C5CE"/>
<path d="M37.9183 75.5862C36.5492 75.5862 35.2177 74.8757 34.4849 73.6042C33.3906 71.71 34.0394 69.2862 35.9343 68.1916L85.8324 39.3766C87.7273 38.282 90.1506 38.9322 91.2436 40.8264C92.3379 42.7218 91.6891 45.1456 89.7942 46.2389L39.8961 75.0552C39.2724 75.4155 38.591 75.5862 37.9183 75.5862Z" fill="#B6C5CE"/>
<path d="M102.5 108C126.524 108 146 88.5244 146 64.5C146 40.4756 126.524 21 102.5 21C78.4756 21 59 40.4756 59 64.5C59 88.5244 78.4756 108 102.5 108Z" fill="#F4B731"/>
<path fill-rule="evenodd" clip-rule="evenodd" d="M85.2355 41.844H103.362C114.387 41.844 122.745 47.836 125.854 56.554H131.5V61.824H127.043C127.13 62.657 127.175 63.505 127.175 64.367V64.497C127.175 65.4525 127.119 66.4071 127.008 67.356H131.5V72.626H125.746C122.555 81.223 114.263 87.158 103.362 87.158H85.2355V72.624H78.9365V67.354H85.2355V61.823H78.9365V56.553H85.2355V41.843V41.844ZM90.3025 72.625V82.43H103.362C111.42 82.43 117.407 78.503 120.194 72.625H90.3025ZM121.746 67.355H90.3025V61.824H121.755C121.871 62.694 121.931 63.587 121.931 64.496V64.625C121.931 65.5378 121.869 66.4496 121.746 67.354V67.355ZM103.362 46.563C111.457 46.563 117.462 50.593 120.232 56.554H90.3025V46.563H103.362Z" fill="#FFFDFA"/>
<g style="mix-blend-mode:multiply" opacity="0.2">
<g style="mix-blend-mode:multiply" opacity="0.2">
<g style="mix-blend-mode:multiply" opacity="0.2">
<path fill-rule="evenodd" clip-rule="evenodd" d="M102.5 105.163C124.958 105.163 143.163 86.958 143.163 64.5C143.163 42.042 124.958 23.837 102.5 23.837C80.042 23.837 61.837 42.042 61.837 64.5C61.837 86.958 80.042 105.163 102.5 105.163ZM102.5 108C126.524 108 146 88.524 146 64.5C146 40.476 126.524 21 102.5 21C78.476 21 59 40.476 59 64.5C59 88.524 78.476 108 102.5 108Z" fill="#191326"/>
</g>
</g>
</g>
<path d="M67 135.5C67 154.002 53.0822 169 34.5806 169C16.0791 169 0 154.002 0 135.5C0 116.998 16.0791 102 34.5806 102C53.0822 102 67 116.998 67 135.5Z" fill="#2B6E37"/>
<path d="M67 135.5C67 154.002 53.0822 169 34.5806 169C16.0791 169 0 154.002 0 135.5C0 116.998 16.0791 102 34.5806 102C53.0822 102 67 116.998 67 135.5Z" fill="#2B6E37"/>
<path d="M67 135.5C67 154.002 53.0822 169 34.5806 169C16.0791 169 0 154.002 0 135.5C0 116.998 16.0791 102 34.5806 102C53.0822 102 67 116.998 67 135.5Z" fill="#2B6E37"/>
<path d="M65.9531 135.5C65.9531 153.712 52.4702 167.953 34.5469 167.953C16.6235 167.953 1.04688 153.712 1.04688 135.5C1.04688 117.288 16.6235 103.047 34.5469 103.047C52.4702 103.047 65.9531 117.288 65.9531 135.5Z" fill="white"/>
<path d="M65.9531 135.5C65.9531 153.712 52.4702 167.953 34.5469 167.953C16.6235 167.953 1.04688 153.712 1.04688 135.5C1.04688 117.288 16.6235 103.047 34.5469 103.047C52.4702 103.047 65.9531 117.288 65.9531 135.5Z" fill="white"/>
<path d="M65.9531 135.5C65.9531 153.712 52.4702 167.953 34.5469 167.953C16.6235 167.953 1.04688 153.712 1.04688 135.5C1.04688 117.288 16.6235 103.047 34.5469 103.047C52.4702 103.047 65.9531 117.288 65.9531 135.5Z" fill="white"/>
<path d="M32.2241 165.794C33.3037 166.808 34.8086 167.299 36.6733 167.299C39.3561 167.299 41.0572 165.958 41.0572 163.929C41.0572 162.555 40.2065 161.737 38.9961 161.345C38.4074 161.148 37.6222 160.887 36.608 160.658C34.7104 160.2 33.7944 159.709 33.7944 158.499C33.7944 157.124 34.9068 156.274 36.7715 156.274C38.1128 156.274 39.2252 156.732 40.3374 157.681L40.8935 156.601C39.9122 155.62 38.44 155.096 36.7715 155.096C34.1543 155.096 32.4205 156.503 32.4205 158.564C32.4205 159.971 33.2383 160.821 34.4161 161.312C35.005 161.541 35.7573 161.737 36.6733 161.966C38.6362 162.424 39.6504 162.719 39.6831 163.995C39.716 165.336 38.6036 166.121 36.6733 166.121C35.0704 166.121 33.9253 165.728 32.7149 164.747L32.2241 165.794Z" fill="#4D2419"/>
<path d="M39.4852 138.703C39.4852 138.703 36.4331 122.264 60.0535 122.264C60.0535 122.264 59.921 130.189 54.7457 134.309C49.5703 138.429 39.4852 138.703 39.4852 138.703Z" fill="#47B85B"/>
<path d="M60.0536 122.264C60.0536 122.264 59.9208 130.199 54.7455 134.309C49.5702 138.418 39.485 138.703 39.485 138.703C43.957 132.265 49.9816 127.881 54.3209 125.225C56.8688 123.666 60.0536 122.264 60.0536 122.264Z" fill="#399349"/>
<path d="M32.5847 130.484C32.5847 130.484 35.6367 114.045 12.0161 114.045C12.0161 114.045 12.1488 121.969 17.3241 126.089C22.4995 130.209 32.5847 130.484 32.5847 130.484Z" fill="#47B85B"/>
<path d="M32.5847 130.484C32.5847 130.484 22.4861 130.199 17.3241 126.089C12.1488 121.98 12.0161 114.045 12.0161 114.045C12.0161 114.045 16.5279 116.079 18.3194 117.08C23.3221 119.893 29.9438 124.498 32.5847 130.484Z" fill="#399349"/>
<path d="M36.6983 156.438L35.3713 156.385C35.3847 156.227 36.3799 140.673 31.961 130.663C29.3865 124.814 22.9108 120.294 17.9346 117.522L18.691 116.658C23.8264 119.514 30.5147 124.203 33.2085 130.315C37.7201 140.515 36.7117 156.279 36.6983 156.438Z" fill="#2B6E37"/>
<path d="M16.7056 119.105L22.6373 119.214L22.6067 120.268L16.675 120.159L16.7056 119.105Z" fill="#2B6E37"/>
<path d="M27.0683 119.614L27.6729 123.113L26.3578 123.256L25.7532 119.758L27.0683 119.614Z" fill="#2B6E37"/>
<path d="M23.8978 125.054L29.4048 125.076L29.3983 126.13L23.8914 126.108L23.8978 125.054Z" fill="#2B6E37"/>
<path d="M36.3269 144.298L35.1724 143.782C36.34 142.117 37.5875 140.325 38.9013 138.439C43.4661 131.885 49.5836 127.407 53.9229 124.804L54.7192 125.647C50.4861 128.186 44.5145 132.559 40.069 138.955C38.7552 140.842 37.4945 142.633 36.3269 144.298Z" fill="#2B6E37"/>
<path d="M56.2727 127.244L56.3841 128.294L49.941 128.725L49.8296 127.675L56.2727 127.244Z" fill="#2B6E37"/>
<path d="M46.5484 127.854L47.1641 130.794L45.8558 130.967L45.24 128.027L46.5484 127.854Z" fill="#2B6E37"/>
<path d="M50.433 132.925L50.5419 133.976L43.4505 134.439L43.3417 133.388L50.433 132.925Z" fill="#2B6E37"/>
<path d="M29.8376 130.8C26.56 130.431 20.5221 129.388 16.8463 126.458C11.5516 122.243 11.3525 114.382 11.3525 114.056C11.3525 113.919 11.4189 113.782 11.5383 113.676C11.6577 113.571 11.8435 113.518 12.016 113.518C19.6861 113.518 25.4187 115.225 29.0679 118.576C34.469 123.55 33.3011 130.273 33.2481 130.557L31.9343 130.399L32.5846 130.473L31.9343 130.399C31.9477 130.336 33.0622 123.855 28.0596 119.251C24.7818 116.247 19.6198 114.677 12.7061 114.572C12.852 116.395 13.635 122.401 17.7885 125.71C21.1856 128.418 26.9183 129.398 30.0235 129.746L29.8376 130.8Z" fill="#4D2419"/>
<path d="M39.4852 139.23C39.1534 139.23 38.8747 139.04 38.8349 138.777C38.7819 138.492 37.6008 131.769 43.0151 126.795C46.6511 123.444 52.3838 121.737 60.0538 121.737C60.2263 121.737 60.3989 121.79 60.5314 121.895C60.6641 122.001 60.7305 122.127 60.7173 122.275C60.7173 122.612 60.5182 130.462 55.2101 134.677C49.9154 138.893 39.923 139.219 39.4984 139.23H39.4852ZM59.3637 122.791C52.4499 122.886 47.3012 124.467 44.0236 127.47C39.8037 131.337 39.9364 136.543 40.0824 138.134C42.325 137.997 50.0748 137.27 54.2813 133.929C58.4349 130.631 59.2178 124.625 59.3637 122.791Z" fill="#4D2419"/>
<path d="M36.6983 156.438L35.3713 156.385C35.3847 156.227 36.3799 140.673 31.961 130.663C29.3865 124.814 22.9108 120.294 17.9346 117.522L18.691 116.658C23.8264 119.514 30.5147 124.203 33.2085 130.315C37.7201 140.515 36.7117 156.279 36.6983 156.438Z" fill="#4D2419"/>
<path d="M16.7056 119.105L22.6373 119.214L22.6067 120.268L16.675 120.159L16.7056 119.105Z" fill="#4D2419"/>
<path d="M27.0683 119.614L27.6729 123.113L26.3578 123.256L25.7532 119.758L27.0683 119.614Z" fill="#4D2419"/>
<path d="M23.8978 125.054L29.4048 125.076L29.3983 126.13L23.8914 126.108L23.8978 125.054Z" fill="#4D2419"/>
<path d="M36.3269 144.298L35.1724 143.782C36.34 142.117 37.5875 140.325 38.9013 138.439C43.4661 131.885 49.5836 127.407 53.9229 124.804L54.7192 125.647C50.4861 128.186 44.5145 132.559 40.069 138.955C38.7552 140.842 37.4945 142.633 36.3269 144.298Z" fill="#4D2419"/>
<path d="M56.2727 127.244L56.3841 128.294L49.941 128.725L49.8296 127.675L56.2727 127.244Z" fill="#4D2419"/>
<path d="M46.5484 127.854L47.1641 130.794L45.8558 130.967L45.24 128.027L46.5484 127.854Z" fill="#4D2419"/>
<path d="M50.433 132.925L50.5419 133.976L43.4505 134.439L43.3417 133.388L50.433 132.925Z" fill="#4D2419"/>
</g>
<defs>
<clipPath id="clip0">
<rect width="186" height="171" fill="white"/>
</clipPath>
</defs>
</svg>
