<svg width="186" height="171" viewBox="0 0 186 171" fill="none" xmlns="http://www.w3.org/2000/svg">
<g clip-path="url(#clip0)">
<path d="M72.7517 25.7158C70.9534 25.7158 69.1903 24.8434 68.1236 23.2317L62.7287 15.0853C61.0371 12.5309 61.7361 9.08904 64.2898 7.39699C66.8436 5.7062 70.2846 6.40536 71.9762 8.9585L77.3698 17.1049C79.0615 19.6593 78.3637 23.1012 75.81 24.7932C74.8675 25.4171 73.8034 25.7158 72.7517 25.7158Z" fill="#2B5D99"/>
<path d="M139.67 113.896L81.5875 26.243L81.5976 26.2367L77.3785 19.8652C76.4436 18.4543 74.5424 18.0677 73.1319 19.0029C71.5682 20.0384 70.8015 21.8234 70.986 23.5694C71.0186 24.2598 71.2269 24.9501 71.6373 25.569L133.068 118.274C133.967 119.63 134.257 121.249 133.884 122.833C133.511 124.417 132.531 125.738 131.122 126.551L110.27 138.594C108.375 139.687 107.726 142.111 108.819 144.006C109.553 145.277 110.885 145.987 112.254 145.987C112.925 145.987 113.607 145.816 114.23 145.456L135.083 133.413C138.356 131.523 140.731 128.328 141.595 124.647C142.461 120.966 141.76 117.048 139.67 113.896Z" fill="#B6C5CE"/>
<path d="M22.8332 54.5083C21.0349 54.5083 19.2717 53.6359 18.2038 52.0242L12.8089 43.8778C11.1185 41.3234 11.8175 37.8815 14.37 36.1895C16.925 34.4987 20.366 35.1978 22.0564 37.751L27.4513 45.8974C29.1429 48.4518 28.4439 51.8937 25.8902 53.5857C24.9477 54.2096 23.8848 54.5083 22.8332 54.5083Z" fill="#2B5D99"/>
<path d="M137.501 149.686C137.501 135.496 128.875 119.009 118.235 112.865C113.234 109.977 108.679 109.888 105.254 112.077V112.075L97.6731 116.456L97.6756 116.458C93.7653 118.901 91.3057 124.29 91.3057 131.867C91.3057 146.057 99.9307 162.542 110.571 168.688C115.245 171.385 119.528 171.64 122.863 169.876L122.862 169.878L131.07 165.133H131.063C135.013 162.708 137.501 157.304 137.501 149.686Z" fill="#162F4D"/>
<path d="M129.838 154.12C129.838 168.31 121.213 174.832 110.572 168.688C99.932 162.542 91.3057 146.057 91.3057 131.867C91.3057 117.676 99.932 111.153 110.572 117.299C121.213 123.443 129.838 139.928 129.838 154.12Z" fill="#2B5D99"/>
<path d="M122.865 150.09C122.865 159.144 117.362 163.305 110.574 159.385C103.785 155.465 98.2832 144.947 98.2832 135.895C98.2832 126.842 103.786 122.681 110.574 126.601C117.362 130.521 122.865 141.037 122.865 150.09Z" fill="#D6E5E5"/>
<path d="M117.871 147.208C117.871 152.583 114.605 155.055 110.574 152.726C106.543 150.399 103.275 144.154 103.275 138.778C103.275 133.402 106.543 130.932 110.574 133.259C114.605 135.587 117.871 141.832 117.871 147.208Z" fill="#BF0025"/>
<path d="M152.958 90.0927L152.899 90.0902C153.445 85.2739 149.902 80.1463 143.023 76.3994L114.726 60.6011C105.172 55.3994 91.4493 54.4178 82.1993 58.2751C69.9086 63.4027 59.1715 69.6036 50.2929 76.7019C47.0151 79.3216 45.7589 82.5651 46.3901 85.84H46.3889L46.3901 85.8412C46.6675 87.2797 47.31 88.7245 48.3051 90.1253L55.8209 106.932C56.6918 109.36 58.8051 111.755 62.0854 113.764L84.8007 127.333C91.8672 131.66 102.352 133.239 110.76 131.242C125.294 127.787 136.523 121.303 142.504 112.909C142.924 112.32 143.25 111.714 143.49 111.096L143.493 111.089C143.532 110.986 143.567 110.882 143.602 110.779L150.687 95.1161C150.851 94.8965 151.015 94.6768 151.173 94.4559C152.125 93.1216 152.682 91.7132 152.876 90.2735L152.958 90.0927Z" fill="#BF0025"/>
<path d="M50.293 76.7019C43.6118 82.0429 45.3109 89.9672 54.32 95.4839L81.6773 111.826C90.1881 117.039 102.815 118.939 112.941 116.534C130.446 112.374 143.971 104.564 151.173 94.4546C155.34 88.6078 152.047 81.3149 143.023 76.3994L114.724 60.6011C105.172 55.3994 91.4481 54.4178 82.1993 58.2751C69.9086 63.4027 59.1715 69.6036 50.293 76.7019Z" fill="#EA2642"/>
<path d="M95.2145 65.4375C100.606 65.4375 106.043 66.7116 110.142 68.9321L138.39 84.704L138.478 84.7517C141.86 86.5931 143.094 88.3354 143.388 88.9982C137.523 97.181 125.935 103.673 110.747 107.282C108.586 107.795 106.215 108.055 103.699 108.055C97.4558 108.055 91.0796 106.433 86.6434 103.716L86.5983 103.688L86.5531 103.662L59.246 87.3501C57.2507 86.1224 56.2869 85.0141 55.9092 84.4103C55.992 84.33 56.0987 84.2358 56.2304 84.1304C64.4163 77.5844 74.3854 71.8392 85.8604 67.053C88.3577 66.0111 91.6794 65.4375 95.2145 65.4375Z" fill="#BF0025"/>
<path d="M86.5978 103.689L86.643 103.716C91.0791 106.433 97.4554 108.055 103.699 108.055C106.215 108.055 108.585 107.795 110.746 107.282C116.494 105.916 121.724 104.137 126.326 102.01L110.141 92.9747C106.043 90.753 100.605 89.4802 95.2141 89.4802C91.679 89.4802 88.3572 90.0538 85.8599 91.0944C81.8693 92.7601 78.0656 94.5425 74.4502 96.4329L86.5526 103.662L86.5978 103.689Z" fill="#8F001C"/>
<path d="M112.332 141.978C111.238 140.082 108.816 139.433 106.921 140.527L102.102 143.31C97.2482 146.114 91.0225 144.646 87.9279 139.974L31.6774 55.0293L27.4583 48.6577C26.5234 47.2469 24.6222 46.8602 23.2117 47.7954C20.9742 49.2766 20.3618 52.2929 21.8438 54.5297L25.0727 59.405L81.3233 144.35C84.8722 149.71 90.7803 152.652 96.819 152.652C99.9714 152.652 103.159 151.85 106.063 150.173L110.883 147.39C112.777 146.296 113.427 143.872 112.332 141.978Z" fill="#B6C5CE"/>
<path d="M37.9183 75.5862C36.5492 75.5862 35.2177 74.8757 34.4849 73.6042C33.3906 71.71 34.0394 69.2862 35.9343 68.1916L85.8324 39.3766C87.7273 38.282 90.1506 38.9322 91.2436 40.8264C92.3379 42.7218 91.6891 45.1456 89.7942 46.2389L39.8961 75.0552C39.2724 75.4155 38.591 75.5862 37.9183 75.5862Z" fill="#B6C5CE"/>
<g style="mix-blend-mode:multiply" opacity="0.1">
<g style="mix-blend-mode:multiply" opacity="0.1">
<path d="M101.551 104.474C123.274 104.474 140.884 86.86 140.884 65.1314C140.884 43.4028 123.274 25.7883 101.551 25.7883C79.8279 25.7883 62.2178 43.4028 62.2178 65.1314C62.2178 86.86 79.8279 104.474 101.551 104.474Z" stroke="#191326" stroke-width="3"/>
</g>
</g>
<g style="mix-blend-mode:multiply" opacity="0.2">
<g style="mix-blend-mode:multiply" opacity="0.2">
<g style="mix-blend-mode:multiply" opacity="0.2">
<path fill-rule="evenodd" clip-rule="evenodd" d="M101.5 104.163C123.958 104.163 142.163 85.958 142.163 63.5C142.163 41.042 123.958 22.837 101.5 22.837C79.042 22.837 60.837 41.042 60.837 63.5C60.837 85.958 79.042 104.163 101.5 104.163ZM101.5 107C125.524 107 145 87.524 145 63.5C145 39.476 125.524 20 101.5 20C77.476 20 58 39.476 58 63.5C58 87.524 77.476 107 101.5 107Z" fill="#191326"/>
</g>
</g>
</g>
<path d="M33.5 171C52.0015 171 67 156.002 67 137.5C67 118.998 52.0015 104 33.5 104C14.9985 104 0 118.998 0 137.5C0 156.002 14.9985 171 33.5 171Z" fill="url(#paint0_linear)"/>
<path d="M24.5146 125.982C24.5146 125.982 33.3303 123.776 32.7608 131.555C32.7608 131.555 25.5632 134.52 24.5146 125.982Z" fill="#399349"/>
<path d="M52.0233 130.286C52.0233 130.286 43.8678 124.203 40.9551 129.859C40.9422 129.859 45.3565 137.105 52.0233 130.286Z" fill="#399349"/>
<path d="M24.5146 125.982L32.7608 131.555C33.3303 123.764 24.5146 125.982 24.5146 125.982Z" fill="#47B85B"/>
<path d="M51.9844 130.322C51.9974 130.31 52.0103 130.298 52.0232 130.286C52.0232 130.286 43.8678 124.203 40.9551 129.859C40.9551 129.859 40.968 129.871 40.981 129.907L51.9844 130.322Z" fill="#47B85B"/>
<path d="M29.0248 128.283L36.0814 133.059L35.3125 134.013L28.2559 129.236L29.0248 128.283Z" fill="#2B6E37"/>
<path d="M36.1572 129.089L46.4901 129.496L46.4345 130.681L36.1016 130.274L36.1572 129.089Z" fill="#2B6E37"/>
<path d="M34.9869 138.967L33.7441 138.635L33.9254 138.066C36.9157 128.508 35.5565 120.016 35.5435 119.933L35.44 119.352L36.7215 119.174L36.8251 119.755C36.8898 120.111 38.2491 128.579 35.1811 138.386L34.9869 138.967Z" fill="#2B6E37"/>
<path d="M55.2597 146.533H13.835L16.424 162.662C17.848 163.966 24.5407 166.22 34.5473 166.22C44.554 166.22 51.1172 164.085 52.6706 162.662L55.2597 146.533Z" fill="#AC2C2C"/>
<path d="M14.7152 151.989C18.8577 152.985 26.1977 153.649 34.5473 153.649C42.897 153.649 50.2369 152.985 54.3794 151.989L55.2597 146.533H13.835L14.7152 151.989Z" fill="#8D2323"/>
<path d="M34.5471 139.418C21.6018 139.418 11.1162 141.007 11.1162 142.976V146.533C11.1162 148.502 21.6018 150.091 34.5471 150.091C47.4923 150.091 57.9779 148.502 57.9779 146.533V142.976C57.9779 141.007 47.4923 139.418 34.5471 139.418Z" fill="#AC2C2C"/>
<path fill-rule="evenodd" clip-rule="evenodd" d="M34.5471 139.418C21.6018 139.418 11.1162 141.007 11.1162 142.976V146.533C11.1162 148.336 19.9837 149.83 31.4661 150.056C33.4208 146.925 34.5471 143.296 34.5471 139.418Z" fill="#CE4C4C"/>
<path d="M34.5471 146.533C47.4876 146.533 57.9779 144.941 57.9779 142.976C57.9779 141.011 47.4876 139.418 34.5471 139.418C21.6066 139.418 11.1162 141.011 11.1162 142.976C11.1162 144.941 21.6066 146.533 34.5471 146.533Z" fill="#862727"/>
<path d="M24.8379 114.371C24.8379 117.075 29.0321 117.218 29.0321 117.218C29.0321 117.218 26.003 118.57 26.935 120.989C27.8671 123.408 31.8283 119.779 31.8283 119.779C31.8283 119.779 29.4982 124.475 32.9157 124.475C36.3333 124.475 36.1779 119.85 36.1779 119.85C36.1779 119.85 37.5372 124.796 40.1392 122.412C42.7411 120.028 38.6634 118.427 38.6634 118.427C38.6634 118.427 44.2557 120.135 44.2557 116.791C44.2557 113.446 39.6731 114.941 39.6731 114.941C39.6731 114.941 44.5664 111.739 42.314 109.675C40.0615 107.612 37.576 111.454 37.576 111.454C37.576 111.454 38.8187 106.687 35.3235 106.687C31.8283 106.687 32.605 111.241 32.605 111.241C32.605 111.241 31.0516 108.205 28.7991 108.916C26.5467 109.628 28.9545 113.091 28.9545 113.091C28.9545 113.091 24.8379 111.668 24.8379 114.371Z" fill="#FFE3A8"/>
<path d="M49.7968 145.68C45.7061 146.213 40.3727 146.533 34.5473 146.533C28.722 146.533 23.3885 146.213 19.2979 145.68C20.9419 144.221 24.5795 141.244 28.7349 139.536C30.6249 138.754 32.6056 138.244 34.5603 138.244C36.515 138.244 38.4956 138.766 40.3856 139.536C44.5152 141.244 48.1657 144.221 49.7968 145.68Z" fill="#F89720"/>
<path d="M39.674 114.941C39.674 114.941 44.5673 111.739 42.3148 109.675C41.3698 108.809 40.373 108.987 39.5445 109.485C38.2629 115.178 33.1366 119.578 26.7676 120.337C26.7935 120.55 26.8452 120.764 26.9359 121.001C27.8679 123.42 31.8292 119.791 31.8292 119.791C31.8292 119.791 29.499 124.487 32.9166 124.487C36.3341 124.487 36.1788 119.862 36.1788 119.862C36.1788 119.862 37.538 124.807 40.14 122.424C42.742 120.04 38.6642 118.439 38.6642 118.439C38.6642 118.439 44.2566 120.135 44.2566 116.791C44.2566 113.446 39.674 114.941 39.674 114.941Z" fill="#FFCB5C"/>
<path d="M34.5469 118.546C36.3342 118.546 37.7832 117.218 37.7832 115.581C37.7832 113.944 36.3342 112.616 34.5469 112.616C32.7595 112.616 31.3105 113.944 31.3105 115.581C31.3105 117.218 32.7595 118.546 34.5469 118.546Z" fill="#F89720"/>
<path d="M34.5467 119.139C32.4107 119.139 30.6631 117.538 30.6631 115.581C30.6631 113.624 32.4107 112.023 34.5467 112.023C36.6826 112.023 38.4302 113.624 38.4302 115.581C38.4302 117.538 36.6826 119.139 34.5467 119.139ZM34.5467 113.209C33.1227 113.209 31.9576 114.277 31.9576 115.581C31.9576 116.886 33.1227 117.953 34.5467 117.953C35.9706 117.953 37.1357 116.886 37.1357 115.581C37.1357 114.277 35.9706 113.209 34.5467 113.209Z" fill="#4D2419"/>
<path d="M32.9155 125.068C31.7116 125.068 31.1161 124.57 30.8184 124.155C30.3135 123.432 30.3524 122.424 30.5465 121.534C29.6533 122.092 28.5659 122.566 27.6598 122.376C27.2196 122.281 26.6371 122.009 26.3264 121.19C25.7309 119.649 26.4688 118.404 27.3879 117.573C25.8474 117.182 24.1904 116.245 24.1904 114.371C24.1904 113.34 24.6953 112.806 25.1225 112.545C25.8604 112.071 26.883 112.071 27.7115 112.189C27.3361 111.371 26.9995 110.316 27.3232 109.474C27.5303 108.94 27.9704 108.549 28.5918 108.359C30.0028 107.908 31.142 108.56 31.9446 109.331C32.0482 108.549 32.3071 107.695 32.9026 107.054C33.4851 106.414 34.3007 106.094 35.3233 106.094C36.3072 106.094 37.1098 106.426 37.6405 107.042C38.236 107.73 38.4172 108.679 38.4431 109.533C39.0257 109.035 39.7635 108.584 40.5661 108.489C41.1228 108.43 41.9513 108.501 42.7668 109.248C43.3364 109.77 43.6083 110.422 43.5435 111.122C43.4529 112.177 42.6374 113.209 41.8089 114.004C42.495 114.016 43.207 114.134 43.7895 114.514C44.5274 114.988 44.9028 115.759 44.9028 116.779C44.9028 117.929 44.3332 118.558 43.8413 118.878C43.1034 119.364 42.0937 119.483 41.1357 119.447C41.3558 119.732 41.5241 120.064 41.6018 120.42C41.77 121.238 41.4335 122.044 40.592 122.827C39.6341 123.705 38.7926 123.728 38.2489 123.586C37.4981 123.396 36.9285 122.803 36.5013 122.139C36.2813 122.851 35.9318 123.586 35.3492 124.143C34.702 124.76 33.8864 125.068 32.9155 125.068ZM31.8281 119.186C31.9576 119.186 32.087 119.222 32.1906 119.293C32.4495 119.459 32.5401 119.767 32.4106 120.028C31.9317 120.989 31.375 122.78 31.8928 123.515C31.9576 123.61 32.1517 123.882 32.9026 123.882C33.511 123.882 34.0029 123.705 34.4042 123.325C35.5822 122.222 35.5175 119.886 35.5175 119.862C35.5046 119.566 35.7505 119.305 36.0741 119.257C36.3978 119.222 36.7085 119.412 36.7861 119.696C37.0709 120.716 37.8088 122.246 38.5855 122.436C38.8833 122.507 39.2457 122.353 39.66 121.985C40.1778 121.511 40.4108 121.048 40.3202 120.645C40.1519 119.827 38.8315 119.139 38.3913 118.973C38.0677 118.842 37.9124 118.51 38.0418 118.214C38.1713 117.917 38.5208 117.763 38.8574 117.858C39.6729 118.107 42.0419 118.605 43.0775 117.917C43.427 117.68 43.5953 117.312 43.5953 116.779C43.5953 116.15 43.4141 115.723 43.0257 115.474C42.1714 114.917 40.4237 115.308 39.88 115.486C39.5694 115.581 39.2328 115.462 39.0904 115.202C38.935 114.941 39.0257 114.62 39.2846 114.443C40.0613 113.933 42.1196 112.308 42.2361 111.015C42.2749 110.66 42.1455 110.351 41.8348 110.078C41.4723 109.746 41.0969 109.604 40.7085 109.651C39.6082 109.782 38.4431 111.241 38.1065 111.739C37.9383 111.988 37.6017 112.094 37.3039 111.988C37.0062 111.881 36.8379 111.585 36.9156 111.3C37.0968 110.624 37.3687 108.667 36.592 107.766C36.3072 107.434 35.88 107.268 35.2974 107.268C34.6631 107.268 34.1971 107.446 33.8476 107.813C33.0191 108.703 33.1097 110.517 33.2133 111.134C33.265 111.43 33.0709 111.703 32.7602 111.798C32.4495 111.881 32.1259 111.751 31.9835 111.478C31.9705 111.454 30.6501 108.928 28.9802 109.462C28.6565 109.568 28.5659 109.723 28.5141 109.853C28.2293 110.6 29.0319 112.13 29.4721 112.759C29.6274 112.972 29.6015 113.257 29.4332 113.446C29.252 113.648 28.9672 113.719 28.7083 113.624C28.1905 113.446 26.5465 113.043 25.8345 113.494C25.7439 113.553 25.472 113.731 25.472 114.348C25.472 116.447 29.0061 116.601 29.0449 116.601C29.3426 116.613 29.5886 116.803 29.6533 117.075C29.718 117.348 29.5756 117.609 29.3038 117.728C29.2002 117.775 26.8054 118.878 27.5303 120.763C27.6727 121.131 27.8539 121.167 27.9316 121.19C28.7083 121.356 30.43 120.182 31.3621 119.34C31.4915 119.246 31.6598 119.186 31.8281 119.186Z" fill="#4D2419"/>
<path d="M30.0546 132.646C29.1613 132.646 28.1775 132.492 27.2454 131.994C25.3813 131.022 24.2421 129.017 23.8797 126.041C23.8408 125.756 24.048 125.483 24.3457 125.4C24.5269 125.353 28.7989 124.309 31.4526 126.302C32.9284 127.405 33.5757 129.184 33.4074 131.591C33.3944 131.804 33.2391 132.006 33.032 132.089C32.9413 132.125 31.6598 132.646 30.0546 132.646ZM25.2389 126.444C25.6143 128.721 26.4946 130.251 27.8798 130.974C29.472 131.804 31.362 131.377 32.1258 131.14C32.1905 129.338 31.6857 128.021 30.6241 127.227C28.9801 125.993 26.3652 126.254 25.2389 126.444Z" fill="#4D2419"/>
<path d="M46.3914 133.797C46.1842 133.797 45.99 133.785 45.7959 133.761C42.4172 133.417 40.4624 130.263 40.3848 130.132L41.511 129.551C41.5239 129.575 43.2327 132.302 45.9383 132.575C47.5694 132.741 49.2911 131.994 51.0516 130.346C49.6147 129.409 45.7311 127.156 43.1939 128.377L42.5984 127.322C46.5079 125.436 52.1908 129.622 52.4368 129.8C52.5792 129.907 52.6568 130.049 52.6698 130.215C52.6827 130.381 52.631 130.535 52.5015 130.654C50.4691 132.753 48.4238 133.797 46.3914 133.797Z" fill="#4D2419"/>
<path d="M29.0248 128.283L36.0814 133.059L35.3125 134.013L28.2559 129.236L29.0248 128.283Z" fill="#4D2419"/>
<path d="M36.1572 129.089L46.4901 129.496L46.4345 130.681L36.1016 130.274L36.1572 129.089Z" fill="#4D2419"/>
<path d="M35.1685 138.398L33.9258 138.066C36.9161 128.508 35.5569 120.016 35.5439 119.933L36.8255 119.755C36.8773 120.111 38.2365 128.579 35.1685 138.398Z" fill="#4D2419"/>
<path d="M34.5469 147.126C28.2555 147.126 22.3266 146.759 17.8734 146.071C11.2325 145.063 10.4688 143.83 10.4688 142.976H11.7633C11.7633 143.177 12.8376 144.114 18.0805 144.909C22.469 145.573 28.3202 145.94 34.5469 145.94C40.7735 145.94 46.6117 145.573 51.0131 144.909C56.2559 144.114 57.3305 143.177 57.3305 142.976H58.625C58.625 143.83 57.8611 145.063 51.2202 146.071C46.7671 146.759 40.8383 147.126 34.5469 147.126Z" fill="#4D2419"/>
<path d="M37.1489 150.66L37.123 149.474C42.7801 149.38 48.01 148.976 51.8288 148.324C56.3855 147.553 57.3176 146.711 57.3176 146.522V142.964C57.3176 142.952 57.0587 142.157 52.8256 141.351C49.6799 140.746 45.2397 140.307 40.3335 140.118L40.3852 138.932C45.3692 139.121 49.887 139.572 53.0975 140.189C56.8645 140.912 58.6251 141.802 58.6251 142.964V146.522C58.6251 147.316 57.9519 148.502 52.0748 149.486C48.1783 150.15 42.8837 150.566 37.1489 150.66Z" fill="#4D2419"/>
<path d="M34.5469 150.684C28.2555 150.684 22.3266 150.316 17.8734 149.629C11.2325 148.621 10.4688 147.387 10.4688 146.533V142.976C10.4688 141.813 12.2164 140.924 15.9705 140.201C19.1679 139.584 23.6729 139.133 28.6439 138.944L28.6956 140.129C23.7894 140.319 19.3621 140.758 16.2294 141.363C12.0222 142.181 11.7633 142.964 11.7633 142.976V146.533C11.7633 146.735 12.8376 147.672 18.0805 148.466C22.469 149.131 28.3202 149.498 34.5469 149.498V150.684Z" fill="#4D2419"/>
<path d="M34.5465 166.813C24.6434 166.813 17.6142 164.583 15.9701 163.077C15.8665 162.982 15.8018 162.875 15.7889 162.745L13.4717 148.36L14.7533 148.182L17.0316 162.353C18.6109 163.575 25.0059 165.627 34.5465 165.627C43.7894 165.627 50.3138 163.729 52.0614 162.365L54.3398 148.194L55.6213 148.372L53.3171 162.757C53.2912 162.887 53.2265 162.994 53.1359 163.089C51.5566 164.524 45.1098 166.813 34.5465 166.813Z" fill="#4D2419"/>
<path d="M49.3566 146.106C46.897 143.924 40.515 138.825 34.5473 138.825C28.5795 138.825 22.2105 143.913 19.7509 146.095L18.8447 145.241C21.4208 142.952 28.1135 137.639 34.5473 137.639C40.9811 137.639 47.6737 142.964 50.2498 145.253L49.3566 146.106Z" fill="#4D2419"/>
<path d="M102.5 107C126.524 107 146 87.5244 146 63.5C146 39.4756 126.524 20 102.5 20C78.4756 20 59 39.4756 59 63.5C59 87.5244 78.4756 107 102.5 107Z" fill="#F0B90B"/>
<path fill-rule="evenodd" clip-rule="evenodd" d="M83.9869 52.451L102.518 33.92L109.907 41.309L91.3759 59.84L83.9869 52.451V52.451ZM83.9999 74.595L113.615 44.981L121.004 52.37L91.3889 81.984L83.9999 74.595ZM124.69 56.077L95.0759 85.691L102.465 93.08L132.079 63.465L124.69 56.076V56.077ZM72.9199 63.515L80.3089 56.126L87.6979 63.515L80.3089 70.904L72.9199 63.515Z" fill="#FFFDFA"/>
<g style="mix-blend-mode:multiply" opacity="0.2">
<path d="M102.5 105.582C125.741 105.582 144.582 86.7412 144.582 63.5C144.582 40.2587 125.741 21.418 102.5 21.418C79.2587 21.418 60.418 40.2587 60.418 63.5C60.418 86.7412 79.2587 105.582 102.5 105.582Z" stroke="#191326" stroke-width="2.837"/>
</g>
</g>
<defs>
<linearGradient id="paint0_linear" x1="33.5" y1="104" x2="33.5" y2="171" gradientUnits="userSpaceOnUse">
<stop stop-color="#ADEBE0"/>
<stop offset="0.762157" stop-color="#1F816F"/>
</linearGradient>
<clipPath id="clip0">
<rect width="186" height="171" fill="white"/>
</clipPath>
</defs>
</svg>
