<svg width="96" height="96" viewBox="0 0 96 96" fill="none" xmlns="http://www.w3.org/2000/svg">
<path d="M96 48C96 74.5098 76.0581 96 49.5483 96C23.0387 96 0 74.5098 0 48C0 21.4903 23.0387 0 49.5483 0C76.0581 0 96 21.4903 96 48Z" fill="#2B6E37"/>
<path d="M96 48C96 74.5098 76.0581 96 49.5483 96C23.0387 96 0 74.5098 0 48C0 21.4903 23.0387 0 49.5483 0C76.0581 0 96 21.4903 96 48Z" fill="#2B6E37"/>
<path d="M96 48C96 74.5098 76.0581 96 49.5483 96C23.0387 96 0 74.5098 0 48C0 21.4903 23.0387 0 49.5483 0C76.0581 0 96 21.4903 96 48Z" fill="#2B6E37"/>
<path d="M94.5 48C94.5 74.0955 75.1812 94.5 49.5 94.5C23.8188 94.5 1.5 74.0955 1.5 48C1.5 21.9045 23.8188 1.5 49.5 1.5C75.1812 1.5 94.5 21.9045 94.5 48Z" fill="white"/>
<path d="M94.5 48C94.5 74.0955 75.1812 94.5 49.5 94.5C23.8188 94.5 1.5 74.0955 1.5 48C1.5 21.9045 23.8188 1.5 49.5 1.5C75.1812 1.5 94.5 21.9045 94.5 48Z" fill="white"/>
<path d="M94.5 48C94.5 74.0955 75.1812 94.5 49.5 94.5C23.8188 94.5 1.5 74.0955 1.5 48C1.5 21.9045 23.8188 1.5 49.5 1.5C75.1812 1.5 94.5 21.9045 94.5 48Z" fill="white"/>
<path d="M46.1719 91.4063C47.7187 92.8592 49.8751 93.5624 52.5469 93.5624C56.3908 93.5624 58.8283 91.6406 58.8283 88.7342C58.8283 86.7656 57.6094 85.5935 55.8751 85.0313C55.0315 84.7499 53.9065 84.3749 52.4533 84.0467C49.7344 83.3906 48.4219 82.6874 48.4219 80.9531C48.4219 78.9842 50.0158 77.7656 52.6876 77.7656C54.6094 77.7656 56.2033 78.4217 57.7969 79.7813L58.5937 78.2342C57.1876 76.8281 55.0783 76.0781 52.6876 76.0781C48.9376 76.0781 46.4533 78.0935 46.4533 81.0467C46.4533 83.0624 47.6251 84.2813 49.3126 84.9842C50.1565 85.3124 51.2344 85.5935 52.5469 85.9217C55.3594 86.5781 56.8126 86.9999 56.8594 88.8281C56.9065 90.7499 55.3126 91.8749 52.5469 91.8749C50.2501 91.8749 48.6094 91.3124 46.8751 89.9063L46.1719 91.4063Z" fill="#4D2419"/>
<path d="M56.5758 52.5891C56.5758 52.5891 52.2027 29.0354 86.0469 29.0354C86.0469 29.0354 85.857 40.3896 78.4416 46.293C71.0262 52.1967 56.5758 52.5891 56.5758 52.5891Z" fill="#47B85B"/>
<path d="M86.047 29.0354C86.047 29.0354 85.8568 40.4046 78.4414 46.293C71.026 52.1817 56.5756 52.5891 56.5756 52.5891C62.9833 43.3641 71.6155 37.083 77.833 33.2781C81.4837 31.0434 86.047 29.0354 86.047 29.0354Z" fill="#399349"/>
<path d="M46.6884 40.8127C46.6884 40.8127 51.0615 17.2588 17.217 17.2588C17.217 17.2588 17.4072 28.6129 24.8226 34.5166C32.238 40.42 46.6884 40.8127 46.6884 40.8127Z" fill="#47B85B"/>
<path d="M46.6884 40.8127C46.6884 40.8127 32.2188 40.405 24.8226 34.5166C17.4072 28.628 17.217 17.2588 17.217 17.2588C17.217 17.2588 23.6817 20.1728 26.2486 21.6072C33.4167 25.6385 42.9045 32.2366 46.6884 40.8127Z" fill="#399349"/>
<path d="M52.5828 78L50.6814 77.9244C50.7006 77.6979 52.1265 55.4124 45.795 41.0688C42.1062 32.6892 32.8275 26.2119 25.6974 22.241L26.7812 21.0029C34.1394 25.0946 43.7226 31.8135 47.5824 40.5708C54.0468 55.1862 52.602 77.7735 52.5828 78Z" fill="#2B6E37"/>
<path d="M23.9364 24.5098L32.4356 24.665L32.3918 26.175L23.8927 26.0198L23.9364 24.5098Z" fill="#2B6E37"/>
<path d="M38.7844 25.2385L39.6508 30.2511L37.7665 30.4563L36.9001 25.4439L38.7844 25.2385Z" fill="#2B6E37"/>
<path d="M34.2416 33.033L42.1322 33.0645L42.1229 34.5741L34.2323 34.5429L34.2416 33.033Z" fill="#2B6E37"/>
<path d="M52.0503 60.6062L50.3961 59.8664C52.0692 57.4808 53.8566 54.914 55.7391 52.2113C62.2797 42.8201 71.0451 36.4034 77.2626 32.6741L78.4035 33.8819C72.3381 37.5206 63.7818 43.7864 57.4122 52.9511C55.5297 55.6538 53.7234 58.2206 52.0503 60.6062Z" fill="#2B6E37"/>
<path d="M80.6295 36.1707L80.7891 37.6758L71.5572 38.2935L71.3976 36.7881L80.6295 36.1707Z" fill="#2B6E37"/>
<path d="M66.6962 37.0444L67.5785 41.2576L65.7038 41.5054L64.8215 37.2922L66.6962 37.0444Z" fill="#2B6E37"/>
<path d="M72.262 44.3101L72.418 45.8155L62.2573 46.4791L62.1013 44.9737L72.262 44.3101Z" fill="#2B6E37"/>
<path d="M42.7524 41.2653C38.0562 40.737 29.4049 39.2421 24.1381 35.0448C16.5516 29.0053 16.2664 17.7417 16.2664 17.2737C16.2664 17.0774 16.3614 16.8811 16.5325 16.7301C16.7037 16.5791 16.9699 16.5037 17.217 16.5037C28.207 16.5037 36.4209 18.9496 41.6496 23.751C49.3884 30.8775 47.715 40.5105 47.6391 40.9179L45.7566 40.6917L46.6884 40.7973L45.7566 40.6917C45.7758 40.6011 47.3727 31.3152 40.2048 24.7173C35.5083 20.4142 28.1119 18.1645 18.2058 18.0135C18.4149 20.6256 19.5367 29.2318 25.488 33.9726C30.3555 37.8531 38.5695 39.2571 43.0188 39.7554L42.7524 41.2653Z" fill="#4D2419"/>
<path d="M56.5758 53.3439C56.1003 53.3439 55.701 53.0721 55.644 52.6947C55.5681 52.287 53.8758 42.6543 61.6335 35.5275C66.8433 30.7263 75.0573 28.2803 86.0472 28.2803C86.2944 28.2803 86.5416 28.3558 86.7315 28.5067C86.9217 28.6577 87.0168 28.8389 86.9979 29.0503C86.9979 29.5335 86.7126 40.782 79.107 46.8213C71.5206 52.8609 57.2031 53.3289 56.5947 53.3439H56.5758ZM85.0584 29.7901C75.1521 29.926 67.7748 32.1909 63.0786 36.4938C57.0321 42.0351 57.2223 49.4937 57.4314 51.7737C60.6447 51.5775 71.7489 50.5356 77.7762 45.7494C83.7276 41.0235 84.8493 32.4174 85.0584 29.7901Z" fill="#4D2419"/>
<path d="M52.5828 78L50.6814 77.9244C50.7006 77.6979 52.1265 55.4124 45.795 41.0688C42.1062 32.6892 32.8275 26.2119 25.6974 22.241L26.7812 21.0029C34.1394 25.0946 43.7226 31.8135 47.5824 40.5708C54.0468 55.1862 52.602 77.7735 52.5828 78Z" fill="#4D2419"/>
<path d="M23.9364 24.5098L32.4356 24.665L32.3918 26.175L23.8927 26.0198L23.9364 24.5098Z" fill="#4D2419"/>
<path d="M38.7844 25.2385L39.6508 30.2511L37.7665 30.4563L36.9001 25.4439L38.7844 25.2385Z" fill="#4D2419"/>
<path d="M34.2416 33.033L42.1322 33.0645L42.1229 34.5741L34.2323 34.5429L34.2416 33.033Z" fill="#4D2419"/>
<path d="M52.0503 60.6062L50.3961 59.8664C52.0692 57.4808 53.8566 54.914 55.7391 52.2113C62.2797 42.8201 71.0451 36.4034 77.2626 32.6741L78.4035 33.8819C72.3381 37.5206 63.7818 43.7864 57.4122 52.9511C55.5297 55.6538 53.7234 58.2206 52.0503 60.6062Z" fill="#4D2419"/>
<path d="M80.6295 36.1707L80.7891 37.6758L71.5572 38.2935L71.3976 36.7881L80.6295 36.1707Z" fill="#4D2419"/>
<path d="M66.6962 37.0444L67.5785 41.2576L65.7038 41.5054L64.8215 37.2922L66.6962 37.0444Z" fill="#4D2419"/>
<path d="M72.262 44.3101L72.418 45.8155L62.2573 46.4791L62.1013 44.9737L72.262 44.3101Z" fill="#4D2419"/>
</svg>
