<svg width="186" height="171" viewBox="0 0 186 171" fill="none" xmlns="http://www.w3.org/2000/svg">
<g clip-path="url(#clip0)">
<path d="M72.7517 25.7158C70.9534 25.7158 69.1903 24.8434 68.1236 23.2317L62.7287 15.0853C61.0371 12.5309 61.7361 9.08904 64.2898 7.39699C66.8436 5.7062 70.2846 6.40536 71.9762 8.9585L77.3698 17.1049C79.0615 19.6593 78.3637 23.1012 75.81 24.7932C74.8675 25.4171 73.8034 25.7158 72.7517 25.7158Z" fill="#2B5D99"/>
<path d="M139.67 113.896L81.5875 26.2431L81.5976 26.2368L77.3785 19.8653C76.4436 18.4544 74.5424 18.0678 73.1319 19.003C71.5682 20.0385 70.8015 21.8235 70.986 23.5695C71.0186 24.2599 71.2269 24.9502 71.6373 25.5691L133.068 118.274C133.967 119.63 134.257 121.249 133.884 122.833C133.511 124.417 132.531 125.738 131.122 126.551L110.27 138.594C108.375 139.687 107.726 142.111 108.819 144.006C109.553 145.277 110.885 145.987 112.254 145.987C112.925 145.987 113.607 145.816 114.23 145.456L135.083 133.413C138.356 131.523 140.731 128.328 141.595 124.647C142.461 120.966 141.76 117.048 139.67 113.896Z" fill="#B6C5CE"/>
<path d="M22.8332 54.5083C21.0349 54.5083 19.2717 53.6359 18.2038 52.0242L12.8089 43.8778C11.1185 41.3234 11.8175 37.8815 14.37 36.1895C16.925 34.4987 20.366 35.1978 22.0564 37.751L27.4513 45.8974C29.1429 48.4518 28.4439 51.8937 25.8902 53.5857C24.9477 54.2096 23.8848 54.5083 22.8332 54.5083Z" fill="#2B5D99"/>
<path d="M137.501 149.686C137.501 135.496 128.875 119.009 118.235 112.865C113.234 109.977 108.679 109.888 105.254 112.077V112.075L97.6731 116.456L97.6756 116.458C93.7653 118.901 91.3057 124.29 91.3057 131.867C91.3057 146.057 99.9307 162.542 110.571 168.688C115.245 171.385 119.528 171.64 122.863 169.876L122.862 169.878L131.07 165.133H131.063C135.013 162.708 137.501 157.304 137.501 149.686Z" fill="#162F4D"/>
<path d="M129.838 154.12C129.838 168.31 121.213 174.832 110.572 168.688C99.932 162.542 91.3057 146.057 91.3057 131.867C91.3057 117.676 99.932 111.153 110.572 117.299C121.213 123.443 129.838 139.928 129.838 154.12Z" fill="#2B5D99"/>
<path d="M122.865 150.09C122.865 159.144 117.362 163.305 110.574 159.385C103.785 155.465 98.2832 144.947 98.2832 135.895C98.2832 126.842 103.786 122.681 110.574 126.601C117.362 130.521 122.865 141.037 122.865 150.09Z" fill="#D6E5E5"/>
<path d="M117.871 147.208C117.871 152.583 114.605 155.055 110.574 152.726C106.543 150.399 103.275 144.154 103.275 138.778C103.275 133.402 106.543 130.932 110.574 133.259C114.605 135.587 117.871 141.832 117.871 147.208Z" fill="#BF0025"/>
<path d="M152.958 90.0927L152.899 90.0902C153.445 85.2739 149.902 80.1463 143.023 76.3994L114.726 60.6011C105.172 55.3994 91.4493 54.4178 82.1993 58.2751C69.9086 63.4027 59.1715 69.6036 50.2929 76.7019C47.0151 79.3216 45.7589 82.5651 46.3901 85.84H46.3889L46.3901 85.8412C46.6675 87.2797 47.31 88.7245 48.3051 90.1253L55.8209 106.932C56.6918 109.36 58.8051 111.755 62.0854 113.764L84.8007 127.333C91.8672 131.66 102.352 133.239 110.76 131.242C125.294 127.787 136.523 121.303 142.504 112.909C142.924 112.32 143.25 111.714 143.49 111.096L143.493 111.089C143.532 110.986 143.567 110.882 143.602 110.779L150.687 95.1161C150.851 94.8965 151.015 94.6768 151.173 94.4559C152.125 93.1216 152.682 91.7132 152.876 90.2735L152.958 90.0927Z" fill="#BF0025"/>
<path d="M50.293 76.7019C43.6118 82.0429 45.3109 89.9672 54.32 95.4839L81.6773 111.826C90.1881 117.039 102.815 118.939 112.941 116.534C130.446 112.374 143.971 104.564 151.173 94.4546C155.34 88.6078 152.047 81.3149 143.023 76.3994L114.724 60.6011C105.172 55.3994 91.4481 54.4178 82.1993 58.2751C69.9086 63.4027 59.1715 69.6036 50.293 76.7019Z" fill="#EA2642"/>
<path d="M95.2145 65.4375C100.606 65.4375 106.043 66.7116 110.142 68.9321L138.39 84.704L138.478 84.7517C141.86 86.5931 143.094 88.3354 143.388 88.9982C137.523 97.181 125.935 103.673 110.747 107.282C108.586 107.795 106.215 108.055 103.699 108.055C97.4558 108.055 91.0796 106.433 86.6434 103.716L86.5983 103.688L86.5531 103.662L59.246 87.3501C57.2507 86.1224 56.2869 85.0141 55.9092 84.4103C55.992 84.33 56.0987 84.2358 56.2304 84.1304C64.4163 77.5844 74.3854 71.8392 85.8604 67.053C88.3577 66.0111 91.6794 65.4375 95.2145 65.4375Z" fill="#BF0025"/>
<path d="M86.5978 103.689L86.643 103.716C91.0791 106.433 97.4554 108.055 103.699 108.055C106.215 108.055 108.585 107.795 110.746 107.282C116.494 105.916 121.724 104.137 126.326 102.01L110.141 92.9747C106.043 90.753 100.605 89.4802 95.2141 89.4802C91.679 89.4802 88.3572 90.0538 85.8599 91.0944C81.8693 92.7601 78.0656 94.5425 74.4502 96.4329L86.5526 103.662L86.5978 103.689Z" fill="#8F001C"/>
<path d="M112.332 141.978C111.238 140.082 108.816 139.433 106.921 140.527L102.102 143.31C97.2482 146.114 91.0225 144.646 87.9279 139.974L31.6774 55.0293L27.4583 48.6577C26.5234 47.2469 24.6222 46.8602 23.2117 47.7954C20.9742 49.2766 20.3618 52.2929 21.8438 54.5297L25.0727 59.405L81.3233 144.35C84.8722 149.71 90.7803 152.652 96.819 152.652C99.9714 152.652 103.159 151.85 106.063 150.173L110.883 147.39C112.777 146.296 113.427 143.872 112.332 141.978Z" fill="#B6C5CE"/>
<path d="M37.9183 75.5862C36.5492 75.5862 35.2177 74.8757 34.4849 73.6042C33.3906 71.71 34.0394 69.2862 35.9343 68.1916L85.8324 39.3766C87.7273 38.282 90.1506 38.9322 91.2436 40.8264C92.3379 42.7218 91.6891 45.1456 89.7942 46.2389L39.8961 75.0552C39.2724 75.4155 38.591 75.5862 37.9183 75.5862Z" fill="#B6C5CE"/>
<g style="mix-blend-mode:multiply" opacity="0.1">
<g style="mix-blend-mode:multiply" opacity="0.1">
<g style="mix-blend-mode:multiply" opacity="0.1">
<path d="M101.551 104.474C123.274 104.474 140.884 86.86 140.884 65.1314C140.884 43.4028 123.274 25.7883 101.551 25.7883C79.8279 25.7883 62.2178 43.4028 62.2178 65.1314C62.2178 86.86 79.8279 104.474 101.551 104.474Z" stroke="#191326" stroke-width="3"/>
</g>
</g>
</g>
<g style="mix-blend-mode:multiply" opacity="0.2">
<g style="mix-blend-mode:multiply" opacity="0.2">
<g style="mix-blend-mode:multiply" opacity="0.2">
<g style="mix-blend-mode:multiply" opacity="0.2">
<path fill-rule="evenodd" clip-rule="evenodd" d="M101.5 104.163C123.958 104.163 142.163 85.958 142.163 63.5C142.163 41.042 123.958 22.837 101.5 22.837C79.042 22.837 60.837 41.042 60.837 63.5C60.837 85.958 79.042 104.163 101.5 104.163ZM101.5 107C125.524 107 145 87.524 145 63.5C145 39.476 125.524 20 101.5 20C77.476 20 58 39.476 58 63.5C58 87.524 77.476 107 101.5 107Z" fill="#191326"/>
</g>
</g>
</g>
</g>
<path d="M102.5 107C126.524 107 146 87.5244 146 63.5C146 39.4756 126.524 20 102.5 20C78.4756 20 59 39.4756 59 63.5C59 87.5244 78.4756 107 102.5 107Z" fill="#F0B90B"/>
<path fill-rule="evenodd" clip-rule="evenodd" d="M83.9869 52.451L102.518 33.92L109.907 41.309L91.3759 59.84L83.9869 52.451ZM83.9999 74.595L113.615 44.981L121.004 52.37L91.3889 81.984L83.9999 74.595ZM124.69 56.077L95.0759 85.691L102.465 93.08L132.079 63.465L124.69 56.076V56.077ZM72.9199 63.515L80.3089 56.126L87.6979 63.515L80.3089 70.904L72.9199 63.515Z" fill="#FFFDFA"/>
<g style="mix-blend-mode:multiply" opacity="0.2">
<g style="mix-blend-mode:multiply" opacity="0.2">
<path d="M102.5 105.582C125.741 105.582 144.582 86.7412 144.582 63.5C144.582 40.2587 125.741 21.418 102.5 21.418C79.2587 21.418 60.418 40.2587 60.418 63.5C60.418 86.7412 79.2587 105.582 102.5 105.582Z" stroke="#191326" stroke-width="2.837"/>
</g>
</g>
<path d="M39.8912 145.353C39.8912 145.353 35.5635 122.043 69.0566 122.043C69.0566 122.043 68.8686 133.28 61.5302 139.122C54.1917 144.964 39.8912 145.353 39.8912 145.353Z" fill="#47B85B"/>
<path d="M69.0566 122.043C69.0566 122.043 68.8684 133.295 61.5299 139.122C54.1915 144.95 39.891 145.353 39.891 145.353C46.2322 136.223 54.7748 130.008 60.9278 126.242C64.5407 124.031 69.0566 122.043 69.0566 122.043Z" fill="#399349"/>
<path d="M30.1065 133.699C30.1065 133.699 34.4342 110.389 0.940918 110.389C0.940918 110.389 1.12909 121.625 8.46752 127.468C15.806 133.31 30.1065 133.699 30.1065 133.699Z" fill="#47B85B"/>
<path d="M30.1065 133.699C30.1065 133.699 15.787 133.295 8.46752 127.468C1.12909 121.64 0.940918 110.389 0.940918 110.389C0.940918 110.389 7.33854 113.273 9.87874 114.692C16.9725 118.682 26.3619 125.212 30.1065 133.699Z" fill="#399349"/>
<path d="M35.9396 170.5L34.0579 170.425C34.0769 170.201 35.488 148.147 29.2222 133.952C25.5717 125.659 16.3892 119.249 9.33313 115.32L10.4057 114.094C17.6875 118.144 27.1713 124.793 30.9911 133.459C37.3884 147.923 35.9586 170.276 35.9396 170.5Z" fill="#2B6E37"/>
<path d="M7.5904 117.565L16.0013 117.718L15.958 119.213L7.54712 119.059L7.5904 117.565Z" fill="#2B6E37"/>
<path d="M22.2844 118.286L23.1418 123.247L21.2771 123.45L20.4197 118.489L22.2844 118.286Z" fill="#2B6E37"/>
<path d="M17.7889 125.999L25.5976 126.031L25.5884 127.524L17.7797 127.494L17.7889 125.999Z" fill="#2B6E37"/>
<path d="M35.4128 153.287L33.7758 152.554C35.4315 150.194 37.2004 147.653 39.0633 144.979C45.5361 135.685 54.2105 129.335 60.3635 125.644L61.4926 126.84C55.4901 130.44 47.0226 136.641 40.7191 145.711C38.8561 148.386 37.0685 150.926 35.4128 153.287Z" fill="#2B6E37"/>
<path d="M63.6952 129.105L63.8531 130.594L54.717 131.205L54.5591 129.716L63.6952 129.105Z" fill="#2B6E37"/>
<path d="M49.9066 129.969L50.7798 134.139L48.9245 134.384L48.0514 130.215L49.9066 129.969Z" fill="#2B6E37"/>
<path d="M55.4146 137.16L55.569 138.649L45.5138 139.306L45.3594 137.816L55.4146 137.16Z" fill="#2B6E37"/>
<path d="M26.2112 134.146C21.5638 133.624 13.0022 132.144 7.79002 127.99C0.282249 122.014 0 110.867 0 110.404C0 110.21 0.0940832 110.015 0.263428 109.866C0.432772 109.716 0.6962 109.642 0.940805 109.642C11.8167 109.642 19.9454 112.062 25.1199 116.814C32.7784 123.866 31.1223 133.399 31.0472 133.803L29.1843 133.579L30.1064 133.683L29.1843 133.579C29.2033 133.489 30.7836 124.3 23.6901 117.77C19.0423 113.512 11.7227 111.285 1.91929 111.136C2.12625 113.721 3.23643 122.238 9.12599 126.929C13.943 130.77 22.0717 132.159 26.4749 132.652L26.2112 134.146Z" fill="#4D2419"/>
<path d="M39.8911 146.1C39.4206 146.1 39.0254 145.831 38.969 145.457C38.8939 145.054 37.2192 135.521 44.8964 128.468C50.0521 123.717 58.1809 121.296 69.0568 121.296C69.3014 121.296 69.546 121.371 69.734 121.52C69.9222 121.67 70.0163 121.849 69.9976 122.058C69.9976 122.536 69.7153 133.668 62.1886 139.645C54.6809 145.622 40.5119 146.085 39.9099 146.1H39.8911ZM68.0782 122.79C58.2747 122.925 50.9739 125.166 46.3265 129.424C40.3427 134.908 40.5309 142.289 40.7379 144.546C43.9178 144.352 54.9068 143.32 60.8716 138.584C66.7612 133.907 67.8713 125.39 68.0782 122.79Z" fill="#4D2419"/>
<path d="M35.9396 170.5L34.0579 170.425C34.0769 170.201 35.488 148.147 29.2222 133.952C25.5717 125.659 16.3892 119.249 9.33313 115.32L10.4057 114.094C17.6875 118.144 27.1713 124.793 30.9911 133.459C37.3884 147.923 35.9586 170.276 35.9396 170.5Z" fill="#4D2419"/>
<path d="M7.5904 117.565L16.0013 117.718L15.958 119.213L7.54712 119.059L7.5904 117.565Z" fill="#4D2419"/>
<path d="M22.2844 118.286L23.1418 123.247L21.2771 123.45L20.4197 118.489L22.2844 118.286Z" fill="#4D2419"/>
<path d="M17.7889 125.999L25.5976 126.031L25.5884 127.524L17.7797 127.494L17.7889 125.999Z" fill="#4D2419"/>
<path d="M35.4128 153.287L33.7758 152.554C35.4315 150.194 37.2004 147.653 39.0633 144.979C45.5361 135.685 54.2105 129.335 60.3635 125.644L61.4926 126.84C55.4901 130.44 47.0226 136.641 40.7191 145.711C38.8561 148.386 37.0685 150.926 35.4128 153.287Z" fill="#4D2419"/>
<path d="M63.6952 129.105L63.8531 130.594L54.717 131.205L54.5591 129.716L63.6952 129.105Z" fill="#4D2419"/>
<path d="M49.9066 129.969L50.7798 134.139L48.9245 134.384L48.0514 130.215L49.9066 129.969Z" fill="#4D2419"/>
<path d="M55.4146 137.16L55.569 138.649L45.5138 139.306L45.3594 137.816L55.4146 137.16Z" fill="#4D2419"/>
</g>
</svg>
