<svg width="1200" height="1200" viewBox="0 0 1200 1200" fill="none" xmlns="http://www.w3.org/2000/svg">
<path d="M599.986 12.8275C276.218 12.8275 12.8268 276.237 12.8268 600.005C12.8268 923.783 276.218 1187.22 599.986 1187.22C923.763 1187.22 1187.16 923.783 1187.16 600.005C1187.16 276.237 923.763 12.8275 599.986 12.8275ZM599.986 1200C269.164 1200 0 930.838 0 600.005C0 269.152 269.164 -1.85236e-05 599.986 -1.85236e-05C930.836 -1.85236e-05 1200 269.152 1200 600.005C1200 930.838 930.836 1200 599.986 1200Z" fill="#693E1F"/>
<path d="M600.318 1172.87C284.452 1172.87 27.4893 915.889 27.4893 599.986C27.4893 284.06 284.452 27.1483 600.318 27.1483C916.221 27.1483 1173.2 284.06 1173.2 599.986C1173.2 915.889 916.221 1172.87 600.318 1172.87Z" fill="#2B6E37"/>
<path d="M599.984 993.316C818.765 993.316 996.83 815.258 996.83 596.41C996.83 377.584 818.765 199.532 599.984 199.532C381.126 199.532 203.148 377.584 203.148 596.41C203.148 815.258 381.126 993.316 599.984 993.316Z" fill="white"/>
<path d="M1058.5 809.235L1051.47 806.191C1104.61 683.722 1107.11 547.802 1058.49 423.495C1052.04 407.017 1044.47 390.41 1036.01 374.15L1042.8 370.612C1051.38 387.117 1059.07 403.978 1065.61 420.707C1114.98 546.918 1112.45 684.885 1058.5 809.235" fill="white"/>
<path d="M156.286 815.407C101.02 691.642 97.0173 553.697 145.031 426.977C151.395 410.178 158.898 393.233 167.307 376.642L174.136 380.106C165.84 396.453 158.455 413.143 152.186 429.688C104.893 554.506 108.835 690.381 163.281 812.288L156.286 815.407" fill="white"/>
<g clip-path="url(#clip0)">
<path d="M1008.65 599.936C1008.65 825.682 838.836 1008.68 613.097 1008.68C387.36 1008.68 191.179 825.682 191.179 599.936C191.179 374.191 387.36 191.188 613.097 191.188C838.836 191.188 1008.65 374.191 1008.65 599.936Z" fill="#2B6E37"/>
<path d="M1008.65 599.936C1008.65 825.682 838.836 1008.68 613.097 1008.68C387.36 1008.68 191.179 825.682 191.179 599.936C191.179 374.191 387.36 191.188 613.097 191.188C838.836 191.188 1008.65 374.191 1008.65 599.936Z" fill="#2B6E37"/>
<path d="M1008.65 599.936C1008.65 825.682 838.836 1008.68 613.097 1008.68C387.36 1008.68 191.179 825.682 191.179 599.936C191.179 374.191 387.36 191.188 613.097 191.188C838.836 191.188 1008.65 374.191 1008.65 599.936Z" fill="#2B6E37"/>
<path d="M995.875 599.936C995.875 822.154 831.37 995.91 612.687 995.91C394.003 995.91 203.952 822.154 203.952 599.936C203.952 377.718 394.003 203.962 612.687 203.962C831.37 203.962 995.875 377.718 995.875 599.936Z" fill="white"/>
<path d="M995.875 599.936C995.875 822.154 831.37 995.91 612.687 995.91C394.003 995.91 203.952 822.154 203.952 599.936C203.952 377.718 394.003 203.962 612.687 203.962C831.37 203.962 995.875 377.718 995.875 599.936Z" fill="white"/>
<path d="M995.875 599.936C995.875 822.154 831.37 995.91 612.687 995.91C394.003 995.91 203.952 822.154 203.952 599.936C203.952 377.718 394.003 203.962 612.687 203.962C831.37 203.962 995.875 377.718 995.875 599.936Z" fill="white"/>
<path d="M500.764 863.545L434.784 835.285C430.492 833.415 426.835 830.334 424.262 826.423C421.689 822.51 420.31 817.932 420.295 813.251V805.107L420.056 803.909C434.506 801.05 447.388 792.947 456.219 781.157L457.297 778.881C467.74 786.011 479.721 790.566 492.262 792.175L492.142 793.133V829.537C492.157 841.411 495.118 853.099 500.764 863.545Z" fill="white"/>
<path d="M599.916 825.584V853.006L566.266 864.261L554.531 859.231C550.239 857.364 546.581 854.283 544.008 850.372C541.436 846.458 540.056 841.88 540.041 837.197V784.988C542.754 783.695 545.39 782.257 547.945 780.678C552.988 791.379 560.217 800.906 569.168 808.639C578.12 816.377 588.596 822.148 599.916 825.584Z" fill="white"/>
<path d="M623.865 829.057C634.857 829.088 645.748 826.929 655.905 822.716C666.059 818.501 675.274 812.314 683.019 804.509L683.737 805.107V848.817C683.716 853.595 682.271 858.254 679.581 862.201C676.893 866.148 673.084 869.204 668.65 870.971L623.865 888.933L566.267 864.265L599.913 853.007V825.585C607.687 827.894 615.754 829.065 623.865 829.057Z" fill="white"/>
<path d="M779.531 748.583V802.231C779.529 806.689 778.285 811.055 775.937 814.841C773.587 818.627 770.23 821.685 766.24 823.667L731.633 841.031V781.155L730.795 778.401C749.712 773.693 766.728 763.282 779.531 748.583Z" fill="white"/>
<path d="M731.634 781.157V847.259C731.639 859.923 728.298 872.361 721.947 883.318C715.596 894.275 706.463 903.357 695.471 909.647L647.813 936.831L623.863 888.931L668.648 870.969C673.085 869.201 676.894 866.146 679.582 862.199C682.269 858.252 683.717 853.592 683.735 848.815V805.107L683.017 804.507C689.925 797.65 695.558 789.623 699.663 780.797C702.297 780.917 704.931 781.157 707.687 781.157C715.474 781.162 723.229 780.237 730.796 778.4L731.634 781.157Z" fill="#9A6948"/>
<path d="M566.265 864.267L623.863 888.934L647.812 936.834L671.762 996.711H575.964V912.884L535.73 895.64C522.819 890.061 511.816 880.836 504.073 869.095C496.333 857.351 492.184 843.604 492.141 829.538V793.134L492.261 792.176C496.177 792.864 500.144 793.183 504.117 793.134C516.547 793.109 528.817 790.329 540.039 784.993V837.202C540.055 841.885 541.434 846.463 544.006 850.377C546.579 854.288 550.237 857.366 554.529 859.236L566.265 864.267Z" fill="#9A6948"/>
<path d="M538.607 585.367C527.078 596.349 519.501 610.832 517.051 626.561C512.77 625.899 508.45 625.541 504.12 625.483C486.151 625.47 468.649 631.231 454.203 641.917C439.757 652.603 429.126 667.65 423.88 684.838C418.633 702.026 419.049 720.442 425.067 737.377C431.084 754.309 442.384 768.861 457.299 778.883L456.221 781.159C447.39 792.949 434.507 801.052 420.057 803.911C416.201 804.736 412.266 805.137 408.322 805.109C396.163 805.086 384.301 801.359 374.312 794.428C364.322 787.497 356.68 777.69 352.4 766.309C347.283 768.125 341.903 769.096 336.474 769.183C323.77 769.183 311.587 764.137 302.605 755.152C293.622 746.17 288.575 733.987 288.575 721.283C288.575 719.607 288.934 718.051 289.054 716.493C278.254 711.892 269.044 704.217 262.571 694.423C256.098 684.631 252.646 673.148 252.646 661.409C252.646 649.668 256.098 638.187 262.571 628.395C269.044 618.6 278.254 610.926 289.054 606.323C288.934 604.767 288.575 603.211 288.575 601.533C288.494 591.265 291.076 581.149 296.07 572.177C301.063 563.202 308.298 555.676 317.067 550.332C325.837 544.99 335.841 542.011 346.105 541.687C356.369 541.362 366.542 543.705 375.631 548.485C379.101 539.446 385.224 531.67 393.196 526.177C401.168 520.685 410.615 517.732 420.296 517.709L421.254 517.589C424.058 537.564 433.99 555.852 449.219 569.081C464.449 582.309 483.949 589.582 504.12 589.559C514.997 589.541 525.772 587.428 535.853 583.331C536.719 584.076 537.638 584.756 538.607 585.367Z" fill="#2F5224"/>
<path d="M839.405 433.88C839.415 446.346 836.633 458.655 831.266 469.906C825.901 481.16 818.084 491.067 808.389 498.904C799.157 495.473 789.383 493.729 779.53 493.754C757.3 493.754 735.979 502.586 720.261 518.307C704.54 534.026 695.709 555.347 695.709 577.58C695.765 581.831 696.125 586.072 696.787 590.275C680.984 592.007 665.869 597.691 652.84 606.798C648.015 596.523 640.818 587.541 631.842 580.592C622.865 573.644 612.365 568.93 601.207 566.836C590.051 564.743 578.555 565.331 567.67 568.552C556.788 571.774 546.822 577.534 538.602 585.365C537.633 584.754 536.714 584.074 535.848 583.328C525.767 587.424 514.995 589.536 504.115 589.554C483.944 589.577 464.444 582.304 449.216 569.076C433.985 555.85 424.054 537.562 421.25 517.584C420.564 513.67 420.244 509.703 420.292 505.73C420.309 501.679 420.629 497.637 421.25 493.634C420.891 493.634 420.651 493.754 420.292 493.754C404.412 493.754 389.184 487.447 377.956 476.216C366.726 464.988 360.419 449.76 360.419 433.88C360.419 417.999 366.726 402.77 377.956 391.541C389.184 380.313 404.412 374.005 420.292 374.005C420.771 374.005 421.13 374.124 421.49 374.124C420.723 370.137 420.324 366.089 420.292 362.03C420.292 346.15 426.6 330.92 437.829 319.691C449.056 308.463 464.286 302.154 480.165 302.154C488.373 302.143 496.492 303.857 503.995 307.184C515 288.644 532.739 275.069 553.51 269.29C574.279 263.512 596.481 265.976 615.479 276.169C627.466 265.209 642.382 257.976 658.412 255.351C674.439 252.727 690.883 254.825 705.738 261.39C720.596 267.954 733.218 278.701 742.07 292.32C750.919 305.938 755.614 321.838 755.583 338.079C755.571 342.09 755.249 346.093 754.623 350.054H755.583C777.813 350.054 799.134 358.886 814.852 374.606C830.573 390.327 839.405 411.648 839.405 433.88Z" fill="#5CB34F"/>
<path d="M599.913 825.58C588.591 822.147 578.12 816.373 569.166 808.638C560.215 800.905 552.985 791.378 547.942 780.674C545.388 782.253 542.751 783.691 540.038 784.987C528.814 790.323 516.546 793.103 504.116 793.128C500.143 793.177 496.176 792.858 492.26 792.17C479.719 790.561 467.738 786.006 457.295 778.878C442.38 768.857 431.081 754.305 425.063 737.373C419.046 720.438 418.63 702.021 423.876 684.833C429.123 667.643 439.753 652.599 454.202 641.912C468.648 631.226 486.147 625.463 504.116 625.478C508.446 625.534 512.768 625.895 517.047 626.556C519.5 610.825 527.076 596.345 538.603 585.362C546.823 577.535 556.786 571.771 567.671 568.55C578.557 565.328 590.052 564.741 601.208 566.836C612.367 568.928 622.866 573.644 631.843 580.593C640.82 587.541 648.016 596.521 652.841 606.798C665.87 597.688 680.983 592.004 696.788 590.272C696.126 586.072 695.766 581.829 695.71 577.578C695.71 555.347 704.541 534.026 720.26 518.305C735.981 502.586 757.301 493.754 779.531 493.754C789.382 493.729 799.158 495.471 808.391 498.902C810.475 499.617 812.516 500.458 814.499 501.418C824.536 496.087 835.783 493.443 847.146 493.744C858.509 494.048 869.598 497.287 879.339 503.145C889.08 509.003 897.137 517.283 902.732 527.18C908.324 537.074 911.259 548.248 911.254 559.616C911.228 573.25 907.005 586.548 899.16 597.696C910.73 603.125 920.91 611.129 928.914 621.094C936.917 631.06 942.537 642.725 945.342 655.197C948.144 667.669 948.06 680.616 945.092 693.052C942.126 705.483 936.353 717.073 928.219 726.934C920.082 736.793 909.803 744.664 898.159 749.939C886.515 755.215 873.821 757.759 861.043 757.376C848.268 756.99 835.748 753.689 824.441 747.724C813.137 741.757 803.345 733.288 795.817 722.954C791.768 732.299 786.273 740.947 779.531 748.583C766.728 763.282 749.712 773.69 730.795 778.401C723.228 780.235 715.47 781.16 707.683 781.155C704.93 781.155 702.296 780.915 699.662 780.794C692.91 795.203 682.196 807.394 668.774 815.939C655.353 824.484 639.775 829.034 623.862 829.055C615.754 829.06 607.687 827.89 599.913 825.58Z" fill="#7BC24F"/>
<path d="M863.358 697.331C850.202 697.324 837.233 694.22 825.502 688.27C813.769 682.32 803.602 673.693 795.82 663.083C791.771 672.428 786.276 681.076 779.535 688.709C766.729 703.409 749.715 713.819 730.798 718.528C723.232 720.364 715.473 721.289 707.687 721.282C704.933 721.282 702.299 721.044 699.665 720.924C692.914 735.332 682.2 747.523 668.778 756.068C655.356 764.614 639.776 769.164 623.866 769.182C607.912 769.202 592.288 764.657 578.836 756.086C565.386 747.513 554.664 735.271 547.946 720.804C545.391 722.383 542.752 723.821 540.042 725.114C528.817 730.45 516.547 733.232 504.119 733.258C500.147 733.306 496.177 732.984 492.263 732.3C479.723 730.69 467.742 726.135 457.299 719.008C443.006 709.377 432.026 695.579 425.852 679.49C419.073 697.17 418.492 716.629 424.204 734.683C429.916 752.737 441.582 768.318 457.299 778.882C467.742 786.012 479.723 790.567 492.263 792.174C496.177 792.861 500.147 793.18 504.119 793.132C516.547 793.109 528.817 790.327 540.042 784.99C542.752 783.697 545.391 782.259 547.946 780.678C554.664 795.147 565.386 807.389 578.836 815.96C592.288 824.534 607.912 829.078 623.866 829.058C639.776 829.038 655.356 824.49 668.778 815.945C682.2 807.397 692.914 795.209 699.665 780.798C702.299 780.918 704.933 781.158 707.687 781.158C715.473 781.163 723.232 780.238 730.798 778.404C749.715 773.696 766.729 763.285 779.535 748.586C786.276 740.952 791.771 732.302 795.82 722.96C807.745 739.422 825.257 750.98 845.08 755.471C864.907 759.962 885.688 757.075 903.542 747.357C921.396 737.636 935.096 721.746 942.086 702.658C949.075 683.569 948.873 662.588 941.516 643.637C935.449 659.443 924.73 673.037 910.777 682.622C896.821 692.209 880.288 697.339 863.358 697.331Z" fill="#44853B"/>
<path d="M899.446 597.858L898.907 597.942C896.401 614.499 887.848 629.538 874.899 640.156C861.947 650.773 845.524 656.212 828.796 655.422C818.026 655.563 807.356 653.335 797.541 648.898C787.726 644.458 779.007 637.918 772 629.735C768.516 636.847 763.889 643.339 758.302 648.954C747.093 660.215 732.859 667.984 717.324 671.325C710.938 672.697 704.421 673.389 697.889 673.384C695.567 673.384 693.352 673.205 691.134 673.108C687.604 679.842 682.863 685.872 677.148 690.891C663.412 702.932 645.719 709.487 627.454 709.308C620.661 709.316 613.894 708.439 607.326 706.697C598.124 704.375 589.498 700.185 581.979 694.394C574.461 688.602 568.21 681.329 563.617 673.024C561.499 674.222 559.282 675.264 556.972 676.258C547.408 680.282 537.136 682.359 526.759 682.364C523.426 682.402 520.092 682.162 516.796 681.646C506.389 680.486 496.355 677.083 487.388 671.673C474.541 664.141 464.724 652.364 459.63 638.37C444.233 648.047 432.399 662.468 425.909 679.454C432.084 695.546 443.063 709.341 457.354 718.972C467.797 726.1 479.78 730.655 492.321 732.264C496.214 732.959 500.161 733.291 504.115 733.258C516.546 733.232 528.816 730.453 540.041 725.116C542.751 723.824 545.387 722.383 547.942 720.804C554.663 735.271 565.382 747.516 578.835 756.087C592.287 764.66 607.911 769.202 623.862 769.184C639.774 769.164 655.352 764.617 668.774 756.069C682.196 747.523 692.91 735.332 699.662 720.924C702.295 721.044 704.929 721.284 707.686 721.284C715.472 721.289 723.23 720.365 730.794 718.53C749.714 713.82 766.727 703.412 779.534 688.712C786.273 681.079 791.77 672.429 795.819 663.086C804.696 675.211 816.677 684.722 830.5 690.621C844.323 696.519 859.479 698.589 874.378 696.611C889.276 694.631 903.365 688.682 915.169 679.38C926.974 670.076 936.058 657.768 941.466 643.745C933.897 623.607 918.843 607.167 899.446 597.858Z" fill="#5CB34F"/>
<path d="M500.765 863.545C498.093 858.582 496.018 853.319 494.585 847.87L439.585 824.267C437.431 823.335 435.595 821.797 434.295 819.843C432.998 817.886 432.293 815.597 432.269 813.249V799.957C428.354 801.717 424.258 803.043 420.054 803.909C416.199 804.734 412.263 805.135 408.319 805.107V813.249C408.334 820.274 410.4 827.141 414.263 833.009C418.127 838.877 423.619 843.489 430.065 846.276L496.057 874.561C497.347 875.118 498.726 875.443 500.129 875.519L509.458 876.01C506.122 872.178 503.207 867.998 500.765 863.545Z" fill="#5D241D"/>
<path d="M587.938 820.807V844.384L562.468 852.911C560.869 853.45 559.403 854.321 558.166 855.466C556.927 856.61 555.944 858.005 555.282 859.556L566.252 864.261L582.813 871.353L603.697 864.359C606.08 863.564 608.155 862.041 609.623 860.003C611.095 857.967 611.887 855.517 611.887 853.006V828.195C603.551 827.068 595.458 824.572 587.938 820.807Z" fill="#5D241D"/>
<path d="M791.183 731.687C787.924 737.726 784.015 743.389 779.532 748.586C775.884 752.719 771.876 756.52 767.558 759.949V802.234C767.563 804.474 766.94 806.671 765.76 808.577C764.58 810.483 762.886 812.018 760.876 813.009L731.633 827.632V847.26C731.633 849.199 731.406 851.092 731.25 853.008H731.633C733.498 853.01 735.335 852.573 736.998 851.738L771.595 834.374C777.585 831.413 782.625 826.833 786.146 821.151C789.666 815.469 791.523 808.917 791.508 802.234V733.258C791.444 732.726 791.334 732.2 791.183 731.687Z" fill="#5D241D"/>
<path d="M643.5 972.761C637.964 972.761 632.595 970.845 628.311 967.335C624.026 963.822 621.091 958.935 620.008 953.504L611.89 912.884L525.299 869.583C522.533 868.201 520.208 866.078 518.581 863.449C516.956 860.82 516.092 857.79 516.092 854.699V845.717C516.092 841.3 517.845 837.062 520.969 833.938C524.093 830.813 528.331 829.061 532.748 829.061H540.039V784.993C528.817 790.329 516.547 793.109 504.117 793.134C500.144 793.183 496.177 792.864 492.261 792.176L492.141 793.134V829.538C492.184 843.604 496.333 857.351 504.073 869.095C511.816 880.836 522.819 890.061 535.73 895.64L575.964 912.884V996.711H671.762L662.182 972.761H643.5Z" fill="#714226"/>
<path d="M730.796 778.4C723.229 780.237 715.474 781.162 707.687 781.157C704.931 781.157 702.297 780.917 699.663 780.797C695.558 789.623 689.925 797.65 683.017 804.507L683.735 805.107V848.815C683.717 853.592 682.269 858.252 679.582 862.199C676.894 866.146 673.085 869.201 668.648 870.969L623.863 888.931L647.813 936.831L673.846 921.983L672.349 919.755C668.954 914.659 667.641 908.459 668.676 902.427C669.713 896.393 673.019 890.987 677.916 887.314L693.315 875.759C697.778 872.412 701.4 868.074 703.894 863.085C706.387 858.096 707.687 852.596 707.687 847.019V829.057C707.687 822.704 710.208 816.613 714.699 812.12C719.193 807.628 725.283 805.107 731.634 805.107V781.157L730.796 778.4Z" fill="#714226"/>
<path d="M845.394 493.754C834.621 493.734 824.012 496.365 814.499 501.418C812.516 500.457 810.478 499.617 808.391 498.904C799.158 495.473 789.385 493.729 779.531 493.754C757.301 493.754 735.981 502.586 720.262 518.307C704.541 534.026 695.71 555.347 695.71 577.58C695.766 581.831 696.127 586.072 696.788 590.272C680.986 592.007 665.87 597.691 652.842 606.798C646.281 592.901 635.435 581.476 621.895 574.206C608.356 566.938 592.839 564.207 577.632 566.422C562.424 568.634 548.331 575.672 537.423 586.499C526.517 597.323 519.374 611.366 517.047 626.556L516.092 626.439V662.362L517.047 662.482C519.5 646.751 527.077 632.268 538.603 621.288C546.824 613.458 556.789 607.697 567.672 604.476C578.557 601.255 590.052 600.667 601.208 602.762C612.367 604.854 622.866 609.57 631.843 616.519C640.82 623.465 648.016 632.447 652.842 642.725C665.87 633.615 680.986 627.93 696.788 626.198C696.127 621.998 695.766 617.755 695.71 613.504C695.71 591.273 704.541 569.952 720.262 554.231C735.981 538.512 757.301 529.68 779.531 529.68C789.385 529.655 799.158 531.397 808.391 534.828C810.478 535.543 812.516 536.381 814.499 537.344C823.159 532.751 832.736 530.15 842.53 529.729C852.322 529.307 862.088 531.08 871.108 534.915C880.131 538.747 888.183 544.546 894.68 551.888C901.173 559.23 905.948 567.929 908.656 577.353C911.499 567.574 912.018 557.263 910.171 547.249C908.324 537.232 904.162 527.787 898.018 519.666C891.872 511.545 883.912 504.972 874.777 500.473C865.639 495.974 855.577 493.672 845.394 493.754Z" fill="#8EE05B"/>
<path d="M744.591 462.627C730.891 452.268 714.976 445.227 698.097 442.056C681.219 438.884 663.833 439.665 647.307 444.341C630.781 449.018 615.564 457.459 602.85 469.003C590.135 480.55 580.267 494.885 574.024 510.885C574.478 494.767 556.829 484.541 541.118 480.875C516.295 475.278 490.384 476.941 466.48 485.665C461.358 488.12 455.996 490.031 450.481 491.377C444.327 492.251 437.968 491.497 431.73 492.575C428.148 493.216 424.609 494.077 421.132 495.15C420.619 498.655 420.339 502.194 420.294 505.737C420.246 509.709 420.566 513.677 421.252 517.591C424.055 537.566 433.987 555.854 449.217 569.083C464.447 582.311 483.946 589.584 504.117 589.561C514.995 589.543 525.77 587.43 535.848 583.335C536.716 584.078 537.636 584.758 538.604 585.369C546.825 577.541 556.788 571.78 567.673 568.559C578.558 565.337 590.051 564.75 601.21 566.842C612.365 568.934 622.865 573.65 631.842 580.599C640.821 587.548 648.017 596.53 652.84 606.805C665.871 597.697 680.984 592.013 696.787 590.279C696.125 586.079 695.768 581.838 695.711 577.587C695.711 555.354 704.543 534.032 720.261 518.314C735.982 502.592 757.303 493.761 779.533 493.761C789.383 493.735 799.157 495.48 808.392 498.911C824.077 486.168 834.61 468.17 838.04 448.257C822.58 442.201 805.794 440.34 789.383 442.864C772.97 445.388 757.517 452.204 744.591 462.627Z" fill="#44853B"/>
<path d="M816.509 376.4C812.557 376.4 808.605 376.221 804.643 376.484C778.491 377.329 753.676 388.233 735.37 406.925C726.669 398.273 716.277 391.508 704.845 387.055C693.411 382.602 681.185 380.556 668.923 381.045C656.663 381.534 644.636 384.547 633.595 389.897C622.552 395.246 612.732 402.816 604.749 412.134C595.716 404.606 585.165 399.113 573.815 396.027C562.468 392.942 550.589 392.338 538.986 394.255C527.385 396.174 516.332 400.569 506.581 407.142C496.827 413.716 488.607 422.313 482.476 432.348C475.755 426.603 467.966 422.239 459.556 419.509C451.144 416.777 442.279 415.732 433.464 416.433C415.817 417.949 398.88 424.095 384.368 434.252C376.838 439.426 369.856 445.357 363.532 451.952C367.333 464.04 374.88 474.609 385.084 482.125C395.289 489.638 407.618 493.713 420.292 493.756C420.651 493.756 420.891 493.636 421.25 493.636C421.178 494.127 421.25 494.63 421.13 495.121C424.607 494.048 428.146 493.189 431.728 492.545C437.967 491.467 444.325 492.224 450.479 491.35C455.995 490.004 461.357 488.09 466.479 485.638C490.382 476.913 516.293 475.25 541.116 480.848C556.827 484.44 574.477 494.737 574.022 510.855C580.268 494.86 590.136 480.526 602.853 468.981C615.57 457.439 630.788 449.001 647.313 444.327C663.839 439.654 681.223 438.874 698.098 442.048C714.977 445.221 730.889 452.263 744.589 462.62C757.511 452.207 772.956 445.396 789.359 442.872C805.759 440.348 822.538 442.205 837.99 448.25C840.361 435.424 839.643 422.215 835.896 409.721C832.145 397.227 825.475 385.805 816.437 376.4H816.509Z" fill="#52A147"/>
<path d="M313.495 731.318C316.071 720.476 319.347 709.81 323.302 699.392C316.841 697.824 311.151 694.002 307.256 688.614C302.438 682.6 299.216 675.47 297.887 667.878C296.558 660.29 297.165 652.486 299.652 645.195C302.4 637.881 307.177 631.504 313.423 626.811C316.502 624.464 319.907 622.576 323.529 621.206C325.924 620.31 333.325 619.914 334.163 617.796C334.905 615.916 329.038 607.544 328.175 605.534C325.999 600.825 324.159 595.971 322.667 591.008C319.613 581.185 318.562 570.849 319.578 560.615C320.109 556.246 321.105 551.947 322.547 547.788C312.398 552.639 303.825 560.257 297.815 569.763C291.805 579.272 288.602 590.285 288.575 601.533C288.575 603.209 288.934 604.767 289.054 606.323C278.254 610.924 269.044 618.598 262.571 628.393C256.098 638.187 252.646 649.668 252.646 661.407C252.646 673.148 256.098 684.629 262.571 694.423C269.044 704.218 278.254 711.892 289.054 716.493C288.934 718.049 288.575 719.607 288.575 721.283C288.575 729.458 290.675 737.495 294.673 744.623C298.672 751.753 304.435 757.736 311.411 761.997C310.704 751.725 311.406 741.404 313.495 731.318Z" fill="#39632C"/>
<path d="M535.851 583.331C525.771 587.428 514.998 589.541 504.118 589.559C483.947 589.582 464.448 582.309 449.22 569.081C433.989 555.852 424.057 537.564 421.254 517.589L420.296 517.709C410.821 517.739 401.566 520.58 393.706 525.871C385.845 531.159 379.729 538.665 376.134 547.43C379.882 559.728 384.743 571.717 389.629 583.619C391.21 587.5 392.802 591.378 394.706 595.115C397.67 601.476 401.583 607.352 406.31 612.538C401.547 615.606 397.059 619.086 392.898 622.933C388.863 627.036 385.332 631.606 382.384 636.549C376.499 646.449 372.715 657.454 371.272 668.881C369.14 691.812 373.059 714.901 382.636 735.844C369.562 744.221 359.767 756.839 354.891 771.579C359.772 781.604 367.367 790.059 376.81 795.986C386.255 801.911 397.171 805.073 408.321 805.109C412.265 805.137 416.201 804.736 420.056 803.911C434.507 801.052 447.388 792.949 456.22 781.159L457.298 778.883C442.383 768.861 431.084 754.309 425.066 737.377C419.049 720.442 418.633 702.026 423.879 684.838C429.126 667.65 439.756 652.603 454.202 641.917C468.65 631.231 486.149 625.47 504.118 625.483C508.448 625.541 512.771 625.899 517.052 626.561C519.499 610.832 527.079 596.349 538.605 585.367C537.64 584.756 536.717 584.076 535.851 583.331Z" fill="#233D1B"/>
<path d="M382.632 735.892C373.055 714.949 369.136 691.86 371.268 668.929C372.711 657.502 376.495 646.496 382.38 636.597C385.328 631.654 388.859 627.081 392.894 622.981C397.055 619.133 401.543 615.654 406.306 612.586C401.579 607.4 397.666 601.524 394.702 595.163C392.798 591.425 391.206 587.547 389.625 583.667C384.739 571.765 379.878 559.717 376.13 547.477C375.974 547.837 375.77 548.172 375.627 548.532C367.475 544.169 358.395 541.831 349.15 541.711C339.906 541.591 330.768 543.696 322.507 547.85C321.065 552.007 320.069 556.306 319.538 560.675C318.522 570.911 319.573 581.245 322.627 591.068C324.119 596.031 325.959 600.888 328.135 605.593C329.057 607.604 334.925 615.976 334.123 617.856C333.284 619.974 325.884 620.37 323.489 621.269C319.867 622.636 316.462 624.524 313.383 626.871C307.137 631.564 302.359 637.941 299.612 645.255C297.125 652.546 296.518 660.35 297.847 667.94C299.176 675.53 302.398 682.66 307.216 688.676C311.112 694.062 316.801 697.883 323.262 699.452C319.299 709.87 316.015 720.536 313.431 731.378C311.367 741.446 310.686 751.749 311.407 761.998C318.927 766.686 327.609 769.174 336.47 769.184C341.899 769.097 347.278 768.124 352.396 766.31C353.102 768.155 354.025 769.902 354.887 771.627C359.763 756.886 369.558 744.269 382.632 735.892Z" fill="#2F5224"/>
<path d="M384.368 434.251C395.377 426.739 407.683 421.336 420.663 418.312C421.539 403.114 428.186 388.824 439.246 378.363C450.305 367.902 464.943 362.059 480.165 362.029C488.373 362.018 496.492 363.732 503.995 367.059C515 348.519 532.739 334.944 553.51 329.165C574.279 323.387 596.481 325.851 615.479 336.044C624.921 327.391 636.225 321.025 648.521 317.437C660.816 313.848 673.768 313.133 686.385 315.347C698.997 317.561 710.934 322.644 721.273 330.205C731.609 337.766 740.069 347.601 746.004 358.952C751.846 353.767 755.583 350.054 755.583 350.054H754.623C755.249 346.093 755.571 342.09 755.583 338.079C755.614 321.838 750.919 305.938 742.07 292.32C733.218 278.701 720.596 267.954 705.738 261.39C690.883 254.825 674.439 252.727 658.412 255.351C642.382 257.976 627.466 265.209 615.479 276.169C596.481 265.976 574.279 263.512 553.51 269.29C532.739 275.069 515 288.644 503.995 307.184C496.492 303.857 488.373 302.143 480.165 302.154C464.286 302.154 449.056 308.463 437.829 319.691C426.6 330.92 420.292 346.15 420.292 362.029C420.324 366.089 420.723 370.137 421.49 374.124C421.13 374.124 420.771 374.004 420.292 374.004C404.412 374.004 389.184 380.313 377.956 391.541C366.726 402.77 360.419 417.999 360.419 433.879C360.478 442.883 362.626 451.75 366.694 459.782C365.449 457.248 364.381 454.632 363.496 451.949C369.833 445.355 376.826 439.424 384.368 434.251Z" fill="#7BC24F"/>
</g>
<path d="M227.234 356.842L195.957 336.153L209.275 316.018C218.972 301.357 217.167 287.518 204.656 279.242C192.341 271.096 179.029 274.654 169.202 289.511L150.453 317.856L221.803 365.052L227.234 356.842ZM162.726 314.171L175.656 294.623C182.638 284.067 190.82 281.892 199.226 287.452C207.827 293.142 209.027 301.523 202.045 312.079L189.115 331.627L162.726 314.171Z" fill="white"/>
<path d="M227.234 356.842L227.525 357.035L227.719 356.743L227.427 356.55L227.234 356.842ZM195.957 336.153L195.665 335.96L195.472 336.252L195.764 336.445L195.957 336.153ZM150.453 317.856L150.161 317.663L149.968 317.955L150.26 318.148L150.453 317.856ZM221.803 365.052L221.61 365.344L221.902 365.537L222.095 365.245L221.803 365.052ZM162.726 314.171L162.434 313.978L162.241 314.27L162.533 314.463L162.726 314.171ZM189.115 331.627L188.922 331.919L189.214 332.112L189.407 331.82L189.115 331.627ZM227.427 356.55L196.15 335.861L195.764 336.445L227.04 357.134L227.427 356.55ZM196.249 336.346L209.567 316.211L208.983 315.825L195.665 335.96L196.249 336.346ZM209.567 316.211C214.447 308.833 216.457 301.625 215.641 295.192C214.823 288.75 211.178 283.136 204.85 278.95L204.463 279.534C210.646 283.624 214.158 289.067 214.946 295.28C215.736 301.501 213.8 308.543 208.983 315.825L209.567 316.211ZM204.85 278.95C198.62 274.829 192.108 273.654 185.901 275.414C179.701 277.171 173.854 281.842 168.91 289.318L169.494 289.704C174.376 282.323 180.099 277.786 186.091 276.087C192.075 274.39 198.378 275.509 204.463 279.534L204.85 278.95ZM168.91 289.318L150.161 317.663L150.745 318.049L169.494 289.704L168.91 289.318ZM150.26 318.148L221.61 365.344L221.996 364.76L150.646 317.564L150.26 318.148ZM222.095 365.245L227.525 357.035L226.942 356.649L221.511 364.859L222.095 365.245ZM163.018 314.364L175.948 294.816L175.364 294.43L162.434 313.978L163.018 314.364ZM175.948 294.816C179.414 289.576 183.146 286.466 187.006 285.33C190.853 284.198 194.894 285.007 199.033 287.744L199.419 287.16C195.152 284.338 190.899 283.454 186.808 284.658C182.73 285.859 178.88 289.114 175.364 294.43L175.948 294.816ZM199.033 287.744C203.271 290.548 205.645 293.984 206.132 297.983C206.62 301.995 205.22 306.645 201.753 311.886L202.337 312.272C205.853 306.957 207.343 302.138 206.827 297.898C206.309 293.646 203.781 290.046 199.419 287.16L199.033 287.744ZM201.753 311.886L188.823 331.434L189.407 331.82L202.337 312.272L201.753 311.886ZM189.308 331.335L162.919 313.879L162.533 314.463L188.922 331.919L189.308 331.335Z" fill="white"/>
<path d="M333.532 223.899L300.701 251.498L251.084 192.473L243.549 198.807L298.595 264.291L338.961 230.358L333.532 223.899Z" fill="white"/>
<path d="M333.532 223.899L333.799 223.674L333.574 223.406L333.306 223.631L333.532 223.899ZM300.701 251.498L300.433 251.724L300.658 251.992L300.926 251.766L300.701 251.498ZM251.084 192.473L251.351 192.248L251.126 191.98L250.858 192.205L251.084 192.473ZM243.549 198.807L243.323 198.539L243.055 198.765L243.281 199.032L243.549 198.807ZM298.595 264.291L298.327 264.517L298.552 264.785L298.82 264.559L298.595 264.291ZM338.961 230.358L339.186 230.626L339.454 230.4L339.229 230.132L338.961 230.358ZM333.306 223.631L300.475 251.231L300.926 251.766L333.757 224.167L333.306 223.631ZM300.968 251.273L251.351 192.248L250.816 192.698L300.433 251.724L300.968 251.273ZM250.858 192.205L243.323 198.539L243.774 199.075L251.309 192.741L250.858 192.205ZM243.281 199.032L298.327 264.517L298.863 264.066L243.816 198.582L243.281 199.032ZM298.82 264.559L339.186 230.626L338.736 230.09L298.37 264.024L298.82 264.559ZM339.229 230.132L333.799 223.674L333.264 224.124L338.693 230.583L339.229 230.132Z" fill="white"/>
<path d="M396.257 99.0941L388.283 102.502L387.419 195.904L396.901 191.851L396.864 167.908L438.028 150.315L455.306 166.889L464.574 162.929L396.257 99.0941ZM431.571 144.154L396.873 158.983L396.891 111.313L431.571 144.154Z" fill="white"/>
<path d="M396.257 99.0941L396.496 98.8384L396.329 98.6826L396.119 98.7723L396.257 99.0941ZM388.283 102.502L388.145 102.18L387.935 102.27L387.933 102.499L388.283 102.502ZM387.419 195.904L387.069 195.901L387.064 196.436L387.556 196.226L387.419 195.904ZM396.901 191.851L397.039 192.173L397.252 192.082L397.251 191.851L396.901 191.851ZM396.864 167.908L396.727 167.586L396.514 167.677L396.514 167.909L396.864 167.908ZM438.028 150.315L438.27 150.063L438.103 149.902L437.89 149.993L438.028 150.315ZM455.306 166.889L455.064 167.142L455.231 167.302L455.444 167.211L455.306 166.889ZM464.574 162.929L464.711 163.251L465.205 163.04L464.812 162.673L464.574 162.929ZM431.571 144.154L431.709 144.475L432.199 144.266L431.812 143.899L431.571 144.154ZM396.873 158.983L396.523 158.983L396.523 159.514L397.011 159.305L396.873 158.983ZM396.891 111.313L397.132 111.058L396.541 110.499L396.541 111.312L396.891 111.313ZM396.119 98.7723L388.145 102.18L388.42 102.824L396.395 99.416L396.119 98.7723ZM387.933 102.499L387.069 195.901L387.769 195.907L388.633 102.505L387.933 102.499ZM387.556 196.226L397.039 192.173L396.764 191.529L387.281 195.582L387.556 196.226ZM397.251 191.851L397.214 167.908L396.514 167.909L396.551 191.852L397.251 191.851ZM397.002 168.23L438.165 150.637L437.89 149.993L396.727 167.586L397.002 168.23ZM437.785 150.568L455.064 167.142L455.549 166.637L438.27 150.063L437.785 150.568ZM455.444 167.211L464.711 163.251L464.436 162.607L455.169 166.568L455.444 167.211ZM464.812 162.673L396.496 98.8384L396.018 99.3499L464.335 163.184L464.812 162.673ZM431.434 143.832L396.736 158.661L397.011 159.305L431.709 144.475L431.434 143.832ZM397.223 158.983L397.241 111.313L396.541 111.312L396.523 158.983L397.223 158.983ZM396.65 111.567L431.331 144.408L431.812 143.899L397.132 111.058L396.65 111.567Z" fill="white"/>
<path d="M520.585 62.3418L513.117 63.0399L521.079 148.215L530.18 147.365L523.789 78.9909L581.752 142.544L589.219 141.846L581.258 56.6703L571.923 57.5428L578.336 126.15L520.585 62.3418Z" fill="white"/>
<path d="M520.585 62.3418L520.844 62.107L520.726 61.977L520.552 61.9933L520.585 62.3418ZM513.117 63.0399L513.085 62.6914L512.736 62.724L512.769 63.0724L513.117 63.0399ZM521.079 148.215L520.73 148.248L520.763 148.597L521.111 148.564L521.079 148.215ZM530.18 147.365L530.212 147.713L530.561 147.681L530.528 147.332L530.18 147.365ZM523.789 78.9909L524.047 78.755L523.343 77.9828L523.44 79.0235L523.789 78.9909ZM581.752 142.544L581.493 142.78L581.611 142.909L581.784 142.892L581.752 142.544ZM589.219 141.846L589.252 142.194L589.6 142.162L589.568 141.813L589.219 141.846ZM581.258 56.6703L581.606 56.6377L581.573 56.2892L581.225 56.3218L581.258 56.6703ZM571.923 57.5428L571.891 57.1943L571.542 57.2269L571.575 57.5754L571.923 57.5428ZM578.336 126.15L578.077 126.385L578.782 127.165L578.685 126.117L578.336 126.15ZM520.552 61.9933L513.085 62.6914L513.15 63.3884L520.617 62.6903L520.552 61.9933ZM512.769 63.0724L520.73 148.248L521.427 148.183L513.466 63.0073L512.769 63.0724ZM521.111 148.564L530.212 147.713L530.147 147.016L521.046 147.867L521.111 148.564ZM530.528 147.332L524.137 78.9583L523.44 79.0235L529.831 147.397L530.528 147.332ZM523.53 79.2268L581.493 142.78L582.01 142.308L524.047 78.755L523.53 79.2268ZM581.784 142.892L589.252 142.194L589.186 141.497L581.719 142.195L581.784 142.892ZM589.568 141.813L581.606 56.6377L580.909 56.7028L588.871 141.878L589.568 141.813ZM581.225 56.3218L571.891 57.1943L571.956 57.8913L581.29 57.0187L581.225 56.3218ZM571.575 57.5754L577.988 126.183L578.685 126.117L572.272 57.5102L571.575 57.5754ZM578.596 125.915L520.844 62.107L520.325 62.5767L578.077 126.385L578.596 125.915Z" fill="white"/>
<path d="M699.871 75.5982L729.031 81.5685L730.724 73.3025L662.529 59.3403L660.837 67.6064L689.997 73.5767L674.532 149.119L684.405 151.141L699.871 75.5982Z" fill="white"/>
<path d="M699.871 75.5982L699.941 75.2553L699.598 75.1851L699.528 75.528L699.871 75.5982ZM729.031 81.5685L728.961 81.9114L729.304 81.9816L729.374 81.6387L729.031 81.5685ZM730.724 73.3025L731.067 73.3727L731.137 73.0298L730.794 72.9596L730.724 73.3025ZM662.529 59.3403L662.599 58.9975L662.256 58.9273L662.186 59.2701L662.529 59.3403ZM660.837 67.6064L660.494 67.5362L660.424 67.8791L660.766 67.9493L660.837 67.6064ZM689.997 73.5767L690.34 73.6469L690.41 73.304L690.068 73.2338L689.997 73.5767ZM674.532 149.119L674.189 149.049L674.119 149.392L674.462 149.462L674.532 149.119ZM684.405 151.141L684.335 151.484L684.678 151.554L684.748 151.211L684.405 151.141ZM699.801 75.9411L728.961 81.9114L729.102 81.2256L699.941 75.2553L699.801 75.9411ZM729.374 81.6387L731.067 73.3727L730.381 73.2323L728.689 81.4983L729.374 81.6387ZM730.794 72.9596L662.599 58.9975L662.459 59.6832L730.654 73.6453L730.794 72.9596ZM662.186 59.2701L660.494 67.5362L661.18 67.6766L662.872 59.4106L662.186 59.2701ZM660.766 67.9493L689.927 73.9196L690.068 73.2338L660.907 67.2635L660.766 67.9493ZM689.655 73.5065L674.189 149.049L674.875 149.189L690.34 73.6469L689.655 73.5065ZM674.462 149.462L684.335 151.484L684.475 150.798L674.602 148.776L674.462 149.462ZM684.748 151.211L700.214 75.6684L699.528 75.528L684.062 151.071L684.748 151.211Z" fill="white"/>
<path d="M813.811 103.737L804.852 99.6589L769.41 177.519L778.369 181.597L813.811 103.737Z" fill="white"/>
<path d="M813.811 103.737L814.13 103.882L814.275 103.564L813.956 103.419L813.811 103.737ZM804.852 99.6589L804.997 99.3404L804.679 99.1954L804.534 99.5139L804.852 99.6589ZM769.41 177.519L769.092 177.374L768.947 177.692L769.265 177.837L769.41 177.519ZM778.369 181.597L778.224 181.916L778.543 182.061L778.688 181.742L778.369 181.597ZM813.956 103.419L804.997 99.3404L804.707 99.9775L813.666 104.056L813.956 103.419ZM804.534 99.5139L769.092 177.374L769.729 177.664L805.171 99.8039L804.534 99.5139ZM769.265 177.837L778.224 181.916L778.514 181.279L769.555 177.2L769.265 177.837ZM778.688 181.742L814.13 103.882L813.493 103.592L778.051 181.452L778.688 181.742Z" fill="white"/>
<path d="M894.267 148.464L888.379 143.819L835.393 210.981L842.57 216.643L885.103 162.729L883.234 248.726L889.122 253.371L942.108 186.209L934.748 180.402L892.069 234.5L894.267 148.464Z" fill="white"/>
<path d="M894.267 148.464L894.617 148.473L894.621 148.298L894.484 148.189L894.267 148.464ZM888.379 143.819L888.596 143.544L888.321 143.327L888.104 143.602L888.379 143.819ZM835.393 210.981L835.119 210.764L834.902 211.039L835.177 211.256L835.393 210.981ZM842.57 216.643L842.353 216.918L842.628 217.134L842.844 216.86L842.57 216.643ZM885.103 162.729L885.453 162.736L885.476 161.691L884.828 162.512L885.103 162.729ZM883.234 248.726L882.884 248.718L882.88 248.892L883.017 249L883.234 248.726ZM889.122 253.371L888.905 253.646L889.18 253.863L889.397 253.588L889.122 253.371ZM942.108 186.209L942.382 186.425L942.599 186.151L942.324 185.934L942.108 186.209ZM934.748 180.402L934.964 180.127L934.69 179.91L934.473 180.185L934.748 180.402ZM892.069 234.5L891.719 234.491L891.692 235.542L892.344 234.717L892.069 234.5ZM894.484 148.189L888.596 143.544L888.162 144.093L894.05 148.739L894.484 148.189ZM888.104 143.602L835.119 210.764L835.668 211.198L888.654 144.035L888.104 143.602ZM835.177 211.256L842.353 216.918L842.786 216.368L835.61 210.706L835.177 211.256ZM842.844 216.86L885.378 162.946L884.828 162.512L842.295 216.426L842.844 216.86ZM884.753 162.721L882.884 248.718L883.584 248.733L885.453 162.736L884.753 162.721ZM883.017 249L888.905 253.646L889.339 253.096L883.451 248.451L883.017 249ZM889.397 253.588L942.382 186.425L941.833 185.992L888.847 253.154L889.397 253.588ZM942.324 185.934L934.964 180.127L934.531 180.677L941.891 186.483L942.324 185.934ZM934.473 180.185L891.794 234.283L892.344 234.717L935.022 180.619L934.473 180.185ZM892.419 234.509L894.617 148.473L893.917 148.455L891.719 234.491L892.419 234.509Z" fill="white"/>
<path d="M985.919 310.689L997.823 328.386L976.237 342.907C970.629 338.77 965.863 333.784 961.808 327.756C950.558 311.031 954.848 295.152 974.1 282.201C992.963 269.511 1009.29 271.524 1020.01 287.47C1025.64 295.833 1027.36 303.431 1025.91 314.293L1034.55 313.282C1036.33 303.329 1033.69 292.679 1027.02 282.761C1013.15 262.147 990.839 258.794 968.475 273.838C945.722 289.144 940.612 310.942 954.871 332.14C961.15 341.474 969.766 350.084 976.346 353.567L1009.21 331.459L992.336 306.372L985.919 310.689Z" fill="white"/>
<path d="M985.919 310.689L985.723 310.399L985.433 310.594L985.628 310.884L985.919 310.689ZM997.823 328.386L998.018 328.676L998.309 328.481L998.113 328.191L997.823 328.386ZM976.237 342.907L976.029 343.189L976.228 343.335L976.432 343.197L976.237 342.907ZM1025.91 314.293L1025.56 314.247L1025.5 314.693L1025.95 314.641L1025.91 314.293ZM1034.55 313.282L1034.59 313.63L1034.85 313.599L1034.9 313.344L1034.55 313.282ZM976.346 353.567L976.182 353.877L976.368 353.975L976.541 353.858L976.346 353.567ZM1009.21 331.459L1009.41 331.749L1009.7 331.554L1009.5 331.263L1009.21 331.459ZM992.336 306.372L992.627 306.177L992.431 305.886L992.141 306.082L992.336 306.372ZM985.628 310.884L997.532 328.581L998.113 328.191L986.209 310.494L985.628 310.884ZM997.627 328.096L976.041 342.616L976.432 343.197L998.018 328.676L997.627 328.096ZM976.445 342.625C970.87 338.513 966.132 333.556 962.099 327.56L961.518 327.951C965.595 334.012 970.388 339.027 976.029 343.189L976.445 342.625ZM962.099 327.56C956.515 319.26 954.814 311.212 956.854 303.654C958.896 296.086 964.709 288.94 974.295 282.491L973.905 281.91C964.238 288.413 958.28 295.682 956.178 303.472C954.072 311.272 955.851 319.527 961.518 327.951L962.099 327.56ZM974.295 282.491C983.686 276.174 992.399 273.547 1000.07 274.445C1007.73 275.34 1014.4 279.758 1019.72 287.666L1020.3 287.275C1014.9 279.236 1008.05 274.674 1000.15 273.749C992.258 272.826 983.378 275.538 973.905 281.91L974.295 282.491ZM1019.72 287.666C1025.3 295.952 1027 303.464 1025.56 314.247L1026.26 314.339C1027.72 303.399 1025.98 295.713 1020.3 287.275L1019.72 287.666ZM1025.95 314.641L1034.59 313.63L1034.51 312.934L1025.87 313.945L1025.95 314.641ZM1034.9 313.344C1036.69 303.284 1034.02 292.544 1027.31 282.565L1026.72 282.956C1033.36 292.814 1035.97 303.373 1034.21 313.22L1034.9 313.344ZM1027.31 282.565C1020.33 272.191 1011.2 266.133 1000.98 264.582C990.771 263.031 979.515 265.99 968.28 273.548L968.67 274.129C979.799 266.643 990.88 263.756 1000.88 265.274C1010.87 266.791 1019.84 272.717 1026.72 282.956L1027.31 282.565ZM968.28 273.548C956.851 281.236 949.817 290.58 947.453 300.7C945.087 310.825 947.408 321.672 954.581 332.335L955.161 331.944C948.075 321.41 945.822 310.759 948.134 300.859C950.448 290.955 957.346 281.747 968.67 274.129L968.28 273.548ZM954.581 332.335C960.877 341.695 969.532 350.356 976.182 353.877L976.51 353.258C970.001 349.812 961.424 341.254 955.161 331.944L954.581 332.335ZM976.541 353.858L1009.41 331.749L1009.02 331.168L976.151 353.277L976.541 353.858ZM1009.5 331.263L992.627 306.177L992.046 306.567L1008.92 331.654L1009.5 331.263ZM992.141 306.082L985.723 310.399L986.114 310.979L992.532 306.662L992.141 306.082Z" fill="white"/>
<path d="M226.442 827.917L222.041 821.844L152.769 872.04L158.132 879.442L213.74 839.147L188.524 921.385L192.924 927.459L262.196 877.263L256.695 869.671L200.898 910.103L226.442 827.917Z" fill="white"/>
<path d="M226.442 827.917L226.776 828.021L226.828 827.854L226.725 827.712L226.442 827.917ZM222.041 821.844L222.324 821.638L222.119 821.355L221.836 821.56L222.041 821.844ZM152.769 872.04L152.564 871.756L152.28 871.962L152.485 872.245L152.769 872.04ZM158.132 879.442L157.849 879.647L158.054 879.93L158.337 879.725L158.132 879.442ZM213.74 839.147L214.074 839.25L214.381 838.25L213.534 838.864L213.74 839.147ZM188.524 921.385L188.189 921.283L188.138 921.45L188.24 921.591L188.524 921.385ZM192.924 927.459L192.641 927.664L192.846 927.947L193.129 927.742L192.924 927.459ZM262.196 877.263L262.402 877.546L262.685 877.341L262.48 877.057L262.196 877.263ZM256.695 869.671L256.979 869.466L256.774 869.182L256.49 869.387L256.695 869.671ZM200.898 910.103L200.564 909.999L200.252 911.004L201.104 910.386L200.898 910.103ZM226.725 827.712L222.324 821.638L221.758 822.049L226.158 828.122L226.725 827.712ZM221.836 821.56L152.564 871.756L152.974 872.323L222.246 822.127L221.836 821.56ZM152.485 872.245L157.849 879.647L158.415 879.236L153.052 871.834L152.485 872.245ZM158.337 879.725L213.945 839.431L213.534 838.864L157.927 879.158L158.337 879.725ZM213.405 839.045L188.189 921.283L188.858 921.488L214.074 839.25L213.405 839.045ZM188.24 921.591L192.641 927.664L193.208 927.253L188.807 921.18L188.24 921.591ZM193.129 927.742L262.402 877.546L261.991 876.979L192.719 927.175L193.129 927.742ZM262.48 877.057L256.979 869.466L256.412 869.876L261.913 877.468L262.48 877.057ZM256.49 869.387L200.693 909.819L201.104 910.386L256.901 869.954L256.49 869.387ZM201.232 910.207L226.776 828.021L226.107 827.813L200.564 909.999L201.232 910.207Z" fill="white"/>
<path d="M281.297 1002.19L247.775 973.597L267.852 950.06L299.592 977.135L305.067 970.716L273.328 943.64L292.645 920.994L326.168 949.591L331.491 943.35L290.48 908.365L234.962 973.45L275.973 1008.43L281.297 1002.19Z" fill="white"/>
<path d="M281.297 1002.19L281.563 1002.42L281.79 1002.15L281.524 1001.93L281.297 1002.19ZM247.775 973.597L247.508 973.37L247.281 973.637L247.548 973.864L247.775 973.597ZM267.852 950.06L268.079 949.794L267.813 949.566L267.586 949.833L267.852 950.06ZM299.592 977.135L299.364 977.401L299.631 977.629L299.858 977.362L299.592 977.135ZM305.067 970.716L305.334 970.943L305.561 970.677L305.294 970.45L305.067 970.716ZM273.328 943.64L273.062 943.413L272.835 943.68L273.101 943.907L273.328 943.64ZM292.645 920.994L292.872 920.728L292.606 920.501L292.379 920.767L292.645 920.994ZM326.168 949.591L325.94 949.857L326.207 950.084L326.434 949.818L326.168 949.591ZM331.491 943.35L331.757 943.577L331.985 943.311L331.718 943.084L331.491 943.35ZM290.48 908.365L290.707 908.099L290.441 907.871L290.213 908.138L290.48 908.365ZM234.962 973.45L234.696 973.223L234.469 973.489L234.735 973.716L234.962 973.45ZM275.973 1008.43L275.746 1008.7L276.013 1008.93L276.24 1008.66L275.973 1008.43ZM281.524 1001.93L248.002 973.331L247.548 973.864L281.07 1002.46L281.524 1001.93ZM248.041 973.825L268.119 950.287L267.586 949.833L247.508 973.37L248.041 973.825ZM267.625 950.326L299.364 977.401L299.819 976.869L268.079 949.794L267.625 950.326ZM299.858 977.362L305.334 970.943L304.801 970.489L299.325 976.908L299.858 977.362ZM305.294 970.45L273.555 943.374L273.101 943.907L304.84 970.982L305.294 970.45ZM273.594 943.868L292.911 921.222L292.379 920.767L273.062 943.413L273.594 943.868ZM292.418 921.261L325.94 949.857L326.395 949.325L292.872 920.728L292.418 921.261ZM326.434 949.818L331.757 943.577L331.225 943.123L325.901 949.364L326.434 949.818ZM331.718 943.084L290.707 908.099L290.253 908.631L331.264 943.616L331.718 943.084ZM290.213 908.138L234.696 973.223L235.228 973.677L290.746 908.592L290.213 908.138ZM234.735 973.716L275.746 1008.7L276.201 1008.17L235.189 973.184L234.735 973.716ZM276.24 1008.66L281.563 1002.42L281.031 1001.97L275.707 1008.21L276.24 1008.66Z" fill="white"/>
<path d="M416.173 994.21L409.203 990.85L357.439 1046.06L364.451 970.932L355.243 966.834L347.867 1057.19L355.362 1060.52L406.244 1006.72L400.113 1080.44L407.608 1083.78L469.8 1017.82L460.806 1013.82L409.376 1069.43L416.173 994.21Z" fill="white"/>
<path d="M416.173 994.21L416.522 994.241L416.544 993.999L416.325 993.894L416.173 994.21ZM409.203 990.85L409.355 990.535L409.123 990.424L408.947 990.611L409.203 990.85ZM357.439 1046.06L357.091 1046.02L356.996 1047.04L357.695 1046.3L357.439 1046.06ZM364.451 970.932L364.799 970.964L364.823 970.714L364.593 970.612L364.451 970.932ZM355.243 966.834L355.386 966.514L354.935 966.313L354.895 966.805L355.243 966.834ZM347.867 1057.19L347.518 1057.16L347.498 1057.41L347.725 1057.51L347.867 1057.19ZM355.362 1060.52L355.219 1060.84L355.446 1060.94L355.616 1060.76L355.362 1060.52ZM406.244 1006.72L406.592 1006.75L406.675 1005.76L405.989 1006.48L406.244 1006.72ZM400.113 1080.44L399.765 1080.41L399.744 1080.66L399.971 1080.76L400.113 1080.44ZM407.608 1083.78L407.465 1084.1L407.692 1084.2L407.862 1084.02L407.608 1083.78ZM469.8 1017.82L470.054 1018.06L470.393 1017.7L469.942 1017.5L469.8 1017.82ZM460.806 1013.82L460.949 1013.5L460.72 1013.4L460.549 1013.58L460.806 1013.82ZM409.376 1069.43L409.027 1069.4L408.935 1070.42L409.633 1069.67L409.376 1069.43ZM416.325 993.894L409.355 990.535L409.051 991.166L416.021 994.525L416.325 993.894ZM408.947 990.611L357.184 1045.82L357.695 1046.3L409.458 991.09L408.947 990.611ZM357.788 1046.09L364.799 970.964L364.102 970.899L357.091 1046.02L357.788 1046.09ZM364.593 970.612L355.386 966.514L355.101 967.154L364.308 971.252L364.593 970.612ZM354.895 966.805L347.518 1057.16L348.216 1057.22L355.592 966.862L354.895 966.805ZM347.725 1057.51L355.219 1060.84L355.504 1060.2L348.01 1056.87L347.725 1057.51ZM355.616 1060.76L406.498 1006.96L405.989 1006.48L355.107 1060.28L355.616 1060.76ZM405.895 1006.69L399.765 1080.41L400.462 1080.47L406.592 1006.75L405.895 1006.69ZM399.971 1080.76L407.465 1084.1L407.75 1083.46L400.256 1080.12L399.971 1080.76ZM407.862 1084.02L470.054 1018.06L469.545 1017.58L407.353 1083.54L407.862 1084.02ZM469.942 1017.5L460.949 1013.5L460.664 1014.14L469.657 1018.14L469.942 1017.5ZM460.549 1013.58L409.119 1069.19L409.633 1069.67L461.063 1014.06L460.549 1013.58ZM409.725 1069.46L416.522 994.241L415.825 994.178L409.027 1069.4L409.725 1069.46Z" fill="white"/>
<path d="M610.699 1042.04L640.45 1041.11L640.186 1032.67L570.611 1034.85L570.875 1043.28L600.626 1042.35L603.035 1119.42L613.108 1119.11L610.699 1042.04Z" fill="white"/>
<path d="M610.699 1042.04L610.688 1041.69L610.338 1041.7L610.349 1042.05L610.699 1042.04ZM640.45 1041.11L640.461 1041.45L640.811 1041.44L640.8 1041.09L640.45 1041.11ZM640.186 1032.67L640.536 1032.66L640.525 1032.31L640.175 1032.32L640.186 1032.67ZM570.611 1034.85L570.6 1034.5L570.25 1034.51L570.261 1034.86L570.611 1034.85ZM570.875 1043.28L570.525 1043.29L570.536 1043.64L570.886 1043.63L570.875 1043.28ZM600.626 1042.35L600.976 1042.34L600.965 1041.99L600.615 1042L600.626 1042.35ZM603.035 1119.42L602.685 1119.43L602.696 1119.78L603.046 1119.77L603.035 1119.42ZM613.108 1119.11L613.119 1119.46L613.469 1119.45L613.458 1119.1L613.108 1119.11ZM610.71 1042.39L640.461 1041.45L640.439 1040.76L610.688 1041.69L610.71 1042.39ZM640.8 1041.09L640.536 1032.66L639.837 1032.68L640.1 1041.12L640.8 1041.09ZM640.175 1032.32L570.6 1034.5L570.622 1035.2L640.197 1033.02L640.175 1032.32ZM570.261 1034.86L570.525 1043.29L571.224 1043.27L570.961 1034.84L570.261 1034.86ZM570.886 1043.63L600.637 1042.7L600.615 1042L570.864 1042.93L570.886 1043.63ZM600.276 1042.36L602.685 1119.43L603.385 1119.41L600.976 1042.34L600.276 1042.36ZM603.046 1119.77L613.119 1119.46L613.097 1118.76L603.024 1119.07L603.046 1119.77ZM613.458 1119.1L611.049 1042.02L610.349 1042.05L612.758 1119.12L613.458 1119.1Z" fill="white"/>
<path d="M746.11 1068.17C742.108 1062.46 737.847 1060.23 732.915 1060.86C742.664 1054.77 746.423 1045.47 743.498 1034.85C739.391 1019.94 727.209 1014.54 709.584 1019.4L676.819 1028.42L699.534 1110.9L709.024 1108.28L699.129 1072.36L719.692 1066.69C727.6 1064.51 732.165 1065.2 736.518 1071.3L754.216 1095.84L764.158 1093.1L746.11 1068.17ZM688.488 1033.72L710.858 1027.55C723.964 1023.94 731.208 1027.3 734.008 1037.47C736.871 1047.86 731.975 1054.8 719.321 1058.29L696.951 1064.45L688.488 1033.72Z" fill="white"/>
<path d="M746.11 1068.17L745.823 1068.37L745.826 1068.37L746.11 1068.17ZM732.915 1060.86L732.73 1060.56L732.959 1061.21L732.915 1060.86ZM676.819 1028.42L676.726 1028.08L676.389 1028.18L676.482 1028.51L676.819 1028.42ZM699.534 1110.9L699.196 1110.99L699.289 1111.33L699.626 1111.23L699.534 1110.9ZM709.024 1108.28L709.117 1108.62L709.454 1108.53L709.361 1108.19L709.024 1108.28ZM699.129 1072.36L699.036 1072.02L698.699 1072.11L698.792 1072.45L699.129 1072.36ZM736.518 1071.3L736.233 1071.5L736.234 1071.5L736.518 1071.3ZM754.216 1095.84L753.932 1096.04L754.075 1096.24L754.309 1096.17L754.216 1095.84ZM764.158 1093.1L764.251 1093.44L764.738 1093.3L764.442 1092.89L764.158 1093.1ZM688.488 1033.72L688.395 1033.38L688.057 1033.47L688.15 1033.81L688.488 1033.72ZM696.951 1064.45L696.614 1064.54L696.707 1064.88L697.044 1064.78L696.951 1064.45ZM746.396 1067.97C744.376 1065.09 742.273 1063.06 740.029 1061.83C737.779 1060.6 735.407 1060.19 732.871 1060.51L732.959 1061.21C735.356 1060.9 737.579 1061.29 739.693 1062.45C741.814 1063.6 743.842 1065.54 745.823 1068.37L746.396 1067.97ZM733.101 1061.16C738.026 1058.08 741.459 1054.18 743.284 1049.69C745.109 1045.19 745.316 1040.13 743.836 1034.76L743.161 1034.95C744.606 1040.19 744.395 1045.09 742.635 1049.42C740.875 1053.76 737.553 1057.55 732.73 1060.56L733.101 1061.16ZM743.836 1034.76C741.76 1027.22 737.629 1022.05 731.754 1019.39C725.892 1016.74 718.349 1016.62 709.491 1019.06L709.677 1019.73C718.443 1017.32 725.804 1017.47 731.466 1020.03C737.116 1022.59 741.129 1027.57 743.161 1034.95L743.836 1034.76ZM709.491 1019.06L676.726 1028.08L676.912 1028.76L709.677 1019.73L709.491 1019.06ZM676.482 1028.51L699.196 1110.99L699.871 1110.8L677.157 1028.33L676.482 1028.51ZM699.626 1111.23L709.117 1108.62L708.931 1107.95L699.441 1110.56L699.626 1111.23ZM709.361 1108.19L699.467 1072.26L698.792 1072.45L708.686 1108.38L709.361 1108.19ZM699.222 1072.69L719.785 1067.03L719.599 1066.35L699.036 1072.02L699.222 1072.69ZM719.785 1067.03C723.723 1065.94 726.77 1065.59 729.354 1066.23C731.923 1066.87 734.088 1068.5 736.233 1071.5L736.803 1071.09C734.595 1068 732.302 1066.24 729.522 1065.55C726.759 1064.87 723.569 1065.26 719.599 1066.35L719.785 1067.03ZM736.234 1071.5L753.932 1096.04L754.5 1095.63L736.802 1071.09L736.234 1071.5ZM754.309 1096.17L764.251 1093.44L764.066 1092.76L754.123 1095.5L754.309 1096.17ZM764.442 1092.89L746.393 1067.96L745.826 1068.37L763.875 1093.3L764.442 1092.89ZM688.581 1034.05L710.951 1027.89L710.765 1027.22L688.395 1033.38L688.581 1034.05ZM710.951 1027.89C717.472 1026.1 722.465 1026.05 726.157 1027.66C729.831 1029.27 732.289 1032.54 733.671 1037.56L734.345 1037.37C732.927 1032.22 730.363 1028.74 726.437 1027.02C722.531 1025.32 717.35 1025.4 710.765 1027.22L710.951 1027.89ZM733.671 1037.56C735.082 1042.68 734.569 1046.9 732.197 1050.26C729.816 1053.64 725.518 1056.22 719.228 1057.95L719.414 1058.62C725.779 1056.87 730.255 1054.23 732.769 1050.67C735.293 1047.09 735.796 1042.64 734.345 1037.37L733.671 1037.56ZM719.228 1057.95L696.858 1064.11L697.044 1064.78L719.414 1058.62L719.228 1057.95ZM697.289 1064.35L688.825 1033.62L688.15 1033.81L696.614 1064.54L697.289 1064.35Z" fill="white"/>
<path d="M866.491 1036.17L827.956 1057.54L812.955 1030.48L849.44 1010.25L845.349 1002.87L808.863 1023.1L794.43 997.067L832.966 975.701L828.988 968.527L781.844 994.667L823.325 1069.48L870.469 1043.34L866.491 1036.17Z" fill="white"/>
<path d="M866.491 1036.17L866.797 1036L866.628 1035.69L866.322 1035.86L866.491 1036.17ZM827.956 1057.54L827.65 1057.71L827.82 1058.01L828.126 1057.84L827.956 1057.54ZM812.955 1030.48L812.785 1030.17L812.479 1030.34L812.649 1030.65L812.955 1030.48ZM849.44 1010.25L849.61 1010.56L849.916 1010.39L849.746 1010.08L849.44 1010.25ZM845.349 1002.87L845.655 1002.7L845.486 1002.39L845.179 1002.56L845.349 1002.87ZM808.863 1023.1L808.557 1023.27L808.727 1023.58L809.033 1023.41L808.863 1023.1ZM794.43 997.067L794.261 996.761L793.955 996.931L794.124 997.237L794.43 997.067ZM832.966 975.701L833.136 976.007L833.442 975.837L833.272 975.531L832.966 975.701ZM828.988 968.527L829.294 968.357L829.125 968.051L828.819 968.221L828.988 968.527ZM781.844 994.667L781.674 994.36L781.368 994.53L781.538 994.836L781.844 994.667ZM823.325 1069.48L823.019 1069.65L823.188 1069.96L823.494 1069.79L823.325 1069.48ZM870.469 1043.34L870.639 1043.65L870.945 1043.48L870.775 1043.17L870.469 1043.34ZM866.322 1035.86L827.786 1057.23L828.126 1057.84L866.661 1036.48L866.322 1035.86ZM828.262 1057.37L813.261 1030.31L812.649 1030.65L827.65 1057.71L828.262 1057.37ZM813.124 1030.79L849.61 1010.56L849.271 1009.94L812.785 1030.17L813.124 1030.79ZM849.746 1010.08L845.655 1002.7L845.043 1003.04L849.134 1010.42L849.746 1010.08ZM845.179 1002.56L808.694 1022.79L809.033 1023.41L845.519 1003.18L845.179 1002.56ZM809.17 1022.93L794.737 996.898L794.124 997.237L808.557 1023.27L809.17 1022.93ZM794.6 997.374L833.136 976.007L832.796 975.395L794.261 996.761L794.6 997.374ZM833.272 975.531L829.294 968.357L828.682 968.696L832.66 975.871L833.272 975.531ZM828.819 968.221L781.674 994.36L782.014 994.973L829.158 968.833L828.819 968.221ZM781.538 994.836L823.019 1069.65L823.631 1069.31L782.15 994.497L781.538 994.836ZM823.494 1069.79L870.639 1043.65L870.299 1043.04L823.155 1069.18L823.494 1069.79ZM870.775 1043.17L866.797 1036L866.185 1036.34L870.163 1043.51L870.775 1043.17Z" fill="white"/>
<path d="M957.673 965.289L924.876 994.714L904.216 971.686L935.269 943.826L929.634 937.545L898.582 965.406L878.705 943.25L911.502 913.824L906.024 907.718L865.9 943.717L923.027 1007.39L963.151 971.395L957.673 965.289Z" fill="white"/>
<path d="M957.673 965.289L957.934 965.055L957.7 964.795L957.439 965.028L957.673 965.289ZM924.876 994.714L924.616 994.948L924.849 995.209L925.11 994.975L924.876 994.714ZM904.216 971.686L903.983 971.426L903.722 971.659L903.956 971.92L904.216 971.686ZM935.269 943.826L935.503 944.086L935.763 943.853L935.529 943.592L935.269 943.826ZM929.634 937.545L929.895 937.312L929.661 937.051L929.401 937.285L929.634 937.545ZM898.582 965.406L898.321 965.639L898.555 965.9L898.816 965.666L898.582 965.406ZM878.705 943.25L878.471 942.989L878.21 943.223L878.444 943.483L878.705 943.25ZM911.502 913.824L911.735 914.085L911.996 913.851L911.762 913.59L911.502 913.824ZM906.024 907.718L906.284 907.484L906.051 907.224L905.79 907.458L906.024 907.718ZM865.9 943.717L865.666 943.457L865.406 943.691L865.639 943.951L865.9 943.717ZM923.027 1007.39L922.767 1007.63L923 1007.89L923.261 1007.65L923.027 1007.39ZM963.151 971.395L963.385 971.656L963.645 971.422L963.412 971.161L963.151 971.395ZM957.439 965.028L924.642 994.454L925.11 994.975L957.907 965.55L957.439 965.028ZM925.137 994.481L904.477 971.452L903.956 971.92L924.616 994.948L925.137 994.481ZM904.45 971.947L935.503 944.086L935.035 943.565L903.983 971.426L904.45 971.947ZM935.529 943.592L929.895 937.312L929.374 937.779L935.008 944.06L935.529 943.592ZM929.401 937.285L898.348 965.145L898.816 965.666L929.868 937.806L929.401 937.285ZM898.842 965.172L878.965 943.016L878.444 943.483L898.321 965.639L898.842 965.172ZM878.938 943.51L911.735 914.085L911.268 913.564L878.471 942.989L878.938 943.51ZM911.762 913.59L906.284 907.484L905.763 907.952L911.241 914.058L911.762 913.59ZM905.79 907.458L865.666 943.457L866.134 943.978L906.258 907.979L905.79 907.458ZM865.639 943.951L922.767 1007.63L923.288 1007.16L866.16 943.484L865.639 943.951ZM923.261 1007.65L963.385 971.656L962.917 971.134L922.793 1007.13L923.261 1007.65ZM963.412 971.161L957.934 965.055L957.413 965.523L962.891 971.629L963.412 971.161Z" fill="white"/>
<path d="M995.622 922.778C1006.02 920.648 1015.11 913.866 1022.81 902.951C1033.89 887.249 1033.07 871.75 1021.19 863.371C1013.15 857.696 1004.85 859.296 997.553 864.76C993.971 867.396 989.196 870.91 983.667 875.901C973.148 885.115 966.492 888.45 959.407 883.45C951.364 877.774 950.98 867.75 958.682 856.834C964.223 848.983 971.498 844.364 981.646 841.772L977.624 834.057C967.826 835.748 958.681 842.203 951.789 851.969C940.978 867.289 942.05 883.249 954.114 891.763C962.348 897.574 970.705 896.3 978.442 891.434C982.215 888.933 986.472 885.339 991.596 880.923C1002.39 871.326 1008.3 866.606 1015.9 871.685C1023.89 877.034 1023.89 886.788 1015.92 898.086C1009.29 907.469 1002.27 912.55 991.522 915.581L995.622 922.778Z" fill="white"/>
<path d="M995.622 922.778L995.318 922.951L995.444 923.172L995.693 923.121L995.622 922.778ZM997.553 864.76L997.76 865.041L997.762 865.04L997.553 864.76ZM983.667 875.901L983.897 876.164L983.901 876.161L983.667 875.901ZM981.646 841.772L981.733 842.112L982.161 842.002L981.957 841.611L981.646 841.772ZM977.624 834.057L977.935 833.896L977.817 833.669L977.565 833.713L977.624 834.057ZM978.442 891.434L978.629 891.73L978.636 891.725L978.442 891.434ZM991.596 880.923L991.825 881.188L991.829 881.185L991.596 880.923ZM1015.9 871.685L1016.1 871.394L1016.1 871.393L1015.9 871.685ZM991.522 915.581L991.427 915.244L990.996 915.366L991.218 915.754L991.522 915.581ZM995.693 923.121C1006.2 920.968 1015.36 914.117 1023.1 903.153L1022.52 902.749C1014.86 913.615 1005.84 920.328 995.552 922.435L995.693 923.121ZM1023.1 903.153C1028.67 895.257 1031.27 887.382 1030.96 880.399C1030.65 873.406 1027.42 867.337 1021.4 863.086L1020.99 863.657C1026.84 867.784 1029.96 873.654 1030.26 880.43C1030.56 887.217 1028.03 894.943 1022.52 902.749L1023.1 903.153ZM1021.4 863.086C1017.31 860.203 1013.14 859.158 1009.06 859.54C1004.99 859.921 1001.03 861.721 997.343 864.479L997.762 865.04C1001.38 862.335 1005.22 860.603 1009.13 860.237C1013.03 859.871 1017.03 860.865 1020.99 863.657L1021.4 863.086ZM997.345 864.478C993.763 867.114 988.976 870.638 983.432 875.641L983.901 876.161C989.417 871.183 994.18 867.677 997.76 865.041L997.345 864.478ZM983.436 875.637C978.178 880.244 973.928 883.34 970.133 884.676C968.243 885.341 966.475 885.566 964.755 885.329C963.035 885.091 961.343 884.388 959.608 883.164L959.205 883.736C961.013 885.012 962.809 885.767 964.659 886.022C966.509 886.278 968.391 886.031 970.365 885.336C974.299 883.951 978.637 880.772 983.897 876.164L983.436 875.637ZM959.608 883.164C955.673 880.387 953.625 876.562 953.49 872.096C953.354 867.616 955.145 862.455 958.968 857.036L958.396 856.633C954.518 862.129 952.649 867.438 952.79 872.117C952.932 876.812 955.097 880.837 959.205 883.736L959.608 883.164ZM958.968 857.036C964.454 849.263 971.653 844.686 981.733 842.112L981.56 841.433C971.344 844.042 963.992 848.703 958.396 856.633L958.968 857.036ZM981.957 841.611L977.935 833.896L977.314 834.219L981.336 841.934L981.957 841.611ZM977.565 833.713C967.654 835.423 958.434 841.945 951.503 851.767L952.075 852.171C958.927 842.461 967.998 836.074 977.684 834.402L977.565 833.713ZM951.503 851.767C946.063 859.476 943.593 867.373 944.024 874.44C944.455 881.514 947.793 887.73 953.912 892.049L954.316 891.477C948.371 887.282 945.141 881.261 944.723 874.397C944.304 867.525 946.704 859.782 952.075 852.171L951.503 851.767ZM953.912 892.049C958.089 894.997 962.313 896.156 966.482 895.952C970.644 895.748 974.725 894.185 978.629 891.73L978.256 891.137C974.422 893.549 970.456 895.056 966.447 895.253C962.444 895.449 958.373 894.34 954.316 891.477L953.912 892.049ZM978.636 891.725C982.43 889.21 986.704 885.601 991.825 881.188L991.368 880.658C986.24 885.077 982 888.655 978.249 891.142L978.636 891.725ZM991.829 881.185C997.236 876.375 1001.37 872.836 1005.09 871.118C1006.94 870.263 1008.67 869.868 1010.39 869.985C1012.11 870.102 1013.85 870.732 1015.71 871.976L1016.1 871.393C1014.16 870.097 1012.3 869.413 1010.44 869.287C1008.57 869.16 1006.72 869.592 1004.8 870.482C1000.96 872.254 996.746 875.874 991.364 880.662L991.829 881.185ZM1015.71 871.975C1019.61 874.587 1021.54 878.255 1021.54 882.655C1021.55 887.075 1019.59 892.268 1015.63 897.884L1016.2 898.288C1020.21 892.606 1022.25 887.273 1022.24 882.654C1022.24 878.015 1020.18 874.132 1016.1 871.394L1015.71 871.975ZM1015.63 897.884C1009.05 907.205 1002.09 912.236 991.427 915.244L991.617 915.918C1002.44 912.864 1009.54 907.734 1016.2 898.288L1015.63 897.884ZM991.218 915.754L995.318 922.951L995.927 922.605L991.826 915.408L991.218 915.754Z" fill="white"/>
<defs>
<clipPath id="clip0">
<rect width="817.469" height="817.495" fill="white" transform="translate(191.179 191.188)"/>
</clipPath>
</defs>
</svg>
