<svg width="1200" height="1200" viewBox="0 0 1200 1200" fill="none" xmlns="http://www.w3.org/2000/svg">
<path d="M599.982 1200C578.112 1200 558.773 1188.04 540.048 1176.46C530.098 1170.31 517.706 1162.64 511.07 1161.59C510.197 1161.44 509.252 1161.41 508.29 1161.41C500.808 1161.41 489.646 1164.14 478.858 1166.78C464.774 1170.21 450.227 1173.77 435.823 1173.77C428.046 1173.77 421.124 1172.76 414.63 1170.66C393.803 1163.89 379.069 1146.52 364.842 1129.72C357.279 1120.78 347.854 1109.66 341.859 1106.6C335.864 1103.55 321.344 1102.46 309.665 1101.6C287.724 1099.96 265.044 1098.26 247.344 1085.44C229.617 1072.51 220.994 1051.46 212.655 1031.11C208.219 1020.27 202.696 1006.8 197.948 1002.05C193.218 997.317 179.74 991.803 168.916 987.357C148.543 979.01 127.476 970.387 114.621 952.677C101.731 934.941 100.039 912.242 98.4084 890.292C97.5354 878.622 96.4396 864.119 93.393 858.133C90.3464 852.138 79.238 842.739 70.312 835.167C53.5023 820.941 36.1225 806.233 29.3523 785.396C22.6178 764.559 28.0071 742.467 33.2362 721.096C36.0244 709.729 39.4898 695.564 38.4475 688.919C37.3875 682.309 29.7176 669.935 23.562 659.984C11.9725 641.268 0 621.91 0 600.013C0 578.117 11.9903 558.741 23.5709 540.015C29.7265 530.065 37.3875 517.691 38.4475 511.045C39.4809 504.435 36.0244 490.271 33.2362 478.904C28.0071 457.533 22.6178 435.44 29.3434 414.63C36.1225 393.767 53.5023 379.042 70.312 364.824C79.238 357.261 90.3464 347.853 93.393 341.876C96.4396 335.898 97.5354 321.378 98.4084 309.708C100.039 287.749 101.731 265.05 114.612 247.322C127.476 229.604 148.543 220.98 168.916 212.651C179.74 208.206 193.218 202.683 197.975 197.943C202.696 193.213 208.219 179.735 212.655 168.911C220.994 148.538 229.617 127.478 247.299 114.606C265.044 101.733 287.751 100.023 309.719 98.3746C321.371 97.5104 335.882 96.4151 341.859 93.3684C347.854 90.3217 357.279 79.1951 364.842 70.2689C379.069 53.4767 393.794 36.1143 414.586 29.3617C421.115 27.2416 428.037 26.2168 435.823 26.2168C450.227 26.2168 464.792 29.7894 478.885 33.2192C489.681 35.8649 500.852 38.582 508.335 38.582C509.288 38.582 510.224 38.5553 511.097 38.4128C517.68 37.3616 530.062 29.7001 540.03 23.5444C558.755 11.9724 578.112 -0.000110417 599.982 -0.000110417C621.878 -0.000110417 641.236 11.9724 659.97 23.5444C669.938 29.7001 682.338 37.3614 688.983 38.4215C689.821 38.5551 690.738 38.582 691.692 38.582C699.165 38.582 710.319 35.8647 721.097 33.2278C735.199 29.7892 749.764 26.2168 764.177 26.2168C771.954 26.2168 778.885 27.2415 785.388 29.3439C806.224 36.1232 820.949 53.5036 835.166 70.2958C842.738 79.2131 852.154 90.3307 858.149 93.3862C864.1 96.4151 878.62 97.5104 890.272 98.3746C912.24 100.023 934.947 101.733 952.665 114.579C970.383 127.47 979.015 148.538 987.353 168.911C991.781 179.735 997.304 193.204 1002.07 197.961C1006.8 202.692 1020.28 208.215 1031.1 212.651C1051.47 220.98 1072.52 229.604 1085.38 247.305C1098.26 265.05 1099.95 287.731 1101.6 309.663C1102.46 321.333 1103.56 335.863 1106.62 341.867C1109.67 347.853 1120.77 357.261 1129.7 364.824C1146.51 379.059 1163.89 393.767 1170.66 414.595C1177.39 435.44 1172 457.533 1166.77 478.904C1163.98 490.271 1160.53 504.436 1161.58 511.117C1162.62 517.691 1170.28 530.083 1176.44 540.033C1188.03 558.75 1200 578.117 1200 600.013C1200 621.91 1188.04 641.259 1176.45 659.966C1170.29 669.917 1162.62 682.3 1161.56 688.927C1160.52 695.573 1163.98 709.738 1166.76 721.105C1171.98 742.476 1177.39 764.559 1170.67 785.36C1163.89 806.233 1146.52 820.941 1129.71 835.167C1120.78 842.739 1109.68 852.138 1106.62 858.133C1103.56 864.137 1102.46 878.667 1101.6 890.346C1099.95 912.269 1098.26 934.941 1085.41 952.659C1072.52 970.387 1051.47 979.01 1031.09 987.357C1020.28 991.794 1006.8 997.308 1002.05 1002.07C997.304 1006.8 991.781 1020.28 987.344 1031.11C979.006 1051.47 970.383 1072.52 952.709 1085.39C934.964 1098.26 912.275 1099.96 890.335 1101.6C878.647 1102.46 864.118 1103.56 858.123 1106.6C852.154 1109.64 842.738 1120.76 835.175 1129.7C820.949 1146.51 806.215 1163.89 785.396 1170.65C778.893 1172.76 771.954 1173.78 764.159 1173.78C749.755 1173.78 735.181 1170.22 721.097 1166.78C710.319 1164.14 699.174 1161.42 691.7 1161.42C690.747 1161.42 689.821 1161.45 688.948 1161.59C682.293 1162.64 669.893 1170.31 659.943 1176.46C641.209 1188.04 621.869 1200 599.982 1200Z" fill="#C04A27"/>
<path d="M599.984 29.0854C625.577 29.0854 657.86 62.9107 684.424 67.1421C696.824 69.0931 712.414 65.2891 727.976 61.4853C745.73 57.1469 763.457 52.8086 776.437 57.0133C800.756 64.9239 820.995 107.06 844.923 119.283C868.877 131.469 914.843 123.069 935.599 138.115C956.283 153.161 962.501 199.494 981.493 218.513C1000.48 237.497 1046.82 243.714 1061.88 264.409C1076.91 285.147 1068.5 331.123 1080.72 355.078C1092.93 379.015 1135.08 399.228 1142.99 423.574C1150.86 447.939 1128.68 489.042 1132.85 515.624C1137.06 542.153 1170.93 574.42 1170.93 600.013C1170.93 625.598 1137.06 657.846 1132.85 684.375C1128.66 710.931 1150.86 752.061 1142.99 776.416C1135.08 800.772 1092.93 820.985 1080.72 844.931C1068.5 868.876 1076.91 914.843 1061.88 935.582C1046.82 956.285 1000.48 962.503 981.493 981.496C962.501 1000.5 956.283 1046.83 935.599 1061.88C914.869 1076.91 868.877 1068.49 844.923 1080.69C820.995 1092.89 800.756 1135.09 776.437 1142.99C763.457 1147.2 745.721 1142.86 727.976 1138.51C712.405 1134.71 696.824 1130.91 684.424 1132.87C657.86 1137.05 625.577 1170.91 599.984 1170.91C574.435 1170.91 542.143 1137.07 515.615 1132.87C503.188 1130.9 487.59 1134.7 472 1138.51C454.264 1142.84 436.546 1147.18 423.576 1142.99C399.257 1135.09 379.017 1092.89 355.063 1080.69C331.127 1068.49 285.143 1076.91 264.405 1061.88C243.729 1046.83 237.511 1000.5 218.528 981.496C199.527 962.503 153.186 956.285 138.132 935.582C123.086 914.843 131.504 868.876 119.3 844.931C107.096 820.985 64.9332 800.772 57.0228 776.416C49.1391 752.061 71.3472 710.931 67.1604 684.375C62.9379 657.846 29.0869 625.598 29.0869 600.013C29.0869 574.42 62.9379 542.153 67.1604 515.624C71.3383 489.042 49.1391 447.939 57.0228 423.574C64.9332 399.228 107.096 379.015 119.3 355.078C131.504 331.123 123.086 285.147 138.132 264.409C153.186 243.714 199.527 237.497 218.528 218.513C237.511 199.494 243.729 153.161 264.405 138.115C285.152 123.069 331.127 131.469 355.063 119.283C379.017 107.06 399.257 64.9239 423.576 57.0133C436.537 52.8086 454.273 57.1469 472.027 61.4853C487.608 65.2891 503.197 69.0931 515.615 67.1421C542.143 62.9107 574.435 29.0854 599.984 29.0854Z" fill="#389F4D"/>
<path d="M589.777 82.1345L589.625 74.8656C592.886 74.7943 596.128 74.7586 599.397 74.7586V82.0279C596.182 82.0279 592.983 82.0632 589.777 82.1345V82.1345ZM618.639 82.3663C615.45 82.2416 612.252 82.1616 609.018 82.0992L609.152 74.8386C612.421 74.8831 615.664 74.9725 618.897 75.0883L618.639 82.3663ZM570.553 82.8561L570.152 75.605C573.403 75.409 576.646 75.2665 579.889 75.1418L580.182 82.4107C576.958 82.5354 573.76 82.6779 570.553 82.8561V82.8561ZM637.872 83.4085C634.674 83.168 631.467 82.954 628.269 82.7848L628.652 75.5337C631.903 75.7029 635.155 75.9078 638.406 76.1483L637.872 83.4085ZM551.374 84.2907L550.688 77.057C553.93 76.7452 557.155 76.4691 560.424 76.2375L560.95 83.4886C557.743 83.7202 554.545 83.9967 551.374 84.2907ZM657.024 85.1458C653.853 84.7984 650.664 84.4685 647.457 84.1745L648.116 76.9413C651.359 77.2442 654.583 77.5647 657.826 77.9121L657.024 85.1458ZM532.248 86.4373L531.295 79.2306C534.519 78.8119 537.753 78.4201 540.978 78.0548L541.806 85.2702C538.617 85.6355 535.428 86.0186 532.248 86.4373V86.4373ZM676.123 87.6043C672.952 87.1322 669.772 86.7048 666.592 86.295L667.518 79.0792C670.734 79.4979 673.959 79.952 677.157 80.4063L676.123 87.6043ZM513.211 89.306L512 82.1345C515.198 81.5911 518.413 81.0833 521.629 80.5934L522.716 87.7827C519.545 88.2548 516.373 88.7715 513.211 89.306V89.306ZM695.089 90.7758C691.953 90.1878 688.791 89.6354 685.619 89.1098L686.822 81.9296C690.038 82.473 693.245 83.0346 696.434 83.6404L695.089 90.7758ZM494.299 92.8693L492.829 85.7513C496.009 85.0921 499.199 84.4597 502.379 83.8539L503.742 90.9898C500.606 91.6044 497.435 92.2101 494.299 92.8693ZM713.947 94.6597C710.83 93.9559 707.694 93.2791 704.558 92.6288L706.01 85.5108C709.208 86.1611 712.379 86.8562 715.56 87.56L713.947 94.6597ZM475.529 97.1364L473.792 90.0898C476.946 89.3059 480.099 88.5488 483.279 87.8362L484.883 94.9094C481.774 95.6309 478.638 96.3703 475.529 97.1364V97.1364ZM732.637 99.2387C729.546 98.4102 726.428 97.6174 723.328 96.8602L725.047 89.7958C728.209 90.5797 731.372 91.3725 734.507 92.2099L732.637 99.2387ZM456.938 102.116L454.934 95.1321C458.061 94.2323 461.187 93.3681 464.323 92.5218L466.212 99.5414C463.12 100.37 460.029 101.234 456.938 102.116ZM751.157 104.522C748.084 103.586 744.992 102.686 741.919 101.796L743.897 94.8024C747.05 95.6932 750.168 96.6195 753.268 97.5727L751.157 104.522ZM438.561 107.782L436.289 100.878C439.38 99.8532 442.471 98.8737 445.607 97.9116L447.718 104.86C444.663 105.795 441.607 106.784 438.561 107.782V107.782ZM769.507 110.499C766.479 109.439 763.432 108.414 760.359 107.425L762.604 100.513C765.722 101.528 768.822 102.562 771.913 103.649L769.507 110.499ZM420.388 114.134L417.849 107.318C420.922 106.187 423.978 105.074 427.051 104.005L429.439 110.882C426.419 111.933 423.399 113.02 420.388 114.134ZM787.627 117.18C784.634 116.013 781.631 114.882 778.603 113.777L781.115 106.936C784.188 108.067 787.244 109.234 790.264 110.428L787.627 117.18ZM402.5 121.162L399.73 114.436C402.723 113.198 405.725 111.987 408.736 110.802L411.391 117.581C408.406 118.748 405.458 119.933 402.5 121.162ZM805.47 124.538C802.53 123.256 799.582 122 796.588 120.779L799.35 114.062C802.379 115.301 805.399 116.565 808.401 117.875L805.47 124.538ZM384.934 128.815L381.905 122.213C384.845 120.859 387.82 119.532 390.786 118.249L393.672 124.912C390.76 126.177 387.846 127.487 384.934 128.815V128.815ZM823.037 132.547C820.133 131.157 817.229 129.794 814.316 128.458L817.318 121.848C820.293 123.202 823.242 124.592 826.19 125.999L823.037 132.547ZM367.643 137.135L364.365 130.641C367.26 129.189 370.164 127.755 373.095 126.347L376.257 132.894C373.371 134.293 370.502 135.692 367.643 137.135V137.135ZM840.283 141.206C837.423 139.709 834.573 138.249 831.695 136.796L834.974 130.302C837.878 131.763 840.773 133.251 843.659 134.774L840.283 141.206ZM350.646 146.088L347.145 139.736C349.996 138.168 352.846 136.618 355.715 135.104L359.1 141.536C356.276 143.032 353.452 144.546 350.646 146.088V146.088ZM857.173 150.506C854.393 148.912 851.587 147.317 848.763 145.767L852.273 139.406C855.133 140.983 857.974 142.587 860.789 144.199L857.173 150.506ZM334.015 155.682L330.282 149.455C333.052 147.789 335.859 146.141 338.656 144.529L342.29 150.809C339.538 152.404 336.758 154.034 334.015 155.682V155.682ZM873.715 160.404C870.98 158.702 868.228 157.027 865.466 155.37L869.225 149.143C872.014 150.809 874.793 152.511 877.555 154.23L873.715 160.404ZM317.739 165.882L313.766 159.789C316.483 158.007 319.227 156.243 321.98 154.533L325.828 160.706C323.111 162.399 320.412 164.127 317.739 165.882V165.882ZM889.848 170.924C887.184 169.107 884.512 167.343 881.831 165.588L885.777 159.495C888.512 161.268 891.229 163.076 893.937 164.902L889.848 170.924ZM301.847 176.67L297.651 170.746C300.288 168.858 302.961 167.013 305.66 165.187L309.74 171.209C307.085 172.991 304.466 174.826 301.847 176.67V176.67ZM905.597 182.024C903.005 180.127 900.404 178.238 897.785 176.403L901.963 170.461C904.617 172.341 907.263 174.229 909.891 176.153L905.597 182.024ZM286.347 188.046L281.938 182.273C284.53 180.287 287.131 178.354 289.759 176.43L294.044 182.283C291.46 184.18 288.895 186.104 286.347 188.046V188.046ZM920.902 193.703C918.398 191.699 915.86 189.739 913.312 187.797L917.722 182.006C920.314 183.984 922.879 185.979 925.436 187.993L920.902 193.703ZM271.292 199.983L266.66 194.389C269.163 192.313 271.711 190.273 274.268 188.26L278.757 193.952C276.245 195.948 273.76 197.961 271.292 199.983V199.983ZM935.787 205.916C933.355 203.832 930.897 201.783 928.411 199.743L933.035 194.122C935.547 196.197 938.041 198.282 940.517 200.402L935.787 205.916ZM256.665 212.5L251.846 207.065C254.269 204.901 256.727 202.781 259.204 200.651L263.916 206.192C261.475 208.268 259.07 210.371 256.665 212.5V212.5ZM950.21 218.691C947.84 216.517 945.461 214.37 943.056 212.25L947.867 206.798C950.316 208.954 952.731 211.146 955.127 213.328L950.21 218.691ZM242.501 225.524L237.495 220.268C239.837 218.023 242.216 215.796 244.612 213.595L249.53 218.949C247.178 221.114 244.835 223.305 242.501 225.524V225.524ZM964.133 231.973C961.861 229.728 959.545 227.492 957.238 225.274L962.244 220.009C964.605 222.272 966.939 224.526 969.237 226.806L964.133 231.973ZM228.845 239.073L223.625 233.995C225.896 231.67 228.195 229.354 230.493 227.074L235.615 232.24C233.335 234.494 231.081 236.766 228.845 239.073V239.073ZM977.558 245.754C975.366 243.412 973.139 241.104 970.912 238.815L976.115 233.737C978.395 236.062 980.64 238.423 982.858 240.801L977.558 245.754ZM215.679 253.122L210.289 248.231C212.48 245.835 214.663 243.429 216.899 241.078L222.19 246.04C220.017 248.382 217.834 250.734 215.679 253.122ZM990.465 260.026C988.363 257.611 986.234 255.215 984.078 252.836L989.477 247.955C991.65 250.369 993.815 252.801 995.935 255.251L990.465 260.026ZM203.047 267.633L197.461 262.983C199.564 260.471 201.675 257.994 203.804 255.545L209.291 260.32C207.18 262.725 205.096 265.175 203.047 267.633V267.633ZM1002.84 274.76C1000.81 272.275 998.777 269.789 996.719 267.339L1002.28 262.662C1004.37 265.157 1006.45 267.651 1008.49 270.181L1002.84 274.76ZM190.941 282.617L185.213 278.154C187.208 275.58 189.23 273.023 191.261 270.502L196.918 275.063C194.905 277.548 192.918 280.087 190.941 282.617V282.617ZM1014.65 289.94C1012.72 287.365 1010.77 284.818 1008.81 282.288L1014.54 277.816C1016.55 280.381 1018.51 282.973 1020.46 285.566L1014.65 289.94ZM179.396 298.046L173.507 293.788C175.414 291.152 177.338 288.532 179.28 285.931L185.097 290.269C183.173 292.844 181.284 295.427 179.396 298.046V298.046ZM1025.89 305.503C1024.07 302.866 1022.21 300.247 1020.36 297.663L1026.24 293.414C1028.14 296.051 1030.02 298.697 1031.87 301.378L1025.89 305.503ZM168.439 313.868L162.363 309.859C164.18 307.142 166.007 304.434 167.869 301.761L173.837 305.913C172.011 308.541 170.193 311.213 168.439 313.868V313.868ZM1036.55 321.502C1034.83 318.794 1033.06 316.113 1031.3 313.458L1037.34 309.422C1039.15 312.122 1040.91 314.839 1042.68 317.583L1036.55 321.502ZM158.052 330.125L151.861 326.322C153.562 323.542 155.281 320.772 157.045 318.037L163.156 321.957C161.428 324.656 159.735 327.382 158.052 330.125V330.125ZM1046.61 337.876C1044.97 335.105 1043.34 332.37 1041.66 329.645L1047.83 325.841C1049.54 328.602 1051.23 331.382 1052.87 334.179L1046.61 337.876ZM148.28 346.757L141.946 343.176C143.558 340.352 145.179 337.528 146.818 334.722L153.09 338.392C151.451 341.163 149.856 343.942 148.28 346.757V346.757ZM1056.05 354.588C1054.52 351.773 1052.96 348.976 1051.41 346.187L1057.72 342.615C1059.33 345.43 1060.9 348.272 1062.44 351.14L1056.05 354.588ZM139.14 363.728L132.69 360.396C134.178 357.501 135.701 354.606 137.233 351.746L143.638 355.185C142.115 358.018 140.619 360.877 139.14 363.728V363.728ZM1064.87 371.638C1063.43 368.77 1062 365.919 1060.53 363.077L1066.99 359.746C1068.47 362.623 1069.93 365.518 1071.36 368.422L1064.87 371.638ZM130.65 381.046L124.058 377.955C125.439 375.006 126.847 372.066 128.281 369.144L134.819 372.342C133.403 375.229 132.013 378.124 130.65 381.046V381.046ZM1073.03 389.001C1071.73 386.088 1070.38 383.175 1069.02 380.288L1075.59 377.197C1076.96 380.137 1078.33 383.077 1079.65 386.025L1073.03 389.001ZM122.784 398.666L116.103 395.825C117.359 392.831 118.66 389.838 119.987 386.854L126.633 389.811C125.323 392.751 124.049 395.709 122.784 398.666ZM1080.54 406.657C1079.33 403.682 1078.11 400.733 1076.86 397.785L1083.55 394.952C1084.8 397.936 1086.06 400.92 1087.27 403.913L1080.54 406.657ZM115.587 416.581L108.781 413.998C109.948 410.933 111.15 407.904 112.353 404.893L119.114 407.575C117.903 410.577 116.727 413.579 115.587 416.581V416.581ZM1087.4 424.59C1086.31 421.57 1085.19 418.568 1084.04 415.566L1090.82 412.964C1092 416.011 1093.11 419.058 1094.23 422.104L1087.4 424.59ZM109.066 434.763L102.171 432.429C103.231 429.338 104.309 426.255 105.404 423.2L112.255 425.632C111.168 428.661 110.117 431.699 109.066 434.763V434.763ZM1093.57 442.798C1092.61 439.752 1091.61 436.705 1090.58 433.667L1097.46 431.324C1098.49 434.416 1099.51 437.498 1100.51 440.598L1093.57 442.798ZM103.231 453.168L96.2647 451.11C97.1822 447.974 98.1354 444.838 99.1242 441.729L106.055 443.939C105.075 447.003 104.14 450.077 103.231 453.168ZM1099.08 461.248C1098.23 458.165 1097.34 455.083 1096.42 452.01L1103.39 449.925C1104.31 453.043 1105.21 456.17 1106.08 459.314L1099.08 461.248ZM98.1176 471.733L91.0803 469.915C91.8998 466.762 92.7281 463.626 93.5833 460.499L100.594 462.432C99.7568 465.515 98.9194 468.624 98.1176 471.733V471.733ZM1103.91 479.884C1103.14 476.766 1102.39 473.639 1101.58 470.548L1108.62 468.722C1109.43 471.866 1110.21 475.02 1110.97 478.191L1103.91 479.884ZM93.6992 490.458L86.5995 488.917C87.2765 485.728 87.998 482.565 88.7462 479.385L95.8282 481.078C95.0799 484.196 94.3763 487.322 93.6992 490.458V490.458ZM1107.99 498.672C1107.39 495.536 1106.72 492.4 1106.04 489.264L1113.13 487.705C1113.84 490.886 1114.5 494.075 1115.14 497.273L1107.99 498.672ZM89.9933 509.344L82.8224 508.07C83.4103 504.863 84.0161 501.674 84.6219 498.493L91.7573 499.874C91.1427 503.019 90.5545 506.172 89.9933 509.344V509.344ZM1111.42 517.628C1110.9 514.448 1110.37 511.286 1109.81 508.141L1116.94 506.849C1117.52 510.039 1118.06 513.237 1118.6 516.462L1111.42 517.628ZM86.9825 528.354L79.7846 527.348C80.23 524.123 80.7022 520.907 81.2189 517.691L88.39 518.831C87.909 521.994 87.4279 525.174 86.9825 528.354V528.354ZM1114.11 536.675C1113.73 533.494 1113.31 530.305 1112.85 527.152L1120.05 526.127C1120.52 529.343 1120.93 532.568 1121.33 535.802L1114.11 536.675ZM84.6841 547.454L77.4597 546.741C77.7804 543.498 78.1456 540.265 78.5375 537.031L85.7443 537.904C85.3791 541.075 85.0137 544.265 84.6841 547.454V547.454ZM1116.08 555.828C1115.81 552.63 1115.51 549.431 1115.19 546.242L1122.42 545.503C1122.75 548.728 1123.06 551.97 1123.33 555.204L1116.08 555.828ZM83.1162 566.651L75.8473 566.179C76.07 562.919 76.3016 559.694 76.5689 556.442L83.8111 557.048C83.5528 560.246 83.3122 563.435 83.1162 566.651ZM1117.35 575.025C1117.22 571.827 1117.02 568.611 1116.82 565.422L1124.07 564.932C1124.28 568.183 1124.45 571.435 1124.62 574.687L1117.35 575.025ZM82.2343 585.875L74.9654 585.688C75.0455 582.41 75.1702 579.176 75.3216 575.925L82.5908 576.263C82.4394 579.453 82.3234 582.66 82.2343 585.875ZM1117.92 594.267C1117.89 591.06 1117.83 587.844 1117.73 584.646L1125.01 584.45C1125.09 587.684 1125.17 590.927 1125.2 594.178L1117.92 594.267ZM74.8051 605.189L74.7783 600.013L74.7962 595.47L82.0651 595.479L82.0473 600.013L82.074 605.118L74.8051 605.189ZM1125.05 613.696L1117.78 613.527C1117.85 610.311 1117.91 607.104 1117.94 603.888L1125.21 603.942C1125.18 607.193 1125.13 610.445 1125.05 613.696V613.696ZM75.3483 624.689C75.1969 621.447 75.0723 618.204 74.9832 614.935L82.2611 614.738C82.3413 617.945 82.4661 621.161 82.6175 624.351L75.3483 624.689ZM1124.19 633.197L1116.93 632.725C1117.16 629.544 1117.31 626.337 1117.44 623.13L1124.71 623.451C1124.58 626.72 1124.39 629.963 1124.19 633.197ZM76.6135 644.163C76.3551 640.929 76.1145 637.695 75.8918 634.444L83.1519 633.945C83.3568 637.17 83.5974 640.368 83.8735 643.557L76.6135 644.163ZM1122.62 652.635L1115.38 651.94C1115.71 648.742 1115.97 645.544 1116.25 642.337L1123.49 642.925C1123.23 646.167 1122.92 649.401 1122.62 652.635V652.635ZM78.6089 663.583C78.2169 660.358 77.8426 657.125 77.5219 653.891L84.7376 653.142C85.0761 656.341 85.4235 659.521 85.8154 662.71L78.6089 663.583ZM1120.3 672.028L1113.1 671.031C1113.54 667.859 1113.95 664.679 1114.33 661.489L1121.55 662.345C1121.17 665.588 1120.76 668.803 1120.3 672.028V672.028ZM81.3168 682.914C80.7912 679.698 80.3103 676.474 79.8648 673.258L87.0716 672.242C87.5081 675.422 87.989 678.602 88.4968 681.756L81.3168 682.914ZM1117.28 691.315L1110.13 690.041C1110.67 686.896 1111.22 683.725 1111.71 680.562L1118.88 681.676C1118.38 684.901 1117.85 688.117 1117.28 691.315V691.315ZM84.7287 702.112C84.114 698.931 83.5082 695.742 82.947 692.517L90.1003 691.252C90.6615 694.415 91.2495 697.568 91.8819 700.713L84.7287 702.112ZM1113.54 710.459L1106.44 708.944C1107.1 705.809 1107.76 702.655 1108.36 699.511L1115.5 700.909C1114.87 704.098 1114.22 707.288 1113.54 710.459ZM88.8887 721.193C88.1315 718.022 87.41 714.851 86.7152 711.67L93.8328 710.138C94.5009 713.265 95.2137 716.392 95.9619 719.51L88.8887 721.193ZM1109.08 729.469L1102.04 727.67C1102.83 724.57 1103.6 721.452 1104.32 718.307L1111.41 719.982C1110.65 723.153 1109.89 726.316 1109.08 729.469V729.469ZM93.7438 740.088C92.8797 736.952 92.0512 733.808 91.2317 730.672L98.2779 728.855C99.0708 731.955 99.8992 735.064 100.754 738.155L93.7438 740.088ZM1103.92 748.293L1096.95 746.226C1097.87 743.152 1098.74 740.07 1099.58 736.988L1106.59 738.894C1105.74 742.039 1104.85 745.166 1103.92 748.293ZM99.3114 758.805C98.3315 755.704 97.3782 752.604 96.4428 749.486L103.418 747.393C104.335 750.484 105.28 753.548 106.251 756.604L99.3114 758.805ZM1098.03 766.973L1091.15 764.666C1092.16 761.611 1093.16 758.546 1094.14 755.482L1101.06 757.655C1100.09 760.782 1099.07 763.882 1098.03 766.973V766.973ZM105.556 777.289C104.469 774.225 103.4 771.151 102.358 768.06L109.244 765.744C110.268 768.791 111.328 771.82 112.406 774.831L105.556 777.289ZM1091.44 785.432L1084.63 782.839C1085.78 779.828 1086.88 776.826 1087.97 773.788L1094.82 776.229C1093.72 779.303 1092.6 782.367 1091.44 785.432V785.432ZM112.504 795.498C111.302 792.487 110.126 789.467 108.95 786.456L115.756 783.864C116.896 786.839 118.054 789.823 119.248 792.772L112.504 795.498ZM1084.17 803.596L1077.47 800.772C1078.71 797.814 1079.93 794.83 1081.12 791.846L1087.88 794.536C1086.67 797.574 1085.43 800.593 1084.17 803.596ZM120.112 813.404C118.776 810.437 117.475 807.471 116.219 804.478L122.927 801.654C124.156 804.593 125.439 807.515 126.739 810.428L120.112 813.404ZM1076.22 821.484L1069.63 818.392C1070.99 815.488 1072.32 812.566 1073.64 809.618L1080.28 812.575C1078.95 815.56 1077.6 818.526 1076.22 821.484V821.484ZM128.352 831.007C126.935 828.111 125.528 825.181 124.147 822.25L130.722 819.15C132.085 822.045 133.483 824.931 134.891 827.809L128.352 831.007ZM1067.61 839.033L1061.13 835.719C1062.6 832.86 1064.05 829.982 1065.45 827.096L1071.98 830.294C1070.55 833.225 1069.09 836.138 1067.61 839.033V839.033ZM137.287 848.307C135.737 845.456 134.214 842.588 132.735 839.71L139.184 836.369C140.663 839.22 142.159 842.053 143.656 844.868L137.287 848.307ZM1058.35 856.271L1052 852.707C1053.58 849.91 1055.14 847.095 1056.65 844.262L1063.05 847.701C1061.52 850.578 1059.95 853.429 1058.35 856.271ZM146.818 865.268C145.188 862.48 143.558 859.665 141.964 856.841L148.306 853.278C149.874 856.066 151.46 858.845 153.09 861.598L146.818 865.268ZM1048.48 873.134L1042.26 869.348C1043.93 866.613 1045.6 863.852 1047.23 861.081L1053.49 864.752C1051.83 867.567 1050.17 870.355 1048.48 873.134V873.134ZM157.001 881.882C155.255 879.156 153.526 876.404 151.843 873.642L158.034 869.829C159.709 872.564 161.401 875.281 163.129 877.989L157.001 881.882ZM1037.97 889.615L1031.91 885.597C1033.71 882.916 1035.44 880.217 1037.17 877.508L1043.31 881.428C1041.54 884.181 1039.77 886.898 1037.97 889.615ZM167.779 898.122C165.944 895.45 164.118 892.759 162.31 890.051L168.376 886.025C170.14 888.688 171.939 891.343 173.766 893.971L167.779 898.122ZM1026.87 905.694L1020.96 901.454C1022.83 898.835 1024.68 896.216 1026.51 893.57L1032.49 897.704C1030.65 900.376 1028.78 903.04 1026.87 905.694V905.694ZM179.164 913.926C177.222 911.324 175.307 908.696 173.409 906.077L179.298 901.819C181.168 904.429 183.075 907.004 184.999 909.57L179.164 913.926ZM1015.18 921.346L1009.45 916.883C1011.44 914.353 1013.37 911.797 1015.27 909.231L1021.11 913.569C1019.16 916.188 1017.18 918.781 1015.18 921.346V921.346ZM191.137 929.319C189.088 926.789 187.075 924.241 185.07 921.667L190.825 917.222C192.785 919.761 194.78 922.264 196.784 924.749L191.137 929.319ZM1002.94 936.553L997.351 931.894C999.418 929.426 1001.44 926.941 1003.47 924.446L1009.13 929.007C1007.1 931.537 1005.03 934.05 1002.94 936.553V936.553ZM203.661 944.277C201.532 941.818 199.403 939.35 197.319 936.847L202.904 932.197C204.944 934.655 207.038 937.087 209.14 939.502L203.661 944.277ZM990.136 951.296L984.729 946.414C986.884 944.036 989.013 941.631 991.116 939.207L996.603 943.982C994.456 946.441 992.301 948.882 990.136 951.296V951.296ZM216.721 958.744C214.503 956.383 212.302 953.987 210.12 951.581L215.518 946.7C217.656 949.078 219.848 951.439 222.021 953.782L216.721 958.744ZM976.8 965.541L971.598 960.463C973.834 958.165 976.025 955.857 978.217 953.514L983.526 958.476C981.326 960.846 979.063 963.207 976.8 965.541V965.541ZM230.324 972.748C228.016 970.458 225.736 968.151 223.455 965.817L228.667 960.748C230.903 963.037 233.165 965.327 235.437 967.581L230.324 972.748ZM962.966 979.295L957.924 974.039C960.249 971.803 962.538 969.576 964.819 967.313L969.932 972.48C967.643 974.761 965.3 977.041 962.966 979.295V979.295ZM244.425 986.235C242.029 984.034 239.659 981.798 237.317 979.553L242.332 974.289C244.657 976.516 246.991 978.716 249.351 980.881L244.425 986.235ZM948.642 992.506L943.796 987.099C946.183 984.961 948.562 982.805 950.931 980.623L955.84 985.985C953.461 988.177 951.038 990.35 948.642 992.506V992.506ZM259.034 999.188C256.549 997.067 254.117 994.929 251.667 992.765L256.496 987.33C258.91 989.468 261.324 991.571 263.765 993.655L259.034 999.188ZM933.818 1005.21L929.186 999.606C931.654 997.557 934.104 995.499 936.544 993.415L941.275 998.938C938.807 1001.05 936.313 1003.14 933.818 1005.21V1005.21ZM274.098 1011.6C271.551 1009.58 269.012 1007.53 266.509 1005.47L271.114 999.856C273.59 1001.89 276.085 1003.9 278.615 1005.9L274.098 1011.6ZM918.541 1017.34L914.132 1011.56C916.67 1009.61 919.2 1007.64 921.703 1005.65L926.229 1011.35C923.681 1013.37 921.124 1015.37 918.541 1017.34V1017.34ZM289.616 1023.45C286.997 1021.54 284.387 1019.59 281.795 1017.62L286.204 1011.82C288.761 1013.77 291.327 1015.7 293.928 1017.61L289.616 1023.45ZM902.845 1028.9L898.658 1022.95C901.268 1021.11 903.86 1019.22 906.444 1017.33L910.755 1023.18C908.145 1025.11 905.517 1027.01 902.845 1028.9ZM305.562 1034.74C302.88 1032.91 300.19 1031.04 297.544 1029.16L301.749 1023.24C304.368 1025.08 306.987 1026.92 309.651 1028.72L305.562 1034.74ZM886.739 1039.86L882.757 1033.76C885.447 1032.01 888.111 1030.24 890.748 1028.44L894.854 1034.44C892.155 1036.28 889.456 1038.08 886.739 1039.86V1039.86ZM321.935 1045.4C319.174 1043.68 316.421 1041.92 313.704 1040.16L317.668 1034.05C320.358 1035.8 323.075 1037.54 325.801 1039.25L321.935 1045.4ZM870.25 1050.21L866.5 1043.99C869.252 1042.33 871.969 1040.66 874.686 1038.96L878.552 1045.11C875.8 1046.84 873.038 1048.53 870.25 1050.21V1050.21ZM338.682 1055.48C335.867 1053.84 333.053 1052.19 330.264 1050.52L334.015 1044.29C336.758 1045.94 339.546 1047.57 342.326 1049.19L338.682 1055.48ZM853.396 1059.95L849.877 1053.59C852.665 1052.04 855.462 1050.46 858.233 1048.86L861.876 1055.17C859.052 1056.78 856.246 1058.38 853.396 1059.95V1059.95ZM355.822 1064.92C352.927 1063.39 350.058 1061.85 347.199 1060.27L350.717 1053.91C353.515 1055.47 356.347 1056.99 359.207 1058.49L355.822 1064.92ZM836.185 1069.06L832.898 1062.57C835.767 1061.12 838.599 1059.65 841.441 1058.16L844.808 1064.59C841.949 1066.11 839.071 1067.59 836.185 1069.06V1069.06ZM373.291 1073.71C370.333 1072.31 367.411 1070.86 364.498 1069.39L367.776 1062.91C370.645 1064.35 373.522 1065.78 376.426 1067.17L373.291 1073.71ZM818.663 1077.51L815.625 1070.9C818.52 1069.57 821.415 1068.21 824.302 1066.82L827.455 1073.37C824.542 1074.77 821.603 1076.16 818.663 1077.51ZM391.071 1081.86C388.078 1080.56 385.112 1079.23 382.154 1077.88L385.165 1071.27C388.096 1072.6 391.036 1073.91 393.984 1075.19L391.071 1081.86ZM800.847 1085.3L798.049 1078.6C800.998 1077.36 803.955 1076.1 806.877 1074.83L809.79 1081.48C806.833 1082.79 803.849 1084.06 800.847 1085.3ZM409.164 1089.33C406.126 1088.15 403.097 1086.92 400.086 1085.68L402.857 1078.96C405.823 1080.18 408.816 1081.38 411.818 1082.56L409.164 1089.33ZM782.718 1092.44L780.188 1085.63C783.19 1084.51 786.184 1083.36 789.159 1082.19L791.831 1088.96C788.803 1090.14 785.765 1091.3 782.718 1092.44V1092.44ZM427.532 1096.14C424.45 1095.05 421.377 1093.95 418.321 1092.82L420.825 1086.01C423.853 1087.11 426.873 1088.2 429.92 1089.26L427.532 1096.14ZM764.287 1098.91L762.025 1091.99C765.062 1091 768.1 1089.96 771.129 1088.9L773.534 1095.75C770.479 1096.83 767.387 1097.88 764.287 1098.91V1098.91ZM446.15 1102.23C443.015 1101.26 439.897 1100.28 436.815 1099.26L439.059 1092.35C442.106 1093.35 445.197 1094.34 448.288 1095.28L446.15 1102.23ZM745.651 1104.67L743.647 1097.69C746.729 1096.81 749.785 1095.88 752.84 1094.93L755.014 1101.87C751.887 1102.85 748.769 1103.77 745.651 1104.67V1104.67ZM464.92 1107.6C461.766 1106.76 458.622 1105.9 455.504 1105L457.508 1098.02C460.59 1098.9 463.682 1099.75 466.782 1100.58L464.92 1107.6ZM726.82 1109.75L725.056 1102.68C728.174 1101.91 731.283 1101.1 734.374 1100.27L736.253 1107.29C733.109 1108.12 729.973 1108.95 726.82 1109.75V1109.75ZM483.859 1112.26C480.687 1111.54 477.525 1110.79 474.38 1110.02L476.091 1102.95C479.218 1103.72 482.335 1104.47 485.471 1105.18L483.859 1112.26ZM707.792 1114.1L706.286 1106.99C709.44 1106.33 712.584 1105.63 715.684 1104.93L717.315 1112C714.152 1112.74 710.981 1113.43 707.792 1114.1ZM502.967 1116.23C499.769 1115.62 496.571 1115 493.399 1114.34L494.878 1107.21C498.014 1107.86 501.149 1108.48 504.312 1109.08L502.967 1116.23ZM688.595 1117.75L687.392 1110.57C690.546 1110.03 693.717 1109.46 696.853 1108.87L698.215 1116C695.017 1116.63 691.829 1117.2 688.595 1117.75V1117.75ZM522.235 1119.46C519.001 1118.98 515.777 1118.48 512.579 1117.94L513.79 1110.76C516.952 1111.31 520.115 1111.81 523.286 1112.27L522.235 1119.46ZM669.3 1120.66L668.338 1113.45C671.536 1113.03 674.716 1112.57 677.887 1112.09L678.965 1119.28C675.749 1119.77 672.542 1120.23 669.3 1120.66V1120.66ZM541.575 1121.99C538.341 1121.62 535.107 1121.22 531.891 1120.8L532.836 1113.6C535.989 1114.02 539.187 1114.41 542.385 1114.76L541.575 1121.99ZM649.924 1122.85L649.23 1115.62C652.428 1115.31 655.617 1114.98 658.815 1114.61L659.617 1121.85C656.383 1122.21 653.167 1122.54 649.924 1122.85ZM561.012 1123.78C557.769 1123.55 554.527 1123.28 551.276 1122.97L551.97 1115.74C555.151 1116.03 558.349 1116.3 561.547 1116.53L561.012 1123.78ZM630.442 1124.33L630.05 1117.08C633.239 1116.9 636.455 1116.68 639.644 1116.44L640.188 1123.69C636.954 1123.93 633.703 1124.15 630.442 1124.33ZM580.485 1124.86C577.243 1124.72 573.983 1124.58 570.758 1124.4L571.141 1117.15C574.339 1117.3 577.555 1117.45 580.771 1117.58L580.485 1124.86ZM610.978 1125.1L610.836 1117.83C614.034 1117.76 617.249 1117.67 620.43 1117.54L620.706 1124.81C617.463 1124.94 614.238 1125.04 610.978 1125.1ZM601.206 1125.21H600.003C596.752 1125.21 593.491 1125.18 590.24 1125.13L590.382 1117.86C593.58 1117.92 596.787 1117.94 600.003 1117.94H601.206V1125.21Z" fill="white"/>
<path d="M1102.2 600.013C1102.2 877.339 877.399 1102.19 599.999 1102.19C322.617 1102.19 97.8018 877.339 97.8018 600.013C97.8018 322.66 322.617 97.7776 599.999 97.7776C877.399 97.7776 1102.2 322.66 1102.2 600.013Z" fill="#C04A27"/>
<g clip-path="url(#clip0)">
<path d="M282.432 526.907C276.873 550.819 273.928 575.733 273.928 601.337C273.928 766.877 396.798 903.697 556.308 925.627H646.296C805.807 903.697 928.677 766.877 928.677 601.337C928.677 575.733 925.732 550.819 920.173 526.907H282.432Z" fill="#85FAF4"/>
<path d="M610.949 796.352C605.778 806.05 604.825 817.901 609.36 828.848C613.894 839.795 622.947 847.501 633.462 850.702C632.395 861.641 636.05 872.955 644.429 881.334C652.807 889.713 664.12 893.368 675.06 892.302C678.261 902.816 685.967 911.87 696.913 916.404C707.86 920.939 719.711 919.986 729.409 914.814C736.39 923.303 746.974 928.719 758.823 928.719C770.672 928.719 781.256 923.304 788.237 914.814C797.935 919.986 809.786 920.939 820.733 916.404C831.679 911.869 839.385 902.816 842.586 892.302C853.525 893.368 864.839 889.713 873.217 881.334C881.596 872.955 885.251 861.643 884.185 850.702C894.699 847.501 903.752 839.795 908.286 828.848C912.821 817.901 911.868 806.05 906.697 796.352C915.185 789.371 920.601 778.787 920.601 766.937C920.601 755.088 915.187 744.504 906.697 737.523C911.868 727.824 912.821 715.973 908.286 705.026C903.752 694.079 894.699 686.373 884.185 683.172C885.251 672.233 881.596 660.919 873.217 652.542C864.839 644.163 853.526 640.508 842.586 641.574C839.385 631.058 831.679 622.005 820.733 617.471C809.785 612.936 797.935 613.889 788.237 619.06C781.256 610.571 770.672 605.156 758.823 605.156C746.974 605.156 736.39 610.57 729.409 619.06C719.711 613.889 707.86 612.936 696.913 617.471C685.966 622.005 678.261 631.058 675.06 641.574C664.121 640.508 652.807 644.163 644.429 652.542C636.05 660.92 632.395 672.233 633.462 683.172C622.947 686.373 613.894 694.079 609.36 705.026C604.825 715.973 605.778 727.824 610.949 737.523C602.461 744.504 597.045 755.088 597.045 766.937C597.045 778.787 602.461 789.369 610.949 796.352Z" fill="#60B550"/>
<path d="M754.503 871.811C820.744 868.614 848.953 815.459 811.028 801.475C773.102 787.491 764.351 750.321 788.237 712.596C812.122 674.87 802.076 639.063 788.237 619.059C781.256 610.57 770.672 605.154 758.823 605.154C746.974 605.154 736.39 610.569 729.409 619.059C719.711 613.887 707.86 612.935 696.913 617.469C685.966 622.004 678.261 631.057 675.06 641.573C664.121 640.506 652.807 644.161 644.429 652.54C636.05 660.919 632.395 672.232 633.462 683.171C622.947 686.372 613.894 694.078 609.36 705.025C604.825 715.972 605.778 727.823 610.949 737.522C602.461 744.503 597.045 755.086 597.045 766.936C597.045 778.786 602.459 789.369 610.949 796.351C605.778 806.049 604.825 817.9 609.36 828.847C613.894 839.795 622.947 847.5 633.462 850.701C632.395 861.64 636.05 872.954 644.429 881.333C652.807 889.712 664.12 893.367 675.06 892.3C678.261 902.815 685.967 911.869 696.913 916.403C707.86 920.937 719.711 919.985 729.409 914.813C729.409 914.814 688.262 875.008 754.503 871.811V871.811Z" fill="#389F4D"/>
<path d="M807.694 713.839C757.536 713.839 718.244 634.377 718.244 532.937C718.244 527.64 722.538 523.346 727.835 523.346C733.132 523.346 737.426 527.64 737.426 532.937C737.426 629.675 773.76 694.656 807.694 694.656C841.629 694.656 877.962 629.673 877.962 532.937C877.962 527.64 882.256 523.346 887.553 523.346C892.85 523.346 897.144 527.64 897.144 532.937C897.144 634.376 857.853 713.839 807.694 713.839Z" fill="#A3EA6E"/>
<path d="M601.304 273.955C446.103 273.955 316.131 381.959 282.434 526.907C286.601 546.259 300.221 562.091 318.227 569.339C322.179 596.296 344.288 617.339 371.738 619.672C381.216 639.749 401.639 653.648 425.315 653.648C427.889 653.648 430.421 653.465 432.908 653.146C443.74 667.161 460.703 676.197 479.786 676.197C485.819 676.197 491.64 675.289 497.125 673.612C507.697 683.437 521.855 689.454 537.425 689.454C547.608 689.454 557.191 686.882 565.56 682.354C575.495 689.886 587.875 694.362 601.304 694.362C614.733 694.362 627.113 689.886 637.048 682.354C645.418 686.881 655 689.454 665.183 689.454C680.754 689.454 694.912 683.437 705.484 673.612C710.968 675.288 716.788 676.197 722.823 676.197C741.905 676.197 758.87 667.162 769.7 653.146C772.189 653.465 774.72 653.648 777.294 653.648C800.97 653.648 821.392 639.751 830.871 619.672C858.32 617.339 880.43 596.297 884.381 569.339C902.387 562.092 916.006 546.259 920.175 526.907C886.477 381.959 756.505 273.955 601.304 273.955V273.955Z" fill="#85D249"/>
<path d="M684.427 493.046C703.609 441.025 683.148 394.165 594.101 378.819C519.698 365.998 462.905 330.547 469.5 301.589C376.358 342.609 305.95 425.755 282.434 526.907C286.601 546.259 300.221 562.091 318.227 569.339C322.179 596.296 344.288 617.339 371.738 619.672C381.216 639.749 401.639 653.648 425.315 653.648C427.889 653.648 430.421 653.465 432.908 653.146C443.74 667.161 460.703 676.197 479.786 676.197C485.819 676.197 491.64 675.289 497.125 673.612C507.697 683.437 521.855 689.454 537.425 689.454C547.608 689.454 557.191 686.882 565.56 682.354C575.495 689.886 587.876 694.362 601.304 694.362C614.733 694.362 627.113 689.886 637.048 682.354C645.418 686.881 655 689.454 665.183 689.454C680.754 689.454 694.912 683.437 705.484 673.612C710.968 675.288 716.788 676.197 722.823 676.197C741.905 676.197 758.87 667.162 769.7 653.146C772.189 653.465 774.72 653.648 777.294 653.648C800.97 653.648 821.392 639.751 830.871 619.672C858.32 617.339 880.43 596.297 884.381 569.339C891.237 502.172 665.245 545.068 684.427 493.046V493.046Z" fill="#60B550"/>
<path d="M310.826 648.007C305.655 657.706 304.702 669.557 309.237 680.503C313.771 691.45 322.824 699.157 333.338 702.357C332.272 713.297 335.927 724.61 344.306 732.989C352.684 741.368 363.997 745.023 374.937 743.957C378.138 754.471 385.844 763.525 396.79 768.059C407.737 772.594 419.588 771.641 429.286 766.469C436.267 774.958 446.851 780.374 458.7 780.374C470.549 780.374 481.133 774.96 488.114 766.469C497.812 771.641 509.663 772.594 520.61 768.059C531.557 763.524 539.262 754.471 542.463 743.957C553.402 745.023 564.716 741.368 573.094 732.989C581.473 724.61 585.128 713.298 584.062 702.357C594.576 699.157 603.629 691.45 608.163 680.503C612.698 669.557 611.745 657.706 606.574 648.007C615.062 641.026 620.478 630.442 620.478 618.592C620.478 606.743 615.064 596.159 606.574 589.178C611.745 579.479 612.698 567.628 608.163 556.681C603.629 545.733 594.576 538.028 584.062 534.827C585.128 523.888 581.473 512.574 573.094 504.197C564.716 495.818 553.403 492.163 542.463 493.229C539.262 482.715 531.556 473.661 520.61 469.127C509.663 464.592 497.812 465.545 488.114 470.717C481.133 462.228 470.549 456.812 458.7 456.812C446.851 456.812 436.267 462.226 429.286 470.717C419.588 465.545 407.737 464.592 396.79 469.127C385.844 473.662 378.138 482.715 374.937 493.229C363.998 492.163 352.684 495.818 344.306 504.197C335.927 512.576 332.272 523.888 333.338 534.827C322.824 538.028 313.771 545.734 309.237 556.681C304.702 567.628 305.655 579.479 310.826 589.178C302.338 596.159 296.922 606.743 296.922 618.592C296.922 630.442 302.336 641.024 310.826 648.007V648.007Z" fill="#A3EA6E"/>
<path d="M458.7 687.065C477.226 642.352 446.569 594.943 412.041 587.27C377.514 579.597 357.053 537.395 374.937 493.227C363.998 492.16 352.684 495.815 344.306 504.194C335.927 512.573 332.272 523.885 333.338 534.825C322.824 538.026 313.771 545.732 309.237 556.679C304.702 567.625 305.655 579.476 310.826 589.175C302.338 596.156 296.922 606.74 296.922 618.59C296.922 630.439 302.336 641.023 310.826 648.004C305.655 657.703 304.702 669.554 309.237 680.501C313.771 691.449 322.824 699.154 333.338 702.355C332.272 713.294 335.927 724.608 344.306 732.987C352.684 741.366 363.997 745.02 374.937 743.954C378.138 754.469 385.844 763.523 396.79 768.056C407.738 772.591 419.588 771.638 429.286 766.467C436.267 774.955 446.851 780.371 458.7 780.371C470.549 780.371 481.133 774.957 488.114 766.467C488.114 766.469 440.175 731.778 458.7 687.065V687.065Z" fill="#85D249"/>
<path d="M479.842 878.864C446.729 878.864 416.064 856.006 393.494 814.502C371.928 774.847 360.052 722.333 360.052 666.633C360.052 661.336 364.346 657.042 369.643 657.042C374.94 657.042 379.234 661.336 379.234 666.633C379.234 719.187 390.283 768.446 410.345 805.338C429.402 840.382 454.084 859.681 479.842 859.681C505.599 859.681 530.282 840.382 549.338 805.338C569.4 768.446 580.45 719.187 580.45 666.633C580.45 661.336 584.745 657.042 590.041 657.042C595.338 657.042 599.633 661.336 599.633 666.633C599.633 722.333 587.756 774.848 566.19 814.502C543.619 856.007 512.954 878.864 479.842 878.864Z" fill="#60B550"/>
<path d="M670.204 592.444C670.204 592.444 702.421 606.581 745.716 576.579C748.344 574.758 751.951 575.456 753.648 578.166C755.096 580.477 754.662 583.488 752.619 585.293C740.896 595.646 700.605 626.728 649.195 616.586L670.204 592.444Z" fill="#D85E41"/>
<path d="M594.099 492.065C594.099 492.065 540.306 475.272 519.56 393.479C518.31 388.548 513.201 385.651 508.334 387.129C504.163 388.397 501.512 392.484 502.083 396.805C505.355 421.612 521.344 501.511 594.099 543.297V492.065Z" fill="#D85E41"/>
<path d="M706.682 803.683C706.682 803.683 706.067 764.212 755.948 732.494C758.943 730.59 759.726 726.557 757.683 723.654C755.925 721.153 752.623 720.293 749.87 721.62C734.078 729.237 684.46 757.374 672.609 814.905L706.682 803.683Z" fill="#C04A27"/>
<path d="M513.483 651.883C513.483 651.883 469.955 670.571 411.998 629.672C408.519 627.217 403.685 628.187 401.395 631.778C399.425 634.865 399.967 638.923 402.693 641.37C418.338 655.415 472.207 697.674 541.482 684.581L513.483 651.883Z" fill="#D85E41"/>
<path d="M687.1 777.752C680.704 788.459 675.517 800.792 672.609 814.905L706.681 803.683C706.681 803.683 706.465 789.655 716.856 771.605C706.219 774.711 696.239 776.642 687.1 777.752V777.752Z" fill="#B2381B"/>
<path d="M541.479 684.581L513.482 651.883C513.482 651.883 495.837 659.452 468.062 654.405C475.786 664.928 484.693 675.489 494.932 685.644C509.369 687.674 524.986 687.698 541.479 684.581V684.581Z" fill="#C04A27"/>
<path d="M692.863 616.059C699.58 608.337 705.766 600.577 711.468 592.925C686.496 599.575 670.202 592.445 670.202 592.445L649.195 616.587C664.968 619.697 679.687 618.918 692.863 616.059V616.059Z" fill="#C04A27"/>
<path d="M562.641 520.018C571.727 528.53 582.14 536.43 594.096 543.296V492.065C594.096 492.065 579.809 487.605 563.12 472.086C563.081 485.487 562.945 501.571 562.641 520.018Z" fill="#C04A27"/>
<path d="M809.794 742.565C728.744 808.878 654.773 799.505 633.961 795.063C629.923 743.792 627.056 695.811 625.029 652.558C692.634 604.054 729.623 530.528 740.655 505.864C742.717 501.253 740.671 495.851 736.075 493.755C731.849 491.829 726.858 493.374 724.427 497.33C683.597 563.812 643.712 593.342 623.054 605.214C620.383 531.831 620.182 476.788 620.32 449.513C620.373 438.973 611.844 430.41 601.304 430.41C590.764 430.41 582.236 438.973 582.289 449.513C582.462 484.068 582.095 563.176 576.847 667.696C547.272 656.14 496.501 626.474 456.614 552.25C454.629 548.557 450.156 546.986 446.317 548.671C442.667 550.27 440.736 554.308 441.805 558.147C448.904 583.636 480.226 674.751 574.079 717.385C570.203 780.74 564.536 851.32 556.312 925.625C571.022 927.65 586.038 928.719 601.304 928.719C616.572 928.719 631.587 927.65 646.298 925.627C643.125 896.96 640.323 868.834 637.869 841.478C735.212 835.832 802.118 772.927 820.298 753.824C823.147 750.83 823.123 746.128 820.252 743.155C817.456 740.257 812.91 740.015 809.794 742.565V742.565Z" fill="#D85E41"/>
<path d="M700.635 466.4C678.816 466.4 658.663 453.026 643.887 428.74C630.017 405.943 622.377 375.832 622.377 343.953C622.377 338.656 626.671 334.362 631.968 334.362C637.265 334.362 641.559 338.656 641.559 343.953C641.559 399.929 668.612 447.219 700.635 447.219C718.116 447.219 735.307 432.628 746.618 408.188C748.842 403.382 754.543 401.286 759.351 403.512C764.158 405.738 766.252 411.437 764.027 416.246C749.273 448.118 726.169 466.4 700.635 466.4Z" fill="#A3EA6E"/>
<path d="M820.297 753.824C823.146 750.83 823.122 746.128 820.251 743.155C817.454 740.257 812.908 740.015 809.791 742.566C728.742 808.879 654.77 799.507 633.959 795.064C591.593 779.914 574.075 717.387 574.075 717.387C570.199 780.742 564.533 851.322 556.309 925.628C571.02 927.65 586.036 928.719 601.302 928.719C616.57 928.719 631.584 927.65 646.296 925.627C643.123 896.96 640.321 868.834 637.867 841.478C735.211 835.832 802.117 772.927 820.297 753.824V753.824Z" fill="#C04A27"/>
</g>
<path d="M224.031 470.053C215.335 470.547 210.159 473.604 207.579 479.258C207.533 464.89 200.128 454.77 186.919 450.881C168.371 445.42 154.613 454.808 148.159 476.729L136.162 517.48L238.742 547.681L242.217 535.877L197.532 522.721L205.061 497.146C207.957 487.31 211.694 482.913 221.036 482.304L258.765 479.668L262.405 467.302L224.031 470.053ZM149.474 508.572L157.665 480.749C162.463 464.449 170.798 458.962 183.444 462.685C196.372 466.491 200.52 476.263 195.886 492.002L187.695 519.825L149.474 508.572Z" fill="#A3EA6E"/>
<path d="M224.031 470.053L224.051 470.403L224.056 470.402L224.031 470.053ZM207.579 479.258L207.229 479.259L207.897 479.403L207.579 479.258ZM136.162 517.48L135.826 517.381L135.727 517.717L136.063 517.816L136.162 517.48ZM238.742 547.681L238.644 548.016L238.979 548.115L239.078 547.78L238.742 547.681ZM242.217 535.877L242.553 535.976L242.652 535.64L242.316 535.541L242.217 535.877ZM197.532 522.721L197.196 522.622L197.097 522.958L197.433 523.057L197.532 522.721ZM221.036 482.304L221.058 482.653L221.06 482.653L221.036 482.304ZM258.765 479.668L258.789 480.017L259.032 480.001L259.101 479.767L258.765 479.668ZM262.405 467.302L262.741 467.401L262.884 466.917L262.38 466.953L262.405 467.302ZM149.474 508.572L149.138 508.473L149.039 508.809L149.375 508.908L149.474 508.572ZM187.695 519.825L187.596 520.161L187.932 520.26L188.031 519.924L187.695 519.825ZM224.011 469.704C219.629 469.953 216.104 470.849 213.339 472.416C210.568 473.987 208.58 476.222 207.26 479.113L207.897 479.403C209.158 476.64 211.048 474.52 213.684 473.025C216.327 471.527 219.737 470.648 224.051 470.403L224.011 469.704ZM207.929 479.257C207.905 472.012 206.026 465.815 202.468 460.934C198.909 456.052 193.687 452.509 187.018 450.546L186.821 451.217C193.361 453.143 198.446 456.604 201.902 461.346C205.36 466.089 207.206 472.136 207.229 479.259L207.929 479.257ZM187.018 450.546C177.664 447.792 169.476 448.773 162.809 453.246C156.152 457.712 151.064 465.623 147.823 476.63L148.495 476.828C151.708 465.913 156.725 458.17 163.199 453.827C169.661 449.492 177.626 448.51 186.821 451.217L187.018 450.546ZM147.823 476.63L135.826 517.381L136.498 517.579L148.495 476.828L147.823 476.63ZM136.063 517.816L238.644 548.016L238.841 547.345L136.261 517.144L136.063 517.816ZM239.078 547.78L242.553 535.976L241.882 535.778L238.407 547.582L239.078 547.78ZM242.316 535.541L197.631 522.385L197.433 523.057L242.119 536.213L242.316 535.541ZM197.867 522.82L205.397 497.245L204.725 497.047L197.196 522.622L197.867 522.82ZM205.397 497.245C206.84 492.343 208.477 488.856 210.876 486.515C213.262 484.186 216.442 482.954 221.058 482.653L221.013 481.954C216.288 482.262 212.929 483.533 210.387 486.014C207.857 488.483 206.178 492.113 204.725 497.047L205.397 497.245ZM221.06 482.653L258.789 480.017L258.741 479.319L221.011 481.954L221.06 482.653ZM259.101 479.767L262.741 467.401L262.07 467.204L258.429 479.569L259.101 479.767ZM262.38 466.953L224.006 469.704L224.056 470.402L262.43 467.652L262.38 466.953ZM149.809 508.671L158 480.848L157.329 480.65L149.138 508.473L149.809 508.671ZM158 480.848C160.39 472.729 163.642 467.374 167.81 464.496C171.961 461.63 177.088 461.179 183.346 463.021L183.543 462.349C177.153 460.468 171.79 460.898 167.413 463.92C163.052 466.93 159.738 472.468 157.329 480.65L158 480.848ZM183.346 463.021C189.738 464.903 193.907 468.241 195.929 473.006C197.957 477.786 197.856 484.071 195.551 491.903L196.222 492.101C198.55 484.194 198.692 477.724 196.573 472.732C194.448 467.725 190.078 464.273 183.543 462.349L183.346 463.021ZM195.551 491.903L187.36 519.726L188.031 519.924L196.222 492.101L195.551 491.903ZM187.794 519.489L149.572 508.237L149.375 508.908L187.596 520.161L187.794 519.489Z" fill="#A3EA6E"/>
<path d="M263.175 349.67C252.798 348.19 243.053 352.491 236.385 362.128C225.05 378.511 230.633 398.762 249.906 412.098C269.18 425.434 289.45 423.427 300.952 406.804C307.62 397.167 308.617 386.457 303.167 377.342L314.491 385.177L321.325 375.299L259.168 332.29L252.333 342.168L263.175 349.67ZM283.171 363.506C298.349 374.008 302.355 386.755 293.853 399.042C285.352 411.329 272.085 412.481 256.908 401.979C241.73 391.477 237.65 378.322 246.151 366.035C254.653 353.748 267.752 352.837 283.171 363.506Z" fill="#A3EA6E"/>
<path d="M263.175 349.67L263.125 350.016L263.374 349.382L263.175 349.67ZM303.167 377.342L303.366 377.054L302.867 377.521L303.167 377.342ZM314.491 385.177L314.291 385.465L314.579 385.664L314.778 385.376L314.491 385.177ZM321.325 375.299L321.613 375.498L321.812 375.21L321.524 375.011L321.325 375.299ZM259.168 332.29L259.367 332.003L259.079 331.803L258.88 332.091L259.168 332.29ZM252.333 342.168L252.046 341.969L251.846 342.257L252.134 342.456L252.333 342.168ZM263.224 349.323C252.707 347.824 242.835 352.192 236.098 361.929L236.673 362.327C243.271 352.791 252.89 348.557 263.125 350.016L263.224 349.323ZM236.098 361.929C230.372 370.204 228.914 379.469 231.33 388.348C233.744 397.22 240.017 405.681 249.707 412.386L250.106 411.81C240.522 405.179 234.368 396.847 232.005 388.164C229.645 379.487 231.064 370.435 236.673 362.327L236.098 361.929ZM249.707 412.386C259.396 419.09 269.364 421.957 278.379 421.034C287.401 420.11 295.434 415.394 301.24 407.003L300.664 406.605C294.968 414.837 287.115 419.436 278.308 420.338C269.494 421.24 259.69 418.442 250.106 411.81L249.707 412.386ZM301.24 407.003C307.97 397.275 309.001 386.416 303.468 377.162L302.867 377.521C308.234 386.497 307.269 397.059 300.664 406.605L301.24 407.003ZM302.968 377.63L314.291 385.465L314.69 384.889L303.366 377.054L302.968 377.63ZM314.778 385.376L321.613 375.498L321.037 375.1L314.203 384.978L314.778 385.376ZM321.524 375.011L259.367 332.003L258.969 332.578L321.126 375.587L321.524 375.011ZM258.88 332.091L252.046 341.969L252.621 342.367L259.456 332.49L258.88 332.091ZM252.134 342.456L262.976 349.958L263.374 349.382L252.533 341.88L252.134 342.456ZM282.972 363.794C290.524 369.019 295.252 374.773 297.057 380.706C298.857 386.624 297.765 392.773 293.565 398.843L294.141 399.241C298.443 393.024 299.598 386.655 297.727 380.503C295.86 374.365 290.996 368.495 283.37 363.218L282.972 363.794ZM293.565 398.843C289.364 404.915 284.01 408.206 277.856 408.708C271.687 409.21 264.656 406.915 257.107 401.691L256.708 402.267C264.337 407.545 271.528 409.925 277.912 409.405C284.311 408.884 289.841 405.455 294.141 399.241L293.565 398.843ZM257.107 401.691C249.557 396.468 244.809 390.612 242.985 384.575C241.165 378.553 242.241 372.302 246.439 366.235L245.863 365.836C241.56 372.056 240.425 378.526 242.315 384.778C244.2 391.016 249.08 396.989 256.708 402.267L257.107 401.691ZM246.439 366.235C250.64 360.162 255.95 356.933 262.091 356.511C268.248 356.089 275.299 358.484 282.972 363.794L283.37 363.218C275.624 357.858 268.416 355.375 262.043 355.813C255.654 356.252 250.163 359.621 245.863 365.836L246.439 366.235Z" fill="#A3EA6E"/>
<path d="M299.758 267.048L290.548 256.813L279.659 266.612L288.87 276.847L299.758 267.048ZM310.82 281.53L301.891 289.565L352.452 345.751L361.38 337.716L310.82 281.53Z" fill="#A3EA6E"/>
<path d="M299.758 267.048L299.993 267.308L300.253 267.074L300.019 266.814L299.758 267.048ZM290.548 256.813L290.808 256.579L290.574 256.318L290.314 256.553L290.548 256.813ZM279.659 266.612L279.425 266.351L279.165 266.585L279.399 266.846L279.659 266.612ZM288.87 276.847L288.61 277.081L288.844 277.341L289.104 277.107L288.87 276.847ZM310.82 281.53L311.08 281.296L310.846 281.036L310.586 281.27L310.82 281.53ZM301.891 289.565L301.657 289.305L301.397 289.539L301.631 289.799L301.891 289.565ZM352.452 345.751L352.192 345.985L352.426 346.245L352.686 346.011L352.452 345.751ZM361.38 337.716L361.614 337.976L361.875 337.742L361.641 337.482L361.38 337.716ZM300.019 266.814L290.808 256.579L290.288 257.047L299.498 267.282L300.019 266.814ZM290.314 256.553L279.425 266.351L279.893 266.872L290.782 257.073L290.314 256.553ZM279.399 266.846L288.61 277.081L289.13 276.613L279.919 266.377L279.399 266.846ZM289.104 277.107L299.993 267.308L299.524 266.788L288.636 276.587L289.104 277.107ZM310.586 281.27L301.657 289.305L302.125 289.825L311.054 281.79L310.586 281.27ZM301.631 289.799L352.192 345.985L352.712 345.517L302.151 289.331L301.631 289.799ZM352.686 346.011L361.614 337.976L361.146 337.456L352.218 345.491L352.686 346.011ZM361.641 337.482L311.08 281.296L310.56 281.764L361.12 337.95L361.641 337.482Z" fill="#A3EA6E"/>
<path d="M435.155 233.855C425.604 216.371 412.858 211.984 396.918 220.692C386.634 226.311 380.818 235.831 381.48 246.82L373.85 235.298L363.823 240.776C367.427 246.151 371.312 252.041 375.105 258.983L401.089 306.547L411.63 300.788L390.983 262.994C383.96 250.138 387.693 237.416 399.777 230.815C410.318 225.056 418.293 228.044 424.894 240.128L447.367 281.264L457.908 275.506L435.155 233.855Z" fill="#A3EA6E"/>
<path d="M381.48 246.82L381.188 247.013L381.907 248.1L381.829 246.799L381.48 246.82ZM373.85 235.298L374.142 235.105L373.964 234.837L373.682 234.991L373.85 235.298ZM363.823 240.776L363.655 240.469L363.319 240.652L363.532 240.971L363.823 240.776ZM401.089 306.547L400.781 306.715L400.949 307.022L401.256 306.854L401.089 306.547ZM411.63 300.788L411.798 301.095L412.105 300.928L411.937 300.62L411.63 300.788ZM447.367 281.264L447.06 281.432L447.228 281.739L447.535 281.572L447.367 281.264ZM457.908 275.506L458.076 275.813L458.383 275.645L458.216 275.338L457.908 275.506ZM435.462 233.687C430.664 224.904 425.033 219.354 418.546 217.121C412.051 214.885 404.775 216.001 396.75 220.385L397.086 221C405.001 216.675 412.068 215.631 418.318 217.783C424.577 219.937 430.094 225.321 434.848 234.022L435.462 233.687ZM396.75 220.385C386.363 226.06 380.459 235.699 381.13 246.841L381.829 246.799C381.177 235.963 386.904 226.562 397.086 221L396.75 220.385ZM381.772 246.627L374.142 235.105L373.558 235.491L381.188 247.013L381.772 246.627ZM373.682 234.991L363.655 240.469L363.991 241.083L374.018 235.605L373.682 234.991ZM363.532 240.971C367.136 246.345 371.013 252.223 374.797 259.15L375.412 258.815C371.611 251.858 367.719 245.957 364.114 240.581L363.532 240.971ZM374.797 259.15L400.781 306.715L401.396 306.379L375.412 258.815L374.797 259.15ZM401.256 306.854L411.798 301.095L411.462 300.481L400.921 306.24L401.256 306.854ZM411.937 300.62L391.29 262.826L390.676 263.162L411.323 300.956L411.937 300.62ZM391.29 262.826C387.815 256.465 387.015 250.164 388.552 244.653C390.089 239.143 393.975 234.384 399.945 231.122L399.609 230.508C393.496 233.848 389.472 238.75 387.878 244.465C386.284 250.179 387.128 256.667 390.676 263.162L391.29 262.826ZM399.945 231.122C405.162 228.272 409.682 227.618 413.691 229.108C417.714 230.603 421.304 234.286 424.587 240.295L425.202 239.96C421.883 233.885 418.186 230.032 413.935 228.452C409.671 226.867 404.933 227.599 399.609 230.508L399.945 231.122ZM424.587 240.295L447.06 281.432L447.674 281.097L425.202 239.96L424.587 240.295ZM447.535 281.572L458.076 275.813L457.741 275.198L447.199 280.957L447.535 281.572ZM458.216 275.338L435.462 233.687L434.848 234.022L457.601 275.673L458.216 275.338Z" fill="#A3EA6E"/>
<path d="M595.505 198.587L646.171 199.897L646.444 189.354L595.777 188.043L596.732 151.142L650.327 152.528L650.6 141.985L584.704 140.28L581.939 247.178L594.239 247.496L595.505 198.587Z" fill="#A3EA6E"/>
<path d="M595.505 198.587L595.514 198.237L595.164 198.228L595.155 198.578L595.505 198.587ZM646.171 199.897L646.162 200.247L646.512 200.256L646.521 199.906L646.171 199.897ZM646.444 189.354L646.794 189.363L646.803 189.013L646.453 189.004L646.444 189.354ZM595.777 188.043L595.427 188.034L595.418 188.384L595.768 188.393L595.777 188.043ZM596.732 151.142L596.741 150.792L596.391 150.783L596.382 151.133L596.732 151.142ZM650.327 152.528L650.318 152.878L650.668 152.887L650.677 152.537L650.327 152.528ZM650.6 141.985L650.95 141.994L650.959 141.644L650.609 141.635L650.6 141.985ZM584.704 140.28L584.713 139.93L584.363 139.921L584.354 140.271L584.704 140.28ZM581.939 247.178L581.589 247.169L581.58 247.519L581.93 247.528L581.939 247.178ZM594.239 247.496L594.23 247.846L594.58 247.855L594.589 247.505L594.239 247.496ZM595.496 198.937L646.162 200.247L646.18 199.547L595.514 198.237L595.496 198.937ZM646.521 199.906L646.794 189.363L646.094 189.345L645.821 199.888L646.521 199.906ZM646.453 189.004L595.786 187.693L595.768 188.393L646.435 189.704L646.453 189.004ZM596.127 188.052L597.082 151.151L596.382 151.133L595.427 188.034L596.127 188.052ZM596.723 151.492L650.318 152.878L650.336 152.178L596.741 150.792L596.723 151.492ZM650.677 152.537L650.95 141.994L650.25 141.976L649.977 152.519L650.677 152.537ZM650.609 141.635L584.713 139.93L584.695 140.63L650.591 142.335L650.609 141.635ZM584.354 140.271L581.589 247.169L582.289 247.187L585.054 140.289L584.354 140.271ZM581.93 247.528L594.23 247.846L594.248 247.146L581.948 246.828L581.93 247.528ZM594.589 247.505L595.854 198.596L595.155 198.578L593.89 247.487L594.589 247.505Z" fill="#A3EA6E"/>
<path d="M702.438 220.83C694.802 243.299 703.121 262.525 723.37 269.407C743.897 276.382 762.208 266.206 769.843 243.737C777.478 221.269 769.16 202.042 748.633 195.066C728.384 188.185 710.073 198.362 702.438 220.83ZM758.193 239.778C752.066 257.808 741.094 264.6 726.67 259.698C712.523 254.89 707.961 242.82 714.088 224.789C720.027 207.314 731.464 200.062 745.334 204.775C759.203 209.488 764.131 222.302 758.193 239.778Z" fill="#A3EA6E"/>
<path d="M702.106 220.718C698.267 232.016 698.428 242.532 702.126 251.102C705.825 259.677 713.048 266.269 723.258 269.738L723.483 269.075C713.443 265.663 706.382 259.201 702.769 250.825C699.153 242.445 698.973 232.113 702.769 220.943L702.106 220.718ZM723.258 269.738C733.604 273.254 743.417 272.453 751.61 267.92C759.8 263.388 766.335 255.149 770.174 243.85L769.512 243.624C765.716 254.794 759.278 262.877 751.272 267.307C743.269 271.735 733.663 272.535 723.483 269.075L723.258 269.738ZM770.174 243.85C774.014 232.551 773.852 222.035 770.12 213.452C766.385 204.865 759.092 198.251 748.746 194.735L748.52 195.398C758.7 198.857 765.83 205.344 769.478 213.731C773.127 222.123 773.307 232.455 769.512 243.624L770.174 243.85ZM748.746 194.735C738.536 191.265 728.792 192.091 720.635 196.636C712.481 201.179 705.946 209.419 702.106 220.718L702.769 220.943C706.565 209.773 713.003 201.69 720.975 197.248C728.944 192.808 738.48 191.986 748.52 195.398L748.746 194.735ZM757.861 239.665C754.812 248.64 750.574 254.761 745.356 258.041C740.152 261.313 733.917 261.791 726.782 259.367L726.557 260.029C733.846 262.507 740.309 262.041 745.729 258.634C751.135 255.236 755.447 248.946 758.524 239.89L757.861 239.665ZM726.782 259.367C719.788 256.99 715.204 252.836 713.105 247.082C711 241.313 711.37 233.877 714.419 224.902L713.757 224.677C710.679 233.733 710.267 241.346 712.447 247.322C714.634 253.313 719.404 257.599 726.557 260.029L726.782 259.367ZM714.419 224.902C717.373 216.21 721.679 210.108 726.925 206.756C732.159 203.413 738.373 202.779 745.221 205.106L745.446 204.444C738.425 202.057 731.985 202.693 726.548 206.166C721.123 209.632 716.741 215.894 713.757 224.677L714.419 224.902ZM745.221 205.106C752.07 207.434 756.681 211.747 758.863 217.613C761.05 223.49 760.814 230.975 757.861 239.665L758.524 239.89C761.51 231.105 761.78 223.445 759.519 217.369C757.254 211.28 752.467 206.829 745.446 204.444L745.221 205.106Z" fill="#A3EA6E"/>
<path d="M871.481 260.991C870.11 259.356 868.333 257.8 866.392 256.487C857.414 250.413 846.773 249.934 837.873 256.292L844.782 243.988L835.319 237.586C832.192 243.252 828.738 249.404 824.305 255.956L793.934 300.846L803.883 307.577L828.015 271.908C831.627 266.569 836.445 263.108 841.576 261.274C847.358 259.526 853.039 260.54 859.105 264.644C861.531 266.286 863.629 268.413 865 270.047L871.481 260.991Z" fill="#A3EA6E"/>
<path d="M871.481 260.991L871.765 261.195L871.923 260.974L871.749 260.766L871.481 260.991ZM837.873 256.292L837.567 256.121L838.076 256.577L837.873 256.292ZM844.782 243.988L845.087 244.16L845.245 243.879L844.978 243.698L844.782 243.988ZM835.319 237.586L835.515 237.296L835.197 237.081L835.012 237.416L835.319 237.586ZM793.934 300.846L793.644 300.65L793.448 300.94L793.738 301.136L793.934 300.846ZM803.883 307.577L803.687 307.867L803.977 308.063L804.173 307.774L803.883 307.577ZM841.576 261.274L841.475 260.939L841.467 260.942L841.459 260.945L841.576 261.274ZM865 270.047L864.731 270.272L865.021 270.618L865.284 270.251L865 270.047ZM871.749 260.766C870.355 259.103 868.552 257.526 866.588 256.197L866.196 256.777C868.115 258.075 869.866 259.61 871.212 261.216L871.749 260.766ZM866.588 256.197C857.504 250.05 846.702 249.554 837.669 256.007L838.076 256.577C846.844 250.313 857.325 250.775 866.196 256.777L866.588 256.197ZM838.178 256.464L845.087 244.16L844.477 243.817L837.567 256.121L838.178 256.464ZM844.978 243.698L835.515 237.296L835.123 237.875L844.586 244.278L844.978 243.698ZM835.012 237.416C831.887 243.082 828.438 249.222 824.015 255.76L824.595 256.152C829.037 249.586 832.498 243.423 835.625 237.755L835.012 237.416ZM824.015 255.76L793.644 300.65L794.224 301.042L824.595 256.152L824.015 255.76ZM793.738 301.136L803.687 307.867L804.079 307.287L794.13 300.556L793.738 301.136ZM804.173 307.774L828.305 272.104L827.725 271.711L803.593 307.381L804.173 307.774ZM828.305 272.104C831.874 266.829 836.63 263.414 841.694 261.604L841.459 260.945C836.259 262.803 831.38 266.309 827.725 271.711L828.305 272.104ZM841.678 261.609C847.341 259.897 852.914 260.878 858.909 264.934L859.301 264.354C853.163 260.202 847.374 259.155 841.475 260.939L841.678 261.609ZM858.909 264.934C861.3 266.552 863.375 268.654 864.731 270.272L865.268 269.823C863.884 268.172 861.762 266.02 859.301 264.354L858.909 264.934ZM865.284 270.251L871.765 261.195L871.196 260.787L864.715 269.844L865.284 270.251Z" fill="#A3EA6E"/>
<path d="M935.733 376.113C952.953 361.09 955.653 342.794 942.557 327.782C928.883 312.107 907.111 311.662 889.671 326.877C871.348 342.862 869.333 363.282 884.933 381.164C891.866 389.112 902.275 394.805 911.341 395.838L915.268 386.969C906.038 385.302 898.437 381.046 892.66 374.423C881.682 361.839 883.41 348.668 897.76 336.149L933.967 377.654L935.733 376.113ZM903.913 331.17C915.83 323.884 926.99 324.645 935.272 334.138C943.553 343.631 942.849 353.965 932.802 364.285L903.913 331.17Z" fill="#A3EA6E"/>
<path d="M911.341 395.838L911.301 396.186L911.557 396.215L911.661 395.979L911.341 395.838ZM915.268 386.969L915.588 387.111L915.768 386.704L915.33 386.625L915.268 386.969ZM897.76 336.149L898.024 335.919L897.794 335.655L897.53 335.885L897.76 336.149ZM933.967 377.654L933.703 377.884L933.933 378.148L934.197 377.918L933.967 377.654ZM903.913 331.17L903.731 330.871L903.377 331.087L903.649 331.4L903.913 331.17ZM932.802 364.285L932.538 364.515L932.788 364.801L933.053 364.529L932.802 364.285ZM935.963 376.377C944.617 368.827 949.655 360.427 950.86 351.993C952.067 343.551 949.427 335.124 942.821 327.552L942.293 328.012C948.784 335.452 951.341 343.68 950.167 351.894C948.992 360.117 944.069 368.376 935.503 375.849L935.963 376.377ZM942.821 327.552C935.921 319.643 926.967 315.566 917.533 315.396C908.102 315.225 898.217 318.957 889.441 326.613L889.901 327.141C898.566 319.581 908.287 315.929 917.52 316.096C926.75 316.263 935.519 320.247 942.293 328.012L942.821 327.552ZM889.441 326.613C880.229 334.65 875.086 343.828 874.232 353.278C873.378 362.73 876.82 372.396 884.669 381.394L885.197 380.934C877.446 372.049 874.095 362.565 874.929 353.341C875.763 344.113 880.789 335.09 889.901 327.141L889.441 326.613ZM884.669 381.394C891.652 389.399 902.138 395.141 911.301 396.186L911.381 395.49C902.412 394.468 892.08 388.824 885.197 380.934L884.669 381.394ZM911.661 395.979L915.588 387.111L914.948 386.827L911.021 395.696L911.661 395.979ZM915.33 386.625C906.174 384.971 898.646 380.753 892.923 374.193L892.396 374.653C898.229 381.339 905.901 385.633 915.205 387.314L915.33 386.625ZM892.923 374.193C887.481 367.955 885.222 361.613 886.059 355.308C886.897 348.992 890.851 342.641 897.99 336.413L897.53 335.885C890.319 342.176 886.234 348.67 885.365 355.216C884.495 361.772 886.86 368.308 892.396 374.653L892.923 374.193ZM897.496 336.379L933.703 377.884L934.231 377.424L898.024 335.919L897.496 336.379ZM934.197 377.918L935.963 376.377L935.503 375.849L933.737 377.39L934.197 377.918ZM904.096 331.468C910.01 327.852 915.705 326.253 920.925 326.71C926.138 327.167 930.919 329.68 935.008 334.368L935.536 333.908C931.344 329.102 926.403 326.488 920.986 326.013C915.577 325.539 909.733 327.201 903.731 330.871L904.096 331.468ZM935.008 334.368C939.103 339.062 940.949 343.929 940.561 348.874C940.173 353.826 937.54 358.917 932.551 364.041L933.053 364.529C938.111 359.333 940.854 354.097 941.259 348.929C941.665 343.753 939.722 338.707 935.536 333.908L935.008 334.368ZM933.066 364.055L904.177 330.94L903.649 331.4L932.538 364.515L933.066 364.055Z" fill="#A3EA6E"/>
<path d="M930.863 428.439C928.246 437.838 929.414 448.336 935.022 459.943C942.925 476.298 955.545 482.89 967.416 477.154C976.912 472.565 979.784 463.694 976.832 449.502L974.253 436.757C972.266 428.606 973.902 423.911 979.442 421.235C986.037 418.048 992.67 421.676 997.386 431.436C1000.83 438.558 1001.5 446.692 999.287 455.572L1008.98 455.441C1011.98 446.833 1010.94 436.599 1006.35 427.102C998.707 411.275 985.295 405.066 973.425 410.802C964.456 415.135 960.92 424.653 963.763 437.27L966.733 450.152C968.574 459.349 967.329 464.18 962.054 466.73C955.459 469.916 949.089 466.161 944.246 456.137C939.658 446.641 938.327 438.498 940.561 428.308L930.863 428.439Z" fill="#A3EA6E"/>
<path d="M930.863 428.439L930.858 428.089L930.596 428.093L930.526 428.345L930.863 428.439ZM976.832 449.502L976.488 449.572L976.489 449.574L976.832 449.502ZM974.253 436.757L974.596 436.688L974.593 436.674L974.253 436.757ZM999.287 455.572L998.947 455.487L998.837 455.928L999.291 455.922L999.287 455.572ZM1008.98 455.441L1008.99 455.791L1009.23 455.788L1009.32 455.556L1008.98 455.441ZM963.763 437.27L963.422 437.347L963.422 437.349L963.763 437.27ZM966.733 450.152L967.077 450.083L967.074 450.073L966.733 450.152ZM940.561 428.308L940.903 428.383L940.997 427.952L940.556 427.958L940.561 428.308ZM930.526 428.345C927.881 437.843 929.07 448.429 934.707 460.095L935.337 459.791C929.758 448.243 928.611 437.833 931.2 428.533L930.526 428.345ZM934.707 460.095C938.68 468.318 943.856 474.122 949.567 477.142C955.291 480.168 961.531 480.386 967.568 477.469L967.264 476.839C961.431 479.657 955.425 479.447 949.895 476.523C944.353 473.593 939.267 467.924 935.337 459.791L934.707 460.095ZM967.568 477.469C972.392 475.138 975.555 471.705 977.124 467.041C978.688 462.392 978.657 456.557 977.174 449.431L976.489 449.574C977.959 456.639 977.968 462.335 976.46 466.818C974.957 471.284 971.936 474.581 967.264 476.839L967.568 477.469ZM977.175 449.433L974.596 436.688L973.909 436.827L976.488 449.572L977.175 449.433ZM974.593 436.674C973.607 432.628 973.534 429.492 974.357 427.055C975.174 424.635 976.89 422.856 979.594 421.55L979.29 420.919C976.454 422.29 974.583 424.197 973.694 426.831C972.81 429.449 972.912 432.736 973.912 436.84L974.593 436.674ZM979.594 421.55C982.79 420.005 985.976 420.114 988.947 421.785C991.934 423.466 994.73 426.744 997.071 431.588L997.701 431.284C995.326 426.367 992.447 422.952 989.29 421.175C986.116 419.389 982.688 419.277 979.29 420.919L979.594 421.55ZM997.071 431.588C1000.47 438.627 1001.15 446.675 998.947 455.487L999.626 455.656C1001.86 446.708 1001.18 438.49 997.701 431.284L997.071 431.588ZM999.291 455.922L1008.99 455.791L1008.98 455.091L999.282 455.222L999.291 455.922ZM1009.32 455.556C1012.35 446.844 1011.29 436.512 1006.67 426.95L1006.04 427.255C1010.6 436.685 1011.62 446.823 1008.65 455.326L1009.32 455.556ZM1006.67 426.95C1002.82 418.983 997.506 413.407 991.626 410.551C985.74 407.692 979.307 407.571 973.273 410.486L973.577 411.117C979.413 408.297 985.621 408.412 991.321 411.181C997.027 413.952 1002.24 419.394 1006.04 427.255L1006.67 426.95ZM973.273 410.486C968.708 412.692 965.518 416.224 963.836 420.809C962.157 425.387 961.99 430.992 963.422 437.347L964.105 437.193C962.694 430.931 962.873 425.469 964.493 421.05C966.111 416.638 969.173 413.245 973.577 411.117L973.273 410.486ZM963.422 437.349L966.392 450.23L967.074 450.073L964.104 437.192L963.422 437.349ZM966.39 450.221C967.307 454.803 967.443 458.244 966.725 460.84C966.014 463.41 964.458 465.179 961.901 466.414L962.206 467.045C964.925 465.731 966.629 463.81 967.4 461.027C968.162 458.271 968 454.698 967.077 450.083L966.39 450.221ZM961.901 466.414C958.707 467.958 955.591 467.819 952.672 466.086C949.733 464.342 946.968 460.966 944.561 455.985L943.931 456.289C946.368 461.332 949.209 464.846 952.314 466.688C955.44 468.543 958.805 468.688 962.206 467.045L961.901 466.414ZM944.561 455.985C940.002 446.549 938.687 438.487 940.903 428.383L940.219 428.233C937.966 438.51 939.313 446.732 943.931 456.289L944.561 455.985ZM940.556 427.958L930.858 428.089L930.868 428.789L940.566 428.658L940.556 427.958Z" fill="#A3EA6E"/>
<path d="M1041.89 546.077L1037.21 524.907L1060.1 519.853L1053.5 509.008L1034.62 513.178L1031.46 498.874L1022.02 500.959L1025.18 515.263L983.128 524.55C967.966 527.899 961.502 538.027 964.597 552.045C965.418 555.764 966.749 559.07 968.588 561.964L978.601 559.753C977.174 557.368 976.033 554.92 975.401 552.059C973.632 544.049 976.563 538.301 987.434 535.9L1027.77 526.992L1032.45 548.162L1041.89 546.077Z" fill="#A3EA6E"/>
<path d="M1041.89 546.077L1041.96 546.419L1042.3 546.343L1042.23 546.001L1041.89 546.077ZM1037.21 524.907L1037.14 524.566L1036.79 524.641L1036.87 524.983L1037.21 524.907ZM1060.1 519.853L1060.17 520.195L1060.65 520.089L1060.4 519.671L1060.1 519.853ZM1053.5 509.008L1053.8 508.827L1053.67 508.613L1053.43 508.667L1053.5 509.008ZM1034.62 513.178L1034.28 513.254L1034.36 513.595L1034.7 513.52L1034.62 513.178ZM1031.46 498.874L1031.8 498.799L1031.73 498.457L1031.39 498.533L1031.46 498.874ZM1022.02 500.959L1021.95 500.617L1021.6 500.693L1021.68 501.035L1022.02 500.959ZM1025.18 515.263L1025.26 515.605L1025.6 515.529L1025.52 515.188L1025.18 515.263ZM968.588 561.964L968.292 562.152L968.424 562.359L968.663 562.306L968.588 561.964ZM978.601 559.753L978.676 560.095L979.15 559.99L978.901 559.573L978.601 559.753ZM1027.77 526.992L1028.11 526.917L1028.04 526.575L1027.7 526.65L1027.77 526.992ZM1032.45 548.162L1032.1 548.237L1032.18 548.579L1032.52 548.504L1032.45 548.162ZM1042.23 546.001L1037.55 524.832L1036.87 524.983L1041.54 546.152L1042.23 546.001ZM1037.29 525.249L1060.17 520.195L1060.02 519.511L1037.14 524.566L1037.29 525.249ZM1060.4 519.671L1053.8 508.827L1053.2 509.19L1059.8 520.035L1060.4 519.671ZM1053.43 508.667L1034.55 512.836L1034.7 513.52L1053.58 509.35L1053.43 508.667ZM1034.96 513.103L1031.8 498.799L1031.12 498.95L1034.28 513.254L1034.96 513.103ZM1031.39 498.533L1021.95 500.617L1022.1 501.301L1031.54 499.216L1031.39 498.533ZM1021.68 501.035L1024.84 515.339L1025.52 515.188L1022.36 500.884L1021.68 501.035ZM1025.11 514.921L983.052 524.208L983.203 524.892L1025.26 515.605L1025.11 514.921ZM983.052 524.208C975.411 525.896 969.913 529.303 966.724 534.103C963.535 538.904 962.693 545.044 964.255 552.12L964.939 551.969C963.406 545.028 964.248 539.094 967.307 534.49C970.368 529.884 975.683 526.553 983.203 524.892L983.052 524.208ZM964.255 552.12C965.084 555.875 966.429 559.22 968.292 562.152L968.883 561.777C967.068 558.92 965.752 555.653 964.939 551.969L964.255 552.12ZM968.663 562.306L978.676 560.095L978.525 559.411L968.512 561.623L968.663 562.306ZM978.901 559.573C977.487 557.209 976.364 554.796 975.743 551.983L975.059 552.134C975.702 555.043 976.861 557.527 978.3 559.933L978.901 559.573ZM975.743 551.983C974.87 548.031 975.171 544.703 976.967 542.073C978.767 539.439 982.118 537.433 987.51 536.242L987.359 535.558C981.88 536.768 978.33 538.837 976.389 541.679C974.444 544.526 974.163 548.076 975.059 552.134L975.743 551.983ZM987.51 536.242L1027.85 527.334L1027.7 526.65L987.359 535.558L987.51 536.242ZM1027.43 527.068L1032.1 548.237L1032.79 548.086L1028.11 526.917L1027.43 527.068ZM1032.52 548.504L1041.96 546.419L1041.81 545.735L1032.37 547.82L1032.52 548.504Z" fill="#A3EA6E"/>
<path d="M210.536 849.011L248.771 821.893L266.228 846.506C278.939 864.429 295.885 868.572 311.179 857.725C326.234 847.047 328.096 829.922 315.215 811.761L290.64 777.111L203.418 838.975L210.536 849.011ZM289.394 793.079L306.343 816.976C315.495 829.88 314.336 840.4 304.061 847.688C293.546 855.146 283.235 852.762 274.083 839.857L257.134 815.961L289.394 793.079Z" fill="#A3EA6E"/>
<path d="M210.536 849.011L210.251 849.214L210.453 849.499L210.739 849.297L210.536 849.011ZM248.771 821.893L249.056 821.69L248.854 821.405L248.568 821.607L248.771 821.893ZM290.64 777.111L290.925 776.908L290.723 776.623L290.437 776.825L290.64 777.111ZM203.418 838.975L203.215 838.689L202.93 838.892L203.132 839.177L203.418 838.975ZM289.394 793.079L289.68 792.877L289.477 792.591L289.192 792.794L289.394 793.079ZM257.134 815.961L256.932 815.675L256.646 815.878L256.849 816.163L257.134 815.961ZM210.739 849.297L248.973 822.178L248.568 821.607L210.334 848.726L210.739 849.297ZM248.485 822.095L265.942 846.709L266.513 846.304L249.056 821.69L248.485 822.095ZM265.942 846.709C272.331 855.717 279.81 861.298 287.651 863.244C295.5 865.192 303.663 863.485 311.382 858.01L310.977 857.439C303.401 862.813 295.444 864.457 287.819 862.565C280.186 860.67 272.836 855.218 266.513 846.304L265.942 846.709ZM311.382 858.01C318.98 852.621 323.273 845.584 324.021 837.582C324.769 829.589 321.974 820.685 315.501 811.558L314.93 811.963C321.337 820.998 324.052 829.738 323.324 837.517C322.598 845.287 318.433 852.151 310.977 857.439L311.382 858.01ZM315.501 811.558L290.925 776.908L290.354 777.313L314.93 811.963L315.501 811.558ZM290.437 776.825L203.215 838.689L203.62 839.26L290.842 777.396L290.437 776.825ZM203.132 839.177L210.251 849.214L210.822 848.809L203.703 838.772L203.132 839.177ZM289.109 793.282L306.057 817.179L306.628 816.774L289.68 792.877L289.109 793.282ZM306.057 817.179C310.608 823.594 312.559 829.368 312.138 834.409C311.719 839.437 308.933 843.803 303.858 847.403L304.263 847.974C309.463 844.285 312.395 839.748 312.836 834.467C313.276 829.2 311.23 823.262 306.628 816.774L306.057 817.179ZM303.858 847.403C298.662 851.089 293.559 852.315 288.647 851.069C283.722 849.821 278.918 846.07 274.368 839.655L273.797 840.06C278.399 846.549 283.327 850.443 288.475 851.748C293.635 853.056 298.945 851.746 304.263 847.974L303.858 847.403ZM274.368 839.655L257.42 815.758L256.849 816.163L273.797 840.06L274.368 839.655ZM257.337 816.246L289.597 793.365L289.192 792.794L256.932 815.675L257.337 816.246Z" fill="#A3EA6E"/>
<path d="M367.684 908.782C366.517 906.997 364.937 905.241 363.165 903.707C354.97 896.611 344.461 894.875 334.87 900.134L343.188 888.736L334.55 881.257C330.775 886.513 326.615 892.212 321.438 898.193L285.962 939.168L295.043 947.031L323.232 914.472C327.451 909.599 332.644 906.733 337.957 905.52C343.905 904.469 349.426 906.149 354.963 910.943C357.178 912.861 359.009 915.221 360.176 917.007L367.684 908.782Z" fill="#A3EA6E"/>
<path d="M367.684 908.782L367.943 909.018L368.126 908.817L367.977 908.59L367.684 908.782ZM334.87 900.134L334.587 899.928L335.038 900.441L334.87 900.134ZM343.188 888.736L343.471 888.942L343.661 888.682L343.418 888.471L343.188 888.736ZM334.55 881.257L334.78 880.992L334.49 880.741L334.266 881.052L334.55 881.257ZM285.962 939.168L285.697 938.939L285.468 939.204L285.733 939.433L285.962 939.168ZM295.043 947.031L294.814 947.295L295.078 947.525L295.308 947.26L295.043 947.031ZM337.957 905.52L337.896 905.175L337.888 905.177L337.879 905.179L337.957 905.52ZM360.176 917.007L359.883 917.198L360.13 917.576L360.434 917.243L360.176 917.007ZM367.977 908.59C366.79 906.774 365.187 904.994 363.394 903.442L362.936 903.971C364.688 905.488 366.245 907.219 367.391 908.973L367.977 908.59ZM363.394 903.442C355.102 896.262 344.435 894.49 334.702 899.827L335.038 900.441C344.486 895.26 354.839 896.96 362.936 903.971L363.394 903.442ZM335.153 900.341L343.471 888.942L342.906 888.529L334.587 899.928L335.153 900.341ZM343.418 888.471L334.78 880.992L334.321 881.521L342.959 889L343.418 888.471ZM334.266 881.052C330.491 886.308 326.34 891.996 321.173 897.964L321.702 898.422C326.891 892.429 331.058 886.718 334.835 881.461L334.266 881.052ZM321.173 897.964L285.697 938.939L286.227 939.398L321.702 898.422L321.173 897.964ZM285.733 939.433L294.814 947.295L295.272 946.766L286.191 938.904L285.733 939.433ZM295.308 947.26L323.496 914.701L322.967 914.243L294.778 946.802L295.308 947.26ZM323.496 914.701C327.665 909.886 332.792 907.058 338.035 905.861L337.879 905.179C332.497 906.408 327.236 909.312 322.967 914.243L323.496 914.701ZM338.018 905.865C343.844 904.835 349.262 906.47 354.734 911.208L355.192 910.678C349.59 905.828 343.965 904.103 337.896 905.175L338.018 905.865ZM354.734 911.208C356.917 913.098 358.728 915.431 359.883 917.198L360.469 916.815C359.29 915.012 357.438 912.624 355.192 910.678L354.734 911.208ZM360.434 917.243L367.943 909.018L367.426 908.546L359.917 916.771L360.434 917.243Z" fill="#A3EA6E"/>
<path d="M377.523 963.011C366.4 983.973 371.544 1004.28 390.435 1014.31C409.586 1024.47 429.286 1017.34 440.409 996.382C451.532 975.42 446.388 955.112 427.238 944.95C408.347 934.925 388.647 942.049 377.523 963.011ZM429.54 990.614C420.614 1007.44 408.699 1012.39 395.242 1005.25C382.043 998.245 379.466 985.6 388.392 968.779C397.044 952.475 409.492 947.141 422.432 954.008C435.371 960.874 438.191 974.31 429.54 990.614Z" fill="#A3EA6E"/>
<path d="M377.214 962.847C371.621 973.388 370.102 983.795 372.384 992.846C374.668 1001.9 380.747 1009.56 390.271 1014.62L390.599 1014C381.233 1009.03 375.294 1001.52 373.063 992.674C370.832 983.825 372.303 973.596 377.832 963.175L377.214 962.847ZM390.271 1014.62C399.924 1019.74 409.739 1020.51 418.551 1017.35C427.358 1014.18 435.125 1007.09 440.718 996.546L440.1 996.218C434.57 1006.64 426.925 1013.59 418.314 1016.69C409.707 1019.78 400.097 1019.04 390.599 1014L390.271 1014.62ZM440.718 996.546C446.312 986.005 447.83 975.598 445.515 966.53C443.199 957.457 437.055 949.763 427.402 944.641L427.074 945.259C436.572 950.299 442.575 957.841 444.837 966.703C447.101 975.569 445.629 985.797 440.1 996.218L440.718 996.546ZM427.402 944.641C417.877 939.586 408.127 938.846 399.348 942.031C390.574 945.215 382.808 952.306 377.214 962.847L377.832 963.175C383.362 952.755 391.007 945.802 399.587 942.689C408.162 939.578 417.707 940.289 427.074 945.259L427.402 944.641ZM429.231 990.45C424.788 998.823 419.628 1004.19 413.953 1006.6C408.294 1008.99 402.062 1008.47 395.406 1004.94L395.078 1005.56C401.878 1009.17 408.333 1009.74 414.226 1007.24C420.105 1004.75 425.366 999.227 429.849 990.778L429.231 990.45ZM395.406 1004.94C388.881 1001.48 385.019 996.644 383.864 990.629C382.707 984.598 384.259 977.316 388.702 968.943L388.083 968.615C383.6 977.064 381.978 984.514 383.177 990.761C384.379 997.025 388.405 1002.02 395.078 1005.56L395.406 1004.94ZM388.702 968.943C393.005 960.834 398.229 955.497 403.943 953.026C409.644 950.56 415.879 950.927 422.268 954.317L422.596 953.699C416.045 950.222 409.586 949.822 403.665 952.383C397.757 954.939 392.431 960.421 388.083 968.615L388.702 968.943ZM422.268 954.317C428.657 957.707 432.521 962.701 433.739 968.84C434.959 974.991 433.533 982.343 429.231 990.45L429.849 990.778C434.198 982.582 435.687 975.063 434.426 968.704C433.162 962.332 429.146 957.174 422.596 953.699L422.268 954.317Z" fill="#A3EA6E"/>
<path d="M527.835 984.006L506.98 978.084L513.382 955.537L500.707 956.202L495.425 974.802L481.334 970.8L478.693 980.101L492.784 984.102L481.019 1025.53C476.778 1040.47 482.63 1050.96 496.439 1054.88C500.103 1055.92 503.645 1056.32 507.065 1056.07L509.866 1046.21C507.089 1046.33 504.393 1046.18 501.575 1045.38C493.684 1043.14 490.013 1037.83 493.054 1027.12L504.339 987.384L525.194 993.306L527.835 984.006Z" fill="#A3EA6E"/>
<path d="M527.835 984.006L528.172 984.102L528.267 983.765L527.93 983.669L527.835 984.006ZM506.98 978.084L506.643 977.988L506.548 978.325L506.884 978.42L506.98 978.084ZM513.382 955.537L513.719 955.633L513.853 955.162L513.364 955.188L513.382 955.537ZM500.707 956.202L500.689 955.852L500.439 955.865L500.37 956.106L500.707 956.202ZM495.425 974.802L495.329 975.139L495.666 975.234L495.762 974.898L495.425 974.802ZM481.334 970.8L481.429 970.464L481.093 970.368L480.997 970.705L481.334 970.8ZM478.693 980.101L478.356 980.005L478.26 980.342L478.597 980.437L478.693 980.101ZM492.784 984.102L493.121 984.198L493.216 983.861L492.88 983.766L492.784 984.102ZM507.065 1056.07L507.09 1056.42L507.335 1056.4L507.402 1056.17L507.065 1056.07ZM509.866 1046.21L510.203 1046.31L510.335 1045.84L509.85 1045.86L509.866 1046.21ZM504.339 987.384L504.434 987.047L504.098 986.951L504.002 987.288L504.339 987.384ZM525.194 993.306L525.098 993.643L525.435 993.739L525.53 993.402L525.194 993.306ZM527.93 983.669L507.075 977.747L506.884 978.42L527.739 984.343L527.93 983.669ZM507.317 978.179L513.719 955.633L513.046 955.442L506.643 977.988L507.317 978.179ZM513.364 955.188L500.689 955.852L500.725 956.551L513.401 955.887L513.364 955.188ZM500.37 956.106L495.088 974.706L495.762 974.898L501.044 956.297L500.37 956.106ZM495.521 974.465L481.429 970.464L481.238 971.137L495.329 975.139L495.521 974.465ZM480.997 970.705L478.356 980.005L479.029 980.196L481.67 970.896L480.997 970.705ZM478.597 980.437L492.688 984.439L492.88 983.766L478.788 979.764L478.597 980.437ZM492.447 984.007L480.683 1025.44L481.356 1025.63L493.121 984.198L492.447 984.007ZM480.683 1025.44C478.545 1032.96 478.938 1039.42 481.651 1044.5C484.366 1049.59 489.372 1053.24 496.343 1055.22L496.535 1054.55C489.696 1052.6 484.872 1049.05 482.269 1044.17C479.664 1039.29 479.252 1033.04 481.356 1025.63L480.683 1025.44ZM496.343 1055.22C500.042 1056.27 503.625 1056.67 507.09 1056.42L507.04 1055.72C503.664 1055.97 500.163 1055.58 496.535 1054.55L496.343 1055.22ZM507.402 1056.17L510.203 1046.31L509.529 1046.11L506.728 1055.98L507.402 1056.17ZM509.85 1045.86C507.098 1045.98 504.441 1045.83 501.67 1045.04L501.479 1045.71C504.344 1046.53 507.081 1046.69 509.882 1046.56L509.85 1045.86ZM501.67 1045.04C497.777 1043.94 494.989 1042.09 493.526 1039.26C492.059 1036.43 491.882 1032.53 493.391 1027.22L492.718 1027.03C491.185 1032.42 491.322 1036.53 492.904 1039.59C494.489 1042.65 497.481 1044.58 501.479 1045.71L501.67 1045.04ZM493.391 1027.22L504.675 987.479L504.002 987.288L492.718 1027.03L493.391 1027.22ZM504.243 987.72L525.098 993.643L525.289 992.97L504.434 987.047L504.243 987.72ZM525.53 993.402L528.172 984.102L527.498 983.911L524.857 993.211L525.53 993.402Z" fill="#A3EA6E"/>
<path d="M618.62 1028.93C620.282 1006.14 609.325 991.237 589.456 989.787C568.71 988.274 552.929 1003.28 551.245 1026.36C549.476 1050.61 562.414 1066.54 586.082 1068.27C596.601 1069.03 608.002 1065.75 615.17 1060.11L611.719 1051.04C603.988 1056.35 595.593 1058.68 586.828 1058.04C570.173 1056.82 562.132 1046.25 563.517 1027.26L618.449 1031.26L618.62 1028.93ZM564.385 1019.39C567.724 1005.83 576.188 998.513 588.753 999.43C601.317 1000.35 608.089 1008.18 608.213 1022.59L564.385 1019.39Z" fill="#A3EA6E"/>
<path d="M615.17 1060.11L615.387 1060.38L615.589 1060.22L615.497 1059.98L615.17 1060.11ZM611.719 1051.04L612.046 1050.92L611.888 1050.5L611.521 1050.75L611.719 1051.04ZM563.517 1027.26L563.542 1026.91L563.193 1026.88L563.168 1027.23L563.517 1027.26ZM618.449 1031.26L618.424 1031.61L618.773 1031.64L618.798 1031.29L618.449 1031.26ZM564.385 1019.39L564.045 1019.31L563.946 1019.71L564.359 1019.74L564.385 1019.39ZM608.213 1022.59L608.188 1022.94L608.567 1022.96L608.563 1022.58L608.213 1022.59ZM618.969 1028.95C619.804 1017.5 617.472 1007.99 612.393 1001.15C607.31 994.298 599.504 990.169 589.482 989.438L589.431 990.136C599.278 990.855 606.885 994.9 611.831 1001.56C616.783 1008.23 619.097 1017.56 618.27 1028.9L618.969 1028.95ZM589.482 989.438C579.014 988.675 569.784 992.08 562.96 998.598C556.14 1005.11 551.743 1014.72 550.896 1026.34L551.594 1026.39C552.43 1014.92 556.766 1005.48 563.444 999.104C570.119 992.727 579.153 989.387 589.431 990.136L589.482 989.438ZM550.896 1026.34C550.006 1038.53 552.812 1048.67 558.855 1055.98C564.899 1063.3 574.147 1067.75 586.056 1068.61L586.107 1067.92C574.348 1067.06 565.294 1062.68 559.394 1055.54C553.493 1048.4 550.714 1038.45 551.594 1026.39L550.896 1026.34ZM586.056 1068.61C596.651 1069.39 608.142 1066.09 615.387 1060.38L614.954 1059.83C607.863 1065.42 596.55 1068.68 586.107 1067.92L586.056 1068.61ZM615.497 1059.98L612.046 1050.92L611.392 1051.17L614.843 1060.23L615.497 1059.98ZM611.521 1050.75C603.852 1056.02 595.535 1058.32 586.853 1057.69L586.802 1058.39C595.651 1059.03 604.124 1056.68 611.917 1051.33L611.521 1050.75ZM586.853 1057.69C578.596 1057.09 572.528 1054.17 568.686 1049.1C564.837 1044.03 563.177 1036.73 563.866 1027.28L563.168 1027.23C562.472 1036.78 564.139 1044.26 568.128 1049.53C572.124 1054.8 578.404 1057.77 586.802 1058.39L586.853 1057.69ZM563.491 1027.61L618.424 1031.61L618.475 1030.92L563.542 1026.91L563.491 1027.61ZM618.798 1031.29L618.969 1028.95L618.27 1028.9L618.1 1031.24L618.798 1031.29ZM564.724 1019.47C566.382 1012.74 569.302 1007.6 573.333 1004.25C577.358 1000.91 582.523 999.326 588.727 999.779L588.778 999.08C582.418 998.617 577.068 1000.24 572.886 1003.71C568.708 1007.18 565.727 1012.47 564.045 1019.31L564.724 1019.47ZM588.727 999.779C594.94 1000.23 599.677 1002.39 602.881 1006.18C606.09 1009.97 607.802 1015.44 607.863 1022.59L608.563 1022.58C608.501 1015.33 606.764 1009.68 603.415 1005.72C600.061 1001.76 595.13 999.544 588.778 999.08L588.727 999.779ZM608.239 1022.24L564.41 1019.04L564.359 1019.74L608.188 1022.94L608.239 1022.24Z" fill="#A3EA6E"/>
<path d="M653.717 1029.02C657.455 1052.16 673.815 1065.24 695.506 1061.74C705.629 1060.1 715.433 1054.66 720.814 1047.56L715.363 1039.54C708.778 1046.54 702.258 1050.26 695.027 1051.43C679.699 1053.91 669.051 1044.94 666.153 1027.01C663.209 1008.79 670.446 996.64 685.775 994.163C693.005 992.995 700.367 994.476 708.868 999.335L711.468 989.715C704.413 984.623 693.683 982.499 683.561 984.134C661.58 987.686 649.979 1005.88 653.717 1029.02Z" fill="#A3EA6E"/>
<path d="M720.814 1047.56L721.093 1047.77L721.245 1047.57L721.104 1047.36L720.814 1047.56ZM715.363 1039.54L715.653 1039.34L715.408 1038.98L715.108 1039.3L715.363 1039.54ZM708.868 999.335L708.694 999.639L709.087 999.864L709.206 999.426L708.868 999.335ZM711.468 989.715L711.806 989.806L711.869 989.573L711.673 989.431L711.468 989.715ZM653.371 1029.08C655.252 1040.71 660.312 1049.85 667.663 1055.64C675.016 1061.44 684.631 1063.85 695.562 1062.08L695.45 1061.39C684.69 1063.13 675.279 1060.75 668.096 1055.1C660.909 1049.43 655.921 1040.46 654.063 1028.96L653.371 1029.08ZM695.562 1062.08C705.757 1060.44 715.648 1054.96 721.093 1047.77L720.535 1047.35C715.217 1054.36 705.5 1059.77 695.45 1061.39L695.562 1062.08ZM721.104 1047.36L715.653 1039.34L715.074 1039.73L720.525 1047.76L721.104 1047.36ZM715.108 1039.3C708.562 1046.25 702.108 1049.93 694.971 1051.08L695.083 1051.77C702.407 1050.59 708.994 1046.82 715.618 1039.78L715.108 1039.3ZM694.971 1051.08C687.39 1052.31 681.004 1050.7 676.154 1046.61C671.297 1042.5 667.939 1035.87 666.499 1026.95L665.808 1027.07C667.265 1036.09 670.679 1042.9 675.703 1047.14C680.734 1051.39 687.336 1053.03 695.083 1051.77L694.971 1051.08ZM666.499 1026.95C665.035 1017.9 666.11 1010.39 669.412 1004.86C672.709 999.34 678.252 995.733 685.83 994.509L685.719 993.818C677.968 995.07 672.229 998.777 668.811 1004.5C665.399 1010.22 664.327 1017.9 665.808 1027.07L666.499 1026.95ZM685.83 994.509C692.965 993.356 700.247 994.811 708.694 999.639L709.041 999.031C700.487 994.142 693.045 992.634 685.719 993.818L685.83 994.509ZM709.206 999.426L711.806 989.806L711.13 989.624L708.53 999.244L709.206 999.426ZM711.673 989.431C704.529 984.275 693.7 982.141 683.505 983.789L683.616 984.48C693.666 982.856 704.298 984.971 711.263 989.999L711.673 989.431ZM683.505 983.789C672.427 985.579 663.941 991.066 658.702 999.04C653.465 1007.01 651.491 1017.44 653.371 1029.08L654.063 1028.96C652.205 1017.47 654.163 1007.22 659.287 999.425C664.409 991.629 672.714 986.241 683.616 984.48L683.505 983.789Z" fill="#A3EA6E"/>
<path d="M780.212 956.499L759.954 964.22L751.608 942.318L741.844 950.428L748.729 968.497L735.041 973.713L738.484 982.747L752.172 977.531L767.507 1017.77C773.036 1032.28 784.001 1037.2 797.415 1032.09C800.974 1030.73 804.05 1028.93 806.645 1026.69L802.993 1017.11C800.842 1018.87 798.587 1020.35 795.85 1021.4C788.184 1024.32 782.07 1022.26 778.105 1011.85L763.396 973.254L783.655 965.534L780.212 956.499Z" fill="#A3EA6E"/>
<path d="M780.212 956.499L780.539 956.375L780.415 956.048L780.088 956.172L780.212 956.499ZM759.954 964.22L759.627 964.344L759.751 964.671L760.078 964.547L759.954 964.22ZM751.608 942.318L751.935 942.194L751.761 941.736L751.384 942.049L751.608 942.318ZM741.844 950.428L741.621 950.159L741.428 950.319L741.517 950.553L741.844 950.428ZM748.729 968.497L748.854 968.824L749.181 968.699L749.056 968.372L748.729 968.497ZM735.041 973.713L734.917 973.386L734.589 973.511L734.714 973.838L735.041 973.713ZM738.484 982.747L738.157 982.872L738.281 983.199L738.608 983.074L738.484 982.747ZM752.172 977.531L752.499 977.406L752.374 977.079L752.047 977.204L752.172 977.531ZM806.645 1026.69L806.873 1026.95L807.059 1026.79L806.972 1026.56L806.645 1026.69ZM802.993 1017.11L803.32 1016.98L803.148 1016.53L802.772 1016.84L802.993 1017.11ZM763.396 973.254L763.272 972.927L762.945 973.051L763.069 973.378L763.396 973.254ZM783.655 965.534L783.78 965.861L784.107 965.736L783.982 965.409L783.655 965.534ZM780.088 956.172L759.829 963.892L760.078 964.547L780.337 956.827L780.088 956.172ZM760.281 964.095L751.935 942.194L751.281 942.443L759.627 964.344L760.281 964.095ZM751.384 942.049L741.621 950.159L742.068 950.697L751.832 942.587L751.384 942.049ZM741.517 950.553L748.402 968.621L749.056 968.372L742.171 950.304L741.517 950.553ZM748.605 968.17L734.917 973.386L735.166 974.04L748.854 968.824L748.605 968.17ZM734.714 973.838L738.157 982.872L738.811 982.623L735.368 973.588L734.714 973.838ZM738.608 983.074L752.297 977.858L752.047 977.204L738.359 982.42L738.608 983.074ZM751.845 977.656L767.18 1017.9L767.834 1017.65L752.499 977.406L751.845 977.656ZM767.18 1017.9C769.967 1025.21 774.141 1030.15 779.355 1032.61C784.571 1035.06 790.768 1034.99 797.54 1032.41L797.29 1031.76C790.648 1034.29 784.655 1034.32 779.653 1031.97C774.649 1029.62 770.577 1024.85 767.834 1017.65L767.18 1017.9ZM797.54 1032.41C801.132 1031.04 804.245 1029.22 806.873 1026.95L806.416 1026.42C803.856 1028.64 800.815 1030.42 797.29 1031.76L797.54 1032.41ZM806.972 1026.56L803.32 1016.98L802.666 1017.23L806.318 1026.81L806.972 1026.56ZM802.772 1016.84C800.64 1018.58 798.417 1020.04 795.725 1021.07L795.974 1021.72C798.758 1020.66 801.045 1019.15 803.215 1017.38L802.772 1016.84ZM795.725 1021.07C791.943 1022.51 788.606 1022.7 785.743 1021.31C782.873 1019.91 780.399 1016.89 778.433 1011.73L777.778 1011.98C779.776 1017.22 782.341 1020.43 785.437 1021.94C788.538 1023.44 792.091 1023.2 795.974 1021.72L795.725 1021.07ZM778.433 1011.73L763.723 973.129L763.069 973.378L777.778 1011.98L778.433 1011.73ZM763.521 973.581L783.78 965.861L783.53 965.207L763.272 972.927L763.521 973.581ZM783.982 965.409L780.539 956.375L779.885 956.624L783.328 965.658L783.982 965.409Z" fill="#A3EA6E"/>
<path d="M812.18 918.17L805.287 906.249L792.606 913.582L799.499 925.503L812.18 918.17ZM820.004 934.627L809.606 940.64L847.442 1006.07L857.84 1000.06L820.004 934.627Z" fill="#A3EA6E"/>
<path d="M812.18 918.17L812.355 918.473L812.658 918.297L812.483 917.994L812.18 918.17ZM805.287 906.249L805.59 906.074L805.415 905.771L805.112 905.946L805.287 906.249ZM792.606 913.582L792.431 913.279L792.128 913.455L792.303 913.758L792.606 913.582ZM799.499 925.503L799.196 925.678L799.371 925.981L799.674 925.806L799.499 925.503ZM820.004 934.627L820.307 934.452L820.132 934.149L819.829 934.324L820.004 934.627ZM809.606 940.64L809.43 940.337L809.127 940.513L809.303 940.816L809.606 940.64ZM847.442 1006.07L847.139 1006.25L847.314 1006.55L847.617 1006.38L847.442 1006.07ZM857.84 1000.06L858.016 1000.36L858.319 1000.19L858.143 999.887L857.84 1000.06ZM812.483 917.994L805.59 906.074L804.984 906.425L811.877 918.345L812.483 917.994ZM805.112 905.946L792.431 913.279L792.781 913.885L805.462 906.552L805.112 905.946ZM792.303 913.758L799.196 925.678L799.802 925.327L792.909 913.407L792.303 913.758ZM799.674 925.806L812.355 918.473L812.004 917.867L799.324 925.2L799.674 925.806ZM819.829 934.324L809.43 940.337L809.781 940.943L820.179 934.93L819.829 934.324ZM809.303 940.816L847.139 1006.25L847.745 1005.9L809.909 940.465L809.303 940.816ZM847.617 1006.38L858.016 1000.36L857.665 999.759L847.267 1005.77L847.617 1006.38ZM858.143 999.887L820.307 934.452L819.701 934.803L857.537 1000.24L858.143 999.887Z" fill="#A3EA6E"/>
<path d="M878.192 941.904C893.855 959.731 914.667 962.114 930.733 947.998C947.02 933.688 947.335 912.742 931.672 894.914C916.009 877.087 895.197 874.704 878.91 889.014C862.844 903.13 862.529 924.077 878.192 941.904ZM922.429 903.036C934.998 917.342 935.41 930.239 923.965 940.295C912.741 950.157 900.004 948.088 887.435 933.783C875.253 919.917 874.674 906.386 885.678 896.717C896.683 887.049 910.246 889.17 922.429 903.036Z" fill="#A3EA6E"/>
<path d="M877.929 942.135C885.805 951.1 894.999 956.206 904.271 957.278C913.548 958.35 922.864 955.378 930.964 948.261L930.502 947.735C922.536 954.734 913.413 957.629 904.351 956.582C895.285 955.535 886.241 950.536 878.455 941.673L877.929 942.135ZM930.964 948.261C939.174 941.048 943.375 932.144 943.534 922.781C943.692 913.423 939.812 903.648 931.935 894.683L931.409 895.145C939.196 904.008 942.989 913.62 942.834 922.769C942.679 931.914 938.579 940.638 930.502 947.735L930.964 948.261ZM931.935 894.683C924.059 885.719 914.865 880.612 905.564 879.565C896.259 878.518 886.889 881.538 878.679 888.751L879.141 889.277C887.219 882.18 896.397 879.238 905.486 880.261C914.579 881.284 923.623 886.283 931.409 895.145L931.935 894.683ZM878.679 888.751C870.579 895.868 866.434 904.725 866.303 914.063C866.172 923.396 870.052 933.17 877.929 942.135L878.455 941.673C870.668 932.811 866.875 923.198 867.003 914.072C867.13 904.951 871.176 896.276 879.141 889.277L878.679 888.751ZM922.166 903.267C928.422 910.388 931.613 917.115 931.852 923.273C932.091 929.415 929.395 935.058 923.734 940.032L924.196 940.558C929.98 935.476 932.8 929.642 932.552 923.246C932.304 916.865 929.004 909.99 922.692 902.805L922.166 903.267ZM923.734 940.032C918.185 944.908 912.298 946.808 906.265 945.757C900.215 944.703 893.954 940.672 887.698 933.552L887.172 934.014C893.485 941.199 899.878 945.355 906.145 946.446C912.428 947.541 918.521 945.544 924.196 940.558L923.734 940.032ZM887.698 933.552C881.639 926.655 878.499 919.878 878.211 913.66C877.925 907.455 880.476 901.754 885.909 896.98L885.447 896.454C879.876 901.349 877.215 907.248 877.512 913.692C877.809 920.123 881.049 927.045 887.172 934.014L887.698 933.552ZM885.909 896.98C891.343 892.206 897.382 890.361 903.554 891.396C909.738 892.434 916.108 896.372 922.166 903.267L922.692 902.805C916.567 895.834 910.064 891.779 903.67 890.706C897.263 889.631 891.018 891.56 885.447 896.454L885.909 896.98Z" fill="#A3EA6E"/>
<path d="M987.784 803.798C971.369 792.51 958.015 794.35 947.724 809.318C941.084 818.974 940.193 830.095 945.745 839.601L933.735 832.765L927.262 842.18C932.905 845.349 939.031 848.85 945.549 853.332L990.209 884.04L997.014 874.143L961.527 849.742C949.457 841.442 947.044 828.405 954.845 817.059C961.651 807.161 970.115 806.226 981.461 814.028L1020.09 840.587L1026.89 830.689L987.784 803.798Z" fill="#A3EA6E"/>
<path d="M945.745 839.601L945.572 839.905L946.705 840.55L946.048 839.424L945.745 839.601ZM933.735 832.765L933.909 832.461L933.629 832.302L933.447 832.567L933.735 832.765ZM927.262 842.18L926.973 841.982L926.756 842.297L927.091 842.485L927.262 842.18ZM990.209 884.04L990.01 884.329L990.299 884.527L990.497 884.239L990.209 884.04ZM997.014 874.143L997.303 874.341L997.501 874.053L997.213 873.854L997.014 874.143ZM1020.09 840.587L1019.89 840.875L1020.18 841.073L1020.37 840.785L1020.09 840.587ZM1026.89 830.689L1027.18 830.887L1027.38 830.599L1027.09 830.4L1026.89 830.689ZM987.982 803.51C979.736 797.84 972.206 795.429 965.41 796.366C958.605 797.303 952.617 801.584 947.435 809.12L948.012 809.516C953.122 802.084 958.956 797.961 965.505 797.059C972.062 796.156 979.416 798.469 987.586 804.086L987.982 803.51ZM947.435 809.12C940.729 818.873 939.814 830.139 945.443 839.777L946.048 839.424C940.573 830.05 941.439 819.076 948.012 809.516L947.435 809.12ZM945.919 839.297L933.909 832.461L933.562 833.069L945.572 839.905L945.919 839.297ZM933.447 832.567L926.973 841.982L927.55 842.378L934.024 832.963L933.447 832.567ZM927.091 842.485C932.732 845.653 938.846 849.148 945.35 853.62L945.747 853.043C939.215 848.552 933.077 845.045 927.433 841.875L927.091 842.485ZM945.35 853.62L990.01 884.329L990.407 883.752L945.747 853.043L945.35 853.62ZM990.497 884.239L997.303 874.341L996.726 873.944L989.92 883.842L990.497 884.239ZM997.213 873.854L961.726 849.453L961.329 850.03L996.816 874.431L997.213 873.854ZM961.726 849.453C955.753 845.346 952.194 840.086 951.078 834.474C949.961 828.864 951.279 822.863 955.134 817.257L954.557 816.861C950.61 822.601 949.233 828.792 950.391 834.611C951.549 840.43 955.232 845.837 961.329 850.03L961.726 849.453ZM955.134 817.257C958.502 812.359 962.24 809.734 966.49 809.254C970.754 808.772 975.621 810.436 981.263 814.316L981.66 813.739C975.956 809.818 970.917 808.049 966.411 808.558C961.891 809.069 957.994 811.861 954.557 816.861L955.134 817.257ZM981.263 814.316L1019.89 840.875L1020.28 840.298L981.66 813.739L981.263 814.316ZM1020.37 840.785L1027.18 830.887L1026.6 830.491L1019.8 840.388L1020.37 840.785ZM1027.09 830.4L987.982 803.51L987.586 804.086L1026.69 830.977L1027.09 830.4Z" fill="#A3EA6E"/>
<defs>
<clipPath id="clip0">
<rect width="654.75" height="654.764" fill="white" transform="translate(273.928 273.955)"/>
</clipPath>
</defs>
</svg>
