<svg width="1152" height="236" viewBox="0 0 1152 236" fill="none" xmlns="http://www.w3.org/2000/svg">
<g clip-path="url(#clip0)">
<path d="M1152 0H0V236H1152V0Z" fill="#85FAF4"/>
<path d="M-27.4323 28.8651C-30.4181 41.7085 -32 55.0904 -32 68.8425C-32 157.757 33.9958 231.246 119.671 243.024H168.005C253.681 231.246 319.677 157.757 319.677 68.8425C319.677 55.0904 318.095 41.7085 315.11 28.8651H-27.4323Z" fill="#85FAF4"/>
<path d="M149.02 173.588C146.242 178.798 145.731 185.163 148.166 191.043C150.602 196.923 155.464 201.062 161.112 202.781C160.539 208.657 162.502 214.733 167.002 219.234C171.503 223.734 177.579 225.698 183.455 225.125C185.174 230.772 189.313 235.635 195.193 238.07C201.072 240.506 207.438 239.994 212.647 237.217C216.396 241.776 222.081 244.685 228.446 244.685C234.81 244.685 240.495 241.777 244.244 237.217C249.453 239.994 255.819 240.506 261.698 238.07C267.578 235.635 271.717 230.772 273.436 225.125C279.312 225.698 285.388 223.734 289.889 219.234C294.389 214.733 296.352 208.657 295.779 202.781C301.427 201.062 306.289 196.923 308.725 191.043C311.16 185.163 310.649 178.798 307.871 173.588C312.43 169.839 315.339 164.154 315.339 157.789C315.339 151.425 312.431 145.74 307.871 141.99C310.649 136.781 311.16 130.416 308.725 124.536C306.289 118.656 301.427 114.517 295.779 112.798C296.352 106.922 294.389 100.845 289.889 96.3454C285.388 91.8449 279.312 89.8818 273.436 90.4547C271.717 84.8064 267.578 79.944 261.698 77.5083C255.818 75.0726 249.453 75.5843 244.244 78.3621C240.495 73.8025 234.81 70.8936 228.446 70.8936C222.081 70.8936 216.396 73.8018 212.647 78.3621C207.438 75.5843 201.072 75.0726 195.193 77.5083C189.313 79.944 185.174 84.8064 183.455 90.4547C177.579 89.8818 171.503 91.8449 167.002 96.3454C162.502 100.846 160.539 106.922 161.112 112.798C155.464 114.517 150.602 118.656 148.166 124.536C145.731 130.416 146.242 136.781 149.02 141.99C144.461 145.74 141.552 151.425 141.552 157.789C141.552 164.154 144.461 169.838 149.02 173.588Z" fill="#60B550"/>
<path d="M226.125 214.119C261.704 212.402 276.856 183.851 256.486 176.34C236.115 168.829 231.415 148.865 244.244 128.602C257.074 108.338 251.678 89.1057 244.244 78.3615C240.495 73.8019 234.81 70.8929 228.446 70.8929C222.081 70.8929 216.396 73.8012 212.647 78.3615C207.438 75.5837 201.072 75.072 195.193 77.5077C189.313 79.9433 185.174 84.8058 183.455 90.4541C177.579 89.8812 171.503 91.8443 167.002 96.3448C162.502 100.845 160.539 106.921 161.112 112.797C155.464 114.516 150.602 118.656 148.166 124.535C145.731 130.415 146.242 136.78 149.02 141.99C144.461 145.739 141.552 151.424 141.552 157.789C141.552 164.153 144.46 169.838 149.02 173.588C146.242 178.797 145.731 185.162 148.166 191.042C150.602 196.923 155.464 201.061 161.112 202.78C160.539 208.656 162.502 214.733 167.002 219.233C171.503 223.734 177.579 225.697 183.455 225.124C185.174 230.772 189.313 235.635 195.193 238.07C201.072 240.506 207.438 239.994 212.647 237.216C212.647 237.217 190.546 215.836 226.125 214.119V214.119Z" fill="#389F4D"/>
<path d="M254.695 129.269C227.753 129.269 206.649 86.5889 206.649 32.1038C206.649 29.2587 208.956 26.9521 211.801 26.9521C214.646 26.9521 216.952 29.2587 216.952 32.1038C216.952 84.0632 236.468 118.966 254.695 118.966C272.921 118.966 292.437 84.0625 292.437 32.1038C292.437 29.2587 294.743 26.9521 297.588 26.9521C300.433 26.9521 302.74 29.2587 302.74 32.1038C302.74 86.5882 281.636 129.269 254.695 129.269Z" fill="#A3EA6E"/>
<path d="M143.839 -107C60.4781 -107 -9.33194 -48.9891 -27.4316 28.8652C-25.1931 39.2591 -17.878 47.7627 -8.20616 51.656C-6.08373 66.1348 5.79155 77.4375 20.5352 78.6904C25.6263 89.4745 36.5956 96.9396 49.3123 96.9396C50.695 96.9396 52.055 96.8413 53.3909 96.6703C59.2087 104.198 68.32 109.051 78.5695 109.051C81.8102 109.051 84.9368 108.564 87.8828 107.663C93.5611 112.94 101.165 116.172 109.529 116.172C114.998 116.172 120.145 114.79 124.641 112.358C129.977 116.404 136.626 118.808 143.839 118.808C151.052 118.808 157.702 116.404 163.038 112.358C167.534 114.79 172.68 116.172 178.15 116.172C186.513 116.172 194.117 112.94 199.796 107.663C202.742 108.563 205.868 109.051 209.109 109.051C219.359 109.051 228.471 104.199 234.288 96.6703C235.624 96.8413 236.984 96.9396 238.366 96.9396C251.083 96.9396 262.052 89.4752 267.143 78.6904C281.887 77.4375 293.762 66.1355 295.885 51.656C305.556 47.7634 312.871 39.2591 315.11 28.8652C297.011 -48.9891 227.201 -107 143.839 -107V-107Z" fill="#85D249"/>
<path d="M188.486 10.6778C198.789 -17.264 187.799 -42.4328 139.97 -50.6754C100.007 -57.5622 69.5028 -76.6033 73.045 -92.1571C23.0169 -70.1246 -14.8008 -25.4654 -27.4316 28.8651C-25.1931 39.2591 -17.878 47.7627 -8.20616 51.656C-6.08373 66.1348 5.79156 77.4375 20.5352 78.6904C25.6263 89.4745 36.5956 96.9395 49.3123 96.9395C50.695 96.9395 52.055 96.8413 53.3909 96.6703C59.2087 104.198 68.3201 109.051 78.5695 109.051C81.8102 109.051 84.9368 108.564 87.8828 107.662C93.5611 112.94 101.165 116.172 109.529 116.172C114.998 116.172 120.145 114.79 124.641 112.358C129.977 116.404 136.626 118.808 143.839 118.808C151.052 118.808 157.702 116.404 163.038 112.358C167.534 114.79 172.68 116.172 178.15 116.172C186.513 116.172 194.117 112.94 199.796 107.662C202.742 108.563 205.868 109.051 209.109 109.051C219.359 109.051 228.471 104.199 234.288 96.6703C235.624 96.8413 236.984 96.9395 238.366 96.9395C251.083 96.9395 262.052 89.4752 267.143 78.6904C281.887 77.4375 293.762 66.1355 295.885 51.656C299.567 15.5794 178.183 38.6196 188.486 10.6778V10.6778Z" fill="#60B550"/>
<path d="M-12.1811 93.9097C-14.9588 99.119 -15.4705 105.484 -13.0349 111.364C-10.5992 117.244 -5.73687 121.383 -0.089427 123.102C-0.662276 128.978 1.3008 135.055 5.80117 139.555C10.3015 144.056 16.3776 146.019 22.2538 145.446C23.973 151.094 28.1121 155.957 33.9917 158.392C39.8713 160.827 46.2365 160.316 51.4457 157.538C55.1953 162.097 60.8799 165.006 67.2444 165.006C73.6089 165.006 79.2935 162.098 83.0431 157.538C88.2523 160.316 94.6175 160.827 100.497 158.392C106.377 155.956 110.516 151.094 112.235 145.446C118.111 146.019 124.187 144.056 128.688 139.555C133.188 135.055 135.151 128.979 134.578 123.102C140.226 121.383 145.088 117.244 147.524 111.364C149.959 105.484 149.448 99.119 146.67 93.9097C151.229 90.16 154.138 84.4754 154.138 78.1107C154.138 71.746 151.23 66.0613 146.67 62.3116C149.448 57.1023 149.959 50.7369 147.524 44.8572C145.088 38.9768 140.226 34.8383 134.578 33.119C135.151 27.2434 133.188 21.1665 128.688 16.6667C124.187 12.1663 118.111 10.2031 112.235 10.776C110.516 5.12844 106.377 0.265291 100.497 -2.16972C94.6175 -4.60541 88.2523 -4.09368 83.0431 -1.31592C79.2935 -5.87546 73.6089 -8.78442 67.2444 -8.78442C60.8799 -8.78442 55.1953 -5.87615 51.4457 -1.31592C46.2365 -4.09368 39.8713 -4.60541 33.9917 -2.16972C28.1121 0.265978 23.973 5.12844 22.2538 10.776C16.3783 10.2031 10.3015 12.1663 5.80117 16.6667C1.3008 21.1672 -0.662276 27.2434 -0.089427 33.119C-5.73687 34.8383 -10.5992 38.9774 -13.0349 44.8572C-15.4705 50.7369 -14.9588 57.1023 -12.1811 62.3116C-16.7405 66.0613 -19.6494 71.746 -19.6494 78.1107C-19.6494 84.4754 -16.7412 90.1593 -12.1811 93.9097V93.9097Z" fill="#A3EA6E"/>
<path d="M67.2444 114.889C77.1951 90.8723 60.7288 65.4081 42.1833 61.2868C23.6378 57.1655 12.6479 34.4983 22.2538 10.7747C16.3783 10.2018 10.3015 12.1649 5.80117 16.6654C1.3008 21.1659 -0.662273 27.242 -0.0894236 33.1177C-5.73687 34.8369 -10.5992 38.9761 -13.0349 44.8558C-15.4705 50.7356 -14.9588 57.1009 -12.1811 62.3103C-16.7405 66.06 -19.6494 71.7446 -19.6494 78.1093C-19.6494 84.474 -16.7412 90.1586 -12.1811 93.9084C-14.9588 99.1177 -15.4705 105.483 -13.0349 111.363C-10.5992 117.243 -5.73687 121.382 -0.0894236 123.101C-0.662273 128.977 1.3008 135.053 5.80117 139.554C10.3015 144.054 16.3776 146.017 22.2538 145.445C23.973 151.092 28.1121 155.955 33.9917 158.39C39.872 160.826 46.2365 160.314 51.4457 157.537C55.1953 162.096 60.8799 165.005 67.2444 165.005C73.6089 165.005 79.2935 162.097 83.0431 157.537C83.0431 157.538 57.2944 138.905 67.2444 114.889V114.889Z" fill="#85D249"/>
<path d="M78.5999 217.907C60.8148 217.907 44.3437 205.63 32.2211 183.337C20.6377 162.038 14.2588 133.831 14.2588 103.914C14.2588 101.069 16.5653 98.7626 19.4103 98.7626C22.2553 98.7626 24.5618 101.069 24.5618 103.914C24.5618 132.142 30.4964 158.6 41.272 178.415C51.5077 197.238 64.765 207.604 78.5999 207.604C92.4349 207.604 105.692 197.238 115.928 178.415C126.703 158.6 132.639 132.142 132.639 103.914C132.639 101.069 134.945 98.7626 137.79 98.7626C140.635 98.7626 142.942 101.069 142.942 103.914C142.942 133.831 136.563 162.038 124.979 183.337C112.856 205.63 96.385 217.907 78.5999 217.907Z" fill="#60B550"/>
<path d="M180.847 64.0659C180.847 64.0659 198.152 71.6594 221.406 55.5444C222.818 54.5663 224.756 54.9413 225.667 56.3968C226.445 57.638 226.212 59.2556 225.114 60.2248C218.818 65.7859 197.176 82.4806 169.563 77.0329L180.847 64.0659Z" fill="#D85E41"/>
<path d="M139.97 10.151C139.97 10.151 111.077 1.1308 99.9337 -42.8017C99.2619 -45.4503 96.5179 -47.0061 93.9036 -46.212C91.6638 -45.5313 90.2399 -43.3361 90.5462 -41.0151C92.3039 -27.6909 100.892 15.2243 139.97 37.6683V10.151Z" fill="#D85E41"/>
<path d="M200.441 177.526C200.441 177.526 200.11 156.326 226.902 139.289C228.511 138.267 228.931 136.1 227.834 134.541C226.89 133.198 225.116 132.736 223.638 133.449C215.155 137.54 188.505 152.653 182.14 183.554L200.441 177.526Z" fill="#C04A27"/>
<path d="M96.669 95.9917C96.669 95.9917 73.2893 106.029 42.1597 84.0618C40.2907 82.743 37.6944 83.2644 36.4642 85.1931C35.4064 86.8513 35.6976 89.0308 37.1614 90.3448C45.5645 97.8888 74.4989 120.587 111.707 113.555L96.669 95.9917Z" fill="#D85E41"/>
<path d="M189.923 163.598C186.488 169.349 183.702 175.973 182.14 183.554L200.44 177.526C200.44 177.526 200.324 169.991 205.905 160.296C200.192 161.965 194.832 163.002 189.923 163.598V163.598Z" fill="#B2381B"/>
<path d="M111.707 113.555L96.669 95.9917C96.669 95.9917 87.1916 100.057 72.2734 97.3462C76.4221 102.999 81.2062 108.671 86.7052 114.125C94.46 115.215 102.848 115.229 111.707 113.555V113.555Z" fill="#C04A27"/>
<path d="M193.018 76.75C196.626 72.6026 199.949 68.4346 203.011 64.3242C189.598 67.896 180.847 64.0667 180.847 64.0667L169.563 77.0337C178.035 78.7042 185.941 78.2858 193.018 76.75V76.75Z" fill="#C04A27"/>
<path d="M123.072 25.1649C127.952 29.7369 133.546 33.9797 139.967 37.6676V10.151C139.967 10.151 132.294 7.75515 123.33 -0.5802C123.309 6.61767 123.236 15.2566 123.072 25.1649Z" fill="#C04A27"/>
<path d="M255.823 144.699C212.29 180.316 172.559 175.282 161.381 172.896C159.212 145.357 157.672 119.586 156.583 96.3544C192.895 70.3022 212.762 30.8098 218.688 17.5625C219.796 15.0856 218.697 12.1842 216.228 11.0584C213.958 10.0239 211.277 10.8537 209.971 12.9789C188.041 48.6873 166.618 64.5482 155.522 70.9252C154.088 31.5097 153.98 1.94548 154.054 -12.7044C154.082 -18.3657 149.501 -22.9651 143.84 -22.9651C138.179 -22.9651 133.598 -18.3657 133.626 -12.7044C133.72 5.85523 133.523 48.3459 130.704 104.485C114.818 98.2784 87.5484 82.344 66.1242 42.4772C65.0582 40.4935 62.6556 39.65 60.5936 40.5546C58.6332 41.4139 57.5961 43.5824 58.1703 45.6444C61.9831 59.3354 78.8066 108.275 129.217 131.174C127.135 165.203 124.091 203.113 119.674 243.024C127.575 244.111 135.64 244.685 143.84 244.685C152.041 244.685 160.105 244.111 168.007 243.024C166.303 227.627 164.798 212.52 163.48 197.827C215.764 194.794 251.701 161.007 261.465 150.746C262.995 149.138 262.982 146.612 261.44 145.015C259.939 143.459 257.497 143.329 255.823 144.699V144.699Z" fill="#D85E41"/>
<path d="M261.464 150.746C262.995 149.138 262.982 146.612 261.44 145.015C259.937 143.459 257.496 143.329 255.822 144.699C212.289 180.317 172.557 175.283 161.379 172.897C138.624 164.759 129.215 131.175 129.215 131.175C127.133 165.204 124.089 203.114 119.672 243.025C127.574 244.111 135.639 244.685 143.839 244.685C152.039 244.685 160.104 244.111 168.005 243.024C166.301 227.627 164.796 212.52 163.478 197.826C215.764 194.794 251.7 161.007 261.464 150.746V150.746Z" fill="#C04A27"/>
<path d="M876.568 64.8651C873.582 77.7085 872 91.0904 872 104.843C872 193.757 937.996 267.246 1023.67 279.024H1072.01C1157.68 267.246 1223.68 193.757 1223.68 104.843C1223.68 91.0904 1222.1 77.7085 1219.11 64.8651H876.568Z" fill="#85FAF4"/>
<path d="M1053.02 209.588C1050.24 214.798 1049.73 221.163 1052.17 227.043C1054.6 232.923 1059.47 237.062 1065.11 238.781C1064.54 244.657 1066.5 250.733 1071 255.234C1075.5 259.734 1081.58 261.698 1087.46 261.125C1089.18 266.772 1093.31 271.635 1099.19 274.07C1105.07 276.506 1111.44 275.994 1116.65 273.217C1120.4 277.776 1126.08 280.685 1132.45 280.685C1138.81 280.685 1144.5 277.777 1148.25 273.217C1153.45 275.994 1159.82 276.506 1165.7 274.07C1171.58 271.635 1175.72 266.772 1177.44 261.125C1183.31 261.698 1189.39 259.734 1193.89 255.234C1198.39 250.733 1200.35 244.657 1199.78 238.781C1205.43 237.062 1210.29 232.923 1212.73 227.043C1215.16 221.163 1214.65 214.798 1211.87 209.588C1216.43 205.839 1219.34 200.154 1219.34 193.789C1219.34 187.425 1216.43 181.74 1211.87 177.99C1214.65 172.781 1215.16 166.416 1212.73 160.536C1210.29 154.656 1205.43 150.517 1199.78 148.798C1200.35 142.922 1198.39 136.845 1193.89 132.345C1189.39 127.845 1183.31 125.882 1177.44 126.455C1175.72 120.806 1171.58 115.944 1165.7 113.508C1159.82 111.073 1153.45 111.584 1148.25 114.362C1144.5 109.803 1138.81 106.894 1132.45 106.894C1126.08 106.894 1120.4 109.802 1116.65 114.362C1111.44 111.584 1105.07 111.073 1099.19 113.508C1093.31 115.944 1089.18 120.806 1087.46 126.455C1081.58 125.882 1075.5 127.845 1071 132.345C1066.5 136.846 1064.54 142.922 1065.11 148.798C1059.47 150.517 1054.6 154.656 1052.17 160.536C1049.73 166.416 1050.24 172.781 1053.02 177.99C1048.46 181.74 1045.55 187.425 1045.55 193.789C1045.55 200.154 1048.46 205.838 1053.02 209.588Z" fill="#60B550"/>
<path d="M1130.13 250.119C1165.71 248.402 1180.86 219.851 1160.49 212.34C1140.12 204.829 1135.42 184.865 1148.25 164.602C1161.07 144.339 1155.68 125.106 1148.25 114.362C1144.5 109.802 1138.81 106.893 1132.45 106.893C1126.08 106.893 1120.4 109.801 1116.65 114.362C1111.44 111.584 1105.07 111.072 1099.19 113.508C1093.31 115.943 1089.18 120.806 1087.46 126.454C1081.58 125.881 1075.5 127.844 1071 132.345C1066.5 136.845 1064.54 142.922 1065.11 148.797C1059.47 150.516 1054.6 154.656 1052.17 160.535C1049.73 166.415 1050.24 172.78 1053.02 177.99C1048.46 181.74 1045.55 187.424 1045.55 193.789C1045.55 200.154 1048.46 205.838 1053.02 209.588C1050.24 214.797 1049.73 221.163 1052.17 227.042C1054.6 232.923 1059.47 237.061 1065.11 238.781C1064.54 244.656 1066.5 250.733 1071 255.233C1075.5 259.734 1081.58 261.697 1087.46 261.124C1089.18 266.772 1093.31 271.635 1099.19 274.07C1105.07 276.506 1111.44 275.994 1116.65 273.216C1116.65 273.217 1094.55 251.836 1130.13 250.119V250.119Z" fill="#389F4D"/>
<path d="M1158.7 165.269C1131.75 165.269 1110.65 122.589 1110.65 68.1038C1110.65 65.2587 1112.96 62.9521 1115.8 62.9521C1118.65 62.9521 1120.95 65.2587 1120.95 68.1038C1120.95 120.063 1140.47 154.966 1158.7 154.966C1176.92 154.966 1196.44 120.063 1196.44 68.1038C1196.44 65.2587 1198.74 62.9521 1201.59 62.9521C1204.43 62.9521 1206.74 65.2587 1206.74 68.1038C1206.74 122.588 1185.64 165.269 1158.7 165.269Z" fill="#A3EA6E"/>
<path d="M1047.84 -71C964.478 -71 894.668 -12.9891 876.568 64.8652C878.807 75.2591 886.122 83.7627 895.794 87.656C897.916 102.135 909.792 113.438 924.535 114.69C929.626 125.475 940.596 132.94 953.312 132.94C954.695 132.94 956.055 132.841 957.391 132.67C963.209 140.198 972.32 145.051 982.57 145.051C985.81 145.051 988.937 144.564 991.883 143.663C997.561 148.94 1005.17 152.172 1013.53 152.172C1019 152.172 1024.15 150.79 1028.64 148.358C1033.98 152.404 1040.63 154.808 1047.84 154.808C1055.05 154.808 1061.7 152.404 1067.04 148.358C1071.53 150.79 1076.68 152.172 1082.15 152.172C1090.51 152.172 1098.12 148.94 1103.8 143.663C1106.74 144.563 1109.87 145.051 1113.11 145.051C1123.36 145.051 1132.47 140.199 1138.29 132.67C1139.62 132.841 1140.98 132.94 1142.37 132.94C1155.08 132.94 1166.05 125.475 1171.14 114.69C1185.89 113.438 1197.76 102.136 1199.88 87.656C1209.56 83.7634 1216.87 75.2591 1219.11 64.8652C1201.01 -12.9891 1131.2 -71 1047.84 -71V-71Z" fill="#85D249"/>
<path d="M1092.49 46.6778C1102.79 18.736 1091.8 -6.43283 1043.97 -14.6754C1004.01 -21.5622 973.503 -40.6033 977.045 -56.1571C927.017 -34.1246 889.199 10.5346 876.568 64.8651C878.807 75.2591 886.122 83.7627 895.794 87.656C897.916 102.135 909.792 113.437 924.535 114.69C929.626 125.474 940.596 132.94 953.312 132.94C954.695 132.94 956.055 132.841 957.391 132.67C963.209 140.198 972.32 145.051 982.57 145.051C985.81 145.051 988.937 144.564 991.883 143.662C997.561 148.94 1005.17 152.172 1013.53 152.172C1019 152.172 1024.15 150.79 1028.64 148.358C1033.98 152.404 1040.63 154.808 1047.84 154.808C1055.05 154.808 1061.7 152.404 1067.04 148.358C1071.53 150.79 1076.68 152.172 1082.15 152.172C1090.51 152.172 1098.12 148.94 1103.8 143.662C1106.74 144.563 1109.87 145.051 1113.11 145.051C1123.36 145.051 1132.47 140.199 1138.29 132.67C1139.62 132.841 1140.98 132.94 1142.37 132.94C1155.08 132.94 1166.05 125.475 1171.14 114.69C1185.89 113.437 1197.76 102.135 1199.88 87.656C1203.57 51.5794 1082.18 74.6196 1092.49 46.6778V46.6778Z" fill="#60B550"/>
<path d="M891.818 129.91C889.04 135.119 888.529 141.484 890.964 147.364C893.4 153.244 898.262 157.383 903.91 159.102C903.337 164.978 905.3 171.055 909.8 175.555C914.301 180.056 920.377 182.019 926.253 181.446C927.972 187.094 932.111 191.957 937.991 194.392C943.87 196.827 950.236 196.316 955.445 193.538C959.194 198.097 964.879 201.006 971.243 201.006C977.608 201.006 983.292 198.098 987.042 193.538C992.251 196.316 998.617 196.827 1004.5 194.392C1010.38 191.956 1014.51 187.094 1016.23 181.446C1022.11 182.019 1028.19 180.056 1032.69 175.555C1037.19 171.055 1039.15 164.979 1038.58 159.102C1044.22 157.383 1049.09 153.244 1051.52 147.364C1053.96 141.484 1053.45 135.119 1050.67 129.91C1055.23 126.16 1058.14 120.475 1058.14 114.111C1058.14 107.746 1055.23 102.061 1050.67 98.3116C1053.45 93.1023 1053.96 86.7369 1051.52 80.8572C1049.09 74.9768 1044.22 70.8383 1038.58 69.119C1039.15 63.2434 1037.19 57.1665 1032.69 52.6667C1028.19 48.1663 1022.11 46.2031 1016.23 46.776C1014.51 41.1284 1010.38 36.2653 1004.5 33.8303C998.617 31.3946 992.251 31.9063 987.042 34.6841C983.292 30.1245 977.608 27.2156 971.243 27.2156C964.879 27.2156 959.194 30.1238 955.445 34.6841C950.236 31.9063 943.87 31.3946 937.991 33.8303C932.111 36.266 927.972 41.1284 926.253 46.776C920.377 46.2031 914.301 48.1663 909.8 52.6667C905.3 57.1672 903.337 63.2434 903.91 69.119C898.262 70.8383 893.4 74.9774 890.964 80.8572C888.529 86.7369 889.04 93.1023 891.818 98.3116C887.259 102.061 884.35 107.746 884.35 114.111C884.35 120.475 887.258 126.159 891.818 129.91V129.91Z" fill="#A3EA6E"/>
<path d="M971.243 150.889C981.194 126.872 964.728 101.408 946.182 97.2868C927.637 93.1655 916.647 70.4983 926.253 46.7747C920.377 46.2018 914.301 48.1649 909.8 52.6654C905.3 57.1659 903.337 63.242 903.91 69.1177C898.262 70.8369 893.4 74.9761 890.964 80.8558C888.529 86.7356 889.04 93.1009 891.818 98.3103C887.259 102.06 884.35 107.745 884.35 114.109C884.35 120.474 887.258 126.159 891.818 129.908C889.04 135.118 888.529 141.483 890.964 147.363C893.4 153.243 898.262 157.382 903.91 159.101C903.337 164.977 905.3 171.053 909.8 175.554C914.301 180.054 920.377 182.017 926.253 181.445C927.972 187.092 932.111 191.955 937.991 194.39C943.871 196.826 950.236 196.314 955.445 193.537C959.194 198.096 964.879 201.005 971.243 201.005C977.608 201.005 983.293 198.097 987.042 193.537C987.042 193.538 961.293 174.905 971.243 150.889V150.889Z" fill="#85D249"/>
<path d="M982.599 253.907C964.814 253.907 948.343 241.63 936.22 219.337C924.637 198.038 918.258 169.832 918.258 139.914C918.258 137.069 920.564 134.763 923.409 134.763C926.254 134.763 928.561 137.069 928.561 139.914C928.561 168.142 934.495 194.6 945.271 214.415C955.507 233.238 968.764 243.604 982.599 243.604C996.434 243.604 1009.69 233.238 1019.93 214.415C1030.7 194.6 1036.64 168.142 1036.64 139.914C1036.64 137.069 1038.94 134.763 1041.79 134.763C1044.63 134.763 1046.94 137.069 1046.94 139.914C1046.94 169.832 1040.56 198.039 1028.98 219.337C1016.86 241.63 1000.38 253.907 982.599 253.907Z" fill="#60B550"/>
<path d="M1084.85 100.066C1084.85 100.066 1102.15 107.659 1125.41 91.5444C1126.82 90.5663 1128.75 90.9413 1129.67 92.3968C1130.44 93.638 1130.21 95.2556 1129.11 96.2248C1122.82 101.786 1101.18 118.481 1073.56 113.033L1084.85 100.066Z" fill="#D85E41"/>
<path d="M1043.97 46.151C1043.97 46.151 1015.08 37.1308 1003.93 -6.80167C1003.26 -9.45029 1000.52 -11.0061 997.903 -10.212C995.663 -9.53134 994.239 -7.33606 994.545 -5.01508C996.303 8.30912 1004.89 51.2243 1043.97 73.6683V46.151Z" fill="#D85E41"/>
<path d="M1104.44 213.526C1104.44 213.526 1104.11 192.326 1130.9 175.289C1132.51 174.267 1132.93 172.1 1131.83 170.541C1130.89 169.198 1129.12 168.736 1127.64 169.449C1119.15 173.54 1092.5 188.653 1086.14 219.554L1104.44 213.526Z" fill="#C04A27"/>
<path d="M1000.67 131.992C1000.67 131.992 977.29 142.029 946.161 120.062C944.292 118.743 941.695 119.264 940.465 121.193C939.407 122.851 939.699 125.031 941.162 126.345C949.566 133.889 978.5 156.587 1015.71 149.555L1000.67 131.992Z" fill="#D85E41"/>
<path d="M1093.92 199.598C1090.49 205.349 1087.7 211.973 1086.14 219.554L1104.44 213.526C1104.44 213.526 1104.32 205.991 1109.9 196.296C1104.19 197.965 1098.83 199.002 1093.92 199.598V199.598Z" fill="#B2381B"/>
<path d="M1015.71 149.555L1000.67 131.992C1000.67 131.992 991.192 136.057 976.273 133.346C980.422 138.999 985.206 144.671 990.705 150.125C998.46 151.215 1006.85 151.229 1015.71 149.555V149.555Z" fill="#C04A27"/>
<path d="M1097.02 112.75C1100.63 108.603 1103.95 104.435 1107.01 100.324C1093.6 103.896 1084.85 100.067 1084.85 100.067L1073.56 113.034C1082.03 114.704 1089.94 114.286 1097.02 112.75V112.75Z" fill="#C04A27"/>
<path d="M1027.07 61.1649C1031.95 65.7369 1037.55 69.9797 1043.97 73.6676V46.151C1043.97 46.151 1036.29 43.7552 1027.33 35.4198C1027.31 42.6177 1027.24 51.2566 1027.07 61.1649Z" fill="#C04A27"/>
<path d="M1159.82 180.699C1116.29 216.316 1076.56 211.282 1065.38 208.896C1063.21 181.357 1061.67 155.586 1060.58 132.354C1096.89 106.302 1116.76 66.8098 1122.69 53.5625C1123.79 51.0856 1122.7 48.1842 1120.23 47.0584C1117.96 46.0239 1115.28 46.8537 1113.97 48.9789C1092.04 84.6873 1070.62 100.548 1059.52 106.925C1058.09 67.5097 1057.98 37.9455 1058.05 23.2956C1058.08 17.6343 1053.5 13.0349 1047.84 13.0349C1042.18 13.0349 1037.6 17.6343 1037.63 23.2956C1037.72 41.8552 1037.52 84.3459 1034.7 140.485C1018.82 134.278 991.547 118.344 970.123 78.4772C969.057 76.4935 966.655 75.65 964.593 76.5546C962.632 77.4139 961.595 79.5824 962.169 81.6444C965.982 95.3354 982.806 144.275 1033.22 167.174C1031.13 201.203 1028.09 239.113 1023.67 279.024C1031.57 280.111 1039.64 280.685 1047.84 280.685C1056.04 280.685 1064.1 280.111 1072.01 279.024C1070.3 263.627 1068.8 248.52 1067.48 233.827C1119.76 230.794 1155.7 197.007 1165.46 186.746C1166.99 185.138 1166.98 182.612 1165.44 181.015C1163.94 179.459 1161.5 179.329 1159.82 180.699V180.699Z" fill="#D85E41"/>
<path d="M1101.19 32.3659C1089.47 32.3659 1078.65 25.1824 1070.71 12.1378C1063.26 -0.106615 1059.16 -16.28 1059.16 -33.4027C1059.16 -36.2478 1061.46 -38.5543 1064.31 -38.5543C1067.15 -38.5543 1069.46 -36.2478 1069.46 -33.4027C1069.46 -3.33704 1083.99 22.0633 1101.19 22.0633C1110.58 22.0633 1119.82 14.2259 1125.89 1.09886C1127.08 -1.48245 1130.15 -2.60825 1132.73 -1.41239C1135.31 -0.217207 1136.44 2.84424 1135.24 5.42693C1127.32 22.5462 1114.91 32.3659 1101.19 32.3659Z" fill="#A3EA6E"/>
<path d="M1165.46 186.746C1166.99 185.138 1166.98 182.612 1165.44 181.015C1163.94 179.459 1161.5 179.329 1159.82 180.699C1116.29 216.317 1076.56 211.283 1065.38 208.897C1042.62 200.759 1033.21 167.175 1033.21 167.175C1031.13 201.204 1028.09 239.114 1023.67 279.025C1031.57 280.111 1039.64 280.685 1047.84 280.685C1056.04 280.685 1064.1 280.111 1072.01 279.024C1070.3 263.627 1068.8 248.52 1067.48 233.826C1119.76 230.794 1155.7 197.007 1165.46 186.746V186.746Z" fill="#C04A27"/>
<path d="M342.206 249.888C339.792 254.416 339.347 259.948 341.464 265.059C343.581 270.17 347.808 273.768 352.716 275.262C352.218 280.369 353.925 285.651 357.837 289.563C361.748 293.475 367.03 295.181 372.137 294.683C373.631 299.592 377.229 303.819 382.34 305.936C387.45 308.053 392.983 307.608 397.511 305.193C400.77 309.157 405.711 311.685 411.243 311.685C416.775 311.685 421.716 309.157 424.975 305.193C429.503 307.608 435.036 308.053 440.146 305.936C445.257 303.818 448.855 299.592 450.349 294.683C455.456 295.181 460.738 293.475 464.65 289.563C468.561 285.651 470.268 280.37 469.77 275.262C474.678 273.768 478.905 270.17 481.022 265.059C483.139 259.948 482.694 254.416 480.28 249.888C484.243 246.628 486.771 241.687 486.771 236.155C486.771 230.623 484.243 225.682 480.28 222.423C482.694 217.895 483.139 212.362 481.022 207.251C478.905 202.141 474.678 198.543 469.77 197.048C470.268 191.941 468.561 186.659 464.65 182.748C460.738 178.836 455.457 177.13 450.349 177.628C448.855 172.718 445.257 168.492 440.146 166.375C435.035 164.258 429.503 164.702 424.975 167.117C421.716 163.154 416.775 160.625 411.243 160.625C405.711 160.625 400.77 163.153 397.511 167.117C392.983 164.702 387.45 164.258 382.34 166.375C377.229 168.492 373.631 172.718 372.137 177.628C367.03 177.13 361.748 178.836 357.837 182.748C353.925 186.66 352.218 191.941 352.716 197.048C347.808 198.543 343.581 202.141 341.464 207.251C339.347 212.362 339.792 217.895 342.206 222.423C338.243 225.682 335.715 230.623 335.715 236.155C335.715 241.687 338.243 246.628 342.206 249.888Z" fill="#60B550"/>
<path d="M409.226 285.117C440.152 283.624 453.322 258.808 435.616 252.28C417.909 245.751 413.824 228.398 424.975 210.785C436.127 193.172 431.436 176.455 424.975 167.116C421.716 163.153 416.775 160.625 411.243 160.625C405.711 160.625 400.77 163.153 397.511 167.116C392.983 164.702 387.45 164.257 382.34 166.374C377.229 168.491 373.631 172.718 372.137 177.627C367.03 177.129 361.748 178.836 357.837 182.748C353.925 186.659 352.218 191.941 352.716 197.048C347.808 198.542 343.581 202.14 341.464 207.251C339.347 212.361 339.792 217.894 342.206 222.422C338.243 225.681 335.715 230.622 335.715 236.155C335.715 241.687 338.243 246.628 342.206 249.887C339.792 254.415 339.347 259.948 341.464 265.059C343.581 270.17 347.808 273.767 352.716 275.261C352.218 280.369 353.925 285.651 357.837 289.562C361.748 293.474 367.03 295.181 372.137 294.683C373.631 299.592 377.229 303.819 382.34 305.935C387.45 308.052 392.983 307.607 397.511 305.193C397.511 305.194 378.301 286.609 409.226 285.117V285.117Z" fill="#389F4D"/>
<path d="M434.059 211.365C410.642 211.365 392.298 174.268 392.298 126.909C392.298 124.436 394.303 122.431 396.776 122.431C399.248 122.431 401.253 124.436 401.253 126.909C401.253 172.072 418.216 202.41 434.059 202.41C449.902 202.41 466.864 172.072 466.864 126.909C466.864 124.436 468.869 122.431 471.342 122.431C473.815 122.431 475.82 124.436 475.82 126.909C475.82 174.267 457.476 211.365 434.059 211.365Z" fill="#A3EA6E"/>
<path d="M337.703 6C265.245 6 204.566 56.4231 188.834 124.094C190.78 133.129 197.138 140.52 205.545 143.904C207.39 156.489 217.712 166.313 230.527 167.402C234.952 176.776 244.487 183.265 255.54 183.265C256.742 183.265 257.924 183.179 259.085 183.03C264.142 189.573 272.061 193.792 280.97 193.792C283.787 193.792 286.505 193.368 289.065 192.585C294.001 197.172 300.611 199.981 307.88 199.981C312.634 199.981 317.108 198.78 321.015 196.666C325.654 200.183 331.433 202.273 337.703 202.273C343.972 202.273 349.752 200.183 354.39 196.666C358.298 198.78 362.771 199.981 367.526 199.981C374.795 199.981 381.405 197.172 386.34 192.585C388.901 193.368 391.618 193.792 394.435 193.792C403.344 193.792 411.264 189.574 416.321 183.03C417.483 183.179 418.664 183.265 419.866 183.265C430.919 183.265 440.454 176.776 444.879 167.402C457.694 166.313 468.016 156.49 469.861 143.904C478.267 140.521 484.625 133.129 486.572 124.094C470.839 56.4231 410.161 6 337.703 6V6Z" fill="#85D249"/>
<path d="M376.51 108.286C385.465 83.9987 375.913 62.1219 334.34 54.9574C299.604 48.9715 273.09 32.4209 276.168 18.9015C232.684 38.0522 199.813 76.87 188.834 124.094C190.78 133.129 197.138 140.52 205.545 143.904C207.39 156.489 217.712 166.313 230.527 167.402C234.952 176.776 244.487 183.264 255.54 183.264C256.742 183.264 257.924 183.179 259.085 183.03C264.142 189.573 272.061 193.792 280.97 193.792C283.787 193.792 286.505 193.368 289.065 192.585C294.001 197.172 300.611 199.981 307.88 199.981C312.634 199.981 317.108 198.78 321.015 196.666C325.654 200.183 331.434 202.272 337.703 202.272C343.972 202.272 349.752 200.183 354.39 196.666C358.298 198.78 362.771 199.981 367.526 199.981C374.795 199.981 381.405 197.172 386.34 192.585C388.901 193.368 391.618 193.792 394.435 193.792C403.344 193.792 411.264 189.574 416.321 183.03C417.483 183.179 418.664 183.264 419.866 183.264C430.919 183.264 440.454 176.776 444.879 167.402C457.694 166.313 468.016 156.49 469.861 143.904C473.062 112.546 367.554 132.573 376.51 108.286V108.286Z" fill="#60B550"/>
<path d="M202.09 180.631C199.676 185.159 199.231 190.692 201.348 195.802C203.465 200.913 207.691 204.511 212.6 206.005C212.102 211.112 213.809 216.394 217.72 220.306C221.632 224.218 226.913 225.924 232.021 225.426C233.515 230.335 237.113 234.562 242.224 236.679C247.334 238.796 252.867 238.351 257.395 235.937C260.654 239.9 265.595 242.428 271.127 242.428C276.659 242.428 281.6 239.9 284.859 235.937C289.387 238.351 294.92 238.796 300.03 236.679C305.141 234.562 308.738 230.335 310.233 225.426C315.34 225.924 320.622 224.218 324.533 220.306C328.445 216.394 330.151 211.113 329.653 206.005C334.562 204.511 338.789 200.913 340.906 195.802C343.023 190.692 342.578 185.159 340.164 180.631C344.127 177.372 346.655 172.431 346.655 166.898C346.655 161.366 344.127 156.425 340.164 153.166C342.578 148.638 343.023 143.105 340.906 137.994C338.789 132.883 334.562 129.286 329.653 127.792C330.151 122.685 328.445 117.403 324.533 113.491C320.622 109.579 315.34 107.873 310.233 108.371C308.738 103.462 305.141 99.2352 300.03 97.1187C294.92 95.0015 289.387 95.4463 284.859 97.8608C281.6 93.8976 276.659 91.3691 271.127 91.3691C265.595 91.3691 260.654 93.897 257.395 97.8608C252.867 95.4463 247.334 95.0015 242.224 97.1187C237.113 99.2358 233.515 103.462 232.021 108.371C226.914 107.873 221.632 109.579 217.72 113.491C213.809 117.403 212.102 122.685 212.6 127.792C207.691 129.286 203.465 132.884 201.348 137.994C199.231 143.105 199.676 148.638 202.09 153.166C198.127 156.425 195.599 161.366 195.599 166.898C195.599 172.431 198.126 177.371 202.09 180.631V180.631Z" fill="#A3EA6E"/>
<path d="M271.127 198.866C279.776 177.991 265.463 155.857 249.344 152.275C233.224 148.693 223.671 128.991 232.021 108.37C226.914 107.872 221.632 109.578 217.72 113.49C213.809 117.402 212.102 122.683 212.6 127.791C207.691 129.285 203.465 132.883 201.348 137.993C199.231 143.104 199.676 148.637 202.09 153.165C198.127 156.424 195.599 161.365 195.599 166.897C195.599 172.43 198.126 177.371 202.09 180.63C199.676 185.158 199.231 190.691 201.348 195.801C203.465 200.913 207.691 204.51 212.6 206.004C212.102 211.111 213.809 216.393 217.72 220.305C221.632 224.217 226.913 225.923 232.021 225.425C233.515 230.334 237.113 234.561 242.224 236.678C247.335 238.795 252.867 238.35 257.395 235.936C260.654 239.899 265.595 242.427 271.127 242.427C276.659 242.427 281.6 239.899 284.859 235.936C284.859 235.937 262.478 219.741 271.127 198.866V198.866Z" fill="#85D249"/>
<path d="M280.997 288.41C265.538 288.41 251.221 277.738 240.684 258.362C230.616 239.848 225.071 215.331 225.071 189.327C225.071 186.854 227.076 184.849 229.549 184.849C232.022 184.849 234.027 186.854 234.027 189.327C234.027 213.862 239.185 236.86 248.551 254.083C257.448 270.444 268.971 279.454 280.997 279.454C293.022 279.454 304.545 270.444 313.442 254.083C322.808 236.86 327.967 213.862 327.967 189.327C327.967 186.854 329.972 184.849 332.445 184.849C334.918 184.849 336.923 186.854 336.923 189.327C336.923 215.331 331.378 239.849 321.31 258.362C310.772 277.739 296.456 288.41 280.997 288.41Z" fill="#60B550"/>
<path d="M369.87 154.691C369.87 154.691 384.91 161.291 405.123 147.284C406.35 146.434 408.035 146.76 408.827 148.025C409.503 149.104 409.3 150.51 408.346 151.352C402.873 156.186 384.063 170.697 360.062 165.962L369.87 154.691Z" fill="#D85E41"/>
<path d="M334.34 107.828C334.34 107.828 309.226 99.9874 299.54 61.8013C298.956 59.4991 296.571 58.1468 294.299 58.837C292.352 59.4286 291.114 61.3368 291.381 63.3542C292.908 74.9356 300.373 112.237 334.34 131.746V107.828Z" fill="#D85E41"/>
<path d="M386.9 253.311C386.9 253.311 386.613 234.883 409.901 220.075C411.299 219.186 411.664 217.303 410.711 215.948C409.89 214.781 408.349 214.379 407.063 214.999C399.691 218.555 376.526 231.691 370.993 258.55L386.9 253.311Z" fill="#C04A27"/>
<path d="M296.703 182.441C296.703 182.441 276.381 191.165 249.323 172.071C247.699 170.925 245.442 171.378 244.373 173.055C243.453 174.496 243.706 176.39 244.979 177.532C252.283 184.09 277.432 203.819 309.774 197.706L296.703 182.441Z" fill="#D85E41"/>
<path d="M309.772 197.706L296.702 182.441C296.702 182.441 288.464 185.975 275.497 183.618C279.103 188.531 283.261 193.461 288.041 198.203C294.782 199.15 302.073 199.161 309.772 197.706V197.706Z" fill="#C04A27"/>
<path d="M380.448 165.716C383.584 162.111 386.472 158.488 389.134 154.915C377.476 158.02 369.869 154.691 369.869 154.691L360.062 165.962C367.425 167.414 374.297 167.051 380.448 165.716V165.716Z" fill="#C04A27"/>
<path d="M319.652 120.878C323.894 124.852 328.756 128.54 334.337 131.745V107.828C334.337 107.828 327.667 105.745 319.876 98.5002C319.858 104.757 319.794 112.266 319.652 120.878Z" fill="#C04A27"/>
<path d="M435.039 224.777C397.2 255.736 362.665 251.36 352.949 249.286C351.064 225.349 349.725 202.949 348.779 182.756C380.341 160.111 397.61 125.784 402.76 114.27C403.723 112.117 402.768 109.595 400.622 108.616C398.649 107.717 396.319 108.439 395.184 110.286C376.122 141.324 357.501 155.11 347.857 160.653C346.61 126.393 346.516 100.696 346.581 87.9618C346.605 83.041 342.624 79.0432 337.703 79.0432C332.782 79.0432 328.801 83.041 328.825 87.9618C328.906 104.094 328.735 141.027 326.285 189.823C312.477 184.428 288.774 170.578 270.152 135.926C269.226 134.201 267.137 133.468 265.345 134.255C263.641 135.002 262.739 136.886 263.239 138.679C266.553 150.579 281.176 193.117 324.992 213.021C323.183 242.599 320.537 275.55 316.698 310.241C323.565 311.186 330.576 311.685 337.703 311.685C344.831 311.685 351.84 311.186 358.709 310.241C357.227 296.858 355.919 283.727 354.774 270.956C400.219 268.32 431.455 238.952 439.943 230.033C441.273 228.635 441.262 226.44 439.921 225.052C438.616 223.699 436.494 223.586 435.039 224.777V224.777Z" fill="#D85E41"/>
<path d="M384.077 95.8457C373.89 95.8457 364.482 89.6018 357.583 78.2634C351.108 67.6206 347.541 53.5626 347.541 38.6796C347.541 36.2066 349.546 34.2018 352.019 34.2018C354.492 34.2018 356.496 36.2066 356.496 38.6796C356.496 64.8127 369.127 86.8907 384.077 86.8907C392.238 86.8907 400.264 80.0784 405.545 68.6684C406.583 66.4247 409.244 65.4461 411.489 66.4856C413.734 67.5244 414.711 70.1855 413.672 72.4303C406.784 87.3104 395.998 95.8457 384.077 95.8457Z" fill="#A3EA6E"/>
<path d="M439.942 230.033C441.272 228.635 441.26 226.44 439.92 225.052C438.614 223.699 436.492 223.586 435.037 224.777C397.198 255.736 362.663 251.361 352.947 249.286C333.168 242.213 324.99 213.022 324.99 213.022C323.18 242.6 320.535 275.552 316.695 310.242C323.564 311.186 330.574 311.685 337.701 311.685C344.829 311.685 351.839 311.186 358.707 310.241C357.226 296.858 355.918 283.727 354.772 270.955C400.218 268.32 431.454 238.952 439.942 230.033V230.033Z" fill="#C04A27"/>
<path d="M940.319 255.953C938.142 260.036 937.741 265.026 939.65 269.635C941.559 274.244 945.371 277.489 949.798 278.837C949.349 283.443 950.888 288.206 954.415 291.734C957.943 295.262 962.706 296.801 967.313 296.352C968.66 300.779 971.905 304.591 976.514 306.5C981.123 308.409 986.113 308.008 990.196 305.831C993.135 309.405 997.592 311.685 1002.58 311.685C1007.57 311.685 1012.03 309.405 1014.97 305.831C1019.05 308.008 1024.04 308.409 1028.65 306.5C1033.26 304.591 1036.5 300.779 1037.85 296.352C1042.45 296.801 1047.22 295.262 1050.75 291.734C1054.27 288.206 1055.81 283.443 1055.36 278.837C1059.79 277.489 1063.6 274.244 1065.51 269.635C1067.42 265.026 1067.02 260.036 1064.84 255.953C1068.42 253.013 1070.7 248.557 1070.7 243.568C1070.7 238.579 1068.42 234.122 1064.84 231.183C1067.02 227.099 1067.42 222.11 1065.51 217.5C1063.6 212.891 1059.79 209.647 1055.36 208.299C1055.81 203.693 1054.27 198.929 1050.75 195.402C1047.22 191.874 1042.46 190.335 1037.85 190.784C1036.5 186.357 1033.26 182.545 1028.65 180.636C1024.04 178.726 1019.05 179.128 1014.97 181.305C1012.03 177.731 1007.57 175.45 1002.58 175.45C997.592 175.45 993.135 177.73 990.196 181.305C986.113 179.128 981.123 178.726 976.514 180.636C971.904 182.545 968.66 186.357 967.313 190.784C962.707 190.335 957.943 191.874 954.415 195.402C950.888 198.93 949.349 203.693 949.798 208.299C945.371 209.647 941.559 212.891 939.65 217.5C937.741 222.11 938.142 227.099 940.319 231.183C936.745 234.122 934.465 238.579 934.465 243.568C934.465 248.557 936.745 253.013 940.319 255.953Z" fill="#60B550"/>
<path d="M1000.76 287.724C1028.65 286.378 1040.53 263.998 1024.56 258.11C1008.59 252.222 1004.91 236.572 1014.97 220.688C1025.02 204.803 1020.79 189.727 1014.97 181.305C1012.03 177.73 1007.57 175.45 1002.58 175.45C997.592 175.45 993.135 177.73 990.196 181.305C986.113 179.127 981.123 178.726 976.514 180.635C971.904 182.545 968.66 186.356 967.313 190.784C962.707 190.335 957.943 191.874 954.415 195.402C950.888 198.93 949.349 203.693 949.798 208.298C945.371 209.646 941.559 212.891 939.65 217.5C937.741 222.109 938.142 227.099 940.319 231.183C936.745 234.122 934.465 238.578 934.465 243.567C934.465 248.557 936.745 253.013 940.319 255.952C938.142 260.036 937.741 265.026 939.65 269.635C941.559 274.244 945.371 277.488 949.798 278.836C949.349 283.442 950.888 288.206 954.415 291.734C957.943 295.262 962.706 296.8 967.313 296.351C968.66 300.778 971.905 304.591 976.514 306.499C981.123 308.409 986.113 308.008 990.196 305.83C990.196 305.831 972.871 289.07 1000.76 287.724V287.724Z" fill="#389F4D"/>
<path d="M1023.16 221.211C1002.04 221.211 985.494 187.754 985.494 145.043C985.494 142.813 987.302 141.005 989.532 141.005C991.763 141.005 993.571 142.813 993.571 145.043C993.571 185.774 1008.87 213.134 1023.16 213.134C1037.44 213.134 1052.74 185.774 1052.74 145.043C1052.74 142.813 1054.55 141.005 1056.78 141.005C1059.01 141.005 1060.82 142.813 1060.82 145.043C1060.82 187.753 1044.28 221.211 1023.16 221.211Z" fill="#A3EA6E"/>
<path d="M936.259 36C870.912 36 816.188 81.4746 802 142.504C803.755 150.652 809.489 157.318 817.071 160.37C818.735 171.72 828.044 180.58 839.601 181.562C843.592 190.016 852.191 195.868 862.159 195.868C863.243 195.868 864.309 195.791 865.357 195.657C869.917 201.558 877.06 205.362 885.094 205.362C887.634 205.362 890.085 204.98 892.395 204.273C896.846 208.41 902.807 210.944 909.363 210.944C913.651 210.944 917.685 209.861 921.209 207.954C925.392 211.126 930.605 213.01 936.259 213.01C941.913 213.01 947.126 211.126 951.309 207.954C954.833 209.86 958.867 210.944 963.155 210.944C969.711 210.944 975.672 208.41 980.123 204.273C982.432 204.979 984.883 205.362 987.424 205.362C995.458 205.362 1002.6 201.558 1007.16 195.657C1008.21 195.791 1009.27 195.868 1010.36 195.868C1020.33 195.868 1028.93 190.016 1032.92 181.562C1044.47 180.58 1053.78 171.721 1055.45 160.37C1063.03 157.319 1068.76 150.652 1070.52 142.504C1056.33 81.4746 1001.61 36 936.259 36V36Z" fill="#85D249"/>
<path d="M971.257 128.247C979.334 106.344 970.719 86.614 933.226 80.1526C901.899 74.7542 877.987 59.8279 880.763 47.6353C841.546 64.9065 811.901 99.9147 802 142.504C803.755 150.652 809.489 157.318 817.071 160.37C818.735 171.72 828.044 180.58 839.601 181.562C843.592 190.016 852.191 195.868 862.159 195.868C863.243 195.868 864.309 195.791 865.357 195.657C869.917 201.557 877.06 205.362 885.094 205.362C887.634 205.362 890.085 204.98 892.395 204.273C896.846 208.41 902.807 210.944 909.363 210.944C913.651 210.944 917.685 209.861 921.209 207.954C925.392 211.126 930.605 213.01 936.259 213.01C941.913 213.01 947.126 211.126 951.309 207.954C954.833 209.86 958.867 210.944 963.155 210.944C969.711 210.944 975.672 208.41 980.123 204.273C982.432 204.979 984.883 205.362 987.424 205.362C995.458 205.362 1002.6 201.558 1007.16 195.657C1008.21 195.791 1009.27 195.868 1010.36 195.868C1020.33 195.868 1028.93 190.016 1032.92 181.562C1044.47 180.58 1053.78 171.72 1055.45 160.37C1058.33 132.09 963.181 150.151 971.257 128.247V128.247Z" fill="#60B550"/>
<path d="M813.954 193.493C811.777 197.576 811.375 202.566 813.285 207.175C815.194 211.784 819.006 215.029 823.433 216.377C822.984 220.983 824.522 225.746 828.05 229.274C831.578 232.802 836.341 234.341 840.947 233.892C842.295 238.319 845.54 242.131 850.149 244.04C854.758 245.949 859.747 245.548 863.831 243.371C866.77 246.945 871.226 249.225 876.215 249.225C881.205 249.225 885.661 246.945 888.6 243.371C892.684 245.548 897.673 245.949 902.282 244.04C906.892 242.131 910.136 238.319 911.484 233.892C916.089 234.341 920.853 232.802 924.381 229.274C927.908 225.746 929.447 220.983 928.998 216.377C933.425 215.029 937.237 211.784 939.146 207.175C941.055 202.566 940.654 197.576 938.477 193.493C942.051 190.553 944.331 186.097 944.331 181.108C944.331 176.119 942.052 171.662 938.477 168.723C940.654 164.639 941.055 159.65 939.146 155.04C937.237 150.431 933.425 147.187 928.998 145.839C929.447 141.233 927.908 136.469 924.381 132.942C920.853 129.414 916.09 127.875 911.484 128.324C910.136 123.897 906.891 120.085 902.282 118.176C897.673 116.267 892.684 116.668 888.6 118.846C885.661 115.271 881.205 112.991 876.215 112.991C871.226 112.991 866.77 115.271 863.831 118.846C859.747 116.668 854.758 116.267 850.149 118.176C845.54 120.086 842.295 123.897 840.947 128.324C836.342 127.875 831.578 129.414 828.05 132.942C824.522 136.47 822.984 141.233 823.433 145.839C819.006 147.187 815.194 150.431 813.285 155.04C811.375 159.65 811.777 164.639 813.954 168.723C810.38 171.662 808.1 176.119 808.1 181.108C808.1 186.097 810.379 190.553 813.954 193.493V193.493Z" fill="#A3EA6E"/>
<path d="M876.215 209.938C884.016 191.112 871.108 171.15 856.57 167.92C842.032 164.689 833.417 146.92 840.947 128.323C836.342 127.874 831.578 129.413 828.05 132.941C824.522 136.469 822.984 141.232 823.433 145.838C819.006 147.186 815.194 150.43 813.285 155.04C811.375 159.649 811.777 164.638 813.954 168.722C810.38 171.661 808.1 176.118 808.1 181.107C808.1 186.096 810.379 190.552 813.954 193.492C811.777 197.575 811.375 202.565 813.285 207.174C815.194 211.784 819.006 215.028 823.433 216.376C822.984 220.982 824.522 225.745 828.05 229.273C831.578 232.801 836.341 234.34 840.947 233.891C842.295 238.318 845.54 242.13 850.149 244.039C854.758 245.948 859.747 245.547 863.831 243.37C866.77 246.944 871.226 249.224 876.215 249.224C881.205 249.224 885.661 246.944 888.6 243.37C888.6 243.371 868.416 228.764 876.215 209.938V209.938Z" fill="#85D249"/>
<path d="M885.117 290.694C871.175 290.694 858.263 281.07 848.76 263.595C839.68 246.898 834.68 224.787 834.68 201.335C834.68 199.105 836.488 197.297 838.718 197.297C840.948 197.297 842.756 199.105 842.756 201.335C842.756 223.463 847.408 244.203 855.855 259.736C863.879 274.491 874.271 282.617 885.117 282.617C895.962 282.617 906.354 274.491 914.378 259.736C922.825 244.203 927.477 223.463 927.477 201.335C927.477 199.105 929.285 197.297 931.516 197.297C933.746 197.297 935.554 199.105 935.554 201.335C935.554 224.787 930.554 246.899 921.473 263.595C911.97 281.07 899.058 290.694 885.117 290.694Z" fill="#60B550"/>
<path d="M965.269 170.098C965.269 170.098 978.834 176.051 997.063 163.418C998.17 162.651 999.689 162.945 1000.4 164.086C1001.01 165.059 1000.83 166.327 999.97 167.087C995.034 171.446 978.069 184.533 956.424 180.263L965.269 170.098Z" fill="#D85E41"/>
<path d="M933.225 127.834C933.225 127.834 910.575 120.763 901.84 86.3249C901.314 84.2486 899.163 83.0291 897.113 83.6515C895.358 84.1851 894.241 85.906 894.482 87.7254C895.859 98.1702 902.592 131.811 933.225 149.405V127.834Z" fill="#D85E41"/>
<path d="M980.627 259.039C980.627 259.039 980.368 242.42 1001.37 229.066C1002.63 228.264 1002.96 226.566 1002.1 225.343C1001.36 224.291 999.971 223.928 998.811 224.487C992.162 227.694 971.271 239.541 966.281 263.764L980.627 259.039Z" fill="#C04A27"/>
<path d="M899.283 195.125C899.283 195.125 880.955 202.993 856.553 185.773C855.088 184.739 853.052 185.148 852.088 186.66C851.259 187.959 851.487 189.668 852.635 190.698C859.222 196.612 881.903 214.405 911.071 208.892L899.283 195.125Z" fill="#D85E41"/>
<path d="M911.07 208.892L899.282 195.125C899.282 195.125 891.852 198.312 880.158 196.187C883.41 200.617 887.161 205.064 891.471 209.34C897.55 210.194 904.126 210.204 911.07 208.892V208.892Z" fill="#C04A27"/>
<path d="M974.81 180.041C977.638 176.79 980.243 173.523 982.643 170.301C972.129 173.1 965.269 170.099 965.269 170.099L956.424 180.263C963.065 181.573 969.262 181.245 974.81 180.041V180.041Z" fill="#C04A27"/>
<path d="M919.98 139.604C923.806 143.188 928.191 146.514 933.224 149.404V127.834C933.224 127.834 927.209 125.956 920.182 119.422C920.166 125.065 920.109 131.837 919.98 139.604Z" fill="#C04A27"/>
<path d="M1024.04 233.306C989.916 261.227 958.771 257.28 950.008 255.41C948.308 233.822 947.101 213.62 946.247 195.409C974.712 174.987 990.286 144.029 994.931 133.644C995.8 131.703 994.938 129.428 993.003 128.546C991.224 127.735 989.122 128.385 988.098 130.051C970.907 158.043 954.114 170.476 945.416 175.475C944.291 144.577 944.207 121.402 944.265 109.918C944.287 105.48 940.696 101.875 936.258 101.875C931.821 101.875 928.23 105.48 928.252 109.918C928.325 124.467 928.171 157.775 925.961 201.783C913.508 196.917 892.131 184.426 875.337 153.175C874.501 151.62 872.618 150.959 871.002 151.668C869.465 152.341 868.652 154.041 869.102 155.658C872.091 166.39 885.279 204.753 924.795 222.704C923.163 249.379 920.777 279.097 917.315 310.383C923.508 311.235 929.831 311.685 936.258 311.685C942.687 311.685 949.009 311.235 955.203 310.383C953.867 298.313 952.687 286.471 951.654 274.953C992.64 272.576 1020.81 246.09 1028.46 238.047C1029.66 236.786 1029.65 234.806 1028.45 233.554C1027.27 232.334 1025.35 232.232 1024.04 233.306V233.306Z" fill="#D85E41"/>
<path d="M978.081 117.028C968.894 117.028 960.409 111.397 954.187 101.172C948.347 91.5731 945.131 78.8949 945.131 65.4724C945.131 63.2422 946.939 61.4341 949.169 61.4341C951.399 61.4341 953.207 63.2422 953.207 65.4724C953.207 89.0408 964.598 108.952 978.081 108.952C985.441 108.952 992.68 102.808 997.442 92.5181C998.378 90.4946 1000.78 89.6121 1002.8 90.5496C1004.83 91.4865 1005.71 93.8863 1004.77 95.9109C998.56 109.331 988.832 117.028 978.081 117.028Z" fill="#A3EA6E"/>
<path d="M1028.47 238.047C1029.66 236.786 1029.65 234.806 1028.45 233.554C1027.27 232.334 1025.35 232.232 1024.04 233.307C989.917 261.227 958.771 257.281 950.009 255.41C932.171 249.031 924.795 222.705 924.795 222.705C923.163 249.38 920.777 279.098 917.314 310.384C923.509 311.235 929.831 311.685 936.259 311.685C942.687 311.685 949.009 311.235 955.203 310.383C953.867 298.313 952.687 286.471 951.654 274.953C992.64 272.576 1020.81 246.09 1028.47 238.047V238.047Z" fill="#C04A27"/>
</g>
<defs>
<clipPath id="clip0">
<rect width="1152" height="236" fill="white"/>
</clipPath>
</defs>
</svg>
