<svg width="1152" height="236" viewBox="0 0 1152 236" fill="none" xmlns="http://www.w3.org/2000/svg">
<path d="M1152 0H0V236H1152V0Z" fill="url(#paint0_linear)"/>
<path d="M948.627 209.437C953.944 209.437 958.254 205.309 958.254 200.218C958.254 195.127 953.944 191 948.627 191C943.31 191 939 195.127 939 200.218C939 205.309 943.31 209.437 948.627 209.437Z" fill="#B0EB81"/>
<path d="M339.627 205.437C344.944 205.437 349.254 201.309 349.254 196.218C349.254 191.127 344.944 187 339.627 187C334.31 187 330 191.127 330 196.218C330 201.309 334.31 205.437 339.627 205.437Z" fill="#B0EB81"/>
<path d="M205.627 162.437C210.944 162.437 215.254 158.309 215.254 153.218C215.254 148.127 210.944 144 205.627 144C200.31 144 196 148.127 196 153.218C196 158.309 200.31 162.437 205.627 162.437Z" fill="#B0EB81"/>
<path d="M432.965 224.454C429.541 224.454 426.767 221.799 426.767 218.524V154.649C426.767 151.374 429.54 148.719 432.965 148.719C436.391 148.719 439.163 151.374 439.163 154.649V218.524C439.163 221.799 436.39 224.454 432.965 224.454Z" fill="#674447"/>
<path d="M472 149.208C472 169.851 454.523 186.586 432.964 186.586C411.406 186.586 393.929 169.851 393.929 149.208C393.929 128.564 411.406 65.1052 432.964 65.1052C454.523 65.1052 472 128.563 472 149.208Z" fill="#43AB5F"/>
<path d="M432.963 65.1052C427.551 65.1052 422.398 69.1108 417.712 75.4279H417.713C437.445 75.4279 453.441 133.509 453.441 152.403C453.441 168.838 441.328 182.541 425.19 185.837C427.702 186.323 430.3 186.587 432.962 186.587C454.52 186.587 471.999 169.852 471.999 149.209C472 128.563 454.522 65.1052 432.963 65.1052Z" fill="#71BE63"/>
<path d="M722.965 224.454C719.541 224.454 716.767 221.799 716.767 218.524V154.649C716.767 151.374 719.54 148.719 722.965 148.719C726.391 148.719 729.163 151.374 729.163 154.649V218.524C729.163 221.799 726.39 224.454 722.965 224.454Z" fill="#674447"/>
<path d="M762 149.208C762 169.851 744.523 186.586 722.964 186.586C701.406 186.586 683.929 169.851 683.929 149.208C683.929 128.564 701.406 65.1052 722.964 65.1052C744.523 65.1052 762 128.563 762 149.208Z" fill="#43AB5F"/>
<path d="M722.963 65.1052C717.551 65.1052 712.398 69.1108 707.712 75.4279H707.713C727.445 75.4279 743.441 133.509 743.441 152.403C743.441 168.838 731.328 182.541 715.19 185.837C717.702 186.323 720.3 186.587 722.962 186.587C744.52 186.587 761.999 169.852 761.999 149.209C762 128.563 744.522 65.1052 722.963 65.1052Z" fill="#71BE63"/>
<path d="M94.5338 224.349C91.504 224.349 89.0498 221.694 89.0498 218.419V154.543C89.0498 151.268 91.5031 148.613 94.5338 148.613C97.5645 148.613 100.017 151.268 100.017 154.543V218.419C100.017 221.694 97.5636 224.349 94.5338 224.349Z" fill="#674447"/>
<path d="M129.071 149.103C129.071 169.746 113.609 186.481 94.5356 186.481C75.4623 186.481 60 169.746 60 149.103C60 128.459 75.4623 65 94.5356 65C113.609 65 129.071 128.458 129.071 149.103Z" fill="#43AB5F"/>
<path d="M94.5339 65C89.7459 65 85.1865 69.0055 81.041 75.3227H81.042C98.4996 75.3227 112.651 133.403 112.651 152.298C112.651 168.733 101.935 182.436 87.657 185.732C89.8798 186.218 92.1781 186.482 94.5329 186.482C113.606 186.482 129.07 169.747 129.07 149.104C129.071 128.458 113.607 65 94.5339 65Z" fill="#71BE63"/>
<path d="M892.036 191.349C888.612 191.349 885.838 188.694 885.838 185.419V121.543C885.838 118.268 888.611 115.613 892.036 115.613C895.462 115.613 898.234 118.268 898.234 121.543V185.419C898.234 188.694 895.461 191.349 892.036 191.349Z" fill="#674447"/>
<path d="M931.071 116.103C931.071 136.746 913.594 153.481 892.036 153.481C870.477 153.481 853 136.746 853 116.103C853 95.4593 870.477 32 892.036 32C913.594 32 931.071 95.4582 931.071 116.103Z" fill="#43AB5F"/>
<path d="M892.034 32C886.622 32 881.469 36.0055 876.783 42.3227H876.784C896.517 42.3227 912.512 100.403 912.512 119.298C912.512 135.733 900.399 149.436 884.261 152.732C886.774 153.218 889.371 153.482 892.033 153.482C913.592 153.482 931.07 136.747 931.07 116.104C931.071 95.4582 913.593 32 892.034 32Z" fill="#71BE63"/>
<path d="M269.036 191.349C265.612 191.349 262.838 188.694 262.838 185.419V121.543C262.838 118.268 265.611 115.613 269.036 115.613C272.462 115.613 275.234 118.268 275.234 121.543V185.419C275.234 188.694 272.461 191.349 269.036 191.349Z" fill="#674447"/>
<path d="M308.071 116.103C308.071 136.746 290.594 153.481 269.036 153.481C247.477 153.481 230 136.746 230 116.103C230 95.4593 247.477 32 269.036 32C290.594 32 308.071 95.4582 308.071 116.103Z" fill="#43AB5F"/>
<path d="M269.034 32C263.622 32 258.469 36.0055 253.783 42.3227H253.784C273.517 42.3227 289.512 100.403 289.512 119.298C289.512 135.733 277.399 149.436 261.261 152.732C263.774 153.218 266.371 153.482 269.033 153.482C290.592 153.482 308.07 136.747 308.07 116.104C308.071 95.4582 290.593 32 269.034 32Z" fill="#71BE63"/>
<path d="M1052.97 224.454C1049.54 224.454 1046.77 221.799 1046.77 218.524V154.649C1046.77 151.374 1049.54 148.719 1052.97 148.719C1056.39 148.719 1059.16 151.374 1059.16 154.649V218.524C1059.16 221.799 1056.39 224.454 1052.97 224.454Z" fill="#674447"/>
<path d="M1092 149.208C1092 169.851 1074.52 186.586 1052.96 186.586C1031.41 186.586 1013.93 169.851 1013.93 149.208C1013.93 128.564 1031.41 65.1052 1052.96 65.1052C1074.52 65.1052 1092 128.563 1092 149.208Z" fill="#43AB5F"/>
<path d="M1052.96 65.1052C1047.55 65.1052 1042.4 69.1108 1037.71 75.4279H1037.71C1057.45 75.4279 1073.44 133.509 1073.44 152.403C1073.44 168.838 1061.33 182.541 1045.19 185.837C1047.7 186.323 1050.3 186.587 1052.96 186.587C1074.52 186.587 1092 169.852 1092 149.209C1092 128.563 1074.52 65.1052 1052.96 65.1052Z" fill="#71BE63"/>
<path d="M797.627 144.437C802.944 144.437 807.254 140.309 807.254 135.218C807.254 130.127 802.944 126 797.627 126C792.31 126 788 130.127 788 135.218C788 140.309 792.31 144.437 797.627 144.437Z" fill="#71BE63"/>
<path d="M977.627 118.437C982.944 118.437 987.254 114.309 987.254 109.218C987.254 104.127 982.944 100 977.627 100C972.31 100 968 104.127 968 109.218C968 114.309 972.31 118.437 977.627 118.437Z" fill="#71BE63"/>
<path d="M350.627 65.4366C355.944 65.4366 360.254 61.3094 360.254 56.2183C360.254 51.1272 355.944 47 350.627 47C345.31 47 341 51.1272 341 56.2183C341 61.3094 345.31 65.4366 350.627 65.4366Z" fill="#71BE63"/>
<path d="M28.6272 191.437C33.9441 191.437 38.2543 187.309 38.2543 182.218C38.2543 177.127 33.9441 173 28.6272 173C23.3102 173 19 177.127 19 182.218C19 187.309 23.3102 191.437 28.6272 191.437Z" fill="#71BE63"/>
<path d="M803.627 209.437C808.944 209.437 813.254 205.309 813.254 200.218C813.254 195.127 808.944 191 803.627 191C798.31 191 794 195.127 794 200.218C794 205.309 798.31 209.437 803.627 209.437Z" fill="#71BE63"/>
<path d="M1113.63 182.437C1118.94 182.437 1123.25 178.309 1123.25 173.218C1123.25 168.127 1118.94 164 1113.63 164C1108.31 164 1104 168.127 1104 173.218C1104 178.309 1108.31 182.437 1113.63 182.437Z" fill="#71BE63"/>
<path d="M148.627 191.437C153.944 191.437 158.254 187.309 158.254 182.218C158.254 177.127 153.944 173 148.627 173C143.31 173 139 177.127 139 182.218C139 187.309 143.31 191.437 148.627 191.437Z" fill="#71BE63"/>
<defs>
<linearGradient id="paint0_linear" x1="634.5" y1="0" x2="634.5" y2="236" gradientUnits="userSpaceOnUse">
<stop stop-color="#B0EB81"/>
<stop offset="1" stop-color="#71BE63"/>
</linearGradient>
</defs>
</svg>
