<?xml version="1.0" encoding="UTF-8" standalone="no"?>
<svg
   xmlns:dc="http://purl.org/dc/elements/1.1/"
   xmlns:cc="http://creativecommons.org/ns#"
   xmlns:rdf="http://www.w3.org/1999/02/22-rdf-syntax-ns#"
   xmlns:svg="http://www.w3.org/2000/svg"
   xmlns="http://www.w3.org/2000/svg"
   xmlns:sodipodi="http://sodipodi.sourceforge.net/DTD/sodipodi-0.dtd"
   xmlns:inkscape="http://www.inkscape.org/namespaces/inkscape"
   width="128"
   height="128"
   viewBox="0 0 33.866666 33.866668"
   version="1.1"
   id="svg10997"
   inkscape:version="1.0.2-2 (e86c870879, 2021-01-15)"
   sodipodi:docname="drawing_icon.svg">
  <defs
     id="defs10991" />
  <sodipodi:namedview
     id="base"
     pagecolor="#ffffff"
     bordercolor="#666666"
     borderopacity="1.0"
     inkscape:pageopacity="0.0"
     inkscape:pageshadow="2"
     inkscape:zoom="1.979899"
     inkscape:cx="132.11208"
     inkscape:cy="172.84588"
     inkscape:document-units="mm"
     inkscape:current-layer="layer1"
     inkscape:document-rotation="0"
     showgrid="false"
     units="px"
     inkscape:window-width="1416"
     inkscape:window-height="1009"
     inkscape:window-x="104"
     inkscape:window-y="1080"
     inkscape:window-maximized="0" />
  <metadata
     id="metadata10994">
    <rdf:RDF>
      <cc:Work
         rdf:about="">
        <dc:format>image/svg+xml</dc:format>
        <dc:type
           rdf:resource="http://purl.org/dc/dcmitype/StillImage" />
        <dc:title></dc:title>
      </cc:Work>
    </rdf:RDF>
  </metadata>
  <g
     inkscape:label="Layer 1"
     inkscape:groupmode="layer"
     id="layer1">
    <g
       id="XMLID_1_"
       transform="matrix(0.06487166,0,0,0.06438737,0.51009296,0.43995072)">
      <g
         id="XMLID_3556_">
        <path
           id="XMLID_1656_"
           d="m 46.5,320 c 0,0 63,-51.3 85.5,-3.6 0,0 -34,61.1 -85.5,3.6 z"
           fill="#47b85b" />
        <path
           id="XMLID_2206_"
           d="M 46.5,320 C 98,377.5 132,316.4 132,316.4 Z"
           fill="#399349" />
        <g
           id="XMLID_1654_">
          <path
             id="XMLID_2207_"
             d="m 175.3,387.4 -10,-0.7 C 173.4,274.5 133,201.6 132.6,200.9 l 8.7,-4.9 c 0.4,0.8 10.8,19.3 20.2,52.3 8.8,30.2 18.2,78.9 13.8,139.1 z"
             fill="#2b6e37" />
        </g>
        <path
           id="XMLID_1658_"
           d="m 91.4,56 c 30.4,0 32,43.2 32,43.2 0,0 15.2,-31.2 42.4,-21.6 27.2,9.6 -13.6,50.4 -13.6,50.4 0,0 52.8,-24 52.8,11.2 0,35.2 -52,33.6 -52,33.6 0,0 55.6,14 28.8,40.8 C 155,240.4 137,198.4 137,198.4 c 0,0 19.2,57.6 -18.4,57.6 -37.6,0 -20.8,-47.1 -20.8,-47.1 0,0 -36,50.3 -59.2,27.1 -23.2,-23.2 20,-48.8 20,-48.8 C 58.6,187.2 5,200 5,164 5,128 56.2,136 56.2,136 56.2,136 22.1,120 30.1,96.8 38.1,73.6 77,98.4 77,98.4 77,98.4 61,56 91.4,56 Z"
           fill="#ffe3a8" />
        <path
           id="XMLID_2296_"
           d="M 205,139.2 C 205,104 152.2,128 152.2,128 c 0,0 40.8,-40.8 13.6,-50.4 -4.3,-1.5 -8.4,-2 -12.1,-1.8 C 145.6,137.3 100.2,187 41,201.6 32.5,211 26.5,223.8 38.6,236 c 23.2,23.2 59.2,-27.1 59.2,-27.1 0,0 -16.8,47.1 20.8,47.1 37.6,0 18.4,-57.6 18.4,-57.6 0,0 18,42 44.8,15.2 26.8,-26.8 -28.8,-40.8 -28.8,-40.8 0,0 52,1.6 52,-33.6 z"
           fill="#ffcb5c" />
        <path
           id="XMLID_1651_"
           d="M 268.7,457 282.3,258.6 465.6,296.9 392,457 Z"
           fill="#3179af" />
        <path
           id="XMLID_2578_"
           d="M 344,271.5 331.8,328 c -3.5,16.2 6.8,32.2 23,35.6 2.1,0.5 4.2,0.7 6.3,0.7 13.8,0 26.3,-9.6 29.3,-23.7 l 12.3,-56.9 z"
           fill="#265e87" />
        <g
           id="XMLID_1649_">
          <path
             id="XMLID_1650_"
             d="m 358,349 c -8.1,-1.7 -13.2,-9.7 -11.5,-17.8 l 35.2,-163.3 29.3,6.3 -35.2,163.3 c -1.7,8.1 -9.7,13.2 -17.8,11.5 z"
             fill="#3179af" />
        </g>
        <path
           id="XMLID_1660_"
           d="m 507,507 c 0,0 -24,-84 -106.7,-55.3 0,0 -37.3,-36.7 -71.3,-36.7 -34,0 -76.7,18 -76.7,18 0,0 -52,-46 -82,-46 -30,0 -46,40.7 -94,60 C 28.3,466.3 5,507 5,507 Z"
           fill="#f89720" />
        <circle
           id="XMLID_1659_"
           cx="105"
           cy="156"
           fill="#f89720"
           r="35" />
        <path
           id="XMLID_2323_"
           d="m 121.1,124.9 c 2.5,4.8 3.9,10.3 3.9,16.1 0,19.3 -15.7,35 -35,35 -5.8,0 -11.3,-1.4 -16.1,-3.9 5.8,11.2 17.6,18.9 31.1,18.9 19.3,0 35,-15.7 35,-35 0,-13.5 -7.7,-25.3 -18.9,-31.1 z"
           fill="#df7e07" />
        <path
           id="XMLID_1657_"
           d="m 254.9,223.7 c 0,0 -68.1,-18.6 -63.7,47 0.1,0 55.6,25 63.7,-47 z"
           fill="#47b85b" />
        <path
           id="XMLID_2166_"
           d="m 254.9,223.7 -63.7,47 c 0.1,0 55.6,25 63.7,-47 z"
           fill="#399349" />
        <g
           id="XMLID_1655_">
          <path
             id="XMLID_2205_"
             d="m 189.4,232.8 h 10 v 71.1 h -10 z"
             fill="#2b6e37"
             transform="matrix(0.594,0.805,-0.805,0.594,294.804,-47.439)" />
        </g>
        <g
           id="XMLID_1653_">
          <path
             id="XMLID_2201_"
             d="m 124.2,276.5 h 10 v 79.9 h -10 z"
             fill="#2b6e37"
             transform="matrix(0.043,0.999,-0.999,0.043,439.869,173.94)" />
        </g>
        <path
           id="XMLID_2618_"
           d="m 372.7,209.5 29.3,6.6 9,-41.9 -29.3,-6.4 z"
           fill="#265e87" />
        <path
           id="XMLID_1652_"
           d="M 388.5,33.4 361,186.4 421.6,200 456.1,47.1 C 461,25.5 444.6,5 422.5,5 c -16.7,0 -31,12 -34,28.4 z"
           fill="#f89720" />
        <path
           id="XMLID_1648_"
           d="m 432.5,151.8 -62.9,-13.3 -3.1,17.4 62.4,11.9 z"
           fill="#df7e07" />
        <path
           id="XMLID_1647_"
           d="m 441.1,113.6 -64.4,-14.4 -3.4,18.8 63.8,13.3 z"
           fill="#df7e07" />
        <ellipse
           id="XMLID_2612_"
           cx="407"
           cy="54.799999"
           fill="#faae52"
           rx="14"
           ry="31.299999"
           transform="matrix(0.988,0.154,-0.154,0.988,13.285,-62.021)" />
        <path
           id="XMLID_2645_"
           d="m 205.7,468.3 c 0,0 24,-24.3 46.7,-35.3 0,0 -18.5,-16.3 -39.8,-29.5 -20.8,37.2 -6.9,64.8 -6.9,64.8 z"
           fill="#df7e07" />
      </g>
      <g
         id="XMLID_3206_">
        <g
           id="XMLID_390_">
          <path
             id="XMLID_2806_"
             d="M 507,512 H 5 c -1.8,0 -3.4,-1 -4.3,-2.5 -0.9,-1.5 -0.9,-3.4 0,-5 1,-1.7 24.8,-42.4 73.8,-62.1 22.5,-9.1 37.7,-23 51.1,-35.3 14.7,-13.5 27.4,-25.1 44.8,-25.1 28.1,0 72.2,36 83,45.2 10.3,-4.1 45.9,-17.2 75.7,-17.2 31.1,0 63.8,27.9 72.6,36 24.6,-7.9 46.6,-6.9 65.5,2.9 33.1,17.2 44.3,55.2 44.7,56.8 0.4,1.5 0.1,3.1 -0.8,4.4 -1.1,1.2 -2.5,1.9 -4.1,1.9 z M 14.4,502 h 485.5 c -4.5,-10.9 -15.8,-33.1 -37.5,-44.3 -17.1,-8.8 -37.4,-9.3 -60.4,-1.3 -1.8,0.6 -3.8,0.2 -5.1,-1.2 -0.4,-0.4 -36.3,-35.2 -67.8,-35.2 -32.6,0 -74.3,17.4 -74.7,17.6 -1.8,0.7 -3.8,0.4 -5.3,-0.9 -0.5,-0.4 -50.9,-44.7 -78.7,-44.7 -13.5,0 -24.3,9.9 -38,22.5 -13.3,12.2 -29.9,27.4 -54.1,37.2 -33.7,13.5 -54.9,38 -63.9,50.3 z"
             fill="#4d2419" />
        </g>
        <g
           id="XMLID_389_">
          <path
             id="XMLID_2803_"
             d="m 105,196 c -22.1,0 -40,-17.9 -40,-40 0,-22.1 17.9,-40 40,-40 22.1,0 40,17.9 40,40 0,22.1 -17.9,40 -40,40 z m 0,-70 c -16.5,0 -30,13.5 -30,30 0,16.5 13.5,30 30,30 16.5,0 30,-13.5 30,-30 0,-16.5 -13.5,-30 -30,-30 z"
             fill="#4d2419" />
        </g>
        <g
           id="XMLID_391_">
          <path
             id="XMLID_2800_"
             d="m 118.6,261 c -11,0 -19.1,-3.6 -24.2,-10.7 -4.8,-6.8 -5.7,-15.7 -5.2,-23.7 -9,9.2 -21.7,19.4 -34.4,20.4 -7.5,0.6 -14.2,-1.9 -19.8,-7.5 -6.4,-6.4 -9.1,-13.5 -8.1,-21.3 1.2,-9.3 7.6,-17.6 14.2,-23.9 C 30.8,194.6 18.5,193.2 10,186.5 3.4,181.3 0,173.7 0,164 c 0,-10 3.4,-18 10.2,-23.8 7.9,-6.8 19,-9.1 28.4,-9.8 -9.3,-7.9 -18.5,-20.1 -13.3,-35.3 2.1,-5.9 6,-10.1 11.6,-12 9.9,-3.5 23,1 32.1,5.3 -1.7,-8.8 -2.5,-20.4 3.1,-28.6 2.8,-4 8.4,-8.8 19.2,-8.8 21.4,0 31.4,18.5 35.1,34.6 8.8,-10.1 23,-19.1 40.9,-12.8 8.4,3 11.3,8.5 12.2,12.5 2.2,9.9 -4.7,22.4 -11.8,31.9 10.6,-2.7 23.7,-4 32.5,1.7 4.4,2.8 9.5,8.6 9.5,20.2 0,9.5 -3.3,17.5 -9.8,23.8 -7.1,6.9 -16.9,10.6 -25.8,12.5 8.4,4.4 16.7,10.7 19.1,19.1 2.1,7.5 -0.7,15 -8.1,22.5 -8.3,8.3 -16.9,11.7 -25.5,10 -5.1,-1 -9.5,-3.6 -13.3,-6.9 1,10.5 0.2,22.4 -5.7,30.6 -4.7,6.9 -12.2,10.3 -22,10.3 z M 97.8,203.9 c 0.8,0 1.6,0.2 2.3,0.6 2.2,1.2 3.2,3.8 2.4,6.1 -2.2,6.3 -6.5,24.6 0.1,34 3.1,4.4 8.3,6.5 16,6.5 6.5,0 11.1,-2 14.1,-6.1 8.1,-11.3 2.5,-36.3 -0.4,-45 -0.8,-2.5 0.5,-5.3 3,-6.3 2.5,-1 5.3,0.2 6.4,2.7 2.2,5.2 10.2,19 20.1,20.9 5.2,1 10.8,-1.4 16.6,-7.3 4.7,-4.7 6.6,-9 5.6,-12.7 -2.5,-9.1 -21,-16.9 -32,-19.7 -2.5,-0.6 -4.1,-3 -3.7,-5.5 0.4,-2.5 2.5,-4.3 5.1,-4.3 0.3,0 27.1,0.6 40.1,-11.9 4.5,-4.4 6.8,-9.9 6.8,-16.7 0,-5.8 -1.6,-9.7 -5,-11.8 -9.9,-6.4 -33.4,1.8 -40.8,5.2 -2.2,1 -4.8,0.3 -6.2,-1.7 -1.4,-2 -1.1,-4.7 0.6,-6.4 9.3,-9.4 23.4,-27.6 21.3,-36.8 -0.3,-1.5 -1.3,-3.7 -5.8,-5.3 -22.6,-8 -35.7,18 -36.2,19.1 -1,2.1 -3.3,3.2 -5.5,2.7 -2.2,-0.5 -3.9,-2.4 -4,-4.7 0,-0.1 -0.4,-10.3 -4.3,-20.2 C 109.3,67.1 101.7,61 91.4,61 c -5.3,0 -8.9,1.5 -11,4.5 -5.5,8 -0.8,25.6 1.3,31.1 0.8,2 0.1,4.3 -1.5,5.6 -1.6,1.3 -4,1.5 -5.8,0.3 -6.2,-3.9 -24.4,-13.4 -34.1,-10 -2.6,0.9 -4.3,2.8 -5.4,5.8 -6.5,18.7 23.2,32.9 23.5,33 2.3,1.1 3.4,3.6 2.7,6 -0.7,2.4 -3.1,3.9 -5.6,3.5 -0.3,0 -26.1,-3.9 -38.7,6.9 -4.6,4 -6.8,9.3 -6.8,16.3 0,6.6 2,11.4 6.2,14.7 10.7,8.5 33.4,5.5 41.2,3.6 2.4,-0.6 4.9,0.7 5.8,3 0.9,2.3 0,4.9 -2.1,6.2 -6.2,3.7 -22.8,16 -24.3,28 -0.6,4.6 1.1,8.9 5.3,13 3.5,3.5 7.3,5 11.9,4.6 15.2,-1.2 33.8,-22.9 39.7,-31.1 1,-1.4 2.5,-2.1 4.1,-2.1 z"
             fill="#4d2419" />
        </g>
        <g
           id="XMLID_80_">
          <path
             id="XMLID_2795_"
             d="m 212.1,279.9 c -12.4,0 -22.3,-4.4 -22.9,-4.6 -1.7,-0.8 -2.8,-2.4 -2.9,-4.2 -1.4,-20.3 3.7,-35.3 15.1,-44.6 20.5,-16.8 53.5,-8 54.9,-7.6 2.4,0.7 3.9,2.9 3.6,5.4 -2.8,25.1 -11.6,42 -26,50.2 -7.2,4 -14.9,5.4 -21.8,5.4 z m -16,-12.7 c 6,2 20.6,5.6 32.9,-1.5 10.7,-6.1 17.5,-18.9 20.4,-38.1 -8.7,-1.6 -29,-3.8 -41.7,6.6 -8.2,6.7 -12.1,17.7 -11.6,33 z"
             fill="#4d2419" />
        </g>
        <g
           id="XMLID_2082_">
          <path
             id="XMLID_2794_"
             d="M 100.5,348.3 98,338.6 c 14.7,-3.8 24.8,-17.2 28.3,-22.5 -4.3,-7.9 -10.1,-12.6 -17.7,-14.3 -19.4,-4.4 -44.7,11.7 -54.6,18.8 9,9.2 17.9,15.1 26.5,17.6 l -2.8,9.6 c -11.6,-3.4 -23.4,-11.6 -34.9,-24.5 -0.9,-1 -1.4,-2.4 -1.3,-3.7 0.1,-1.4 0.8,-2.6 1.8,-3.5 1.5,-1.3 38.1,-30.7 67.5,-24.1 11.3,2.6 20,10 25.7,22.2 0.7,1.5 0.6,3.2 -0.2,4.6 -0.4,1 -13.3,23.6 -35.8,29.5 z"
             fill="#4d2419" />
        </g>
        <g
           id="XMLID_395_">
          <path
             id="XMLID_2793_"
             d="m 189.4,232.8 h 10 v 71.1 h -10 z"
             fill="#4d2419"
             transform="matrix(0.594,0.805,-0.805,0.594,294.804,-47.439)" />
        </g>
        <g
           id="XMLID_392_">
          <path
             id="XMLID_2792_"
             d="m 175.3,387.4 -10,-0.7 C 173.4,274.5 133,201.6 132.6,200.9 l 8.7,-4.9 c 0.4,0.8 10.8,19.3 20.2,52.3 8.8,30.2 18.2,78.9 13.8,139.1 z"
             fill="#4d2419" />
        </g>
        <g
           id="XMLID_2_">
          <path
             id="XMLID_2791_"
             d="m 124.2,276.5 h 10 v 79.9 h -10 z"
             fill="#4d2419"
             transform="matrix(0.043,0.999,-0.999,0.043,439.869,173.94)" />
        </g>
        <g
           id="XMLID_357_">
          <path
             id="XMLID_2787_"
             d="m 421.7,205 c -0.4,0 -0.7,0 -1.1,-0.1 L 360,191.3 c -2.6,-0.6 -4.3,-3.1 -3.8,-5.8 l 27.5,-153 C 387,13.7 403.4,0 422.5,0 c 12.1,0 23.3,5.4 30.9,14.8 7.6,9.4 10.3,21.6 7.7,33.4 l -34.5,152.9 c -0.6,2.3 -2.7,3.9 -4.9,3.9 z m -54.9,-22.4 51.1,11.5 33.4,-148 c 2,-8.8 -0.1,-17.9 -5.7,-24.9 -5.6,-7 -14,-11.1 -23,-11.1 -14.3,0 -26.5,10.2 -29,24.3 z"
             fill="#4d2419" />
        </g>
        <g
           id="XMLID_397_">
          <g
             id="XMLID_2012_">
            <path
               id="XMLID_2786_"
               d="m 361.1,354.3 c -1.4,0 -2.8,-0.1 -4.2,-0.5 -10.8,-2.3 -17.7,-13 -15.3,-23.8 l 26.1,-121.2 9.8,2.1 -26.1,121.2 c -1.2,5.4 2.3,10.7 7.7,11.9 5.4,1.2 10.7,-2.3 11.9,-7.7 l 30.4,-141 9.8,2.1 -30.4,141 c -2.1,9.5 -10.4,15.9 -19.7,15.9 z"
               fill="#4d2419" />
          </g>
        </g>
        <g
           id="XMLID_27_">
          <path
             id="XMLID_2785_"
             d="m 368,140.1 h 65.2 v 10 H 368 Z"
             fill="#4d2419"
             transform="matrix(0.979,0.206,-0.206,0.979,38.564,-79.56)" />
        </g>
        <g
           id="XMLID_398_">
          <path
             id="XMLID_2784_"
             d="m 375,101.3 h 66.9 v 10 H 375 Z"
             fill="#4d2419"
             transform="matrix(0.976,0.219,-0.219,0.976,33.115,-86.714)" />
        </g>
        <g
           id="XMLID_2642_">
          <path
             id="XMLID_2085_"
             d="m 209.2,471.8 -7.1,-7 c 1,-1 24.9,-25.1 48,-36.3 l 4.4,9 c -21.6,10.5 -45,34.1 -45.3,34.3 z"
             fill="#4d2419" />
        </g>
        <g
           id="XMLID_2014_">
          <path
             id="XMLID_1524_"
             d="m 275.8,426.6 -10,-0.7 11.6,-167.7 c 0.1,-1.4 0.8,-2.8 2,-3.6 1.2,-0.9 2.6,-1.2 4,-0.9 l 76.4,15.9 -2,9.8 -70.7,-14.8 z"
             fill="#4d2419" />
        </g>
        <g
           id="XMLID_396_">
          <path
             id="XMLID_1491_"
             d="m 400.7,450 -9.1,-4.2 66.8,-145.3 -71.4,-14.9 2,-9.8 77.6,16.2 c 1.5,0.3 2.8,1.3 3.4,2.6 0.7,1.4 0.7,3 0.1,4.3 z"
             fill="#4d2419" />
        </g>
      </g>
    </g>
  </g>
</svg>
