<svg width="680" height="155" viewBox="0 0 680 155" fill="none" xmlns="http://www.w3.org/2000/svg">
<path d="M93.4751 97.8256C93.4751 97.8256 84.6316 44.8296 153.073 44.8296C153.073 44.8296 152.688 70.3764 137.693 83.6593C122.697 96.9423 93.4751 97.8256 93.4751 97.8256Z" fill="#47B85B"/>
<path d="M153.073 44.8296C153.073 44.8296 152.688 70.4103 137.693 83.6593C122.697 96.9083 93.4751 97.8256 93.4751 97.8256C106.433 77.0688 123.889 62.9365 136.462 54.3757C143.845 49.3478 153.073 44.8296 153.073 44.8296Z" fill="#399349"/>
<path d="M73.4811 71.3275C73.4811 71.3275 82.3246 18.3315 13.8835 18.3315C13.8835 18.3315 14.268 43.8783 29.2636 57.1613C44.2591 70.4442 73.4811 71.3275 73.4811 71.3275Z" fill="#47B85B"/>
<path d="M73.4811 71.3275C73.4811 71.3275 44.2206 70.4103 29.2636 57.1613C14.268 43.9123 13.8835 18.3315 13.8835 18.3315C13.8835 18.3315 26.9566 24.8881 32.1473 28.1154C46.643 37.1859 65.8295 52.0315 73.4811 71.3275Z" fill="#399349"/>
<path d="M85.4007 155L81.5557 154.83C81.5941 154.321 84.4779 104.178 71.674 71.9051C64.2147 53.0507 45.4511 38.4768 31.0323 29.5423L33.224 26.7566C48.1042 35.9629 67.483 51.0804 75.2883 70.784C88.3614 103.669 85.4391 154.49 85.4007 155Z" fill="#2B6E37"/>
<path d="M27.4716 34.6465L44.6587 34.9958L44.5703 38.393L27.3831 38.0437L27.4716 34.6465Z" fill="#2B6E37"/>
<path d="M57.4971 36.2869L59.2489 47.565L55.4385 48.027L53.6867 36.7489L57.4971 36.2869Z" fill="#2B6E37"/>
<path d="M48.3113 53.8247L64.268 53.8952L64.2488 57.2924L48.2921 57.2219L48.3113 53.8247Z" fill="#2B6E37"/>
<path d="M84.324 115.865L80.9789 114.2C84.3625 108.832 87.9768 103.057 91.7833 96.9763C105.01 75.8459 122.736 61.4079 135.309 53.0168L137.616 55.7346C125.35 63.9218 108.048 78.02 95.1669 98.6409C91.3604 104.722 87.7076 110.497 84.324 115.865Z" fill="#2B6E37"/>
<path d="M142.118 60.8831L142.441 64.2701L123.772 65.6598L123.449 62.2728L142.118 60.8831Z" fill="#2B6E37"/>
<path d="M113.941 62.8499L115.726 72.3293L111.935 72.8864L110.15 63.407L113.941 62.8499Z" fill="#2B6E37"/>
<path d="M125.197 79.1982L125.512 82.5852L104.965 84.0783L104.649 80.6914L125.197 79.1982Z" fill="#2B6E37"/>
<path d="M65.5219 72.3467C56.0248 71.1577 38.53 67.7945 27.8794 58.3504C12.5378 44.7617 11.9611 19.4187 11.9611 18.3656C11.9611 17.924 12.1533 17.4824 12.4994 17.1426C12.8454 16.8029 13.3837 16.6331 13.8836 16.6331C36.1077 16.6331 52.7181 22.1365 63.2918 32.9395C78.941 48.9742 75.5574 70.6482 75.4036 71.5654L71.5971 71.0558L73.4811 71.2936L71.5971 71.0558C71.6355 70.852 74.8653 49.9594 60.3696 35.1137C50.8725 25.4317 35.9154 20.37 15.883 20.0302C16.3059 25.9073 18.5745 45.2712 30.6093 55.9384C40.4525 64.6691 57.0629 67.8285 66.0602 68.9496L65.5219 72.3467Z" fill="#4D2419"/>
<path d="M93.4752 99.524C92.5139 99.524 91.7065 98.9125 91.5912 98.0632C91.4374 97.146 88.0153 75.472 103.703 59.4373C114.238 48.6343 130.849 43.1309 153.073 43.1309C153.573 43.1309 154.072 43.3007 154.457 43.6404C154.841 43.9802 155.034 44.3878 154.995 44.8634C154.995 45.9505 154.418 71.2595 139.038 84.8482C123.697 98.4369 94.7441 99.49 93.5137 99.524H93.4752ZM151.073 46.528C131.041 46.8338 116.122 51.9295 106.625 61.6115C94.398 74.0791 94.7825 90.8612 95.2055 95.991C101.704 95.5493 124.158 93.2053 136.347 82.4362C148.382 71.803 150.65 52.4391 151.073 46.528V46.528Z" fill="#4D2419"/>
<path d="M85.4007 155L81.5557 154.83C81.5941 154.321 84.4779 104.178 71.674 71.9051C64.2147 53.0507 45.4511 38.4768 31.0323 29.5423L33.224 26.7566C48.1042 35.9629 67.483 51.0804 75.2883 70.784C88.3614 103.669 85.4391 154.49 85.4007 155Z" fill="#4D2419"/>
<path d="M27.4716 34.6465L44.6587 34.9958L44.5703 38.393L27.3831 38.0437L27.4716 34.6465Z" fill="#4D2419"/>
<path d="M57.4971 36.2869L59.2489 47.565L55.4385 48.027L53.6867 36.7489L57.4971 36.2869Z" fill="#4D2419"/>
<path d="M48.3113 53.8247L64.268 53.8952L64.2488 57.2924L48.2921 57.2219L48.3113 53.8247Z" fill="#4D2419"/>
<path d="M84.324 115.865L80.9789 114.2C84.3625 108.832 87.9768 103.057 91.7833 96.9763C105.01 75.8459 122.736 61.4079 135.309 53.0168L137.616 55.7346C125.35 63.9218 108.048 78.02 95.1669 98.6409C91.3604 104.722 87.7076 110.497 84.324 115.865Z" fill="#4D2419"/>
<path d="M142.118 60.8831L142.441 64.2701L123.772 65.6598L123.449 62.2728L142.118 60.8831Z" fill="#4D2419"/>
<path d="M113.941 62.8499L115.726 72.3293L111.935 72.8864L110.15 63.407L113.941 62.8499Z" fill="#4D2419"/>
<path d="M125.197 79.1982L125.512 82.5852L104.965 84.0783L104.649 80.6914L125.197 79.1982Z" fill="#4D2419"/>
<path d="M179.516 119.875V102.375H190.781C198.984 102.375 203.906 98.1094 203.906 91.1094C203.906 84.2188 199.094 79.9531 190.781 79.9531H174.922V119.875H179.516ZM179.516 83.7812H190.453C196.359 83.7812 199.312 86.4062 199.312 91.1094C199.312 95.9219 196.359 98.5469 190.453 98.5469H179.516V83.7812ZM217.688 78.6406H213.203V119.875H217.688V78.6406ZM246.781 96.5781C245.031 93.0781 241.641 91 237.266 91C229.828 91 224.797 97.0156 224.797 105.766C224.797 114.516 229.719 120.312 237.266 120.312C241.641 120.312 245.141 118.344 246.781 114.734V119.875H251.266V91.6562H246.781V96.5781ZM246.781 105.656C246.781 112.547 243.719 116.484 238.141 116.484C232.562 116.484 229.391 112.656 229.391 105.766C229.391 98.875 232.562 94.8281 238.141 94.8281C243.719 94.8281 246.781 98.6562 246.781 105.656ZM282.547 102.156C282.547 94.7188 279.156 91 272.375 91C268 91 264.391 93.0781 262.641 96.7969L262.203 91.6562H257.938C258.156 94.0625 258.375 96.6875 258.375 99.6406V119.875H262.859V103.797C262.859 98.3281 266.359 94.8281 271.5 94.8281C275.984 94.8281 278.062 97.2344 278.062 102.375V119.875H282.547V102.156ZM304.969 91.6562H296.875V82.9062L292.391 84.4375V91.6562H286.922V95.2656H292.391V111.344C292.391 117.141 295.562 120.312 300.922 120.312C302.344 120.312 303.656 120.094 304.859 119.656V115.828C303.875 116.156 302.891 116.375 301.797 116.375C298.734 116.375 296.875 114.844 296.875 110.688V95.2656H304.969V91.6562ZM308.141 115.281C311.75 118.672 316.781 120.312 323.016 120.312C331.984 120.312 337.672 115.828 337.672 109.047C337.672 104.453 334.828 101.719 330.781 100.406C328.812 99.75 326.188 98.875 322.797 98.1094C316.453 96.5781 313.391 94.9375 313.391 90.8906C313.391 86.2969 317.109 83.4531 323.344 83.4531C327.828 83.4531 331.547 84.9844 335.266 88.1562L337.125 84.5469C333.844 81.2656 328.922 79.5156 323.344 79.5156C314.594 79.5156 308.797 84.2188 308.797 91.1094C308.797 95.8125 311.531 98.6562 315.469 100.297C317.438 101.062 319.953 101.719 323.016 102.484C329.578 104.016 332.969 105 333.078 109.266C333.188 113.75 329.469 116.375 323.016 116.375C317.656 116.375 313.828 115.062 309.781 111.781L308.141 115.281ZM366.875 91.6562H362.828L354.625 114.406L346.641 91.6562H341.938L352.328 119.875H356.703L364.688 97.8906L372.781 119.875H377.156L387.547 91.6562H383.062L374.969 114.516L366.875 91.6562ZM413.797 96.5781C412.047 93.0781 408.656 91 404.281 91C396.844 91 391.812 97.0156 391.812 105.766C391.812 114.516 396.734 120.312 404.281 120.312C408.656 120.312 412.156 118.344 413.797 114.734V119.875H418.281V91.6562H413.797V96.5781ZM413.797 105.656C413.797 112.547 410.734 116.484 405.156 116.484C399.578 116.484 396.406 112.656 396.406 105.766C396.406 98.875 399.578 94.8281 405.156 94.8281C410.734 94.8281 413.797 98.6562 413.797 105.656ZM451.969 105.766C451.969 97.0156 446.938 91 439.391 91C434.797 91 431.297 93.2969 429.656 97.125L429.219 91.6562H424.953C425.172 94.0625 425.391 96.6875 425.391 99.6406V132.016H429.875V114.625C431.625 118.234 435.016 120.312 439.391 120.312C446.938 120.312 451.969 114.516 451.969 105.766ZM447.266 105.766C447.266 112.656 444.094 116.484 438.625 116.484C433.047 116.484 429.875 112.547 429.875 105.656C429.875 98.6562 433.047 94.8281 438.625 94.8281C443.984 94.8281 447.266 98.875 447.266 105.766ZM465.312 119.875V114.078H459.516V119.875H465.312ZM479.312 87.9375C479.312 83.8906 481.172 82.3594 484.125 82.3594C485 82.3594 485.984 82.4688 486.969 82.7969V78.9688C485.766 78.6406 484.453 78.4219 483.25 78.4219C477.891 78.4219 474.828 81.4844 474.828 87.3906V91.6562H469.359V95.2656H474.828V119.875H479.312V95.2656H486.203V91.6562H479.312V87.9375ZM496.812 84.875V79.7344H491.344V84.875H496.812ZM496.266 91.6562H491.781V119.875H496.266V91.6562ZM529.297 102.156C529.297 94.7188 525.906 91 519.125 91C514.75 91 511.141 93.0781 509.391 96.7969L508.953 91.6562H504.688C504.906 94.0625 505.125 96.6875 505.125 99.6406V119.875H509.609V103.797C509.609 98.3281 513.109 94.8281 518.25 94.8281C522.734 94.8281 524.812 97.2344 524.812 102.375V119.875H529.297V102.156ZM557.953 96.5781C556.203 93.0781 552.812 91 548.438 91C541 91 535.969 97.0156 535.969 105.766C535.969 114.516 540.891 120.312 548.438 120.312C552.812 120.312 556.312 118.344 557.953 114.734V119.875H562.438V91.6562H557.953V96.5781ZM557.953 105.656C557.953 112.547 554.891 116.484 549.312 116.484C543.734 116.484 540.562 112.656 540.562 105.766C540.562 98.875 543.734 94.8281 549.312 94.8281C554.891 94.8281 557.953 98.6562 557.953 105.656ZM593.719 102.156C593.719 94.7188 590.328 91 583.547 91C579.172 91 575.562 93.0781 573.812 96.7969L573.375 91.6562H569.109C569.328 94.0625 569.547 96.6875 569.547 99.6406V119.875H574.031V103.797C574.031 98.3281 577.531 94.8281 582.672 94.8281C587.156 94.8281 589.234 97.2344 589.234 102.375V119.875H593.719V102.156ZM600.391 105.766C600.391 114.516 605.641 120.312 613.844 120.312C617.672 120.312 621.609 118.891 624.016 116.594L622.484 113.312C619.641 115.5 617.016 116.484 614.281 116.484C608.484 116.484 605.094 112.547 605.094 105.766C605.094 98.875 608.484 94.8281 614.281 94.8281C617.016 94.8281 619.641 95.8125 622.484 98.1094L624.016 94.7188C621.719 92.4219 617.891 91 614.062 91C605.75 91 600.391 97.0156 600.391 105.766ZM654.641 104.781C654.641 96.25 650.156 91 642.719 91C634.953 91 629.484 97.0156 629.484 105.656C629.484 114.734 634.734 120.312 643.594 120.312C647.531 120.312 651.688 118.781 654.203 116.484L652.672 113.203C649.938 115.391 646.875 116.484 643.594 116.484C637.359 116.484 634.078 112.766 634.078 105.656H654.641V104.781ZM634.188 102.703C635.062 97.5625 638.016 94.6094 642.719 94.6094C647.422 94.6094 650.156 97.3438 650.594 102.703H634.188Z" fill="#4D2419"/>
</svg>
