<svg id="Layer_1" enable-background="new 0 0 512 512" height="512" viewBox="0 0 512 512" width="512" xmlns="http://www.w3.org/2000/svg"><g><path d="m304.2 0c-19.301 0-36.598 8.706-48.2 22.387-11.602-13.681-28.899-22.387-48.2-22.387-34.849 0-63.2 28.352-63.2 63.2s28.352 63.2 63.2 63.2h96.4c34.849 0 63.2-28.351 63.2-63.2s-28.351-63.2-63.2-63.2z" fill="#e1ebf0"/><path d="m367.4 63.2c0-34.849-28.352-63.2-63.2-63.2-19.301 0-36.598 8.706-48.2 22.387v104.013h48.2c34.849 0 63.2-28.351 63.2-63.2z" fill="#cddce6"/><path d="m117.567 459.03h276.867c42.543-38.078 69.366-93.377 69.366-154.83 0-51.2-18.811-100.401-52.966-138.541-2.845-3.177-6.908-4.993-11.174-4.993h-287.32c-4.266 0-8.329 1.816-11.174 4.993-34.155 38.14-52.966 87.341-52.966 138.541 0 61.454 26.823 116.752 69.367 154.83z" fill="#324b5f"/><path d="m463.8 304.2c0-51.2-18.811-100.401-52.966-138.541-2.845-3.177-6.908-4.993-11.174-4.993h-143.66v298.364h138.433c42.544-38.078 69.367-93.376 69.367-154.83z" fill="#1e323c"/><path d="m223.866 509.329c-.827 0-1.658-.068-2.487-.208-38.646-6.497-74.58-23.818-103.919-50.091-3.178-2.845-4.993-6.909-4.993-11.174v-272.189c0-8.284 6.716-15 15-15h96.399c8.284 0 15 6.716 15 15v318.663c0 4.413-1.943 8.602-5.312 11.452-2.728 2.307-6.167 3.547-9.688 3.547z" fill="#ff405c"/><path d="m288.134 509.329c-3.521 0-6.959-1.24-9.688-3.548-3.369-2.85-5.312-7.039-5.312-11.452v-318.662c0-8.284 6.716-15 15-15h96.399c8.284 0 15 6.716 15 15v272.189c0 4.265-1.815 8.329-4.993 11.174-29.341 26.275-65.276 43.596-103.92 50.091-.828.14-1.66.208-2.486.208z" fill="#e20059"/><path d="m256 512c-11.612 0-23.261-.968-34.621-2.878-7.223-1.214-12.513-7.468-12.513-14.792v-318.663c0-8.284 6.716-15 15-15h64.268c8.284 0 15 6.716 15 15v318.663c0 7.325-5.29 13.578-12.513 14.792-11.36 1.91-23.009 2.878-34.621 2.878z" fill="#e1ebf0"/><path d="m303.134 494.329v-318.662c0-8.284-6.716-15-15-15h-32.134v351.333c11.612 0 23.261-.968 34.621-2.878 7.223-1.215 12.513-7.468 12.513-14.793z" fill="#cddce6"/><path d="m208.866 190.667h-113.533c-8.284 0-15-6.716-15-15v-64.267c0-8.284 6.716-15 15-15h128.533c8.284 0 15 6.716 15 15v49.267c0 16.568-13.431 30-30 30z" fill="#ff7038"/><path d="m416.667 190.667h-113.533c-16.569 0-30-13.431-30-30v-49.267c0-8.284 6.716-15 15-15h128.533c8.284 0 15 6.716 15 15v64.267c0 8.284-6.716 15-15 15z" fill="#ff405c"/><path d="m303.134 190.667h-94.268v-79.267c0-8.284 6.716-15 15-15h64.268c8.284 0 15 6.716 15 15z" fill="#f5fafa"/><path d="m303.134 111.4c0-8.284-6.716-15-15-15h-32.134v94.267h47.134z" fill="#e1ebf0"/></g></svg>