<svg width="400" height="512" viewBox="0 0 400 512" fill="none" xmlns="http://www.w3.org/2000/svg">
<g clip-path="url(#clip0)">
<path d="M174.469 15.187L142.04 32.7674V35.522C141.102 35.1748 140.116 34.9469 139.17 34.9692C138.158 34.9956 137.359 35.7875 137.388 36.7386C137.416 37.6891 138.267 38.4364 139.272 38.4123C140.005 38.3923 141.037 38.7982 142.04 39.3411V40.1706C141.022 40.2193 140.001 40.365 139.117 40.6734C138.168 41.0048 137.684 41.9958 138.036 42.8876C138.311 43.5819 139.012 44.0108 139.756 44.0108C139.968 44.0108 140.184 43.9761 140.395 43.9027C140.841 43.747 141.414 43.6613 142.04 43.6231V44.6464L139.644 45.8701C138.754 46.3248 138.425 47.3705 138.909 48.2059C139.242 48.7804 139.871 49.1058 140.522 49.1058C140.818 49.1058 141.118 49.0383 141.396 48.8961L142.04 48.5671V49.6622L142.004 49.6445C141.109 49.1987 139.999 49.5182 139.524 50.3589C139.057 51.1849 139.38 52.2053 140.242 52.6629C139.685 52.8897 139.071 53.0953 138.414 53.2427C137.428 53.463 136.82 54.3918 137.055 55.3171C137.255 56.1078 138.008 56.6406 138.837 56.6406C138.978 56.6406 139.12 56.6253 139.263 56.593C140.283 56.3651 141.219 56.0367 142.04 55.6807V56.3504C141.018 57.164 139.811 58.1275 139.312 58.5375C138.55 59.1638 138.472 60.2517 139.139 60.9679C139.502 61.3568 140.01 61.5559 140.521 61.5559C140.949 61.5559 141.38 61.4155 141.727 61.1294C141.811 61.0607 141.917 60.9749 142.04 60.8756V62.4653C140.937 62.7813 139.834 63.0645 139.486 63.0992C138.492 63.1191 137.692 63.8823 137.692 64.8204C137.692 65.7721 138.514 66.5429 139.526 66.5429C139.773 66.5429 140.121 66.4947 140.529 66.4154C140.013 66.7256 139.541 67.0751 139.163 67.4658C138.481 68.1695 138.537 69.2587 139.286 69.8984C139.637 70.1986 140.079 70.3461 140.519 70.3461C141.018 70.3461 141.515 70.1563 141.877 69.7821C142.34 69.3039 143.355 68.8287 144.401 68.455L144.618 68.5725C144.08 68.7899 143.583 69.056 143.166 69.3821C142.388 69.9907 142.284 71.0769 142.932 71.8077C143.295 72.2166 143.816 72.4275 144.342 72.4269C144.756 72.4269 145.172 72.2965 145.515 72.028C146.164 71.5198 147.831 71.2285 149.31 71.1162L149.651 71.3007C149.413 71.3553 149.17 71.41 148.915 71.4623C147.925 71.6661 147.3 72.5849 147.517 73.5137C147.705 74.3185 148.464 74.8672 149.307 74.8672C149.437 74.8672 149.569 74.8543 149.701 74.8267C151.558 74.4442 153.04 73.9883 153.996 73.6564L155.319 74.3743C154.646 74.715 153.984 75.0793 153.4 75.4505C152.561 75.9839 152.341 77.0549 152.909 77.8421C153.264 78.3338 153.842 78.5987 154.43 78.5987C154.784 78.5987 155.142 78.5024 155.457 78.3021C156.518 77.6271 157.946 76.9544 159.132 76.441L160.256 77.0502L159.608 77.4984C158.792 78.0624 158.617 79.1404 159.217 79.9064C159.577 80.3646 160.133 80.6079 160.696 80.6079C161.074 80.6079 161.455 80.4986 161.782 80.2724L163.724 78.9307L164.13 79.1504L163.136 80.8575C162.65 81.6917 162.976 82.7386 163.865 83.195C164.144 83.3384 164.446 83.4065 164.743 83.4065C165.392 83.4065 166.021 83.0828 166.354 82.5106L167.308 80.8734L168.572 81.5584C168.613 82.5312 168.51 83.44 168.286 83.7173C167.676 84.4763 167.837 85.5566 168.645 86.1294C168.976 86.3638 169.364 86.4778 169.749 86.4778C170.305 86.4778 170.854 86.241 171.214 85.7928C171.727 85.1548 172.003 84.33 172.139 83.4923L174.468 84.7553L206.896 67.1744V32.7674L174.469 15.187Z" fill="#F7BD69"/>
<path d="M209.912 49.8007L206.897 48.4988V48.2339C207.613 48.1405 208.439 48.0318 209.403 47.9043C210.405 47.771 211.104 46.8998 210.962 45.9581C210.821 45.0158 209.891 44.3602 208.89 44.4935C208.233 44.5805 207.557 44.6698 206.897 44.7555V42.0955L209.625 41.4029C210.603 41.1544 211.181 40.2086 210.917 39.2904C210.652 38.3722 209.644 37.8294 208.667 38.0779L206.897 38.5273V37.733C207.581 36.8648 208.679 35.6816 210.108 34.8562C210.97 34.3575 211.239 33.2971 210.708 32.487C210.177 31.6769 209.048 31.4243 208.184 31.9225C207.728 32.1868 207.299 32.4758 206.897 32.7766V32.7678L174.469 50.3488V56.1587L171.292 58.3799C170.48 58.948 170.311 60.0272 170.916 60.7903C171.277 61.2438 171.829 61.4841 172.389 61.4841C172.77 61.4841 173.154 61.373 173.483 61.1428L174.469 60.4537V61.8418C173.052 63.1954 171.148 64.943 170.534 65.3472C169.704 65.893 169.502 66.9669 170.083 67.7458C170.44 68.2246 171.008 68.4807 171.587 68.4807C171.95 68.4807 172.317 68.3797 172.637 68.1694C172.773 68.0801 172.932 67.9632 173.108 67.8263C172.603 68.6887 171.963 69.9159 171.548 71.2148C171.257 72.1259 171.807 73.0858 172.778 73.3596C172.953 73.4089 173.131 73.4324 173.306 73.4324C173.735 73.4324 174.144 73.2856 174.469 73.0347V75.0403C174.307 75.4421 173.719 76.6652 172.164 77.8237C171.371 78.4153 171.239 79.4986 171.868 80.2435C172.23 80.6723 172.766 80.8955 173.306 80.8955C173.705 80.8955 174.108 80.7734 174.445 80.5219C174.453 80.516 174.46 80.5102 174.469 80.5037V81.0501L172.119 85.5142C171.67 86.3672 172.042 87.3999 172.95 87.8211C173.212 87.9427 173.489 88.0003 173.762 88.0003C174.437 88.0003 175.088 87.6478 175.407 87.0404L177.465 83.1314L178.114 82.7795C178.078 83.3846 178.108 83.9844 178.246 84.5266C178.448 85.3162 179.199 85.8473 180.028 85.8473C180.17 85.8473 180.314 85.832 180.458 85.7991C181.443 85.577 182.05 84.6477 181.813 83.7224C181.635 83.0269 181.96 81.5911 182.323 80.4972L183.573 79.8199C183.716 79.9991 183.84 80.2129 183.909 80.4661C184.124 81.2421 184.867 81.7568 185.683 81.7568C185.836 81.7568 185.99 81.7386 186.145 81.701C187.125 81.4624 187.715 80.5225 187.46 79.602C187.303 79.0321 187.055 78.531 186.757 78.0939L187.207 77.8502C187.93 78.2949 188.795 78.766 189.617 79.0603C189.832 79.1367 190.052 79.1731 190.27 79.1731C191.008 79.1731 191.705 78.7507 191.984 78.064C192.345 77.1752 191.869 76.18 190.923 75.841C190.921 75.8404 190.918 75.8399 190.916 75.8387L194.586 73.8495L194.727 74.6485C194.877 75.4909 195.654 76.0878 196.534 76.0878C196.634 76.0878 196.736 76.0795 196.838 76.0637C197.837 75.9074 198.512 75.0204 198.346 74.0816L197.978 72.0102L199.86 70.9904C199.931 71.3875 199.945 71.7082 199.881 71.881C199.242 72.5806 199.303 73.6363 200.03 74.2672C200.383 74.5727 200.829 74.7237 201.274 74.7237C201.768 74.7237 202.261 74.5375 202.622 74.1697C203.893 72.8767 203.683 70.8376 203.192 69.1839L204.236 68.6176L205.494 70.0205C205.857 70.4252 206.375 70.6332 206.898 70.6332C207.315 70.6332 207.735 70.5004 208.078 70.2284C208.853 69.6157 208.952 68.5295 208.3 67.8016L206.897 66.2366V66.0334L207.28 66.2278C207.558 66.3688 207.857 66.4352 208.151 66.4352C208.803 66.4352 209.434 66.108 209.766 65.5317C210.248 64.6951 209.916 63.65 209.025 63.1977L206.897 62.1179V61.017L206.921 61.0376C207.272 61.3366 207.713 61.4841 208.152 61.4841C208.652 61.4841 209.15 61.2932 209.512 60.9178C210.192 60.2128 210.135 59.1237 209.384 58.4851L206.897 56.3691V52.2903L208.38 52.9301C208.628 53.0376 208.888 53.0881 209.145 53.0881C209.839 53.0881 210.503 52.7162 210.812 52.0853C211.236 51.2205 210.833 50.1984 209.912 49.8007V49.8007Z" fill="#F8DB8F"/>
<path d="M208.098 30.2805C207.852 29.3576 206.856 28.7965 205.874 29.0274C204.406 29.3723 202.414 29.5168 201.013 29.5779L198.899 28.4311L200.81 27.4859C201.707 27.0436 202.051 26.002 201.579 25.1602C201.108 24.3183 199.999 23.9946 199.102 24.4382L195.143 26.395L193.508 25.5085L194.361 25.2036C195.308 24.8653 195.784 23.8707 195.423 22.9819C195.063 22.0924 194.004 21.6454 193.057 21.9843L189.41 23.2867L186.782 21.8627C187.676 21.5737 188.577 21.3887 189.341 21.4368C190.349 21.5015 191.227 20.7865 191.297 19.8372C191.367 18.8884 190.604 18.066 189.593 18.0008C187.224 17.8469 184.612 18.8526 182.835 19.7232L181.442 18.9671L182.774 16.1702C183.187 15.302 182.773 14.2833 181.848 13.895C180.924 13.5067 179.839 13.8962 179.425 14.7645L178.249 17.2359L177.66 16.9175V12.7224C177.66 11.7713 176.84 11 175.827 11C174.813 11 173.993 11.7713 173.993 12.7224V15.4447L173.077 15.9411L173.575 14.9889C174.022 14.1353 173.647 13.1031 172.738 12.6837C171.829 12.2636 170.73 12.6161 170.283 13.4697L167.37 19.0353L166.771 19.3602V17.5661C166.771 16.615 165.95 15.8436 164.937 15.8436C163.924 15.8436 163.103 16.615 163.103 17.5661V21.3487L160.089 22.9824V22.3022C160.089 21.3511 159.268 20.5797 158.255 20.5797C157.242 20.5797 156.42 21.3511 156.42 22.3022V23.7843L154.212 21.2195C153.575 20.4799 152.42 20.3647 151.633 20.9628C150.845 21.5614 150.723 22.6452 151.36 23.3854L153.349 25.6953C151.852 25.2412 149.84 24.7777 147.857 24.7777C146.844 24.7777 146.023 25.5491 146.023 26.5002C146.023 27.4513 146.844 28.2226 147.857 28.2226C148.578 28.2226 149.32 28.3078 150.03 28.4358L146.196 30.5149L140.119 31.053C139.111 31.1423 138.37 31.9823 138.466 32.9293C138.555 33.8211 139.354 34.4902 140.289 34.4902C140.347 34.4902 140.405 34.4873 140.463 34.4826L144.538 34.1213L144.687 34.2024L143.168 35.0136C142.287 35.4842 141.979 36.5358 142.479 37.3623C142.818 37.9204 143.438 38.2335 144.075 38.2335C144.383 38.2335 144.694 38.1607 144.981 38.0079L148.369 36.1986L149.857 37.0051L148.551 37.4957C147.611 37.8487 147.153 38.8509 147.529 39.7339C147.816 40.4077 148.505 40.8172 149.233 40.8172C149.459 40.8172 149.69 40.7778 149.914 40.6938L153.899 39.197L155.853 40.2561L155.178 42.6336C154.917 43.5524 155.499 44.4964 156.478 44.7414C156.636 44.7808 156.795 44.7996 156.952 44.7996C157.762 44.7996 158.504 44.2914 158.723 43.5207L159.143 42.0403L161.093 43.0971L160.778 46.4421C160.69 47.3897 161.435 48.2256 162.444 48.3091C162.499 48.3138 162.553 48.3161 162.608 48.3161C163.547 48.3161 164.348 47.6405 164.433 46.7447L164.597 44.997L168.517 47.1218L167.616 49.3559C167.257 50.2459 167.734 51.2399 168.681 51.5765C168.895 51.6529 169.114 51.6887 169.33 51.6887C170.071 51.6887 170.768 51.2646 171.046 50.5761L171.735 48.8666L173.668 49.9146L174.581 53.3924C174.787 54.1772 175.536 54.7024 176.36 54.7024C176.506 54.7024 176.653 54.686 176.8 54.6525C177.784 54.4245 178.385 53.4911 178.142 52.5676L177.175 48.8813L177.858 48.5112L179.037 51.0396C179.339 51.6858 180.012 52.0712 180.718 52.0712C180.964 52.0712 181.214 52.0242 181.454 51.9261C182.381 51.5442 182.804 50.5285 182.398 49.6573L181.054 46.7781L182.685 45.894L182.484 47.8638C182.387 48.8108 183.126 49.652 184.134 49.7431C184.194 49.7483 184.252 49.7507 184.311 49.7507C185.245 49.7507 186.044 49.0839 186.135 48.1933L186.479 44.8336L187.984 46.7799C188.342 47.244 188.902 47.4907 189.469 47.4907C189.843 47.4907 190.22 47.3838 190.545 47.1618C191.365 46.6031 191.547 45.5263 190.952 44.7567L189.13 42.3998L189.476 42.2124L192.459 44.8219C192.813 45.1309 193.261 45.2836 193.709 45.2836C194.2 45.2836 194.69 45.0998 195.051 44.7355C195.742 44.0394 195.7 42.9497 194.959 42.3017L192.798 40.4112L193.251 40.1663L197.427 43.0936C197.756 43.3245 198.141 43.4361 198.522 43.4361C199.081 43.4361 199.633 43.197 199.993 42.744C200.6 41.9821 200.433 40.9029 199.621 40.3337L196.708 38.2917L197.487 37.8699C198.568 38.4779 199.723 39.2639 200.356 40.0958C200.713 40.5663 201.277 40.8172 201.85 40.8172C202.218 40.8172 202.591 40.7126 202.914 40.4958C203.738 39.943 203.929 38.8674 203.34 38.0937C202.953 37.585 202.48 37.1109 201.965 36.6762L205.247 36.9358C205.3 36.9399 205.352 36.9417 205.404 36.9417C206.346 36.9417 207.148 36.2626 207.229 35.3638C207.314 34.4162 206.565 33.5832 205.556 33.5033L205.543 33.5021L206.898 32.7678L206.335 32.4629C206.48 32.4329 206.624 32.4024 206.764 32.3695C207.746 32.1386 208.343 31.2034 208.098 30.2805V30.2805Z" fill="#FFF5AE"/>
<path d="M158.327 34.4662C158.26 34.4662 158.193 34.4603 158.125 34.4491C155.749 34.0508 153.205 32.067 152.923 31.842C152.44 31.4572 152.381 30.7781 152.791 30.3246C153.2 29.8716 153.924 29.8158 154.406 30.2006C155.045 30.7082 157.03 32.0787 158.528 32.3296C159.151 32.4341 159.566 32.9934 159.455 33.5785C159.356 34.0996 158.872 34.4662 158.327 34.4662Z" fill="#F8DB8F"/>
<path d="M182.245 27.1465C181.646 27.1465 181.143 26.7106 181.102 26.1413C180.924 23.6328 178.455 22.5795 178.349 22.536C177.773 22.2964 177.507 21.6637 177.759 21.1208C178.011 20.5774 178.679 20.3266 179.259 20.5598C179.416 20.6227 183.117 22.1554 183.39 25.9986C183.432 26.5913 182.954 27.1047 182.323 27.1441C182.296 27.1453 182.271 27.1465 182.245 27.1465V27.1465Z" fill="#F8DB8F"/>
<path d="M179.375 33.2806C179.125 33.2806 178.874 33.2036 178.664 33.0456C178.057 32.5892 175.675 30.0255 174.96 29.2506C174.546 28.8012 174.598 28.1215 175.076 27.732C175.554 27.3431 176.279 27.3913 176.693 27.8407C178.081 29.3446 179.778 31.1199 180.097 31.3655C180.585 31.7403 180.664 32.4182 180.267 32.8788C180.04 33.1425 179.709 33.2806 179.375 33.2806Z" fill="#F8DB8F"/>
<path d="M192.334 38.6643C191.893 38.6643 191.473 38.424 191.284 38.021C191.029 37.477 191.292 36.8414 191.872 36.6023C194.16 35.657 194.883 33.1533 194.89 33.1286C195.043 32.5517 195.666 32.201 196.28 32.3455C196.894 32.4894 197.267 33.074 197.114 33.6509C197.076 33.7948 196.136 37.1921 192.795 38.5726C192.645 38.6349 192.488 38.6643 192.334 38.6643Z" fill="#F8DB8F"/>
<path d="M166.313 30.5909C165.68 30.5909 165.166 30.1092 165.166 29.5147C165.166 27.4891 167.127 23.7481 167.351 23.3281C167.633 22.7964 168.322 22.5808 168.888 22.8469C169.454 23.1125 169.684 23.7593 169.401 24.2909C168.65 25.7026 167.458 28.3691 167.458 29.5147C167.459 30.1092 166.945 30.5909 166.313 30.5909Z" fill="#F8DB8F"/>
<path d="M175.255 41.2471C175.225 41.2471 175.194 41.246 175.163 41.2436C170.534 40.9005 169.086 39.4019 168.843 39.1047L170.66 37.7923C170.66 37.7923 170.651 37.7799 170.631 37.7588C170.641 37.77 171.703 38.8274 175.344 39.0976C175.975 39.1446 176.446 39.6628 176.396 40.2555C176.349 40.8195 175.847 41.2471 175.255 41.2471Z" fill="#F8DB8F"/>
<path d="M177.604 47.5986C177.254 47.5986 176.909 47.4488 176.684 47.1645C176.305 46.6881 176.411 46.0137 176.919 45.6583C179.089 44.1414 180.246 41.3245 180.257 41.2963C180.481 40.7406 181.143 40.461 181.736 40.6719C182.327 40.8828 182.625 41.5043 182.401 42.06C182.344 42.1993 180.99 45.4973 178.287 47.386C178.082 47.5293 177.842 47.5986 177.604 47.5986V47.5986Z" fill="#F8DB8F"/>
<path d="M146.253 50.8279C146.165 50.8279 146.075 50.8185 145.987 50.7985C145.37 50.6604 144.99 50.08 145.136 49.502C145.79 46.9248 149.271 44.5191 149.666 44.2536C150.18 43.907 150.896 44.018 151.265 44.5009C151.634 44.9844 151.516 45.6564 151.002 46.003C150.122 46.5975 147.754 48.4745 147.367 50.0001C147.242 50.4948 146.772 50.8279 146.253 50.8279Z" fill="#F8DB8F"/>
<path d="M153.665 55.9943C153.225 55.9943 152.804 55.7546 152.615 55.3516C151.193 52.3191 150.462 50.166 150.432 50.0756C150.241 49.5093 150.575 48.9042 151.178 48.725C151.783 48.5452 152.426 48.8589 152.617 49.4252C152.624 49.4464 153.345 51.566 154.714 54.4833C154.969 55.0279 154.706 55.6629 154.126 55.9026C153.976 55.9649 153.82 55.9943 153.665 55.9943V55.9943Z" fill="#F8DB8F"/>
<path d="M157.256 66.9738C157.132 66.9738 157.005 66.9544 156.88 66.9132C156.281 66.7182 155.966 66.1043 156.174 65.5433C157.246 62.6494 160.566 61.3018 160.707 61.2454C161.291 61.0139 161.963 61.2701 162.21 61.8176C162.456 62.3639 162.185 62.9943 161.604 63.2269C161.56 63.2445 159.07 64.2773 158.339 66.2506C158.175 66.6947 157.731 66.9738 157.256 66.9738Z" fill="#F8DB8F"/>
<path d="M162.988 75.585C162.524 75.585 162.087 75.3183 161.915 74.8865C161.692 74.3296 161.993 73.7093 162.585 73.5007C164.683 72.7617 165.17 70.7173 165.19 70.631C165.321 70.0517 165.926 69.6775 166.543 69.7979C167.161 69.9178 167.559 70.4794 167.436 71.0598C167.408 71.1932 166.7 74.3508 163.39 75.5163C163.258 75.5633 163.122 75.585 162.988 75.585Z" fill="#F8DB8F"/>
<path d="M144.304 65.7894C143.877 65.7894 143.467 65.5644 143.269 65.1791C142.995 64.6427 143.236 64 143.807 63.7421C146.876 62.3587 147.141 60.3901 147.151 60.3066C147.2 59.7139 147.751 59.2798 148.382 59.3256C149.013 59.3714 149.484 59.8978 149.436 60.4905C149.425 60.6221 149.12 63.7345 144.799 65.6831C144.64 65.7554 144.47 65.7894 144.304 65.7894V65.7894Z" fill="#F8DB8F"/>
<path d="M161.152 57.178C160.917 57.178 160.68 57.1104 160.476 56.97C159.965 56.6181 159.855 55.9443 160.229 55.465C161.631 53.6703 165.422 52.0647 165.85 51.8879C166.428 51.6476 167.105 51.8944 167.36 52.4378C167.616 52.9812 167.354 53.6168 166.775 53.8571C165.375 54.4381 162.862 55.734 162.078 56.7386C161.853 57.0258 161.505 57.178 161.152 57.178V57.178Z" fill="#F8DB8F"/>
<path d="M183.049 60.91C182.946 60.91 182.841 60.897 182.737 60.8694C179.33 59.9665 177.859 57.4727 177.799 57.367C177.498 56.8441 177.705 56.1909 178.262 55.9083C178.817 55.6263 179.509 55.8184 179.812 56.3371C179.863 56.4223 180.922 58.1518 183.359 58.7968C183.968 58.9584 184.323 59.5529 184.152 60.1251C184.009 60.5998 183.549 60.91 183.049 60.91Z" fill="#F7BD69"/>
<path d="M194.167 57.1784C193.668 57.1784 193.209 56.87 193.065 56.3971C192.885 55.8355 190.753 54.3527 188.591 53.2871C188.031 53.011 187.815 52.3601 188.109 51.8337C188.403 51.3073 189.096 51.1046 189.656 51.3808C190.834 51.9612 194.719 53.9961 195.269 55.8055C195.443 56.3771 195.091 56.9728 194.482 57.1361C194.377 57.1649 194.271 57.1784 194.167 57.1784V57.1784Z" fill="#F7BD69"/>
<path d="M206.03 45.3901C204.527 45.3901 203.218 45.1733 203.135 45.1592C202.512 45.0541 202.097 44.4942 202.21 43.9091C202.322 43.324 202.917 42.9345 203.541 43.0403C204.271 43.1625 206.47 43.4045 207.86 43.0591C208.471 42.9069 209.099 43.2494 209.261 43.8245C209.423 44.3991 209.059 44.9883 208.446 45.1404C207.691 45.3284 206.833 45.3901 206.03 45.3901V45.3901Z" fill="#F7BD69"/>
<path d="M201.734 53.4106C201.363 53.4106 201.001 53.2426 200.78 52.9312C199.935 51.7422 198.643 50.5238 198.63 50.512C198.182 50.0914 198.182 49.41 198.63 48.9893C199.078 48.5693 199.803 48.5693 200.251 48.9893C200.311 49.0452 201.718 50.3722 202.687 51.7369C203.038 52.2316 202.896 52.9001 202.369 53.2297C202.174 53.3524 201.953 53.4106 201.734 53.4106V53.4106Z" fill="#F7BD69"/>
<path d="M203.337 66.3278C203.142 66.3278 202.944 66.2814 202.764 66.1827C200.177 64.7763 199.495 61.94 199.467 61.8202C199.332 61.2392 199.725 60.6658 200.344 60.5395C200.961 60.4132 201.57 60.7804 201.706 61.3584C201.717 61.4031 202.226 63.4028 203.912 64.3198C204.46 64.6177 204.647 65.2762 204.33 65.7909C204.117 66.1351 203.733 66.3278 203.337 66.3278V66.3278Z" fill="#F7BD69"/>
<path d="M194.168 66.9738C193.729 66.9738 193.31 66.7353 193.12 66.3341C192.434 64.8848 190.646 62.9556 190.014 62.3346C189.577 61.9046 189.594 61.2231 190.052 60.8125C190.51 60.4019 191.236 60.4177 191.672 60.8483C191.776 60.95 194.228 63.3756 195.215 65.4599C195.472 66.0027 195.212 66.639 194.633 66.8804C194.482 66.9439 194.324 66.9738 194.168 66.9738V66.9738Z" fill="#F7BD69"/>
<path d="M179.953 69.4495C179.473 69.4495 179.026 69.164 178.866 68.7134C178.452 67.5467 177.091 66.86 177.077 66.8535C176.515 66.5809 176.294 65.9318 176.585 65.4031C176.875 64.8749 177.567 64.6676 178.129 64.9407C178.354 65.0494 180.341 66.0593 181.041 68.0325C181.241 68.5965 180.916 69.2057 180.316 69.3937C180.195 69.4319 180.073 69.4495 179.953 69.4495V69.4495Z" fill="#F7BD69"/>
<path d="M183.048 80.1061C182.914 80.1061 182.779 80.0838 182.646 80.0374C180.516 79.2872 179.089 77.4819 179.029 77.4055C178.655 76.9262 178.765 76.2524 179.275 75.9011C179.784 75.5497 180.501 75.6526 180.875 76.1302C180.894 76.1531 181.977 77.5025 183.45 78.0212C184.044 78.2303 184.344 78.8507 184.122 79.407C183.949 79.8394 183.512 80.1061 183.048 80.1061Z" fill="#F7BD69"/>
<path d="M191.647 75.5849C191.252 75.5849 190.868 75.3934 190.656 75.0509C190.18 74.2843 188.378 73.2621 187.579 72.8879C187.013 72.6218 186.784 71.975 187.067 71.4433C187.35 70.9117 188.039 70.6961 188.605 70.9622C188.918 71.109 191.689 72.4414 192.636 73.9659C192.955 74.4793 192.77 75.1385 192.223 75.4381C192.041 75.5373 191.843 75.5849 191.647 75.5849V75.5849Z" fill="#F7BD69"/>
<path d="M208.689 57.9396C206.98 57.9396 204.171 57.2258 203.836 57.1389C203.225 56.9808 202.867 56.3881 203.036 55.8153C203.203 55.2425 203.834 54.9053 204.445 55.0634C205.657 55.3771 207.928 55.8488 208.867 55.7818C209.499 55.7366 210.049 56.1795 210.098 56.7723C210.146 57.365 209.674 57.8826 209.043 57.9284C208.931 57.9361 208.814 57.9396 208.689 57.9396V57.9396Z" fill="#F7BD69"/>
<path d="M201.954 72.3556C200.092 72.3556 198.073 71.267 197.849 71.1425C197.304 70.8405 197.122 70.1808 197.445 69.6685C197.766 69.1569 198.468 68.9871 199.013 69.2879C199.476 69.5428 200.906 70.2025 201.954 70.2025H201.963C202.595 70.2025 203.107 70.6831 203.109 71.2764C203.111 71.8709 202.598 72.3538 201.965 72.3556C201.962 72.3556 201.958 72.3556 201.954 72.3556V72.3556Z" fill="#F7BD69"/>
</g>
<g clip-path="url(#clip1)">
<path d="M151.369 54.8536L135.097 39.1006C134.779 38.7921 134.442 38.6692 133.984 38.6831L131.286 38.7063L64.0416 0.59375L41.0917 1.26288L18.1407 27.0945L2.34363 60.3736C3.26557 63.1011 3.63086 64.8662 3.63086 64.8662V111.909L73.6332 151.585L148.554 108.331V56.6209L149.254 57.2436C149.906 57.8757 150.9 57.8212 151.531 57.1694C152.161 56.5177 152.021 55.4844 151.369 54.8536V54.8536Z" fill="#BF0025"/>
<path d="M134.044 40.2681L111.094 40.9372L88.1431 66.77L73.6333 97.4653V151.585L111.094 129.957L148.554 108.329V54.2096L134.044 40.2681Z" fill="#EA2642"/>
<path d="M128.52 69.064L93.6677 89.1866V140.018L128.52 119.896V69.064Z" fill="#BF0025"/>
<path d="M88.143 66.77L18.1418 27.0942L1.64319 61.8507L71.6455 101.527L88.143 66.77Z" fill="#EF5F26"/>
<path d="M18.142 27.0945L41.0918 1.26172L111.094 40.9375L88.1432 66.7703L18.142 27.0945Z" fill="#FF7E27"/>
<path d="M41.0918 1.26172L64.0417 0.59375L134.044 40.2684L111.094 40.9375L41.0918 1.26172Z" fill="#EF5F26"/>
<path d="M45.1298 116.36V95.6528L59.0029 103.662V124.373L45.1298 116.36Z" fill="#2C92BF"/>
<path d="M59.0028 112.161V106.198L52.627 111.006V116.969L59.0028 112.161Z" fill="#83B2C6"/>
<path d="M43.2162 91.9941V117.812L60.9174 128.032V102.214L43.2162 91.9941ZM45.1296 95.6529L50.7123 98.8745V119.584L45.1296 116.359V95.6529ZM59.0028 124.373L52.6269 120.69V99.9808L59.0028 103.662V124.373Z" fill="#E6E6E6"/>
<path d="M50.7124 107.737V101.769L45.1298 105.989V111.956L50.7124 107.737Z" fill="#83B2C6"/>
<path d="M16.0011 99.3858V78.6787L29.8742 86.6886V107.4L16.0011 99.3858Z" fill="#2C92BF"/>
<path d="M29.8743 95.1881V89.2251L23.4984 94.0319V99.9949L29.8743 95.1881Z" fill="#83B2C6"/>
<path d="M14.0865 75.02V100.839L31.7889 111.059V85.2402L14.0865 75.02ZM16.0012 78.6788L21.5838 81.9015V102.611L16.0012 99.3858V78.6788ZM29.8743 107.399L23.4984 103.716V83.0067L29.8743 86.6875V107.399Z" fill="#E6E6E6"/>
<path d="M21.5837 90.7626V84.7949L16.0011 89.015V94.9826L21.5837 90.7626Z" fill="#83B2C6"/>
<path d="M71.6456 103.169C71.3638 103.169 71.0855 103.097 70.835 102.955L0.832683 63.2795C0.0441075 62.8319 -0.233054 61.83 0.213419 61.0414C0.661052 60.2516 1.66185 59.9745 2.45274 60.4221L70.9185 99.227L86.6599 66.0651C86.726 65.9248 86.8118 65.7949 86.915 65.6789L109.865 39.8461C110.166 39.5086 110.593 39.3092 111.045 39.2952L133.995 38.6273C134.455 38.6134 134.869 38.7803 135.186 39.0888L151.501 54.9021C152.152 55.5329 152.169 56.5732 151.537 57.2249C150.906 57.8766 149.865 57.8929 149.215 57.2609L133.398 41.9312L111.85 42.5586L89.5254 67.6851L73.1289 102.231C72.9329 102.643 72.5745 102.955 72.1397 103.092C71.9785 103.144 71.8115 103.169 71.6456 103.169V103.169Z" fill="#E6E6E6"/>
<path d="M93.6678 89.1866V140.018L128.521 119.897V69.064L93.6678 89.1866ZM124.75 117.038L113.543 106.658L124.75 81.3924V117.038ZM103.495 129.31L111.701 110.811L120.927 119.219L103.495 129.31ZM121.695 78.0317L110.487 103.297L99.2795 90.9725L121.695 78.0317ZM97.4379 95.1252L108.645 107.45L97.4379 132.716V95.1252Z" fill="#E6E6E6"/>
</g>
<path d="M151.66 223.39L80.8008 260.769V271.307L142.776 304L212.54 267.199V256.659L151.66 223.39Z" fill="#B2260B"/>
<path d="M212.54 256.66L151.66 223.39L80.8008 260.769L142.776 293.461L212.54 256.66Z" fill="#FF7E27"/>
<path d="M142.776 293.461V304L212.54 267.199V256.66L142.776 293.461Z" fill="#EF5F26"/>
<path d="M115.439 235.298C114.144 236.01 113.2 237.063 112.52 238.13V223.698C112.516 223.383 112.305 223.083 111.878 222.858C110.928 222.356 109.267 222.419 108.17 222.998C107.565 223.317 107.258 223.727 107.262 224.114V247.851C106.696 246.367 105.664 244.849 103.807 243.811C99.7559 241.546 94.8628 242.644 94.8628 242.644C94.8628 242.644 95.6115 255.476 107.262 252.753V262.515C107.266 262.83 107.476 263.132 107.904 263.356C108.854 263.858 110.515 263.794 111.612 263.216C112.209 262.901 112.516 262.499 112.52 262.117V243.365C113.782 244.02 115.804 244.493 118.655 243.472C123.952 241.575 125.023 233.644 125.023 233.644C125.023 233.644 119.873 232.863 115.439 235.298V235.298Z" fill="#249155"/>
<path d="M107.262 250.813C106.426 249.557 104.997 247.869 102.689 246.364C99.1715 244.071 95.901 243.227 95.901 243.227C95.901 243.227 100.347 245.675 102.982 247.755C104.763 249.161 106.392 251.123 107.262 252.247V250.813Z" fill="#1B6D40"/>
<path d="M115.506 237.937C114.239 238.809 113.248 239.618 112.52 240.268V241.373C113.66 240.343 115.348 238.955 117.296 237.791C120.897 235.638 123.612 234.544 123.612 234.544C123.612 234.544 118.582 235.821 115.506 237.937V237.937Z" fill="#1B6D40"/>
<path d="M125.639 214.037C125.674 212.13 123.115 211.877 119.923 213.471C119.505 213.68 119.098 213.91 118.705 214.156C119.05 213.742 119.398 213.3 119.742 212.829C122.368 209.229 123.781 205.43 122.899 204.342C122.017 203.254 119.172 205.29 116.545 208.889C116.203 209.359 115.881 209.833 115.581 210.305C115.75 209.781 115.905 209.24 116.044 208.687C117.1 204.458 116.77 201.149 115.306 201.297C113.842 201.444 111.8 204.991 110.744 209.22C110.606 209.771 110.492 210.308 110.401 210.822C110.327 210.389 110.231 209.958 110.111 209.535C109.195 206.292 107.247 204.737 105.762 206.064C104.277 207.389 103.815 211.094 104.733 214.337C104.853 214.76 104.989 215.154 105.142 215.518C104.854 215.34 104.544 215.182 104.212 215.048C101.672 214.029 98.8512 214.824 97.9116 216.822C96.971 218.821 98.2679 221.266 100.808 222.285C101.14 222.419 101.477 222.518 101.813 222.591C101.422 222.737 101.016 222.914 100.598 223.122C97.4058 224.717 94.7885 227.556 94.7524 229.464C94.7174 231.371 97.2764 231.624 100.47 230.03C100.886 229.821 101.294 229.591 101.687 229.344C101.341 229.759 100.993 230.201 100.65 230.672C98.024 234.272 96.6104 238.071 97.4938 239.159C98.3761 240.247 101.22 238.211 103.846 234.612C104.19 234.142 104.511 233.668 104.81 233.197C104.643 233.72 104.487 234.261 104.349 234.814C103.291 239.044 103.622 242.351 105.086 242.204C106.549 242.057 108.592 238.51 109.648 234.281C109.786 233.73 109.899 233.194 109.992 232.679C110.065 233.112 110.16 233.543 110.28 233.966C111.196 237.209 113.144 238.763 114.63 237.438C116.116 236.112 116.576 232.408 115.66 229.165C115.54 228.741 115.402 228.346 115.251 227.983C115.538 228.161 115.848 228.319 116.18 228.453C118.719 229.471 121.54 228.678 122.481 226.679C123.421 224.68 122.124 222.234 119.585 221.216C119.252 221.083 118.916 220.983 118.578 220.91C118.97 220.764 119.376 220.588 119.794 220.379C122.986 218.784 125.603 215.945 125.639 214.037V214.037Z" fill="#E8C725"/>
<path d="M121.612 216.831C121.216 216.883 120.822 216.963 120.437 217.066C120.823 216.763 121.217 216.427 121.613 216.061C124.65 213.257 126.724 209.732 126.245 208.188C125.765 206.644 122.915 207.665 119.877 210.469C119.48 210.837 119.1 211.216 118.74 211.6C119.004 211.104 119.261 210.584 119.506 210.042C121.383 205.905 121.888 202.187 120.634 201.738C119.378 201.29 116.84 204.28 114.963 208.417C114.717 208.959 114.497 209.492 114.299 210.012C114.34 209.512 114.362 209.004 114.362 208.496C114.362 204.605 113.105 202.115 111.554 202.933C110.003 203.751 108.746 207.568 108.746 211.459C108.746 211.966 108.768 212.451 108.809 212.907C108.611 212.595 108.39 212.295 108.144 212.013C106.267 209.855 103.729 209.543 102.474 211.315C101.219 213.088 101.724 216.273 103.601 218.43C103.846 218.712 104.104 218.961 104.368 219.18C104.007 219.175 103.627 219.197 103.229 219.249C100.192 219.649 97.341 221.635 96.8628 223.685C96.3834 225.734 98.4567 227.071 101.494 226.672C101.891 226.62 102.284 226.539 102.669 226.437C102.283 226.74 101.889 227.075 101.493 227.441C98.4567 230.246 96.3824 233.771 96.8617 235.315C97.341 236.859 100.192 235.837 103.229 233.033C103.625 232.667 104.006 232.287 104.367 231.902C104.103 232.398 103.845 232.919 103.6 233.46C101.723 237.598 101.218 241.316 102.473 241.764C103.727 242.213 106.266 239.223 108.143 235.085C108.389 234.544 108.61 234.011 108.807 233.49C108.767 233.99 108.744 234.498 108.744 235.007C108.744 238.897 110.001 241.387 111.553 240.569C113.103 239.752 114.36 235.935 114.36 232.044C114.36 231.535 114.339 231.052 114.297 230.595C114.495 230.907 114.716 231.208 114.961 231.49C116.838 233.647 119.377 233.959 120.631 232.187C121.886 230.415 121.382 227.229 119.505 225.072C119.259 224.789 119.003 224.541 118.738 224.322C119.099 224.327 119.48 224.306 119.876 224.254C122.914 223.853 125.764 221.867 126.244 219.818C126.723 217.768 124.65 216.431 121.612 216.831V216.831Z" fill="#FFE14D"/>
<path d="M119.796 218.002C119.796 222.999 116.47 228.805 112.369 230.969C108.267 233.132 104.942 230.836 104.942 225.838C104.942 220.841 108.267 215.036 112.369 212.872C116.47 210.708 119.796 213.005 119.796 218.002Z" fill="#FF7E27"/>
<path d="M118.617 219.34C118.617 222.631 116.428 226.453 113.727 227.878C111.026 229.303 108.836 227.791 108.836 224.5C108.836 221.21 111.026 217.387 113.727 215.963C116.428 214.537 118.617 216.05 118.617 219.34Z" fill="#B2260B"/>
<path d="M160.837 211.006C159.54 211.718 158.597 212.771 157.917 213.838V199.406H157.916C157.913 199.091 157.702 198.79 157.276 198.565C156.325 198.064 154.665 198.127 153.567 198.705C152.962 199.025 152.655 199.434 152.659 199.82V223.558C152.093 222.075 151.061 220.557 149.204 219.518C145.153 217.253 140.26 218.351 140.26 218.351C140.26 218.351 141.009 231.183 152.659 228.461V238.222C152.664 238.538 152.874 238.838 153.301 239.064C154.251 239.565 155.912 239.502 157.009 238.924C157.605 238.609 157.913 238.207 157.916 237.824H157.917V219.073C159.179 219.727 161.202 220.2 164.052 219.18C169.349 217.283 170.42 209.352 170.42 209.352C170.42 209.352 165.271 208.57 160.837 211.006V211.006Z" fill="#249155"/>
<path d="M152.659 226.521C151.824 225.265 150.394 223.577 148.086 222.072C144.568 219.779 141.297 218.935 141.297 218.935C141.297 218.935 145.743 221.383 148.378 223.462C150.161 224.869 151.79 226.831 152.658 227.955V226.521H152.659Z" fill="#1B6D40"/>
<path d="M160.904 213.644C159.636 214.517 158.646 215.326 157.917 215.976V217.081C159.057 216.051 160.744 214.664 162.694 213.499C166.294 211.346 169.009 210.252 169.009 210.252C169.009 210.252 163.978 211.528 160.904 213.644Z" fill="#1B6D40"/>
<path d="M171.036 189.745C171.072 187.837 168.513 187.585 165.32 189.179C164.902 189.388 164.496 189.617 164.102 189.863C164.448 189.45 164.795 189.008 165.139 188.537C167.765 184.937 169.179 181.138 168.295 180.05C167.413 178.962 164.569 180.998 161.943 184.597C161.599 185.067 161.278 185.541 160.979 186.013C161.147 185.489 161.302 184.948 161.44 184.395C162.497 180.166 162.167 176.857 160.703 177.005C159.24 177.152 157.197 180.699 156.141 184.928C156.003 185.48 155.889 186.016 155.797 186.53C155.724 186.097 155.629 185.666 155.509 185.243C154.592 182 152.645 180.445 151.159 181.771C149.673 183.097 149.213 186.802 150.129 190.045C150.249 190.468 150.387 190.862 150.538 191.226C150.251 191.048 149.941 190.889 149.609 190.756C147.07 189.738 144.249 190.532 143.308 192.53C142.368 194.529 143.664 196.974 146.204 197.993C146.536 198.127 146.873 198.226 147.211 198.299C146.819 198.445 146.412 198.622 145.995 198.83C142.802 200.425 140.185 203.264 140.15 205.172C140.114 207.079 142.674 207.332 145.866 205.738C146.284 205.529 146.691 205.299 147.084 205.052C146.738 205.467 146.391 205.909 146.047 206.38C143.422 209.98 142.008 213.779 142.89 214.867C143.773 215.955 146.617 213.919 149.244 210.32C149.586 209.85 149.907 209.375 150.208 208.904C150.039 209.428 149.883 209.969 149.745 210.522C148.689 214.751 149.019 218.059 150.482 217.912C151.946 217.765 153.989 214.218 155.046 209.989C155.183 209.437 155.297 208.901 155.388 208.387C155.461 208.819 155.558 209.251 155.677 209.674C156.594 212.917 158.542 214.472 160.027 213.145C161.512 211.82 161.974 208.115 161.056 204.872C160.937 204.449 160.799 204.054 160.647 203.691C160.934 203.868 161.244 204.027 161.577 204.161C164.117 205.179 166.938 204.385 167.877 202.387C168.818 200.388 167.521 197.942 164.981 196.923C164.649 196.79 164.312 196.69 163.976 196.617C164.367 196.472 164.773 196.295 165.191 196.087C168.383 194.492 171.001 191.653 171.036 189.745V189.745Z" fill="#E8C725"/>
<path d="M167.01 192.538C166.613 192.59 166.22 192.67 165.835 192.773C166.22 192.469 166.613 192.134 167.01 191.767C170.047 188.963 172.121 185.438 171.642 183.895C171.163 182.35 168.312 183.372 165.275 186.176C164.877 186.543 164.497 186.923 164.137 187.307C164.401 186.81 164.658 186.29 164.904 185.749C166.781 181.612 167.286 177.893 166.031 177.444C164.776 176.996 162.237 179.987 160.359 184.124C160.115 184.665 159.894 185.198 159.697 185.718C159.737 185.219 159.759 184.711 159.759 184.203C159.759 180.312 158.501 177.821 156.951 178.639C155.401 179.458 154.143 183.275 154.143 187.165C154.143 187.673 154.165 188.157 154.205 188.614C154.008 188.302 153.788 188.002 153.542 187.719C151.665 185.562 149.126 185.25 147.871 187.022C146.617 188.795 147.121 191.98 148.998 194.137C149.243 194.419 149.501 194.668 149.765 194.886C149.404 194.882 149.024 194.904 148.626 194.956C145.589 195.356 142.738 197.342 142.259 199.392C141.781 201.441 143.854 202.778 146.891 202.378C147.288 202.327 147.68 202.246 148.066 202.144C147.68 202.447 147.287 202.782 146.89 203.148C143.853 205.953 141.78 209.478 142.259 211.022C142.738 212.566 145.589 211.544 148.626 208.74C149.023 208.373 149.404 207.994 149.764 207.608C149.5 208.105 149.242 208.626 148.997 209.167C147.12 213.305 146.616 217.023 147.87 217.471C149.125 217.92 151.663 214.93 153.541 210.792C153.787 210.251 154.007 209.718 154.204 209.197C154.164 209.697 154.142 210.205 154.142 210.714C154.142 214.604 155.399 217.094 156.95 216.276C158.5 215.459 159.757 211.641 159.757 207.751C159.757 207.243 159.736 206.759 159.695 206.302C159.893 206.614 160.113 206.915 160.358 207.197C162.235 209.354 164.775 209.666 166.029 207.894C167.284 206.121 166.78 202.936 164.903 200.778C164.657 200.496 164.4 200.248 164.136 200.029C164.496 200.034 164.877 200.012 165.275 199.96C168.311 199.56 171.162 197.574 171.641 195.525C172.12 193.475 170.047 192.138 167.01 192.538V192.538Z" fill="#FFE14D"/>
<path d="M165.193 193.71C165.193 198.707 161.868 204.512 157.766 206.677C153.664 208.84 150.339 206.543 150.339 201.546C150.339 196.549 153.664 190.744 157.766 188.58C161.868 186.416 165.193 188.713 165.193 193.71V193.71Z" fill="#FF7E27"/>
<path d="M164.014 195.048C164.014 198.338 161.824 202.161 159.123 203.585C156.422 205.011 154.233 203.498 154.233 200.208C154.233 196.917 156.422 193.095 159.123 191.67C161.824 190.245 164.014 191.757 164.014 195.048V195.048Z" fill="#B2260B"/>
<path d="M147.486 252.956C146.19 253.668 145.246 254.721 144.567 255.788V241.356C144.562 241.041 144.351 240.74 143.925 240.516C142.975 240.014 141.314 240.077 140.217 240.656C139.612 240.975 139.305 241.384 139.309 241.771V265.508C138.742 264.025 137.712 262.507 135.854 261.468C131.803 259.203 126.91 260.3 126.91 260.3C126.91 260.3 127.658 273.133 139.309 270.41V280.172C139.313 280.488 139.523 280.788 139.95 281.014C140.901 281.515 142.561 281.452 143.659 280.874C144.256 280.559 144.562 280.157 144.567 279.774V261.023C145.829 261.678 147.851 262.15 150.702 261.13C155.999 259.233 157.07 251.302 157.07 251.302C157.07 251.302 151.92 250.521 147.486 252.956V252.956Z" fill="#249155"/>
<path d="M139.309 268.472C138.473 267.215 137.044 265.527 134.736 264.022C131.217 261.73 127.948 260.885 127.948 260.885C127.948 260.885 132.393 263.333 135.029 265.414C136.81 266.819 138.439 268.782 139.309 269.906V268.472Z" fill="#1B6D40"/>
<path d="M147.553 255.594C146.286 256.466 145.295 257.276 144.567 257.927V259.031C145.707 258.001 147.395 256.614 149.343 255.449C152.944 253.296 155.659 252.202 155.659 252.202C155.659 252.202 150.627 253.478 147.553 255.594V255.594Z" fill="#1B6D40"/>
<path d="M157.686 231.695C157.721 229.788 155.162 229.535 151.969 231.13C151.552 231.338 151.145 231.568 150.751 231.814C151.097 231.4 151.445 230.958 151.789 230.487C154.414 226.888 155.828 223.088 154.946 222C154.062 220.912 151.218 222.948 148.592 226.547C148.249 227.017 147.927 227.491 147.628 227.963C147.797 227.439 147.952 226.898 148.091 226.345C149.147 222.117 148.816 218.808 147.353 218.955C145.889 219.102 143.847 222.649 142.79 226.878C142.653 227.429 142.539 227.966 142.448 228.481C142.374 228.047 142.278 227.616 142.158 227.193C141.242 223.95 139.294 222.396 137.808 223.721C136.323 225.048 135.862 228.752 136.779 231.995C136.898 232.418 137.036 232.813 137.188 233.176C136.9 232.999 136.591 232.84 136.259 232.706C133.719 231.688 130.898 232.482 129.957 234.48C129.018 236.479 130.315 238.925 132.855 239.943C133.187 240.077 133.523 240.177 133.86 240.249C133.469 240.396 133.063 240.571 132.645 240.78C129.452 242.375 126.835 245.214 126.799 247.122C126.763 249.029 129.323 249.283 132.515 247.688C132.933 247.479 133.34 247.249 133.734 247.003C133.387 247.416 133.04 247.859 132.697 248.33C130.071 251.929 128.657 255.729 129.54 256.817C130.422 257.905 133.266 255.869 135.892 252.27C136.236 251.799 136.557 251.325 136.857 250.854C136.688 251.378 136.532 251.919 136.395 252.472C135.338 256.701 135.668 260.01 137.132 259.862C138.595 259.715 140.639 256.168 141.695 251.939C141.833 251.387 141.946 250.851 142.037 250.337C142.111 250.769 142.206 251.201 142.326 251.624C143.243 254.868 145.19 256.422 146.676 255.095C148.162 253.769 148.623 250.065 147.706 246.822C147.586 246.398 147.448 246.004 147.296 245.64C147.584 245.819 147.893 245.978 148.226 246.11C150.766 247.129 153.587 246.335 154.527 244.336C155.467 242.337 154.171 239.892 151.631 238.873C151.299 238.741 150.961 238.64 150.625 238.567C151.017 238.421 151.423 238.245 151.841 238.036C155.033 236.442 157.65 233.603 157.686 231.695V231.695Z" fill="#E8C725"/>
<path d="M153.659 234.489C153.263 234.54 152.869 234.621 152.484 234.723C152.869 234.42 153.263 234.085 153.659 233.719C156.697 230.914 158.771 227.389 158.292 225.845C157.812 224.301 154.962 225.323 151.925 228.127C151.527 228.494 151.147 228.873 150.787 229.258C151.051 228.762 151.307 228.24 151.553 227.7C153.43 223.562 153.935 219.844 152.68 219.396C151.425 218.946 148.886 221.937 147.009 226.075C146.764 226.615 146.544 227.149 146.345 227.67C146.387 227.17 146.409 226.662 146.409 226.153C146.409 222.263 145.151 219.772 143.601 220.59C142.05 221.408 140.793 225.225 140.793 229.115C140.793 229.624 140.815 230.108 140.855 230.565C140.658 230.253 140.437 229.952 140.191 229.67C138.314 227.513 135.775 227.201 134.521 228.973C133.266 230.745 133.771 233.931 135.648 236.088C135.893 236.37 136.151 236.619 136.414 236.838C136.053 236.833 135.674 236.854 135.276 236.906C132.239 237.307 129.388 239.292 128.909 241.342C128.43 243.391 130.504 244.729 133.541 244.328C133.937 244.276 134.33 244.197 134.716 244.094C134.33 244.397 133.937 244.732 133.54 245.099C130.503 247.904 128.429 251.429 128.909 252.972C129.388 254.516 132.239 253.495 135.276 250.69C135.673 250.323 136.052 249.944 136.413 249.559C136.15 250.056 135.892 250.576 135.647 251.118C133.77 255.255 133.265 258.973 134.52 259.422C135.774 259.87 138.313 256.88 140.19 252.743C140.435 252.201 140.656 251.668 140.854 251.148C140.813 251.648 140.79 252.155 140.79 252.664C140.79 256.554 142.048 259.045 143.599 258.227C145.15 257.409 146.407 253.591 146.407 249.701C146.407 249.193 146.385 248.709 146.344 248.253C146.541 248.565 146.762 248.865 147.008 249.147C148.885 251.305 151.424 251.617 152.679 249.845C153.933 248.071 153.429 244.887 151.552 242.729C151.306 242.447 151.05 242.199 150.786 241.98C151.146 241.985 151.526 241.962 151.923 241.91C154.961 241.511 157.811 239.524 158.291 237.475C158.77 235.426 156.697 234.089 153.659 234.489V234.489Z" fill="#FFE14D"/>
<path d="M151.843 235.66C151.843 240.657 148.517 246.462 144.416 248.626C140.314 250.79 136.989 248.494 136.989 243.496C136.989 238.499 140.314 232.694 144.416 230.529C148.517 228.366 151.843 230.663 151.843 235.66Z" fill="#FF7E27"/>
<path d="M150.663 236.998C150.663 240.289 148.475 244.111 145.774 245.536C143.072 246.961 140.883 245.448 140.883 242.158C140.883 238.867 143.072 235.045 145.774 233.62C148.474 232.195 150.663 233.708 150.663 236.998V236.998Z" fill="#B2260B"/>
<path d="M192.884 228.663C191.587 229.376 190.644 230.429 189.964 231.495V217.063H189.963C189.96 216.748 189.749 216.447 189.323 216.222C188.372 215.721 186.712 215.784 185.614 216.363C185.008 216.682 184.702 217.092 184.706 217.478V241.216C184.14 239.732 183.108 238.214 181.251 237.176C177.2 234.911 172.307 236.008 172.307 236.008C172.307 236.008 173.056 248.841 184.706 246.118V255.88C184.71 256.195 184.92 256.496 185.348 256.721C186.298 257.223 187.959 257.16 189.056 256.58C189.652 256.267 189.96 255.863 189.963 255.482H189.964V236.731C191.226 237.385 193.248 237.858 196.099 236.836C201.396 234.94 202.467 227.009 202.467 227.009C202.467 227.009 197.318 226.228 192.884 228.663V228.663Z" fill="#249155"/>
<path d="M184.706 244.179C183.871 242.921 182.441 241.234 180.132 239.73C176.615 237.436 173.344 236.592 173.344 236.592C173.344 236.592 177.79 239.041 180.425 241.12C182.208 242.527 183.837 244.489 184.706 245.613V244.179Z" fill="#1B6D40"/>
<path d="M192.95 231.302C191.683 232.174 190.693 232.983 189.964 233.634V234.738C191.104 233.708 192.791 232.32 194.74 231.156C198.341 229.004 201.056 227.909 201.056 227.909C201.056 227.909 196.025 229.186 192.95 231.302V231.302Z" fill="#1B6D40"/>
<path d="M203.082 207.403C203.118 205.495 200.559 205.241 197.366 206.836C196.948 207.045 196.542 207.275 196.149 207.521C196.495 207.108 196.841 206.665 197.186 206.194C199.812 202.595 201.225 198.795 200.342 197.708C199.46 196.62 196.615 198.655 193.99 202.254C193.646 202.725 193.325 203.199 193.026 203.67C193.193 203.147 193.349 202.605 193.487 202.053C194.543 197.823 194.213 194.514 192.75 194.663C191.287 194.809 189.244 198.356 188.188 202.585C188.05 203.137 187.935 203.673 187.844 204.188C187.771 203.755 187.676 203.324 187.556 202.899C186.638 199.656 184.691 198.102 183.206 199.429C181.72 200.755 181.26 204.458 182.176 207.701C182.296 208.126 182.434 208.52 182.585 208.884C182.298 208.705 181.988 208.546 181.656 208.414C179.116 207.394 176.295 208.189 175.355 210.188C174.415 212.186 175.711 214.632 178.251 215.651C178.583 215.783 178.92 215.884 179.257 215.957C178.866 216.102 178.459 216.278 178.042 216.487C174.849 218.082 172.232 220.922 172.197 222.828C172.161 224.736 174.721 224.99 177.913 223.395C178.331 223.186 178.738 222.956 179.131 222.71C178.784 223.124 178.438 223.567 178.094 224.038C175.468 227.636 174.055 231.436 174.937 232.524C175.819 233.612 178.664 231.576 181.29 227.977C181.633 227.506 181.954 227.033 182.254 226.562C182.086 227.086 181.93 227.627 181.792 228.18C180.736 232.408 181.066 235.717 182.529 235.57C183.994 235.423 186.036 231.875 187.092 227.647C187.23 227.095 187.344 226.559 187.435 226.044C187.508 226.477 187.604 226.909 187.723 227.332C188.641 230.575 190.589 232.129 192.073 230.803C193.559 229.476 194.02 225.773 193.103 222.53C192.983 222.106 192.845 221.711 192.694 221.348C192.981 221.526 193.292 221.685 193.624 221.818C196.164 222.837 198.985 222.043 199.924 220.044C200.865 218.046 199.568 215.599 197.028 214.581C196.696 214.448 196.359 214.347 196.023 214.275C196.414 214.129 196.82 213.953 197.238 213.745C200.43 212.15 203.047 209.31 203.082 207.403V207.403Z" fill="#E8C725"/>
<path d="M199.057 210.196C198.66 210.249 198.267 210.328 197.882 210.432C198.267 210.127 198.66 209.792 199.057 209.426C202.094 206.622 204.167 203.097 203.689 201.553C203.21 200.009 200.359 201.031 197.322 203.835C196.924 204.201 196.544 204.58 196.184 204.966C196.448 204.469 196.704 203.949 196.951 203.408C198.828 199.27 199.332 195.552 198.077 195.103C196.822 194.655 194.284 197.646 192.407 201.783C192.161 202.324 191.941 202.857 191.744 203.377C191.784 202.877 191.806 202.37 191.806 201.861C191.806 197.971 190.549 195.48 188.998 196.298C187.447 197.117 186.191 200.933 186.191 204.823C186.191 205.332 186.212 205.816 186.253 206.273C186.055 205.961 185.834 205.661 185.59 205.378C183.712 203.221 181.173 202.909 179.918 204.681C178.663 206.453 179.168 209.639 181.045 211.796C181.291 212.078 181.548 212.327 181.812 212.545C181.451 212.54 181.071 212.562 180.673 212.615C177.637 213.014 174.786 215 174.307 217.05C173.828 219.1 175.901 220.437 178.938 220.037C179.335 219.984 179.728 219.905 180.113 219.802C179.727 220.106 179.335 220.441 178.938 220.807C175.901 223.611 173.827 227.136 174.306 228.681C174.785 230.224 177.636 229.203 180.673 226.398C181.071 226.032 181.45 225.653 181.811 225.267C181.547 225.764 181.29 226.284 181.044 226.826C179.167 230.963 178.662 234.681 179.917 235.13C181.172 235.578 183.711 232.588 185.588 228.45C185.833 227.909 186.054 227.376 186.251 226.856C186.211 227.356 186.189 227.863 186.189 228.372C186.189 232.262 187.446 234.753 188.997 233.935C190.547 233.116 191.805 229.3 191.805 225.409C191.805 224.901 191.783 224.416 191.742 223.96C191.94 224.272 192.16 224.572 192.406 224.855C194.283 227.012 196.822 227.324 198.077 225.552C199.331 223.78 198.827 220.594 196.949 218.437C196.704 218.155 196.447 217.906 196.183 217.688C196.544 217.693 196.924 217.671 197.322 217.618C200.359 217.218 203.21 215.233 203.689 213.182C204.167 211.134 202.094 209.796 199.057 210.196V210.196Z" fill="#FFE14D"/>
<path d="M197.24 211.368C197.24 216.365 193.914 222.17 189.812 224.333C185.711 226.498 182.386 224.201 182.386 219.204C182.386 214.207 185.711 208.401 189.812 206.238C193.914 204.074 197.24 206.37 197.24 211.368Z" fill="#FF7E27"/>
<path d="M196.061 212.706C196.061 215.997 193.871 219.819 191.17 221.244C188.469 222.668 186.28 221.156 186.28 217.866C186.28 214.575 188.469 210.753 191.17 209.328C193.871 207.903 196.061 209.416 196.061 212.706Z" fill="#B2260B"/>
<path d="M224.735 260.39L152.855 297.769V308.307L215.722 341L286.49 304.199V293.659L224.735 260.39Z" fill="#B2260B"/>
<path d="M286.49 293.66L224.735 260.39L152.855 297.769L215.722 330.461L286.49 293.66Z" fill="#FF7E27"/>
<path d="M215.722 330.461V341L286.49 304.199V293.66L215.722 330.461Z" fill="#EF5F26"/>
<path d="M187.992 272.298C186.678 273.01 185.72 274.063 185.031 275.13V260.698C185.027 260.383 184.813 260.083 184.38 259.858C183.416 259.356 181.732 259.419 180.618 259.998C180.005 260.317 179.693 260.727 179.697 261.114V284.851C179.123 283.367 178.076 281.849 176.193 280.811C172.083 278.546 167.12 279.644 167.12 279.644C167.12 279.644 167.879 292.476 179.697 289.753V299.515C179.702 299.83 179.915 300.132 180.348 300.356C181.312 300.858 182.997 300.794 184.11 300.216C184.716 299.901 185.027 299.499 185.031 299.117V280.365C186.311 281.02 188.363 281.493 191.254 280.472C196.627 278.575 197.714 270.644 197.714 270.644C197.714 270.644 192.49 269.863 187.992 272.298V272.298Z" fill="#249155"/>
<path d="M179.697 287.813C178.85 286.557 177.4 284.869 175.059 283.364C171.491 281.071 168.173 280.227 168.173 280.227C168.173 280.227 172.683 282.675 175.356 284.755C177.163 286.161 178.815 288.123 179.697 289.247V287.813Z" fill="#1B6D40"/>
<path d="M188.06 274.937C186.775 275.809 185.77 276.618 185.031 277.268V278.373C186.187 277.343 187.9 275.955 189.876 274.791C193.528 272.638 196.283 271.544 196.283 271.544C196.283 271.544 191.18 272.821 188.06 274.937V274.937Z" fill="#1B6D40"/>
<path d="M198.339 251.037C198.375 249.13 195.779 248.877 192.541 250.471C192.117 250.68 191.704 250.91 191.305 251.156C191.655 250.742 192.008 250.3 192.357 249.829C195.02 246.229 196.454 242.43 195.559 241.342C194.664 240.254 191.779 242.29 189.115 245.889C188.767 246.359 188.44 246.833 188.137 247.305C188.308 246.781 188.465 246.24 188.606 245.687C189.677 241.458 189.343 238.149 187.857 238.297C186.372 238.444 184.301 241.991 183.229 246.22C183.089 246.771 182.974 247.308 182.882 247.822C182.806 247.389 182.71 246.958 182.588 246.535C181.659 243.292 179.682 241.737 178.176 243.064C176.669 244.389 176.201 248.094 177.132 251.337C177.253 251.76 177.392 252.154 177.547 252.518C177.254 252.34 176.94 252.182 176.604 252.048C174.027 251.029 171.166 251.824 170.213 253.822C169.258 255.821 170.574 258.266 173.15 259.285C173.487 259.419 173.829 259.518 174.17 259.591C173.773 259.737 173.361 259.914 172.937 260.122C169.699 261.717 167.045 264.556 167.008 266.464C166.972 268.371 169.568 268.624 172.807 267.03C173.23 266.821 173.643 266.591 174.042 266.344C173.692 266.759 173.339 267.201 172.99 267.672C170.327 271.272 168.893 275.071 169.789 276.159C170.684 277.247 173.569 275.211 176.232 271.612C176.581 271.142 176.907 270.668 177.21 270.197C177.04 270.72 176.882 271.261 176.742 271.814C175.67 276.044 176.005 279.351 177.49 279.204C178.975 279.057 181.046 275.51 182.118 271.281C182.258 270.73 182.373 270.194 182.466 269.679C182.541 270.112 182.637 270.543 182.759 270.966C183.688 274.209 185.665 275.763 187.172 274.438C188.679 273.112 189.146 269.408 188.216 266.165C188.095 265.741 187.955 265.346 187.801 264.983C188.093 265.161 188.407 265.319 188.743 265.453C191.32 266.471 194.181 265.678 195.135 263.679C196.089 261.68 194.773 259.234 192.198 258.216C191.86 258.083 191.519 257.983 191.177 257.91C191.574 257.764 191.986 257.588 192.41 257.379C195.648 255.784 198.302 252.945 198.339 251.037V251.037Z" fill="#E8C725"/>
<path d="M194.254 253.831C193.852 253.883 193.453 253.963 193.062 254.066C193.454 253.763 193.853 253.427 194.255 253.061C197.335 250.257 199.439 246.732 198.953 245.188C198.467 243.644 195.575 244.665 192.494 247.469C192.091 247.837 191.706 248.216 191.34 248.6C191.608 248.104 191.869 247.584 192.118 247.042C194.022 242.905 194.534 239.187 193.261 238.738C191.988 238.29 189.413 241.28 187.509 245.417C187.26 245.959 187.036 246.492 186.836 247.012C186.877 246.512 186.899 246.004 186.899 245.496C186.899 241.605 185.625 239.115 184.051 239.933C182.478 240.751 181.202 244.568 181.202 248.459C181.202 248.966 181.225 249.451 181.267 249.907C181.066 249.595 180.842 249.295 180.592 249.013C178.688 246.855 176.114 246.543 174.84 248.315C173.568 250.088 174.08 253.273 175.984 255.43C176.232 255.712 176.494 255.961 176.762 256.18C176.396 256.175 176.01 256.197 175.606 256.249C172.525 256.649 169.634 258.635 169.149 260.685C168.662 262.734 170.765 264.071 173.846 263.672C174.249 263.62 174.648 263.539 175.038 263.437C174.647 263.74 174.248 264.075 173.845 264.441C170.765 267.246 168.661 270.771 169.147 272.315C169.634 273.859 172.525 272.837 175.606 270.033C176.009 269.667 176.395 269.287 176.761 268.902C176.493 269.398 176.231 269.919 175.983 270.46C174.079 274.598 173.567 278.316 174.839 278.764C176.112 279.213 178.687 276.223 180.591 272.085C180.841 271.544 181.065 271.011 181.265 270.49C181.224 270.99 181.201 271.498 181.201 272.007C181.201 275.897 182.476 278.387 184.05 277.569C185.623 276.752 186.897 272.935 186.897 269.044C186.897 268.535 186.876 268.052 186.834 267.595C187.035 267.907 187.259 268.208 187.507 268.49C189.411 270.647 191.987 270.959 193.259 269.187C194.532 267.415 194.021 264.229 192.117 262.072C191.867 261.789 191.607 261.541 191.339 261.322C191.705 261.327 192.091 261.306 192.493 261.254C195.574 260.853 198.466 258.867 198.952 256.818C199.438 254.768 197.335 253.431 194.254 253.831V253.831Z" fill="#FFE14D"/>
<path d="M192.412 255.002C192.412 259.999 189.038 265.805 184.878 267.969C180.717 270.132 177.344 267.836 177.344 262.838C177.344 257.841 180.717 252.036 184.878 249.872C189.038 247.708 192.412 250.005 192.412 255.002Z" fill="#FF7E27"/>
<path d="M191.215 256.34C191.215 259.631 188.995 263.453 186.255 264.878C183.515 266.303 181.294 264.791 181.294 261.5C181.294 258.21 183.515 254.387 186.255 252.963C188.995 251.537 191.215 253.05 191.215 256.34Z" fill="#B2260B"/>
<path d="M234.043 248.006C232.727 248.718 231.771 249.771 231.082 250.838V236.406H231.08C231.077 236.091 230.863 235.79 230.431 235.565C229.467 235.064 227.782 235.127 226.669 235.705C226.055 236.025 225.744 236.434 225.748 236.82V260.558C225.174 259.075 224.127 257.557 222.243 256.518C218.134 254.253 213.17 255.351 213.17 255.351C213.17 255.351 213.93 268.183 225.748 265.461V275.222C225.752 275.538 225.965 275.838 226.399 276.064C227.363 276.565 229.047 276.502 230.161 275.924C230.765 275.609 231.077 275.207 231.08 274.824H231.082V256.073C232.362 256.727 234.413 257.2 237.305 256.18C242.678 254.283 243.765 246.352 243.765 246.352C243.765 246.352 238.541 245.57 234.043 248.006V248.006Z" fill="#249155"/>
<path d="M225.748 263.521C224.9 262.265 223.45 260.577 221.108 259.072C217.54 256.779 214.222 255.935 214.222 255.935C214.222 255.935 218.732 258.383 221.405 260.462C223.214 261.869 224.866 263.831 225.747 264.955V263.521H225.748Z" fill="#1B6D40"/>
<path d="M234.111 250.644C232.825 251.517 231.82 252.326 231.081 252.976V254.081C232.238 253.051 233.949 251.664 235.927 250.499C239.579 248.346 242.333 247.252 242.333 247.252C242.333 247.252 237.229 248.528 234.111 250.644Z" fill="#1B6D40"/>
<path d="M244.389 226.745C244.425 224.837 241.829 224.585 238.59 226.179C238.166 226.388 237.754 226.617 237.355 226.863C237.706 226.45 238.058 226.008 238.407 225.537C241.071 221.937 242.505 218.138 241.609 217.05C240.714 215.962 237.829 217.998 235.165 221.597C234.817 222.067 234.491 222.541 234.187 223.013C234.357 222.489 234.515 221.948 234.655 221.395C235.727 217.166 235.392 213.857 233.908 214.005C232.423 214.152 230.351 217.699 229.28 221.928C229.14 222.48 229.024 223.016 228.931 223.53C228.857 223.097 228.76 222.666 228.639 222.243C227.708 219 225.733 217.445 224.226 218.771C222.719 220.097 222.252 223.802 223.181 227.045C223.303 227.468 223.443 227.862 223.597 228.226C223.305 228.048 222.991 227.889 222.654 227.756C220.078 226.738 217.216 227.532 216.262 229.53C215.309 231.529 216.624 233.974 219.2 234.993C219.537 235.127 219.879 235.226 220.221 235.299C219.824 235.445 219.411 235.622 218.988 235.83C215.749 237.425 213.094 240.264 213.058 242.172C213.022 244.079 215.619 244.332 218.857 242.738C219.281 242.529 219.694 242.299 220.093 242.052C219.741 242.467 219.389 242.909 219.041 243.38C216.377 246.98 214.943 250.779 215.838 251.867C216.733 252.955 219.618 250.919 222.283 247.32C222.63 246.85 222.956 246.375 223.261 245.904C223.09 246.428 222.932 246.969 222.792 247.522C221.72 251.751 222.055 255.059 223.539 254.912C225.024 254.765 227.097 251.218 228.168 246.989C228.308 246.437 228.423 245.901 228.516 245.387C228.59 245.819 228.688 246.251 228.808 246.674C229.739 249.917 231.715 251.472 233.221 250.145C234.728 248.82 235.196 245.115 234.266 241.872C234.144 241.449 234.004 241.054 233.851 240.691C234.142 240.868 234.456 241.027 234.794 241.161C237.37 242.179 240.232 241.385 241.185 239.387C242.139 237.388 240.824 234.942 238.247 233.923C237.91 233.79 237.568 233.69 237.227 233.617C237.624 233.472 238.036 233.295 238.46 233.087C241.698 231.492 244.353 228.653 244.389 226.745V226.745Z" fill="#E8C725"/>
<path d="M240.305 229.538C239.903 229.59 239.503 229.67 239.113 229.773C239.503 229.469 239.903 229.134 240.305 228.767C243.386 225.963 245.49 222.438 245.004 220.895C244.518 219.35 241.626 220.372 238.545 223.176C238.142 223.543 237.756 223.923 237.391 224.307C237.659 223.81 237.919 223.29 238.168 222.749C240.073 218.612 240.585 214.893 239.312 214.444C238.039 213.996 235.463 216.987 233.559 221.124C233.31 221.665 233.087 222.198 232.887 222.718C232.927 222.219 232.95 221.711 232.95 221.203C232.95 217.312 231.674 214.821 230.101 215.639C228.529 216.458 227.253 220.275 227.253 224.165C227.253 224.673 227.275 225.157 227.316 225.614C227.116 225.302 226.892 225.002 226.643 224.719C224.739 222.562 222.164 222.25 220.891 224.022C219.618 225.795 220.13 228.98 222.034 231.137C222.283 231.419 222.544 231.668 222.812 231.886C222.445 231.882 222.06 231.904 221.657 231.956C218.576 232.356 215.684 234.342 215.198 236.392C214.713 238.441 216.816 239.778 219.897 239.378C220.299 239.327 220.697 239.246 221.089 239.144C220.697 239.447 220.298 239.782 219.896 240.148C216.815 242.953 214.712 246.478 215.198 248.022C215.684 249.566 218.576 248.544 221.657 245.74C222.059 245.373 222.445 244.994 222.811 244.608C222.543 245.105 222.282 245.626 222.033 246.167C220.129 250.305 219.617 254.023 220.89 254.471C222.162 254.92 224.738 251.93 226.642 247.792C226.891 247.251 227.115 246.718 227.315 246.197C227.274 246.697 227.252 247.205 227.252 247.714C227.252 251.604 228.527 254.094 230.1 253.276C231.673 252.459 232.948 248.641 232.948 244.751C232.948 244.243 232.926 243.759 232.884 243.302C233.086 243.614 233.309 243.915 233.558 244.197C235.462 246.354 238.038 246.666 239.31 244.894C240.584 243.121 240.071 239.936 238.167 237.778C237.918 237.496 237.657 237.248 237.39 237.029C237.755 237.034 238.142 237.012 238.545 236.96C241.625 236.56 244.516 234.574 245.003 232.525C245.489 230.475 243.386 229.138 240.305 229.538V229.538Z" fill="#FFE14D"/>
<path d="M238.462 230.71C238.462 235.707 235.089 241.512 230.928 243.677C226.767 245.84 223.394 243.543 223.394 238.546C223.394 233.549 226.767 227.744 230.928 225.58C235.089 223.416 238.462 225.713 238.462 230.71V230.71Z" fill="#FF7E27"/>
<path d="M237.266 232.048C237.266 235.338 235.044 239.161 232.305 240.585C229.565 242.011 227.344 240.498 227.344 237.208C227.344 233.917 229.565 230.095 232.305 228.67C235.044 227.245 237.266 228.757 237.266 232.048V232.048Z" fill="#B2260B"/>
<path d="M220.5 289.956C219.186 290.668 218.228 291.721 217.539 292.788V278.356C217.535 278.041 217.32 277.74 216.888 277.516C215.924 277.014 214.24 277.077 213.126 277.656C212.513 277.975 212.201 278.384 212.205 278.771V302.508C211.631 301.025 210.585 299.507 208.701 298.468C204.591 296.203 199.628 297.3 199.628 297.3C199.628 297.3 200.387 310.133 212.205 307.41V317.172C212.21 317.488 212.423 317.788 212.856 318.014C213.82 318.515 215.505 318.452 216.618 317.874C217.224 317.559 217.535 317.157 217.539 316.774V298.023C218.819 298.678 220.87 299.15 223.762 298.13C229.135 296.233 230.222 288.302 230.222 288.302C230.222 288.302 224.998 287.521 220.5 289.956V289.956Z" fill="#249155"/>
<path d="M212.205 305.472C211.358 304.215 209.908 302.527 207.567 301.022C203.997 298.73 200.681 297.885 200.681 297.885C200.681 297.885 205.19 300.333 207.864 302.414C209.671 303.819 211.323 305.782 212.205 306.906V305.472Z" fill="#1B6D40"/>
<path d="M220.568 292.594C219.283 293.466 218.278 294.276 217.539 294.927V296.031C218.695 295.001 220.408 293.614 222.384 292.449C226.036 290.296 228.791 289.202 228.791 289.202C228.791 289.202 223.687 290.478 220.568 292.594V292.594Z" fill="#1B6D40"/>
<path d="M230.847 268.695C230.882 266.788 228.287 266.535 225.048 268.13C224.625 268.338 224.212 268.568 223.813 268.814C224.163 268.4 224.516 267.958 224.865 267.487C227.528 263.888 228.962 260.088 228.067 259C227.171 257.912 224.286 259.948 221.622 263.547C221.274 264.017 220.948 264.491 220.644 264.963C220.816 264.439 220.973 263.898 221.114 263.345C222.185 259.117 221.849 255.808 220.365 255.955C218.88 256.102 216.808 259.649 215.737 263.878C215.597 264.429 215.482 264.966 215.389 265.481C215.314 265.047 215.217 264.616 215.096 264.193C214.166 260.95 212.19 259.396 210.683 260.721C209.176 262.048 208.709 265.752 209.639 268.995C209.76 269.418 209.9 269.813 210.054 270.176C209.762 269.999 209.448 269.84 209.111 269.706C206.535 268.688 203.674 269.482 202.719 271.48C201.766 273.479 203.082 275.925 205.658 276.943C205.995 277.077 206.336 277.177 206.678 277.249C206.281 277.396 205.869 277.571 205.445 277.78C202.206 279.375 199.552 282.214 199.516 284.122C199.479 286.029 202.076 286.283 205.314 284.688C205.738 284.479 206.151 284.249 206.55 284.003C206.198 284.416 205.847 284.859 205.498 285.33C202.834 288.929 201.4 292.729 202.295 293.817C203.191 294.905 206.076 292.869 208.739 289.27C209.088 288.799 209.414 288.325 209.718 287.854C209.547 288.378 209.389 288.919 209.249 289.472C208.178 293.701 208.512 297.01 209.997 296.862C211.481 296.715 213.554 293.168 214.626 288.939C214.766 288.387 214.881 287.851 214.973 287.337C215.047 287.769 215.144 288.201 215.266 288.624C216.196 291.868 218.171 293.422 219.678 292.095C221.186 290.769 221.654 287.065 220.723 283.822C220.601 283.398 220.462 283.004 220.308 282.64C220.599 282.819 220.913 282.978 221.251 283.11C223.828 284.129 226.689 283.335 227.642 281.336C228.596 279.337 227.281 276.892 224.704 275.873C224.368 275.741 224.026 275.64 223.685 275.567C224.081 275.421 224.494 275.245 224.917 275.036C228.155 273.442 230.81 270.603 230.847 268.695V268.695Z" fill="#E8C725"/>
<path d="M226.762 271.489C226.36 271.54 225.961 271.621 225.57 271.723C225.961 271.42 226.36 271.085 226.762 270.719C229.843 267.914 231.948 264.389 231.461 262.845C230.975 261.301 228.083 262.323 225.002 265.127C224.599 265.494 224.214 265.873 223.848 266.258C224.116 265.762 224.376 265.24 224.626 264.7C226.53 260.562 227.042 256.844 225.768 256.396C224.496 255.946 221.92 258.937 220.016 263.075C219.768 263.615 219.544 264.149 219.343 264.67C219.385 264.17 219.408 263.662 219.408 263.153C219.408 259.263 218.132 256.772 216.559 257.59C214.986 258.408 213.71 262.225 213.71 266.115C213.71 266.624 213.733 267.108 213.774 267.565C213.574 267.253 213.35 266.952 213.1 266.67C211.196 264.513 208.621 264.201 207.348 265.973C206.076 267.745 206.588 270.931 208.492 273.088C208.74 273.37 209.002 273.619 209.269 273.838C208.903 273.833 208.518 273.854 208.114 273.906C205.033 274.307 202.142 276.292 201.656 278.342C201.17 280.391 203.273 281.729 206.354 281.328C206.756 281.276 207.155 281.197 207.546 281.094C207.155 281.397 206.756 281.732 206.353 282.099C203.272 284.904 201.169 288.429 201.656 289.972C202.142 291.516 205.033 290.495 208.114 287.69C208.517 287.323 208.902 286.944 209.268 286.559C209.001 287.056 208.739 287.576 208.491 288.118C206.587 292.255 206.075 295.973 207.347 296.422C208.62 296.87 211.195 293.88 213.099 289.743C213.348 289.201 213.572 288.668 213.773 288.148C213.731 288.648 213.708 289.155 213.708 289.664C213.708 293.554 214.984 296.045 216.557 295.227C218.131 294.409 219.405 290.591 219.405 286.701C219.405 286.193 219.383 285.709 219.342 285.253C219.542 285.565 219.766 285.865 220.015 286.147C221.919 288.305 224.495 288.617 225.767 286.845C227.04 285.071 226.529 281.887 224.625 279.729C224.375 279.447 224.115 279.199 223.847 278.98C224.213 278.985 224.598 278.962 225.001 278.91C228.082 278.511 230.974 276.524 231.46 274.475C231.946 272.426 229.843 271.089 226.762 271.489V271.489Z" fill="#FFE14D"/>
<path d="M224.92 272.66C224.92 277.657 221.546 283.462 217.386 285.626C213.225 287.79 209.852 285.494 209.852 280.496C209.852 275.499 213.225 269.694 217.386 267.529C221.546 265.366 224.92 267.663 224.92 272.66Z" fill="#FF7E27"/>
<path d="M223.723 273.998C223.723 277.289 221.503 281.111 218.763 282.536C216.023 283.961 213.802 282.448 213.802 279.158C213.802 275.867 216.023 272.045 218.763 270.62C221.502 269.195 223.723 270.708 223.723 273.998V273.998Z" fill="#B2260B"/>
<path d="M266.551 265.663C265.235 266.376 264.279 267.429 263.589 268.495V254.063H263.588C263.585 253.748 263.371 253.447 262.939 253.222C261.975 252.721 260.29 252.784 259.177 253.363C258.562 253.682 258.252 254.092 258.256 254.478V278.216C257.681 276.732 256.635 275.214 254.751 274.176C250.642 271.911 245.678 273.008 245.678 273.008C245.678 273.008 246.438 285.841 258.256 283.118V292.88C258.26 293.195 258.473 293.496 258.907 293.721C259.871 294.223 261.555 294.16 262.669 293.58C263.273 293.267 263.585 292.863 263.588 292.482H263.589V273.731C264.87 274.385 266.921 274.858 269.813 273.836C275.186 271.94 276.272 264.009 276.272 264.009C276.272 264.009 271.049 263.228 266.551 265.663V265.663Z" fill="#249155"/>
<path d="M258.256 281.179C257.408 279.921 255.958 278.234 253.616 276.73C250.048 274.436 246.73 273.592 246.73 273.592C246.73 273.592 251.24 276.041 253.913 278.12C255.721 279.527 257.374 281.489 258.256 282.613V281.179Z" fill="#1B6D40"/>
<path d="M266.619 268.302C265.333 269.174 264.329 269.983 263.589 270.634V271.738C264.746 270.708 266.457 269.32 268.435 268.156C272.087 266.004 274.841 264.909 274.841 264.909C274.841 264.909 269.737 266.186 266.619 268.302V268.302Z" fill="#1B6D40"/>
<path d="M276.896 244.403C276.933 242.495 274.337 242.241 271.098 243.836C270.674 244.045 270.262 244.275 269.863 244.521C270.214 244.108 270.566 243.665 270.915 243.194C273.579 239.595 275.013 235.795 274.117 234.708C273.222 233.62 270.337 235.655 267.673 239.254C267.324 239.725 266.999 240.199 266.695 240.67C266.865 240.147 267.023 239.605 267.163 239.053C268.235 234.823 267.9 231.514 266.415 231.663C264.931 231.809 262.859 235.356 261.788 239.585C261.648 240.137 261.532 240.673 261.439 241.188C261.365 240.755 261.268 240.324 261.146 239.899C260.216 236.656 258.241 235.102 256.734 236.429C255.227 237.755 254.76 241.458 255.689 244.701C255.811 245.126 255.951 245.52 256.104 245.884C255.813 245.705 255.499 245.546 255.162 245.414C252.586 244.394 249.724 245.189 248.77 247.188C247.817 249.186 249.131 251.632 251.708 252.651C252.045 252.783 252.387 252.884 252.729 252.957C252.332 253.102 251.919 253.278 251.496 253.487C248.257 255.082 245.602 257.922 245.566 259.828C245.53 261.736 248.127 261.99 251.365 260.395C251.789 260.186 252.202 259.956 252.601 259.71C252.249 260.124 251.897 260.567 251.549 261.038C248.885 264.636 247.451 268.436 248.346 269.524C249.241 270.612 252.126 268.576 254.791 264.977C255.138 264.506 255.464 264.033 255.769 263.562C255.598 264.086 255.44 264.627 255.3 265.18C254.228 269.408 254.563 272.717 256.047 272.57C257.533 272.423 259.605 268.875 260.676 264.647C260.816 264.095 260.931 263.559 261.024 263.044C261.098 263.477 261.196 263.909 261.316 264.332C262.247 267.575 264.223 269.129 265.729 267.803C267.236 266.476 267.704 262.773 266.774 259.53C266.652 259.106 266.512 258.711 266.358 258.348C266.65 258.526 266.965 258.685 267.302 258.818C269.878 259.837 272.74 259.043 273.693 257.044C274.647 255.046 273.331 252.599 270.755 251.581C270.418 251.448 270.076 251.347 269.735 251.275C270.132 251.129 270.544 250.953 270.968 250.745C274.206 249.15 276.861 246.31 276.896 244.403V244.403Z" fill="#E8C725"/>
<path d="M272.813 247.196C272.411 247.249 272.012 247.328 271.621 247.432C272.012 247.127 272.411 246.792 272.813 246.426C275.894 243.622 277.997 240.097 277.512 238.553C277.026 237.009 274.134 238.031 271.053 240.835C270.65 241.201 270.264 241.58 269.899 241.966C270.167 241.469 270.427 240.949 270.677 240.408C272.581 236.27 273.093 232.552 271.819 232.103C270.546 231.655 267.972 234.646 266.068 238.783C265.818 239.324 265.595 239.857 265.395 240.377C265.435 239.877 265.458 239.37 265.458 238.861C265.458 234.971 264.183 232.48 262.609 233.298C261.037 234.117 259.762 237.933 259.762 241.823C259.762 242.332 259.783 242.816 259.825 243.273C259.624 242.961 259.401 242.661 259.152 242.378C257.248 240.221 254.672 239.909 253.399 241.681C252.126 243.453 252.638 246.639 254.542 248.796C254.792 249.078 255.052 249.327 255.32 249.545C254.954 249.54 254.568 249.562 254.165 249.615C251.085 250.014 248.193 252 247.707 254.05C247.221 256.1 249.324 257.437 252.405 257.037C252.807 256.984 253.206 256.905 253.597 256.802C253.205 257.106 252.807 257.441 252.405 257.807C249.324 260.611 247.22 264.136 247.706 265.681C248.192 267.224 251.084 266.203 254.165 263.398C254.568 263.032 254.953 262.653 255.319 262.267C255.051 262.764 254.791 263.284 254.541 263.826C252.637 267.963 252.125 271.681 253.398 272.13C254.67 272.578 257.247 269.588 259.151 265.45C259.399 264.909 259.623 264.376 259.823 263.856C259.782 264.356 259.76 264.863 259.76 265.372C259.76 269.262 261.036 271.753 262.608 270.935C264.181 270.116 265.457 266.3 265.457 262.409C265.457 261.901 265.434 261.416 265.394 260.96C265.594 261.272 265.817 261.572 266.067 261.855C267.971 264.012 270.546 264.324 271.819 262.552C273.092 260.78 272.579 257.594 270.675 255.437C270.427 255.155 270.166 254.906 269.898 254.688C270.264 254.693 270.65 254.671 271.053 254.618C274.134 254.218 277.026 252.233 277.512 250.182C277.997 248.134 275.894 246.796 272.813 247.196V247.196Z" fill="#FFE14D"/>
<path d="M270.97 248.368C270.97 253.365 267.597 259.17 263.436 261.333C259.275 263.498 255.902 261.201 255.902 256.204C255.902 251.207 259.275 245.401 263.436 243.238C267.597 241.074 270.97 243.37 270.97 248.368Z" fill="#FF7E27"/>
<path d="M269.774 249.706C269.774 252.997 267.553 256.819 264.813 258.244C262.073 259.668 259.852 258.156 259.852 254.866C259.852 251.575 262.073 247.753 264.813 246.328C267.553 244.903 269.774 246.416 269.774 249.706Z" fill="#B2260B"/>
<g clip-path="url(#clip2)">
<path d="M86.8411 259.756L11 298.884V309.917L77.3315 344.14L152 305.615V294.582L86.8411 259.756Z" fill="#B2260B"/>
<path d="M152 294.582L86.8411 259.756L11 298.884L77.3315 333.107L152 294.582Z" fill="#FF7E27"/>
<path d="M77.3314 333.106V344.139L152 305.615V294.582L77.3314 333.106Z" fill="#EF5F26"/>
<path d="M79.9778 316.423L78.0759 296.246C77.9575 295.346 76.4934 295.346 76.3772 296.248L74.4592 316.829H74.4603C74.3882 317.207 74.6044 317.578 75.1229 317.846C76.1255 318.363 77.8758 318.298 79.0343 317.701C79.74 317.336 80.0606 316.859 79.9778 316.423Z" fill="#249155"/>
<path d="M77.1594 295.68C77.1594 295.68 73.9891 293.061 68.3705 294.864C62.753 296.666 60.254 304.462 60.254 304.462C60.254 304.462 62.185 303.995 64.457 304.176C66.5773 304.345 68.946 305.207 71.5891 304.047C77.0636 301.644 77.1594 295.68 77.1594 295.68Z" fill="#249155"/>
<path d="M77.1594 295.68C77.1594 295.68 77.651 290.607 80.9084 288.512C86.7153 284.778 93.3548 287.384 93.3548 287.384C93.3548 287.384 91.3108 287.888 90.4492 290.271C89.5724 292.696 86.3312 297.697 77.1594 295.68V295.68Z" fill="#249155"/>
<path d="M77.1594 295.68C77.1594 295.68 72.2593 295.587 68.7061 297.82C65.153 300.051 62.9445 302.502 62.9445 302.502C62.9445 302.502 66.7203 299.504 70.508 297.76C74.2957 296.017 77.1594 295.68 77.1594 295.68Z" fill="#1B6D40"/>
<path d="M77.1593 295.68C77.1593 295.68 80.1122 291.463 83.5342 289.789C86.955 288.115 90.2694 287.665 90.2694 287.665C90.2694 287.665 85.7792 288.834 82.7779 291.044C79.7766 293.255 77.1593 295.68 77.1593 295.68Z" fill="#1B6D40"/>
<path d="M120.417 295.366L118.515 275.188C118.397 274.287 116.933 274.289 116.817 275.19L114.899 295.77H114.9C114.828 296.149 115.044 296.52 115.562 296.787C116.565 297.304 118.316 297.24 119.474 296.642C120.179 296.279 120.501 295.8 120.417 295.366V295.366Z" fill="#249155"/>
<path d="M117.599 274.622C117.599 274.622 114.43 272.003 108.811 273.806C103.192 275.608 100.693 283.404 100.693 283.404C100.693 283.404 102.626 282.937 104.897 283.118C107.018 283.287 109.387 284.149 112.029 282.99C117.503 280.587 117.599 274.622 117.599 274.622Z" fill="#249155"/>
<path d="M117.599 274.622C117.599 274.622 118.091 269.549 121.349 267.454C127.156 263.722 133.795 266.327 133.795 266.327C133.795 266.327 131.751 266.83 130.89 269.213C130.013 271.639 126.772 276.64 117.599 274.622V274.622Z" fill="#249155"/>
<path d="M117.599 274.622C117.599 274.622 112.699 274.53 109.147 276.761C105.593 278.993 103.385 281.444 103.385 281.444C103.385 281.444 107.161 278.446 110.948 276.703C114.735 274.959 117.599 274.622 117.599 274.622Z" fill="#1B6D40"/>
<path d="M117.599 274.622C117.599 274.622 120.553 270.406 123.974 268.731C127.396 267.057 130.709 266.607 130.709 266.607C130.709 266.607 126.219 267.776 123.217 269.986C120.216 272.196 117.599 274.622 117.599 274.622V274.622Z" fill="#1B6D40"/>
<path d="M49.5666 300.731L47.6647 280.554C47.5463 279.653 46.0833 279.654 45.9671 280.555L44.0491 301.136H44.0502C43.9781 301.514 44.1932 301.885 44.7117 302.154C45.7143 302.671 47.4656 302.605 48.6231 302.008C49.3288 301.644 49.6505 301.165 49.5666 300.731Z" fill="#249155"/>
<path d="M46.7492 279.987C46.7492 279.987 43.579 277.369 37.9603 279.171C32.3417 280.974 29.8428 288.77 29.8428 288.77C29.8428 288.77 31.7748 288.303 34.0468 288.483C36.1671 288.652 38.5359 289.514 41.1779 288.355C46.6524 285.951 46.7492 279.987 46.7492 279.987Z" fill="#249155"/>
<path d="M46.7491 279.987C46.7491 279.987 47.2408 274.913 50.4981 272.82C56.305 269.086 62.9445 271.691 62.9445 271.691C62.9445 271.691 60.9006 272.195 60.0389 274.579C59.1622 277.003 55.9209 282.005 46.7491 279.987Z" fill="#249155"/>
<path d="M46.7492 279.987C46.7492 279.987 41.8492 279.895 38.296 282.127C34.7428 284.358 32.5343 286.81 32.5343 286.81C32.5343 286.81 36.3102 283.811 40.0979 282.068C43.8856 280.325 46.7492 279.987 46.7492 279.987Z" fill="#1B6D40"/>
<path d="M46.7491 279.988C46.7491 279.988 49.7021 275.771 53.124 274.097C56.546 272.424 59.8592 271.973 59.8592 271.973C59.8592 271.973 55.3691 273.143 52.3678 275.353C49.3654 277.563 46.7491 279.988 46.7491 279.988Z" fill="#1B6D40"/>
<path d="M90.0069 279.672L88.105 259.495C87.9867 258.595 86.5226 258.597 86.4064 259.497L84.4884 280.078H84.4894C84.4174 280.457 84.6336 280.828 85.1521 281.095C86.1547 281.612 87.906 281.548 89.0635 280.95C89.7692 280.585 90.0908 280.108 90.0069 279.672V279.672Z" fill="#249155"/>
<path d="M87.1885 258.93C87.1885 258.93 84.0194 256.312 78.4008 258.115C72.7822 259.917 70.2832 267.712 70.2832 267.712C70.2832 267.712 72.2152 267.245 74.4872 267.427C76.6064 267.595 78.9763 268.457 81.6183 267.298C87.0928 264.895 87.1885 258.93 87.1885 258.93Z" fill="#249155"/>
<path d="M87.1886 258.929C87.1886 258.929 87.6802 253.857 90.9376 251.762C96.7455 248.029 103.384 250.634 103.384 250.634C103.384 250.634 101.34 251.138 100.478 253.522C99.6027 255.946 96.3615 260.947 87.1886 258.929Z" fill="#249155"/>
<path d="M87.1885 258.929C87.1885 258.929 82.2885 258.838 78.7353 261.069C75.1832 263.301 72.9736 265.753 72.9736 265.753C72.9736 265.753 76.7495 262.753 80.5372 261.01C84.3249 259.267 87.1885 258.929 87.1885 258.929Z" fill="#1B6D40"/>
<path d="M87.1886 258.929C87.1886 258.929 90.1415 254.713 93.5635 253.04C96.9854 251.366 100.299 250.915 100.299 250.915C100.299 250.915 95.8085 252.084 92.8072 254.294C89.8059 256.504 87.1886 258.929 87.1886 258.929Z" fill="#1B6D40"/>
</g>
<path d="M151.765 294L77 333.878V345.122L142.391 380L216 340.738V329.493L151.765 294Z" fill="#B2260B"/>
<path d="M216 329.609L151.765 294L77 334.008L142.391 369L216 329.609Z" fill="#FF7E27"/>
<path d="M142 368.646V380L216 340.354V329L142 368.646Z" fill="#EF5F26"/>
<path d="M145.355 352.034L143.471 331.676C143.354 330.767 141.903 330.768 141.788 331.678L139.888 352.443H139.889C139.818 352.826 140.032 353.199 140.546 353.47C141.539 353.991 143.273 353.925 144.42 353.323C145.12 352.955 145.437 352.473 145.355 352.034Z" fill="#249155"/>
<path d="M142.563 331.105C142.563 331.105 139.422 328.463 133.856 330.282C128.291 332.101 125.816 339.967 125.816 339.967C125.816 339.967 127.729 339.495 129.979 339.678C132.08 339.848 134.426 340.718 137.045 339.548C142.468 337.123 142.563 331.105 142.563 331.105Z" fill="#249155"/>
<path d="M142.563 331.105C142.563 331.105 143.05 325.987 146.277 323.873C152.03 320.106 158.607 322.735 158.607 322.735C158.607 322.735 156.582 323.244 155.729 325.648C154.86 328.095 151.649 333.141 142.563 331.105V331.105Z" fill="#249155"/>
<path d="M142 331.001C142 331.001 137.863 330.906 134.864 333.196C131.864 335.485 130 338 130 338C130 338 133.188 334.924 136.385 333.135C139.583 331.347 142 331.001 142 331.001Z" fill="#1B6D40"/>
<path d="M142 331C142 331 144.928 326.791 148.321 325.12C151.713 323.45 155 323 155 323C155 323 150.548 324.168 147.571 326.373C144.595 328.579 142 331 142 331Z" fill="#1B6D40"/>
<path d="M184.991 330.278L183.618 310.656C183.533 309.78 182.477 309.782 182.393 310.658L181.009 330.671H181.01C180.958 331.04 181.114 331.4 181.488 331.66C182.211 332.163 183.475 332.101 184.31 331.519C184.819 331.166 185.051 330.7 184.991 330.278V330.278Z" fill="#249155"/>
<path d="M182 310.253C182 310.253 179.001 307.989 173.683 309.547C168.365 311.105 166 317.844 166 317.844C166 317.844 167.829 317.44 169.979 317.596C171.986 317.742 174.228 318.488 176.728 317.486C181.909 315.408 182 310.253 182 310.253Z" fill="#249155"/>
<path d="M182 309.563C182 309.563 182.487 304.831 185.705 302.877C191.441 299.395 198 301.825 198 301.825C198 301.825 195.981 302.295 195.13 304.518C194.264 306.78 191.062 311.445 182 309.563V309.563Z" fill="#249155"/>
<path d="M182 310C182 310 177.518 309.92 174.27 311.882C171.02 313.844 169 316 169 316C169 316 172.453 313.363 175.918 311.831C179.381 310.297 182 310 182 310Z" fill="#1B6D40"/>
<path d="M182 310C182 310 185.155 305.791 188.808 304.12C192.462 302.449 196 302 196 302C196 302 191.205 303.167 188 305.373C184.795 307.579 182 310 182 310V310Z" fill="#1B6D40"/>
<path d="M115.986 336.199L113.927 315.686C113.799 314.771 112.215 314.772 112.09 315.687L110.013 336.611H110.015C109.937 336.995 110.17 337.373 110.731 337.645C111.816 338.171 113.712 338.105 114.965 337.498C115.729 337.127 116.077 336.641 115.986 336.199Z" fill="#249155"/>
<path d="M112 315.531C112 315.531 108.812 312.765 103.163 314.669C97.5128 316.573 95 324.81 95 324.81C95 324.81 96.9427 324.316 99.2273 324.507C101.359 324.685 103.741 325.596 106.398 324.371C111.903 321.832 112 315.531 112 315.531Z" fill="#249155"/>
<path d="M112 314.514C112 314.514 112.546 309.256 116.167 307.086C122.621 303.216 130 305.916 130 305.916C130 305.916 127.728 306.438 126.771 308.909C125.796 311.422 122.194 316.605 112 314.514Z" fill="#249155"/>
<path d="M112 315.001C112 315.001 107.174 314.892 103.675 317.51C100.175 320.126 98 323 98 323C98 323 101.719 319.484 105.449 317.44C109.18 315.396 112 315.001 112 315.001Z" fill="#1B6D40"/>
<path d="M112 315C112 315 115.153 310.791 118.808 309.12C122.462 307.45 126 307 126 307C126 307 121.205 308.168 118 310.373C114.794 312.579 112 315 112 315Z" fill="#1B6D40"/>
<path d="M154.986 314.277L152.928 294.656C152.799 293.78 151.215 293.782 151.089 294.658L149.013 314.671H149.015C148.937 315.04 149.171 315.4 149.732 315.66C150.817 316.163 152.712 316.101 153.965 315.519C154.729 315.165 155.077 314.7 154.986 314.277V314.277Z" fill="#249155"/>
<path d="M153 294.252C153 294.252 150.001 291.989 144.683 293.547C139.365 295.106 137 301.844 137 301.844C137 301.844 138.829 301.44 140.979 301.597C142.985 301.742 145.228 302.488 147.728 301.486C152.909 299.408 153 294.252 153 294.252Z" fill="#249155"/>
<path d="M153 293.563C153 293.563 153.486 288.831 156.704 286.877C162.442 283.395 169 285.825 169 285.825C169 285.825 166.981 286.295 166.129 288.519C165.264 290.78 162.062 295.445 153 293.563Z" fill="#249155"/>
<path d="M153 294.001C153 294.001 147.829 293.907 144.08 296.196C140.332 298.485 138 301 138 301C138 301 141.984 297.923 145.981 296.135C149.978 294.347 153 294.001 153 294.001Z" fill="#1B6D40"/>
<path d="M153 294C153 294 155.928 289.791 159.321 288.121C162.715 286.45 166 286 166 286C166 286 161.548 287.167 158.571 289.373C155.595 291.579 153 294 153 294Z" fill="#1B6D40"/>
<g clip-path="url(#clip3)">
<path d="M276.603 71.4911C276.603 71.4911 272.07 70.896 267.675 72.9562C263.281 75.0164 262.366 76.8469 262.366 76.8469C262.366 76.8469 265.105 80.108 271.017 79.044C276.93 77.98 279.989 72.354 279.989 72.354C279.989 72.354 278.65 66.4471 275.853 64.4571C273.23 62.5909 269.735 62.8396 269.735 62.8396C269.735 62.8396 269.185 66.1353 271.177 69.0655C272.692 71.2923 276.603 71.4911 276.603 71.4911Z" fill="#BF0025"/>
<path d="M298.644 195.499C297.813 193.185 295.718 191.387 295.166 190.936C294.238 190.178 288.059 186.758 288.059 186.758L271.567 193.238V195.488C271.567 196.46 272.079 197.359 272.915 197.853L284.09 204.335C287.937 206.556 292.676 206.556 296.523 204.335C297.856 203.565 298.661 202.341 298.953 201.021L298.96 201.019C298.96 201.02 299.604 198.177 298.644 195.499V195.499Z" fill="#2B5D99"/>
<path d="M324.186 180.622C323.355 178.308 321.261 176.509 320.71 176.058C319.78 175.3 313.602 171.881 313.602 171.881L297.109 178.36V180.611C297.109 181.583 297.622 182.482 298.458 182.976L309.634 189.458C313.48 191.678 318.22 191.678 322.065 189.458C323.399 188.687 324.205 187.464 324.497 186.144L324.503 186.142C324.504 186.143 325.148 183.299 324.186 180.622V180.622Z" fill="#2B5D99"/>
<path d="M328.238 113.011C328.238 113.011 329.13 118.32 328.238 122.441C327.345 126.56 321.508 127.933 321.508 127.933L318.488 115.917L328.238 113.011Z" fill="#F8DB8F"/>
<path d="M308.116 79.0439C308.116 79.0439 316.977 79.2879 322.195 92.5335C327.414 105.778 328.237 113.011 328.237 113.011C328.237 113.011 324.759 116.49 320.548 117.588C316.336 118.687 308.116 79.0439 308.116 79.0439Z" fill="#EF5F26"/>
<path d="M308.116 79.0439C308.116 79.0439 315.604 80.5698 318.533 92.5335C321.463 104.496 323.57 124.878 322.378 141.85C320.913 162.724 318.383 174.597 318.383 174.597C318.383 174.597 316.719 179.386 310.912 181.502C306.173 183.229 297.018 181.306 297.018 178.457V168.033L295.646 169.017L293.722 189.594C293.722 189.594 293.769 192.821 290.335 194.812C283.364 198.855 272.574 196.644 271.567 193.834C269.916 189.229 265.341 149.357 265.341 139.195C265.341 129.032 264.403 104.52 267.538 99.3687C273.306 89.8937 308.116 79.0439 308.116 79.0439V79.0439Z" fill="#2C92BF"/>
<path d="M311.758 103.626C311.758 103.626 311.758 100.605 310.891 95.1114C310.024 89.6187 308.116 82.4775 308.116 82.4775C307.596 81.3492 306.993 80.4066 306.329 79.6211C301.025 81.3659 285.11 86.8443 275.146 92.8869C276.889 94.0164 279.114 95.9016 281.409 99.0259C286.448 105.888 287.176 115.574 287.176 115.574L311.758 103.626Z" fill="#EF5F26"/>
<path d="M255.316 147.16C255.316 147.16 254.842 155.987 261.77 156.361C270.697 156.842 270.285 144.551 270.285 144.551L255.316 147.16Z" fill="#F8DB8F"/>
<path d="M311.758 84.1687C312.376 82.3584 311.8 80.9587 311.758 80.0637C311.717 79.1687 312.239 76.298 312.101 74.4437C311.964 72.5893 310.889 71.0564 310.889 71.0564C310.874 67.1228 310.66 64.2128 310.66 64.2128C310.436 55.6994 304.205 47.1836 290.884 50.8923C277.563 54.5997 276.603 71.4908 276.603 71.4908L275.351 80.2791L275.353 80.2779C274.194 82.2727 274.629 86.5955 275.503 87.5583C277.838 90.1327 280.642 89.6804 281.322 89.5209C281.453 90.0851 281.683 90.6242 282.095 91.0598C283.262 92.2964 285.734 91.6097 286.558 92.5333C287.382 93.4557 287.176 94.0127 288.756 95.3862C290.335 96.7596 292.12 96.2098 293.963 96.4157C295.806 96.6216 294.798 97.7891 296.445 98.8198C298.094 99.8494 300.36 98.339 300.909 99.4376C301.458 100.536 303.381 101.223 305.441 100.193C307.501 99.1626 307.569 95.6611 308.736 94.5626C309.904 93.464 309.766 92.9832 310.18 91.2515C310.594 89.5209 311.62 89.6864 312.124 87.6952C312.627 85.704 311.141 85.9789 311.758 84.1687Z" fill="#F8DB8F"/>
<path d="M271.109 135.898C271.109 135.898 279.486 131.229 278.937 120.106C278.387 108.982 271.235 95.6294 268.027 98.6548C258.749 107.403 255.728 123.127 255.316 129.994C254.904 136.86 255.316 147.16 255.316 147.16C255.316 147.16 258.531 148.415 262.182 148.258C265.834 148.101 270.285 144.551 270.285 144.551L271.109 135.898Z" fill="#EF5F26"/>
<path d="M290.06 127.933L312.822 114.792V132.574C312.822 139.985 308.869 146.833 302.45 150.54C296.944 153.719 290.06 149.745 290.06 143.385V127.933Z" fill="#2B5D99"/>
<path d="M300.131 68.8823C304.718 66.9934 308.082 64.7416 310.539 62.5671C309.6 54.65 303.345 47.4232 290.885 50.8914C277.563 54.6 276.603 71.4911 276.603 71.4911C276.603 71.4911 286.124 74.6499 300.131 68.8823Z" fill="#EA2642"/>
<path d="M311.758 84.1694C312.376 82.3591 311.8 80.9595 311.758 80.0645C311.717 79.1694 312.239 76.2987 312.101 74.4444C311.964 72.5901 310.89 71.0571 310.89 71.0571L288.177 84.1694L282.169 80.7012C282.343 79.0945 282.645 76.438 282.919 74.8169C283.069 73.9302 283.363 73.0793 283.677 72.3532C279.202 72.3521 276.603 71.4915 276.603 71.4915L275.351 80.2799C275.351 80.2799 278.095 78.5648 280.173 81.5855C281.084 82.9114 281.066 85.5679 281.134 86.6664C281.203 87.7661 280.928 89.8252 282.095 91.0618C283.263 92.2972 285.735 91.6104 286.559 92.534C287.382 93.4576 287.176 94.0146 288.756 95.3869C290.335 96.7604 292.12 96.2117 293.964 96.4176C295.806 96.6235 294.798 97.7899 296.447 98.8206C298.094 99.8501 300.36 98.3398 300.909 99.4383C301.458 100.537 303.381 101.224 305.441 100.194C307.501 99.1646 307.57 95.6618 308.736 94.5633C309.904 93.4648 309.767 92.9839 310.18 91.2522C310.594 89.5217 311.62 89.6883 312.125 87.6971C312.628 85.7059 311.141 85.9797 311.758 84.1694Z" fill="#162F4D"/>
<path d="M307.521 69.398C307.521 70.1716 307.05 71.0714 306.469 71.4058C305.888 71.7415 305.418 71.3856 305.418 70.6108C305.418 69.8372 305.888 68.9374 306.469 68.6029C307.05 68.2673 307.521 68.6232 307.521 69.398Z" fill="#162F4D"/>
<path d="M298.071 74.7398C298.071 75.5134 297.601 76.4132 297.02 76.7488C296.439 77.0833 295.968 76.7274 295.968 75.9538C295.968 75.179 296.439 74.2792 297.02 73.9447C297.601 73.6091 298.071 73.965 298.071 74.7398Z" fill="#162F4D"/>
<path d="M302.12 79.8272L306.413 77.3493C307.032 76.9922 307.806 77.4385 307.806 78.1538V79.2833C307.806 80.4104 307.203 81.4519 306.228 82.016L301.936 84.494C301.317 84.851 300.543 84.4047 300.543 83.6894V82.5599C300.543 81.4328 301.144 80.3914 302.12 79.8272Z" fill="#F8DB8F"/>
<path d="M278.936 120.105C278.639 114.071 276.397 107.386 273.896 103.011C275.059 107.988 273.942 114.847 273.306 119.83C272.482 126.286 271.109 135.898 271.109 135.898C271.109 135.898 279.486 131.229 278.936 120.105Z" fill="#BD4B1E"/>
</g>
<path d="M265.264 399L252.089 406.607V407.297L190.818 442.685L190.108 442.275L176.932 449.883V450.705L172.141 453.473V465.316L176.932 468.082V480.418L172.141 483.187V495.029L176.932 497.795V502.373L181.389 505L194.611 497.366V487.583L252.088 454.386V459.097L256.545 461.725L269.767 454.091V401.6L265.264 399ZM252.089 437.01L194.612 470.207V457.87L252.089 424.673V437.01Z" fill="#B2260B"/>
<path d="M176.932 468.082L172.141 465.315V453.473L176.932 456.239V468.082Z" fill="#B2260B"/>
<path d="M172.141 453.472L264.898 399.897L269.69 402.664L176.932 456.239L172.141 453.472Z" fill="#FF7E27"/>
<path d="M176.932 456.239L269.69 402.664V414.506L176.932 468.082V456.239Z" fill="#EF5F26"/>
<path d="M176.932 497.794L172.141 495.028V483.186L176.932 485.952V497.794Z" fill="#B2260B"/>
<path d="M172.141 483.186L264.898 429.611L269.69 432.377L176.932 485.952L172.141 483.186Z" fill="#FF7E27"/>
<path d="M176.932 485.952L269.69 432.377V444.219L176.932 497.794V485.952Z" fill="#EF5F26"/>
<path d="M252.089 406.607V459.097L256.545 461.725L257.987 458.81V408.401L252.089 406.607Z" fill="#B2260B"/>
<path d="M256.545 461.725L269.767 454.091V401.6L256.545 409.234V461.725Z" fill="#EF5F26"/>
<path d="M252.089 406.607L265.264 399L269.767 401.6L256.545 409.234L252.089 406.607Z" fill="#FF7E27"/>
<path d="M176.932 449.882V502.372L181.389 505L182.831 502.086V451.676L176.932 449.882Z" fill="#B2260B"/>
<path d="M181.389 505L194.612 497.366V444.875L181.389 452.509V505Z" fill="#EF5F26"/>
<path d="M185.549 459.525C185.549 460.525 184.941 461.687 184.191 462.12C183.44 462.554 182.831 462.094 182.831 461.093C182.831 460.093 183.44 458.93 184.191 458.497C184.941 458.063 185.549 458.523 185.549 459.525V459.525Z" fill="#B2260B"/>
<path d="M193.169 455.155C193.169 456.155 192.561 457.318 191.81 457.751C191.06 458.184 190.451 457.724 190.451 456.724C190.451 455.724 191.06 454.561 191.81 454.127C192.561 453.694 193.169 454.154 193.169 455.155Z" fill="#B2260B"/>
<path d="M185.549 488.296C185.549 489.297 184.941 490.46 184.191 490.892C183.44 491.326 182.831 490.866 182.831 489.865C182.831 488.865 183.44 487.702 184.191 487.269C184.941 486.835 185.549 487.295 185.549 488.296Z" fill="#B2260B"/>
<path d="M193.169 483.835C193.169 484.836 192.561 485.999 191.81 486.431C191.06 486.865 190.451 486.404 190.451 485.404C190.451 484.404 191.06 483.241 191.81 482.807C192.561 482.375 193.169 482.834 193.169 483.835Z" fill="#B2260B"/>
<path d="M260.705 415.996C260.705 416.998 260.097 418.16 259.346 418.593C258.596 419.027 257.987 418.566 257.987 417.566C257.987 416.565 258.596 415.403 259.346 414.969C260.097 414.536 260.705 414.996 260.705 415.996Z" fill="#B2260B"/>
<path d="M268.324 411.627C268.324 412.628 267.716 413.79 266.966 414.224C266.215 414.657 265.607 414.197 265.607 413.196C265.607 412.195 266.215 411.033 266.966 410.6C267.716 410.166 268.324 410.626 268.324 411.627Z" fill="#B2260B"/>
<path d="M260.705 444.768C260.705 445.769 260.097 446.931 259.346 447.365C258.596 447.798 257.987 447.338 257.987 446.338C257.987 445.336 258.596 444.174 259.346 443.741C260.097 443.307 260.705 443.767 260.705 444.768Z" fill="#B2260B"/>
<path d="M268.324 440.307C268.324 441.308 267.716 442.47 266.966 442.904C266.215 443.337 265.607 442.877 265.607 441.877C265.607 440.875 266.215 439.713 266.966 439.28C267.716 438.846 268.324 439.307 268.324 440.307Z" fill="#B2260B"/>
<path d="M176.932 449.882L190.108 442.275L194.612 444.875L181.389 452.51L176.932 449.882Z" fill="#FF7E27"/>
<path d="M369.264 337L356.089 344.607V345.297L294.818 380.685L294.108 380.275L280.932 387.883V388.705L276.141 391.473V403.316L280.932 406.082V418.418L276.141 421.187V433.029L280.932 435.795V440.373L285.389 443L298.611 435.366V425.583L356.088 392.386V397.097L360.545 399.725L373.767 392.091V339.6L369.264 337ZM356.089 375.01L298.612 408.207V395.87L356.089 362.673V375.01Z" fill="#B2260B"/>
<path d="M280.932 406.082L276.141 403.315V391.473L280.932 394.239V406.082Z" fill="#B2260B"/>
<path d="M276.141 391.472L368.898 337.897L373.69 340.664L280.932 394.239L276.141 391.472Z" fill="#FF7E27"/>
<path d="M280.932 394.239L373.69 340.664V352.506L280.932 406.082V394.239Z" fill="#EF5F26"/>
<path d="M280.932 435.794L276.141 433.028V421.186L280.932 423.952V435.794Z" fill="#B2260B"/>
<path d="M276.141 421.186L368.898 367.611L373.69 370.377L280.932 423.952L276.141 421.186Z" fill="#FF7E27"/>
<path d="M280.932 423.952L373.69 370.377V382.219L280.932 435.794V423.952Z" fill="#EF5F26"/>
<path d="M356.089 344.607V397.097L360.545 399.725L361.987 396.81V346.401L356.089 344.607Z" fill="#B2260B"/>
<path d="M360.545 399.725L373.767 392.091V339.6L360.545 347.234V399.725Z" fill="#EF5F26"/>
<path d="M356.089 344.607L369.264 337L373.767 339.6L360.545 347.234L356.089 344.607Z" fill="#FF7E27"/>
<path d="M280.932 387.882V440.372L285.389 443L286.831 440.086V389.676L280.932 387.882Z" fill="#B2260B"/>
<path d="M285.389 443L298.612 435.366V382.875L285.389 390.509V443Z" fill="#EF5F26"/>
<path d="M289.549 397.525C289.549 398.525 288.941 399.687 288.191 400.12C287.44 400.554 286.831 400.094 286.831 399.093C286.831 398.093 287.44 396.93 288.191 396.497C288.941 396.063 289.549 396.523 289.549 397.525V397.525Z" fill="#B2260B"/>
<path d="M297.169 393.155C297.169 394.155 296.561 395.318 295.81 395.751C295.06 396.184 294.451 395.724 294.451 394.724C294.451 393.724 295.06 392.561 295.81 392.127C296.561 391.694 297.169 392.154 297.169 393.155Z" fill="#B2260B"/>
<path d="M289.549 426.296C289.549 427.297 288.941 428.46 288.191 428.892C287.44 429.326 286.831 428.866 286.831 427.865C286.831 426.865 287.44 425.702 288.191 425.269C288.941 424.835 289.549 425.295 289.549 426.296Z" fill="#B2260B"/>
<path d="M297.169 421.835C297.169 422.836 296.561 423.999 295.81 424.431C295.06 424.865 294.451 424.404 294.451 423.404C294.451 422.404 295.06 421.241 295.81 420.807C296.561 420.375 297.169 420.834 297.169 421.835Z" fill="#B2260B"/>
<path d="M364.705 353.996C364.705 354.998 364.097 356.16 363.346 356.593C362.596 357.027 361.987 356.566 361.987 355.566C361.987 354.565 362.596 353.403 363.346 352.969C364.097 352.536 364.705 352.996 364.705 353.996Z" fill="#B2260B"/>
<path d="M372.324 349.627C372.324 350.628 371.716 351.79 370.966 352.224C370.215 352.657 369.607 352.197 369.607 351.196C369.607 350.195 370.215 349.033 370.966 348.6C371.716 348.166 372.324 348.626 372.324 349.627Z" fill="#B2260B"/>
<path d="M364.705 382.768C364.705 383.769 364.097 384.931 363.346 385.365C362.596 385.798 361.987 385.338 361.987 384.338C361.987 383.336 362.596 382.174 363.346 381.741C364.097 381.307 364.705 381.767 364.705 382.768Z" fill="#B2260B"/>
<path d="M372.324 378.307C372.324 379.308 371.716 380.47 370.966 380.904C370.215 381.337 369.607 380.877 369.607 379.877C369.607 378.875 370.215 377.713 370.966 377.28C371.716 376.846 372.324 377.307 372.324 378.307Z" fill="#B2260B"/>
<path d="M280.932 387.882L294.108 380.275L298.612 382.875L285.389 390.51L280.932 387.882Z" fill="#FF7E27"/>
</svg>
