<svg width="193" height="230" viewBox="0 0 193 230" fill="none" xmlns="http://www.w3.org/2000/svg">
<path d="M128.095 162.944C128.095 162.944 118.765 100.788 190.967 100.788C190.967 100.788 190.561 130.75 174.742 146.329C158.922 161.908 128.095 162.944 128.095 162.944Z" fill="#47B85B" fill-opacity="0.35"/>
<path d="M190.967 100.788C190.967 100.788 190.561 130.79 174.742 146.329C158.922 161.868 128.095 162.944 128.095 162.944C141.764 138.599 160.18 122.024 173.444 111.984C181.232 106.087 190.967 100.788 190.967 100.788Z" fill="#399349" fill-opacity="0.2"/>
<path d="M107.002 131.866C107.002 131.866 116.331 69.71 44.1299 69.71C44.1299 69.71 44.5355 99.6722 60.3549 115.251C76.1744 130.83 107.002 131.866 107.002 131.866Z" fill="#47B85B" fill-opacity="0.35"/>
<path d="M107.002 131.866C107.002 131.866 76.1338 130.79 60.3549 115.251C44.5355 99.7121 44.1299 69.71 44.1299 69.71C44.1299 69.71 57.9212 77.3997 63.3971 81.1849C78.6893 91.8231 98.93 109.235 107.002 131.866Z" fill="#399349" fill-opacity="0.2"/>
<path d="M119.577 230L115.52 229.801C115.561 229.203 118.603 170.394 105.096 132.543C97.2265 110.43 77.432 93.337 62.2209 82.8582L64.533 79.5911C80.2308 90.3886 100.674 108.119 108.909 131.228C122.7 169.797 119.617 229.402 119.577 230Z" fill="#2B6E37" fill-opacity="0.2"/>
<path d="M58.4646 88.8445L76.5961 89.2541L76.5028 93.2385L58.3713 92.8289L58.4646 88.8445Z" fill="#2B6E37" fill-opacity="0.2"/>
<path d="M90.1396 90.7686L91.9877 103.996L87.9679 104.538L86.1199 91.3104L90.1396 90.7686Z" fill="#2B6E37" fill-opacity="0.2"/>
<path d="M80.4492 111.338L97.2827 111.42L97.2624 115.405L80.4289 115.322L80.4492 111.338Z" fill="#2B6E37" fill-opacity="0.2"/>
<path d="M118.441 184.1L114.912 182.148C118.481 175.853 122.294 169.079 126.31 161.947C140.264 137.165 158.963 120.231 172.227 110.39L174.661 113.578C161.721 123.18 143.468 139.715 129.879 163.9C125.864 171.032 122.01 177.805 118.441 184.1Z" fill="#2B6E37" fill-opacity="0.2"/>
<path d="M179.41 119.616L179.751 123.588L160.056 125.218L159.715 121.246L179.41 119.616Z" fill="#2B6E37" fill-opacity="0.2"/>
<path d="M149.685 121.923L151.568 133.041L147.568 133.694L145.686 122.576L149.685 121.923Z" fill="#2B6E37" fill-opacity="0.2"/>
<path d="M161.559 141.097L161.892 145.069L140.215 146.82L139.883 142.848L161.559 141.097Z" fill="#2B6E37" fill-opacity="0.2"/>
<path d="M98.6056 133.061C88.5866 131.666 70.1306 127.722 58.8948 116.646C42.7102 100.708 42.1018 70.9849 42.1018 69.7498C42.1018 69.2318 42.3046 68.7139 42.6697 68.3154C43.0347 67.917 43.6026 67.7178 44.1299 67.7178C67.5752 67.7178 85.0982 74.1724 96.253 86.8426C112.762 105.649 109.192 131.069 109.03 132.145L105.015 131.547L107.002 131.826L105.015 131.547C105.055 131.308 108.462 106.804 93.1702 89.3926C83.1512 78.0372 67.3723 72.1006 46.2392 71.7021C46.6854 78.595 49.0786 101.306 61.7747 113.817C72.1587 124.056 89.6818 127.762 99.1735 129.077L98.6056 133.061Z" fill="#4D2419" fill-opacity="0.35"/>
<path d="M128.095 164.936C127.081 164.936 126.229 164.219 126.107 163.222C125.945 162.147 122.335 136.727 138.884 117.921C149.998 105.25 167.522 98.7957 190.967 98.7957C191.494 98.7957 192.021 98.9949 192.427 99.3933C192.833 99.7917 193.035 100.27 192.995 100.828C192.995 102.103 192.386 131.786 176.161 147.723C159.977 163.661 129.433 164.896 128.135 164.936H128.095ZM188.857 102.78C167.724 103.139 151.986 109.115 141.967 120.47C129.068 135.093 129.474 154.776 129.92 160.792C136.775 160.274 160.464 157.525 173.322 144.895C186.018 132.424 188.411 109.713 188.857 102.78V102.78Z" fill="#4D2419" fill-opacity="0.35"/>
<path d="M119.577 230L115.52 229.801C115.561 229.203 118.603 170.394 105.096 132.543C97.2265 110.43 77.432 93.337 62.2209 82.8582L64.533 79.5911C80.2308 90.3886 100.674 108.119 108.909 131.228C122.7 169.797 119.617 229.402 119.577 230Z" fill="#4D2419" fill-opacity="0.35"/>
<path d="M58.4646 88.8445L76.5961 89.2541L76.5028 93.2385L58.3713 92.8289L58.4646 88.8445Z" fill="#4D2419" fill-opacity="0.35"/>
<path d="M90.1396 90.7686L91.9877 103.996L87.9679 104.538L86.1199 91.3104L90.1396 90.7686Z" fill="#4D2419" fill-opacity="0.35"/>
<path d="M80.4492 111.338L97.2827 111.42L97.2624 115.405L80.4289 115.322L80.4492 111.338Z" fill="#4D2419" fill-opacity="0.35"/>
<path d="M118.441 184.1L114.912 182.148C118.481 175.853 122.294 169.079 126.31 161.947C140.264 137.165 158.963 120.231 172.227 110.39L174.661 113.578C161.721 123.18 143.468 139.715 129.879 163.9C125.864 171.032 122.01 177.805 118.441 184.1Z" fill="#4D2419" fill-opacity="0.35"/>
<path d="M179.41 119.616L179.751 123.588L160.056 125.218L159.715 121.246L179.41 119.616Z" fill="#4D2419" fill-opacity="0.35"/>
<path d="M149.685 121.923L151.568 133.041L147.568 133.694L145.686 122.576L149.685 121.923Z" fill="#4D2419" fill-opacity="0.35"/>
<path d="M161.559 141.097L161.892 145.069L140.215 146.82L139.883 142.848L161.559 141.097Z" fill="#4D2419" fill-opacity="0.35"/>
</svg>