<svg width="64" height="64" viewBox="0 0 64 64" fill="none" xmlns="http://www.w3.org/2000/svg">
<path d="M30.2421 23.064V22.464C30.2421 21.62 30.4121 20.914 30.7481 20.344C31.1081 19.774 31.5821 19.214 32.1721 18.666C32.6773 18.1749 33.2167 17.7201 33.7861 17.305C34.3141 16.925 34.7461 16.525 35.0841 16.102C35.4218 15.6805 35.6012 15.154 35.5911 14.614C35.5911 13.791 35.2961 13.211 34.7051 12.874C34.1351 12.514 33.1751 12.336 31.8251 12.336C30.9379 12.3361 30.0546 12.4531 29.1981 12.684C28.3331 12.894 27.5941 13.169 26.9821 13.507V9.22999C27.7621 8.84999 28.6821 8.54399 29.7361 8.31199C30.8121 8.07999 31.9841 7.96399 33.2501 7.96399C35.6981 7.96399 37.5661 8.50199 38.8531 9.57799C40.1401 10.633 40.7831 12.088 40.7831 13.946C40.7831 15.128 40.5401 16.088 40.0551 16.826C39.5701 17.544 38.8631 18.282 37.9351 19.042L35.9721 20.742C35.4441 21.206 35.1821 21.839 35.1821 22.642V23.054H30.2441L30.2421 23.064ZM30.0201 28.667V24.995H35.3701V28.667H30.0201V28.667Z" fill="#BDC2C4"/>
<path fill-rule="evenodd" clip-rule="evenodd" d="M63.986 32.97L61.986 32.91L62 32L61.986 31.09L63.986 31.03L64 32L63.986 32.97ZM63.871 29.103L61.879 29.283L61.663 27.483L63.641 27.185L63.871 29.103ZM63.294 25.283L61.338 25.701L60.906 23.941L62.833 23.405L63.293 25.283H63.294ZM62.258 21.559L60.368 22.211L59.726 20.518L61.573 19.752L62.259 21.559H62.258ZM60.778 17.989L58.98 18.866L58.137 17.262L59.877 16.278L60.777 17.988L60.778 17.989ZM58.876 14.624L57.198 15.711L56.168 14.221L57.768 13.034L58.868 14.634L58.876 14.624ZM56.583 11.514L55.047 12.794L53.844 11.437L55.3 10.067L56.582 11.514H56.583ZM53.934 8.7L52.564 10.156L51.207 8.953L52.487 7.417L53.934 8.7ZM50.966 6.224L49.779 7.824L48.289 6.794L49.376 5.114L50.976 6.214L50.966 6.224ZM47.723 4.124L46.739 5.864L45.135 5.02L46.012 3.222L47.722 4.122L47.723 4.124ZM44.25 2.428L43.484 4.275L41.791 3.632L42.443 1.742L44.25 2.428V2.428ZM40.597 1.168L40.061 3.095L38.301 2.663L38.719 0.707L40.597 1.167V1.168ZM36.816 0.36L36.516 2.338L34.716 2.122L34.896 0.13L36.814 0.36H36.816ZM32.97 0.014L32 0L31.03 0.014L31.09 2.014L32 2L32.91 2.014L32.97 0.014V0.014ZM29.102 0.13L29.282 2.122L27.482 2.338L27.184 0.36L29.102 0.13V0.13ZM25.282 0.707L25.7 2.663L23.94 3.095L23.404 1.168L25.282 0.708V0.707ZM21.558 1.743L22.21 3.633L20.517 4.276L19.751 2.429L21.558 1.743V1.743ZM17.988 3.223L18.865 5.021L17.261 5.865L16.277 4.125L17.987 3.225L17.988 3.223ZM14.623 5.125L15.71 6.805L14.22 7.835L13.033 6.235L14.633 5.135L14.623 5.125ZM11.513 7.418L12.793 8.954L11.436 10.157L10.066 8.701L11.513 7.419V7.418ZM8.7 10.066L10.156 11.436L8.953 12.793L7.417 11.513L8.7 10.066ZM6.224 13.034L7.824 14.221L6.794 15.711L5.114 14.624L6.214 13.024L6.224 13.034ZM4.124 16.277L5.864 17.261L5.02 18.865L3.222 17.988L4.122 16.278L4.124 16.277ZM2.428 19.75L4.275 20.516L3.632 22.209L1.742 21.557L2.428 19.75V19.75ZM1.168 23.403L3.095 23.939L2.663 25.699L0.707 25.281L1.167 23.403H1.168ZM0.36 27.183L2.338 27.481L2.122 29.281L0.13 29.101L0.36 27.183ZM0.014 31.03L0 32L0.014 32.97L2.014 32.91L2 32L2.014 31.09L0.014 31.03V31.03ZM0.129 34.897L2.121 34.717L2.337 36.517L0.359 36.817L0.129 34.899V34.897ZM0.706 38.717L2.662 38.299L3.094 40.059L1.167 40.595L0.707 38.717H0.706ZM1.742 42.44L3.632 41.788L4.275 43.481L2.428 44.247L1.742 42.44V42.44ZM3.222 46.01L5.02 45.133L5.864 46.737L4.124 47.721L3.224 46.011L3.222 46.01ZM5.124 49.375L6.804 48.288L7.834 49.778L6.234 50.965L5.134 49.365L5.124 49.375ZM7.417 52.485L8.953 51.205L10.156 52.562L8.7 53.932L7.418 52.485H7.417ZM10.067 55.299L11.437 53.843L12.794 55.046L11.514 56.582L10.067 55.3V55.299ZM13.035 57.775L14.222 56.175L15.712 57.205L14.625 58.883L13.025 57.783L13.035 57.775ZM16.278 59.875L17.262 58.135L18.866 58.978L17.989 60.776L16.279 59.876L16.278 59.875ZM19.752 61.569L20.518 59.722L22.211 60.364L21.559 62.254L19.752 61.568V61.569ZM23.405 62.829L23.941 60.902L25.701 61.334L25.283 63.29L23.405 62.83V62.829ZM27.185 63.637L27.483 61.659L29.283 61.875L29.103 63.867L27.185 63.637ZM31.032 63.983L31.092 61.983L32 62L32.91 61.986L32.97 63.986L32 64C31.676 64 31.353 63.995 31.03 63.986L31.032 63.983ZM34.899 63.868L34.719 61.876L36.519 61.66L36.819 63.638L34.901 63.868H34.899ZM38.719 63.291L38.301 61.335L40.061 60.903L40.597 62.83L38.719 63.29V63.291ZM42.442 62.255L41.79 60.365L43.483 59.723L44.249 61.57L42.442 62.256V62.255ZM46.012 60.775L45.135 58.977L46.739 58.134L47.723 59.874L46.013 60.774L46.012 60.775ZM49.377 58.873L48.29 57.195L49.78 56.165L50.967 57.765L49.367 58.865L49.377 58.873ZM52.487 56.58L51.207 55.044L52.564 53.841L53.934 55.297L52.487 56.579V56.58ZM55.301 53.93L53.845 52.56L55.048 51.203L56.584 52.483L55.302 53.93H55.301ZM57.777 50.962L56.177 49.775L57.207 48.285L58.885 49.372L57.785 50.972L57.777 50.962ZM59.877 47.719L58.137 46.735L58.98 45.131L60.778 46.008L59.878 47.718L59.877 47.719ZM61.571 44.245L59.724 43.479L60.366 41.786L62.256 42.438L61.57 44.245H61.571ZM62.831 40.592L60.904 40.056L61.336 38.296L63.292 38.714L62.832 40.592H62.831ZM63.639 36.812L61.661 36.512L61.877 34.712L63.869 34.892L63.639 36.81V36.812Z" fill="#BDC2C4"/>
<path d="M54.3646 26.3698C54.3646 26.3698 54.2378 35.1072 49.2942 39.6326C44.3507 44.158 34.717 44.4713 34.717 44.4713C38.9888 37.3815 44.7436 32.5544 48.8886 29.6303C51.3224 27.913 54.3646 26.3698 54.3646 26.3698Z" fill="#BDC2C4" fill-opacity="0.25"/>
<path d="M28.1257 35.4205C28.1257 35.4205 18.4794 35.1072 13.5485 30.5818C8.60491 26.0564 8.47815 17.319 8.47815 17.319C8.47815 17.319 12.7879 19.5584 14.4992 20.6608C19.278 23.7589 25.6032 28.8297 28.1257 35.4205Z" fill="#BDC2C4" fill-opacity="0.25"/>
<path d="M32.0552 64L30.7876 63.9419C30.8003 63.7679 31.751 46.6411 27.53 35.6177C25.0708 29.1778 18.885 24.1999 14.1316 21.1481L14.8541 20.1967C19.7597 23.3412 26.1483 28.5048 28.7215 35.2348C33.0313 46.467 32.0679 63.8259 32.0552 64Z" fill="#BDC2C4"/>
<path d="M12.9578 22.8916L18.6238 23.0109L18.5947 24.1713L12.9286 24.052L12.9578 22.8916Z" fill="#BDC2C4"/>
<path d="M22.8561 23.4519L23.4336 27.3041L22.1774 27.4619L21.5999 23.6097L22.8561 23.4519Z" fill="#BDC2C4"/>
<path d="M19.8279 29.4423L25.0883 29.4663L25.082 30.6267L19.8215 30.6026L19.8279 29.4423Z" fill="#BDC2C4"/>
<path d="M31.7002 50.6327L30.5974 50.0641C31.7129 48.2308 32.9044 46.2582 34.1593 44.1812C38.5198 36.9638 44.3634 32.0323 48.5084 29.1663L49.2689 30.0945C45.2253 32.891 39.5212 37.7064 35.2748 44.7497C34.0199 46.8268 32.8157 48.7994 31.7002 50.6327Z" fill="#BDC2C4"/>
<path d="M50.7529 31.853L50.8594 33.0099L44.7048 33.4846L44.5984 32.3277L50.7529 31.853Z" fill="#BDC2C4"/>
<path d="M41.4642 32.5249L42.0525 35.7627L40.8027 35.953L40.2144 32.7152L41.4642 32.5249Z" fill="#BDC2C4"/>
<path d="M45.1747 38.1089L45.2786 39.2657L38.5048 39.7757L38.4008 38.6189L45.1747 38.1089Z" fill="#BDC2C4"/>
<path d="M25.5018 35.7687C22.3709 35.3625 16.6034 34.2138 13.0922 30.988C8.0345 26.3466 7.84436 17.6904 7.84436 17.3307C7.84436 17.1798 7.90774 17.029 8.02182 16.9129C8.1359 16.7969 8.31337 16.7389 8.47815 16.7389C15.8048 16.7389 21.2807 18.6187 24.7666 22.3086C29.9257 27.7854 28.8102 35.1885 28.7595 35.5018L27.5046 35.3277L28.1257 35.409L27.5046 35.3277C27.5173 35.2581 28.582 28.1219 23.8032 23.0512C20.6723 19.7442 15.7414 18.0153 9.13729 17.8992C9.27673 19.9067 10.0246 26.5207 13.9921 30.1642C17.2372 33.1463 22.7131 34.2254 25.6793 34.6083L25.5018 35.7687Z" fill="#BDC2C4"/>
<path d="M34.7171 45.0514C34.4002 45.0514 34.134 44.8426 34.0959 44.5525C34.0452 44.2392 32.9171 36.8361 38.0888 31.3592C41.562 27.6693 47.038 25.7896 54.3646 25.7896C54.5294 25.7896 54.6942 25.8476 54.8209 25.9636C54.9477 26.0796 55.0111 26.2189 54.9984 26.3813C54.9984 26.7526 54.8083 35.3973 49.7379 40.0387C44.6803 44.6801 35.1354 45.0398 34.7297 45.0514H34.7171ZM53.7055 26.9499C47.1014 27.0543 42.1831 28.7949 39.0522 32.1019C35.0213 36.3604 35.148 42.0925 35.2875 43.8447C37.4297 43.6938 44.8324 42.8932 48.8506 39.2148C52.8182 35.5829 53.566 28.9689 53.7055 26.9499V26.9499Z" fill="#BDC2C4"/>
<path d="M32.0552 64L30.7876 63.9419C30.8003 63.7679 31.751 46.6411 27.53 35.6177C25.0708 29.1778 18.885 24.1999 14.1316 21.1481L14.8541 20.1967C19.7597 23.3412 26.1483 28.5048 28.7215 35.2348C33.0313 46.467 32.0679 63.8259 32.0552 64Z" fill="#BDC2C4"/>
<path d="M12.9578 22.8916L18.6238 23.0109L18.5947 24.1713L12.9286 24.052L12.9578 22.8916Z" fill="#BDC2C4"/>
<path d="M22.8561 23.4519L23.4336 27.3041L22.1774 27.4619L21.5999 23.6097L22.8561 23.4519Z" fill="#BDC2C4"/>
<path d="M19.8279 29.4423L25.0883 29.4663L25.082 30.6267L19.8215 30.6026L19.8279 29.4423Z" fill="#BDC2C4"/>
<path d="M31.7002 50.6327L30.5974 50.0641C31.7129 48.2308 32.9044 46.2582 34.1593 44.1812C38.5198 36.9638 44.3634 32.0323 48.5084 29.1663L49.2689 30.0945C45.2253 32.891 39.5212 37.7064 35.2748 44.7497C34.0199 46.8268 32.8157 48.7994 31.7002 50.6327Z" fill="#BDC2C4"/>
<path d="M50.7529 31.853L50.8594 33.0099L44.7048 33.4846L44.5984 32.3277L50.7529 31.853Z" fill="#BDC2C4"/>
<path d="M41.4642 32.5249L42.0525 35.7627L40.8027 35.953L40.2144 32.7152L41.4642 32.5249Z" fill="#BDC2C4"/>
<path d="M45.1747 38.1089L45.2786 39.2657L38.5048 39.7757L38.4008 38.6189L45.1747 38.1089Z" fill="#BDC2C4"/>
</svg>
