<svg width="48" height="48" viewBox="0 0 48 48" fill="none" xmlns="http://www.w3.org/2000/svg">
<rect width="48" height="48" fill="white"/>
<path d="M16.0833 15.7219C16.0833 15.7219 23.0397 13.9781 22.5902 20.1281C22.5902 20.1281 16.9107 22.4719 16.0833 15.7219Z" fill="#399349"/>
<path d="M37.7903 19.125C37.7903 19.125 31.3548 14.3157 29.0564 18.7875C29.0462 18.7875 32.5295 24.5157 37.7903 19.125Z" fill="#399349"/>
<path d="M16.0833 15.7219L22.5902 20.1282C23.0397 13.9688 16.0833 15.7219 16.0833 15.7219Z" fill="#47B85B"/>
<path d="M37.7596 19.1532C37.7698 19.1438 37.7801 19.1344 37.7903 19.125C37.7903 19.125 31.3548 14.3157 29.0564 18.7875C29.0564 18.7875 29.0666 18.7969 29.0768 18.825L37.7596 19.1532Z" fill="#47B85B"/>
<path d="M19.6426 17.5413L25.2109 21.3169L24.6042 22.0706L19.0358 18.295L19.6426 17.5413Z" fill="#2B6E37"/>
<path d="M25.2704 18.1783L33.4241 18.5004L33.3801 19.437L25.2265 19.1149L25.2704 18.1783Z" fill="#2B6E37"/>
<path d="M24.3473 25.9875L23.3667 25.725L23.5097 25.275C25.8694 17.7187 24.7968 11.0062 24.7866 10.9406L24.7049 10.4812L25.7162 10.3406L25.7979 10.8C25.849 11.0812 26.9215 17.775 24.5006 25.5281L24.3473 25.9875Z" fill="#2B6E37"/>
<path d="M40.3442 31.9688H7.65601L9.69902 44.7188C10.8227 45.75 16.1039 47.5312 24.0001 47.5312C31.8963 47.5312 37.0754 45.8438 38.3012 44.7188L40.3442 31.9688Z" fill="#AC2C2C"/>
<path d="M8.35063 36.2812C11.6194 37.0687 17.4114 37.5938 24.0001 37.5938C30.5888 37.5938 36.3807 37.0687 39.6496 36.2812L40.3442 31.9688H7.65601L8.35063 36.2812Z" fill="#8D2323"/>
<path d="M24 26.3438C13.7849 26.3438 5.51074 27.6 5.51074 29.1562V31.9688C5.51074 33.525 13.7849 34.7812 24 34.7812C34.215 34.7812 42.4892 33.525 42.4892 31.9688V29.1562C42.4892 27.6 34.215 26.3438 24 26.3438Z" fill="#AC2C2C"/>
<path fill-rule="evenodd" clip-rule="evenodd" d="M24 26.3438C13.7849 26.3438 5.51074 27.6 5.51074 29.1563V31.9688C5.51074 33.3938 12.5081 34.575 21.5688 34.7531C23.1113 32.2781 24 29.4094 24 26.3438Z" fill="#CE4C4C"/>
<path d="M24 31.9688C34.2113 31.9688 42.4892 30.7096 42.4892 29.1562C42.4892 27.6029 34.2113 26.3438 24 26.3438C13.7887 26.3438 5.51074 27.6029 5.51074 29.1562C5.51074 30.7096 13.7887 31.9688 24 31.9688Z" fill="#862727"/>
<path d="M16.3386 6.54375C16.3386 8.68125 19.6483 8.79375 19.6483 8.79375C19.6483 8.79375 17.258 9.8625 17.9935 11.775C18.7289 13.6875 21.8548 10.8188 21.8548 10.8188C21.8548 10.8188 20.016 14.5312 22.7128 14.5312C25.4096 14.5312 25.287 10.875 25.287 10.875C25.287 10.875 26.3596 14.7844 28.4128 12.9C30.466 11.0156 27.2483 9.75 27.2483 9.75C27.2483 9.75 31.6612 11.1 31.6612 8.45625C31.6612 5.8125 28.0451 6.99375 28.0451 6.99375C28.0451 6.99375 31.9064 4.4625 30.129 2.83125C28.3515 1.2 26.3902 4.2375 26.3902 4.2375C26.3902 4.2375 27.3709 0.46875 24.6128 0.46875C21.8548 0.46875 22.4677 4.06875 22.4677 4.06875C22.4677 4.06875 21.2419 1.66875 19.4644 2.23125C17.687 2.79375 19.587 5.53125 19.587 5.53125C19.587 5.53125 16.3386 4.40625 16.3386 6.54375V6.54375Z" fill="#FFE3A8"/>
<path d="M36.0335 31.2938C32.8055 31.7156 28.5969 31.9688 24.0001 31.9688C19.4034 31.9688 15.1948 31.7156 11.9668 31.2938C13.2641 30.1406 16.1345 27.7875 19.4136 26.4375C20.905 25.8188 22.4679 25.4156 24.0104 25.4156C25.5528 25.4156 27.1157 25.8281 28.6071 26.4375C31.8657 27.7875 34.7464 30.1406 36.0335 31.2938Z" fill="#F89720"/>
<path d="M28.0453 6.99373C28.0453 6.99373 31.9065 4.46248 30.1291 2.83123C29.3834 2.14686 28.5969 2.28748 27.9431 2.68123C26.9318 7.18123 22.8866 10.6594 17.8608 11.2594C17.8813 11.4281 17.9221 11.5969 17.9936 11.7844C18.7291 13.6969 21.8549 10.8281 21.8549 10.8281C21.8549 10.8281 20.0162 14.5406 22.713 14.5406C25.4098 14.5406 25.2872 10.8844 25.2872 10.8844C25.2872 10.8844 26.3598 14.7937 28.413 12.9094C30.4662 11.025 27.2485 9.75936 27.2485 9.75936C27.2485 9.75936 31.6614 11.1 31.6614 8.45623C31.6614 5.81248 28.0453 6.99373 28.0453 6.99373V6.99373Z" fill="#FFCB5C"/>
<path d="M24.0001 9.84375C25.4105 9.84375 26.5538 8.79442 26.5538 7.5C26.5538 6.20558 25.4105 5.15625 24.0001 5.15625C22.5896 5.15625 21.4463 6.20558 21.4463 7.5C21.4463 8.79442 22.5896 9.84375 24.0001 9.84375Z" fill="#F89720"/>
<path d="M24.0001 10.3125C22.3146 10.3125 20.9355 9.04688 20.9355 7.5C20.9355 5.95312 22.3146 4.6875 24.0001 4.6875C25.6855 4.6875 27.0646 5.95312 27.0646 7.5C27.0646 9.04688 25.6855 10.3125 24.0001 10.3125ZM24.0001 5.625C22.8764 5.625 21.9571 6.46875 21.9571 7.5C21.9571 8.53125 22.8764 9.375 24.0001 9.375C25.1237 9.375 26.0431 8.53125 26.0431 7.5C26.0431 6.46875 25.1237 5.625 24.0001 5.625Z" fill="#4D2419"/>
<path d="M22.7128 15C21.7628 15 21.2929 14.6063 21.058 14.2781C20.6596 13.7063 20.6902 12.9094 20.8435 12.2062C20.1386 12.6469 19.2806 13.0219 18.5655 12.8719C18.2182 12.7969 17.7585 12.5813 17.5134 11.9344C17.0435 10.7156 17.6257 9.73125 18.351 9.075C17.1354 8.76563 15.8279 8.025 15.8279 6.54375C15.8279 5.72813 16.2263 5.30625 16.5634 5.1C17.1456 4.725 17.9526 4.725 18.6064 4.81875C18.3101 4.17188 18.0445 3.3375 18.2999 2.67188C18.4634 2.25 18.8107 1.94063 19.301 1.79063C20.4144 1.43438 21.3134 1.95 21.9467 2.55937C22.0284 1.94062 22.2327 1.26563 22.7026 0.759375C23.1623 0.253125 23.8058 0 24.6128 0C25.3892 0 26.0225 0.2625 26.4413 0.75C26.9112 1.29375 27.0542 2.04375 27.0747 2.71875C27.5343 2.325 28.1166 1.96875 28.7499 1.89375C29.1892 1.84688 29.8429 1.90313 30.4865 2.49375C30.9359 2.90625 31.1505 3.42188 31.0994 3.975C31.0279 4.80938 30.3843 5.625 29.7306 6.25312C30.272 6.2625 30.8338 6.35625 31.2935 6.65625C31.8757 7.03125 32.172 7.64062 32.172 8.44687C32.172 9.35625 31.7225 9.85313 31.3343 10.1063C30.7521 10.4906 29.9553 10.5844 29.1994 10.5562C29.373 10.7812 29.5058 11.0438 29.5671 11.325C29.6999 11.9719 29.4343 12.6094 28.7704 13.2281C28.0144 13.9219 27.3505 13.9406 26.9214 13.8281C26.329 13.6781 25.8795 13.2094 25.5424 12.6844C25.3687 13.2469 25.0929 13.8281 24.6333 14.2687C24.1225 14.7562 23.479 15 22.7128 15V15ZM21.8548 10.35C21.9569 10.35 22.0591 10.3781 22.1408 10.4344C22.3451 10.5656 22.4166 10.8094 22.3144 11.0156C21.9365 11.775 21.4972 13.1906 21.9058 13.7719C21.9569 13.8469 22.1101 14.0625 22.7026 14.0625C23.1827 14.0625 23.5709 13.9219 23.8876 13.6219C24.8171 12.75 24.7661 10.9031 24.7661 10.8844C24.7558 10.65 24.9499 10.4438 25.2053 10.4062C25.4607 10.3781 25.7058 10.5281 25.7671 10.7531C25.9919 11.5594 26.5741 12.7688 27.187 12.9188C27.422 12.975 27.708 12.8531 28.0349 12.5625C28.4435 12.1875 28.6273 11.8219 28.5558 11.5031C28.423 10.8562 27.3811 10.3125 27.0338 10.1812C26.7784 10.0781 26.6558 9.81562 26.758 9.58125C26.8601 9.34687 27.1359 9.225 27.4015 9.3C28.0451 9.49687 29.9144 9.89062 30.7316 9.34687C31.0075 9.15937 31.1402 8.86875 31.1402 8.44687C31.1402 7.95 30.9972 7.6125 30.6908 7.41562C30.0166 6.975 28.6376 7.28437 28.2085 7.425C27.9634 7.5 27.6978 7.40625 27.5854 7.2C27.4628 6.99375 27.5343 6.74063 27.7386 6.6C28.3515 6.19688 29.9757 4.9125 30.0677 3.89062C30.0983 3.60938 29.9962 3.36562 29.751 3.15C29.465 2.8875 29.1687 2.775 28.8623 2.8125C27.994 2.91563 27.0747 4.06875 26.8091 4.4625C26.6763 4.65937 26.4107 4.74375 26.1757 4.65938C25.9408 4.575 25.808 4.34063 25.8693 4.11563C26.0123 3.58125 26.2268 2.03438 25.6139 1.32188C25.3892 1.05938 25.0521 0.928125 24.5924 0.928125C24.0919 0.928125 23.7241 1.06875 23.4483 1.35938C22.7945 2.0625 22.8661 3.49688 22.9478 3.98438C22.9886 4.21875 22.8354 4.43437 22.5902 4.50937C22.3451 4.575 22.0897 4.47188 21.9773 4.25625C21.9671 4.2375 20.9252 2.24062 19.6075 2.6625C19.3521 2.74687 19.2806 2.86875 19.2397 2.97188C19.015 3.5625 19.6483 4.77188 19.9956 5.26875C20.1182 5.4375 20.0978 5.6625 19.965 5.8125C19.822 5.97188 19.5972 6.02813 19.3929 5.95312C18.9843 5.8125 17.687 5.49375 17.1252 5.85C17.0537 5.89688 16.8392 6.0375 16.8392 6.525C16.8392 8.18437 19.6279 8.30625 19.6585 8.30625C19.8935 8.31562 20.0876 8.46562 20.1386 8.68125C20.1897 8.89687 20.0773 9.10312 19.8628 9.19687C19.7811 9.23437 17.8913 10.1062 18.4634 11.5969C18.5757 11.8875 18.7187 11.9156 18.78 11.9344C19.3929 12.0656 20.7515 11.1375 21.487 10.4719C21.5892 10.3969 21.722 10.35 21.8548 10.35V10.35Z" fill="#4D2419"/>
<path d="M20.4554 20.9906C19.7505 20.9906 18.9742 20.8687 18.2387 20.475C16.7677 19.7062 15.8688 18.1218 15.5828 15.7687C15.5521 15.5437 15.7156 15.3281 15.9505 15.2625C16.0935 15.225 19.4645 14.4 21.5586 15.975C22.7231 16.8468 23.2339 18.2531 23.1011 20.1562C23.0909 20.325 22.9683 20.4843 22.8049 20.55C22.7333 20.5781 21.7221 20.9906 20.4554 20.9906V20.9906ZM16.6554 16.0875C16.9516 17.8875 17.6462 19.0968 18.7393 19.6687C19.9957 20.325 21.4871 19.9875 22.0898 19.8C22.1409 18.375 21.7425 17.3343 20.9048 16.7062C19.6075 15.7312 17.5441 15.9375 16.6554 16.0875Z" fill="#4D2419"/>
<path d="M33.3467 21.8999C33.1833 21.8999 33.0301 21.8906 32.8768 21.8718C30.2107 21.5999 28.6682 19.1062 28.6069 19.0031L29.4956 18.5437C29.5059 18.5624 30.8542 20.7187 32.9892 20.9343C34.2763 21.0656 35.6349 20.4749 37.0241 19.1718C35.8903 18.4312 32.8258 16.6499 30.8236 17.6156L30.3537 16.7812C33.4387 15.2906 37.9231 18.5999 38.1172 18.7406C38.2295 18.8249 38.2908 18.9374 38.301 19.0687C38.3112 19.1999 38.2704 19.3218 38.1682 19.4156C36.5645 21.0749 34.9505 21.8999 33.3467 21.8999V21.8999Z" fill="#4D2419"/>
<path d="M19.6426 17.5413L25.2109 21.3169L24.6042 22.0706L19.0358 18.295L19.6426 17.5413Z" fill="#4D2419"/>
<path d="M25.2704 18.1783L33.4241 18.5004L33.3801 19.437L25.2265 19.1149L25.2704 18.1783Z" fill="#4D2419"/>
<path d="M24.4904 25.5375L23.5098 25.275C25.8695 17.7188 24.7969 11.0063 24.7867 10.9407L25.7979 10.8C25.8388 11.0813 26.9114 17.775 24.4904 25.5375Z" fill="#4D2419"/>
<path d="M24 32.4375C19.0355 32.4375 14.357 32.1469 10.843 31.6031C5.60269 30.8063 5 29.8312 5 29.1562H6.02151C6.02151 29.3156 6.86936 30.0562 11.0065 30.6844C14.4694 31.2094 19.0866 31.5 24 31.5C28.9134 31.5 33.5204 31.2094 36.9935 30.6844C41.1306 30.0562 41.9785 29.3156 41.9785 29.1562H43C43 29.8312 42.3973 30.8063 37.157 31.6031C33.643 32.1469 28.9645 32.4375 24 32.4375Z" fill="#4D2419"/>
<path d="M26.0533 35.2312L26.0328 34.2937C30.4968 34.2187 34.6237 33.9 37.6371 33.3844C41.2328 32.775 41.9683 32.1094 41.9683 31.9594V29.1469C41.9683 29.1375 41.764 28.5093 38.4237 27.8718C35.9414 27.3937 32.4377 27.0469 28.5662 26.8969L28.607 25.9594C32.5398 26.1094 36.1049 26.4656 38.6382 26.9531C41.6108 27.525 43 28.2281 43 29.1469V31.9594C43 32.5875 42.4688 33.525 37.8312 34.3031C34.7565 34.8281 30.5785 35.1562 26.0533 35.2312V35.2312Z" fill="#4D2419"/>
<path d="M24 35.25C19.0355 35.25 14.357 34.9594 10.843 34.4156C5.60269 33.6188 5 32.6437 5 31.9688V29.1562C5 28.2375 6.37903 27.5344 9.3414 26.9625C11.8645 26.475 15.4194 26.1188 19.3419 25.9688L19.3828 26.9062C15.5113 27.0563 12.0177 27.4031 9.5457 27.8812C6.22581 28.5281 6.02151 29.1469 6.02151 29.1562V31.9688C6.02151 32.1281 6.86936 32.8687 11.0065 33.4969C14.4694 34.0219 19.0866 34.3125 24 34.3125V35.25Z" fill="#4D2419"/>
<path d="M24 48C16.1855 48 10.6387 46.2375 9.34138 45.0469C9.25966 44.9719 9.20858 44.8875 9.19837 44.7844L7.36987 33.4125L8.38116 33.2719L10.179 44.475C11.4252 45.4406 16.4715 47.0625 24 47.0625C31.2935 47.0625 36.4419 45.5625 37.8209 44.4844L39.6188 33.2812L40.6301 33.4219L38.8118 44.7937C38.7914 44.8969 38.7403 44.9812 38.6688 45.0562C37.4226 46.1906 32.3355 48 24 48Z" fill="#4D2419"/>
<path d="M35.686 31.6312C33.7451 29.9062 28.7091 25.875 24 25.875C19.2908 25.875 14.265 29.8969 12.3242 31.6219L11.6091 30.9469C13.6419 29.1375 18.9231 24.9375 24 24.9375C29.0769 24.9375 34.358 29.1469 36.3908 30.9563L35.686 31.6312Z" fill="#4D2419"/>
</svg>