<svg width="64" height="64" viewBox="0 0 64 64" fill="none" xmlns="http://www.w3.org/2000/svg">
<g clip-path="url(#clip0)">
<path fill-rule="evenodd" clip-rule="evenodd" d="M43.1939 10.6909C43.3655 10.5349 43.5701 10.42 43.7926 10.3548C44.015 10.2895 44.2494 10.2756 44.4779 10.3142C44.7065 10.3528 44.9233 10.4428 45.112 10.5775C45.3007 10.7121 45.4563 10.8879 45.5671 11.0915C45.678 11.2951 45.741 11.5212 45.7517 11.7528C45.7623 11.9844 45.7202 12.2153 45.6284 12.4282C45.5367 12.6411 45.3978 12.8304 45.2223 12.9817C45.0467 13.1331 44.839 13.2426 44.6149 13.3019L38.4959 14.9419L43.1939 10.6919V10.6909ZM49.1129 10.5139C48.8872 9.67661 48.4505 8.91121 47.8445 8.29088C47.2385 7.67054 46.4836 7.21601 45.6518 6.97072C44.82 6.72543 43.9392 6.69759 43.0936 6.88986C42.248 7.08212 41.4659 7.48807 40.8219 8.0689L31.0199 16.9369C29.5599 18.2579 30.8619 20.6489 32.7639 20.1399L45.5319 16.7189C48.2339 15.9949 49.8379 13.2169 49.1139 10.5149L49.1129 10.5139Z" fill="#F89720"/>
<path fill-rule="evenodd" clip-rule="evenodd" d="M30.189 8.08392C30.1119 7.84496 29.9816 7.62659 29.8079 7.44526C29.6343 7.26392 29.4217 7.12435 29.1863 7.03704C28.9509 6.94974 28.6987 6.91698 28.4488 6.94122C28.1989 6.96547 27.9577 7.04609 27.7435 7.17702C27.5292 7.30794 27.3475 7.48577 27.2119 7.6971C27.0763 7.90844 26.9905 8.14778 26.9607 8.3971C26.931 8.64642 26.9583 8.89924 27.0404 9.13651C27.1226 9.37378 27.2575 9.58932 27.435 9.76692L32.299 14.6309L30.189 8.08392ZM24.72 4.70392C27.628 1.79592 32.582 2.99192 33.844 6.90592L38.247 20.5659C38.903 22.6009 36.38 24.1429 34.869 22.6309L24.72 12.4819C23.6886 11.4505 23.1091 10.0516 23.1091 8.59292C23.1091 7.13427 23.6886 5.73536 24.72 4.70392V4.70392Z" fill="#F89720"/>
<path opacity="0.6" d="M7.27604 34.0429C7.21651 34.2579 7.08813 34.4474 6.91059 34.5825C6.73304 34.7175 6.51612 34.7907 6.29304 34.7907C6.06997 34.7907 5.85304 34.7175 5.6755 34.5825C5.49796 34.4474 5.36958 34.2579 5.31004 34.0429L4.51404 31.0109C4.42104 30.6559 4.14404 30.3789 3.78904 30.2859L0.757044 29.4899C0.542061 29.4304 0.352523 29.302 0.217465 29.1245C0.0824074 28.9469 0.00927734 28.73 0.00927734 28.5069C0.00927734 28.2838 0.0824074 28.0669 0.217465 27.8894C0.352523 27.7118 0.542061 27.5834 0.757044 27.5239L3.78904 26.7279C4.14404 26.6349 4.42104 26.3579 4.51404 26.0029L5.31004 22.9709C5.36958 22.7559 5.49796 22.5664 5.6755 22.4313C5.85304 22.2963 6.06997 22.2231 6.29304 22.2231C6.51612 22.2231 6.73304 22.2963 6.91059 22.4313C7.08813 22.5664 7.21651 22.7559 7.27604 22.9709L8.07204 26.0029C8.16504 26.3579 8.44204 26.6349 8.79704 26.7279L11.829 27.5239C12.044 27.5834 12.2336 27.7118 12.3686 27.8894C12.5037 28.0669 12.5768 28.2838 12.5768 28.5069C12.5768 28.73 12.5037 28.9469 12.3686 29.1245C12.2336 29.302 12.044 29.4304 11.829 29.4899L8.79704 30.2859C8.44204 30.3789 8.16504 30.6559 8.07204 31.0109L7.27604 34.0429V34.0429Z" fill="#399349"/>
<path d="M9.62015 11.664C9.61735 11.7939 9.57249 11.9193 9.4923 12.0215C9.41212 12.1237 9.30094 12.1971 9.17547 12.2306C9.05001 12.2642 8.91703 12.2562 8.79652 12.2078C8.67601 12.1593 8.57447 12.0731 8.50715 11.962L7.59615 10.366C7.48915 10.179 7.29115 10.064 7.07615 10.066L5.23915 10.075C5.1093 10.0722 4.98386 10.0273 4.88168 9.94716C4.77951 9.86697 4.70611 9.7558 4.67251 9.63033C4.63892 9.50487 4.64695 9.37189 4.69539 9.25138C4.74383 9.13086 4.83007 9.02932 4.94115 8.96201L6.53715 8.05101C6.72415 7.94401 6.83915 7.74601 6.83715 7.53101L6.82815 5.69301C6.83096 5.56316 6.87582 5.43772 6.95601 5.33554C7.03619 5.23336 7.14737 5.15996 7.27283 5.12637C7.3983 5.09278 7.53128 5.10081 7.65179 5.14925C7.7723 5.19769 7.87384 5.28393 7.94115 5.39501L8.85215 6.99101C8.95915 7.17801 9.15715 7.29301 9.37215 7.29101L11.2092 7.28201C11.339 7.28481 11.4644 7.32968 11.5666 7.40986C11.6688 7.49005 11.7422 7.60122 11.7758 7.72669C11.8094 7.85216 11.8014 7.98513 11.7529 8.10565C11.7045 8.22616 11.6182 8.3277 11.5072 8.39501L9.91115 9.30601C9.72415 9.41301 9.60915 9.61101 9.61115 9.82601L9.62015 11.664V11.664Z" fill="#399349"/>
<path opacity="0.8" d="M53.8711 15.7861C53.7489 15.7523 53.6411 15.6793 53.5642 15.5783C53.4874 15.4774 53.4458 15.354 53.4458 15.2271C53.4458 15.1003 53.4874 14.9769 53.5642 14.8759C53.6411 14.7749 53.7489 14.702 53.8711 14.6681L56.9641 13.8561C57.0631 13.8299 57.1533 13.778 57.2256 13.7056C57.298 13.6333 57.3499 13.543 57.3761 13.4441L58.1881 10.3511C58.222 10.2288 58.295 10.121 58.3959 10.0442C58.4969 9.96738 58.6203 9.92578 58.7471 9.92578C58.874 9.92578 58.9974 9.96738 59.0984 10.0442C59.1993 10.121 59.2723 10.2288 59.3061 10.3511L60.1181 13.4441C60.1444 13.543 60.1963 13.6333 60.2687 13.7056C60.341 13.778 60.4312 13.8299 60.5301 13.8561L63.6231 14.6681C63.7454 14.702 63.8532 14.7749 63.9301 14.8759C64.0069 14.9769 64.0485 15.1003 64.0485 15.2271C64.0485 15.354 64.0069 15.4774 63.9301 15.5783C63.8532 15.6793 63.7454 15.7523 63.6231 15.7861L60.5301 16.5981C60.4312 16.6243 60.341 16.6763 60.2687 16.7486C60.1963 16.821 60.1444 16.9112 60.1181 17.0101L59.3061 20.1031C59.2723 20.2254 59.1993 20.3332 59.0984 20.41C58.9974 20.4869 58.874 20.5285 58.7471 20.5285C58.6203 20.5285 58.4969 20.4869 58.3959 20.41C58.295 20.3332 58.222 20.2254 58.1881 20.1031L57.3761 17.0101C57.3231 16.8081 57.1661 16.6511 56.9641 16.5981L53.8711 15.7861V15.7861Z" fill="#399349"/>
<path d="M51.0829 29.9059C50.9089 29.2564 50.6086 28.6476 50.1993 28.1142C49.7899 27.5808 49.2795 27.1333 48.6972 26.7971C48.1149 26.461 47.472 26.2428 46.8054 26.1551C46.1388 26.0674 45.4614 26.1118 44.8119 26.2859L17.6119 33.5739C16.9625 33.748 16.3537 34.0482 15.8203 34.4576C15.2869 34.8669 14.8393 35.3773 14.5032 35.9597C14.167 36.542 13.9489 37.1848 13.8611 37.8514C13.7734 38.5181 13.8179 39.1954 13.9919 39.8449L18.5469 56.8449C18.721 57.4943 19.0213 58.1032 19.4306 58.6366C19.84 59.17 20.3504 59.6175 20.9327 59.9537C21.515 60.2898 22.1579 60.508 22.8245 60.5957C23.4911 60.6834 24.1685 60.639 24.8179 60.4649L52.0179 53.1769C52.6674 53.0028 53.2762 52.7026 53.8096 52.2932C54.343 51.8839 54.7906 51.3734 55.1267 50.7911C55.4629 50.2088 55.681 49.566 55.7688 48.8994C55.8565 48.2327 55.812 47.5553 55.6379 46.9059L51.0829 29.9059V29.9059Z" fill="url(#paint0_linear)"/>
<path fill-rule="evenodd" clip-rule="evenodd" d="M18.2739 36.0459L45.4749 28.7579C46.1307 28.5823 46.8293 28.6743 47.4173 29.0137C48.0052 29.3532 48.4342 29.9122 48.6099 30.5679L53.1649 47.5679C53.3406 48.2237 53.2486 48.9223 52.9091 49.5102C52.5697 50.0981 52.0107 50.5271 51.3549 50.7029L24.1549 57.9909C23.4992 58.1665 22.8005 58.0745 22.2126 57.7351C21.6247 57.3957 21.1957 56.8366 21.0199 56.1809L16.4649 39.1809C16.2893 38.5252 16.3813 37.8265 16.7208 37.2386C17.0602 36.6507 17.6192 36.2217 18.2749 36.0459H18.2739ZM44.8119 26.2849C45.4614 26.1108 46.1388 26.0664 46.8054 26.1541C47.472 26.2418 48.1149 26.46 48.6972 26.7961C49.2795 27.1323 49.7899 27.5798 50.1993 28.1132C50.6086 28.6466 50.9089 29.2555 51.0829 29.9049L55.6379 46.9049C55.812 47.5544 55.8565 48.2317 55.7688 48.8984C55.681 49.565 55.4629 50.2078 55.1267 50.7902C54.7906 51.3725 54.343 51.8829 53.8096 52.2922C53.2762 52.7016 52.6674 53.0019 52.0179 53.1759L24.8179 60.4639C24.1685 60.638 23.4911 60.6824 22.8245 60.5947C22.1579 60.507 21.515 60.2888 20.9327 59.9527C20.3504 59.6165 19.84 59.169 19.4306 58.6356C19.0213 58.1022 18.721 57.4934 18.5469 56.8439L13.9919 39.8439C13.8179 39.1945 13.7734 38.5171 13.8611 37.8505C13.9489 37.1838 14.167 36.541 14.5032 35.9587C14.8393 35.3764 15.2869 34.866 15.8203 34.4566C16.3537 34.0473 16.9625 33.747 17.6119 33.5729L44.8119 26.2849Z" fill="#F89720"/>
<path d="M35.2298 28.853L27.1938 31.006L34.3998 57.897L42.4358 55.744L35.2298 28.853Z" fill="#F89720"/>
<path d="M54.5168 42.402L52.3638 34.366L15.1108 44.348L17.2638 52.384L54.5168 42.402Z" fill="#F89720"/>
<g style="mix-blend-mode:multiply">
<g style="mix-blend-mode:multiply">
<path fill-rule="evenodd" clip-rule="evenodd" d="M39.9261 46.3238L31.8611 48.4848L32.1921 49.7208L40.2571 47.5598L39.9261 46.3238ZM29.7021 40.4258L37.7671 38.2648L37.4361 37.0288L29.3711 39.1898L29.7021 40.4258Z" fill="#F89720"/>
</g>
</g>
<path d="M54.8311 24.9448C55.0947 23.9611 54.9567 22.913 54.4475 22.0311C53.9384 21.1491 53.0997 20.5055 52.1161 20.2418L17.4971 10.9658C16.5134 10.7022 15.4653 10.8402 14.5833 11.3493C13.7013 11.8585 13.0577 12.6972 12.7941 13.6808L11.8831 17.0808C11.6195 18.0645 11.7574 19.1126 12.2666 19.9946C12.7757 20.8766 13.6144 21.5202 14.5981 21.7838L49.2171 31.0598C50.2008 31.3234 51.2489 31.1855 52.1308 30.6763C53.0128 30.1672 53.6564 29.3285 53.9201 28.3448L54.8311 24.9448Z" fill="url(#paint1_linear)"/>
<path fill-rule="evenodd" clip-rule="evenodd" d="M16.8341 13.4379L51.4531 22.7139C51.6155 22.7574 51.7677 22.8324 51.9011 22.9348C52.0344 23.0372 52.1464 23.1648 52.2304 23.3104C52.3144 23.456 52.369 23.6167 52.3909 23.7834C52.4128 23.9501 52.4016 24.1195 52.3581 24.2819L51.4471 27.6819C51.4036 27.8442 51.3285 27.9965 51.2261 28.1298C51.1238 28.2632 50.9962 28.3751 50.8506 28.4592C50.7049 28.5432 50.5442 28.5977 50.3775 28.6196C50.2108 28.6415 50.0415 28.6304 49.8791 28.5869L15.2601 19.3109C15.0977 19.2673 14.9455 19.1923 14.8121 19.0899C14.6787 18.9876 14.5668 18.8599 14.4828 18.7143C14.3987 18.5687 14.3442 18.408 14.3223 18.2413C14.3004 18.0746 14.3115 17.9052 14.3551 17.7429L15.2661 14.3429C15.3096 14.1805 15.3847 14.0282 15.487 13.8949C15.5894 13.7615 15.717 13.6496 15.8626 13.5655C16.0082 13.4815 16.169 13.427 16.3357 13.4051C16.5023 13.3832 16.6717 13.3943 16.8341 13.4379ZM52.1151 20.2409C53.0988 20.5045 53.9374 21.1481 54.4466 22.0301C54.9557 22.9121 55.0937 23.9602 54.8301 24.9439L53.9191 28.3439C53.6554 29.3275 53.0118 30.1662 52.1299 30.6753C51.2479 31.1845 50.1998 31.3224 49.2161 31.0589L14.5971 21.7829C13.6134 21.5192 12.7748 20.8756 12.2656 19.9936C11.7565 19.1116 11.6185 18.0635 11.8821 17.0799L12.7931 13.6799C13.0567 12.6962 13.7003 11.8575 14.5823 11.3484C15.4643 10.8392 16.5124 10.7013 17.4961 10.9649L52.1151 20.2409Z" fill="#F89720"/>
<path d="M38.8242 16.6799L30.7882 14.5269L27.8892 25.3449L35.9262 27.4979L38.8252 16.6799H38.8242Z" fill="#F89720"/>
<g style="mix-blend-mode:multiply">
<g style="mix-blend-mode:multiply">
<path fill-rule="evenodd" clip-rule="evenodd" d="M38.426 18.0799L30.426 15.8399L30.746 14.3999L38.882 16.6569L38.426 18.0799Z" fill="#F89720"/>
</g>
</g>
</g>
<defs>
<linearGradient id="paint0_linear" x1="31.2119" y1="29.9289" x2="38.4169" y2="56.8209" gradientUnits="userSpaceOnUse">
<stop stop-color="#399349"/>
<stop offset="1" stop-color="#2B6E37"/>
</linearGradient>
<linearGradient id="paint1_linear" x1="34.8061" y1="15.6038" x2="31.9071" y2="26.4218" gradientUnits="userSpaceOnUse">
<stop stop-color="#399349"/>
<stop offset="1" stop-color="#2B6E37"/>
</linearGradient>
<clipPath id="clip0">
<rect width="64" height="64" fill="white"/>
</clipPath>
</defs>
</svg>
