<svg width="32" height="32" viewBox="0 0 32 32" fill="none" xmlns="http://www.w3.org/2000/svg">
<g clip-path="url(#clip0)">
<path d="M32 16C32 24.8366 25.3527 32 16.5161 32C7.67957 32 0 24.8366 0 16C0 7.16344 7.67957 0 16.5161 0C25.3527 0 32 7.16344 32 16Z" fill="#2B6E37"/>
<path d="M32 16C32 24.8366 25.3527 32 16.5161 32C7.67957 32 0 24.8366 0 16C0 7.16344 7.67957 0 16.5161 0C25.3527 0 32 7.16344 32 16Z" fill="#2B6E37"/>
<path d="M32 16C32 24.8366 25.3527 32 16.5161 32C7.67957 32 0 24.8366 0 16C0 7.16344 7.67957 0 16.5161 0C25.3527 0 32 7.16344 32 16Z" fill="#2B6E37"/>
<path d="M31.5 16C31.5 24.6985 25.0604 31.5 16.5 31.5C7.93959 31.5 0.5 24.6985 0.5 16C0.5 7.30151 7.93959 0.5 16.5 0.5C25.0604 0.5 31.5 7.30151 31.5 16Z" fill="white"/>
<path d="M31.5 16C31.5 24.6985 25.0604 31.5 16.5 31.5C7.93959 31.5 0.5 24.6985 0.5 16C0.5 7.30151 7.93959 0.5 16.5 0.5C25.0604 0.5 31.5 7.30151 31.5 16Z" fill="white"/>
<path d="M31.5 16C31.5 24.6985 25.0604 31.5 16.5 31.5C7.93959 31.5 0.5 24.6985 0.5 16C0.5 7.30151 7.93959 0.5 16.5 0.5C25.0604 0.5 31.5 7.30151 31.5 16Z" fill="white"/>
<path d="M12.1188 26.3187L9.53603 25.2125C9.36799 25.1393 9.22484 25.0187 9.12412 24.8656C9.0234 24.7124 8.96943 24.5332 8.96885 24.35V24.0312L8.95947 23.9843C9.52514 23.8724 10.0294 23.5552 10.3751 23.0937L10.4173 23.0046C10.8261 23.2837 11.2951 23.462 11.786 23.525L11.7813 23.5625V24.9875C11.7819 25.4523 11.8978 25.9098 12.1188 26.3187Z" fill="white"/>
<path d="M16 24.8328V25.9062L14.6828 26.3468L14.2234 26.1499C14.0554 26.0768 13.9122 25.9562 13.8115 25.8031C13.7108 25.6499 13.6568 25.4707 13.6562 25.2874V23.2437C13.7624 23.1931 13.8656 23.1368 13.9656 23.075C14.163 23.4939 14.446 23.8668 14.7964 24.1695C15.1468 24.4724 15.5569 24.6983 16 24.8328Z" fill="white"/>
<path d="M16.9376 24.9687C17.3679 24.9699 17.7942 24.8854 18.1918 24.7205C18.5893 24.5555 18.95 24.3133 19.2532 24.0078L19.2813 24.0312V25.7422C19.2805 25.9292 19.2239 26.1116 19.1186 26.2661C19.0134 26.4206 18.8643 26.5402 18.6907 26.6094L16.9376 27.3125L14.6829 26.3469L16 25.9062V24.8328C16.3043 24.9232 16.6201 24.969 16.9376 24.9687Z" fill="white"/>
<path d="M23.0312 21.8187V23.9187C23.0311 24.0932 22.9824 24.2641 22.8905 24.4123C22.7985 24.5605 22.6671 24.6802 22.5109 24.7578L21.1562 25.4375V23.0937L21.1234 22.9859C21.8639 22.8016 22.53 22.3941 23.0312 21.8187Z" fill="white"/>
<path d="M21.1562 23.0937V25.6812C21.1564 26.1769 21.0256 26.6638 20.777 27.0927C20.5284 27.5216 20.1709 27.8771 19.7406 28.1233L17.875 29.1874L16.9375 27.3124L18.6906 26.6093C18.8643 26.5401 19.0134 26.4205 19.1186 26.266C19.2238 26.1115 19.2805 25.9291 19.2812 25.7421V24.0312L19.2531 24.0077C19.5235 23.7393 19.744 23.4251 19.9047 23.0796C20.0078 23.0843 20.1109 23.0937 20.2188 23.0937C20.5236 23.0939 20.8272 23.0577 21.1234 22.9858L21.1562 23.0937Z" fill="#9A6948"/>
<path d="M14.6828 26.3469L16.9375 27.3125L17.875 29.1875L18.8125 31.5313H15.0625V28.25L13.4875 27.575C12.9821 27.3566 12.5514 26.9955 12.2483 26.5359C11.9453 26.0762 11.7829 25.5381 11.7812 24.9875V23.5625L11.7859 23.525C11.9392 23.5519 12.0945 23.5644 12.25 23.5625C12.7366 23.5615 13.2169 23.4527 13.6562 23.2438V25.2875C13.6568 25.4708 13.7108 25.65 13.8115 25.8032C13.9122 25.9563 14.0554 26.0768 14.2234 26.15L14.6828 26.3469Z" fill="#9A6948"/>
<path d="M13.6001 15.4297C13.1488 15.8596 12.8522 16.4265 12.7563 17.0422C12.5887 17.0163 12.4196 17.0023 12.2501 17C11.5467 16.9995 10.8616 17.225 10.2961 17.6433C9.7306 18.0616 9.31446 18.6506 9.10909 19.3234C8.90372 19.9962 8.92001 20.7171 9.15556 21.38C9.39111 22.0428 9.83343 22.6124 10.4173 23.0047L10.3751 23.0938C10.0294 23.5553 9.52511 23.8725 8.95944 23.9844C8.80851 24.0167 8.65446 24.0324 8.50007 24.0313C8.02411 24.0304 7.55976 23.8845 7.16876 23.6132C6.77771 23.3419 6.47853 22.958 6.31101 22.5125C6.11068 22.5836 5.90011 22.6216 5.68757 22.625C5.19029 22.625 4.71337 22.4275 4.36175 22.0758C4.01011 21.7242 3.81257 21.2473 3.81257 20.75C3.81257 20.6844 3.82663 20.6235 3.83132 20.5625C3.40853 20.3824 3.04802 20.082 2.79462 19.6986C2.54123 19.3153 2.40613 18.8658 2.40613 18.4063C2.40613 17.9467 2.54123 17.4973 2.79462 17.114C3.04802 16.7306 3.40853 16.4302 3.83132 16.25C3.82663 16.1891 3.81257 16.1282 3.81257 16.0625C3.8094 15.6606 3.91048 15.2646 4.10595 14.9134C4.30142 14.5621 4.58461 14.2675 4.92789 14.0583C5.27117 13.8492 5.66281 13.7326 6.06459 13.7199C6.46638 13.7072 6.8646 13.7989 7.22038 13.986C7.3562 13.6322 7.59591 13.3278 7.90798 13.1128C8.22005 12.8978 8.58984 12.7822 8.96882 12.7813L9.00632 12.7766C9.11607 13.5585 9.50484 14.2744 10.101 14.7922C10.6972 15.31 11.4605 15.5947 12.2501 15.5938C12.6759 15.5931 13.0977 15.5104 13.4923 15.35C13.5262 15.3792 13.5622 15.4058 13.6001 15.4297Z" fill="#2F5224"/>
<path d="M25.375 9.49998C25.3754 9.98794 25.2665 10.4698 25.0564 10.9102C24.8464 11.3507 24.5404 11.7385 24.1609 12.0453C23.7995 11.911 23.4169 11.8427 23.0312 11.8437C22.161 11.8437 21.3264 12.1894 20.7111 12.8048C20.0957 13.4201 19.75 14.2547 19.75 15.125C19.7522 15.2914 19.7663 15.4574 19.7922 15.6219C19.1736 15.6897 18.5819 15.9122 18.0719 16.2687C17.883 15.8665 17.6013 15.5149 17.2499 15.2429C16.8985 14.9709 16.4875 14.7864 16.0507 14.7044C15.614 14.6225 15.164 14.6455 14.7379 14.7716C14.3119 14.8977 13.9218 15.1232 13.6 15.4297C13.5621 15.4058 13.5261 15.3792 13.4922 15.35C13.0976 15.5103 12.6759 15.593 12.25 15.5937C11.4604 15.5946 10.6971 15.3099 10.101 14.7921C9.50477 14.2744 9.116 13.5585 9.00625 12.7765C8.97941 12.6233 8.96688 12.468 8.96875 12.3125C8.96939 12.1539 8.98193 11.9957 9.00625 11.839C8.99219 11.839 8.98281 11.8437 8.96875 11.8437C8.34713 11.8437 7.751 11.5968 7.31148 11.1572C6.87191 10.7177 6.625 10.1216 6.625 9.49998C6.625 8.87835 6.87191 8.28222 7.31148 7.84269C7.751 7.40316 8.34713 7.15623 8.96875 7.15623C8.9875 7.15623 9.00156 7.16091 9.01563 7.16091C8.98563 7.00485 8.96998 6.84638 8.96875 6.68748C8.96875 6.06587 9.21566 5.46973 9.65523 5.03019C10.0947 4.59066 10.6909 4.34372 11.3125 4.34372C11.6338 4.34329 11.9516 4.41036 12.2453 4.5406C12.6761 3.81487 13.3705 3.28348 14.1836 3.05729C14.9966 2.83109 15.8657 2.92754 16.6094 3.32654C17.0786 2.89753 17.6625 2.61439 18.29 2.51166C18.9174 2.40893 19.5611 2.49106 20.1426 2.74803C20.7242 3.00499 21.2183 3.42568 21.5648 3.95875C21.9112 4.49181 22.095 5.11421 22.0938 5.74997C22.0933 5.90695 22.0807 6.06367 22.0562 6.21872H22.0938C22.964 6.21872 23.7986 6.56443 24.4139 7.17978C25.0293 7.79514 25.375 8.62974 25.375 9.49998Z" fill="#5CB34F"/>
<path d="M16 24.8327C15.5568 24.6983 15.1469 24.4723 14.7964 24.1695C14.446 23.8668 14.163 23.4939 13.9656 23.0749C13.8656 23.1367 13.7624 23.193 13.6562 23.2437C13.2168 23.4526 12.7366 23.5614 12.25 23.5624C12.0945 23.5643 11.9392 23.5518 11.7859 23.5249C11.295 23.4619 10.826 23.2836 10.4172 23.0046C9.83335 22.6123 9.39103 22.0427 9.15548 21.3799C8.91993 20.717 8.90364 19.9961 9.10901 19.3233C9.31438 18.6504 9.73052 18.0615 10.2961 17.6432C10.8616 17.2249 11.5466 16.9993 12.25 16.9999C12.4195 17.0021 12.5887 17.0162 12.7562 17.0421C12.8522 16.4263 13.1488 15.8595 13.6 15.4296C13.9218 15.1232 14.3118 14.8976 14.7379 14.7715C15.164 14.6454 15.614 14.6224 16.0507 14.7044C16.4875 14.7863 16.8985 14.9709 17.2499 15.2429C17.6013 15.5149 17.883 15.8664 18.0719 16.2687C18.5819 15.9121 19.1735 15.6896 19.7922 15.6218C19.7663 15.4574 19.7522 15.2913 19.75 15.1249C19.75 14.2547 20.0957 13.4201 20.711 12.8047C21.3264 12.1894 22.161 11.8437 23.0312 11.8437C23.4168 11.8427 23.7995 11.9109 24.1609 12.0452C24.2425 12.0732 24.3224 12.1061 24.4 12.1437C24.7929 11.935 25.2332 11.8315 25.678 11.8433C26.1228 11.8552 26.5569 11.982 26.9382 12.2113C27.3195 12.4406 27.6349 12.7647 27.8539 13.1521C28.0728 13.5394 28.1877 13.9768 28.1875 14.4218C28.1865 14.9555 28.0212 15.476 27.7141 15.9124C28.167 16.1249 28.5655 16.4382 28.8788 16.8283C29.1921 17.2184 29.4121 17.675 29.5219 18.1632C29.6316 18.6514 29.6283 19.1582 29.5121 19.645C29.396 20.1316 29.17 20.5853 28.8516 20.9713C28.5331 21.3572 28.1307 21.6653 27.6749 21.8718C27.2191 22.0783 26.7222 22.1779 26.222 22.1629C25.7219 22.1478 25.2318 22.0186 24.7892 21.7851C24.3467 21.5515 23.9634 21.22 23.6687 20.8155C23.5102 21.1813 23.2951 21.5198 23.0312 21.8187C22.53 22.3941 21.8639 22.8015 21.1234 22.9859C20.8272 23.0577 20.5235 23.0939 20.2187 23.0937C20.1109 23.0937 20.0078 23.0843 19.9047 23.0796C19.6404 23.6436 19.221 24.1208 18.6956 24.4553C18.1702 24.7898 17.5604 24.9679 16.9375 24.9687C16.6201 24.9689 16.3043 24.9231 16 24.8327Z" fill="#7BC24F"/>
<path d="M26.3126 19.8124C25.7976 19.8121 25.2899 19.6906 24.8307 19.4577C24.3714 19.2248 23.9734 18.8871 23.6688 18.4718C23.5103 18.8376 23.2952 19.1761 23.0313 19.4749C22.53 20.0503 21.864 20.4578 21.1235 20.6421C20.8273 20.714 20.5236 20.7502 20.2188 20.7499C20.111 20.7499 20.0079 20.7406 19.9048 20.7359C19.6405 21.2999 19.2211 21.7771 18.6957 22.1116C18.1703 22.4461 17.5604 22.6242 16.9376 22.6249C16.3131 22.6257 15.7015 22.4478 15.1749 22.1123C14.6484 21.7767 14.2287 21.2975 13.9657 20.7312C13.8657 20.793 13.7624 20.8493 13.6563 20.8999C13.2169 21.1088 12.7366 21.2177 12.2501 21.2187C12.0946 21.2206 11.9392 21.208 11.786 21.1812C11.2951 21.1182 10.8261 20.9399 10.4173 20.6609C9.8578 20.2839 9.42801 19.7438 9.18632 19.114C8.92094 19.8061 8.89821 20.5678 9.1218 21.2745C9.3454 21.9812 9.80208 22.5911 10.4173 23.0046C10.8261 23.2837 11.2951 23.462 11.786 23.5249C11.9392 23.5518 12.0946 23.5643 12.2501 23.5624C12.7366 23.5615 13.2169 23.4526 13.6563 23.2437C13.7624 23.1931 13.8657 23.1368 13.9657 23.0749C14.2287 23.6413 14.6484 24.1205 15.1749 24.456C15.7015 24.7916 16.3131 24.9695 16.9376 24.9687C17.5604 24.9679 18.1703 24.7899 18.6957 24.4554C19.2211 24.1208 19.6405 23.6437 19.9048 23.0796C20.0079 23.0843 20.111 23.0937 20.2188 23.0937C20.5236 23.0939 20.8273 23.0577 21.1235 22.9859C21.864 22.8016 22.53 22.3941 23.0313 21.8187C23.2952 21.5199 23.5103 21.1813 23.6688 20.8156C24.1356 21.46 24.8211 21.9124 25.5971 22.0882C26.3732 22.264 27.1867 22.151 27.8856 21.7706C28.5845 21.3901 29.1208 20.7681 29.3944 20.0209C29.668 19.2737 29.6601 18.4524 29.3721 17.7106C29.1346 18.3293 28.715 18.8614 28.1688 19.2366C27.6225 19.6119 26.9753 19.8127 26.3126 19.8124Z" fill="#44853B"/>
<path d="M27.7253 15.9186L27.7042 15.9219C27.6061 16.57 27.2713 17.1587 26.7644 17.5743C26.2574 17.9899 25.6145 18.2028 24.9597 18.1719C24.5381 18.1774 24.1204 18.0902 23.7362 17.9165C23.352 17.7427 23.0107 17.4867 22.7364 17.1664C22.6 17.4448 22.4189 17.6989 22.2002 17.9187C21.7614 18.3595 21.2042 18.6636 20.5961 18.7944C20.3461 18.8481 20.091 18.8752 19.8353 18.875C19.7444 18.875 19.6577 18.868 19.5709 18.8642C19.4327 19.1278 19.2471 19.3638 19.0234 19.5603C18.4857 20.0316 17.7931 20.2882 17.0781 20.2812C16.8122 20.2815 16.5473 20.2472 16.2902 20.179C15.93 20.0881 15.5923 19.9241 15.298 19.6974C15.0037 19.4707 14.759 19.186 14.5792 18.8609C14.4963 18.9078 14.4095 18.9486 14.3191 18.9875C13.9447 19.145 13.5426 19.2263 13.1364 19.2265C13.0059 19.228 12.8754 19.2186 12.7464 19.1984C12.339 19.153 11.9462 19.0198 11.5952 18.808C11.0923 18.5132 10.708 18.0522 10.5086 17.5044C9.9059 17.8832 9.44266 18.4477 9.1886 19.1126C9.4303 19.7425 9.86008 20.2825 10.4195 20.6595C10.8283 20.9385 11.2974 21.1168 11.7883 21.1798C11.9407 21.207 12.0952 21.22 12.25 21.2187C12.7366 21.2177 13.2169 21.1089 13.6563 20.9C13.7624 20.8494 13.8656 20.793 13.9656 20.7312C14.2287 21.2975 14.6483 21.7768 15.1749 22.1123C15.7015 22.4479 16.3131 22.6257 16.9375 22.625C17.5604 22.6242 18.1702 22.4462 18.6956 22.1116C19.221 21.7771 19.6404 21.2999 19.9047 20.7359C20.0078 20.7406 20.1109 20.75 20.2188 20.75C20.5236 20.7502 20.8273 20.714 21.1234 20.6422C21.864 20.4578 22.53 20.0504 23.0313 19.475C23.2951 19.1762 23.5103 18.8376 23.6688 18.4719C24.0163 18.9465 24.4853 19.3188 25.0264 19.5497C25.5675 19.7806 26.1608 19.8616 26.744 19.7842C27.3272 19.7067 27.8787 19.4738 28.3408 19.1097C28.8029 18.7455 29.1585 18.2637 29.3702 17.7148C29.0739 16.9265 28.4846 16.283 27.7253 15.9186Z" fill="#5CB34F"/>
<path d="M12.1188 26.3188C12.0142 26.1245 11.933 25.9185 11.8769 25.7052L9.72391 24.7813C9.63959 24.7448 9.5677 24.6846 9.51684 24.6081C9.46604 24.5315 9.43844 24.4419 9.4375 24.35V23.8297C9.28428 23.8986 9.12391 23.9505 8.95937 23.9844C8.80844 24.0167 8.65439 24.0324 8.5 24.0313V24.35C8.50059 24.625 8.58144 24.8938 8.73268 25.1235C8.88391 25.3532 9.09889 25.5337 9.35125 25.6428L11.9345 26.75C11.985 26.7718 12.039 26.7845 12.0939 26.7875L12.4591 26.8067C12.3285 26.6567 12.2144 26.4931 12.1188 26.3188Z" fill="#5D241D"/>
<path d="M15.5312 24.6458V25.5687L14.5342 25.9025C14.4716 25.9236 14.4142 25.9577 14.3658 26.0025C14.3173 26.0473 14.2788 26.1019 14.2529 26.1626L14.6823 26.3468L15.3306 26.6244L16.1481 26.3506C16.2414 26.3195 16.3226 26.2599 16.3801 26.1801C16.4377 26.1004 16.4687 26.0045 16.4687 25.9062V24.935C16.1424 24.8909 15.8256 24.7932 15.5312 24.6458Z" fill="#5D241D"/>
<path d="M23.4873 21.1573C23.3597 21.3937 23.2067 21.6154 23.0312 21.8188C22.8884 21.9806 22.7315 22.1294 22.5625 22.2636V23.9188C22.5627 24.0065 22.5383 24.0925 22.4921 24.1671C22.4459 24.2417 22.3796 24.3018 22.3009 24.3406L21.1562 24.913V25.6813C21.1562 25.7572 21.1473 25.8313 21.1412 25.9063H21.1562C21.2292 25.9064 21.3011 25.8893 21.3662 25.8566L22.7205 25.1769C22.955 25.061 23.1523 24.8817 23.2901 24.6593C23.4279 24.4369 23.5006 24.1804 23.5 23.9188V21.2188C23.4975 21.198 23.4932 21.1774 23.4873 21.1573Z" fill="#5D241D"/>
<path d="M17.7062 30.5938C17.4895 30.5938 17.2793 30.5188 17.1116 30.3814C16.9439 30.2439 16.829 30.0526 16.7866 29.84L16.4688 28.25L13.0792 26.555C12.9709 26.5009 12.8799 26.4178 12.8162 26.3149C12.7526 26.212 12.7188 26.0934 12.7188 25.9724V25.6208C12.7188 25.4479 12.7874 25.282 12.9097 25.1597C13.032 25.0374 13.1979 24.9688 13.3708 24.9688H13.6562V23.2438C13.2169 23.4527 12.7366 23.5615 12.25 23.5625C12.0945 23.5644 11.9392 23.5519 11.7859 23.525L11.7812 23.5625V24.9875C11.7829 25.5381 11.9453 26.0762 12.2483 26.5359C12.5514 26.9955 12.9821 27.3566 13.4875 27.575L15.0625 28.25V31.5313H18.8125L18.4375 30.5938H17.7062Z" fill="#714226"/>
<path d="M21.1234 22.9858C20.8272 23.0577 20.5236 23.0939 20.2188 23.0937C20.1109 23.0937 20.0078 23.0843 19.9047 23.0796C19.744 23.4251 19.5235 23.7393 19.2531 24.0077L19.2812 24.0312V25.7421C19.2805 25.9291 19.2238 26.1115 19.1186 26.266C19.0134 26.4205 18.8643 26.5401 18.6906 26.6093L16.9375 27.3124L17.875 29.1874L18.8941 28.6062L18.8355 28.519C18.7026 28.3195 18.6512 28.0768 18.6917 27.8407C18.7323 27.6045 18.8617 27.3929 19.0534 27.2491L19.6562 26.7968C19.8309 26.6658 19.9727 26.496 20.0703 26.3007C20.1679 26.1054 20.2188 25.8901 20.2188 25.6718V24.9687C20.2188 24.72 20.3175 24.4816 20.4933 24.3057C20.6692 24.1299 20.9076 24.0312 21.1562 24.0312V23.0937L21.1234 22.9858Z" fill="#714226"/>
<path d="M25.6094 11.8437C25.1877 11.8429 24.7724 11.9459 24.4 12.1437C24.3224 12.1061 24.2426 12.0732 24.1609 12.0453C23.7995 11.911 23.4169 11.8427 23.0312 11.8437C22.161 11.8437 21.3264 12.1894 20.7111 12.8048C20.0957 13.4201 19.75 14.2547 19.75 15.125C19.7522 15.2914 19.7663 15.4574 19.7922 15.6218C19.1736 15.6897 18.5819 15.9122 18.0719 16.2687C17.8151 15.7247 17.3905 15.2775 16.8605 14.9929C16.3305 14.7084 15.7231 14.6015 15.1278 14.6882C14.5325 14.7748 13.9808 15.0503 13.5538 15.4741C13.1269 15.8978 12.8473 16.4475 12.7562 17.0421L12.7188 17.0375V18.4437L12.7562 18.4484C12.8522 17.8326 13.1488 17.2657 13.6 16.8359C13.9218 16.5294 14.3119 16.3039 14.7379 16.1778C15.164 16.0517 15.614 16.0287 16.0507 16.1107C16.4875 16.1926 16.8985 16.3772 17.2499 16.6492C17.6013 16.9211 17.883 17.2727 18.0719 17.675C18.5819 17.3184 19.1736 17.0959 19.7922 17.0281C19.7663 16.8637 19.7522 16.6976 19.75 16.5312C19.75 15.661 20.0957 14.8264 20.7111 14.211C21.3264 13.5957 22.161 13.25 23.0312 13.25C23.4169 13.249 23.7995 13.3172 24.1609 13.4515C24.2426 13.4795 24.3224 13.5123 24.4 13.55C24.739 13.3702 25.1139 13.2684 25.4973 13.2519C25.8806 13.2354 26.2629 13.3048 26.616 13.4549C26.9692 13.6049 27.2844 13.8319 27.5387 14.1193C27.7929 14.4067 27.9798 14.7472 28.0858 15.1161C28.1971 14.7333 28.2174 14.3297 28.1451 13.9377C28.0728 13.5456 27.9099 13.1759 27.6694 12.858C27.4288 12.5401 27.1172 12.2828 26.7596 12.1067C26.4019 11.9306 26.008 11.8405 25.6094 11.8437Z" fill="#8EE05B"/>
<path d="M21.6635 10.6251C21.1272 10.2196 20.5042 9.94402 19.8435 9.81986C19.1828 9.6957 18.5022 9.72628 17.8553 9.90933C17.2084 10.0924 16.6127 10.4228 16.115 10.8747C15.6173 11.3267 15.231 11.8878 14.9866 12.5141C15.0044 11.8832 14.3135 11.4829 13.6985 11.3394C12.7268 11.1203 11.7125 11.1854 10.7768 11.5269C10.5763 11.623 10.3664 11.6978 10.1505 11.7505C9.90959 11.7847 9.66069 11.7552 9.41647 11.7974C9.27625 11.8225 9.13774 11.8562 9.00162 11.8982C8.98153 12.0354 8.97057 12.1739 8.96881 12.3126C8.96694 12.4681 8.97947 12.6234 9.00631 12.7766C9.11606 13.5585 9.50483 14.2744 10.101 14.7922C10.6972 15.31 11.4605 15.5947 12.2501 15.5938C12.6759 15.5931 13.0977 15.5104 13.4922 15.3501C13.5262 15.3792 13.5622 15.4058 13.6001 15.4297C13.9219 15.1233 14.3119 14.8978 14.738 14.7717C15.1641 14.6456 15.614 14.6226 16.0508 14.7045C16.4875 14.7864 16.8985 14.971 17.2499 15.243C17.6014 15.515 17.8831 15.8666 18.0719 16.2688C18.582 15.9123 19.1736 15.6898 19.7922 15.6219C19.7663 15.4575 19.7523 15.2915 19.7501 15.1251C19.7501 14.2548 20.0958 13.4202 20.7111 12.8049C21.3265 12.1895 22.1611 11.8438 23.0313 11.8438C23.4169 11.8428 23.7995 11.9111 24.161 12.0454C24.775 11.5466 25.1873 10.8421 25.3216 10.0626C24.7164 9.82554 24.0593 9.75271 23.4169 9.8515C22.7744 9.95029 22.1695 10.2171 21.6635 10.6251Z" fill="#44853B"/>
<path d="M24.4787 7.25002C24.324 7.25002 24.1693 7.24299 24.0142 7.2533C22.9905 7.28635 22.0191 7.7132 21.3025 8.44486C20.9619 8.10619 20.5551 7.8414 20.1076 7.66709C19.66 7.49278 19.1814 7.4127 18.7014 7.43183C18.2215 7.45097 17.7507 7.56892 17.3185 7.77832C16.8862 7.98772 16.5018 8.28402 16.1893 8.64877C15.8357 8.3541 15.4227 8.13906 14.9784 8.0183C14.5342 7.89754 14.0692 7.87387 13.615 7.94893C13.1609 8.02404 12.7282 8.19608 12.3465 8.45336C11.9647 8.7107 11.6429 9.04721 11.4029 9.44002C11.1398 9.21514 10.8349 9.04434 10.5057 8.93746C10.1764 8.83053 9.82939 8.78963 9.48433 8.81705C8.79351 8.87641 8.13052 9.11699 7.56245 9.51455C7.26767 9.71711 6.99438 9.94926 6.74683 10.2074C6.8956 10.6806 7.19103 11.0943 7.59046 11.3885C7.98995 11.6826 8.47259 11.8421 8.9687 11.8438C8.98276 11.8438 8.99214 11.8391 9.0062 11.8391C9.00339 11.8583 9.0062 11.878 9.00151 11.8972C9.13763 11.8552 9.27614 11.8216 9.41636 11.7964C9.66058 11.7542 9.90948 11.7838 10.1504 11.7496C10.3663 11.6969 10.5762 11.622 10.7767 11.526C11.7124 11.1845 12.7267 11.1194 13.6984 11.3385C14.3134 11.4791 15.0043 11.8822 14.9865 12.5131C15.231 11.887 15.6173 11.3259 16.1151 10.874C16.6129 10.4222 17.2086 10.0919 17.8555 9.90895C18.5024 9.72602 19.1829 9.69549 19.8435 9.81971C20.5042 9.94393 21.1271 10.2196 21.6634 10.625C22.1692 10.2174 22.7738 9.95078 23.4159 9.85199C24.0579 9.7532 24.7147 9.82586 25.3196 10.0625C25.4124 9.56043 25.3843 9.0434 25.2376 8.55432C25.0908 8.06524 24.8297 7.61815 24.4759 7.25002H24.4787Z" fill="#52A147"/>
<path d="M4.78804 21.1428C4.88889 20.7184 5.01713 20.3009 5.17195 19.8931C4.91904 19.8317 4.69632 19.6821 4.54382 19.4712C4.35524 19.2358 4.2291 18.9567 4.17708 18.6595C4.12505 18.3625 4.14881 18.057 4.24617 17.7716C4.35373 17.4853 4.54073 17.2357 4.78523 17.052C4.90577 16.9601 5.03904 16.8862 5.18085 16.8326C5.2746 16.7975 5.56429 16.782 5.5971 16.6991C5.62617 16.6255 5.39648 16.2978 5.36273 16.2191C5.27755 16.0348 5.2055 15.8448 5.1471 15.6505C5.02755 15.266 4.98642 14.8614 5.02617 14.4608C5.04697 14.2898 5.08594 14.1215 5.14242 13.9587C4.74512 14.1486 4.40952 14.4468 4.17425 14.8189C3.93898 15.1911 3.81361 15.6222 3.81257 16.0625C3.81257 16.1281 3.82663 16.1891 3.83132 16.25C3.40853 16.4301 3.04802 16.7305 2.79462 17.1139C2.54123 17.4973 2.40613 17.9467 2.40613 18.4062C2.40613 18.8658 2.54123 19.3152 2.79462 19.6986C3.04802 20.082 3.40853 20.3824 3.83132 20.5625C3.82663 20.6234 3.81257 20.6844 3.81257 20.75C3.81255 21.07 3.89475 21.3846 4.05128 21.6636C4.20781 21.9427 4.43342 22.1769 4.70648 22.3437C4.67882 21.9416 4.70627 21.5376 4.78804 21.1428Z" fill="#39632C"/>
<path d="M13.4922 15.35C13.0976 15.5104 12.6759 15.5931 12.25 15.5938C11.4604 15.5947 10.6971 15.31 10.101 14.7922C9.50477 14.2744 9.116 13.5585 9.00626 12.7766L8.96876 12.7813C8.59786 12.7825 8.23558 12.8937 7.9279 13.1008C7.62017 13.3078 7.38075 13.6016 7.24001 13.9447C7.38673 14.4261 7.57704 14.8954 7.76829 15.3613C7.83017 15.5132 7.89251 15.665 7.96704 15.8113C8.08306 16.0603 8.23622 16.2903 8.42126 16.4933C8.23481 16.6134 8.05915 16.7496 7.89626 16.9002C7.73829 17.0608 7.60007 17.2397 7.4847 17.4332C7.25431 17.8207 7.10618 18.2515 7.0497 18.6988C6.96626 19.5964 7.11966 20.5002 7.49454 21.32C6.98278 21.6479 6.59932 22.1418 6.40845 22.7188C6.59955 23.1112 6.89683 23.4422 7.26649 23.6742C7.63622 23.9061 8.06354 24.0299 8.50001 24.0313C8.6544 24.0324 8.80845 24.0167 8.95938 23.9844C9.52505 23.8725 10.0293 23.5553 10.375 23.0938L10.4172 23.0047C9.83337 22.6124 9.39104 22.0428 9.1555 21.38C8.91995 20.7171 8.90366 19.9962 9.10903 19.3234C9.3144 18.6506 9.73054 18.0616 10.296 17.6433C10.8616 17.225 11.5466 16.9995 12.25 17C12.4195 17.0023 12.5887 17.0163 12.7563 17.0422C12.8521 16.4265 13.1488 15.8596 13.6 15.4297C13.5622 15.4058 13.5261 15.3792 13.4922 15.35Z" fill="#233D1B"/>
<path d="M7.49449 21.3218C7.11961 20.502 6.96621 19.5982 7.04965 18.7006C7.10613 18.2533 7.25426 17.8225 7.48465 17.435C7.60002 17.2415 7.73824 17.0625 7.89621 16.902C8.0591 16.7514 8.23477 16.6152 8.42121 16.4951C8.23617 16.2921 8.08301 16.0621 7.96699 15.8131C7.89246 15.6668 7.83012 15.515 7.76824 15.3631C7.57699 14.8972 7.38668 14.4256 7.23996 13.9465C7.23387 13.9606 7.2259 13.9737 7.22027 13.9878C6.90117 13.817 6.54572 13.7255 6.18384 13.7208C5.82196 13.7161 5.46427 13.7985 5.1409 13.9611C5.08443 14.1238 5.04546 14.2921 5.02465 14.4631C4.9849 14.8638 5.02603 15.2683 5.14559 15.6528C5.20398 15.8471 5.27603 16.0372 5.36121 16.2214C5.3973 16.3001 5.62699 16.6278 5.59559 16.7014C5.56277 16.7843 5.27309 16.7998 5.17934 16.835C5.03753 16.8885 4.90426 16.9624 4.78371 17.0543C4.53922 17.238 4.35221 17.4876 4.24465 17.7739C4.14729 18.0593 4.12353 18.3648 4.17556 18.6619C4.22759 18.959 4.35373 19.2381 4.54231 19.4736C4.69481 19.6844 4.91753 19.834 5.17043 19.8954C5.0153 20.3032 4.88675 20.7207 4.78559 21.1451C4.70481 21.5392 4.67816 21.9425 4.70637 22.3437C5.00075 22.5272 5.34059 22.6246 5.68746 22.625C5.9 22.6216 6.11057 22.5835 6.3109 22.5125C6.33855 22.5847 6.37465 22.6531 6.4084 22.7206C6.59927 22.1436 6.98273 21.6497 7.49449 21.3218Z" fill="#2F5224"/>
<path d="M7.5625 9.51451C7.99346 9.22048 8.47516 9.00896 8.98328 8.8906C9.01756 8.2957 9.27777 7.73631 9.71072 7.32683C10.1436 6.91733 10.7166 6.68863 11.3125 6.68747C11.6338 6.68704 11.9516 6.75411 12.2453 6.88435C12.6761 6.15862 13.3705 5.62723 14.1836 5.40104C14.9966 5.17484 15.8657 5.27129 16.6094 5.67029C16.979 5.3316 17.4215 5.0824 17.9028 4.94193C18.3841 4.80145 18.8911 4.77346 19.385 4.86013C19.8787 4.94679 20.346 5.14578 20.7507 5.44174C21.1553 5.73769 21.4865 6.12269 21.7188 6.56701C21.9475 6.36404 22.0938 6.21872 22.0938 6.21872H22.0562C22.0807 6.06367 22.0933 5.90695 22.0938 5.74997C22.095 5.11421 21.9112 4.49181 21.5648 3.95875C21.2183 3.42568 20.7242 3.00499 20.1426 2.74803C19.5611 2.49106 18.9174 2.40893 18.29 2.51166C17.6625 2.61439 17.0786 2.89753 16.6094 3.32654C15.8657 2.92754 14.9966 2.83109 14.1836 3.05729C13.3705 3.28348 12.6761 3.81487 12.2453 4.5406C11.9516 4.41036 11.6338 4.34329 11.3125 4.34372C10.6909 4.34372 10.0947 4.59066 9.65523 5.03019C9.21566 5.46973 8.96875 6.06587 8.96875 6.68747C8.96998 6.84638 8.98563 7.00485 9.01563 7.16091C9.00156 7.16091 8.9875 7.15622 8.96875 7.15622C8.34713 7.15622 7.751 7.40316 7.31148 7.84269C6.87191 8.28222 6.625 8.87835 6.625 9.49997C6.62733 9.85242 6.71141 10.1995 6.87063 10.5139C6.8219 10.4147 6.78008 10.3123 6.74547 10.2073C6.9935 9.94915 7.26725 9.71701 7.5625 9.51451Z" fill="#7BC24F"/>
</g>
<defs>
<clipPath id="clip0">
<rect width="32" height="32" fill="white"/>
</clipPath>
</defs>
</svg>
