<svg width="1200" height="630" viewBox="0 0 1200 630" fill="none" xmlns="http://www.w3.org/2000/svg">
<g clip-path="url(#clip0)">
<g clip-path="url(#clip1)">
<path d="M332.063 96.5586L307.869 73.1364C307.396 72.6778 306.894 72.495 306.213 72.5157L302.203 72.5502L202.22 15.8828L168.098 16.8777L133.973 55.2853L110.485 104.766C111.856 108.821 112.399 111.446 112.399 111.446V181.392L216.482 240.383L327.877 176.071V99.1864L328.918 100.112C329.887 101.052 331.365 100.971 332.303 100.002C333.241 99.0329 333.032 97.4966 332.063 96.5586Z" fill="#553499"/>
<path d="M306.302 74.8723L272.179 75.8672L238.054 114.277L216.48 159.916V240.383L272.179 208.226L327.875 176.068V95.6012L306.302 74.8723Z" fill="#8F5BFD"/>
<path d="M298.089 117.687L246.269 147.606V223.185L298.089 193.266V117.687Z" fill="#553499"/>
<path d="M238.054 114.277L133.973 55.2849L109.442 106.962L213.525 165.954L238.054 114.277Z" fill="#017178"/>
<path d="M133.974 55.2853L168.096 16.876L272.179 75.8676L238.054 114.277L133.974 55.2853Z" fill="#1FC7D4"/>
<path d="M168.096 16.876L202.219 15.8828L306.301 74.8728L272.178 75.8676L168.096 16.876Z" fill="#017178"/>
<path d="M174.101 188.009V157.221L194.728 169.128V199.923L174.101 188.009Z" fill="#2C92BF"/>
<path d="M194.728 181.766V172.899L185.248 180.048V188.914L194.728 181.766Z" fill="#83B2C6"/>
<path d="M171.256 151.781V190.168L197.575 205.363V166.977L171.256 151.781ZM174.101 157.221L182.401 162.011V192.802L174.101 188.007V157.221ZM194.728 199.923L185.248 194.447V163.656L194.728 169.128V199.923Z" fill="#E6E6E6"/>
<path d="M182.401 175.188V166.315L174.101 172.589V181.461L182.401 175.188Z" fill="#83B2C6"/>
<path d="M130.791 162.771V131.983L151.418 143.892V174.687L130.791 162.771Z" fill="#2C92BF"/>
<path d="M151.418 156.529V147.663L141.938 154.81V163.676L151.418 156.529Z" fill="#83B2C6"/>
<path d="M127.944 126.543V164.932L154.265 180.127V141.739L127.944 126.543ZM130.791 131.983L139.092 136.775V167.566L130.791 162.771V131.983ZM151.418 174.686L141.938 169.209V138.418L151.418 143.891V174.686Z" fill="#E6E6E6"/>
<path d="M139.092 149.95V141.077L130.791 147.351V156.224L139.092 149.95Z" fill="#83B2C6"/>
<path d="M213.526 168.396C213.107 168.396 212.693 168.289 212.32 168.079L108.238 109.087C107.065 108.421 106.653 106.932 107.317 105.759C107.983 104.585 109.471 104.173 110.647 104.838L212.444 162.535L235.849 113.229C235.948 113.02 236.075 112.827 236.229 112.654L270.352 74.245C270.8 73.7433 271.434 73.4467 272.107 73.426L306.23 72.4328C306.912 72.4121 307.528 72.6604 308 73.1191L332.257 96.6309C333.226 97.5689 333.25 99.1156 332.311 100.085C331.373 101.054 329.826 101.078 328.859 100.138L305.342 77.3452L273.303 78.278L240.11 115.637L215.731 167.001C215.439 167.615 214.907 168.079 214.26 168.282C214.02 168.36 213.772 168.396 213.526 168.396V168.396Z" fill="#E6E6E6"/>
<path d="M246.27 147.607V223.186L298.09 193.268V117.688L246.27 147.607ZM292.485 189.018L275.821 173.584L292.485 136.018V189.018ZM260.881 207.264L273.082 179.759L286.8 192.259L260.881 207.264ZM287.941 131.021L271.276 168.587L254.613 150.262L287.941 131.021ZM251.875 156.437L268.538 174.762L251.875 212.328V156.437Z" fill="#E6E6E6"/>
<g clip-path="url(#clip2)">
<path fill-rule="evenodd" clip-rule="evenodd" d="M199.854 48.6788C200.823 45.6975 204.249 44.3368 206.923 45.8063C209.288 47.1062 210.158 50.1522 208.846 52.5395L205.88 57.9369C206.497 58.276 207.171 58.5114 207.788 58.8505C208.405 59.1896 208.919 59.4722 209.479 59.9151L212.445 54.5177C213.757 52.1304 216.795 51.2322 219.161 52.5321C221.834 54.0016 222.522 57.6231 220.627 60.0957L216.016 65.8056C219.057 69.7744 220.431 74.5839 218.32 78.4243L217.008 80.8116C215.24 84.0293 211.7 85.5976 207.748 85.7231C203.739 85.9523 199.26 84.8425 194.838 82.4122C190.416 79.9818 187.079 76.7961 185.123 73.2887C183.214 69.9416 182.64 66.1125 184.409 62.8949L185.721 60.5076C187.831 56.6671 192.525 55.1923 197.506 55.632L199.854 48.6788ZM214.017 65.7882L219.462 59.0496C220.797 57.3508 220.43 54.8515 218.476 53.7777C216.831 52.8734 214.752 53.4879 213.839 55.1487L210.074 61.9992C209.72 61.6693 209.206 61.3867 208.794 61.1607C208.177 60.8215 207.72 60.4351 207.103 60.096C206.486 59.7569 205.869 59.4178 205.195 59.1825C204.784 58.9564 204.213 58.7776 203.801 58.5515L207.509 51.8048C208.422 50.144 207.827 48.0599 206.181 47.1556C204.33 46.1383 201.921 47.1115 201.305 49.2059L198.535 57.414C193.303 56.7009 188.826 58.0246 187.001 61.3461L185.688 63.7334C182.893 68.8194 187.296 76.645 195.523 81.1666C203.75 85.6882 212.716 85.2101 215.512 80.1241L216.824 77.7368C218.809 74.3681 217.527 69.8792 214.017 65.7882Z" fill="#633001"/>
<path d="M215.671 80.0771C212.876 85.1631 203.91 85.6412 195.682 81.1196C187.455 76.598 183.053 68.7724 185.848 63.6864L187.16 61.2991L217.086 77.7463L215.774 80.1336L215.671 80.0771Z" fill="#FEDC90"/>
<path fill-rule="evenodd" clip-rule="evenodd" d="M201.305 49.2059C201.921 47.1115 204.33 46.1383 206.181 47.1556C207.827 48.0599 208.422 50.144 207.509 51.8048L203.744 58.6553C204.83 59.1167 205.915 59.5781 207.046 60.1998C208.075 60.765 209.046 61.434 210.017 62.103L213.782 55.2525C214.695 53.5917 216.774 52.9771 218.419 53.8815C220.27 54.8988 220.74 57.4546 219.405 59.1534L213.961 65.892C217.367 69.9265 218.752 74.4719 216.927 77.7934C214.131 82.8794 205.165 83.3574 196.938 78.8358C188.711 74.3143 184.308 66.4886 187.103 61.4026C188.929 58.0812 193.406 56.7574 198.638 57.4705L201.305 49.2059Z" fill="#D1884F"/>
<path d="M198.198 66.5541C197.456 67.9035 196.109 68.6496 195.184 68.1409C194.258 67.6322 194.166 66.0948 194.907 64.7455C195.649 63.3961 196.996 62.65 197.922 63.1587C198.847 63.6674 198.94 65.2048 198.198 66.5541Z" fill="#633001"/>
<path d="M209.613 72.8278C208.872 74.1772 207.524 74.9233 206.599 74.4146C205.673 73.9059 205.581 72.3685 206.322 71.0192C207.064 69.6698 208.411 68.9237 209.337 69.4324C210.262 69.9411 210.355 71.4785 209.613 72.8278Z" fill="#633001"/>
</g>
<g clip-path="url(#clip3)">
<path fill-rule="evenodd" clip-rule="evenodd" d="M257.419 106.138C256.385 103.868 257.664 101.229 260.022 100.654C262.109 100.145 264.256 101.464 264.77 103.57L265.93 108.331C266.475 108.198 266.997 107.974 267.541 107.841C268.085 107.708 268.539 107.598 269.105 107.557L267.944 102.796C267.431 100.69 268.73 98.5304 270.816 98.0216C273.175 97.4466 275.525 99.2015 275.742 101.67L276.106 107.498C280.024 108.192 283.415 110.275 284.241 113.663L284.754 115.768C285.446 118.607 284.212 121.429 281.961 123.627C279.733 125.917 276.509 127.673 272.608 128.624C268.708 129.575 265.038 129.5 262.005 128.493C259.086 127.556 256.692 125.618 255.999 122.78L255.486 120.674C254.66 117.287 256.621 113.899 259.779 111.48L257.419 106.138ZM274.924 108.563L274.496 101.683C274.367 99.9689 272.808 98.7 271.084 99.1203C269.633 99.4742 268.744 100.952 269.101 102.417L270.575 108.459C270.189 108.456 269.736 108.567 269.373 108.655C268.829 108.788 268.353 108.807 267.809 108.94C267.264 109.072 266.72 109.205 266.198 109.429C265.835 109.518 265.404 109.72 265.041 109.808L263.59 103.858C263.233 102.393 261.764 101.49 260.312 101.844C258.68 102.242 257.789 104.108 258.554 105.668L261.34 111.972C257.888 114.366 255.973 117.548 256.688 120.478L257.201 122.584C258.295 127.07 265.084 129.294 272.341 127.525C279.597 125.756 284.6 120.656 283.506 116.17L282.993 114.064C282.347 111.021 279.182 109.076 274.924 108.563Z" fill="#633001"/>
<path d="M283.575 116.056C284.669 120.542 279.666 125.642 272.409 127.411C265.152 129.181 258.363 126.956 257.269 122.47L256.756 120.364L283.152 113.928L283.665 116.034L283.575 116.056Z" fill="#FEDC90"/>
<path fill-rule="evenodd" clip-rule="evenodd" d="M258.554 105.667C257.79 104.108 258.68 102.242 260.313 101.844C261.764 101.49 263.234 102.392 263.591 103.857L265.064 109.9C265.949 109.587 266.834 109.274 267.831 109.031C268.739 108.81 269.668 108.68 270.597 108.551L269.124 102.508C268.767 101.043 269.656 99.5656 271.107 99.2117C272.74 98.8135 274.389 100.06 274.519 101.775L274.947 108.654C279.114 109.19 282.37 111.112 283.084 114.042C284.178 118.528 279.175 123.628 271.918 125.397C264.662 127.166 257.873 124.942 256.779 120.456C256.064 117.526 257.979 114.343 261.432 111.95L258.554 105.667Z" fill="#D1884F"/>
<path d="M266.056 117.515C266.346 118.705 265.956 119.867 265.14 120.066C264.324 120.265 263.443 119.413 263.153 118.223C262.863 117.033 263.252 115.871 264.069 115.672C264.885 115.473 265.765 116.325 266.056 117.515Z" fill="#633001"/>
<path d="M276.124 115.06C276.414 116.25 276.025 117.412 275.208 117.611C274.392 117.81 273.512 116.958 273.221 115.768C272.931 114.578 273.321 113.416 274.137 113.217C274.953 113.018 275.834 113.87 276.124 115.06Z" fill="#633001"/>
</g>
</g>
<g clip-path="url(#clip4)">
<path d="M331.773 379.82L300.084 349.143C299.465 348.542 298.808 348.303 297.916 348.33L292.663 348.375L161.713 274.156L117.021 275.459L72.3271 325.763L41.5645 390.569C43.3598 395.881 44.0712 399.318 44.0712 399.318V490.929L180.392 568.192L326.289 483.959V383.262L327.653 384.474C328.923 385.705 330.858 385.599 332.086 384.33C333.315 383.061 333.042 381.048 331.773 379.82Z" fill="#1F4025"/>
<path d="M298.033 351.417L253.342 352.72L208.648 403.026L180.392 462.801V568.192L253.342 526.074L326.289 483.957V378.566L298.033 351.417Z" fill="#386B41"/>
<path d="M287.276 407.493L219.405 446.679V545.668L287.276 506.481V407.493Z" fill="#1F4025"/>
<path d="M208.647 403.026L72.3291 325.763L40.2002 393.446L176.521 470.71L208.647 403.026Z" fill="#4D2419"/>
<path d="M72.3291 325.763L117.021 275.457L253.341 352.72L208.647 403.026L72.3291 325.763Z" fill="#784032"/>
<path d="M117.021 275.457L161.712 274.156L298.033 351.417L253.341 352.72L117.021 275.457Z" fill="#4D2419"/>
<path d="M124.884 499.596V459.271L151.9 474.867V515.201L124.884 499.596Z" fill="#2C92BF"/>
<path d="M151.901 491.419V479.806L139.484 489.169V500.782L151.901 491.419Z" fill="#83B2C6"/>
<path d="M121.158 452.146V502.423L155.629 522.326V472.049L121.158 452.146ZM124.884 459.271L135.756 465.545V505.874L124.884 499.594V459.271ZM151.901 515.201L139.484 508.028V467.699L151.901 474.867V515.201Z" fill="#E6E6E6"/>
<path d="M135.755 482.803V471.182L124.884 479.4V491.019L135.755 482.803Z" fill="#83B2C6"/>
<path d="M68.1602 466.541V426.217L95.1763 441.815V482.148L68.1602 466.541Z" fill="#2C92BF"/>
<path d="M95.1759 458.366V446.754L82.7598 456.114V467.727L95.1759 458.366Z" fill="#83B2C6"/>
<path d="M64.4316 419.092V469.371L98.9047 489.273V438.994L64.4316 419.092ZM68.1601 426.217L79.0316 432.493V472.821L68.1601 466.541V426.217ZM95.1762 482.146L82.76 474.974V434.645L95.1762 441.813V482.146Z" fill="#E6E6E6"/>
<path d="M79.0316 449.748V438.127L68.1602 446.345V457.966L79.0316 449.748Z" fill="#83B2C6"/>
<path d="M176.52 473.908C175.971 473.908 175.429 473.768 174.942 473.492L38.6213 396.229C37.0857 395.357 36.5459 393.406 37.4154 391.87C38.2871 390.332 40.236 389.792 41.7762 390.664L175.104 466.232L205.759 401.653C205.887 401.38 206.054 401.127 206.255 400.901L250.947 350.595C251.534 349.938 252.365 349.549 253.246 349.522L297.938 348.222C298.832 348.194 299.639 348.52 300.257 349.12L332.027 379.915C333.296 381.143 333.328 383.169 332.097 384.438C330.869 385.707 328.843 385.739 327.576 384.508L296.775 354.655L254.813 355.877L211.339 404.808L179.409 472.081C179.027 472.885 178.329 473.492 177.482 473.758C177.168 473.86 176.843 473.908 176.52 473.908V473.908Z" fill="#E6E6E6"/>
<path d="M219.405 446.679V545.667L287.276 506.484V407.493L219.405 446.679ZM279.935 500.917L258.11 480.703L279.935 431.501V500.917ZM238.542 524.814L254.522 488.79L272.489 505.162L238.542 524.814ZM273.984 424.956L252.157 474.158L230.333 450.157L273.984 424.956ZM226.747 458.244L248.571 482.245L226.747 531.447V458.244Z" fill="#E6E6E6"/>
<g clip-path="url(#clip5)">
<path d="M160.864 347.425C160.864 347.425 169.256 325.892 192.709 339.433C192.709 339.433 187.071 348.893 179.07 350.885C171.068 352.877 160.864 347.425 160.864 347.425Z" fill="#47B85B"/>
<path d="M192.708 339.433C192.708 339.433 187.063 348.906 179.069 350.885C171.075 352.864 160.863 347.425 160.863 347.425C169.777 342.24 178.805 340.418 184.959 339.71C188.572 339.294 192.708 339.433 192.708 339.433Z" fill="#399349"/>
<path d="M159.723 333.577C159.723 333.577 174.175 315.544 150.722 302.003C150.722 302.003 145.348 311.616 147.623 319.541C149.899 327.466 159.723 333.577 159.723 333.577Z" fill="#47B85B"/>
<path d="M159.723 333.577C159.723 333.577 149.894 327.446 147.623 319.541C145.34 311.628 150.722 302.003 150.722 302.003C150.722 302.003 153.788 307.037 154.872 309.269C157.884 315.523 161.259 324.86 159.723 333.577Z" fill="#399349"/>
<path d="M145.774 367.17L144.493 366.346C144.616 366.163 156.411 348.016 158.979 333.436C160.486 324.921 157.197 315.769 154.182 309.581L155.533 308.975C158.648 315.355 162.031 324.833 160.459 333.732C157.852 348.594 145.897 366.987 145.774 367.17Z" fill="#2B6E37"/>
<path d="M151.862 310.782L157.677 314.313L156.914 315.563L151.1 312.032L151.862 310.782Z" fill="#2B6E37"/>
<path d="M161.798 317.335L159.968 321.891L158.562 321.31L160.393 316.753L161.798 317.335Z" fill="#2B6E37"/>
<path d="M154.87 322.064L160.323 325.247L159.584 326.512L154.131 323.329L154.87 322.064Z" fill="#2B6E37"/>
<path d="M153.84 352.348L153.052 351.065C155.368 349.731 157.852 348.29 160.467 346.773C169.553 341.502 178.739 339.619 184.856 338.975L185.061 340.446C179.093 341.075 170.126 342.915 161.267 348.064C158.652 349.581 156.156 351.014 153.84 352.348Z" fill="#2B6E37"/>
<path d="M185.494 343.258L184.875 344.586L178.178 341.412L178.797 340.083L185.494 343.258Z" fill="#2B6E37"/>
<path d="M175.415 338.418L173.984 342.309L172.565 341.767L173.996 337.876L175.415 338.418Z" fill="#2B6E37"/>
<path d="M175.748 346.747L175.126 348.074L167.763 344.566L168.385 343.24L175.748 346.747Z" fill="#2B6E37"/>
<path d="M156.776 332.383C153.777 330.06 148.507 325.344 146.893 319.711C144.564 311.603 149.828 302.029 150.055 301.636C150.15 301.471 150.312 301.344 150.503 301.286C150.695 301.227 150.916 301.27 151.088 301.369C158.703 305.766 163.209 311.107 164.504 317.232C166.411 326.313 160.581 333.735 160.33 334.047L159.136 333.103L159.73 333.565L159.136 333.103C159.193 333.035 164.802 325.875 163.034 317.465C161.867 311.972 157.832 307.123 151.041 303.033C149.919 305.31 146.523 312.988 148.348 319.351C149.839 324.557 154.851 329.023 157.692 331.222L156.776 332.383Z" fill="white"/>
<path d="M160.498 348.059C160.168 347.869 160.023 347.481 160.167 347.141C160.312 346.768 163.81 338 172.642 335.118C178.58 333.17 185.459 334.402 193.074 338.799C193.246 338.898 193.38 339.06 193.439 339.263C193.498 339.466 193.475 339.656 193.36 339.826C193.126 340.232 187.473 349.565 179.274 351.595C171.088 353.632 160.94 348.297 160.511 348.066L160.498 348.059ZM191.657 339.671C184.726 335.822 178.516 334.773 173.175 336.508C166.298 338.743 162.813 345.084 161.852 347.082C164.174 348.203 172.374 351.771 178.872 350.162C185.287 348.574 190.238 341.794 191.657 339.671Z" fill="white"/>
<path d="M145.774 367.17L144.493 366.346C144.616 366.163 156.411 348.016 158.979 333.436C160.486 324.921 157.197 315.769 154.182 309.581L155.533 308.975C158.648 315.355 162.031 324.833 160.459 333.732C157.852 348.594 145.897 366.987 145.774 367.17Z" fill="white"/>
<path d="M151.862 310.782L157.677 314.313L156.914 315.563L151.1 312.032L151.862 310.782Z" fill="white"/>
<path d="M161.798 317.335L159.968 321.891L158.562 321.31L160.393 316.753L161.798 317.335Z" fill="white"/>
<path d="M154.87 322.064L160.323 325.247L159.584 326.512L154.131 323.329L154.87 322.064Z" fill="white"/>
<path d="M153.84 352.348L153.052 351.065C155.368 349.731 157.852 348.29 160.467 346.773C169.553 341.502 178.739 339.619 184.856 338.975L185.061 340.446C179.093 341.075 170.126 342.915 161.267 348.064C158.652 349.581 156.156 351.014 153.84 352.348Z" fill="white"/>
<path d="M185.494 343.258L184.875 344.586L178.178 341.412L178.797 340.083L185.494 343.258Z" fill="white"/>
<path d="M175.415 338.418L173.984 342.309L172.565 341.767L173.996 337.876L175.415 338.418Z" fill="white"/>
<path d="M175.748 346.747L175.126 348.074L167.763 344.566L168.385 343.24L175.748 346.747Z" fill="white"/>
<path d="M160.864 347.425C160.864 347.425 169.256 325.892 192.709 339.433C192.709 339.433 187.071 348.893 179.07 350.885C171.068 352.877 160.864 347.425 160.864 347.425Z" fill="#47B85B"/>
<path d="M192.708 339.433C192.708 339.433 187.063 348.906 179.069 350.885C171.075 352.864 160.863 347.425 160.863 347.425C169.777 342.24 178.805 340.418 184.959 339.71C188.572 339.294 192.708 339.433 192.708 339.433Z" fill="#399349"/>
<path d="M159.723 333.577C159.723 333.577 174.175 315.544 150.722 302.003C150.722 302.003 145.348 311.616 147.623 319.541C149.899 327.466 159.723 333.577 159.723 333.577Z" fill="#47B85B"/>
<path d="M159.723 333.577C159.723 333.577 149.894 327.446 147.623 319.541C145.34 311.628 150.722 302.003 150.722 302.003C150.722 302.003 153.788 307.037 154.872 309.269C157.884 315.523 161.259 324.86 159.723 333.577Z" fill="#399349"/>
<path d="M145.774 367.17L144.493 366.346C144.616 366.163 156.411 348.016 158.979 333.436C160.486 324.921 157.197 315.769 154.182 309.581L155.533 308.975C158.648 315.355 162.031 324.833 160.459 333.732C157.852 348.594 145.897 366.987 145.774 367.17Z" fill="#2B6E37"/>
<path d="M151.862 310.782L157.677 314.313L156.914 315.563L151.1 312.032L151.862 310.782Z" fill="#2B6E37"/>
<path d="M161.798 317.335L159.968 321.891L158.562 321.31L160.393 316.753L161.798 317.335Z" fill="#2B6E37"/>
<path d="M154.87 322.064L160.323 325.247L159.584 326.512L154.131 323.329L154.87 322.064Z" fill="#2B6E37"/>
<path d="M153.84 352.348L153.052 351.065C155.368 349.731 157.852 348.29 160.467 346.773C169.553 341.502 178.739 339.619 184.856 338.975L185.061 340.446C179.093 341.075 170.126 342.915 161.267 348.064C158.652 349.581 156.156 351.014 153.84 352.348Z" fill="#2B6E37"/>
<path d="M185.494 343.258L184.875 344.586L178.178 341.412L178.797 340.083L185.494 343.258Z" fill="#2B6E37"/>
<path d="M175.415 338.418L173.984 342.309L172.565 341.767L173.996 337.876L175.415 338.418Z" fill="#2B6E37"/>
<path d="M175.748 346.747L175.126 348.074L167.763 344.566L168.385 343.24L175.748 346.747Z" fill="#2B6E37"/>
<path d="M156.776 332.383C153.777 330.06 148.507 325.344 146.893 319.711C144.564 311.603 149.828 302.029 150.055 301.636C150.15 301.471 150.312 301.344 150.503 301.286C150.695 301.227 150.916 301.27 151.088 301.369C158.703 305.766 163.209 311.107 164.504 317.232C166.411 326.313 160.581 333.735 160.33 334.047L159.136 333.103L159.73 333.565L159.136 333.103C159.193 333.035 164.802 325.875 163.034 317.465C161.867 311.972 157.832 307.123 151.041 303.033C149.919 305.31 146.523 312.988 148.348 319.351C149.839 324.557 154.851 329.023 157.692 331.222L156.776 332.383Z" fill="white"/>
<path d="M160.498 348.059C160.168 347.869 160.023 347.481 160.167 347.141C160.312 346.768 163.81 338 172.642 335.118C178.58 333.17 185.459 334.402 193.074 338.799C193.246 338.898 193.38 339.06 193.439 339.263C193.498 339.466 193.475 339.656 193.36 339.826C193.126 340.232 187.473 349.565 179.274 351.595C171.088 353.632 160.94 348.297 160.511 348.066L160.498 348.059ZM191.657 339.671C184.726 335.822 178.516 334.773 173.175 336.508C166.298 338.743 162.813 345.084 161.852 347.082C164.174 348.203 172.374 351.771 178.872 350.162C185.287 348.574 190.238 341.794 191.657 339.671Z" fill="white"/>
<path d="M145.774 367.17L144.493 366.346C144.616 366.163 156.411 348.016 158.979 333.436C160.486 324.921 157.197 315.769 154.182 309.581L155.533 308.975C158.648 315.355 162.031 324.833 160.459 333.732C157.852 348.594 145.897 366.987 145.774 367.17Z" fill="white"/>
<path d="M151.862 310.782L157.677 314.313L156.914 315.563L151.1 312.032L151.862 310.782Z" fill="white"/>
<path d="M161.798 317.335L159.968 321.891L158.562 321.31L160.393 316.753L161.798 317.335Z" fill="white"/>
<path d="M154.87 322.064L160.323 325.247L159.584 326.512L154.131 323.329L154.87 322.064Z" fill="white"/>
<path d="M153.84 352.348L153.052 351.065C155.368 349.731 157.852 348.29 160.467 346.773C169.553 341.502 178.739 339.619 184.856 338.975L185.061 340.446C179.093 341.075 170.126 342.915 161.267 348.064C158.652 349.581 156.156 351.014 153.84 352.348Z" fill="white"/>
<path d="M185.494 343.258L184.875 344.586L178.178 341.412L178.797 340.083L185.494 343.258Z" fill="white"/>
<path d="M175.415 338.418L173.984 342.309L172.565 341.767L173.996 337.876L175.415 338.418Z" fill="white"/>
<path d="M175.748 346.747L175.126 348.074L167.763 344.566L168.385 343.24L175.748 346.747Z" fill="white"/>
</g>
<g clip-path="url(#clip6)">
<path d="M254.008 409.798C254.008 409.798 250.643 394.537 269.244 394.339C269.244 394.339 269.603 401.709 265.769 405.584C261.934 409.459 254.008 409.798 254.008 409.798Z" fill="#47B85B"/>
<path d="M269.244 394.339C269.244 394.339 269.604 401.719 265.769 405.584C261.934 409.449 254.008 409.798 254.008 409.798C257.154 403.774 261.641 399.647 264.903 397.141C266.818 395.669 269.244 394.339 269.244 394.339Z" fill="#399349"/>
<path d="M248.094 402.213C248.094 402.213 249.536 386.9 230.935 387.098C230.935 387.098 231.503 394.466 235.819 398.254C240.136 402.043 248.094 402.213 248.094 402.213Z" fill="#47B85B"/>
<path d="M248.094 402.213C248.094 402.213 240.125 402.033 235.819 398.254C231.503 394.476 230.935 387.098 230.935 387.098C230.935 387.098 234.607 388.952 236.076 389.868C240.18 392.442 245.664 396.669 248.094 402.213Z" fill="#399349"/>
<path d="M252.851 426.314L251.803 426.276C251.804 426.129 251.678 411.657 247.613 402.385C245.244 396.968 239.879 392.818 235.799 390.283L236.344 389.473C240.555 392.085 246.096 396.39 248.575 402.051C252.725 411.499 252.853 426.167 252.851 426.314Z" fill="#2B6E37"/>
<path d="M234.923 391.765L239.601 391.816L239.639 392.796L234.961 392.745L234.923 391.765Z" fill="#2B6E37"/>
<path d="M243.114 392.152L243.794 395.4L242.767 395.544L242.087 392.296L243.114 392.152Z" fill="#2B6E37"/>
<path d="M240.935 397.237L245.273 397.211L245.329 398.191L240.991 398.217L240.935 397.237Z" fill="#2B6E37"/>
<path d="M251.848 415.028L250.909 414.558C251.731 413 252.609 411.323 253.533 409.558C256.744 403.425 261.3 399.209 264.565 396.752L265.241 397.53C262.056 399.927 257.609 404.043 254.483 410.029C253.559 411.794 252.671 413.47 251.848 415.028Z" fill="#2B6E37"/>
<path d="M266.558 399.002L266.708 399.978L261.659 400.433L261.51 399.456L266.558 399.002Z" fill="#2B6E37"/>
<path d="M258.936 399.65L259.593 402.38L258.572 402.551L257.915 399.822L258.936 399.65Z" fill="#2B6E37"/>
<path d="M262.291 404.334L262.439 405.31L256.881 405.8L256.734 404.824L262.291 404.334Z" fill="#2B6E37"/>
<path d="M245.949 402.53C243.346 402.214 238.53 401.295 235.464 398.601C231.048 394.726 230.431 387.418 230.412 387.114C230.404 386.986 230.449 386.858 230.536 386.759C230.624 386.66 230.768 386.61 230.903 386.608C236.943 386.544 241.558 388.084 244.628 391.169C249.172 395.749 248.645 402.011 248.62 402.276L247.576 402.14L248.093 402.203L247.576 402.14C247.583 402.081 248.082 396.045 243.873 391.805C241.116 389.04 236.959 387.623 231.508 387.583C231.73 389.277 232.698 394.856 236.162 397.898C238.996 400.388 243.568 401.251 246.033 401.548L245.949 402.53Z" fill="white"/>
<path d="M254.039 410.288C253.778 410.291 253.547 410.117 253.5 409.872C253.442 409.608 252.118 403.366 256.091 398.696C258.758 395.549 263.173 393.914 269.213 393.849C269.349 393.848 269.488 393.895 269.599 393.992C269.709 394.089 269.769 394.206 269.767 394.344C269.787 394.657 270.089 401.959 266.156 405.923C262.233 409.887 254.383 410.275 254.049 410.288L254.039 410.288ZM268.731 394.835C263.292 394.981 259.33 396.494 256.925 399.314C253.828 402.946 254.237 407.786 254.445 409.264C256.203 409.118 262.263 408.377 265.381 405.235C268.458 402.133 268.724 396.541 268.731 394.835Z" fill="white"/>
<path d="M252.851 426.314L251.803 426.276C251.804 426.129 251.678 411.657 247.613 402.385C245.244 396.968 239.879 392.818 235.799 390.283L236.344 389.473C240.555 392.085 246.096 396.39 248.575 402.051C252.725 411.499 252.853 426.167 252.851 426.314Z" fill="white"/>
<path d="M234.923 391.765L239.601 391.816L239.639 392.796L234.961 392.745L234.923 391.765Z" fill="white"/>
<path d="M243.114 392.152L243.794 395.4L242.767 395.544L242.087 392.296L243.114 392.152Z" fill="white"/>
<path d="M240.935 397.237L245.273 397.211L245.329 398.191L240.991 398.217L240.935 397.237Z" fill="white"/>
<path d="M251.848 415.028L250.909 414.558C251.731 413 252.609 411.323 253.533 409.558C256.744 403.425 261.3 399.209 264.565 396.752L265.241 397.53C262.056 399.927 257.609 404.043 254.483 410.029C253.559 411.794 252.671 413.47 251.848 415.028Z" fill="white"/>
<path d="M266.558 399.002L266.708 399.978L261.659 400.433L261.51 399.456L266.558 399.002Z" fill="white"/>
<path d="M258.936 399.65L259.593 402.38L258.572 402.551L257.915 399.822L258.936 399.65Z" fill="white"/>
<path d="M262.291 404.334L262.439 405.31L256.881 405.8L256.734 404.824L262.291 404.334Z" fill="white"/>
<path d="M254.008 409.798C254.008 409.798 250.643 394.537 269.244 394.339C269.244 394.339 269.603 401.709 265.769 405.584C261.934 409.459 254.008 409.798 254.008 409.798Z" fill="#47B85B"/>
<path d="M269.244 394.339C269.244 394.339 269.604 401.719 265.769 405.584C261.934 409.449 254.008 409.798 254.008 409.798C257.154 403.774 261.641 399.647 264.903 397.141C266.818 395.669 269.244 394.339 269.244 394.339Z" fill="#399349"/>
<path d="M248.094 402.213C248.094 402.213 249.536 386.9 230.935 387.098C230.935 387.098 231.503 394.466 235.819 398.254C240.136 402.043 248.094 402.213 248.094 402.213Z" fill="#47B85B"/>
<path d="M248.094 402.213C248.094 402.213 240.125 402.033 235.819 398.254C231.503 394.476 230.935 387.098 230.935 387.098C230.935 387.098 234.607 388.952 236.076 389.868C240.18 392.442 245.664 396.669 248.094 402.213Z" fill="#399349"/>
<path d="M252.851 426.314L251.803 426.276C251.804 426.129 251.678 411.657 247.613 402.385C245.244 396.968 239.879 392.818 235.799 390.283L236.344 389.473C240.555 392.085 246.096 396.39 248.575 402.051C252.725 411.499 252.853 426.167 252.851 426.314Z" fill="#2B6E37"/>
<path d="M234.923 391.765L239.601 391.816L239.639 392.796L234.961 392.745L234.923 391.765Z" fill="#2B6E37"/>
<path d="M243.114 392.152L243.794 395.4L242.767 395.544L242.087 392.296L243.114 392.152Z" fill="#2B6E37"/>
<path d="M240.935 397.237L245.273 397.211L245.329 398.191L240.991 398.217L240.935 397.237Z" fill="#2B6E37"/>
<path d="M251.848 415.028L250.909 414.558C251.731 413 252.609 411.323 253.533 409.558C256.744 403.425 261.3 399.209 264.565 396.752L265.241 397.53C262.056 399.927 257.609 404.043 254.483 410.029C253.559 411.794 252.671 413.47 251.848 415.028Z" fill="#2B6E37"/>
<path d="M266.558 399.002L266.708 399.978L261.659 400.433L261.51 399.456L266.558 399.002Z" fill="#2B6E37"/>
<path d="M258.936 399.65L259.593 402.38L258.572 402.551L257.915 399.822L258.936 399.65Z" fill="#2B6E37"/>
<path d="M262.291 404.334L262.439 405.31L256.881 405.8L256.734 404.824L262.291 404.334Z" fill="#2B6E37"/>
<path d="M245.949 402.53C243.346 402.214 238.53 401.295 235.464 398.601C231.048 394.726 230.431 387.418 230.412 387.114C230.404 386.986 230.449 386.858 230.536 386.759C230.624 386.66 230.768 386.61 230.903 386.608C236.943 386.544 241.558 388.084 244.628 391.169C249.172 395.749 248.645 402.011 248.62 402.276L247.576 402.14L248.093 402.203L247.576 402.14C247.583 402.081 248.082 396.045 243.873 391.805C241.116 389.04 236.959 387.623 231.508 387.583C231.73 389.277 232.698 394.856 236.162 397.898C238.996 400.388 243.568 401.251 246.033 401.548L245.949 402.53Z" fill="white"/>
<path d="M254.039 410.288C253.778 410.291 253.547 410.117 253.5 409.872C253.442 409.608 252.118 403.366 256.091 398.696C258.758 395.549 263.173 393.914 269.213 393.849C269.349 393.848 269.488 393.895 269.599 393.992C269.709 394.089 269.769 394.206 269.767 394.344C269.787 394.657 270.089 401.959 266.156 405.923C262.233 409.887 254.383 410.275 254.049 410.288L254.039 410.288ZM268.731 394.835C263.292 394.981 259.33 396.494 256.925 399.314C253.828 402.946 254.237 407.786 254.445 409.264C256.203 409.118 262.263 408.377 265.381 405.235C268.458 402.133 268.724 396.541 268.731 394.835Z" fill="white"/>
<path d="M252.851 426.314L251.803 426.276C251.804 426.129 251.678 411.657 247.613 402.385C245.244 396.968 239.879 392.818 235.799 390.283L236.344 389.473C240.555 392.085 246.096 396.39 248.575 402.051C252.725 411.499 252.853 426.167 252.851 426.314Z" fill="white"/>
<path d="M234.923 391.765L239.601 391.816L239.639 392.796L234.961 392.745L234.923 391.765Z" fill="white"/>
<path d="M243.114 392.152L243.794 395.4L242.767 395.544L242.087 392.296L243.114 392.152Z" fill="white"/>
<path d="M240.935 397.237L245.273 397.211L245.329 398.191L240.991 398.217L240.935 397.237Z" fill="white"/>
<path d="M251.848 415.028L250.909 414.558C251.731 413 252.609 411.323 253.533 409.558C256.744 403.425 261.3 399.209 264.565 396.752L265.241 397.53C262.056 399.927 257.609 404.043 254.483 410.029C253.559 411.794 252.671 413.47 251.848 415.028Z" fill="white"/>
<path d="M266.558 399.002L266.708 399.978L261.659 400.433L261.51 399.456L266.558 399.002Z" fill="white"/>
<path d="M258.936 399.65L259.593 402.38L258.572 402.551L257.915 399.822L258.936 399.65Z" fill="white"/>
<path d="M262.291 404.334L262.439 405.31L256.881 405.8L256.734 404.824L262.291 404.334Z" fill="white"/>
</g>
</g>
<path d="M941.11 197.641L985.83 163.834L988.118 143.366L991.422 120.569L941.113 24.442L940.256 22.8078C938.191 18.861 938.191 14.3978 940.256 12.835L941.967 11.5414C944.033 9.9813 947.381 11.9121 949.446 15.859L993.9 100.794L1070.03 20.627L1166.5 130.21L1152.1 151.587L1170.44 317.191L1075.74 370.999L969.62 308.866L975.767 253.872L950.3 215.203C947.763 217.12 943.648 214.744 941.11 209.896C938.575 205.046 938.575 199.561 941.11 197.641V197.641Z" fill="#1F4025"/>
<path d="M1075.74 193.95V371L969.621 308.867L988.12 143.366L1075.74 193.95Z" fill="#386B41"/>
<path d="M988.943 320.182L995.148 264.687L996.708 250.716L1008.88 257.744L1035.98 273.386L1040.57 276.039V350.411L988.943 320.182ZM1031.38 281.351L1004.29 265.709L997.633 325.219L1031.38 344.976V281.351Z" fill="#E6E6E6"/>
<path d="M1077.23 181.749L973.757 122.009L1070.03 20.6267L1166.5 130.21L1077.23 181.749Z" fill="#4D2419"/>
<path d="M973.756 122.009L1070.03 20.6267L1076.94 181.582L973.756 122.009Z" fill="#784032"/>
<path d="M1077.23 194.811L1173.14 139.44C1175.85 137.877 1176.77 134.417 1175.21 131.711C1173.65 129.006 1170.19 128.08 1167.48 129.64L1077.23 181.749L972.579 121.329C969.874 119.766 966.413 120.695 964.85 123.4C963.29 126.106 964.216 129.564 966.921 131.126L1077.23 194.811Z" fill="#E6E6E6"/>
<path d="M975.48 148.032L997.2 131.613L941.11 24.4417L919.39 40.8635L975.48 148.032Z" fill="#FFF5AE"/>
<path d="M1089.39 283.244L1111.11 266.825L1055.02 159.653L1033.3 176.072L1089.39 283.244Z" fill="#FFF5AE"/>
<path d="M1028.11 214.299L1006.39 172.799L950.301 215.203L972.019 256.701L1028.11 214.299Z" fill="#FFF5AE"/>
<path d="M1080.2 92.4965L1058.48 50.9956L1002.39 93.3973L1024.11 134.898L1080.2 92.4965Z" fill="#FFF5AE"/>
<path d="M941.11 197.642L1001.36 152.092C1000.87 149.837 1000.59 147.574 1000.59 145.385C1000.59 143.193 1000.87 141.246 1001.36 139.568L940.254 22.8078C938.188 18.861 938.188 14.3978 940.254 12.835L941.967 11.5414C944.033 9.9813 947.378 11.9121 949.444 15.859L1010.56 132.622C1012.03 132.806 1013.61 133.352 1015.25 134.3C1016.89 135.25 1018.47 136.527 1019.95 138.043L1080.2 92.4914C1082.74 90.5742 1086.86 92.95 1089.39 97.7978C1091.93 102.648 1091.93 108.133 1089.39 110.053L1029.14 155.602C1029.64 157.857 1029.91 160.12 1029.91 162.309C1029.91 164.501 1029.64 166.449 1029.14 168.127L1090.25 284.887C1092.31 288.834 1092.31 293.297 1090.25 294.86L1088.54 296.153C1086.47 297.713 1083.12 295.782 1081.06 291.836L1019.95 175.076C1018.47 174.889 1016.9 174.342 1015.25 173.395C1013.61 172.444 1012.03 171.17 1010.56 169.651L950.303 215.203C947.765 217.12 943.651 214.744 941.113 209.897C938.575 205.046 938.575 199.561 941.11 197.642V197.642Z" fill="#F06C00"/>
<path d="M1000.59 150.177C1000.59 157.296 1004.92 165.569 1010.26 168.653C1015.6 171.735 1019.93 168.463 1019.93 161.342C1019.93 154.222 1015.6 145.95 1010.26 142.868C1004.92 139.784 1000.59 143.055 1000.59 150.177Z" fill="#FF8E1D"/>
<path d="M1031.38 281.351L1004.29 265.709L997.633 325.22L1031.38 344.976V281.351Z" fill="#1F4025"/>
<path d="M1132.46 227.782L1115.53 238.208L1113.77 216.192C1113.29 210.149 1116.02 204.562 1120.94 201.536C1124.93 199.075 1130.41 202.135 1130.8 207.043L1132.46 227.782Z" fill="#2C92BF"/>
<path d="M1142 297.658L1125.07 308.086L1123.32 286.067C1122.83 280.027 1125.57 274.441 1130.48 271.411C1134.47 268.953 1139.95 272.013 1140.35 276.921L1142 297.658Z" fill="#2C92BF"/>
<path d="M520.963 241.579C520.963 241.579 514.169 240.655 507.581 243.854C500.995 247.052 499.623 249.894 499.623 249.894C499.623 249.894 503.73 254.958 512.591 253.306C521.453 251.654 526.038 242.919 526.038 242.919C526.038 242.919 524.031 233.748 519.839 230.658C515.907 227.761 510.669 228.147 510.669 228.147C510.669 228.147 509.845 233.264 512.83 237.813C515.101 241.271 520.963 241.579 520.963 241.579Z" fill="#BF0025"/>
<path d="M554.814 429.76C553.542 426.181 550.335 423.4 549.49 422.703C548.068 421.53 538.609 416.242 538.609 416.242L513.358 426.262V429.743C513.358 431.245 514.142 432.636 515.423 433.4L532.532 443.424C538.422 446.859 545.678 446.859 551.567 443.424C553.608 442.233 554.842 440.341 555.288 438.3L555.299 438.296C555.299 438.298 556.285 433.901 554.814 429.76V429.76Z" fill="#41474F"/>
<path d="M592.871 407.441C591.631 403.863 588.504 401.082 587.682 400.384C586.294 399.212 577.072 393.924 577.072 393.924L552.453 403.944V407.425C552.453 408.928 553.219 410.318 554.466 411.082L571.149 421.106C576.891 424.54 583.965 424.54 589.705 421.106C591.697 419.915 592.9 418.023 593.335 415.982L593.344 415.978C593.346 415.98 594.307 411.583 592.871 407.441Z" fill="#41474F"/>
<path d="M599.381 304.65C599.381 304.65 600.775 312.591 599.381 318.754C597.986 324.914 588.87 326.969 588.87 326.969L584.151 308.997L599.381 304.65Z" fill="#F8DB8F"/>
<path d="M569.358 253.637C569.358 253.637 582.387 254 590.059 273.71C597.732 293.419 598.943 304.182 598.943 304.182C598.943 304.182 593.828 309.359 587.637 310.993C581.444 312.628 569.358 253.637 569.358 253.637Z" fill="#236418"/>
<path d="M568.492 253.637C568.492 253.637 579.773 255.946 584.186 274.051C588.6 292.155 591.774 323 589.979 348.685C587.772 380.274 583.96 398.243 583.96 398.243C583.96 398.243 581.453 405.491 572.704 408.693C565.564 411.307 551.771 408.396 551.771 404.084V388.309L549.704 389.799L546.806 420.94C546.806 420.94 546.876 425.823 541.703 428.836C531.2 434.955 514.944 431.608 513.427 427.356C510.939 420.387 504.047 360.045 504.047 344.667C504.047 329.286 502.634 292.191 507.357 284.396C516.046 270.056 568.492 253.637 568.492 253.637Z" fill="#2E86AD"/>
<path d="M573.585 289.826C573.585 289.826 573.585 285.272 572.283 276.989C570.983 268.709 568.12 257.943 568.12 257.943C567.339 256.242 566.434 254.821 565.437 253.637C557.478 256.267 533.595 264.526 518.642 273.636C521.258 275.339 524.596 278.181 528.04 282.891C535.602 293.237 536.695 307.839 536.695 307.839L573.585 289.826Z" fill="#2C7420"/>
<path d="M489.067 356.462C489.067 356.462 488.365 369.951 498.628 370.522C511.851 371.256 511.241 352.475 511.241 352.475L489.067 356.462Z" fill="#F8DB8F"/>
<path d="M573.926 260.57C574.864 257.838 573.989 255.726 573.926 254.375C573.863 253.024 574.656 248.691 574.446 245.892C574.238 243.094 572.607 240.78 572.607 240.78C572.583 234.843 572.258 230.451 572.258 230.451C571.918 217.602 562.458 204.749 542.232 210.347C522.008 215.942 520.549 241.436 520.549 241.436L518.648 254.7L518.652 254.698C516.892 257.709 517.553 264.233 518.88 265.686C522.425 269.572 526.682 268.889 527.714 268.648C527.913 269.5 528.264 270.314 528.889 270.971C530.66 272.837 534.413 271.801 535.665 273.195C536.916 274.587 536.603 275.428 539.001 277.501C541.399 279.574 544.11 278.744 546.907 279.055C549.706 279.365 548.175 281.127 550.676 282.683C553.179 284.237 556.62 281.957 557.453 283.615C558.288 285.273 561.206 286.31 564.334 284.756C567.462 283.2 567.565 277.916 569.338 276.258C571.11 274.6 570.901 273.874 571.53 271.26C572.159 268.648 573.716 268.898 574.481 265.893C575.245 262.888 572.988 263.302 573.926 260.57Z" fill="#F8DB8F"/>
<path d="M512.084 339.935C512.084 339.935 524.714 332.797 523.885 315.791C523.056 298.785 512.275 278.372 507.439 282.997C493.451 296.371 488.897 320.411 488.276 330.908C487.655 341.405 488.276 357.152 488.276 357.152C488.276 357.152 493.122 359.071 498.627 358.831C504.132 358.591 510.843 353.163 510.843 353.163L512.084 339.935Z" fill="#2C7420"/>
<path d="M540.83 326.854L575.698 306.776V333.944C575.698 345.268 569.641 355.731 559.809 361.394C551.375 366.251 540.83 360.179 540.83 350.463V326.854Z" fill="#3A4E6B"/>
<g clip-path="url(#clip7)">
<path d="M557.578 341.794C557.578 341.794 558.616 331.459 547.043 332.529C547.043 332.529 547.329 337.438 549.979 339.759C552.63 342.081 557.578 341.794 557.578 341.794Z" fill="#47B85B"/>
<path d="M547.044 332.529C547.044 332.529 547.33 337.445 549.98 339.759C552.63 342.074 557.579 341.793 557.579 341.793C555.209 338.002 552.135 335.556 549.935 334.106C548.643 333.254 547.044 332.529 547.044 332.529Z" fill="#399349"/>
<path d="M560.731 336.382C560.731 336.382 558.778 326.324 570.351 325.254C570.351 325.254 570.506 330.175 568.085 332.965C565.665 335.755 560.731 336.382 560.731 336.382Z" fill="#47B85B"/>
<path d="M560.731 336.382C560.731 336.382 565.671 335.748 568.085 332.965C570.507 330.182 570.351 325.254 570.351 325.254C570.351 325.254 568.197 326.72 567.347 327.422C564.974 329.394 561.858 332.55 560.731 336.382Z" fill="#399349"/>
<path d="M559.438 352.668L560.087 352.575C560.076 352.477 559.155 342.875 561.041 336.465C562.14 332.721 565.187 329.623 567.548 327.679L567.153 327.177C564.716 329.181 561.57 332.393 560.421 336.306C558.494 342.838 559.427 352.57 559.438 352.668Z" fill="#2B6E37"/>
<path d="M568.194 328.605L565.291 328.941L565.335 329.593L568.238 329.257L568.194 328.605Z" fill="#2B6E37"/>
<path d="M563.131 329.39L562.932 331.588L563.581 331.617L563.779 329.42L563.131 329.39Z" fill="#2B6E37"/>
<path d="M564.836 332.621L562.138 332.884L562.171 333.538L564.868 333.275L564.836 332.621Z" fill="#2B6E37"/>
<path d="M559.282 345.121L559.833 344.748C559.215 343.769 558.554 342.714 557.858 341.604C555.438 337.745 552.317 335.244 550.118 333.826L549.751 334.385C551.896 335.769 554.944 338.211 557.3 341.977C557.996 343.087 558.664 344.141 559.282 345.121Z" fill="#2B6E37"/>
<path d="M549.035 335.446L549.009 336.103L552.178 336.078L552.203 335.422L549.035 335.446Z" fill="#2B6E37"/>
<path d="M553.816 335.384L553.596 337.236L554.242 337.284L554.462 335.432L553.816 335.384Z" fill="#2B6E37"/>
<path d="M552.054 338.705L552.03 339.362L555.517 339.328L555.541 338.671L552.054 338.705Z" fill="#2B6E37"/>
<path d="M562.085 336.454C563.681 336.076 566.61 335.156 568.329 333.172C570.806 330.318 570.684 325.432 570.675 325.23C570.671 325.145 570.635 325.063 570.574 325.003C570.512 324.943 570.42 324.919 570.335 324.927C566.577 325.274 563.816 326.593 562.122 328.837C559.614 332.167 560.373 336.284 560.407 336.458L561.047 336.3L560.73 336.376L561.047 336.3C561.038 336.262 560.312 332.293 562.634 329.209C564.157 327.198 566.642 325.99 570.026 325.611C570.006 326.749 569.789 330.51 567.847 332.751C566.258 334.584 563.476 335.452 561.965 335.809L562.085 336.454Z" fill="white"/>
<path d="M557.593 342.12C557.755 342.105 557.887 341.975 557.899 341.81C557.917 341.631 558.308 337.407 555.517 334.567C553.642 332.654 550.786 331.854 547.028 332.202C546.944 332.21 546.861 332.25 546.799 332.322C546.737 332.393 546.708 332.475 546.718 332.566C546.728 332.775 547.044 337.635 549.762 340.009C552.473 342.384 557.378 342.133 557.586 342.121L557.593 342.12ZM547.396 332.824C550.786 332.57 553.352 333.317 555.042 335.031C557.217 337.239 557.297 340.474 557.27 341.467C556.167 341.484 552.35 341.384 550.196 339.503C548.069 337.645 547.518 333.955 547.396 332.824Z" fill="white"/>
<path d="M559.438 352.668L560.087 352.575C560.076 352.477 559.155 342.875 561.041 336.465C562.14 332.721 565.187 329.623 567.548 327.679L567.153 327.177C564.716 329.181 561.57 332.393 560.421 336.306C558.494 342.838 559.427 352.57 559.438 352.668Z" fill="white"/>
<path d="M568.194 328.605L565.291 328.941L565.335 329.593L568.238 329.257L568.194 328.605Z" fill="white"/>
<path d="M563.131 329.39L562.932 331.588L563.581 331.617L563.779 329.42L563.131 329.39Z" fill="white"/>
<path d="M564.836 332.621L562.138 332.884L562.171 333.538L564.868 333.275L564.836 332.621Z" fill="white"/>
<path d="M559.282 345.121L559.833 344.748C559.215 343.769 558.554 342.714 557.858 341.604C555.438 337.745 552.317 335.244 550.118 333.826L549.751 334.385C551.896 335.769 554.944 338.211 557.3 341.977C557.996 343.087 558.664 344.141 559.282 345.121Z" fill="white"/>
<path d="M549.035 335.446L549.009 336.103L552.178 336.078L552.203 335.422L549.035 335.446Z" fill="white"/>
<path d="M553.816 335.384L553.596 337.236L554.242 337.284L554.462 335.432L553.816 335.384Z" fill="white"/>
<path d="M552.054 338.705L552.03 339.362L555.517 339.328L555.541 338.671L552.054 338.705Z" fill="white"/>
<path d="M557.578 341.794C557.578 341.794 558.616 331.459 547.043 332.529C547.043 332.529 547.329 337.438 549.979 339.759C552.63 342.081 557.578 341.794 557.578 341.794Z" fill="#47B85B"/>
<path d="M547.044 332.529C547.044 332.529 547.33 337.445 549.98 339.759C552.63 342.074 557.579 341.793 557.579 341.793C555.209 338.002 552.135 335.556 549.935 334.106C548.643 333.254 547.044 332.529 547.044 332.529Z" fill="#399349"/>
<path d="M560.731 336.382C560.731 336.382 558.778 326.324 570.351 325.254C570.351 325.254 570.506 330.175 568.085 332.965C565.665 335.755 560.731 336.382 560.731 336.382Z" fill="#47B85B"/>
<path d="M560.731 336.382C560.731 336.382 565.671 335.748 568.085 332.965C570.507 330.182 570.351 325.254 570.351 325.254C570.351 325.254 568.197 326.72 567.347 327.422C564.974 329.394 561.858 332.55 560.731 336.382Z" fill="#399349"/>
<path d="M559.438 352.668L560.087 352.575C560.076 352.477 559.155 342.875 561.041 336.465C562.14 332.721 565.187 329.623 567.548 327.679L567.153 327.177C564.716 329.181 561.57 332.393 560.421 336.306C558.494 342.838 559.427 352.57 559.438 352.668Z" fill="#2B6E37"/>
<path d="M568.194 328.605L565.291 328.941L565.335 329.593L568.238 329.257L568.194 328.605Z" fill="#2B6E37"/>
<path d="M563.131 329.39L562.932 331.588L563.581 331.617L563.779 329.42L563.131 329.39Z" fill="#2B6E37"/>
<path d="M564.836 332.621L562.138 332.884L562.171 333.538L564.868 333.275L564.836 332.621Z" fill="#2B6E37"/>
<path d="M559.282 345.121L559.833 344.748C559.215 343.769 558.554 342.714 557.858 341.604C555.438 337.745 552.317 335.244 550.118 333.826L549.751 334.385C551.896 335.769 554.944 338.211 557.3 341.977C557.996 343.087 558.664 344.141 559.282 345.121Z" fill="#2B6E37"/>
<path d="M549.035 335.446L549.009 336.103L552.178 336.078L552.203 335.422L549.035 335.446Z" fill="#2B6E37"/>
<path d="M553.816 335.384L553.596 337.236L554.242 337.284L554.462 335.432L553.816 335.384Z" fill="#2B6E37"/>
<path d="M552.054 338.705L552.03 339.362L555.517 339.328L555.541 338.671L552.054 338.705Z" fill="#2B6E37"/>
<path d="M562.085 336.454C563.681 336.076 566.61 335.156 568.329 333.172C570.806 330.318 570.684 325.432 570.675 325.23C570.671 325.145 570.635 325.063 570.574 325.003C570.512 324.943 570.42 324.919 570.335 324.927C566.577 325.274 563.816 326.593 562.122 328.837C559.614 332.167 560.373 336.284 560.407 336.458L561.047 336.3L560.73 336.376L561.047 336.3C561.038 336.262 560.312 332.293 562.634 329.209C564.157 327.198 566.642 325.99 570.026 325.611C570.006 326.749 569.789 330.51 567.847 332.751C566.258 334.584 563.476 335.452 561.965 335.809L562.085 336.454Z" fill="white"/>
<path d="M557.593 342.12C557.755 342.105 557.887 341.975 557.899 341.81C557.917 341.631 558.308 337.407 555.517 334.567C553.642 332.654 550.786 331.854 547.028 332.202C546.944 332.21 546.861 332.25 546.799 332.322C546.737 332.393 546.708 332.475 546.718 332.566C546.728 332.775 547.044 337.635 549.762 340.009C552.473 342.384 557.378 342.133 557.586 342.121L557.593 342.12ZM547.396 332.824C550.786 332.57 553.352 333.317 555.042 335.031C557.217 337.239 557.297 340.474 557.27 341.467C556.167 341.484 552.35 341.384 550.196 339.503C548.069 337.645 547.518 333.955 547.396 332.824Z" fill="white"/>
<path d="M559.438 352.668L560.087 352.575C560.076 352.477 559.155 342.875 561.041 336.465C562.14 332.721 565.187 329.623 567.548 327.679L567.153 327.177C564.716 329.181 561.57 332.393 560.421 336.306C558.494 342.838 559.427 352.57 559.438 352.668Z" fill="white"/>
<path d="M568.194 328.605L565.291 328.941L565.335 329.593L568.238 329.257L568.194 328.605Z" fill="white"/>
<path d="M563.131 329.39L562.932 331.588L563.581 331.617L563.779 329.42L563.131 329.39Z" fill="white"/>
<path d="M564.836 332.621L562.138 332.884L562.171 333.538L564.868 333.275L564.836 332.621Z" fill="white"/>
<path d="M559.282 345.121L559.833 344.748C559.215 343.769 558.554 342.714 557.858 341.604C555.438 337.745 552.317 335.244 550.118 333.826L549.751 334.385C551.896 335.769 554.944 338.211 557.3 341.977C557.996 343.087 558.664 344.141 559.282 345.121Z" fill="white"/>
<path d="M549.035 335.446L549.009 336.103L552.178 336.078L552.203 335.422L549.035 335.446Z" fill="white"/>
<path d="M553.816 335.384L553.596 337.236L554.242 337.284L554.462 335.432L553.816 335.384Z" fill="white"/>
<path d="M552.054 338.705L552.03 339.362L555.517 339.328L555.541 338.671L552.054 338.705Z" fill="white"/>
</g>
<path d="M556.65 237.727C563.648 234.853 568.779 231.428 572.528 228.119C571.096 216.075 561.552 205.081 542.544 210.357C522.22 215.999 520.755 241.696 520.755 241.696C520.755 241.696 535.281 246.501 556.65 237.727Z" fill="#EA2642"/>
<path d="M574.216 260.865C575.154 258.117 574.279 255.992 574.216 254.634C574.152 253.275 574.946 248.918 574.736 246.103C574.528 243.288 572.896 240.961 572.896 240.961L538.404 260.865L529.28 255.6C529.544 253.161 530.003 249.129 530.419 246.668C530.646 245.323 531.093 244.031 531.57 242.929C524.774 242.927 520.826 241.621 520.826 241.621L518.925 254.961C518.925 254.961 523.093 252.357 526.249 256.943C527.631 258.955 527.604 262.988 527.707 264.655C527.812 266.324 527.395 269.45 529.168 271.327C530.941 273.202 534.695 272.16 535.946 273.562C537.197 274.963 536.884 275.809 539.282 277.892C541.681 279.977 544.392 279.144 547.192 279.456C549.99 279.769 548.459 281.54 550.962 283.104C553.464 284.667 556.905 282.374 557.739 284.042C558.574 285.709 561.493 286.752 564.622 285.189C567.75 283.626 567.855 278.309 569.626 276.642C571.4 274.974 571.192 274.244 571.819 271.616C572.448 268.989 574.006 269.242 574.772 266.22C575.537 263.197 573.278 263.613 574.216 260.865Z" fill="#162F4D"/>
<path d="M567.782 238.444C567.782 239.618 567.066 240.984 566.184 241.491C565.302 242.001 564.588 241.461 564.588 240.284C564.588 239.11 565.302 237.744 566.184 237.237C567.066 236.727 567.782 237.267 567.782 238.444Z" fill="#162F4D"/>
<path d="M553.429 246.552C553.429 247.726 552.715 249.092 551.833 249.602C550.951 250.109 550.235 249.569 550.235 248.395C550.235 247.219 550.951 245.853 551.833 245.345C552.715 244.836 553.429 245.376 553.429 246.552Z" fill="#162F4D"/>
<path d="M559.203 254.19L566.074 250.629C567.064 250.116 568.302 250.757 568.302 251.785V253.408C568.302 255.028 567.339 256.524 565.777 257.335L558.908 260.896C557.918 261.409 556.68 260.767 556.68 259.74V258.117C556.68 256.497 557.642 255 559.203 254.19Z" fill="#F8DB8F"/>
<path d="M523.886 315.735C523.446 306.57 520.127 296.416 516.427 289.771C518.148 297.331 516.495 307.749 515.553 315.318C514.334 325.123 512.302 339.722 512.302 339.722C512.302 339.722 524.7 332.63 523.886 315.735Z" fill="#236418"/>
<path d="M788.033 268.595C788.033 268.595 797.852 274.397 801.227 289.704C804.15 302.957 801.227 312.779 801.227 312.779L768.263 294.112C768.263 294.112 771.228 267.283 788.033 268.595Z" fill="#BD4B1E"/>
<path d="M736.804 241.491C736.804 241.491 733.366 231.189 743.037 225.443C750.238 221.165 765.099 216.813 780.698 228.679C794.477 239.162 793.432 266.705 786.522 273.313C779.614 279.921 736.804 241.491 736.804 241.491Z" fill="#EF5F26"/>
<path d="M760.14 435.913C761.271 432.589 764.122 430.005 764.873 429.358C766.138 428.268 774.549 423.356 774.549 423.356L797 431.444V435.899C797 437.294 796.302 438.586 795.164 439.296L779.951 448.607C774.714 451.798 768.264 451.798 763.027 448.607C761.211 447.502 760.114 445.744 759.717 443.847L759.709 443.844C759.709 443.844 758.832 439.762 760.14 435.913Z" fill="#693107"/>
<path d="M720.372 418.22C721.536 414.897 724.471 412.312 725.244 411.665C726.545 410.576 735.204 405.664 735.204 405.664L758.315 413.752V418.206C758.315 419.601 757.597 420.893 756.424 421.603L740.764 430.914C735.374 434.106 728.733 434.106 723.342 430.914C721.475 429.808 720.345 428.052 719.935 426.156L719.926 426.152C719.926 426.152 719.025 422.069 720.372 418.22Z" fill="#693107"/>
<path d="M713.077 339.317C713.077 339.317 712.258 349.954 715.948 357.867C719.637 365.78 727.368 361.245 727.368 361.245L726.403 340.791L713.077 339.317Z" fill="#F8DB8F"/>
<path d="M735.105 271.865C735.105 271.865 724.678 276.649 718.838 289.988C713 303.329 713 339.696 713 339.696L728.145 347.058L735.105 271.865Z" fill="#1CA0AA"/>
<path d="M734.843 271.456C734.843 271.456 749.725 267.622 768.699 277.949C787.671 288.274 798.821 295.264 802.822 302.568C806.82 309.872 806.294 361.502 804.42 373.45C802.287 387.045 798.289 398.34 798.289 398.34L797.223 431.887C797.223 431.887 789.113 439.095 777.229 437.5C765.633 435.947 763.899 430.536 763.899 430.536V402.67L757.874 399.139V414.254C757.874 414.254 747.225 421.687 738.753 419.209C727.994 416.061 727.398 410.671 727.398 410.671C727.398 410.671 725.045 372.03 725.045 357.421C725.045 342.811 719.446 289.784 734.843 271.456Z" fill="#8F5BFD"/>
<path d="M768.238 278.663C776.257 282.96 782.877 286.669 788.158 290.065C784.333 292.295 780.263 295.925 777.792 300.02C772.22 309.245 772.234 323.837 772.234 323.837L735.106 302.421C735.106 302.421 737.201 281.693 746.892 271.865C752.686 272.496 760.083 274.293 768.238 278.663Z" fill="#1FC7D4"/>
<path d="M737.565 241.123C737.565 241.123 736.117 270.83 740.202 279.299C742.136 283.308 746.231 285.589 750.165 286.736C756.622 288.617 769.192 285.91 774.728 281.878C777.99 279.502 778.813 278.425 778.813 278.425C778.813 278.425 782.272 280.845 784.841 279.03C787.411 277.214 788.872 272.922 787.807 269.452C786.621 265.588 785.337 265.184 784.216 264.78C783.096 264.378 781.252 266.125 781.252 266.125C781.252 266.125 766.361 261.487 757.466 253.019C748.569 244.548 744.122 235.375 744.122 235.375L737.565 241.123Z" fill="#F8DB8F"/>
<path d="M768.263 340.306L732.894 319.414V347.68C732.894 359.463 739.039 370.349 749.012 376.241C757.567 381.295 768.263 374.977 768.263 364.868V340.306Z" fill="#553499"/>
<path d="M799.728 298.404C801.019 299.802 802.045 301.185 802.811 302.58C805.602 307.672 806.197 334.267 805.666 354.012C800.741 355.523 795.182 354.989 791.173 351.247C783.55 344.129 781.744 329.489 785.956 313.832C789.772 299.652 798.176 298.496 799.728 298.404Z" fill="#1CA0AA"/>
<path d="M816.895 380.463C816.895 380.463 815.478 393.825 808.541 395.387C801.555 396.957 797.488 392.458 796.392 389.97C795.297 387.484 796.351 374.702 796.351 374.702L816.895 380.463Z" fill="#F8DB8F"/>
<path d="M799.423 298.404C799.423 298.404 812.124 310.483 816.399 335.769C820.001 357.076 816.399 380.155 816.399 380.155C816.399 380.155 811.098 380.697 804.791 378.878C797.251 376.701 796.036 374.238 796.036 374.238C796.036 374.238 795.628 348.413 793.592 331.062C791.556 313.711 788.151 300.852 799.423 298.404Z" fill="#1FC7D4"/>
<path d="M740.176 251.878C740.176 253.452 741.13 255.28 742.303 255.962C743.478 256.645 744.43 255.92 744.43 254.347C744.43 252.771 743.478 250.943 742.303 250.261C741.13 249.58 740.176 250.303 740.176 251.878Z" fill="#162F4D"/>
<path d="M755.037 260.471C755.037 262.046 755.988 263.874 757.161 264.555C758.337 265.237 759.288 264.514 759.288 262.939C759.288 261.365 758.337 259.537 757.161 258.855C755.988 258.173 755.037 258.897 755.037 260.471Z" fill="#162F4D"/>
<g clip-path="url(#clip8)">
<path fill-rule="evenodd" clip-rule="evenodd" d="M745.423 339.894C745.4 338.082 746.916 336.662 748.54 336.929C749.976 337.165 750.952 338.647 750.696 340.205L750.117 343.726C750.492 343.788 750.878 343.782 751.252 343.843C751.627 343.905 751.939 343.956 752.303 344.086L752.882 340.564C753.138 339.007 754.536 337.915 755.972 338.152C757.596 338.419 758.578 340.25 758.039 341.969L756.673 345.987C758.92 347.539 760.46 349.879 760.048 352.384L759.792 353.942C759.447 356.041 757.909 357.596 755.908 358.449C753.897 359.37 751.412 359.657 748.726 359.215C746.04 358.774 743.778 357.706 742.167 356.189C740.608 354.75 739.648 352.784 739.993 350.685L740.249 349.127C740.661 346.622 742.806 344.888 745.431 344.138L745.423 339.894ZM755.647 346.375L757.261 341.632C757.648 340.444 757.026 339.16 755.839 338.964C754.84 338.8 753.883 339.547 753.705 340.63L752.97 345.1C752.732 344.991 752.419 344.939 752.17 344.898C751.795 344.837 751.494 344.718 751.119 344.656C750.744 344.594 750.369 344.533 749.983 344.539C749.734 344.498 749.41 344.514 749.16 344.473L749.884 340.071C750.062 338.988 749.395 337.974 748.395 337.81C747.271 337.625 746.207 338.632 746.257 339.892L746.268 344.901C743.466 345.553 741.406 347.162 741.05 349.329L740.794 350.886C740.248 354.204 743.863 357.581 748.86 358.403C753.856 359.225 758.361 357.184 758.907 353.866L759.163 352.308C759.592 350.084 758.155 347.9 755.647 346.375Z" fill="#633001"/>
<path d="M758.98 353.808C758.435 357.126 753.93 359.167 748.933 358.345C743.936 357.523 740.322 354.147 740.867 350.829L741.123 349.271L759.298 352.261L759.042 353.818L758.98 353.808Z" fill="#FEDC90"/>
<path fill-rule="evenodd" clip-rule="evenodd" d="M746.257 339.892C746.207 338.632 747.271 337.625 748.395 337.81C749.394 337.974 750.062 338.988 749.884 340.071L749.149 344.541C749.785 344.576 750.42 344.611 751.107 344.724C751.732 344.826 752.346 344.997 752.959 345.167L753.693 340.698C753.872 339.615 754.828 338.868 755.827 339.032C756.952 339.217 757.637 340.512 757.249 341.7L755.636 346.442C758.081 347.957 759.581 350.151 759.225 352.318C758.68 355.636 754.175 357.677 749.178 356.856C744.181 356.034 740.567 352.657 741.112 349.339C741.468 347.172 743.528 345.563 746.33 344.912L746.257 339.892Z" fill="#D1884F"/>
<path d="M747.686 349.933C747.541 350.814 746.981 351.487 746.419 351.394C745.857 351.302 745.542 350.485 745.687 349.604C745.832 348.724 746.391 348.051 746.953 348.144C747.516 348.236 747.83 349.053 747.686 349.933Z" fill="#633001"/>
<path d="M754.618 351.074C754.474 351.954 753.914 352.627 753.352 352.534C752.79 352.442 752.475 351.625 752.62 350.745C752.764 349.865 753.324 349.192 753.886 349.284C754.448 349.376 754.763 350.193 754.618 351.074Z" fill="#633001"/>
</g>
<path d="M788.033 268.595C788.033 268.595 797.852 274.397 801.227 289.704C804.15 302.957 801.227 312.779 801.227 312.779L768.263 294.112C768.263 294.112 771.228 267.283 788.033 268.595Z" fill="#BD4B1E"/>
<path d="M736.804 241.491C736.804 241.491 733.366 231.189 743.037 225.443C750.238 221.165 765.099 216.813 780.698 228.679C794.477 239.162 793.432 266.705 786.522 273.313C779.614 279.921 736.804 241.491 736.804 241.491Z" fill="#EF5F26"/>
<path d="M760.14 435.913C761.271 432.589 764.122 430.005 764.873 429.358C766.138 428.268 774.549 423.356 774.549 423.356L797 431.444V435.899C797 437.294 796.302 438.586 795.164 439.296L779.951 448.607C774.714 451.798 768.264 451.798 763.027 448.607C761.211 447.502 760.114 445.744 759.717 443.847L759.709 443.844C759.709 443.844 758.832 439.762 760.14 435.913Z" fill="#693107"/>
<path d="M720.372 418.22C721.536 414.897 724.471 412.312 725.244 411.665C726.545 410.576 735.204 405.664 735.204 405.664L758.315 413.752V418.206C758.315 419.601 757.597 420.893 756.424 421.603L740.764 430.914C735.374 434.106 728.733 434.106 723.342 430.914C721.475 429.808 720.345 428.052 719.935 426.156L719.926 426.152C719.926 426.152 719.025 422.069 720.372 418.22Z" fill="#693107"/>
<path d="M713.077 339.317C713.077 339.317 712.258 349.954 715.948 357.867C719.637 365.78 727.368 361.245 727.368 361.245L726.403 340.791L713.077 339.317Z" fill="#F8DB8F"/>
<path d="M735.105 271.865C735.105 271.865 724.678 276.649 718.838 289.988C713 303.329 713 339.696 713 339.696L728.145 347.058L735.105 271.865Z" fill="#1CA0AA"/>
<path d="M734.843 271.456C734.843 271.456 749.725 267.622 768.699 277.949C787.671 288.274 798.821 295.264 802.822 302.568C806.82 309.872 806.294 361.502 804.42 373.45C802.287 387.045 798.289 398.34 798.289 398.34L797.223 431.887C797.223 431.887 789.113 439.095 777.229 437.5C765.633 435.947 763.899 430.536 763.899 430.536V402.67L757.874 399.139V414.254C757.874 414.254 747.225 421.687 738.753 419.209C727.994 416.061 727.398 410.671 727.398 410.671C727.398 410.671 725.045 372.03 725.045 357.421C725.045 342.811 719.446 289.784 734.843 271.456Z" fill="#8F5BFD"/>
<path d="M768.238 278.663C776.257 282.96 782.877 286.669 788.158 290.065C784.333 292.295 780.263 295.925 777.792 300.02C772.22 309.245 772.234 323.837 772.234 323.837L735.106 302.421C735.106 302.421 737.201 281.693 746.892 271.865C752.686 272.496 760.083 274.293 768.238 278.663Z" fill="#1FC7D4"/>
<path d="M737.565 241.123C737.565 241.123 736.117 270.83 740.202 279.299C742.136 283.308 746.231 285.589 750.165 286.736C756.622 288.617 769.192 285.91 774.728 281.878C777.99 279.502 778.813 278.425 778.813 278.425C778.813 278.425 782.272 280.845 784.841 279.03C787.411 277.214 788.872 272.922 787.807 269.452C786.621 265.588 785.337 265.184 784.216 264.78C783.096 264.378 781.252 266.125 781.252 266.125C781.252 266.125 766.361 261.487 757.466 253.019C748.569 244.548 744.122 235.375 744.122 235.375L737.565 241.123Z" fill="#F8DB8F"/>
<path d="M768.263 340.306L732.894 319.414V347.68C732.894 359.463 739.039 370.349 749.012 376.241C757.567 381.295 768.263 374.977 768.263 364.868V340.306Z" fill="#553499"/>
<path d="M799.728 298.404C801.019 299.802 802.045 301.185 802.811 302.58C805.602 307.672 806.197 334.267 805.666 354.012C800.741 355.523 795.182 354.989 791.173 351.247C783.55 344.129 781.744 329.489 785.956 313.832C789.772 299.652 798.176 298.496 799.728 298.404Z" fill="#1CA0AA"/>
<path d="M816.895 380.463C816.895 380.463 815.478 393.825 808.541 395.387C801.555 396.957 797.488 392.458 796.392 389.97C795.297 387.484 796.351 374.702 796.351 374.702L816.895 380.463Z" fill="#F8DB8F"/>
<path d="M799.423 298.404C799.423 298.404 812.124 310.483 816.399 335.769C820.001 357.076 816.399 380.155 816.399 380.155C816.399 380.155 811.098 380.697 804.791 378.878C797.251 376.701 796.036 374.238 796.036 374.238C796.036 374.238 795.628 348.413 793.592 331.062C791.556 313.711 788.151 300.852 799.423 298.404Z" fill="#1FC7D4"/>
<path d="M740.176 251.878C740.176 253.452 741.13 255.28 742.303 255.962C743.478 256.645 744.43 255.92 744.43 254.347C744.43 252.771 743.478 250.943 742.303 250.261C741.13 249.58 740.176 250.303 740.176 251.878Z" fill="#162F4D"/>
<path d="M755.037 260.471C755.037 262.046 755.988 263.874 757.161 264.555C758.337 265.237 759.288 264.514 759.288 262.939C759.288 261.365 758.337 259.537 757.161 258.855C755.988 258.173 755.037 258.897 755.037 260.471Z" fill="#162F4D"/>
<g clip-path="url(#clip9)">
<path fill-rule="evenodd" clip-rule="evenodd" d="M745.423 339.894C745.4 338.082 746.916 336.662 748.54 336.929C749.976 337.165 750.952 338.647 750.696 340.205L750.117 343.726C750.492 343.788 750.878 343.782 751.252 343.843C751.627 343.905 751.939 343.956 752.303 344.086L752.882 340.564C753.138 339.007 754.536 337.915 755.972 338.152C757.596 338.419 758.578 340.25 758.039 341.969L756.673 345.987C758.92 347.539 760.46 349.879 760.048 352.384L759.792 353.942C759.447 356.041 757.909 357.596 755.908 358.449C753.897 359.37 751.412 359.657 748.726 359.215C746.04 358.774 743.778 357.706 742.167 356.189C740.608 354.75 739.648 352.784 739.993 350.685L740.249 349.127C740.661 346.622 742.806 344.888 745.431 344.138L745.423 339.894ZM755.647 346.375L757.261 341.632C757.648 340.444 757.026 339.16 755.839 338.964C754.84 338.8 753.883 339.547 753.705 340.63L752.97 345.1C752.732 344.991 752.419 344.939 752.17 344.898C751.795 344.837 751.494 344.718 751.119 344.656C750.744 344.594 750.369 344.533 749.983 344.539C749.734 344.498 749.41 344.514 749.16 344.473L749.884 340.071C750.062 338.988 749.395 337.974 748.395 337.81C747.271 337.625 746.207 338.632 746.257 339.892L746.268 344.901C743.466 345.553 741.406 347.162 741.05 349.329L740.794 350.886C740.248 354.204 743.863 357.581 748.86 358.403C753.856 359.225 758.361 357.184 758.907 353.866L759.163 352.308C759.592 350.084 758.155 347.9 755.647 346.375Z" fill="#633001"/>
<path d="M758.98 353.808C758.435 357.126 753.93 359.167 748.933 358.345C743.936 357.523 740.322 354.147 740.867 350.829L741.123 349.271L759.298 352.261L759.042 353.818L758.98 353.808Z" fill="#FEDC90"/>
<path fill-rule="evenodd" clip-rule="evenodd" d="M746.257 339.892C746.207 338.632 747.271 337.625 748.395 337.81C749.394 337.974 750.062 338.988 749.884 340.071L749.149 344.541C749.785 344.576 750.42 344.611 751.107 344.724C751.732 344.826 752.346 344.997 752.959 345.167L753.693 340.698C753.872 339.615 754.828 338.868 755.827 339.032C756.952 339.217 757.637 340.512 757.249 341.7L755.636 346.442C758.081 347.957 759.581 350.151 759.225 352.318C758.68 355.636 754.175 357.677 749.178 356.856C744.181 356.034 740.567 352.657 741.112 349.339C741.468 347.172 743.528 345.563 746.33 344.912L746.257 339.892Z" fill="#D1884F"/>
<path d="M747.686 349.933C747.541 350.814 746.981 351.487 746.419 351.394C745.857 351.302 745.542 350.485 745.687 349.604C745.832 348.724 746.391 348.051 746.953 348.144C747.516 348.236 747.83 349.053 747.686 349.933Z" fill="#633001"/>
<path d="M754.618 351.074C754.474 351.954 753.914 352.627 753.352 352.534C752.79 352.442 752.475 351.625 752.62 350.745C752.764 349.865 753.324 349.192 753.886 349.284C754.448 349.376 754.763 350.193 754.618 351.074Z" fill="#633001"/>
</g>
</g>
<defs>
<clipPath id="clip0">
<rect width="1200" height="630" fill="white"/>
</clipPath>
<clipPath id="clip1">
<rect width="226" height="226" fill="white" transform="translate(107 15)"/>
</clipPath>
<clipPath id="clip2">
<rect width="37.1988" height="37.9006" fill="white" transform="translate(196.845 40.2673) rotate(28.7932)"/>
</clipPath>
<clipPath id="clip3">
<rect width="29.597" height="30.1554" fill="white" transform="translate(251.133 102.821) rotate(-13.7035)"/>
</clipPath>
<clipPath id="clip4">
<rect width="296" height="296" fill="white" transform="translate(37 273)"/>
</clipPath>
<clipPath id="clip5">
<rect width="64.6128" height="64.6128" fill="white" transform="translate(151.33 295.769) rotate(30)"/>
</clipPath>
<clipPath id="clip6">
<rect width="44.3818" height="43.324" fill="white" transform="matrix(0.999943 -0.0106382 0.0627814 0.998027 228.915 383.301)"/>
</clipPath>
<clipPath id="clip7">
<rect width="27.7283" height="28.8702" fill="white" transform="matrix(-0.995749 0.0921103 0.0448591 0.998993 571.343 322.605)"/>
</clipPath>
<clipPath id="clip8">
<rect width="20.0654" height="21.9604" fill="white" transform="matrix(0.98674 0.16231 -0.162165 0.986764 742.419 335.922)"/>
</clipPath>
<clipPath id="clip9">
<rect width="20.0654" height="21.9604" fill="white" transform="matrix(0.98674 0.16231 -0.162165 0.986764 742.419 335.922)"/>
</clipPath>
</defs>
</svg>
