<svg width="180" height="180" viewBox="0 0 135 135" fill="none" xmlns="http://www.w3.org/2000/svg">
<path d="M23.5425 81.5477L37.3311 71.1237L38.0365 64.8129L39.0553 57.7839L23.5433 28.1446L23.2791 27.6408C22.6423 26.4238 22.6423 25.0477 23.2791 24.5658L23.8067 24.1669C24.4435 23.6859 25.4759 24.2813 26.1127 25.4982L39.8191 51.6865L63.2924 26.9684L93.0367 60.7564L88.5966 67.3475L94.252 118.409L65.0522 135L32.3329 115.842L34.2282 98.8855L26.3761 86.9625C25.5936 87.5536 24.325 86.8211 23.5425 85.3264C22.7608 83.8308 22.7608 82.1396 23.5425 81.5477V81.5477Z" fill="#1F4025"/>
<path d="M65.0527 80.4094V135L32.3333 115.842L38.037 64.8127L65.0527 80.4094Z" fill="#386B41"/>
<path d="M38.2906 119.331L40.2037 102.22L40.6847 97.9124L44.4389 100.079L52.7923 104.902L54.21 105.72V128.652L38.2906 119.331ZM51.3747 107.358L43.0212 102.535L40.9701 120.884L51.3747 126.976V107.358Z" fill="#E6E6E6"/>
<path d="M65.5124 76.6478L33.6085 58.2277L63.2927 26.9683L93.0371 60.7564L65.5124 76.6478Z" fill="#4D2419"/>
<path d="M33.6079 58.2277L63.2921 26.9683L65.4229 76.5961L33.6079 58.2277Z" fill="#784032"/>
<path d="M65.5124 80.6752L95.0849 63.6024C95.919 63.1205 96.2044 62.0535 95.7234 61.2193C95.2415 60.3852 94.1745 60.0998 93.3403 60.5808L65.5124 76.6475L33.2452 58.0182C32.4111 57.5363 31.344 57.8226 30.8622 58.6567C30.3812 59.4909 30.6665 60.5571 31.5007 61.039L65.5124 80.6752Z" fill="#E6E6E6"/>
<path d="M34.1399 66.2517L40.8369 61.1891L23.5423 28.1445L16.8453 33.2079L34.1399 66.2517Z" fill="#FFF5AE"/>
<path d="M69.261 107.942L75.958 102.879L58.6634 69.8347L51.9664 74.8973L69.261 107.942Z" fill="#FFF5AE"/>
<path d="M50.3672 86.684L43.6702 73.8879L26.3764 86.9627L33.0726 99.7579L50.3672 86.684Z" fill="#FFF5AE"/>
<path d="M66.4277 49.1281L59.7307 36.332L42.4361 49.4059L49.1331 62.202L66.4277 49.1281Z" fill="#FFF5AE"/>
<path d="M23.5423 81.5478L42.1207 67.5034C41.9675 66.8082 41.8819 66.1104 41.8819 65.4354C41.8819 64.7596 41.9666 64.1592 42.1207 63.6418L23.278 27.6408C22.6412 26.4238 22.6412 25.0477 23.278 24.5658L23.8065 24.1669C24.4433 23.6859 25.4748 24.2813 26.1116 25.4982L44.9543 61.5C45.4091 61.5568 45.896 61.7253 46.4025 62.0175C46.9089 62.3105 47.3958 62.7043 47.8506 63.1717L66.4291 49.1265C67.2107 48.5354 68.4802 49.268 69.2627 50.7627C70.0452 52.2582 70.0452 53.9494 69.2627 54.5414L50.6842 68.5857C50.8383 69.281 50.9222 69.9788 50.9222 70.6538C50.9222 71.3296 50.8383 71.93 50.6842 72.4474L69.5269 108.448C70.1629 109.665 70.1629 111.042 69.5269 111.523L68.9985 111.922C68.3616 112.403 67.3293 111.808 66.6933 110.591L47.8506 74.59C47.3958 74.5324 46.9097 74.3639 46.4025 74.0717C45.896 73.7787 45.4091 73.3858 44.9552 72.9174L26.3767 86.9627C25.5942 87.5538 24.3256 86.8212 23.5431 85.3265C22.7606 83.831 22.7606 82.1398 23.5423 81.5478V81.5478Z" fill="#F06C00"/>
<path d="M41.8821 66.9128C41.8821 69.1079 43.2176 71.6587 44.8639 72.6097C46.5102 73.5599 47.8457 72.5513 47.8457 70.3553C47.8457 68.1603 46.5102 65.6095 44.8639 64.6593C43.2176 63.7083 41.8821 64.7169 41.8821 66.9128Z" fill="#FF8E1D"/>
<path d="M51.375 107.358L43.0215 102.535L40.9704 120.884L51.375 126.976V107.358Z" fill="#1F4025"/>
<path d="M82.541 90.8412L77.3218 94.0559L76.7798 87.2674C76.6316 85.4043 77.4734 83.6818 78.9893 82.7486C80.2198 81.9898 81.9101 82.9332 82.0312 84.4465L82.541 90.8412Z" fill="#2C92BF"/>
<path d="M85.4834 112.386L80.2642 115.602L79.723 108.812C79.574 106.95 80.4166 105.228 81.9317 104.294C83.163 103.536 84.8525 104.479 84.9736 105.992L85.4834 112.386Z" fill="#2C92BF"/>
</svg>
