<svg width="192" height="192" viewBox="0 0 192 192" fill="none" xmlns="http://www.w3.org/2000/svg">
<g clip-path="url(#clip0)">
<path d="M3.43555 23.0044H97.5654V97.0247H3.43555V23.0044Z" fill="#FE8A71"/>
<path d="M37.9414 66.9502H63.0592V97.0241H37.9414V66.9502Z" fill="#FAF5E4"/>
<path d="M80.9043 16.5967H101.434V23.0041H80.9043V16.5967Z" fill="#3DA4AB"/>
<path d="M-0.431641 16.5967H20.0982V23.0041H-0.431641V16.5967Z" fill="#3DA4AB"/>
<path d="M20.0977 7.9751V86.2532H29.5835V52.4997H71.4164V86.2532H80.9023V7.9751H20.0977Z" fill="#F6CD61"/>
<path d="M45.2285 33.665H55.7773V44.2138H45.2285V33.665Z" fill="#FAF5E4"/>
<path d="M27.8281 33.665H38.3769V44.2138H27.8281V33.665Z" fill="#FAF5E4"/>
<path d="M62.623 33.665H73.1718V44.2138H62.623V33.665Z" fill="#FAF5E4"/>
<path d="M45.2285 16.2607H55.7773V26.8095H45.2285V16.2607Z" fill="#FAF5E4"/>
<path d="M27.8281 16.2607H38.3769V26.8095H27.8281V16.2607Z" fill="#FAF5E4"/>
<path d="M62.623 16.2607H73.1718V26.8095H62.623V16.2607Z" fill="#FAF5E4"/>
<path d="M16.2305 97.0246L20.0981 86.2534H29.5839L33.4515 97.0246H16.2305Z" fill="#3DA4AB"/>
<path d="M67.5488 97.0246L71.4164 86.2534H80.9023L84.7699 97.0246H67.5488Z" fill="#3DA4AB"/>
<path d="M-0.431641 97.0244H101.433V103.432H-0.431641V97.0244Z" fill="#3DA4AB"/>
<path d="M16.2305 1.56689H84.7703V7.97435H16.2305V1.56689Z" fill="#3DA4AB"/>
<path d="M48.957 66.9502H52.0469V97.0241H48.957V66.9502Z" fill="#3DA4AB"/>
<g clip-path="url(#clip1)">
<path d="M51.8933 85.7981C50.6848 85.7981 49.4999 85.1604 48.783 83.9822L45.1574 78.0273C44.0206 76.16 44.4903 73.644 46.2065 72.4072C47.9228 71.1712 50.2353 71.6823 51.3721 73.5486L54.9969 79.5036C56.1338 81.3708 55.6648 83.8869 53.9486 85.1237C53.3152 85.5798 52.6001 85.7981 51.8933 85.7981Z" fill="#2B5D99"/>
<path d="M96.8642 150.257L57.8303 86.1835L57.8371 86.1789L55.0017 81.5214C54.3734 80.4901 53.0957 80.2075 52.1478 80.8911C51.0969 81.648 50.5816 82.9528 50.7056 84.2292C50.7275 84.7338 50.8675 85.2384 51.1433 85.6909L92.4274 153.458C93.0316 154.449 93.2265 155.632 92.9758 156.79C92.7251 157.948 92.0665 158.914 91.1196 159.508L77.1062 168.311C75.8327 169.11 75.3965 170.882 76.131 172.268C76.6243 173.197 77.5195 173.716 78.4395 173.716C78.8905 173.716 79.3488 173.591 79.7675 173.328L93.7816 164.524C95.9812 163.143 97.5773 160.807 98.1579 158.116C98.7399 155.426 98.2688 152.561 96.8642 150.257Z" fill="#B6C5CE"/>
<path d="M18.3448 106.845C17.1362 106.845 15.9513 106.207 15.2336 105.029L11.608 99.0742C10.472 97.2069 10.9418 94.6909 12.6571 93.4541C14.3742 92.2181 16.6867 92.7291 17.8227 94.5955L21.4483 100.55C22.5852 102.418 22.1154 104.934 20.3992 106.171C19.7658 106.627 19.0515 106.845 18.3448 106.845Z" fill="#2B5D99"/>
<path d="M95.4085 176.42C95.4085 166.047 89.6115 153.995 82.4609 149.504C79.1 147.393 76.0389 147.327 73.7371 148.928V148.926L68.6424 152.129L68.6441 152.13C66.0162 153.916 64.3633 157.855 64.3633 163.394C64.3633 173.767 70.1596 185.817 77.3104 190.31C80.4515 192.281 83.3299 192.468 85.5711 191.178L85.5705 191.18L91.0866 187.711H91.0819C93.7365 185.939 95.4085 181.988 95.4085 176.42Z" fill="#162F4D"/>
<path d="M90.2587 179.661C90.2587 190.033 84.4623 194.801 77.3111 190.31C70.1605 185.817 64.3633 173.767 64.3633 163.394C64.3633 153.02 70.1605 148.252 77.3111 152.745C84.4623 157.236 90.2587 169.286 90.2587 179.661Z" fill="#2B5D99"/>
<path d="M85.5688 176.715C85.5688 183.333 81.8706 186.375 77.3088 183.51C72.7463 180.644 69.0488 172.956 69.0488 166.339C69.0488 159.721 72.7469 156.679 77.3088 159.545C81.8706 162.41 85.5688 170.097 85.5688 176.715Z" fill="#D6E5E5"/>
<path d="M82.2154 174.608C82.2154 178.537 80.0205 180.344 77.3115 178.642C74.6025 176.941 72.4062 172.376 72.4062 168.446C72.4062 164.516 74.6025 162.711 77.3115 164.412C80.0205 166.113 82.2154 170.678 82.2154 174.608Z" fill="#BF0025"/>
<path d="M105.795 132.857L105.755 132.856C106.122 129.335 103.741 125.587 99.1178 122.848L80.101 111.299C73.6803 107.497 64.458 106.779 58.2416 109.599C49.9817 113.347 42.7659 117.88 36.7991 123.069C34.5963 124.984 33.7521 127.355 34.1763 129.749H34.1755L34.1763 129.75C34.3627 130.801 34.7945 131.857 35.4633 132.881L40.5142 145.167C41.0995 146.942 42.5197 148.692 44.7242 150.161L59.9899 160.08C64.7389 163.243 71.7851 164.397 77.4356 162.937C87.2031 160.412 94.7495 155.672 98.769 149.536C99.0512 149.105 99.2703 148.662 99.4316 148.211L99.4336 148.206C99.4598 148.13 99.4834 148.054 99.5069 147.979L104.268 136.529C104.379 136.369 104.489 136.208 104.595 136.047C105.235 135.071 105.609 134.042 105.739 132.99L105.795 132.857Z" fill="#BF0025"/>
<path d="M36.7986 123.069C32.3085 126.973 33.4504 132.766 39.5049 136.798L57.8902 148.744C63.6098 152.555 72.0956 153.944 78.9007 152.186C90.6648 149.145 99.7542 143.436 104.594 136.046C107.395 131.772 105.182 126.441 99.1171 122.848L80.099 111.299C73.6796 107.497 64.4566 106.779 58.241 109.599C49.9811 113.347 42.7653 117.88 36.7986 123.069Z" fill="#EA2642"/>
<path d="M66.9891 114.834C70.6124 114.834 74.2663 115.766 77.021 117.389L96.0049 128.918L96.064 128.953C98.3369 130.299 99.1662 131.573 99.3637 132.057C95.4222 138.039 87.6346 142.784 77.4276 145.423C75.9753 145.798 74.3819 145.988 72.691 145.988C68.4953 145.988 64.2102 144.802 61.2289 142.816L61.1986 142.795L61.1682 142.776L42.8167 130.852C41.4758 129.955 40.828 129.145 40.5742 128.703C40.6299 128.645 40.7016 128.576 40.7901 128.499C46.2914 123.714 52.991 119.514 60.7027 116.015C62.381 115.254 64.6133 114.834 66.9891 114.834Z" fill="#BF0025"/>
<path d="M61.1969 142.796L61.2273 142.816C64.2085 144.802 68.4937 145.988 72.6896 145.988C74.3805 145.988 75.9733 145.798 77.4255 145.423C81.2884 144.424 84.8032 143.124 87.896 141.569L77.019 134.964C74.2649 133.34 70.6104 132.41 66.9874 132.41C64.6117 132.41 62.3793 132.829 60.701 133.59C58.0192 134.807 55.4629 136.11 53.0332 137.492L61.1665 142.776L61.1969 142.796Z" fill="#8F001C"/>
<path d="M78.4921 170.785C77.7569 169.399 76.1292 168.925 74.8557 169.725L71.6171 171.759C68.3552 173.809 64.1712 172.736 62.0915 169.32L24.2888 107.226L21.4533 102.569C20.825 101.537 19.5474 101.255 18.5994 101.938C17.0957 103.021 16.6842 105.226 17.6802 106.861L19.8501 110.425L57.6529 172.519C60.038 176.437 64.0085 178.588 68.0667 178.588C70.1853 178.588 72.3275 178.002 74.2791 176.776L77.5183 174.742C78.7912 173.942 79.228 172.17 78.4921 170.785Z" fill="#B6C5CE"/>
<path d="M28.4831 122.253C27.563 122.253 26.6682 121.734 26.1757 120.804C25.4403 119.42 25.8763 117.648 27.1498 116.848L60.6834 95.7841C61.9569 94.984 63.5855 95.4593 64.32 96.8439C65.0554 98.2294 64.6194 100.001 63.3459 100.8L29.8123 121.865C29.3931 122.128 28.9352 122.253 28.4831 122.253Z" fill="#B6C5CE"/>
<g style="mix-blend-mode:multiply" opacity="0.1">
<g style="mix-blend-mode:multiply" opacity="0.1">
<path d="M71.2461 143.37C85.8449 143.37 97.6796 130.494 97.6796 114.611C97.6796 98.7272 85.8449 85.8511 71.2461 85.8511C56.6472 85.8511 44.8125 98.7272 44.8125 114.611C44.8125 130.494 56.6472 143.37 71.2461 143.37Z" stroke="#191326" stroke-width="3"/>
</g>
</g>
<path d="M29.8082 173.252C29.8082 173.252 26.8998 156.213 49.4085 156.213C49.4085 156.213 49.2822 164.427 44.3505 168.697C39.4187 172.968 29.8082 173.252 29.8082 173.252Z" fill="#47B85B"/>
<path d="M49.4091 156.213C49.4091 156.213 49.2826 164.437 44.3509 168.697C39.4191 172.957 29.8086 173.252 29.8086 173.252C34.0702 166.578 39.8112 162.035 43.9463 159.282C46.3742 157.665 49.4091 156.213 49.4091 156.213Z" fill="#399349"/>
<path d="M23.2333 164.733C23.2333 164.733 26.1418 147.694 3.63281 147.694C3.63281 147.694 3.75927 155.908 8.69101 160.178C13.6228 164.449 23.2333 164.733 23.2333 164.733Z" fill="#47B85B"/>
<path d="M23.2333 164.733C23.2333 164.733 13.61 164.438 8.69101 160.178C3.75927 155.918 3.63281 147.694 3.63281 147.694C3.63281 147.694 7.93229 149.802 9.63941 150.84C14.4067 153.756 20.7168 158.529 23.2333 164.733Z" fill="#399349"/>
<path d="M27.1522 191.635L25.8876 191.58C25.9004 191.416 26.8487 175.294 22.6378 164.918C20.1845 158.856 14.0135 154.171 9.27148 151.298L9.99227 150.402C14.886 153.362 21.2595 158.223 23.8265 164.558C28.1258 175.131 27.1649 191.471 27.1522 191.635Z" fill="#2B6E37"/>
<path d="M8.10136 152.939L13.7539 153.051L13.7247 154.144L8.07227 154.031L8.10136 152.939Z" fill="#2B6E37"/>
<path d="M17.9758 153.466L18.5521 157.092L17.2989 157.241L16.7227 153.615L17.9758 153.466Z" fill="#2B6E37"/>
<path d="M14.9535 159.104L20.2013 159.127L20.1951 160.219L14.9473 160.197L14.9535 159.104Z" fill="#2B6E37"/>
<path d="M26.7994 179.052L25.6992 178.516C26.8119 176.791 28.0007 174.934 29.2527 172.979C33.6027 166.185 39.4323 161.543 43.5673 158.845L44.3261 159.719C40.2922 162.351 34.6017 166.884 30.3654 173.514C29.1134 175.469 27.9121 177.326 26.7994 179.052Z" fill="#2B6E37"/>
<path d="M45.8059 161.375L45.912 162.463L39.7722 162.91L39.666 161.821L45.8059 161.375Z" fill="#2B6E37"/>
<path d="M36.5378 162.007L37.1246 165.055L35.8778 165.234L35.291 162.186L36.5378 162.007Z" fill="#2B6E37"/>
<path d="M40.2419 167.263L40.3457 168.352L33.5881 168.832L33.4844 167.743L40.2419 167.263Z" fill="#2B6E37"/>
<path d="M20.6151 165.06C17.4918 164.678 11.738 163.597 8.23523 160.56C3.18968 156.191 3 148.043 3 147.705C3 147.563 3.06323 147.421 3.17703 147.311C3.29084 147.202 3.46788 147.147 3.63226 147.147C10.9414 147.147 16.4042 148.917 19.8816 152.39C25.0285 157.546 23.9155 164.514 23.8651 164.809L22.6131 164.645L23.2328 164.722L22.6131 164.645C22.6258 164.58 23.6879 157.862 18.9207 153.089C15.7972 149.976 10.8781 148.349 4.28984 148.24C4.42893 150.129 5.17502 156.355 9.13306 159.785C12.3703 162.592 17.8332 163.608 20.7922 163.968L20.6151 165.06Z" fill="#4D2419"/>
<path d="M29.8082 173.798C29.4919 173.798 29.2264 173.602 29.1885 173.329C29.138 173.034 28.0125 166.065 33.1719 160.91C36.6368 157.436 42.0997 155.667 49.4087 155.667C49.5731 155.667 49.7375 155.722 49.8638 155.831C49.9903 155.94 50.0536 156.071 50.041 156.224C50.041 156.574 49.8513 164.711 44.793 169.08C39.7475 173.449 30.2254 173.787 29.8207 173.798H29.8082ZM48.7511 156.759C42.1627 156.858 37.2563 158.496 34.133 161.609C30.1116 165.617 30.2381 171.013 30.3772 172.662C32.5143 172.52 39.8993 171.767 43.9079 168.304C47.866 164.886 48.612 158.66 48.7511 156.759Z" fill="#4D2419"/>
<path d="M27.1522 191.635L25.8876 191.58C25.9004 191.416 26.8487 175.294 22.6378 164.918C20.1845 158.856 14.0135 154.171 9.27148 151.298L9.99227 150.402C14.886 153.362 21.2595 158.223 23.8265 164.558C28.1258 175.131 27.1649 191.471 27.1522 191.635Z" fill="#4D2419"/>
<path d="M8.10136 152.939L13.7539 153.051L13.7247 154.144L8.07227 154.031L8.10136 152.939Z" fill="#4D2419"/>
<path d="M17.9758 153.466L18.5521 157.092L17.2989 157.241L16.7227 153.615L17.9758 153.466Z" fill="#4D2419"/>
<path d="M14.9535 159.104L20.2013 159.127L20.1951 160.219L14.9473 160.197L14.9535 159.104Z" fill="#4D2419"/>
<path d="M26.7994 179.052L25.6992 178.516C26.8119 176.791 28.0007 174.934 29.2527 172.979C33.6027 166.185 39.4323 161.543 43.5673 158.845L44.3261 159.719C40.2922 162.351 34.6017 166.884 30.3654 173.514C29.1134 175.469 27.9121 177.326 26.7994 179.052Z" fill="#4D2419"/>
<path d="M45.8059 161.375L45.912 162.463L39.7722 162.91L39.666 161.821L45.8059 161.375Z" fill="#4D2419"/>
<path d="M36.5378 162.007L37.1246 165.055L35.8778 165.234L35.291 162.186L36.5378 162.007Z" fill="#4D2419"/>
<path d="M40.2419 167.263L40.3457 168.352L33.5881 168.832L33.4844 167.743L40.2419 167.263Z" fill="#4D2419"/>
<path d="M72.5561 145.948C88.7013 145.948 101.79 131.711 101.79 114.149C101.79 96.5879 88.7013 82.3511 72.5561 82.3511C56.411 82.3511 43.3223 96.5879 43.3223 114.149C43.3223 131.711 56.411 145.948 72.5561 145.948Z" fill="#2775CA"/>
<path d="M67.3479 136.413C67.3479 137.15 66.7995 137.572 66.1537 137.361C57.3129 134.307 50.9238 125.287 50.9238 114.653C50.9238 104.018 57.3452 94.9984 66.1537 91.9443C66.8318 91.7338 67.3479 92.1549 67.3479 92.8917V94.7521C67.3479 95.2433 66.993 95.8398 66.5408 96.016C59.5717 98.7535 54.5703 106.054 54.5703 114.618C54.5703 123.181 59.5717 130.482 66.5737 133.289C66.9937 133.465 67.3808 134.026 67.3808 134.553V136.413H67.3486H67.3479ZM74.4527 129.066C74.4527 129.627 74.0334 130.048 73.5495 130.048H71.7424C71.2263 130.048 70.8385 129.592 70.8385 129.066V125.907C66.8378 125.311 64.9017 122.889 64.3855 119.59C64.3654 119.457 64.3719 119.321 64.4046 119.191C64.4374 119.06 64.4956 118.94 64.5752 118.836C64.6549 118.733 64.7541 118.65 64.8661 118.592C64.9781 118.534 65.1003 118.504 65.2242 118.502H67.2894C67.7088 118.502 68.0959 118.853 68.1926 119.309C68.5804 121.275 69.6127 122.783 72.8392 122.783C75.1947 122.783 76.8728 121.344 76.8728 119.204C76.8728 117.063 75.8728 116.256 72.4198 115.624C67.2894 114.922 64.8694 113.237 64.8694 108.85C64.8694 105.481 67.1926 102.884 70.8385 102.322V99.2331C70.8385 98.6717 71.2585 98.2506 71.7424 98.2506H73.5495C74.0656 98.2506 74.4527 98.7068 74.4527 99.2331V102.392C77.3889 102.953 79.2605 104.778 79.8734 107.797C80.0025 108.358 79.5831 108.92 79.0347 108.92H77.0986C76.6792 108.92 76.3566 108.604 76.2276 108.183C75.7108 106.253 74.4527 105.446 72.2585 105.446C69.8385 105.446 68.5804 106.709 68.5804 108.499C68.5804 110.395 69.2901 111.342 73.0004 111.903C78.034 112.64 80.616 114.22 80.616 118.853C80.616 122.398 78.196 125.241 74.4527 125.908V129.066V129.066ZM79.0448 137.408C78.3674 137.619 77.8513 137.198 77.8513 136.461V134.601C77.8513 134.039 78.1738 133.548 78.6577 133.338C85.6597 130.53 90.6611 123.229 90.6611 114.666C90.6611 106.102 85.6275 98.8369 78.6254 96.0291C78.2061 95.8537 77.819 95.2923 77.819 94.766V92.9056C77.819 92.1687 78.3674 91.7126 79.0125 91.9582C83.4377 93.4963 87.2983 96.5255 90.0363 100.608C92.7742 104.69 94.2475 109.613 94.243 114.667C94.2753 125.301 87.8862 134.321 79.0448 137.409V137.408Z" fill="white"/>
<g style="mix-blend-mode:multiply" opacity="0.2">
<path d="M72.5563 144.911C88.1754 144.911 100.837 131.138 100.837 114.149C100.837 97.1597 88.1754 83.3872 72.5563 83.3872C56.9372 83.3872 44.2754 97.1597 44.2754 114.149C44.2754 131.138 56.9372 144.911 72.5563 144.911Z" stroke="#191326" stroke-width="2.837"/>
</g>
</g>
<g clip-path="url(#clip2)">
<path d="M138.177 149.586C138.843 147.732 140.521 146.291 140.964 145.93C141.708 145.322 146.658 142.583 146.658 142.583L159.873 147.774V149.578C159.873 150.356 159.463 151.077 158.793 151.473L149.839 156.666C146.756 158.446 142.959 158.446 139.876 156.666C138.808 156.049 138.163 155.069 137.929 154.011L137.923 154.009C137.923 154.01 137.407 151.732 138.177 149.586Z" fill="#2B5D99"/>
<path d="M117.71 137.665C118.376 135.811 120.054 134.37 120.496 134.009C121.241 133.401 126.191 130.661 126.191 130.661L139.406 135.853V137.657C139.406 138.436 138.995 139.156 138.326 139.551L129.371 144.745C126.289 146.525 122.491 146.525 119.41 144.745C118.341 144.128 117.695 143.148 117.461 142.09L117.457 142.088C117.456 142.089 116.94 139.811 117.71 137.665Z" fill="#2B5D99"/>
<path d="M114.463 83.4897C114.463 83.4897 113.748 87.7439 114.463 91.0457C115.178 94.3462 119.855 95.4468 119.855 95.4468L122.275 85.8186L114.463 83.4897Z" fill="#F8DB8F"/>
<path d="M130.586 56.2725C130.586 56.2725 123.486 56.468 119.305 67.0815C115.123 77.6938 114.463 83.4895 114.463 83.4895C114.463 83.4895 117.251 86.2771 120.625 87.1572C124 88.0376 130.586 56.2725 130.586 56.2725Z" fill="#399349"/>
<path d="M130.586 56.2725C130.586 56.2725 124.587 57.4951 122.24 67.0815C119.892 76.6667 118.204 92.9985 119.159 106.598C120.332 123.323 122.36 132.837 122.36 132.837C122.36 132.837 123.693 136.675 128.346 138.371C132.144 139.754 139.479 138.213 139.479 135.93V127.578L140.579 128.366L142.12 144.854C142.12 144.854 142.083 147.44 144.834 149.035C150.42 152.275 159.066 150.503 159.873 148.251C161.195 144.562 164.861 112.613 164.861 104.47C164.861 96.3269 165.613 76.686 163.101 72.5583C158.479 64.9663 130.586 56.2725 130.586 56.2725Z" fill="#2C92BF"/>
<path d="M127.669 75.97C127.669 75.97 127.669 73.5496 128.364 69.1475C129.059 64.7461 130.587 59.0242 130.587 59.0242C131.004 58.1202 131.488 57.3648 132.02 56.7354C136.269 58.1334 149.022 62.5232 157.006 67.365C155.609 68.2701 153.826 69.7806 151.988 72.284C147.95 77.783 147.366 85.544 147.366 85.544L127.669 75.97Z" fill="#399349"/>
<path d="M172.895 110.852C172.895 110.852 173.275 117.926 167.723 118.225C160.571 118.61 160.901 108.762 160.901 108.762L172.895 110.852Z" fill="#F8DB8F"/>
<path d="M127.668 60.3793C127.173 58.9287 127.635 57.8071 127.668 57.09C127.702 56.3728 127.283 54.0726 127.394 52.5868C127.503 51.1009 128.364 49.8726 128.364 49.8726C128.377 46.7207 128.548 44.389 128.548 44.389C128.728 37.5673 133.72 30.7438 144.395 33.7154C155.068 36.6862 155.838 50.2207 155.838 50.2207L156.841 57.2626L156.839 57.2617C157.768 58.8601 157.419 62.3237 156.719 63.0954C154.848 65.1582 152.601 64.7956 152.057 64.6679C151.952 65.1198 151.767 65.552 151.437 65.9011C150.502 66.8918 148.521 66.3415 147.86 67.0817C147.2 67.8208 147.365 68.267 146.1 69.3676C144.834 70.4682 143.404 70.0275 141.928 70.1926C140.45 70.3576 141.258 71.2932 139.938 72.1188C138.617 72.9438 136.802 71.7336 136.362 72.614C135.921 73.4941 134.381 74.0444 132.73 73.2194C131.079 72.3935 131.025 69.5878 130.09 68.7077C129.154 67.8273 129.265 67.4421 128.933 66.0546C128.601 64.6679 127.779 64.8005 127.375 63.205C126.972 61.6096 128.163 61.8298 127.668 60.3793Z" fill="#F8DB8F"/>
<path d="M160.24 101.829C160.24 101.829 153.527 98.0874 153.968 89.1745C154.408 80.2614 160.139 69.5622 162.709 71.9863C170.144 78.9958 172.564 91.5959 172.894 97.0976C173.224 102.599 172.894 110.853 172.894 110.853C172.894 110.853 170.319 111.859 167.393 111.733C164.467 111.607 160.9 108.762 160.9 108.762L160.24 101.829Z" fill="#399349"/>
<path d="M145.055 95.4465L126.816 84.917V99.165C126.816 105.103 129.984 110.591 135.127 113.561C139.539 116.108 145.055 112.924 145.055 107.828V95.4465Z" fill="#2B5D99"/>
<path d="M127.669 60.3793C127.174 58.9286 127.635 57.807 127.669 57.09C127.702 56.3728 127.283 54.0725 127.394 52.5867C127.504 51.1009 128.365 49.8726 128.365 49.8726L146.564 60.3793L151.378 57.6002C151.239 56.3127 150.997 54.1841 150.777 52.8852C150.657 52.1747 150.422 51.4928 150.17 50.9111C153.756 50.9102 155.838 50.2207 155.838 50.2207L156.842 57.2626C156.842 57.2626 154.643 55.8883 152.977 58.3087C152.248 59.3712 152.262 61.4997 152.208 62.38C152.153 63.2611 152.373 64.911 151.437 65.902C150.502 66.8918 148.521 66.3415 147.861 67.0817C147.201 67.8217 147.366 68.268 146.1 69.3676C144.835 70.4682 143.404 70.0285 141.927 70.1935C140.451 70.3585 141.259 71.2931 139.938 72.1188C138.618 72.9437 136.802 71.7335 136.363 72.6139C135.922 73.494 134.382 74.0443 132.731 73.2194C131.08 72.3944 131.025 69.5878 130.09 68.7077C129.155 67.8273 129.264 67.442 128.933 66.0546C128.602 64.6679 127.779 64.8014 127.375 63.206C126.972 61.6105 128.164 61.8297 127.669 60.3793Z" fill="#4D2316"/>
<path d="M131.065 48.543C131.065 49.1629 131.442 49.8839 131.908 50.1519C132.373 50.4208 132.75 50.1357 132.75 49.5148C132.75 48.8949 132.373 48.1739 131.908 47.906C131.442 47.637 131.065 47.9222 131.065 48.543Z" fill="#162F4D"/>
<path d="M138.635 52.8233C138.635 53.4432 139.012 54.1641 139.477 54.4331C139.943 54.701 140.32 54.4159 140.32 53.796C140.32 53.1752 139.943 52.4542 139.477 52.1862C139.012 51.9173 138.635 52.2025 138.635 52.8233Z" fill="#162F4D"/>
<path d="M135.393 56.9002L131.953 54.9147C131.457 54.6285 130.837 54.9862 130.837 55.5593V56.4644C130.837 57.3675 131.32 58.202 132.102 58.654L135.541 60.6395C136.036 60.9257 136.656 60.568 136.656 59.9948V59.0897C136.656 58.1867 136.175 57.3522 135.393 56.9002Z" fill="#F8DB8F"/>
<path d="M153.966 89.1743C154.205 84.3391 156.001 78.9824 158.005 75.4766C157.073 79.4648 157.968 84.9609 158.478 88.9541C159.138 94.1267 160.238 101.829 160.238 101.829C160.238 101.829 153.525 98.0874 153.966 89.1743Z" fill="#297036"/>
<path d="M154.238 40.2176C154.719 41.5522 155.202 41.8302 155.381 42.5253C155.56 43.2206 155.349 43.6689 155.681 45.1215C156.013 46.5739 155.681 50.4999 155.681 50.4999C155.681 50.4999 151.096 52.423 150.422 51.173C149.749 49.923 143.691 49.923 144.239 49.0638C144.786 48.2045 136.324 45.3199 134.335 45.4099C132.345 45.4999 130.777 43.8653 130.777 43.8653C131.161 42.6352 128.898 42.7997 128.691 41.9423C128.485 41.0839 129.213 39.2284 129.815 38.0061C130.418 36.7849 130.364 37.0692 130.777 36.1676C131.19 35.2662 132.245 35.0027 132.796 34.833C132.796 34.833 133.452 33.7906 134.815 33.1984C136.178 32.6063 137.027 32.9099 138.181 32.4292C138.181 32.4292 139.911 32.6717 140.777 31.9243C141.642 31.177 144.245 31.6215 146.065 31.9243C147.886 32.2271 149.09 33.6052 149.815 34.833C150.54 36.0607 151.556 36.6001 152.411 38.0061C153.266 39.4123 153.442 38.0061 154.238 40.2176Z" fill="#4D2316"/>
</g>
</g>
<defs>
<clipPath id="clip0">
<rect width="192" height="192" fill="white"/>
</clipPath>
<clipPath id="clip1">
<rect width="125" height="125" fill="white" transform="translate(3 67)"/>
</clipPath>
<clipPath id="clip2">
<rect width="125" height="125" fill="white" transform="matrix(-1 0 0 1 206 33)"/>
</clipPath>
</defs>
</svg>
