<svg width="192" height="192" viewBox="0 0 192 192" fill="none" xmlns="http://www.w3.org/2000/svg">
<g clip-path="url(#clip0)">
<path d="M151.672 178H24.6386C22.4371 178 20.6523 176.215 20.6523 174.014V64.6074H155.659V174.014C155.659 176.215 153.874 178 151.672 178Z" fill="#FE646F"/>
<path d="M155.661 67.7629V174.013C155.661 176.215 153.873 177.999 151.674 177.999H144.252C146.454 177.999 148.238 176.215 148.238 174.013V67.7629H155.661Z" fill="#FD4755"/>
<path d="M84.1515 31.7713L79.9199 27.4346C76.5502 24.2292 72.9281 21.2378 68.986 18.7599C65.0385 16.2781 60.4759 14.247 55.7565 14.0228C53.4233 13.912 51.0783 14.2464 48.9322 15.2019C40.0752 19.1449 35.0444 30.4491 35.8545 39.8006C35.8974 40.2955 36.4019 46.6364 36.5377 46.6364H84.1515C84.1515 46.6364 84.1515 31.7768 84.1515 31.7713V31.7713Z" fill="#FEA613"/>
<path d="M92.1602 31.7695L96.3918 27.4328C99.7615 24.2275 103.384 21.2361 107.326 18.7581C111.273 16.2763 115.836 14.2456 120.555 14.0213C122.888 13.9105 125.233 14.2449 127.379 15.2004C136.236 19.1435 141.267 30.4476 140.457 39.7991C140.414 40.294 139.91 46.6349 139.774 46.6349C139.711 46.6349 92.1602 46.6349 92.1602 46.6349C92.1602 46.6349 92.1602 31.775 92.1602 31.7695V31.7695Z" fill="#FEA613"/>
<path d="M140.454 39.7984C140.415 40.2932 139.91 46.6351 139.773 46.6351H133.791C133.963 44.8013 134.143 42.5755 134.166 42.2901C134.976 32.9385 129.944 21.6341 121.087 17.691C118.941 16.7378 116.596 16.4021 114.264 16.5116C112.859 16.5779 111.467 16.8073 110.102 17.1593C113.35 15.4485 116.905 14.1961 120.552 14.0199C122.888 13.9104 125.233 14.2457 127.379 15.1993C136.236 19.1424 141.265 30.4471 140.454 39.7984V39.7984Z" fill="#FE9901"/>
<path d="M156.83 67.7637H19.4785C17.277 67.7637 15.4922 65.9789 15.4922 63.7774V49.6247C15.4922 47.4232 17.277 45.6384 19.4785 45.6384H156.83C159.032 45.6384 160.817 47.4232 160.817 49.6247V63.7774C160.816 65.9789 159.032 67.7637 156.83 67.7637V67.7637Z" fill="#FB2B3A"/>
<path d="M105.484 46.6348H70.8301V45.4173C70.8301 35.848 78.5874 28.0903 88.1571 28.0903C97.7264 28.0903 105.484 35.8477 105.484 45.4173V46.6348Z" fill="#FEC165"/>
<path d="M105.482 45.4159V46.635H99.18V45.7247C99.18 40.9411 97.2399 36.6092 94.1041 33.4766C91.4865 30.8555 88.0281 29.0684 84.168 28.5534C85.447 28.251 86.7824 28.0918 88.1543 28.0918C92.9378 28.0918 97.2697 30.0319 100.406 33.1643C103.542 36.3004 105.482 40.6323 105.482 45.4159Z" fill="#FDB441"/>
<path d="M67.2461 45.6382H109.063V67.7638H67.2461V45.6382Z" fill="#E1D3CE"/>
<path d="M101.73 45.6382H109.064V67.7638H101.73V45.6382Z" fill="#CDBFBA"/>
<path d="M72.4238 67.7637H103.884V178H72.4238V67.7637Z" fill="#F3EAE6"/>
<path d="M96.1934 67.7637H103.886V178H96.1934V67.7637Z" fill="#E1D3CE"/>
<path d="M155.732 122.7H141.805V157.88C141.805 159.296 143.223 160.272 144.545 159.766L155.011 155.764C155.475 155.587 155.988 155.587 156.453 155.764L166.918 159.766C168.24 160.272 169.658 159.296 169.658 157.88V122.7H155.732Z" fill="#8AC9FE"/>
<path d="M169.659 122.701V157.882C169.659 159.295 168.241 160.272 166.917 159.767L162.58 158.108C162.717 157.841 162.794 157.539 162.794 157.207V122.701H169.659Z" fill="#60B7FF"/>
<path d="M155.732 130.891C167.205 130.891 176.506 121.59 176.506 110.116C176.506 98.6426 167.205 89.3416 155.732 89.3416C144.258 89.3416 134.957 98.6426 134.957 110.116C134.957 121.59 144.258 130.891 155.732 130.891Z" fill="#FEC165"/>
<path d="M157.584 99.1048L159.798 103.59C159.943 103.885 160.224 104.089 160.549 104.136L165.499 104.855C167.192 105.101 167.868 107.183 166.643 108.377L163.061 111.869C162.826 112.098 162.719 112.428 162.775 112.751L163.62 117.681C163.91 119.368 162.139 120.654 160.624 119.858L156.197 117.53C155.907 117.377 155.56 117.377 155.269 117.53L150.842 119.858C149.327 120.654 147.557 119.368 147.846 117.681L148.692 112.751C148.747 112.428 148.64 112.098 148.405 111.869L144.823 108.377C143.598 107.183 144.274 105.101 145.968 104.855L150.918 104.136C151.242 104.089 151.523 103.885 151.669 103.59L153.882 99.1048C154.638 97.5699 156.826 97.5699 157.584 99.1048V99.1048Z" fill="#FE9901"/>
<path d="M163.063 111.869C162.826 112.099 162.722 112.426 162.778 112.75L163.621 117.682C163.91 119.368 162.14 120.654 160.625 119.856L156.198 117.529C155.908 117.376 155.56 117.376 155.271 117.529L150.844 119.856C149.328 120.654 147.559 119.368 147.848 117.682L148.039 116.557C148.14 116.526 148.241 116.481 148.342 116.428L150.296 115.4C151.277 114.884 152.259 114.356 153.3 113.968C154.15 113.65 155.061 113.526 155.964 113.492C156.94 113.455 158.382 114.13 158.986 113.008C159.172 112.663 159.114 112.18 159.18 111.805C159.486 110.062 160.485 108.51 161.767 107.284C162.572 106.518 163.348 105.723 164.143 104.947C164.227 104.863 164.303 104.78 164.366 104.689L165.502 104.856C167.195 105.1 167.87 107.183 166.644 108.378L163.063 111.869Z" fill="#FB8801"/>
</g>
<defs>
<clipPath id="clip0">
<rect width="164" height="164" fill="white" transform="translate(14 14)"/>
</clipPath>
</defs>
</svg>
