<svg width="192" height="192" viewBox="0 0 192 192" fill="none" xmlns="http://www.w3.org/2000/svg">
<g clip-path="url(#clip0)">
<path d="M3.43555 23.0044H97.5654V97.0247H3.43555V23.0044Z" fill="#FE8A71"/>
<path d="M37.9414 66.9502H63.0592V97.0241H37.9414V66.9502Z" fill="#FAF5E4"/>
<path d="M80.9043 16.5967H101.434V23.0041H80.9043V16.5967Z" fill="#3DA4AB"/>
<path d="M-0.431641 16.5967H20.0982V23.0041H-0.431641V16.5967Z" fill="#3DA4AB"/>
<path d="M20.0977 7.9751V86.2532H29.5835V52.4997H71.4164V86.2532H80.9023V7.9751H20.0977Z" fill="#F6CD61"/>
<path d="M45.2285 33.665H55.7773V44.2138H45.2285V33.665Z" fill="#FAF5E4"/>
<path d="M27.8281 33.665H38.3769V44.2138H27.8281V33.665Z" fill="#FAF5E4"/>
<path d="M62.623 33.665H73.1718V44.2138H62.623V33.665Z" fill="#FAF5E4"/>
<path d="M45.2285 16.2607H55.7773V26.8095H45.2285V16.2607Z" fill="#FAF5E4"/>
<path d="M27.8281 16.2607H38.3769V26.8095H27.8281V16.2607Z" fill="#FAF5E4"/>
<path d="M62.623 16.2607H73.1718V26.8095H62.623V16.2607Z" fill="#FAF5E4"/>
<path d="M16.2305 97.0246L20.0981 86.2534H29.5839L33.4515 97.0246H16.2305Z" fill="#3DA4AB"/>
<path d="M67.5488 97.0246L71.4164 86.2534H80.9023L84.7699 97.0246H67.5488Z" fill="#3DA4AB"/>
<path d="M-0.431641 97.0244H101.433V103.432H-0.431641V97.0244Z" fill="#3DA4AB"/>
<path d="M16.2305 1.56689H84.7703V7.97435H16.2305V1.56689Z" fill="#3DA4AB"/>
<path d="M48.957 66.9502H52.0469V97.0241H48.957V66.9502Z" fill="#3DA4AB"/>
<g clip-path="url(#clip1)">
<path d="M48.8933 85.7981C47.6848 85.7981 46.4999 85.1604 45.783 83.9822L42.1574 78.0273C41.0206 76.16 41.4903 73.644 43.2065 72.4072C44.9228 71.1712 47.2353 71.6823 48.3721 73.5486L51.9969 79.5036C53.1338 81.3708 52.6648 83.8869 50.9486 85.1237C50.3152 85.5798 49.6001 85.7981 48.8933 85.7981Z" fill="#2B5D99"/>
<path d="M93.8642 150.257L54.8303 86.1835L54.8371 86.1789L52.0017 81.5214C51.3734 80.4901 50.0957 80.2075 49.1478 80.8911C48.0969 81.648 47.5816 82.9528 47.7056 84.2292C47.7275 84.7338 47.8675 85.2384 48.1433 85.6909L89.4274 153.458C90.0316 154.449 90.2265 155.632 89.9758 156.79C89.7251 157.948 89.0665 158.914 88.1196 159.508L74.1062 168.311C72.8327 169.11 72.3965 170.882 73.131 172.268C73.6243 173.197 74.5195 173.716 75.4395 173.716C75.8905 173.716 76.3488 173.591 76.7675 173.328L90.7816 164.524C92.9812 163.143 94.5773 160.807 95.1579 158.116C95.7399 155.426 95.2688 152.561 93.8642 150.257Z" fill="#B6C5CE"/>
<path d="M15.3448 106.845C14.1362 106.845 12.9513 106.207 12.2336 105.029L8.60802 99.0742C7.472 97.2069 7.94176 94.6909 9.65714 93.4541C11.3742 92.2181 13.6867 92.7291 14.8227 94.5955L18.4483 100.55C19.5852 102.418 19.1154 104.934 17.3992 106.171C16.7658 106.627 16.0515 106.845 15.3448 106.845Z" fill="#2B5D99"/>
<path d="M92.4085 176.42C92.4085 166.047 86.6115 153.995 79.4609 149.504C76.1 147.393 73.0389 147.327 70.7371 148.928V148.926L65.6424 152.129L65.6441 152.13C63.0162 153.916 61.3633 157.855 61.3633 163.394C61.3633 173.767 67.1596 185.817 74.3104 190.31C77.4515 192.281 80.3299 192.468 82.5711 191.178L82.5705 191.18L88.0866 187.711H88.0819C90.7365 185.939 92.4085 181.988 92.4085 176.42Z" fill="#162F4D"/>
<path d="M87.2587 179.661C87.2587 190.033 81.4623 194.801 74.3111 190.31C67.1605 185.817 61.3633 173.767 61.3633 163.394C61.3633 153.02 67.1605 148.252 74.3111 152.745C81.4623 157.236 87.2587 169.286 87.2587 179.661Z" fill="#2B5D99"/>
<path d="M82.5688 176.715C82.5688 183.333 78.8706 186.375 74.3088 183.509C69.7463 180.644 66.0488 172.955 66.0488 166.338C66.0488 159.72 69.7469 156.679 74.3088 159.544C78.8706 162.41 82.5688 170.097 82.5688 176.715Z" fill="#D6E5E5"/>
<path d="M79.2154 174.608C79.2154 178.537 77.0205 180.344 74.3115 178.642C71.6025 176.941 69.4062 172.376 69.4062 168.446C69.4062 164.516 71.6025 162.711 74.3115 164.412C77.0205 166.113 79.2154 170.678 79.2154 174.608Z" fill="#BF0025"/>
<path d="M102.795 132.857L102.755 132.856C103.122 129.335 100.741 125.587 96.1178 122.848L77.101 111.299C70.6803 107.497 61.458 106.779 55.2416 109.599C46.9817 113.347 39.7659 117.88 33.7991 123.069C31.5963 124.984 30.7521 127.355 31.1763 129.749H31.1755L31.1763 129.75C31.3627 130.801 31.7945 131.857 32.4633 132.881L37.5142 145.167C38.0995 146.942 39.5197 148.692 41.7242 150.161L56.9899 160.08C61.7389 163.243 68.7851 164.397 74.4356 162.937C84.2031 160.412 91.7495 155.672 95.769 149.536C96.0512 149.105 96.2703 148.662 96.4316 148.211L96.4336 148.206C96.4598 148.13 96.4834 148.054 96.5069 147.979L101.268 136.529C101.379 136.369 101.489 136.208 101.595 136.047C102.235 135.071 102.609 134.042 102.739 132.99L102.795 132.857Z" fill="#BF0025"/>
<path d="M33.7986 123.069C29.3085 126.973 30.4504 132.766 36.5049 136.798L54.8902 148.744C60.6098 152.555 69.0956 153.944 75.9007 152.186C87.6648 149.145 96.7542 143.436 101.594 136.046C104.395 131.772 102.182 126.441 96.1171 122.848L77.099 111.299C70.6796 107.497 61.4566 106.779 55.241 109.599C46.9811 113.347 39.7653 117.88 33.7986 123.069Z" fill="#EA2642"/>
<path d="M63.9891 114.834C67.6124 114.834 71.2663 115.766 74.021 117.389L93.0049 128.918L93.064 128.953C95.3369 130.299 96.1662 131.573 96.3637 132.057C92.4222 138.039 84.6346 142.784 74.4276 145.423C72.9753 145.798 71.3819 145.988 69.691 145.988C65.4953 145.988 61.2102 144.802 58.2289 142.816L58.1986 142.795L58.1682 142.776L39.8167 130.852C38.4758 129.955 37.828 129.145 37.5742 128.703C37.6299 128.645 37.7016 128.576 37.7901 128.499C43.2914 123.714 49.991 119.514 57.7027 116.015C59.381 115.254 61.6133 114.834 63.9891 114.834Z" fill="#BF0025"/>
<path d="M58.1969 142.796L58.2273 142.816C61.2085 144.802 65.4937 145.988 69.6896 145.988C71.3805 145.988 72.9733 145.798 74.4255 145.423C78.2884 144.424 81.8032 143.124 84.896 141.569L74.019 134.964C71.2649 133.34 67.6104 132.41 63.9874 132.41C61.6117 132.41 59.3793 132.829 57.701 133.59C55.0192 134.807 52.4629 136.11 50.0332 137.492L58.1665 142.776L58.1969 142.796Z" fill="#8F001C"/>
<path d="M75.4921 170.785C74.7569 169.399 73.1292 168.925 71.8557 169.725L68.6171 171.759C65.3552 173.809 61.1712 172.736 59.0915 169.32L21.2888 107.226L18.4533 102.569C17.825 101.537 16.5474 101.255 15.5994 101.938C14.0957 103.021 13.6842 105.226 14.6802 106.861L16.8501 110.425L54.6529 172.519C57.038 176.437 61.0085 178.588 65.0667 178.588C67.1853 178.588 69.3275 178.002 71.2791 176.776L74.5183 174.742C75.7912 173.942 76.228 172.17 75.4921 170.785Z" fill="#B6C5CE"/>
<path d="M25.4831 122.253C24.563 122.253 23.6682 121.734 23.1757 120.804C22.4403 119.42 22.8763 117.648 24.1498 116.848L57.6834 95.7841C58.9569 94.984 60.5855 95.4593 61.32 96.8439C62.0554 98.2294 61.6194 100.001 60.3459 100.8L26.8123 121.865C26.3931 122.128 25.9352 122.253 25.4831 122.253Z" fill="#B6C5CE"/>
<path d="M68.8843 145.948C85.0294 145.948 98.1181 131.711 98.1181 114.149C98.1181 96.5876 85.0294 82.3511 68.8843 82.3511C52.7388 82.3511 39.6504 96.5876 39.6504 114.149C39.6504 131.711 52.7388 145.948 68.8843 145.948Z" fill="#F4B731"/>
<path fill-rule="evenodd" clip-rule="evenodd" d="M57.282 97.5876H69.4638C76.8731 97.5876 82.49 101.968 84.5794 108.341H88.3738V112.193H85.3785C85.4369 112.802 85.4672 113.422 85.4672 114.052V114.147C85.4672 114.845 85.4295 115.543 85.3549 116.237H88.3738V120.089H84.5068C82.3623 126.373 76.7898 130.712 69.4638 130.712H57.282V120.088H53.0488V116.235H57.282V112.192H53.0488V108.34H57.282V97.5869V97.5876ZM60.6873 120.088V127.256H69.4638C74.8791 127.256 78.9027 124.385 80.7756 120.088H60.6873ZM81.8187 116.236H60.6873V112.193H81.8247C81.9027 112.829 81.943 113.482 81.943 114.146V114.24C81.943 114.908 81.9013 115.574 81.8187 116.235V116.236ZM69.4638 101.037C74.904 101.037 78.9396 103.983 80.8012 108.341H60.6873V101.037H69.4638Z" fill="#FFFDFA"/>
<g style="mix-blend-mode:multiply" opacity="0.2">
<g style="mix-blend-mode:multiply" opacity="0.2">
<g style="mix-blend-mode:multiply" opacity="0.2">
<path fill-rule="evenodd" clip-rule="evenodd" d="M68.8843 143.874C83.977 143.874 96.2116 130.566 96.2116 114.149C96.2116 97.7327 83.977 84.4249 68.8843 84.4249C53.7915 84.4249 41.557 97.7327 41.557 114.149C41.557 130.566 53.7915 143.874 68.8843 143.874ZM68.8843 145.948C85.0294 145.948 98.1181 131.711 98.1181 114.149C98.1181 96.5879 85.0294 82.3511 68.8843 82.3511C52.7391 82.3511 39.6504 96.5879 39.6504 114.149C39.6504 131.711 52.7391 145.948 68.8843 145.948Z" fill="#191326"/>
</g>
</g>
</g>
<path d="M69.2203 146.679C85.5513 146.679 98.7902 132.279 98.7902 114.515C98.7902 96.751 85.5513 82.3511 69.2203 82.3511C52.8893 82.3511 39.6504 96.751 39.6504 114.515C39.6504 132.279 52.8893 146.679 69.2203 146.679Z" fill="url(#paint0_linear)"/>
<path fill-rule="evenodd" clip-rule="evenodd" d="M49.3535 118.251C49.3482 118.37 49.3455 118.49 49.3455 118.61C49.3455 119.065 49.3835 119.514 49.4572 119.956H49.3455V120.652C49.3455 120.992 49.3666 121.329 49.4082 121.662C50.218 128.162 58.7789 133.276 69.2202 133.276C79.6616 133.276 88.2224 128.162 89.0322 121.662C89.0738 121.329 89.0949 120.992 89.0949 120.652V119.956H88.9832C89.057 119.514 89.0949 119.065 89.0949 118.61C89.0949 118.49 89.0922 118.37 89.0869 118.251C88.7872 111.445 80.0073 105.986 69.2202 105.986C58.4332 105.986 49.6532 111.445 49.3535 118.251ZM47.7211 118.251C47.869 114.098 50.5662 110.61 54.3204 108.226C58.212 105.753 63.4838 104.281 69.2202 104.281C74.9566 104.281 80.2285 105.753 84.12 108.226C87.8742 110.61 90.5714 114.098 90.7193 118.251H90.7256V120.652C90.7256 124.963 87.9821 128.584 84.12 131.037C80.2285 133.509 74.9566 134.983 69.2202 134.983C63.4838 134.983 58.212 133.509 54.3204 131.037C50.4584 128.584 47.7148 124.963 47.7148 120.652V118.251H47.7211Z" fill="#606063"/>
<path d="M88.7109 120.268C88.7109 127.587 79.9853 133.52 69.2217 133.52C58.4581 133.52 49.7324 127.587 49.7324 120.268V118.169H88.7109V120.268Z" fill="#BEBEBE"/>
<path d="M88.7109 118.536C88.7109 125.601 79.9853 131.327 69.2217 131.327C58.4581 131.327 49.7324 125.601 49.7324 118.536C49.7324 111.47 58.4581 105.743 69.2217 105.743C79.9853 105.743 88.7109 111.47 88.7109 118.536Z" fill="#FAF9FA"/>
<path fill-rule="evenodd" clip-rule="evenodd" d="M52.6674 114.413C52.6673 114.421 52.6673 114.428 52.6673 114.436C52.6673 114.993 52.745 115.539 52.8939 116.068H52.6671V116.786C52.6671 117.102 52.6923 117.415 52.7413 117.724C53.4815 122.382 59.6738 126.017 67.2031 126.017C74.7325 126.017 80.9248 122.382 81.6649 117.724C81.714 117.415 81.7391 117.102 81.7391 116.786V116.068H81.5127C81.6576 115.553 81.735 115.023 81.7391 114.481C81.7392 114.467 81.7393 114.451 81.7393 114.436C81.7393 114.428 81.7393 114.421 81.7392 114.413C81.7197 109.326 75.2192 105.204 67.2033 105.204C59.1874 105.204 52.687 109.326 52.6674 114.413ZM51.0744 114.413H51.0742V116.786C51.0742 120.13 53.2021 122.89 56.094 124.726C59.0133 126.58 62.9449 127.673 67.2031 127.673C71.4614 127.673 75.3931 126.58 78.3123 124.726C81.2041 122.89 83.3321 120.13 83.3321 116.786V114.488C83.3322 114.47 83.3323 114.453 83.3323 114.436C83.3323 111.092 81.2043 108.333 78.3124 106.496C75.3931 104.642 71.4615 103.55 67.2033 103.55C62.9451 103.55 59.0134 104.642 56.0942 106.496C53.2089 108.328 51.0841 111.08 51.0744 114.413Z" fill="#633001"/>
<path d="M81.3178 117.329C81.3178 122.234 74.8487 126.211 66.8688 126.211C58.8889 126.211 52.4199 122.234 52.4199 117.329V115.246H81.3178V117.329Z" fill="#FEDC90"/>
<path d="M81.3178 114.515C81.3178 119.763 74.8487 124.018 66.8688 124.018C58.8889 124.018 52.4199 119.763 52.4199 114.515C52.4199 109.265 58.8889 105.012 66.8688 105.012C74.8487 105.012 81.3178 109.265 81.3178 114.515Z" fill="#D1884F"/>
<path fill-rule="evenodd" clip-rule="evenodd" d="M57.3394 109.224C57.3394 109.232 57.3394 109.24 57.3394 109.248C57.3394 109.839 57.4154 110.417 57.5612 110.98H57.3392V111.74C57.3392 112.076 57.3637 112.408 57.4117 112.735C58.1365 117.675 64.1997 121.531 71.5722 121.531C78.9447 121.531 85.0081 117.675 85.7328 112.735C85.7807 112.408 85.8053 112.076 85.8053 111.74V110.98H85.5837C85.7255 110.433 85.8014 109.871 85.8053 109.297C85.8055 109.28 85.8055 109.265 85.8055 109.248C85.8055 109.24 85.8055 109.232 85.8055 109.224C85.7863 103.827 79.4213 99.4575 71.5724 99.4575C63.7235 99.4575 57.3585 103.827 57.3394 109.224ZM55.7796 109.224H55.7793V111.74C55.7793 115.287 57.8629 118.213 60.6946 120.161C63.5529 122.127 67.4027 123.286 71.5722 123.286C75.7418 123.286 79.5915 122.127 82.45 120.161C85.2816 118.213 87.3651 115.287 87.3651 111.74V109.303C87.3652 109.285 87.3653 109.266 87.3653 109.248C87.3653 105.701 85.2818 102.775 82.4501 100.827C79.5917 98.861 75.742 97.7017 71.5724 97.7017C67.4029 97.7017 63.5532 98.861 60.6947 100.827C57.8696 102.771 55.7891 105.688 55.7796 109.224Z" fill="#633001"/>
<path d="M86.0207 112.212C86.0207 117.117 79.7022 121.093 71.9079 121.093C64.1134 121.093 57.7949 117.117 57.7949 112.212V110.128H86.0207V112.212Z" fill="#FEDC90"/>
<path d="M86.0207 109.398C86.0207 114.646 79.7022 118.901 71.9079 118.901C64.1134 118.901 57.7949 114.646 57.7949 109.398C57.7949 104.15 64.1134 99.895 71.9079 99.895C79.7022 99.895 86.0207 104.15 86.0207 109.398Z" fill="#D1884F"/>
<path fill-rule="evenodd" clip-rule="evenodd" d="M52.6674 104.508C52.6673 104.516 52.6673 104.524 52.6673 104.532C52.6673 105.106 52.745 105.668 52.8939 106.214H52.6671V106.953C52.6671 107.28 52.6923 107.601 52.7413 107.919C53.4815 112.719 59.6738 116.464 67.2031 116.464C74.7325 116.464 80.9248 112.719 81.6649 107.919C81.714 107.601 81.7391 107.28 81.7391 106.953V106.214H81.5127C81.6576 105.683 81.735 105.136 81.7391 104.579C81.7392 104.563 81.7393 104.548 81.7393 104.532C81.7393 104.524 81.7393 104.516 81.7392 104.508C81.7197 99.2666 75.2192 95.0216 67.2033 95.0216C59.1874 95.0216 52.687 99.2666 52.6674 104.508ZM51.0744 104.508H51.0742V106.953C51.0742 110.399 53.2021 113.242 56.094 115.134C59.0133 117.044 62.9449 118.17 67.2031 118.17C71.4614 118.17 75.3931 117.044 78.3123 115.134C81.2041 113.242 83.3321 110.399 83.3321 106.953V104.585C83.3322 104.567 83.3323 104.549 83.3323 104.532C83.3323 101.086 81.2043 98.244 78.3124 96.351C75.3931 94.4411 71.4615 93.3159 67.2033 93.3159C62.9451 93.3159 59.0134 94.4411 56.0942 96.351C53.2089 98.2393 51.0841 101.074 51.0744 104.508Z" fill="#633001"/>
<path d="M81.3178 107.235C81.3178 112.466 74.8487 116.708 66.8688 116.708C58.8889 116.708 52.4199 112.466 52.4199 107.235V105.012H81.3178V107.235Z" fill="#FEDC90"/>
<path d="M81.3178 104.281C81.3178 109.529 74.8487 113.784 66.8688 113.784C58.8889 113.784 52.4199 109.529 52.4199 104.281C52.4199 99.0323 58.8889 94.7778 66.8688 94.7778C74.8487 94.7778 81.3178 99.0323 81.3178 104.281Z" fill="#D1884F"/>
<path fill-rule="evenodd" clip-rule="evenodd" d="M57.123 105.024C57.123 106.808 58.2196 108.406 59.9496 109.481L58.751 111.934L58.7512 111.935H58.751V118.145C58.751 118.966 59.3142 119.632 60.009 119.632C60.7038 119.632 61.2671 118.966 61.2671 118.145V113.206L62.5567 110.566C63.3812 110.773 64.2663 110.886 65.1875 110.886C69.6415 110.886 73.2521 108.262 73.2521 105.024C73.2521 101.788 69.6415 99.1641 65.1875 99.1641C60.7337 99.1641 57.123 101.788 57.123 105.024Z" fill="url(#paint1_linear)"/>
<path fill-rule="evenodd" clip-rule="evenodd" d="M59.3924 109.112C59.1926 108.997 59.001 108.877 58.8181 108.749C57.3499 107.733 56.4461 106.345 56.4461 104.815C56.4461 101.695 60.2096 99.165 64.8521 99.165C69.4946 99.165 73.2581 101.695 73.2581 104.815C73.2581 107.936 69.4946 110.466 64.8521 110.466C63.8919 110.466 62.9693 110.357 62.1098 110.158L60.7656 112.704V117.465C60.7656 118.257 60.1785 118.899 59.4543 118.899C58.7301 118.899 58.143 118.257 58.143 117.465V111.478L59.3924 109.112ZM56.8044 111.503V117.465C56.8044 119.065 57.9908 120.362 59.4543 120.362C60.9179 120.362 62.1043 119.065 62.1043 117.465V113.096L62.8014 111.776C63.4636 111.877 64.1499 111.93 64.8521 111.93C67.3801 111.93 69.7328 111.243 71.4972 110.058C73.2396 108.887 74.5967 107.075 74.5967 104.815C74.5967 102.557 73.2396 100.745 71.4972 99.5737C69.7328 98.3881 67.3801 97.7017 64.8521 97.7017C62.3241 97.7017 59.9714 98.3881 58.2071 99.5737C56.4645 100.745 55.1074 102.557 55.1074 104.815C55.1074 106.798 56.146 108.43 57.589 109.6L56.9929 110.728C56.9361 110.833 56.8907 110.945 56.8587 111.063C56.8196 111.208 56.8019 111.357 56.8044 111.503Z" fill="#633001"/>
<path d="M59.1406 102.819C59.1406 104.433 61.0963 105.743 63.5089 105.743C65.9215 105.743 67.8772 104.433 67.8772 102.819C67.8772 101.204 65.9215 99.895 63.5089 99.895C61.0963 99.895 59.1406 101.204 59.1406 102.819Z" fill="#9E7200"/>
<path d="M59.1406 102.088H67.8772V102.819H59.1406V102.088Z" fill="#9E7200"/>
<path d="M59.1406 100.992C59.1406 102.808 61.0963 104.281 63.5089 104.281C65.9215 104.281 67.8772 102.808 67.8772 100.992C67.8772 99.1751 65.9215 97.7017 63.5089 97.7017C61.0963 97.7017 59.1406 99.1751 59.1406 100.992Z" fill="#F0B90B"/>
<path d="M61.9959 100.963L63.1192 100.041C63.3566 99.8463 63.6599 99.8463 63.8973 100.041L65.0206 100.963C65.2442 101.146 65.2442 101.568 65.0206 101.751L63.8973 102.673C63.6599 102.868 63.3566 102.868 63.1192 102.673L61.9959 101.751C61.7722 101.568 61.7722 101.146 61.9959 100.963Z" fill="#9E7200"/>
<path fill-rule="evenodd" clip-rule="evenodd" d="M59.5906 97.5054C60.5669 96.6892 61.8363 96.2397 63.1713 96.2397C64.5062 96.2397 65.7757 96.6892 66.752 97.5054C67.7129 98.3097 68.5476 99.6291 68.5476 101.357V102.818C68.5476 104.546 67.7129 105.866 66.752 106.67C65.7757 107.486 64.5062 107.936 63.1713 107.936C61.8363 107.936 60.5669 107.486 59.5906 106.67C58.6297 105.866 57.7949 104.546 57.7949 102.818V101.357C57.7949 99.6291 58.6297 98.3097 59.5906 97.5054ZM63.1713 97.9452C60.9188 97.9452 59.0927 99.4731 59.0927 101.357V102.818C59.0927 104.702 60.9188 106.23 63.1713 106.23C65.4239 106.23 67.2499 104.702 67.2499 102.818V101.357C67.2499 99.4731 65.4239 97.9452 63.1713 97.9452Z" fill="#633001"/>
<path d="M26.8082 173.252C26.8082 173.252 23.8998 156.213 46.4085 156.213C46.4085 156.213 46.2822 164.427 41.3505 168.698C36.4187 172.968 26.8082 173.252 26.8082 173.252Z" fill="#47B85B"/>
<path d="M46.4091 156.213C46.4091 156.213 46.2826 164.438 41.3509 168.698C36.4191 172.958 26.8086 173.252 26.8086 173.252C31.0702 166.579 36.8112 162.035 40.9463 159.283C43.3742 157.666 46.4091 156.213 46.4091 156.213Z" fill="#399349"/>
<path d="M20.2333 164.733C20.2333 164.733 23.1418 147.694 0.632812 147.694C0.632812 147.694 0.75927 155.908 5.69101 160.178C10.6228 164.449 20.2333 164.733 20.2333 164.733Z" fill="#47B85B"/>
<path d="M20.2333 164.733C20.2333 164.733 10.61 164.438 5.69101 160.178C0.75927 155.918 0.632812 147.694 0.632812 147.694C0.632812 147.694 4.93229 149.802 6.63941 150.84C11.4067 153.756 17.7168 158.529 20.2333 164.733Z" fill="#399349"/>
<path d="M24.1522 191.635L22.8876 191.58C22.9004 191.416 23.8487 175.294 19.6378 164.918C17.1845 158.856 11.0135 154.171 6.27148 151.298L6.99227 150.402C11.886 153.362 18.2595 158.223 20.8265 164.558C25.1258 175.131 24.1649 191.471 24.1522 191.635Z" fill="#2B6E37"/>
<path d="M5.10136 152.939L10.7539 153.051L10.7247 154.144L5.07227 154.031L5.10136 152.939Z" fill="#2B6E37"/>
<path d="M14.9758 153.466L15.5521 157.092L14.2989 157.241L13.7227 153.615L14.9758 153.466Z" fill="#2B6E37"/>
<path d="M11.9535 159.105L17.2013 159.128L17.1951 160.22L11.9473 160.197L11.9535 159.105Z" fill="#2B6E37"/>
<path d="M23.7994 179.052L22.6992 178.516C23.8119 176.791 25.0007 174.934 26.2527 172.979C30.6027 166.185 36.4323 161.543 40.5673 158.845L41.3261 159.719C37.2922 162.351 31.6017 166.884 27.3654 173.514C26.1134 175.469 24.9121 177.326 23.7994 179.052Z" fill="#2B6E37"/>
<path d="M42.8059 161.375L42.912 162.463L36.7722 162.91L36.666 161.821L42.8059 161.375Z" fill="#2B6E37"/>
<path d="M33.5378 162.007L34.1246 165.055L32.8778 165.234L32.291 162.186L33.5378 162.007Z" fill="#2B6E37"/>
<path d="M37.2419 167.263L37.3457 168.352L30.5881 168.832L30.4844 167.743L37.2419 167.263Z" fill="#2B6E37"/>
<path d="M17.6151 165.06C14.4918 164.678 8.73802 163.597 5.23523 160.56C0.189683 156.191 0 148.043 0 147.705C0 147.563 0.0632279 147.421 0.177035 147.311C0.290842 147.202 0.467876 147.147 0.632262 147.147C7.94136 147.147 13.4042 148.917 16.8816 152.39C22.0285 157.546 20.9155 164.514 20.8651 164.809L19.6131 164.645L20.2328 164.722L19.6131 164.645C19.6258 164.58 20.6879 157.862 15.9207 153.089C12.7972 149.976 7.87813 148.349 1.28984 148.24C1.42893 150.129 2.17502 156.355 6.13306 159.785C9.37027 162.592 14.8332 163.608 17.7922 163.968L17.6151 165.06Z" fill="#4D2419"/>
<path d="M26.8082 173.798C26.4919 173.798 26.2264 173.602 26.1885 173.329C26.138 173.034 25.0125 166.065 30.1719 160.91C33.6368 157.436 39.0997 155.667 46.4087 155.667C46.5731 155.667 46.7375 155.722 46.8638 155.831C46.9903 155.94 47.0536 156.071 47.041 156.224C47.041 156.574 46.8513 164.711 41.793 169.08C36.7475 173.449 27.2254 173.787 26.8207 173.798H26.8082ZM45.7511 156.759C39.1627 156.858 34.2563 158.496 31.133 161.609C27.1116 165.617 27.2381 171.013 27.3772 172.662C29.5143 172.52 36.8993 171.767 40.9079 168.304C44.866 164.886 45.612 158.66 45.7511 156.759Z" fill="#4D2419"/>
<path d="M24.1522 191.635L22.8876 191.58C22.9004 191.416 23.8487 175.294 19.6378 164.918C17.1845 158.856 11.0135 154.171 6.27148 151.298L6.99227 150.402C11.886 153.362 18.2595 158.223 20.8265 164.558C25.1258 175.131 24.1649 191.471 24.1522 191.635Z" fill="#4D2419"/>
<path d="M5.10136 152.939L10.7539 153.051L10.7247 154.144L5.07227 154.031L5.10136 152.939Z" fill="#4D2419"/>
<path d="M14.9758 153.466L15.5521 157.092L14.2989 157.241L13.7227 153.615L14.9758 153.466Z" fill="#4D2419"/>
<path d="M11.9535 159.105L17.2013 159.128L17.1951 160.22L11.9473 160.197L11.9535 159.105Z" fill="#4D2419"/>
<path d="M23.7994 179.052L22.6992 178.516C23.8119 176.791 25.0007 174.934 26.2527 172.979C30.6027 166.185 36.4323 161.543 40.5673 158.845L41.3261 159.719C37.2922 162.351 31.6017 166.884 27.3654 173.514C26.1134 175.469 24.9121 177.326 23.7994 179.052Z" fill="#4D2419"/>
<path d="M42.8059 161.375L42.912 162.463L36.7722 162.91L36.666 161.821L42.8059 161.375Z" fill="#4D2419"/>
<path d="M33.5378 162.007L34.1246 165.055L32.8778 165.234L32.291 162.186L33.5378 162.007Z" fill="#4D2419"/>
<path d="M37.2419 167.263L37.3457 168.352L30.5881 168.832L30.4844 167.743L37.2419 167.263Z" fill="#4D2419"/>
</g>
<g clip-path="url(#clip2)">
<path d="M155.752 58.7682C155.752 58.7682 161.138 62.0126 162.989 70.5717C164.592 77.9828 162.989 83.475 162.989 83.475L144.91 73.037C144.91 73.037 146.536 58.0348 155.752 58.7682Z" fill="#230A00"/>
<path d="M127.578 44.1404C127.578 44.1404 125.718 38.5395 130.952 35.4152C134.848 33.0892 142.891 30.7232 151.333 37.1748C158.789 42.8739 158.224 57.8494 154.484 61.442C150.746 65.0345 127.578 44.1404 127.578 44.1404Z" fill="#230A00"/>
<path d="M140.009 149.995C140.642 148.232 142.239 146.861 142.659 146.517C143.368 145.939 148.077 143.333 148.077 143.333L160.648 147.625V149.988C160.648 150.728 160.258 151.413 159.62 151.79L151.102 156.73C148.17 158.423 144.558 158.423 141.626 156.73C140.609 156.144 139.995 155.211 139.772 154.205L139.768 154.203C139.768 154.203 139.277 152.037 140.009 149.995Z" fill="#42271E"/>
<path d="M118.364 140.391C118.998 138.627 120.594 137.256 121.015 136.913C121.722 136.335 126.433 133.729 126.433 133.729L139.004 138.02V140.383C139.004 141.123 138.613 141.809 137.975 142.186L129.457 147.126C126.525 148.819 122.913 148.819 119.98 147.126C118.964 146.539 118.35 145.607 118.127 144.601L118.122 144.599C118.122 144.599 117.632 142.433 118.364 140.391Z" fill="#42271E"/>
<path d="M114.675 97.5786C114.675 97.5786 114.236 103.196 116.215 107.375C118.194 111.554 122.342 109.159 122.342 109.159L121.824 98.3567L114.675 97.5786Z" fill="#8D5524"/>
<path d="M126.332 60.6743C126.332 60.6743 120.833 63.2769 117.754 70.5344C114.675 77.7927 114.675 97.5786 114.675 97.5786L122.661 101.584L126.332 60.6743Z" fill="#1CA0AA"/>
<path d="M126.332 60.6747C126.332 60.6747 134.517 58.5966 144.953 64.1938C155.388 69.79 161.521 73.578 163.722 77.5368C165.921 81.4953 165.632 109.477 164.601 115.953C163.428 123.321 161.229 129.442 161.229 129.442L160.642 147.624C160.642 147.624 156.182 151.53 149.645 150.666C143.267 149.824 142.313 146.892 142.313 146.892V131.789L138.999 129.875V138.067C138.999 138.067 133.142 142.096 128.482 140.753C122.565 139.047 122.237 136.126 122.237 136.126C122.237 136.126 120.943 115.183 120.943 107.266C120.943 99.3473 117.863 70.6083 126.332 60.6747Z" fill="#8F5BFD"/>
<path d="M144.954 64.1936C149.354 66.554 152.986 68.5911 155.885 70.4565C153.786 71.6809 151.552 73.6751 150.196 75.9238C147.138 80.9907 147.146 89.0054 147.146 89.0054L126.772 77.2429C126.772 77.2429 127.922 65.8579 133.24 60.46C136.419 60.8062 140.478 61.7932 144.954 64.1936Z" fill="#1FC7D4"/>
<path d="M127.578 44.1406C127.578 44.1406 126.772 60.3425 129.045 64.9612C130.12 67.148 132.399 68.3916 134.587 69.0171C138.18 70.0432 145.173 68.5671 148.253 66.3679C150.067 65.0718 150.525 64.4844 150.525 64.4844C150.525 64.4844 152.45 65.8042 153.879 64.8142C155.309 63.8245 156.121 61.4832 155.529 59.5911C154.869 57.4834 154.155 57.2631 153.531 57.0428C152.908 56.8235 151.882 57.7761 151.882 57.7761C151.882 57.7761 143.598 55.2471 138.649 50.6284C133.7 46.0088 131.226 41.0059 131.226 41.0059L127.578 44.1406Z" fill="#8D5524"/>
<path d="M144.908 98.2229L125.333 86.9209V102.212C125.333 108.586 128.734 114.475 134.254 117.663C138.989 120.397 144.908 116.979 144.908 111.51V98.2229Z" fill="#553499"/>
<g clip-path="url(#clip3)">
<path fill-rule="evenodd" clip-rule="evenodd" d="M131.927 99.03C131.915 98.0848 132.706 97.3443 133.553 97.4836C134.303 97.6069 134.812 98.3798 134.678 99.1922L134.376 101.029C134.572 101.061 134.773 101.058 134.969 101.09C135.164 101.122 135.327 101.149 135.517 101.216L135.819 99.3797C135.953 98.5674 136.682 97.9981 137.432 98.1213C138.279 98.2607 138.792 99.2155 138.51 100.112L137.798 102.208C138.97 103.017 139.774 104.238 139.559 105.545L139.425 106.357C139.245 107.452 138.442 108.263 137.398 108.708C136.349 109.189 135.052 109.338 133.651 109.108C132.249 108.877 131.069 108.321 130.228 107.529C129.414 106.779 128.913 105.753 129.093 104.658L129.227 103.846C129.442 102.539 130.561 101.635 131.931 101.243L131.927 99.03ZM137.262 102.41L138.104 99.9368C138.306 99.3171 137.981 98.647 137.362 98.5452C136.841 98.4594 136.342 98.849 136.249 99.4141L135.865 101.745C135.741 101.688 135.578 101.662 135.447 101.64C135.252 101.608 135.095 101.546 134.899 101.514C134.704 101.482 134.508 101.45 134.307 101.453C134.176 101.431 134.008 101.44 133.877 101.418L134.255 99.1225C134.348 98.5574 133.999 98.0286 133.478 97.9428C132.891 97.8464 132.336 98.3718 132.362 99.029L132.368 101.642C130.906 101.982 129.831 102.821 129.645 103.951L129.511 104.763C129.227 106.494 131.113 108.255 133.72 108.684C136.328 109.113 138.679 108.048 138.963 106.317L139.097 105.505C139.321 104.345 138.571 103.206 137.262 102.41Z" fill="#633001"/>
<path d="M139.002 106.287C138.717 108.018 136.366 109.083 133.759 108.654C131.152 108.225 129.265 106.464 129.55 104.733L129.684 103.921L139.168 105.48L139.034 106.293L139.002 106.287Z" fill="#FEDC90"/>
<path fill-rule="evenodd" clip-rule="evenodd" d="M132.362 99.029C132.336 98.3718 132.891 97.8464 133.478 97.9428C133.999 98.0285 134.348 98.5574 134.255 99.1225L133.871 101.454C134.203 101.472 134.535 101.49 134.893 101.549C135.219 101.603 135.539 101.692 135.86 101.781L136.243 99.4494C136.336 98.8843 136.835 98.4948 137.356 98.5805C137.943 98.6769 138.301 99.3524 138.098 99.9721L137.257 102.446C138.533 103.236 139.315 104.38 139.129 105.51C138.845 107.241 136.494 108.306 133.887 107.877C131.279 107.448 129.393 105.687 129.678 103.956C129.863 102.826 130.939 101.987 132.4 101.647L132.362 99.029Z" fill="#D1884F"/>
<path d="M133.107 104.267C133.031 104.726 132.739 105.077 132.446 105.029C132.153 104.981 131.988 104.555 132.064 104.096C132.139 103.637 132.431 103.286 132.725 103.334C133.018 103.382 133.182 103.808 133.107 104.267Z" fill="#633001"/>
<path d="M136.726 104.861C136.65 105.321 136.358 105.672 136.065 105.623C135.772 105.575 135.607 105.149 135.683 104.69C135.758 104.231 136.05 103.88 136.344 103.928C136.637 103.976 136.801 104.402 136.726 104.861Z" fill="#633001"/>
</g>
<path d="M162.032 75.2778C162.739 76.0342 163.302 76.782 163.722 77.5361C165.251 80.2905 165.578 94.6729 165.287 105.351C162.587 106.168 159.54 105.879 157.342 103.856C153.164 100.007 152.174 92.0894 154.483 83.6216C156.575 75.9531 161.181 75.3276 162.032 75.2778Z" fill="#1CA0AA"/>
<path d="M171.199 119.838C171.199 119.838 170.441 127.322 166.727 128.197C162.988 129.076 160.811 126.556 160.224 125.163C159.638 123.771 160.202 116.612 160.202 116.612L171.199 119.838Z" fill="#8D5524"/>
<path d="M162.032 75.2778C162.032 75.2778 168.891 81.8621 171.2 95.6445C173.145 107.259 171.2 119.838 171.2 119.838C171.2 119.838 168.337 120.134 164.931 119.142C160.859 117.956 160.203 116.613 160.203 116.613C160.203 116.613 159.983 102.537 158.883 93.0791C157.783 83.6216 155.945 76.6121 162.032 75.2778Z" fill="#1FC7D4"/>
<path d="M129.468 50.1002C129.468 50.9537 129.988 51.9456 130.627 52.3156C131.268 52.6856 131.787 52.2927 131.787 51.4392C131.787 50.5847 131.268 49.5928 130.627 49.2228C129.988 48.8537 129.468 49.2457 129.468 50.1002Z" fill="#162F4D"/>
<path d="M137.572 54.7608C137.572 55.6153 138.091 56.6071 138.731 56.9762C139.372 57.3462 139.891 56.9543 139.891 56.0998C139.891 55.2462 139.372 54.2544 138.731 53.8844C138.091 53.5143 137.572 53.9073 137.572 54.7608Z" fill="#162F4D"/>
</g>
</g>
<defs>
<linearGradient id="paint0_linear" x1="69.2203" y1="82.3511" x2="69.2203" y2="146.679" gradientUnits="userSpaceOnUse">
<stop stop-color="#54DADE"/>
<stop offset="0.762" stop-color="#24C7D6"/>
</linearGradient>
<linearGradient id="paint1_linear" x1="65.2748" y1="99.3602" x2="65.2748" y2="119.478" gradientUnits="userSpaceOnUse">
<stop stop-color="#9F4A08"/>
<stop offset="0.37" stop-color="#7D3900"/>
<stop offset="1" stop-color="#8D4104"/>
</linearGradient>
<clipPath id="clip0">
<rect width="192" height="192" fill="white"/>
</clipPath>
<clipPath id="clip1">
<rect width="125" height="125" fill="white" transform="translate(0 67)"/>
</clipPath>
<clipPath id="clip2">
<rect width="125" height="125" fill="white" transform="matrix(-1 0 0 1 206 33)"/>
</clipPath>
<clipPath id="clip3">
<rect width="10.4705" height="11.4544" fill="white" transform="translate(130.359 96.9585) rotate(9.33679)"/>
</clipPath>
</defs>
</svg>
