<svg width="192" height="192" viewBox="0 0 192 192" fill="none" xmlns="http://www.w3.org/2000/svg">
<g clip-path="url(#clip0)">
<path d="M3.43555 23.0044H97.5654V97.0247H3.43555V23.0044Z" fill="#FE8A71"/>
<path d="M37.9414 66.9502H63.0592V97.0241H37.9414V66.9502Z" fill="#FAF5E4"/>
<path d="M80.9043 16.5967H101.434V23.0041H80.9043V16.5967Z" fill="#3DA4AB"/>
<path d="M-0.431641 16.5967H20.0982V23.0041H-0.431641V16.5967Z" fill="#3DA4AB"/>
<path d="M20.0977 7.9751V86.2532H29.5835V52.4997H71.4164V86.2532H80.9023V7.9751H20.0977Z" fill="#F6CD61"/>
<path d="M45.2285 33.665H55.7773V44.2138H45.2285V33.665Z" fill="#FAF5E4"/>
<path d="M27.8281 33.665H38.3769V44.2138H27.8281V33.665Z" fill="#FAF5E4"/>
<path d="M62.623 33.665H73.1718V44.2138H62.623V33.665Z" fill="#FAF5E4"/>
<path d="M45.2285 16.2607H55.7773V26.8095H45.2285V16.2607Z" fill="#FAF5E4"/>
<path d="M27.8281 16.2607H38.3769V26.8095H27.8281V16.2607Z" fill="#FAF5E4"/>
<path d="M62.623 16.2607H73.1718V26.8095H62.623V16.2607Z" fill="#FAF5E4"/>
<path d="M16.2305 97.0246L20.0981 86.2534H29.5839L33.4515 97.0246H16.2305Z" fill="#3DA4AB"/>
<path d="M67.5488 97.0246L71.4164 86.2534H80.9023L84.7699 97.0246H67.5488Z" fill="#3DA4AB"/>
<path d="M-0.431641 97.0244H101.433V103.432H-0.431641V97.0244Z" fill="#3DA4AB"/>
<path d="M16.2305 1.56689H84.7703V7.97435H16.2305V1.56689Z" fill="#3DA4AB"/>
<path d="M48.957 66.9502H52.0469V97.0241H48.957V66.9502Z" fill="#3DA4AB"/>
<g clip-path="url(#clip1)">
<path d="M48.8913 85.7981C47.6828 85.7981 46.4979 85.1604 45.7811 83.9822L42.1555 78.0273C41.0186 76.16 41.4884 73.644 43.2046 72.4072C44.9208 71.1712 47.2333 71.6823 48.3702 73.5486L51.9949 79.5036C53.1318 81.3708 52.6628 83.8869 50.9467 85.1237C50.3133 85.5798 49.5981 85.7981 48.8913 85.7981Z" fill="#2B5D99"/>
<path d="M93.8642 150.257L54.8303 86.1836L54.8371 86.1789L52.0017 81.5214C51.3734 80.4901 50.0957 80.2075 49.1478 80.8911C48.0969 81.648 47.5816 82.9528 47.7056 84.2292C47.7275 84.7338 47.8675 85.2384 48.1433 85.6909L89.4274 153.458C90.0316 154.449 90.2265 155.632 89.9758 156.79C89.7251 157.948 89.0665 158.914 88.1196 159.508L74.1062 168.312C72.8327 169.11 72.3965 170.882 73.131 172.268C73.6243 173.197 74.5195 173.716 75.4395 173.716C75.8904 173.716 76.3488 173.591 76.7675 173.328L90.7816 164.524C92.9812 163.143 94.5773 160.807 95.1579 158.116C95.7399 155.426 95.2688 152.562 93.8642 150.257Z" fill="#B6C5CE"/>
<path d="M15.3448 106.845C14.1362 106.845 12.9513 106.207 12.2336 105.029L8.60802 99.0742C7.472 97.2069 7.94176 94.6909 9.65714 93.4541C11.3742 92.2181 13.6867 92.7291 14.8227 94.5955L18.4483 100.55C19.5852 102.418 19.1154 104.934 17.3992 106.171C16.7658 106.627 16.0515 106.845 15.3448 106.845Z" fill="#2B5D99"/>
<path d="M92.4066 176.42C92.4066 166.047 86.6095 153.995 79.459 149.504C76.0981 147.393 73.0369 147.327 70.7352 148.928V148.926L65.6405 152.129L65.6422 152.13C63.0143 153.916 61.3613 157.855 61.3613 163.394C61.3613 173.767 67.1577 185.817 74.3084 190.31C77.4496 192.281 80.3279 192.468 82.5692 191.178L82.5685 191.18L88.0847 187.711H88.08C90.7345 185.939 92.4066 181.988 92.4066 176.42Z" fill="#162F4D"/>
<path d="M87.2567 179.661C87.2567 190.033 81.4603 194.801 74.3091 190.31C67.1586 185.817 61.3613 173.767 61.3613 163.394C61.3613 153.02 67.1586 148.252 74.3091 152.745C81.4603 157.236 87.2567 169.286 87.2567 179.661Z" fill="#2B5D99"/>
<path d="M82.5708 176.715C82.5708 183.333 78.8726 186.375 74.3107 183.51C69.7482 180.644 66.0508 172.956 66.0508 166.339C66.0508 159.721 69.7489 156.679 74.3107 159.545C78.8726 162.41 82.5708 170.097 82.5708 176.715Z" fill="#D6E5E5"/>
<path d="M79.2135 174.608C79.2135 178.537 77.0186 180.344 74.3095 178.642C71.6005 176.941 69.4043 172.376 69.4043 168.446C69.4043 164.516 71.6005 162.711 74.3095 164.412C77.0186 166.113 79.2135 170.678 79.2135 174.608Z" fill="#BF0025"/>
<path d="M102.795 132.857L102.755 132.856C103.122 129.335 100.741 125.587 96.1178 122.848L77.101 111.299C70.6803 107.497 61.458 106.779 55.2416 109.599C46.9817 113.347 39.7659 117.88 33.7991 123.069C31.5963 124.984 30.7521 127.355 31.1763 129.749H31.1755L31.1763 129.75C31.3627 130.801 31.7945 131.857 32.4633 132.881L37.5142 145.167C38.0995 146.942 39.5197 148.692 41.7242 150.161L56.9899 160.08C61.7389 163.243 68.7851 164.397 74.4356 162.937C84.2031 160.412 91.7495 155.672 95.769 149.536C96.0512 149.105 96.2703 148.662 96.4316 148.211L96.4336 148.206C96.4598 148.13 96.4834 148.054 96.5069 147.979L101.268 136.529C101.379 136.369 101.489 136.208 101.595 136.047C102.235 135.071 102.609 134.042 102.739 132.989L102.795 132.857Z" fill="#BF0025"/>
<path d="M33.7986 123.069C29.3085 126.973 30.4504 132.766 36.5049 136.798L54.8902 148.744C60.6098 152.555 69.0956 153.944 75.9007 152.186C87.6649 149.145 96.7542 143.436 101.594 136.046C104.395 131.772 102.182 126.441 96.1171 122.848L77.099 111.299C70.6796 107.497 61.4566 106.779 55.241 109.599C46.9811 113.347 39.7653 117.88 33.7986 123.069Z" fill="#EA2642"/>
<path d="M63.9891 114.834C67.6124 114.834 71.2663 115.766 74.021 117.389L93.0049 128.918L93.064 128.953C95.3369 130.299 96.1662 131.573 96.3637 132.057C92.4222 138.039 84.6346 142.784 74.4276 145.423C72.9753 145.798 71.3819 145.988 69.691 145.988C65.4953 145.988 61.2102 144.802 58.2289 142.816L58.1986 142.795L58.1682 142.776L39.8167 130.852C38.4758 129.955 37.828 129.145 37.5742 128.703C37.6299 128.645 37.7016 128.576 37.7901 128.499C43.2914 123.714 49.991 119.514 57.7027 116.015C59.381 115.254 61.6133 114.834 63.9891 114.834Z" fill="#BF0025"/>
<path d="M58.1969 142.796L58.2273 142.816C61.2085 144.802 65.4937 145.988 69.6897 145.988C71.3805 145.988 72.9733 145.798 74.4255 145.423C78.2884 144.424 81.8032 143.124 84.896 141.569L74.019 134.964C71.2649 133.34 67.6104 132.41 63.9874 132.41C61.6117 132.41 59.3793 132.829 57.701 133.59C55.0192 134.807 52.4629 136.11 50.0332 137.492L58.1665 142.776L58.1969 142.796Z" fill="#8F001C"/>
<path d="M75.4921 170.785C74.7569 169.399 73.1292 168.924 71.8557 169.724L68.6171 171.759C65.3552 173.808 61.1712 172.735 59.0915 169.32L21.2888 107.226L18.4533 102.568C17.825 101.537 16.5474 101.254 15.5994 101.938C14.0957 103.021 13.6842 105.226 14.6802 106.861L16.8501 110.424L54.6529 172.519C57.038 176.437 61.0084 178.587 65.0667 178.587C67.1853 178.587 69.3275 178.001 71.2791 176.775L74.5183 174.741C75.7912 173.941 76.228 172.169 75.4921 170.785Z" fill="#B6C5CE"/>
<path d="M25.4831 122.253C24.563 122.253 23.6682 121.734 23.1757 120.804C22.4403 119.42 22.8763 117.648 24.1498 116.848L57.6834 95.7841C58.9569 94.984 60.5854 95.4593 61.32 96.8439C62.0554 98.2294 61.6194 100.001 60.3459 100.8L26.8123 121.865C26.3931 122.128 25.9352 122.253 25.4831 122.253Z" fill="#B6C5CE"/>
<g style="mix-blend-mode:multiply" opacity="0.1">
<g style="mix-blend-mode:multiply" opacity="0.1">
<g style="mix-blend-mode:multiply" opacity="0.1">
<path d="M68.2481 143.37C82.8468 143.37 94.6815 130.494 94.6815 114.611C94.6815 98.7272 82.8468 85.8511 68.2481 85.8511C53.6492 85.8511 41.8145 98.7272 41.8145 114.611C41.8145 130.494 53.6492 143.37 68.2481 143.37Z" stroke="#191326" stroke-width="3"/>
</g>
</g>
</g>
<g style="mix-blend-mode:multiply" opacity="0.2">
<g style="mix-blend-mode:multiply" opacity="0.2">
<g style="mix-blend-mode:multiply" opacity="0.2">
<g style="mix-blend-mode:multiply" opacity="0.2">
<path fill-rule="evenodd" clip-rule="evenodd" d="M68.2124 143.142C83.3051 143.142 95.5397 129.835 95.5397 113.418C95.5397 97.0012 83.3051 83.6935 68.2124 83.6935C53.1196 83.6935 40.8851 97.0012 40.8851 113.418C40.8851 129.835 53.1196 143.142 68.2124 143.142ZM68.2124 145.216C84.3575 145.216 97.4463 130.979 97.4463 113.418C97.4463 95.8565 84.3575 81.6196 68.2124 81.6196C52.0672 81.6196 38.9785 95.8565 38.9785 113.418C38.9785 130.979 52.0672 145.216 68.2124 145.216Z" fill="#191326"/>
</g>
</g>
</g>
</g>
<path d="M68.8843 145.216C85.0294 145.216 98.1182 130.98 98.1182 113.418C98.1182 95.8562 85.0294 81.6196 68.8843 81.6196C52.7388 81.6196 39.6504 95.8562 39.6504 113.418C39.6504 130.98 52.7388 145.216 68.8843 145.216Z" fill="#F0B90B"/>
<path fill-rule="evenodd" clip-rule="evenodd" d="M56.4434 105.341L68.897 91.7954L73.8628 97.1967L61.4091 110.743L56.4434 105.341ZM56.4521 121.529L76.3547 99.8809L81.3204 105.282L61.4178 126.93L56.4521 121.529ZM83.7976 107.992L63.8956 129.64L68.8614 135.041L88.7633 113.393L83.7976 107.991V107.992ZM49.0059 113.429L53.9716 108.028L58.9373 113.429L53.9716 118.831L49.0059 113.429Z" fill="#FFFDFA"/>
<g style="mix-blend-mode:multiply" opacity="0.2">
<g style="mix-blend-mode:multiply" opacity="0.2">
<path d="M68.8844 144.18C84.5034 144.18 97.1654 130.408 97.1654 113.418C97.1654 96.4292 84.5034 82.6567 68.8844 82.6567C53.2653 82.6567 40.6035 96.4292 40.6035 113.418C40.6035 130.408 53.2653 144.18 68.8844 144.18Z" stroke="#191326" stroke-width="2.837"/>
</g>
</g>
<path d="M26.8082 173.252C26.8082 173.252 23.8998 156.213 46.4085 156.213C46.4085 156.213 46.2822 164.427 41.3505 168.697C36.4187 172.968 26.8082 173.252 26.8082 173.252Z" fill="#47B85B"/>
<path d="M46.4091 156.213C46.4091 156.213 46.2826 164.437 41.3509 168.697C36.4191 172.957 26.8086 173.252 26.8086 173.252C31.0702 166.578 36.8112 162.035 40.9462 159.282C43.3742 157.665 46.4091 156.213 46.4091 156.213Z" fill="#399349"/>
<path d="M20.2333 164.733C20.2333 164.733 23.1418 147.694 0.632812 147.694C0.632812 147.694 0.75927 155.908 5.69101 160.178C10.6228 164.449 20.2333 164.733 20.2333 164.733Z" fill="#47B85B"/>
<path d="M20.2333 164.733C20.2333 164.733 10.61 164.438 5.69101 160.178C0.75927 155.918 0.632812 147.694 0.632812 147.694C0.632812 147.694 4.93229 149.802 6.63941 150.84C11.4067 153.756 17.7168 158.529 20.2333 164.733Z" fill="#399349"/>
<path d="M24.1541 191.635L22.8895 191.58C22.9023 191.416 23.8506 175.294 19.6397 164.918C17.1864 158.856 11.0155 154.171 6.27344 151.298L6.99423 150.402C11.888 153.362 18.2615 158.223 20.8285 164.558C25.1278 175.131 24.1669 191.471 24.1541 191.635Z" fill="#2B6E37"/>
<path d="M5.10136 152.939L10.7539 153.051L10.7247 154.144L5.07227 154.031L5.10136 152.939Z" fill="#2B6E37"/>
<path d="M14.9758 153.466L15.5521 157.092L14.2989 157.241L13.7227 153.615L14.9758 153.466Z" fill="#2B6E37"/>
<path d="M11.9535 159.104L17.2013 159.127L17.1951 160.219L11.9473 160.197L11.9535 159.104Z" fill="#2B6E37"/>
<path d="M23.7994 179.052L22.6992 178.516C23.8119 176.791 25.0007 174.934 26.2527 172.979C30.6026 166.185 36.4323 161.543 40.5673 158.845L41.3261 159.719C37.2922 162.351 31.6016 166.884 27.3654 173.514C26.1134 175.469 24.9121 177.326 23.7994 179.052Z" fill="#2B6E37"/>
<path d="M42.8059 161.375L42.912 162.463L36.7722 162.91L36.666 161.821L42.8059 161.375Z" fill="#2B6E37"/>
<path d="M33.5378 162.007L34.1246 165.055L32.8778 165.234L32.291 162.186L33.5378 162.007Z" fill="#2B6E37"/>
<path d="M37.2419 167.263L37.3457 168.352L30.5881 168.832L30.4844 167.743L37.2419 167.263Z" fill="#2B6E37"/>
<path d="M17.6151 165.06C14.4918 164.678 8.73802 163.597 5.23523 160.56C0.189683 156.191 0 148.043 0 147.705C0 147.563 0.0632279 147.421 0.177035 147.311C0.290842 147.202 0.467876 147.147 0.632262 147.147C7.94136 147.147 13.4042 148.917 16.8816 152.39C22.0285 157.546 20.9155 164.514 20.8651 164.809L19.6131 164.645L20.2328 164.722L19.6131 164.645C19.6258 164.58 20.6879 157.862 15.9207 153.089C12.7972 149.976 7.87813 148.349 1.28984 148.24C1.42893 150.129 2.17502 156.355 6.13306 159.785C9.37027 162.592 14.8332 163.608 17.7922 163.968L17.6151 165.06Z" fill="#4D2419"/>
<path d="M26.8082 173.798C26.4919 173.798 26.2264 173.602 26.1885 173.329C26.138 173.034 25.0125 166.065 30.1719 160.91C33.6368 157.436 39.0997 155.667 46.4087 155.667C46.5731 155.667 46.7375 155.722 46.8638 155.831C46.9903 155.94 47.0536 156.071 47.041 156.224C47.041 156.574 46.8513 164.711 41.793 169.08C36.7475 173.449 27.2254 173.787 26.8207 173.798H26.8082ZM45.7511 156.759C39.1627 156.858 34.2563 158.496 31.133 161.609C27.1116 165.617 27.2381 171.013 27.3772 172.662C29.5143 172.52 36.8993 171.767 40.9079 168.304C44.866 164.886 45.612 158.66 45.7511 156.759Z" fill="#4D2419"/>
<path d="M24.1541 191.635L22.8895 191.58C22.9023 191.416 23.8506 175.294 19.6397 164.918C17.1864 158.856 11.0155 154.171 6.27344 151.298L6.99423 150.402C11.888 153.362 18.2615 158.223 20.8285 164.558C25.1278 175.131 24.1669 191.471 24.1541 191.635Z" fill="#4D2419"/>
<path d="M5.10136 152.939L10.7539 153.051L10.7247 154.144L5.07227 154.031L5.10136 152.939Z" fill="#4D2419"/>
<path d="M14.9758 153.466L15.5521 157.092L14.2989 157.241L13.7227 153.615L14.9758 153.466Z" fill="#4D2419"/>
<path d="M11.9535 159.104L17.2013 159.127L17.1951 160.219L11.9473 160.197L11.9535 159.104Z" fill="#4D2419"/>
<path d="M23.7994 179.052L22.6992 178.516C23.8119 176.791 25.0007 174.934 26.2527 172.979C30.6026 166.185 36.4323 161.543 40.5673 158.845L41.3261 159.719C37.2922 162.351 31.6016 166.884 27.3654 173.514C26.1134 175.469 24.9121 177.326 23.7994 179.052Z" fill="#4D2419"/>
<path d="M42.8059 161.375L42.912 162.463L36.7722 162.91L36.666 161.821L42.8059 161.375Z" fill="#4D2419"/>
<path d="M33.5378 162.007L34.1246 165.055L32.8778 165.234L32.291 162.186L33.5378 162.007Z" fill="#4D2419"/>
<path d="M37.2419 167.263L37.3457 168.352L30.5881 168.832L30.4844 167.743L37.2419 167.263Z" fill="#4D2419"/>
</g>
</g>
<defs>
<clipPath id="clip0">
<rect width="192" height="192" fill="white"/>
</clipPath>
<clipPath id="clip1">
<rect width="125" height="125" fill="white" transform="translate(0 67)"/>
</clipPath>
</defs>
</svg>
