<svg width="192" height="192" viewBox="0 0 192 192" fill="none" xmlns="http://www.w3.org/2000/svg">
<g clip-path="url(#clip0)">
<path d="M3.43555 23.0044H97.5654V97.0247H3.43555V23.0044Z" fill="#FE8A71"/>
<path d="M37.9414 66.9502H63.0592V97.0241H37.9414V66.9502Z" fill="#FAF5E4"/>
<path d="M80.9043 16.5967H101.434V23.0041H80.9043V16.5967Z" fill="#3DA4AB"/>
<path d="M-0.431641 16.5967H20.0982V23.0041H-0.431641V16.5967Z" fill="#3DA4AB"/>
<path d="M20.0977 7.9751V86.2532H29.5835V52.4997H71.4164V86.2532H80.9023V7.9751H20.0977Z" fill="#F6CD61"/>
<path d="M45.2285 33.665H55.7773V44.2138H45.2285V33.665Z" fill="#FAF5E4"/>
<path d="M27.8281 33.665H38.3769V44.2138H27.8281V33.665Z" fill="#FAF5E4"/>
<path d="M62.623 33.665H73.1718V44.2138H62.623V33.665Z" fill="#FAF5E4"/>
<path d="M45.2285 16.2607H55.7773V26.8095H45.2285V16.2607Z" fill="#FAF5E4"/>
<path d="M27.8281 16.2607H38.3769V26.8095H27.8281V16.2607Z" fill="#FAF5E4"/>
<path d="M62.623 16.2607H73.1718V26.8095H62.623V16.2607Z" fill="#FAF5E4"/>
<path d="M16.2305 97.0246L20.0981 86.2534H29.5839L33.4515 97.0246H16.2305Z" fill="#3DA4AB"/>
<path d="M67.5488 97.0246L71.4164 86.2534H80.9023L84.7699 97.0246H67.5488Z" fill="#3DA4AB"/>
<path d="M-0.431641 97.0244H101.433V103.432H-0.431641V97.0244Z" fill="#3DA4AB"/>
<path d="M16.2305 1.56689H84.7703V7.97435H16.2305V1.56689Z" fill="#3DA4AB"/>
<path d="M48.957 66.9502H52.0469V97.0241H48.957V66.9502Z" fill="#3DA4AB"/>
<g clip-path="url(#clip1)">
<path d="M48.8914 85.7981C47.6828 85.7981 46.4979 85.1604 45.7811 83.9822L42.1555 78.0273C41.0186 76.16 41.4884 73.644 43.2046 72.4072C44.9209 71.1712 47.2333 71.6823 48.3702 73.5486L51.9949 79.5036C53.1318 81.3708 52.6629 83.8868 50.9467 85.1237C50.3133 85.5798 49.5981 85.7981 48.8914 85.7981Z" fill="#2B5D99"/>
<path d="M93.8642 150.257L54.8303 86.1835L54.8371 86.1789L52.0017 81.5214C51.3734 80.4901 50.0957 80.2075 49.1478 80.8911C48.0969 81.648 47.5816 82.9528 47.7056 84.2292C47.7275 84.7338 47.8675 85.2384 48.1433 85.6909L89.4274 153.458C90.0316 154.449 90.2265 155.632 89.9758 156.79C89.7251 157.948 89.0665 158.914 88.1196 159.508L74.1062 168.311C72.8326 169.11 72.3965 170.882 73.131 172.268C73.6243 173.197 74.5195 173.716 75.4395 173.716C75.8904 173.716 76.3488 173.591 76.7675 173.328L90.7816 164.524C92.9812 163.143 94.5773 160.807 95.1579 158.116C95.7399 155.425 95.2688 152.561 93.8642 150.257Z" fill="#B6C5CE"/>
<path d="M15.3448 106.845C14.1362 106.845 12.9513 106.208 12.2336 105.03L8.60802 99.0746C7.472 97.2074 7.94176 94.6914 9.65714 93.4545C11.3742 92.2186 13.6867 92.7296 14.8227 94.596L18.4483 100.551C19.5852 102.418 19.1154 104.934 17.3992 106.171C16.7658 106.627 16.0515 106.845 15.3448 106.845Z" fill="#2B5D99"/>
<path d="M92.4066 176.42C92.4066 166.047 86.6095 153.995 79.459 149.504C76.0981 147.393 73.0369 147.327 70.7352 148.928V148.926L65.6405 152.129L65.6422 152.13C63.0143 153.916 61.3613 157.855 61.3613 163.394C61.3613 173.767 67.1577 185.817 74.3084 190.31C77.4496 192.281 80.3279 192.468 82.5692 191.178L82.5685 191.18L88.0846 187.711H88.0799C90.7345 185.939 92.4066 181.988 92.4066 176.42Z" fill="#162F4D"/>
<path d="M87.2567 179.661C87.2567 190.034 81.4603 194.801 74.3091 190.31C67.1586 185.817 61.3613 173.767 61.3613 163.394C61.3613 153.021 67.1586 148.252 74.3091 152.745C81.4603 157.236 87.2567 169.287 87.2567 179.661Z" fill="#2B5D99"/>
<path d="M82.5689 176.715C82.5689 183.333 78.8706 186.375 74.3088 183.51C69.7463 180.644 66.0488 172.956 66.0488 166.339C66.0488 159.721 69.7469 156.679 74.3088 159.545C78.8706 162.41 82.5689 170.097 82.5689 176.715Z" fill="#D6E5E5"/>
<path d="M79.2134 174.608C79.2134 178.537 77.0185 180.344 74.3095 178.642C71.6005 176.941 69.4043 172.376 69.4043 168.446C69.4043 164.516 71.6005 162.711 74.3095 164.412C77.0185 166.113 79.2134 170.678 79.2134 174.608Z" fill="#BF0025"/>
<path d="M102.795 132.857L102.755 132.856C103.122 129.335 100.741 125.587 96.1178 122.848L77.101 111.299C70.6803 107.497 61.458 106.779 55.2416 109.599C46.9817 113.347 39.7659 117.88 33.7991 123.069C31.5963 124.984 30.7521 127.355 31.1763 129.749H31.1755L31.1763 129.75C31.3627 130.801 31.7945 131.857 32.4633 132.881L37.5142 145.167C38.0995 146.942 39.5197 148.692 41.7242 150.161L56.9899 160.08C61.7389 163.243 68.7851 164.397 74.4356 162.937C84.2031 160.412 91.7495 155.672 95.769 149.536C96.0512 149.105 96.2703 148.662 96.4316 148.211L96.4336 148.206C96.4598 148.13 96.4834 148.054 96.5069 147.979L101.268 136.529C101.379 136.369 101.489 136.208 101.595 136.047C102.235 135.071 102.609 134.042 102.739 132.99L102.795 132.857Z" fill="#BF0025"/>
<path d="M33.7986 123.069C29.3085 126.973 30.4504 132.766 36.5049 136.798L54.8902 148.744C60.6098 152.555 69.0956 153.944 75.9007 152.186C87.6648 149.145 96.7542 143.436 101.594 136.046C104.395 131.772 102.182 126.441 96.1171 122.848L77.099 111.299C70.6796 107.497 61.4566 106.779 55.241 109.599C46.9811 113.347 39.7653 117.88 33.7986 123.069Z" fill="#EA2642"/>
<path d="M63.9891 114.834C67.6124 114.834 71.2663 115.766 74.021 117.389L93.0049 128.918L93.064 128.953C95.3369 130.299 96.1662 131.573 96.3637 132.057C92.4222 138.039 84.6346 142.784 74.4276 145.423C72.9753 145.798 71.3819 145.988 69.691 145.988C65.4953 145.988 61.2102 144.802 58.2289 142.816L58.1986 142.795L58.1682 142.776L39.8167 130.852C38.4758 129.955 37.828 129.145 37.5742 128.703C37.6299 128.645 37.7016 128.576 37.7901 128.499C43.2914 123.714 49.991 119.514 57.7027 116.015C59.381 115.254 61.6133 114.834 63.9891 114.834Z" fill="#BF0025"/>
<path d="M58.1969 142.796L58.2273 142.816C61.2085 144.802 65.4937 145.988 69.6897 145.988C71.3805 145.988 72.9733 145.798 74.4255 145.423C78.2885 144.424 81.8032 143.124 84.896 141.569L74.019 134.964C71.2649 133.34 67.6104 132.41 63.9874 132.41C61.6117 132.41 59.3793 132.829 57.701 133.59C55.0192 134.807 52.4629 136.11 50.0332 137.492L58.1665 142.776L58.1969 142.796Z" fill="#8F001C"/>
<path d="M75.4902 170.785C74.7549 169.399 73.1273 168.925 71.8537 169.725L68.6152 171.759C65.3532 173.809 61.1693 172.736 59.0896 169.32L21.2868 107.226L18.4514 102.569C17.8231 101.537 16.5454 101.255 15.5975 101.938C14.0938 103.021 13.6822 105.226 14.6782 106.861L16.8482 110.425L54.651 172.519C57.036 176.437 61.0065 178.588 65.0648 178.588C67.1833 178.588 69.3255 178.002 71.2771 176.776L74.5164 174.741C75.7892 173.942 76.2261 172.17 75.4902 170.785Z" fill="#B6C5CE"/>
<path d="M25.4831 122.253C24.563 122.253 23.6682 121.734 23.1757 120.804C22.4403 119.42 22.8763 117.648 24.1498 116.848L57.6834 95.7841C58.9569 94.984 60.5855 95.4593 61.32 96.8439C62.0554 98.2294 61.6194 100.001 60.3459 100.8L26.8123 121.865C26.3931 122.128 25.9352 122.253 25.4831 122.253Z" fill="#B6C5CE"/>
<path d="M26.8102 173.252C26.8102 173.252 23.9017 156.213 46.4105 156.213C46.4105 156.213 46.2842 164.427 41.3524 168.697C36.4207 172.968 26.8102 173.252 26.8102 173.252Z" fill="#47B85B"/>
<path d="M46.4091 156.213C46.4091 156.213 46.2826 164.437 41.3509 168.697C36.4191 172.957 26.8086 173.252 26.8086 173.252C31.0702 166.578 36.8112 162.035 40.9462 159.282C43.3742 157.665 46.4091 156.213 46.4091 156.213Z" fill="#399349"/>
<path d="M20.2333 164.732C20.2333 164.732 23.1418 147.693 0.632812 147.693C0.632812 147.693 0.75927 155.907 5.69101 160.178C10.6228 164.448 20.2333 164.732 20.2333 164.732Z" fill="#47B85B"/>
<path d="M20.2333 164.732C20.2333 164.732 10.61 164.438 5.69101 160.178C0.75927 155.918 0.632812 147.693 0.632812 147.693C0.632812 147.693 4.93229 149.801 6.63941 150.839C11.4067 153.755 17.7168 158.528 20.2333 164.732Z" fill="#399349"/>
<path d="M24.1522 191.635L22.8876 191.58C22.9004 191.416 23.8487 175.294 19.6378 164.918C17.1845 158.856 11.0135 154.171 6.27148 151.298L6.99227 150.402C11.886 153.362 18.2595 158.223 20.8265 164.558C25.1258 175.131 24.1649 191.471 24.1522 191.635Z" fill="#2B6E37"/>
<path d="M5.10136 152.939L10.7539 153.051L10.7247 154.144L5.07227 154.031L5.10136 152.939Z" fill="#2B6E37"/>
<path d="M14.9758 153.466L15.5521 157.092L14.2989 157.241L13.7227 153.615L14.9758 153.466Z" fill="#2B6E37"/>
<path d="M11.9554 159.104L17.2032 159.127L17.197 160.219L11.9492 160.197L11.9554 159.104Z" fill="#2B6E37"/>
<path d="M23.7994 179.052L22.6992 178.516C23.8119 176.791 25.0007 174.934 26.2527 172.979C30.6027 166.185 36.4323 161.543 40.5673 158.845L41.3261 159.719C37.2922 162.351 31.6017 166.884 27.3654 173.514C26.1134 175.469 24.9121 177.326 23.7994 179.052Z" fill="#2B6E37"/>
<path d="M42.8059 161.375L42.912 162.464L36.7722 162.911L36.666 161.822L42.8059 161.375Z" fill="#2B6E37"/>
<path d="M33.5378 162.007L34.1246 165.055L32.8778 165.234L32.291 162.186L33.5378 162.007Z" fill="#2B6E37"/>
<path d="M37.24 167.263L37.3437 168.352L30.5862 168.832L30.4824 167.743L37.24 167.263Z" fill="#2B6E37"/>
<path d="M17.6151 165.06C14.4918 164.678 8.73802 163.597 5.23523 160.56C0.189683 156.191 0 148.043 0 147.705C0 147.563 0.0632279 147.421 0.177035 147.311C0.290842 147.202 0.467876 147.147 0.632262 147.147C7.94136 147.147 13.4042 148.917 16.8816 152.39C22.0285 157.546 20.9155 164.514 20.8651 164.809L19.6131 164.645L20.2328 164.722L19.6131 164.645C19.6258 164.58 20.6879 157.862 15.9207 153.089C12.7972 149.976 7.87813 148.349 1.28984 148.24C1.42893 150.129 2.17502 156.355 6.13306 159.785C9.37026 162.592 14.8331 163.608 17.7922 163.968L17.6151 165.06Z" fill="#4D2419"/>
<path d="M26.8082 173.798C26.4919 173.798 26.2264 173.602 26.1885 173.329C26.138 173.034 25.0125 166.065 30.1719 160.91C33.6368 157.436 39.0997 155.667 46.4087 155.667C46.5731 155.667 46.7375 155.722 46.8638 155.831C46.9903 155.94 47.0536 156.071 47.041 156.224C47.041 156.574 46.8513 164.711 41.793 169.08C36.7475 173.449 27.2254 173.787 26.8207 173.798H26.8082ZM45.7511 156.759C39.1627 156.858 34.2563 158.496 31.133 161.609C27.1116 165.617 27.2381 171.013 27.3772 172.662C29.5143 172.52 36.8993 171.767 40.9079 168.304C44.866 164.886 45.612 158.66 45.7511 156.759Z" fill="#4D2419"/>
<path d="M24.1522 191.635L22.8876 191.58C22.9004 191.416 23.8487 175.294 19.6378 164.918C17.1845 158.856 11.0135 154.171 6.27148 151.298L6.99227 150.402C11.886 153.362 18.2595 158.223 20.8265 164.558C25.1258 175.131 24.1649 191.471 24.1522 191.635Z" fill="#4D2419"/>
<path d="M5.10136 152.939L10.7539 153.051L10.7247 154.144L5.07227 154.031L5.10136 152.939Z" fill="#4D2419"/>
<path d="M14.9758 153.466L15.5521 157.092L14.2989 157.241L13.7227 153.615L14.9758 153.466Z" fill="#4D2419"/>
<path d="M11.9554 159.104L17.2032 159.127L17.197 160.219L11.9492 160.197L11.9554 159.104Z" fill="#4D2419"/>
<path d="M23.7994 179.052L22.6992 178.516C23.8119 176.791 25.0007 174.934 26.2527 172.979C30.6027 166.185 36.4323 161.543 40.5673 158.845L41.3261 159.719C37.2922 162.351 31.6017 166.884 27.3654 173.514C26.1134 175.469 24.9121 177.326 23.7994 179.052Z" fill="#4D2419"/>
<path d="M42.8059 161.375L42.912 162.464L36.7722 162.911L36.666 161.822L42.8059 161.375Z" fill="#4D2419"/>
<path d="M33.5378 162.007L34.1246 165.055L32.8778 165.234L32.291 162.186L33.5378 162.007Z" fill="#4D2419"/>
<path d="M37.24 167.263L37.3437 168.352L30.5862 168.832L30.4824 167.743L37.24 167.263Z" fill="#4D2419"/>
<g clip-path="url(#clip2)">
<path d="M101.25 113.667C101.25 130.925 88.267 144.917 71.008 144.917C53.7492 144.917 38.75 130.925 38.75 113.667C38.75 96.4076 53.7492 82.4165 71.008 82.4165C88.267 82.4165 101.25 96.4076 101.25 113.667Z" fill="#2B6E37"/>
<path d="M101.25 113.667C101.25 130.925 88.267 144.917 71.008 144.917C53.7492 144.917 38.75 130.925 38.75 113.667C38.75 96.4076 53.7492 82.4165 71.008 82.4165C88.267 82.4165 101.25 96.4076 101.25 113.667Z" fill="#2B6E37"/>
<path d="M101.25 113.667C101.25 130.925 88.267 144.917 71.008 144.917C53.7492 144.917 38.75 130.925 38.75 113.667C38.75 96.4076 53.7492 82.4165 71.008 82.4165C88.267 82.4165 101.25 96.4076 101.25 113.667Z" fill="#2B6E37"/>
<path d="M100.273 113.667C100.273 130.656 87.6961 143.94 70.9766 143.94C54.257 143.94 39.7266 130.656 39.7266 113.667C39.7266 96.6773 54.257 83.3931 70.9766 83.3931C87.6961 83.3931 100.273 96.6773 100.273 113.667Z" fill="white"/>
<path d="M100.273 113.667C100.273 130.656 87.6961 143.94 70.9766 143.94C54.257 143.94 39.7266 130.656 39.7266 113.667C39.7266 96.6773 54.257 83.3931 70.9766 83.3931C87.6961 83.3931 100.273 96.6773 100.273 113.667Z" fill="white"/>
<path d="M100.273 113.667C100.273 130.656 87.6961 143.94 70.9766 143.94C54.257 143.94 39.7266 130.656 39.7266 113.667C39.7266 96.6773 54.257 83.3931 70.9766 83.3931C87.6961 83.3931 100.273 96.6773 100.273 113.667Z" fill="white"/>
<path d="M68.8086 141.926C69.8156 142.872 71.2195 143.33 72.959 143.33C75.4615 143.33 77.0484 142.079 77.0484 140.186C77.0484 138.905 76.2549 138.142 75.1258 137.776C74.5766 137.592 73.8441 137.348 72.898 137.135C71.1279 136.708 70.2734 136.25 70.2734 135.121C70.2734 133.839 71.3111 133.045 73.0506 133.045C74.3018 133.045 75.3395 133.473 76.377 134.358L76.8957 133.35C75.9803 132.435 74.607 131.947 73.0506 131.947C70.6092 131.947 68.9918 133.259 68.9918 135.182C68.9918 136.494 69.7547 137.287 70.8533 137.745C71.4027 137.959 72.1045 138.142 72.959 138.355C74.79 138.783 75.7361 139.057 75.7666 140.248C75.7973 141.499 74.7596 142.231 72.959 142.231C71.4637 142.231 70.3955 141.865 69.2664 140.95L68.8086 141.926Z" fill="#4D2419"/>
<path d="M75.583 116.654C75.583 116.654 72.7359 101.32 94.7699 101.32C94.7699 101.32 94.6462 108.712 89.8185 112.555C84.9908 116.399 75.583 116.654 75.583 116.654Z" fill="#47B85B"/>
<path d="M94.7711 101.32C94.7711 101.32 94.6473 108.722 89.8195 112.555C84.9918 116.389 75.584 116.654 75.584 116.654C79.7557 110.648 85.3756 106.559 89.4234 104.082C91.8002 102.627 94.7711 101.32 94.7711 101.32Z" fill="#399349"/>
<path d="M69.1441 108.987C69.1441 108.987 71.9912 93.6523 49.957 93.6523C49.957 93.6523 50.0808 101.044 54.9085 104.888C59.7363 108.731 69.1441 108.987 69.1441 108.987Z" fill="#47B85B"/>
<path d="M69.1441 108.987C69.1441 108.987 59.7238 108.721 54.9085 104.888C50.0808 101.054 49.957 93.6523 49.957 93.6523C49.957 93.6523 54.1658 95.5495 55.8369 96.4833C60.5037 99.1079 66.6806 103.403 69.1441 108.987Z" fill="#399349"/>
<path d="M72.984 133.198L71.7461 133.149C71.7586 133.001 72.6869 118.492 68.5648 109.154C66.1633 103.699 60.1225 99.4816 55.4805 96.8964L56.1861 96.0903C60.9766 98.7542 67.2156 103.128 69.7285 108.83C73.9371 118.345 72.9965 133.05 72.984 133.198Z" fill="#2B6E37"/>
<path d="M54.3351 98.3735L59.8684 98.4746L59.8399 99.4577L54.3066 99.3566L54.3351 98.3735Z" fill="#2B6E37"/>
<path d="M64.0021 98.8477L64.5662 102.111L63.3395 102.245L62.7754 98.9813L64.0021 98.8477Z" fill="#2B6E37"/>
<path d="M61.0412 103.922L66.1783 103.943L66.1723 104.926L61.0352 104.905L61.0412 103.922Z" fill="#2B6E37"/>
<path d="M72.6375 121.874L71.5605 121.392C72.6498 119.839 73.8135 118.168 75.0391 116.408C79.2973 110.294 85.0039 106.117 89.0518 103.689L89.7945 104.475C85.8457 106.844 80.2752 110.924 76.1283 116.89C74.9027 118.65 73.7268 120.321 72.6375 121.874Z" fill="#2B6E37"/>
<path d="M91.2428 105.965L91.3467 106.945L85.3363 107.347L85.2324 106.367L91.2428 105.965Z" fill="#2B6E37"/>
<path d="M82.1736 106.534L82.748 109.277L81.5275 109.438L80.9531 106.696L82.1736 106.534Z" fill="#2B6E37"/>
<path d="M85.7967 111.264L85.8983 112.244L79.2832 112.676L79.1816 111.696L85.7967 111.264Z" fill="#2B6E37"/>
<path d="M66.5834 109.282C63.5259 108.938 57.8936 107.965 54.4646 105.232C49.5255 101.3 49.3398 93.9672 49.3398 93.6625C49.3398 93.5347 49.4017 93.4069 49.5131 93.3086C49.6246 93.2103 49.7979 93.1611 49.9588 93.1611C57.1137 93.1611 62.4613 94.7536 65.8654 97.8794C70.9037 102.519 69.8142 108.791 69.7648 109.056L68.5392 108.909L69.1459 108.977L68.5392 108.909C68.5517 108.85 69.5914 102.804 64.9248 98.5085C61.8671 95.707 57.0518 94.2424 50.6025 94.1441C50.7386 95.8447 51.469 101.448 55.3435 104.534C58.5125 107.061 63.8601 107.975 66.7568 108.299L66.5834 109.282Z" fill="#4D2419"/>
<path d="M75.5832 117.146C75.2736 117.146 75.0137 116.969 74.9766 116.723C74.9272 116.457 73.8254 110.186 78.876 105.546C82.2678 102.421 87.6154 100.828 94.7703 100.828C94.9313 100.828 95.0922 100.877 95.2158 100.976C95.3397 101.074 95.4016 101.192 95.3893 101.329C95.3893 101.644 95.2035 108.967 90.252 112.899C85.3129 116.831 75.9916 117.136 75.5955 117.146H75.5832ZM94.1266 101.811C87.6772 101.9 82.8742 103.374 79.8168 106.175C75.8803 109.783 76.0041 114.639 76.1402 116.123C78.2322 115.996 85.4615 115.317 89.3856 112.201C93.2602 109.124 93.9904 103.522 94.1266 101.811Z" fill="#4D2419"/>
<path d="M72.984 133.198L71.7461 133.149C71.7586 133.001 72.6869 118.492 68.5648 109.154C66.1633 103.699 60.1225 99.4816 55.4805 96.8964L56.1861 96.0903C60.9766 98.7542 67.2156 103.128 69.7285 108.83C73.9371 118.345 72.9965 133.05 72.984 133.198Z" fill="#4D2419"/>
<path d="M54.3351 98.3735L59.8684 98.4746L59.8399 99.4577L54.3066 99.3566L54.3351 98.3735Z" fill="#4D2419"/>
<path d="M64.0021 98.8477L64.5662 102.111L63.3395 102.245L62.7754 98.9813L64.0021 98.8477Z" fill="#4D2419"/>
<path d="M61.0412 103.922L66.1783 103.943L66.1723 104.926L61.0352 104.905L61.0412 103.922Z" fill="#4D2419"/>
<path d="M72.6375 121.874L71.5605 121.392C72.6498 119.839 73.8135 118.168 75.0391 116.408C79.2973 110.294 85.0039 106.117 89.0518 103.689L89.7945 104.475C85.8457 106.844 80.2752 110.924 76.1283 116.89C74.9027 118.65 73.7268 120.321 72.6375 121.874Z" fill="#4D2419"/>
<path d="M91.2428 105.965L91.3467 106.945L85.3363 107.347L85.2324 106.367L91.2428 105.965Z" fill="#4D2419"/>
<path d="M82.1736 106.534L82.748 109.277L81.5275 109.438L80.9531 106.696L82.1736 106.534Z" fill="#4D2419"/>
<path d="M85.7967 111.264L85.8983 112.244L79.2832 112.676L79.1816 111.696L85.7967 111.264Z" fill="#4D2419"/>
</g>
</g>
<g clip-path="url(#clip3)">
<path d="M158.831 49.9092C158.831 49.9092 162.608 49.4133 166.271 51.1301C169.933 52.8469 170.695 54.3723 170.695 54.3723C170.695 54.3723 168.412 57.0899 163.486 56.2033C158.558 55.3166 156.009 50.6282 156.009 50.6282C156.009 50.6282 157.125 45.7058 159.456 44.0475C161.642 42.4923 164.554 42.6996 164.554 42.6996C164.554 42.6996 165.012 45.446 163.353 47.8878C162.09 49.7435 158.831 49.9092 158.831 49.9092Z" fill="#2A6D36"/>
<path d="M140.463 153.249C141.156 151.32 142.901 149.822 143.362 149.446C144.135 148.814 149.284 145.965 149.284 145.965L163.027 151.364V153.24C163.027 154.049 162.601 154.799 161.904 155.211L152.592 160.612C149.386 162.463 145.436 162.463 142.231 160.612C141.12 159.97 140.449 158.951 140.206 157.851L140.2 157.849C140.2 157.85 139.663 155.48 140.463 153.249Z" fill="#2B5D99"/>
<path d="M119.178 140.851C119.871 138.923 121.616 137.424 122.075 137.048C122.85 136.416 127.999 133.567 127.999 133.567L141.742 138.966V140.842C141.742 141.652 141.315 142.401 140.619 142.813L131.305 148.214C128.1 150.065 124.15 150.065 120.946 148.214C119.834 147.572 119.163 146.553 118.92 145.453L118.914 145.451C118.913 145.452 118.377 143.083 119.178 140.851Z" fill="#2B5D99"/>
<path d="M115.803 84.5088C115.803 84.5088 115.059 88.9331 115.803 92.3669C116.547 95.7995 121.411 96.9441 121.411 96.9441L123.928 86.9308L115.803 84.5088Z" fill="#F8DB8F"/>
<path d="M132.57 56.2031C132.57 56.2031 125.186 56.4065 120.838 67.4445C116.489 78.4813 115.803 84.5088 115.803 84.5088C115.803 84.5088 118.702 87.4079 122.211 88.3232C125.721 89.2388 132.57 56.2031 132.57 56.2031Z" fill="#E9D155"/>
<path d="M132.571 56.2031C132.571 56.2031 126.331 57.4746 123.89 67.4445C121.448 77.4131 119.693 94.3982 120.686 108.542C121.906 125.936 124.015 135.831 124.015 135.831C124.015 135.831 125.402 139.822 130.241 141.585C134.19 143.024 141.819 141.421 141.819 139.047V130.361L142.963 131.181L144.566 148.328C144.566 148.328 144.527 151.017 147.388 152.677C153.198 156.046 162.189 154.203 163.028 151.861C164.404 148.024 168.217 114.797 168.217 106.329C168.217 97.8597 168.998 77.4332 166.386 73.1404C161.579 65.2447 132.571 56.2031 132.571 56.2031Z" fill="#2C92BF"/>
<path d="M129.535 76.6881C129.535 76.6881 129.535 74.1709 130.258 69.5927C130.98 65.0153 132.569 59.0645 132.569 59.0645C133.003 58.1243 133.506 57.3387 134.059 56.6841C138.479 58.138 151.741 62.7035 160.045 67.739C158.592 68.6802 156.738 70.2511 154.826 72.8547C150.627 78.5736 150.02 86.6451 150.02 86.6451L129.535 76.6881Z" fill="#E9D155"/>
<path d="M176.57 112.966C176.57 112.966 176.965 120.322 171.192 120.633C163.753 121.034 164.096 110.792 164.096 110.792L176.57 112.966Z" fill="#F8DB8F"/>
<path d="M129.534 60.474C129.019 58.9653 129.499 57.7989 129.534 57.0531C129.568 56.3073 129.133 53.915 129.248 52.3697C129.362 50.8245 130.258 49.547 130.258 49.547C130.27 46.269 130.449 43.844 130.449 43.844C130.635 36.7495 135.828 29.653 146.929 32.7436C158.03 35.8331 158.83 49.909 158.83 49.909L159.873 57.2326L159.871 57.2316C160.837 58.894 160.474 62.4961 159.746 63.2987C157.801 65.444 155.464 65.0669 154.897 64.9341C154.788 65.4041 154.596 65.8535 154.253 66.2166C153.281 67.247 151.221 66.6747 150.533 67.4445C149.847 68.2131 150.019 68.6772 148.703 69.8218C147.386 70.9664 145.899 70.5081 144.363 70.6798C142.827 70.8514 143.667 71.8244 142.294 72.6831C140.921 73.541 139.032 72.2824 138.575 73.198C138.117 74.1134 136.515 74.6857 134.798 73.8277C133.081 72.9687 133.025 70.0509 132.052 69.1355C131.079 68.2199 131.194 67.8193 130.849 66.3763C130.504 64.9341 129.649 65.072 129.229 63.4127C128.81 61.7534 130.048 61.9825 129.534 60.474Z" fill="#F8DB8F"/>
<path d="M163.41 103.582C163.41 103.582 156.428 99.6907 156.887 90.4214C157.345 81.1518 163.305 70.0246 165.978 72.5457C173.71 79.8355 176.227 92.9396 176.57 98.6614C176.913 104.383 176.57 112.966 176.57 112.966C176.57 112.966 173.891 114.013 170.848 113.882C167.806 113.751 164.096 110.792 164.096 110.792L163.41 103.582Z" fill="#E9D155"/>
<path d="M147.615 96.9439L128.647 85.9932V100.811C128.647 106.987 131.942 112.694 137.29 115.783C141.878 118.432 147.615 115.12 147.615 109.821V96.9439Z" fill="#2B5D99"/>
<path d="M139.225 47.7351C135.402 46.1611 132.599 44.2846 130.551 42.4725C131.334 35.8749 136.547 29.8526 146.93 32.7428C158.032 35.8333 158.832 49.9092 158.832 49.9092C158.832 49.9092 150.897 52.5415 139.225 47.7351Z" fill="#399349"/>
<path d="M143.467 43.3398C143.467 43.3398 145.244 38.5169 150.213 41.5498C150.213 41.5498 149.019 43.6687 147.324 44.1148C145.629 44.5609 143.467 43.3398 143.467 43.3398Z" fill="#47B85B"/>
<path d="M150.213 41.5504C150.213 41.5504 149.017 43.6722 147.324 44.1154C145.63 44.5587 143.467 43.3404 143.467 43.3404C145.355 42.1791 147.268 41.7711 148.572 41.6125C149.337 41.5192 150.213 41.5504 150.213 41.5504Z" fill="#399349"/>
<path d="M143.225 40.2385C143.225 40.2385 146.287 36.1994 141.318 33.1665C141.318 33.1665 140.18 35.3195 140.662 37.0946C141.144 38.8697 143.225 40.2385 143.225 40.2385Z" fill="#47B85B"/>
<path d="M143.226 40.2385C143.226 40.2385 141.143 38.8652 140.663 37.0946C140.179 35.3224 141.319 33.1665 141.319 33.1665C141.319 33.1665 141.969 34.294 142.198 34.7939C142.836 36.1946 143.552 38.2861 143.226 40.2385Z" fill="#399349"/>
<path d="M140.271 47.7626L140 47.5781C140.026 47.5371 142.525 43.4725 143.069 40.2068C143.388 38.2998 142.692 36.2498 142.053 34.8638L142.339 34.728C142.999 36.1572 143.716 38.2799 143.383 40.2732C142.83 43.602 140.297 47.7216 140.271 47.7626Z" fill="#2B6E37"/>
<path d="M141.56 35.1328L142.792 35.9236L142.63 36.2037L141.398 35.4129L141.56 35.1328Z" fill="#2B6E37"/>
<path d="M143.666 36.6004L143.278 37.621L142.98 37.4908L143.368 36.4702L143.666 36.6004Z" fill="#2B6E37"/>
<path d="M142.198 37.6602L143.353 38.3731L143.196 38.6563L142.041 37.9433L142.198 37.6602Z" fill="#2B6E37"/>
<path d="M141.979 44.4427L141.812 44.1553C142.303 43.8564 142.829 43.5337 143.383 43.194C145.308 42.0134 147.254 41.5917 148.55 41.4473L148.594 41.7767C147.329 41.9178 145.43 42.3298 143.553 43.4831C142.999 43.8228 142.47 44.1438 141.979 44.4427Z" fill="#2B6E37"/>
<path d="M148.685 42.4069L148.553 42.7044L147.135 41.9933L147.266 41.6958L148.685 42.4069Z" fill="#2B6E37"/>
<path d="M146.551 41.3231L146.248 42.1947L145.947 42.0733L146.251 41.2017L146.551 41.3231Z" fill="#2B6E37"/>
<path d="M146.622 43.1885L146.49 43.4857L144.93 42.7L145.062 42.4028L146.622 43.1885Z" fill="#2B6E37"/>
<path d="M142.602 39.9711C141.967 39.4509 140.85 38.3944 140.508 37.1328C140.015 35.3169 141.13 33.1724 141.179 33.0843C141.199 33.0474 141.233 33.019 141.273 33.0059C141.314 32.9928 141.361 33.0025 141.397 33.0246C143.011 34.0095 143.965 35.2057 144.24 36.5775C144.644 38.6116 143.408 40.2738 143.355 40.3437L143.102 40.1324L143.228 40.2358L143.102 40.1324C143.114 40.1171 144.303 38.5134 143.928 36.6298C143.681 35.3994 142.826 34.3134 141.387 33.3973C141.15 33.9074 140.43 35.627 140.817 37.0521C141.133 38.2183 142.194 39.2185 142.796 39.711L142.602 39.9711Z" fill="white"/>
<path d="M143.39 43.4818C143.321 43.4392 143.29 43.3523 143.32 43.2762C143.351 43.1927 144.092 41.2289 145.963 40.5834C147.221 40.147 148.679 40.423 150.292 41.4078C150.328 41.4299 150.357 41.4663 150.369 41.5117C150.382 41.5572 150.377 41.5998 150.352 41.6379C150.303 41.7287 149.105 43.8192 147.368 44.2739C145.634 44.7302 143.484 43.5352 143.393 43.4835L143.39 43.4818ZM149.992 41.6032C148.523 40.7411 147.208 40.506 146.076 40.8947C144.619 41.3953 143.881 42.8155 143.677 43.2631C144.169 43.5141 145.906 44.3132 147.283 43.9529C148.642 43.5972 149.691 42.0787 149.992 41.6032Z" fill="white"/>
<path d="M140.271 47.7626L140 47.5781C140.026 47.5371 142.525 43.4725 143.069 40.2068C143.388 38.2998 142.692 36.2498 142.053 34.8638L142.339 34.728C142.999 36.1572 143.716 38.2799 143.383 40.2732C142.83 43.602 140.297 47.7216 140.271 47.7626Z" fill="white"/>
<path d="M141.56 35.1328L142.792 35.9236L142.63 36.2037L141.398 35.4129L141.56 35.1328Z" fill="white"/>
<path d="M143.666 36.6004L143.278 37.621L142.98 37.4908L143.368 36.4702L143.666 36.6004Z" fill="white"/>
<path d="M142.198 37.6602L143.353 38.3731L143.196 38.6563L142.041 37.9433L142.198 37.6602Z" fill="white"/>
<path d="M141.979 44.4427L141.812 44.1553C142.303 43.8564 142.829 43.5337 143.383 43.194C145.308 42.0134 147.254 41.5917 148.55 41.4473L148.594 41.7767C147.329 41.9178 145.43 42.3298 143.553 43.4831C142.999 43.8228 142.47 44.1438 141.979 44.4427Z" fill="white"/>
<path d="M148.685 42.4069L148.553 42.7044L147.135 41.9933L147.266 41.6958L148.685 42.4069Z" fill="white"/>
<path d="M146.551 41.3231L146.248 42.1947L145.947 42.0733L146.251 41.2017L146.551 41.3231Z" fill="white"/>
<path d="M146.622 43.1885L146.49 43.4857L144.93 42.7L145.062 42.4028L146.622 43.1885Z" fill="white"/>
<path d="M143.467 43.3398C143.467 43.3398 145.244 38.5169 150.213 41.5498C150.213 41.5498 149.019 43.6687 147.324 44.1148C145.629 44.5609 143.467 43.3398 143.467 43.3398Z" fill="#47B85B"/>
<path d="M150.213 41.5504C150.213 41.5504 149.017 43.6722 147.324 44.1154C145.63 44.5587 143.467 43.3404 143.467 43.3404C145.355 42.1791 147.268 41.7711 148.572 41.6125C149.337 41.5192 150.213 41.5504 150.213 41.5504Z" fill="#399349"/>
<path d="M143.225 40.2385C143.225 40.2385 146.287 36.1994 141.318 33.1665C141.318 33.1665 140.18 35.3195 140.662 37.0946C141.144 38.8697 143.225 40.2385 143.225 40.2385Z" fill="#47B85B"/>
<path d="M143.226 40.2385C143.226 40.2385 141.143 38.8652 140.663 37.0946C140.179 35.3224 141.319 33.1665 141.319 33.1665C141.319 33.1665 141.969 34.294 142.198 34.7939C142.836 36.1946 143.552 38.2861 143.226 40.2385Z" fill="#399349"/>
<path d="M140.271 47.7626L140 47.5781C140.026 47.5371 142.525 43.4725 143.069 40.2068C143.388 38.2998 142.692 36.2498 142.053 34.8638L142.339 34.728C142.999 36.1572 143.716 38.2799 143.383 40.2732C142.83 43.602 140.297 47.7216 140.271 47.7626Z" fill="#2B6E37"/>
<path d="M141.56 35.1328L142.792 35.9236L142.63 36.2037L141.398 35.4129L141.56 35.1328Z" fill="#2B6E37"/>
<path d="M143.666 36.6004L143.278 37.621L142.98 37.4908L143.368 36.4702L143.666 36.6004Z" fill="#2B6E37"/>
<path d="M142.198 37.6602L143.353 38.3731L143.196 38.6563L142.041 37.9433L142.198 37.6602Z" fill="#2B6E37"/>
<path d="M141.979 44.4427L141.812 44.1553C142.303 43.8564 142.829 43.5337 143.383 43.194C145.308 42.0134 147.254 41.5917 148.55 41.4473L148.594 41.7767C147.329 41.9178 145.43 42.3298 143.553 43.4831C142.999 43.8228 142.47 44.1438 141.979 44.4427Z" fill="#2B6E37"/>
<path d="M148.685 42.4069L148.553 42.7044L147.135 41.9933L147.266 41.6958L148.685 42.4069Z" fill="#2B6E37"/>
<path d="M146.551 41.3231L146.248 42.1947L145.947 42.0733L146.251 41.2017L146.551 41.3231Z" fill="#2B6E37"/>
<path d="M146.622 43.1885L146.49 43.4857L144.93 42.7L145.062 42.4028L146.622 43.1885Z" fill="#2B6E37"/>
<path d="M142.602 39.9711C141.967 39.4509 140.85 38.3944 140.508 37.1328C140.015 35.3169 141.13 33.1724 141.179 33.0843C141.199 33.0474 141.233 33.019 141.273 33.0059C141.314 32.9928 141.361 33.0025 141.397 33.0246C143.011 34.0095 143.965 35.2057 144.24 36.5775C144.644 38.6116 143.408 40.2738 143.355 40.3437L143.102 40.1324L143.228 40.2358L143.102 40.1324C143.114 40.1171 144.303 38.5134 143.928 36.6298C143.681 35.3994 142.826 34.3134 141.387 33.3973C141.15 33.9074 140.43 35.627 140.817 37.0521C141.133 38.2183 142.194 39.2185 142.796 39.711L142.602 39.9711Z" fill="white"/>
<path d="M143.39 43.4818C143.321 43.4392 143.29 43.3523 143.32 43.2762C143.351 43.1927 144.092 41.2289 145.963 40.5834C147.221 40.147 148.679 40.423 150.292 41.4078C150.328 41.4299 150.357 41.4663 150.369 41.5117C150.382 41.5572 150.377 41.5998 150.352 41.6379C150.303 41.7287 149.105 43.8192 147.368 44.2739C145.634 44.7302 143.484 43.5352 143.393 43.4835L143.39 43.4818ZM149.992 41.6032C148.523 40.7411 147.208 40.506 146.076 40.8947C144.619 41.3953 143.881 42.8155 143.677 43.2631C144.169 43.5141 145.906 44.3132 147.283 43.9529C148.642 43.5972 149.691 42.0787 149.992 41.6032Z" fill="white"/>
<path d="M140.271 47.7626L140 47.5781C140.026 47.5371 142.525 43.4725 143.069 40.2068C143.388 38.2998 142.692 36.2498 142.053 34.8638L142.339 34.728C142.999 36.1572 143.716 38.2799 143.383 40.2732C142.83 43.602 140.297 47.7216 140.271 47.7626Z" fill="white"/>
<path d="M141.56 35.1328L142.792 35.9236L142.63 36.2037L141.398 35.4129L141.56 35.1328Z" fill="white"/>
<path d="M143.666 36.6004L143.278 37.621L142.98 37.4908L143.368 36.4702L143.666 36.6004Z" fill="white"/>
<path d="M142.198 37.6602L143.353 38.3731L143.196 38.6563L142.041 37.9433L142.198 37.6602Z" fill="white"/>
<path d="M141.979 44.4427L141.812 44.1553C142.303 43.8564 142.829 43.5337 143.383 43.194C145.308 42.0134 147.254 41.5917 148.55 41.4473L148.594 41.7767C147.329 41.9178 145.43 42.3298 143.553 43.4831C142.999 43.8228 142.47 44.1438 141.979 44.4427Z" fill="white"/>
<path d="M148.685 42.4069L148.553 42.7044L147.135 41.9933L147.266 41.6958L148.685 42.4069Z" fill="white"/>
<path d="M146.551 41.3231L146.248 42.1947L145.947 42.0733L146.251 41.2017L146.551 41.3231Z" fill="white"/>
<path d="M146.622 43.1885L146.49 43.4857L144.93 42.7L145.062 42.4028L146.622 43.1885Z" fill="white"/>
<path d="M129.535 60.4739C129.02 58.9652 129.5 57.7987 129.535 57.053C129.57 56.3071 129.134 53.9149 129.249 52.3696C129.364 50.8243 130.259 49.5469 130.259 49.5469L149.186 60.4739L154.193 57.5837C154.048 56.2446 153.796 54.0309 153.568 52.68C153.443 51.9411 153.198 51.232 152.936 50.627C156.665 50.626 158.831 49.9089 158.831 49.9089L159.875 57.2325C159.875 57.2325 157.588 55.8033 155.856 58.3205C155.097 59.4255 155.112 61.6391 155.056 62.5546C154.998 63.471 155.227 65.1869 154.254 66.2175C153.281 67.2468 151.221 66.6745 150.535 67.4444C149.848 68.214 150.02 68.6781 148.704 69.8217C147.388 70.9663 145.9 70.509 144.364 70.6807C142.828 70.8523 143.668 71.8243 142.295 72.683C140.922 73.5409 139.034 72.2823 138.577 73.1979C138.118 74.1132 136.516 74.6855 134.8 73.8276C133.083 72.9696 133.025 70.0507 132.053 69.1354C131.08 68.2198 131.194 67.8191 130.85 66.3762C130.505 64.934 129.65 65.0729 129.23 63.4136C128.81 61.7543 130.05 61.9823 129.535 60.4739Z" fill="#4D2316"/>
<path d="M133.068 48.1648C133.068 48.8095 133.46 49.5593 133.945 49.838C134.429 50.1177 134.82 49.8212 134.82 49.1755C134.82 48.5308 134.429 47.781 133.945 47.5023C133.46 47.2226 133.068 47.5192 133.068 48.1648Z" fill="#162F4D"/>
<path d="M140.941 52.6155C140.941 53.2602 141.332 54.01 141.816 54.2897C142.301 54.5684 142.693 54.2719 142.693 53.6272C142.693 52.9815 142.301 52.2317 141.816 51.953C141.332 51.6733 140.941 51.9699 140.941 52.6155Z" fill="#162F4D"/>
<path d="M137.569 56.8557L133.991 54.7907C133.475 54.4932 132.831 54.8651 132.831 55.4612V56.4024C132.831 57.3417 133.333 58.2096 134.146 58.6796L137.722 60.7446C138.238 61.0422 138.883 60.6702 138.883 60.0741V59.1328C138.883 58.1936 138.382 57.3258 137.569 56.8557Z" fill="#F8DB8F"/>
<path d="M156.887 90.421C157.135 85.3923 159.004 79.8214 161.087 76.1753C160.119 80.3231 161.049 86.039 161.579 90.1919C162.266 95.5715 163.41 103.581 163.41 103.581C163.41 103.581 156.429 99.6906 156.887 90.421Z" fill="#BFAB44"/>
</g>
</g>
<defs>
<clipPath id="clip0">
<rect width="192" height="192" fill="white"/>
</clipPath>
<clipPath id="clip1">
<rect width="125" height="125" fill="white" transform="translate(0 67)"/>
</clipPath>
<clipPath id="clip2">
<rect width="62.5" height="62.5" fill="white" transform="translate(38.75 82.4165)"/>
</clipPath>
<clipPath id="clip3">
<rect width="130" height="130" fill="white" transform="matrix(-1 0 0 1 211 32)"/>
</clipPath>
</defs>
</svg>
