<svg width="192" height="192" viewBox="0 0 192 192" fill="none" xmlns="http://www.w3.org/2000/svg">
<g clip-path="url(#clip0)">
<path d="M3.43555 23.0044H97.5654V97.0247H3.43555V23.0044Z" fill="#FE8A71"/>
<path d="M37.9414 66.9502H63.0592V97.0241H37.9414V66.9502Z" fill="#FAF5E4"/>
<path d="M80.9043 16.5967H101.434V23.0041H80.9043V16.5967Z" fill="#3DA4AB"/>
<path d="M-0.431641 16.5967H20.0982V23.0041H-0.431641V16.5967Z" fill="#3DA4AB"/>
<path d="M20.0977 7.9751V86.2532H29.5835V52.4997H71.4164V86.2532H80.9023V7.9751H20.0977Z" fill="#F6CD61"/>
<path d="M45.2285 33.665H55.7773V44.2138H45.2285V33.665Z" fill="#FAF5E4"/>
<path d="M27.8281 33.665H38.3769V44.2138H27.8281V33.665Z" fill="#FAF5E4"/>
<path d="M62.623 33.665H73.1718V44.2138H62.623V33.665Z" fill="#FAF5E4"/>
<path d="M45.2285 16.2607H55.7773V26.8095H45.2285V16.2607Z" fill="#FAF5E4"/>
<path d="M27.8281 16.2607H38.3769V26.8095H27.8281V16.2607Z" fill="#FAF5E4"/>
<path d="M62.623 16.2607H73.1718V26.8095H62.623V16.2607Z" fill="#FAF5E4"/>
<path d="M16.2305 97.0246L20.0981 86.2534H29.5839L33.4515 97.0246H16.2305Z" fill="#3DA4AB"/>
<path d="M67.5488 97.0246L71.4164 86.2534H80.9023L84.7699 97.0246H67.5488Z" fill="#3DA4AB"/>
<path d="M-0.431641 97.0244H101.433V103.432H-0.431641V97.0244Z" fill="#3DA4AB"/>
<path d="M16.2305 1.56689H84.7703V7.97435H16.2305V1.56689Z" fill="#3DA4AB"/>
<path d="M48.957 66.9502H52.0469V97.0241H48.957V66.9502Z" fill="#3DA4AB"/>
<g clip-path="url(#clip1)">
<path d="M48.8914 85.7981C47.6828 85.7981 46.4979 85.1604 45.7811 83.9822L42.1555 78.0273C41.0186 76.16 41.4884 73.644 43.2046 72.4072C44.9209 71.1712 47.2333 71.6823 48.3702 73.5486L51.9949 79.5036C53.1318 81.3708 52.6629 83.8868 50.9467 85.1237C50.3133 85.5798 49.5981 85.7981 48.8914 85.7981Z" fill="#2B5D99"/>
<path d="M93.8642 150.257L54.8303 86.1835L54.8371 86.1789L52.0017 81.5214C51.3734 80.4901 50.0957 80.2075 49.1478 80.8911C48.0969 81.648 47.5816 82.9528 47.7056 84.2292C47.7275 84.7338 47.8675 85.2384 48.1433 85.6909L89.4274 153.458C90.0316 154.449 90.2265 155.632 89.9758 156.79C89.7251 157.948 89.0665 158.914 88.1196 159.508L74.1062 168.311C72.8326 169.11 72.3965 170.882 73.131 172.268C73.6243 173.197 74.5195 173.716 75.4395 173.716C75.8904 173.716 76.3488 173.591 76.7675 173.328L90.7816 164.524C92.9812 163.143 94.5773 160.807 95.1579 158.116C95.7399 155.425 95.2688 152.561 93.8642 150.257Z" fill="#B6C5CE"/>
<path d="M15.3448 106.845C14.1362 106.845 12.9513 106.208 12.2336 105.03L8.60802 99.0746C7.472 97.2074 7.94176 94.6914 9.65714 93.4545C11.3742 92.2186 13.6867 92.7296 14.8227 94.596L18.4483 100.551C19.5852 102.418 19.1154 104.934 17.3992 106.171C16.7658 106.627 16.0515 106.845 15.3448 106.845Z" fill="#2B5D99"/>
<path d="M92.4066 176.42C92.4066 166.047 86.6095 153.995 79.459 149.504C76.0981 147.393 73.0369 147.327 70.7352 148.928V148.926L65.6405 152.129L65.6422 152.13C63.0143 153.916 61.3613 157.855 61.3613 163.394C61.3613 173.767 67.1577 185.817 74.3084 190.31C77.4496 192.281 80.3279 192.468 82.5692 191.178L82.5685 191.18L88.0846 187.711H88.0799C90.7345 185.939 92.4066 181.988 92.4066 176.42Z" fill="#162F4D"/>
<path d="M87.2567 179.661C87.2567 190.034 81.4603 194.801 74.3091 190.31C67.1586 185.817 61.3613 173.767 61.3613 163.394C61.3613 153.021 67.1586 148.252 74.3091 152.745C81.4603 157.236 87.2567 169.287 87.2567 179.661Z" fill="#2B5D99"/>
<path d="M82.5689 176.715C82.5689 183.333 78.8706 186.375 74.3088 183.51C69.7463 180.644 66.0488 172.956 66.0488 166.339C66.0488 159.721 69.7469 156.679 74.3088 159.545C78.8706 162.41 82.5689 170.097 82.5689 176.715Z" fill="#D6E5E5"/>
<path d="M79.2134 174.608C79.2134 178.537 77.0185 180.344 74.3095 178.642C71.6005 176.941 69.4043 172.376 69.4043 168.446C69.4043 164.516 71.6005 162.711 74.3095 164.412C77.0185 166.113 79.2134 170.678 79.2134 174.608Z" fill="#BF0025"/>
<path d="M102.795 132.857L102.755 132.856C103.122 129.335 100.741 125.587 96.1178 122.848L77.101 111.299C70.6803 107.497 61.458 106.779 55.2416 109.599C46.9817 113.347 39.7659 117.88 33.7991 123.069C31.5963 124.984 30.7521 127.355 31.1763 129.749H31.1755L31.1763 129.75C31.3627 130.801 31.7945 131.857 32.4633 132.881L37.5142 145.167C38.0995 146.942 39.5197 148.692 41.7242 150.161L56.9899 160.08C61.7389 163.243 68.7851 164.397 74.4356 162.937C84.2031 160.412 91.7495 155.672 95.769 149.536C96.0512 149.105 96.2703 148.662 96.4316 148.211L96.4336 148.206C96.4598 148.13 96.4834 148.054 96.5069 147.979L101.268 136.529C101.379 136.369 101.489 136.208 101.595 136.047C102.235 135.071 102.609 134.042 102.739 132.99L102.795 132.857Z" fill="#BF0025"/>
<path d="M33.7986 123.069C29.3085 126.973 30.4504 132.766 36.5049 136.798L54.8902 148.744C60.6098 152.555 69.0956 153.944 75.9007 152.186C87.6648 149.145 96.7542 143.436 101.594 136.046C104.395 131.772 102.182 126.441 96.1171 122.848L77.099 111.299C70.6796 107.497 61.4566 106.779 55.241 109.599C46.9811 113.347 39.7653 117.88 33.7986 123.069Z" fill="#EA2642"/>
<path d="M63.9891 114.834C67.6124 114.834 71.2663 115.766 74.021 117.389L93.0049 128.918L93.064 128.953C95.3369 130.299 96.1662 131.573 96.3637 132.057C92.4222 138.039 84.6346 142.784 74.4276 145.423C72.9753 145.798 71.3819 145.988 69.691 145.988C65.4953 145.988 61.2102 144.802 58.2289 142.816L58.1986 142.795L58.1682 142.776L39.8167 130.852C38.4758 129.955 37.828 129.145 37.5742 128.703C37.6299 128.645 37.7016 128.576 37.7901 128.499C43.2914 123.714 49.991 119.514 57.7027 116.015C59.381 115.254 61.6133 114.834 63.9891 114.834Z" fill="#BF0025"/>
<path d="M58.1969 142.796L58.2273 142.816C61.2085 144.802 65.4937 145.988 69.6897 145.988C71.3805 145.988 72.9733 145.798 74.4255 145.423C78.2885 144.424 81.8032 143.124 84.896 141.569L74.019 134.964C71.2649 133.34 67.6104 132.41 63.9874 132.41C61.6117 132.41 59.3793 132.829 57.701 133.59C55.0192 134.807 52.4629 136.11 50.0332 137.492L58.1665 142.776L58.1969 142.796Z" fill="#8F001C"/>
<path d="M75.4902 170.785C74.7549 169.399 73.1273 168.925 71.8537 169.725L68.6152 171.759C65.3532 173.809 61.1693 172.736 59.0896 169.32L21.2868 107.226L18.4514 102.569C17.8231 101.537 16.5454 101.255 15.5975 101.938C14.0938 103.021 13.6822 105.226 14.6782 106.861L16.8482 110.425L54.651 172.519C57.036 176.437 61.0065 178.588 65.0648 178.588C67.1833 178.588 69.3255 178.002 71.2771 176.776L74.5164 174.741C75.7892 173.942 76.2261 172.17 75.4902 170.785Z" fill="#B6C5CE"/>
<path d="M25.4831 122.253C24.563 122.253 23.6682 121.734 23.1757 120.804C22.4403 119.42 22.8763 117.648 24.1498 116.848L57.6834 95.7841C58.9569 94.984 60.5855 95.4593 61.32 96.8439C62.0554 98.2294 61.6194 100.001 60.3459 100.8L26.8123 121.865C26.3931 122.128 25.9352 122.253 25.4831 122.253Z" fill="#B6C5CE"/>
<path d="M68.2466 144.939C83.6417 144.939 96.1222 131.361 96.1222 114.611C96.1222 97.8612 83.6417 84.2827 68.2466 84.2827C52.8514 84.2827 40.3711 97.8612 40.3711 114.611C40.3711 131.361 52.8514 144.939 68.2466 144.939Z" fill="#F0B90B"/>
<path d="M57.8526 114.611L53.5877 119.284L49.293 114.611L53.5877 109.938L57.8526 114.611ZM68.2481 103.301L75.5942 111.293L79.8886 106.62L72.5438 98.6605L68.2481 93.9878L56.6377 106.619L60.9324 111.292L68.2481 103.301ZM82.9088 109.938L78.644 114.611L82.939 119.284L87.2038 114.611L82.9088 109.938ZM68.2481 125.921L60.9036 117.929L56.6387 122.602L68.2481 135.234L79.8879 122.571L75.5929 117.93L68.2481 125.921ZM68.2481 119.284L72.5432 114.611L68.2481 109.938L63.9536 114.611L68.2481 119.284Z" fill="#FFFDFA"/>
<g style="mix-blend-mode:multiply" opacity="0.1">
<g style="mix-blend-mode:multiply" opacity="0.1">
<path d="M68.2461 143.37C82.8449 143.37 94.6795 130.494 94.6795 114.611C94.6795 98.7272 82.8449 85.8511 68.2461 85.8511C53.6472 85.8511 41.8125 98.7272 41.8125 114.611C41.8125 130.494 53.6472 143.37 68.2461 143.37Z" stroke="#191326" stroke-width="3"/>
</g>
</g>
<path d="M26.8102 173.252C26.8102 173.252 23.9017 156.213 46.4105 156.213C46.4105 156.213 46.2842 164.427 41.3524 168.697C36.4207 172.968 26.8102 173.252 26.8102 173.252Z" fill="#47B85B"/>
<path d="M46.4091 156.213C46.4091 156.213 46.2826 164.437 41.3509 168.697C36.4191 172.957 26.8086 173.252 26.8086 173.252C31.0702 166.578 36.8112 162.035 40.9462 159.282C43.3742 157.665 46.4091 156.213 46.4091 156.213Z" fill="#399349"/>
<path d="M20.2333 164.732C20.2333 164.732 23.1418 147.693 0.632812 147.693C0.632812 147.693 0.75927 155.907 5.69101 160.178C10.6228 164.448 20.2333 164.732 20.2333 164.732Z" fill="#47B85B"/>
<path d="M20.2333 164.732C20.2333 164.732 10.61 164.438 5.69101 160.178C0.75927 155.918 0.632812 147.693 0.632812 147.693C0.632812 147.693 4.93229 149.801 6.63941 150.839C11.4067 153.755 17.7168 158.528 20.2333 164.732Z" fill="#399349"/>
<path d="M24.1522 191.635L22.8876 191.58C22.9004 191.416 23.8487 175.294 19.6378 164.918C17.1845 158.856 11.0135 154.171 6.27148 151.298L6.99227 150.402C11.886 153.362 18.2595 158.223 20.8265 164.558C25.1258 175.131 24.1649 191.471 24.1522 191.635Z" fill="#2B6E37"/>
<path d="M5.10136 152.939L10.7539 153.051L10.7247 154.144L5.07227 154.031L5.10136 152.939Z" fill="#2B6E37"/>
<path d="M14.9758 153.466L15.5521 157.092L14.2989 157.241L13.7227 153.615L14.9758 153.466Z" fill="#2B6E37"/>
<path d="M11.9554 159.104L17.2032 159.127L17.197 160.219L11.9492 160.197L11.9554 159.104Z" fill="#2B6E37"/>
<path d="M23.7994 179.052L22.6992 178.516C23.8119 176.791 25.0007 174.934 26.2527 172.979C30.6027 166.185 36.4323 161.543 40.5673 158.845L41.3261 159.719C37.2922 162.351 31.6017 166.884 27.3654 173.514C26.1134 175.469 24.9121 177.326 23.7994 179.052Z" fill="#2B6E37"/>
<path d="M42.8059 161.375L42.912 162.464L36.7722 162.911L36.666 161.822L42.8059 161.375Z" fill="#2B6E37"/>
<path d="M33.5378 162.007L34.1246 165.055L32.8778 165.234L32.291 162.186L33.5378 162.007Z" fill="#2B6E37"/>
<path d="M37.24 167.263L37.3437 168.352L30.5862 168.832L30.4824 167.743L37.24 167.263Z" fill="#2B6E37"/>
<path d="M17.6151 165.06C14.4918 164.678 8.73802 163.597 5.23523 160.56C0.189683 156.191 0 148.043 0 147.705C0 147.563 0.0632279 147.421 0.177035 147.311C0.290842 147.202 0.467876 147.147 0.632262 147.147C7.94136 147.147 13.4042 148.917 16.8816 152.39C22.0285 157.546 20.9155 164.514 20.8651 164.809L19.6131 164.645L20.2328 164.722L19.6131 164.645C19.6258 164.58 20.6879 157.862 15.9207 153.089C12.7972 149.976 7.87813 148.349 1.28984 148.24C1.42893 150.129 2.17502 156.355 6.13306 159.785C9.37026 162.592 14.8331 163.608 17.7922 163.968L17.6151 165.06Z" fill="#4D2419"/>
<path d="M26.8082 173.798C26.4919 173.798 26.2264 173.602 26.1885 173.329C26.138 173.034 25.0125 166.065 30.1719 160.91C33.6368 157.436 39.0997 155.667 46.4087 155.667C46.5731 155.667 46.7375 155.722 46.8638 155.831C46.9903 155.94 47.0536 156.071 47.041 156.224C47.041 156.574 46.8513 164.711 41.793 169.08C36.7475 173.449 27.2254 173.787 26.8207 173.798H26.8082ZM45.7511 156.759C39.1627 156.858 34.2563 158.496 31.133 161.609C27.1116 165.617 27.2381 171.013 27.3772 172.662C29.5143 172.52 36.8993 171.767 40.9079 168.304C44.866 164.886 45.612 158.66 45.7511 156.759Z" fill="#4D2419"/>
<path d="M24.1522 191.635L22.8876 191.58C22.9004 191.416 23.8487 175.294 19.6378 164.918C17.1845 158.856 11.0135 154.171 6.27148 151.298L6.99227 150.402C11.886 153.362 18.2595 158.223 20.8265 164.558C25.1258 175.131 24.1649 191.471 24.1522 191.635Z" fill="#4D2419"/>
<path d="M5.10136 152.939L10.7539 153.051L10.7247 154.144L5.07227 154.031L5.10136 152.939Z" fill="#4D2419"/>
<path d="M14.9758 153.466L15.5521 157.092L14.2989 157.241L13.7227 153.615L14.9758 153.466Z" fill="#4D2419"/>
<path d="M11.9554 159.104L17.2032 159.127L17.197 160.219L11.9492 160.197L11.9554 159.104Z" fill="#4D2419"/>
<path d="M23.7994 179.052L22.6992 178.516C23.8119 176.791 25.0007 174.934 26.2527 172.979C30.6027 166.185 36.4323 161.543 40.5673 158.845L41.3261 159.719C37.2922 162.351 31.6017 166.884 27.3654 173.514C26.1134 175.469 24.9121 177.326 23.7994 179.052Z" fill="#4D2419"/>
<path d="M42.8059 161.375L42.912 162.464L36.7722 162.911L36.666 161.822L42.8059 161.375Z" fill="#4D2419"/>
<path d="M33.5378 162.007L34.1246 165.055L32.8778 165.234L32.291 162.186L33.5378 162.007Z" fill="#4D2419"/>
<path d="M37.24 167.263L37.3437 168.352L30.5862 168.832L30.4824 167.743L37.24 167.263Z" fill="#4D2419"/>
</g>
<g clip-path="url(#clip2)">
<path d="M155.752 59.7682C155.752 59.7682 161.138 63.0126 162.989 71.5717C164.592 78.9828 162.989 84.475 162.989 84.475L144.91 74.037C144.91 74.037 146.536 59.0348 155.752 59.7682Z" fill="#BD4B1E"/>
<path d="M127.578 45.1404C127.578 45.1404 125.718 39.5395 130.952 36.4152C134.848 34.0892 142.891 31.7232 151.333 38.1748C158.789 43.8739 158.224 58.8494 154.484 62.442C150.746 66.0345 127.578 45.1404 127.578 45.1404Z" fill="#EF5F26"/>
<path d="M140.009 150.995C140.642 149.232 142.239 147.861 142.659 147.517C143.368 146.939 148.077 144.333 148.077 144.333L160.648 148.625V150.988C160.648 151.728 160.258 152.413 159.62 152.79L151.102 157.73C148.17 159.423 144.558 159.423 141.626 157.73C140.609 157.144 139.995 156.211 139.772 155.205L139.768 155.203C139.768 155.203 139.277 153.037 140.009 150.995Z" fill="#42271E"/>
<path d="M118.364 141.391C118.998 139.627 120.594 138.256 121.015 137.913C121.722 137.335 126.433 134.729 126.433 134.729L139.004 139.02V141.383C139.004 142.123 138.613 142.809 137.975 143.186L129.457 148.126C126.525 149.819 122.913 149.819 119.98 148.126C118.964 147.539 118.35 146.607 118.127 145.601L118.122 145.599C118.122 145.599 117.632 143.433 118.364 141.391Z" fill="#42271E"/>
<path d="M114.675 98.5786C114.675 98.5786 114.236 104.196 116.215 108.375C118.194 112.554 122.342 110.159 122.342 110.159L121.824 99.3567L114.675 98.5786Z" fill="#F8DB8F"/>
<path d="M126.332 61.6743C126.332 61.6743 120.833 64.2769 117.754 71.5344C114.675 78.7927 114.675 98.5786 114.675 98.5786L122.661 102.584L126.332 61.6743Z" fill="#EB1CB1"/>
<path d="M126.332 61.6747C126.332 61.6747 134.517 59.5966 144.953 65.1938C155.388 70.79 161.521 74.578 163.722 78.5368C165.921 82.4953 165.632 110.477 164.601 116.953C163.428 124.321 161.229 130.442 161.229 130.442L160.642 148.624C160.642 148.624 156.182 152.53 149.645 151.666C143.267 150.824 142.313 147.892 142.313 147.892V132.789L138.999 130.875V139.067C138.999 139.067 133.142 143.096 128.482 141.753C122.565 140.047 122.237 137.126 122.237 137.126C122.237 137.126 120.943 116.183 120.943 108.266C120.943 100.347 117.863 71.6083 126.332 61.6747Z" fill="#979A07"/>
<path d="M144.954 65.1936C149.354 67.554 152.986 69.5911 155.885 71.4565C153.786 72.6809 151.552 74.6751 150.196 76.9238C147.138 81.9907 147.146 90.0054 147.146 90.0054L126.772 78.2429C126.772 78.2429 127.922 66.8579 133.24 61.46C136.419 61.8062 140.478 62.7932 144.954 65.1936Z" fill="#EB1CB1"/>
<path d="M127.578 45.1406C127.578 45.1406 126.772 61.3425 129.045 65.9612C130.12 68.148 132.399 69.3916 134.587 70.0171C138.18 71.0432 145.173 69.5671 148.253 67.3679C150.067 66.0718 150.525 65.4844 150.525 65.4844C150.525 65.4844 152.45 66.8042 153.879 65.8142C155.309 64.8245 156.121 62.4832 155.529 60.5911C154.869 58.4834 154.155 58.2631 153.531 58.0428C152.908 57.8235 151.882 58.7761 151.882 58.7761C151.882 58.7761 143.598 56.2471 138.649 51.6284C133.7 47.0088 131.226 42.0059 131.226 42.0059L127.578 45.1406Z" fill="#F8DB8F"/>
<path d="M144.908 99.2229L125.333 87.9209V103.212C125.333 109.586 128.734 115.475 134.254 118.663C138.989 121.397 144.908 117.979 144.908 112.51V99.2229Z" fill="#41521E"/>
<path d="M162.032 76.2778C162.739 77.0342 163.302 77.782 163.722 78.5361C165.251 81.2905 165.578 95.6729 165.287 106.351C162.587 107.168 159.54 106.879 157.342 104.856C153.164 101.007 152.174 93.0894 154.483 84.6216C156.575 76.9531 161.181 76.3276 162.032 76.2778Z" fill="#971773"/>
<path d="M171.199 120.838C171.199 120.838 170.441 128.322 166.727 129.197C162.988 130.076 160.811 127.556 160.224 126.163C159.638 124.771 160.202 117.612 160.202 117.612L171.199 120.838Z" fill="#F8DB8F"/>
<path d="M162.032 76.2778C162.032 76.2778 168.891 82.8621 171.2 96.6445C173.145 108.259 171.2 120.838 171.2 120.838C171.2 120.838 168.337 121.134 164.931 120.142C160.859 118.956 160.203 117.613 160.203 117.613C160.203 117.613 159.983 103.537 158.883 94.0791C157.783 84.6216 155.945 77.6121 162.032 76.2778Z" fill="#EB1CB1"/>
<path d="M129.468 51.1002C129.468 51.9537 129.988 52.9456 130.627 53.3156C131.268 53.6856 131.787 53.2927 131.787 52.4392C131.787 51.5847 131.268 50.5928 130.627 50.2228C129.988 49.8537 129.468 50.2457 129.468 51.1002Z" fill="#162F4D"/>
<path d="M137.572 55.7608C137.572 56.6153 138.091 57.6071 138.731 57.9762C139.372 58.3462 139.891 57.9543 139.891 57.0998C139.891 56.2462 139.372 55.2544 138.731 54.8844C138.091 54.5143 137.572 54.9073 137.572 55.7608Z" fill="#162F4D"/>
</g>
</g>
<defs>
<clipPath id="clip0">
<rect width="192" height="192" fill="white"/>
</clipPath>
<clipPath id="clip1">
<rect width="125" height="125" fill="white" transform="translate(0 67)"/>
</clipPath>
<clipPath id="clip2">
<rect width="125" height="125" fill="white" transform="matrix(-1 0 0 1 206 34)"/>
</clipPath>
</defs>
</svg>
