<svg width="384" height="416" viewBox="0 0 384 416" fill="none" xmlns="http://www.w3.org/2000/svg">
<path d="M341.655 144.654H42.9883C25.3453 144.654 10.9883 159.011 10.9883 176.654V197.987C10.9883 274.104 53.0363 343.139 120.705 378.147C125.932 380.835 132.374 378.808 135.084 373.56C137.772 368.333 135.745 361.891 130.497 359.181C69.9533 327.864 32.3213 266.104 32.3213 197.986V176.653C32.3213 170.765 37.1003 165.986 42.9883 165.986H341.655C347.543 165.986 352.322 170.765 352.322 176.653V197.986C352.322 266.103 314.69 327.863 254.125 359.159C248.877 361.868 246.85 368.311 249.538 373.538C251.437 377.207 255.17 379.319 259.031 379.319C260.695 379.319 262.359 378.935 263.916 378.124C331.607 343.137 373.655 274.124 373.655 197.985V176.652C373.655 159.011 359.297 144.654 341.655 144.654Z" fill="#6B2B2B"/>
<path d="M382.576 371.148C381.276 368.033 378.244 366 374.878 366H8.33794C4.97269 366 1.94014 368.033 0.64059 371.148C-0.658963 374.264 0.0571971 377.846 2.43997 380.229L21.1171 398.922C32.1469 409.935 46.7747 416 62.353 416H320.83C336.409 416 351.054 409.936 362.1 398.922L380.777 380.229C383.159 377.846 383.875 374.264 382.576 371.148ZM350.304 387.143C342.44 395.006 331.96 399.339 320.848 399.339H62.353C51.2404 399.339 40.7604 395.006 32.8967 387.143L28.4318 382.678H354.769L350.304 387.143Z" fill="#6B2B2B"/>
<path d="M272.575 78.0832C284.112 63.666 284.112 41.0901 272.575 26.6729C270.12 23.6078 265.679 23.097 262.6 25.566C259.535 28.0211 259.038 32.4763 261.493 35.5413C268.801 44.6653 268.801 60.0902 261.479 69.2427C249.929 83.6599 249.929 106.236 261.479 120.653C262.884 122.412 264.941 123.321 267.027 123.321C268.574 123.321 270.149 122.81 271.455 121.76C274.52 119.305 275.016 114.835 272.561 111.785C265.239 102.66 265.239 87.2358 272.575 78.0832Z" fill="#6B2B2B"/>
<path d="M208.496 78.0805C220.047 63.6625 220.047 41.0852 208.496 26.6671C206.055 23.6019 201.585 23.105 198.52 25.5603C195.455 28.0155 194.958 32.4856 197.413 35.5362C204.735 44.6606 204.735 60.0864 197.399 69.2395C185.862 83.6575 185.862 106.235 197.399 120.653C198.804 122.412 200.861 123.321 202.947 123.321C204.494 123.321 206.055 122.81 207.375 121.76C210.44 119.305 210.937 114.849 208.482 111.784C201.173 102.659 201.173 87.2336 208.496 78.0805Z" fill="#6B2B2B"/>
<path d="M144.762 54.0909C156.3 39.6716 156.3 17.0925 144.762 2.67323C142.321 -0.39223 137.864 -0.903141 134.785 1.56626C131.733 4.00705 131.237 8.47751 133.678 11.529C140.987 20.6542 140.987 36.0813 133.664 45.2351C122.112 59.6543 122.112 82.2335 133.664 96.6527C135.069 98.4123 137.127 99.321 139.213 99.321C140.76 99.321 142.335 98.8101 143.641 97.7743C146.706 95.3189 147.203 90.8484 144.748 87.7976C137.425 78.6571 137.425 63.2447 144.762 54.0909Z" fill="#6B2B2B"/>
<g clip-path="url(#clip0)">
<path d="M130.999 326.441C169.349 326.441 200.439 295.351 200.439 257.001C200.439 218.65 169.349 187.561 130.999 187.561C92.6479 187.561 61.5586 218.65 61.5586 257.001C61.5586 295.351 92.6479 326.441 130.999 326.441Z" fill="#010101"/>
<path fill-rule="evenodd" clip-rule="evenodd" d="M109.25 248.062L131 226.312L152.75 248.085L165.406 235.429L131 201L96.5936 235.406L109.25 248.062ZM75 257L87.656 244.344L100.312 257L87.656 269.656L75 257ZM109.25 265.938L131 287.688L152.75 265.915L165.429 278.571L131 313L96.5936 278.594L96.5712 278.571L109.25 265.938ZM161.688 257L174.344 244.344L187 257L174.344 269.656L161.688 257Z" fill="#F3BA2F"/>
<path fill-rule="evenodd" clip-rule="evenodd" d="M145.113 257.001L131.001 242.844L120.562 253.305L119.353 254.514L116.866 257.001L116.844 257.023L116.866 257.045L130.978 271.157L145.113 257.023V257.001Z" fill="#F3BA2F"/>
</g>
<circle cx="255.5" cy="255.5" r="63.5" fill="#FFB61D"/>
<path d="M275.366 258.919C280.378 257.855 284.256 254.611 285.384 247.796C286.967 238.478 280.29 233.425 270.595 229.917L273.966 217.333L266.247 215.265L262.969 227.499C260.964 226.961 258.896 226.462 256.827 225.959L260.131 213.626L252.412 211.558L249.041 224.141C246.18 223.467 242.885 222.538 233.554 219.992L231.36 228.181C237.481 229.707 240.785 230.174 240.475 234.263L231.243 268.717C229.95 271.681 227.587 270.572 222.09 268.996L218.089 277.718C232.163 281.489 233.565 281.919 233.565 281.919L230.677 292.694L238.396 294.763L241.244 284.137C243.335 284.751 245.389 285.302 247.346 285.826L244.511 296.404L252.231 298.472L255.118 287.697C268.237 290.462 277.752 289.533 282.156 277.707C285.666 268.212 282.221 262.631 275.37 258.923L275.366 258.919ZM254.568 234.99C258.928 236.158 272.923 238.462 270.501 247.501C268.186 256.14 254.82 251.487 250.461 250.319L254.568 234.99ZM243.878 274.885L248.401 258.007C253.613 259.403 269.963 262.233 267.314 272.119C264.759 281.657 249.091 276.28 243.879 274.883L243.878 274.885Z" fill="black"/>
<defs>
<clipPath id="clip0">
<rect width="168" height="168" fill="white" transform="translate(47 173)"/>
</clipPath>
</defs>
</svg>
