<svg width="531" height="576" viewBox="0 0 531 576" fill="none" xmlns="http://www.w3.org/2000/svg">
<path d="M473.412 200.291H59.5671C35.1202 200.291 15.2266 220.17 15.2266 244.599V274.137C15.2266 379.529 73.49 475.116 167.255 523.589C174.498 527.311 183.424 524.504 187.179 517.238C190.904 510 188.095 501.081 180.823 497.328C96.9308 453.966 44.7864 368.453 44.7864 274.135V244.597C44.7864 236.445 51.4084 229.828 59.5671 229.828H473.412C481.571 229.828 488.193 236.445 488.193 244.597V274.135C488.193 368.451 436.048 453.965 352.127 497.298C344.855 501.049 342.046 509.97 345.771 517.207C348.402 522.287 353.575 525.212 358.925 525.212C361.231 525.212 363.536 524.68 365.694 523.557C459.489 475.114 517.753 379.557 517.753 274.134V244.596C517.753 220.17 497.858 200.291 473.412 200.291Z" fill="#6B2B2B"/>
<path d="M530.112 513.898C528.312 509.584 524.11 506.77 519.447 506.77H11.5534C6.89037 506.77 2.68834 509.584 0.887628 513.898C-0.913086 518.211 0.0792546 523.172 3.38092 526.471L29.2608 552.354C44.5441 567.602 64.813 576 86.3988 576H444.556C466.142 576 486.434 567.604 501.74 552.354L527.62 526.471C530.921 523.172 531.913 518.211 530.112 513.898ZM485.395 536.044C474.499 546.932 459.978 552.931 444.58 552.931H86.3988C71.0007 552.931 56.4792 546.932 45.583 536.044L39.3963 529.862H491.582L485.395 536.044Z" fill="#6B2B2B"/>
<path d="M377.691 108.115C393.677 88.1527 393.677 56.8936 377.691 36.9313C374.289 32.6875 368.135 31.9801 363.869 35.3988C359.622 38.7982 358.934 44.9669 362.335 49.2108C372.462 61.8439 372.462 83.2015 362.316 95.8742C346.311 115.836 346.311 147.096 362.316 167.058C364.263 169.494 367.113 170.752 370.004 170.752C372.146 170.752 374.329 170.045 376.138 168.59C380.385 165.191 381.074 159.002 377.672 154.778C367.526 142.144 367.526 120.788 377.691 108.115Z" fill="#6B2B2B"/>
<path d="M288.901 108.111C304.907 88.1478 304.907 56.8869 288.901 36.9234C285.519 32.6793 279.325 31.9913 275.078 35.3908C270.831 38.7904 270.142 44.9797 273.544 49.2036C283.691 61.8375 283.69 83.1963 273.525 95.8697C257.539 115.833 257.539 147.094 273.525 167.058C275.472 169.494 278.322 170.752 281.213 170.752C283.356 170.752 285.519 170.044 287.348 168.59C291.595 165.191 292.284 159.021 288.882 154.777C278.755 142.143 278.755 120.785 288.901 108.111Z" fill="#6B2B2B"/>
<path d="M200.586 74.895C216.573 54.9299 216.573 23.6665 200.586 3.70139C197.204 -0.543088 191.029 -1.2505 186.762 2.16866C182.533 5.54822 181.846 11.7381 185.228 15.9632C195.355 28.5981 195.355 49.9587 185.208 62.6332C169.201 82.5983 169.201 113.862 185.208 133.827C187.155 136.263 190.006 137.521 192.897 137.521C195.04 137.521 197.223 136.814 199.032 135.38C203.28 131.98 203.969 125.79 200.566 121.566C190.419 108.91 190.419 87.5695 200.586 74.895Z" fill="#6B2B2B"/>
<path fill-rule="evenodd" clip-rule="evenodd" d="M266.734 347.538C266.734 294.774 309.54 252 362.344 252C415.147 252 457.953 294.774 457.953 347.538C457.953 400.303 415.147 443.077 362.344 443.077C309.54 443.077 266.734 400.303 266.734 347.538Z" fill="black"/>
<path d="M395.842 372.099C395.759 372.058 387.15 367.5 378.867 356.786C373.713 350.119 369.746 342.463 367.072 334.031C363.306 321.765 365.96 304.074 363.721 294.368C361.31 283.921 354.069 281.905 351.631 281.799C345.095 281.515 338.63 287.259 337.259 299.003C331.519 348.174 353.187 378.583 384.326 395.345C390.473 398.467 398.565 395.975 401.713 389.477C404.893 383.058 402.265 375.277 395.842 372.099Z" fill="#FFECB3"/>
<path d="M395.853 372.099C395.77 372.058 387.16 367.5 378.878 356.785C373.724 350.118 369.756 342.463 367.083 334.031C363.317 321.765 365.971 304.074 363.731 294.368C361.321 283.921 354.08 281.905 351.642 281.799C350.135 281.733 348.633 281.992 347.195 282.567C350.319 283.84 354.409 287.014 356.106 294.368C358.345 304.074 355.692 321.765 359.458 334.031C362.131 342.463 366.099 350.118 371.253 356.785C379.535 367.5 388.144 372.058 388.228 372.099C394.65 375.277 397.279 383.058 394.098 389.477C392.475 392.828 389.535 395.11 386.226 396.11C392.048 397.928 398.89 395.327 401.724 389.477C404.904 383.058 402.276 375.277 395.853 372.099Z" fill="#FFE082"/>
<path d="M357.892 347.247C357.892 347.247 343.301 328.424 323.594 327.617C303.887 326.81 304.443 357.471 297.963 360.828C291.482 364.185 291.953 367.443 291.953 367.443C291.953 367.443 292.277 370.414 297.57 368.493C302.862 366.572 303.8 365.129 305.824 362.632C307.848 360.135 312.309 334.391 323.482 335.106C334.656 335.821 337.288 359.559 349.816 373.696C362.344 387.833 376.579 398.789 391.768 397.764C405.314 396.85 410.139 400.814 413.299 402.471C413.881 402.775 414.598 402.55 414.899 401.966L418.148 395.654C418.462 395.044 418.192 394.296 417.56 394.03C414.875 392.9 408.334 389.669 405.337 383.995C401.515 376.758 404.959 378.518 392.986 368.492C381.011 358.465 374.568 343.314 374.878 337.516C375.189 331.717 374.114 318.68 384.978 318.909C395.842 319.137 397.762 337.704 403.316 343.855C408.241 349.309 411.177 344.403 411.177 344.403C411.177 344.403 412.175 341.096 407.275 337.367C403.851 334.761 400.286 311.479 385.267 311.852C370.249 312.225 357.207 324.27 357.892 347.247Z" fill="#FFD54F"/>
<path d="M417.555 394.029C414.871 392.899 408.329 389.669 405.332 383.995C401.51 376.758 404.955 378.518 392.981 368.491C381.007 358.465 374.563 343.313 374.873 337.515C375.184 331.717 374.109 318.679 384.973 318.908C395.838 319.137 397.757 337.704 403.312 343.855C408.236 349.309 411.173 344.403 411.173 344.403C411.173 344.403 412.17 341.095 407.27 337.366C403.846 334.76 400.281 311.479 385.263 311.852C372.672 312.165 361.471 320.684 358.583 336.969C358.15 343.142 357.887 347.248 357.887 347.248C357.887 347.248 360.896 370.617 381.304 380.048C401.711 389.478 395.131 392.602 405.911 398.991C405.913 398.992 405.914 398.993 405.916 398.993C409.514 400.096 411.635 401.601 413.295 402.471C413.876 402.775 414.593 402.55 414.894 401.966L418.143 395.654C418.457 395.044 418.188 394.296 417.555 394.029Z" fill="#FFCA28"/>
<path d="M417.562 394.025C414.878 392.895 408.336 389.665 405.339 383.99C401.517 376.753 404.961 378.513 392.987 368.487C381.013 358.46 374.569 343.309 374.88 337.511C375.142 332.605 374.414 322.516 380.766 319.666C373.195 322.211 367.254 327.877 367.254 337.511C367.254 346.922 373.388 358.46 385.362 368.487C397.336 378.513 393.51 376.967 397.713 383.99C403.166 393.102 411.929 392.611 412.627 402.096C412.861 402.228 413.085 402.353 413.302 402.466C413.883 402.771 414.601 402.545 414.901 401.961L418.15 395.649C418.464 395.039 418.195 394.291 417.562 394.025Z" fill="#FFB300"/>
<path fill-rule="evenodd" clip-rule="evenodd" d="M81.7539 351.692C81.7539 296.634 126.421 252 181.52 252C236.619 252 281.286 296.634 281.286 351.692C281.286 406.751 236.619 451.385 181.52 451.385C126.421 451.385 81.7539 406.751 81.7539 351.692Z" fill="#F3F3F3"/>
<path d="M129.871 351.025C126.683 349.312 123.763 347.132 121.208 344.556C117.257 340.697 114.444 335.81 113.081 330.437C111.18 322.511 113.638 314.165 119.524 308.57C123.009 304.737 128.123 302.848 133.239 303.503C139.609 304.363 145.124 309.135 148.98 313.661L141.78 324.189C139.928 321.244 137.443 318.755 134.508 316.908C133.019 316.066 131.247 315.899 129.628 316.447C128.01 316.995 126.697 318.209 126.016 319.786C122.062 327.314 127.7 335.086 133.947 339.169L129.871 351.025Z" fill="#C03A2B"/>
<path d="M225.658 360.181C219.801 364.683 211.406 367.388 200.693 366.823C192.908 366.405 188.442 364.634 185.879 361.953C178.851 354.647 186.124 340.774 178.656 330.688C172.864 323.264 163.729 319.309 154.398 320.186C152.275 314.946 151.787 310.789 153.252 308.354C153.252 308.329 153.252 308.329 153.276 308.305V308.28C153.46 307.997 153.673 307.733 153.91 307.493C160.109 301.245 183.659 314.873 206.55 337.92C213.467 344.844 219.855 352.286 225.658 360.181Z" fill="#BDC3C7"/>
<path d="M232.095 393.481C225.622 398.686 213.246 407.549 198.658 412.583C181.226 418.599 160.79 419.115 143.376 401.562L143.375 401.561C127.707 385.793 126.564 367.548 130.821 351.282C131.873 347.281 133.218 343.366 134.848 339.567C137.066 334.431 139.661 329.468 142.612 324.72L142.615 324.716C145.133 320.616 147.652 317.052 149.759 314.269C150.338 313.507 150.884 312.802 151.393 312.158C151.401 312.536 151.425 312.923 151.466 313.318C151.683 315.441 152.369 317.886 153.452 320.558C157.77 331.288 168.687 346.429 183.369 361.228L183.369 361.228C183.642 361.503 183.914 361.771 184.181 362.034L184.183 362.035C184.452 362.3 184.716 362.561 184.98 362.827L184.98 362.827L184.987 362.834C195.742 373.452 206.576 381.971 215.642 387.299C220.172 389.961 224.299 391.85 227.78 392.794C229.313 393.209 230.766 393.454 232.095 393.481Z" fill="#F3F2F2" stroke="#CDCACA" stroke-width="2"/>
<path d="M225.658 360.181C219.855 352.286 213.467 344.844 206.55 337.921C183.659 314.873 160.109 301.245 153.91 307.493C153.673 307.733 153.46 307.997 153.276 308.28V308.305C153.252 308.329 153.252 308.329 153.252 308.354C151.787 310.789 152.275 314.946 154.398 320.186C158.644 330.738 169.456 345.767 184.098 360.526C184.635 361.067 185.172 361.584 185.708 362.125C207.136 383.279 228.782 395.971 235.883 391.642L225.658 360.181Z" fill="#BDC3C7"/>
<path d="M223.786 306.624C226.645 303.743 225.1 297.514 220.336 292.712C215.571 287.91 209.391 286.352 206.533 289.234C203.674 292.115 205.219 298.344 209.984 303.146C214.748 307.949 220.928 309.506 223.786 306.624Z" fill="#4A2B17"/>
<path d="M173.726 391.888C166.917 398.775 157.547 400.719 151.543 396.907C155.838 392.355 152.568 388.912 157.082 384.386C161.671 379.737 165.112 383.205 169.724 378.581C174.214 374.03 170.944 370.611 175.263 366.061C175.951 366.507 176.589 367.026 177.167 367.61C182.853 373.366 181.34 384.238 173.726 391.888Z" fill="#640808"/>
<path d="M175.253 366.06C170.934 370.61 174.204 374.029 169.714 378.58C165.101 383.204 161.66 379.736 157.072 384.385C152.558 388.911 155.828 392.354 151.533 396.906C150.845 396.459 150.207 395.939 149.629 395.356C143.919 389.6 145.456 378.727 153.07 371.077C159.879 364.19 169.25 362.247 175.253 366.06Z" fill="#9C2222"/>
<path d="M185.868 361.95L185.697 362.122C185.16 361.581 184.623 361.064 184.087 360.523C169.444 345.764 158.633 330.735 154.387 320.183C163.718 319.306 172.852 323.261 178.645 330.685C186.112 340.771 178.84 354.644 185.868 361.95Z" fill="#4A2B17"/>
<path d="M225.658 360.181C219.855 352.286 213.467 344.844 206.55 337.921C183.659 314.873 160.109 301.245 153.91 307.493C153.673 307.733 153.46 307.997 153.276 308.28V308.305C153.252 308.329 153.252 308.329 153.252 308.354C151.787 310.789 152.275 314.946 154.398 320.186C158.644 330.738 169.456 345.767 184.098 360.526C184.635 361.067 185.172 361.584 185.708 362.125C207.136 383.279 228.782 395.971 235.883 391.642C238.394 389.81 234.736 383.55 234.736 383.55L225.658 360.181ZM189.126 358.607L187.539 357.058C185.807 355.311 184.147 353.565 182.488 351.794C172.116 340.553 163.769 329.016 159.743 320.284C159.45 319.62 159.157 318.98 158.914 318.341C157.818 316.136 157.274 313.696 157.327 311.231L157.668 310.937C157.879 310.903 158.091 310.887 158.303 310.887C165.332 310.887 183.414 321.587 203.109 341.414C209.658 347.98 215.726 355.017 221.265 362.47L221.412 362.887L229.27 387.067C222.534 385.222 210.894 378.212 197.691 366.577C194.885 364.142 192.029 361.461 189.126 358.607Z" fill="#ECF0F1"/>
<path d="M253.91 350.909C253.572 361.211 250.749 371.274 245.686 380.23C243.133 384.529 238.605 387.245 233.638 387.459H233.553C231.967 387.553 230.377 387.379 228.848 386.945C225.877 385.976 223.014 384.699 220.306 383.132C218.524 382.124 216.621 380.968 214.596 379.639C208.66 375.693 203.009 371.329 197.684 366.578C198.636 366.676 199.636 366.775 200.685 366.824C211.399 367.39 219.794 364.684 225.65 360.182C235.622 352.923 238.31 339.119 231.801 328.599C221.624 311.405 255.912 311.159 253.91 350.909Z" fill="#4A2B17"/>
<path d="M236.353 372.207C232.143 377.305 226.582 381.093 220.32 383.128C218.538 382.12 216.634 380.964 214.609 379.635C221.625 378.279 227.97 374.546 232.595 369.058C233.457 368.013 234.998 367.869 236.036 368.739C237.074 369.608 237.215 371.161 236.353 372.207Z" fill="#805333"/>
</svg>
