<svg width="531" height="576" viewBox="0 0 531 576" fill="none" xmlns="http://www.w3.org/2000/svg">
<path d="M473.411 200.29H59.566C35.1192 200.29 15.2255 220.169 15.2255 244.598V274.136C15.2255 379.529 73.4889 475.116 167.254 523.588C174.497 527.31 183.423 524.504 187.178 517.237C190.903 510 188.094 501.08 180.822 497.328C96.9298 453.966 44.7854 368.452 44.7854 274.135V244.597C44.7854 236.444 51.4074 229.827 59.566 229.827H473.411C481.57 229.827 488.192 236.444 488.192 244.597V274.135C488.192 368.45 436.047 453.964 352.126 497.297C344.854 501.048 342.045 509.969 345.77 517.207C348.401 522.287 353.574 525.211 358.924 525.211C361.23 525.211 363.535 524.679 365.693 523.556C459.488 475.113 517.752 379.556 517.752 274.133V244.595C517.752 220.169 497.857 200.29 473.411 200.29Z" fill="#6B2B2B"/>
<path d="M530.112 513.898C528.312 509.584 524.11 506.769 519.447 506.769H11.5534C6.89037 506.769 2.68834 509.584 0.887628 513.898C-0.913086 518.211 0.0792546 523.171 3.38092 526.471L29.2608 552.354C44.5441 567.602 64.813 576 86.3988 576H444.556C466.142 576 486.434 567.603 501.74 552.354L527.62 526.471C530.921 523.171 531.913 518.211 530.112 513.898ZM485.395 536.044C474.499 546.932 459.978 552.93 444.58 552.93H86.3988C71.0007 552.93 56.4792 546.932 45.583 536.044L39.3963 529.862H491.582L485.395 536.044Z" fill="#6B2B2B"/>
<path d="M377.692 108.115C393.678 88.153 393.678 56.8939 377.692 36.9316C374.291 32.6878 368.137 31.9804 363.87 35.3991C359.623 38.7985 358.935 44.9672 362.337 49.2111C372.463 61.8442 372.463 83.2018 362.317 95.8745C346.313 115.837 346.313 147.096 362.317 167.058C364.264 169.494 367.115 170.752 370.005 170.752C372.148 170.752 374.33 170.045 376.139 168.591C380.387 165.191 381.075 159.002 377.673 154.779C367.527 142.145 367.527 120.788 377.692 108.115Z" fill="#6B2B2B"/>
<path d="M288.901 108.112C304.907 88.1481 304.907 56.8872 288.901 36.9237C285.52 32.6796 279.326 31.9916 275.078 35.3911C270.831 38.7907 270.143 44.98 273.545 49.2039C283.691 61.8378 283.691 83.1966 273.525 95.87C257.539 115.833 257.539 147.094 273.525 167.058C275.472 169.494 278.323 170.752 281.213 170.752C283.356 170.752 285.52 170.045 287.348 168.59C291.596 165.191 292.284 159.022 288.882 154.778C278.755 142.143 278.755 120.785 288.901 108.112Z" fill="#6B2B2B"/>
<path d="M200.588 74.895C216.575 54.9299 216.575 23.6665 200.588 3.70139C197.206 -0.543088 191.03 -1.2505 186.763 2.16866C182.535 5.54822 181.848 11.7381 185.23 15.9632C195.357 28.5981 195.357 49.9587 185.21 62.6332C169.203 82.5983 169.203 113.862 185.21 133.827C187.157 136.263 190.008 137.521 192.899 137.521C195.042 137.521 197.225 136.814 199.034 135.38C203.282 131.98 203.971 125.79 200.568 121.566C190.421 108.91 190.421 87.5695 200.588 74.895Z" fill="#6B2B2B"/>
<circle cx="358.5" cy="348.5" r="103.861" fill="white"/>
<path fill-rule="evenodd" clip-rule="evenodd" d="M358.5 238C380.355 238 401.719 244.481 419.89 256.623C438.062 268.764 452.225 286.022 460.589 306.213C468.952 326.405 471.14 348.623 466.877 370.057C462.613 391.492 452.089 411.182 436.635 426.635C421.182 442.089 401.492 452.613 380.057 456.877C358.623 461.14 336.405 458.952 316.213 450.589C296.022 442.225 278.764 428.062 266.623 409.89C254.481 391.719 248 370.355 248 348.5C247.999 333.989 250.856 319.619 256.409 306.212C261.962 292.805 270.101 280.623 280.362 270.362C290.623 260.101 302.805 251.962 316.212 246.409C329.619 240.856 343.989 237.999 358.5 238ZM367.388 301.658C276.225 291.412 290.253 394.518 340.788 392.74C340.788 392.74 356.399 392.934 376.527 392.934C419.103 392.934 429.778 328.881 395.444 309.463C385.836 304.025 376.212 302.999 367.259 301.698H367.413L367.388 301.658ZM312.684 297.424L312.74 297.31C312.328 297.836 311.932 298.377 311.561 298.926C306.712 305.956 304.482 315.394 303.351 324.937C300.87 322.885 294.374 330.755 294.463 343.757C294.551 356.758 299.941 359.328 301.993 361.033C303.416 362.229 304.515 366.536 305.274 371.343H305.436C306.021 373.39 306.371 375.496 306.478 377.622C306.478 378.996 306.478 380.531 306.389 382.058L306.147 382.139C305.864 384.894 304.959 386.341 304.531 389.25C307.9 390.486 312.684 391.795 316.328 391.06L321.031 390.122C321.031 390.122 326.485 393.88 324.263 399.9C322.736 403.94 316.272 403.996 312.272 403.584C312.412 403.757 312.534 403.944 312.635 404.142C313.662 406.202 335.261 417.83 359.171 417.151C379.735 416.562 397.149 408.538 404.688 403.673C400.696 403.964 395.177 403.625 393.779 399.9C391.525 393.88 397.011 390.122 397.011 390.122L401.714 391.06C404.946 391.714 409.1 390.744 412.34 389.654C412.251 388.078 412.089 385.088 411.984 382.058C411.936 380.531 411.904 378.996 411.904 377.622C412.008 375.496 412.355 373.39 412.938 371.343C413.898 367.787 415.036 364.281 416.348 360.839C418.4 359.473 424.566 352.758 422.675 338.601C420.784 324.445 413.439 324.913 413.439 324.913C413.051 314.877 407.718 304.445 400.85 296.389L400.793 296.284L399.985 295.42C394.277 289.24 387.489 284.155 379.954 280.414C372.666 277.356 364.771 276.026 356.884 276.528C339.43 277.416 322.946 284.414 312.757 297.359L312.684 297.424ZM322.889 390.349C324.998 390.51 326.679 393.67 326.679 397.54C326.679 401.411 324.998 404.578 322.889 404.74H323.148C325.839 404.74 327.996 401.508 327.996 397.532C327.996 393.556 325.823 390.332 323.148 390.332L322.889 390.349ZM395.484 390.349H395.274C392.591 390.349 390.426 393.581 390.426 397.548C390.426 401.516 392.607 404.756 395.274 404.756H395.484C393.375 404.594 391.694 401.435 391.694 397.556C391.694 393.678 393.375 390.526 395.484 390.365V390.349ZM311.132 403.003C314.082 403.447 321.265 404.093 322.776 400.069C324.691 394.971 320.069 391.787 320.069 391.787L316.086 392.595C312.668 393.274 308.07 391.852 305.226 390.72C304.757 390.542 304.337 390.365 303.973 390.203C301.428 389.088 301.549 387.173 301.743 385.428C301.888 383.811 304.975 382.785 305.622 382.591C305.67 381.056 305.702 379.521 305.702 378.155C305.599 376.029 305.249 373.922 304.66 371.877C302.971 371.772 299.416 372.135 294.891 375.86C288.515 381.121 289.477 389.597 293.275 395.302C297.072 401.007 309.848 402.792 309.848 402.792C309.848 402.792 310.324 402.897 311.108 403.019L311.132 403.003ZM337.693 309.108C326.493 311.443 319.972 316.647 319.972 316.647C295.675 339.094 309.411 389.201 343.058 388.021C343.058 388.021 356.932 388.199 374.831 388.199C413.35 388.199 419.911 332.145 394.587 315.475C383.129 307.928 371.59 307.661 361.813 307.298C352.036 306.934 337.693 309.108 337.693 309.108ZM375.671 390.219C416.073 390.219 423.006 331.369 396.413 313.859C384.382 305.94 372.269 305.658 361.999 305.278C351.729 304.898 336.715 307.16 336.715 307.16C324.95 309.585 318.13 315.087 318.13 315.087C292.572 338.666 307.036 391.27 342.371 390.033C342.371 390.033 356.916 390.219 375.736 390.219H375.671ZM338.889 310.886C328.215 313.116 322.001 318.077 322.001 318.077C298.81 339.482 311.94 387.221 343.971 386.098C343.971 386.098 357.191 386.268 374.241 386.268C410.95 386.268 417.204 332.856 393.068 316.962C382.16 309.779 371.162 309.52 361.837 309.181C352.512 308.841 338.889 310.886 338.889 310.886ZM389.747 318.748C389.998 335.983 389.868 361.647 387.541 377.84C389.48 376.664 391.266 375.253 392.858 373.638C394.571 358.285 394.741 336.993 394.563 321.35C393.144 319.784 391.534 318.402 389.771 317.237C389.771 317.746 389.771 318.263 389.771 318.78L389.747 318.748ZM331.422 379.286C327.528 363.392 325.176 336.501 323.956 318.748L323.908 317.899C323.568 318.142 323.399 318.279 323.399 318.279L322.898 318.748C322.356 319.265 321.847 319.806 321.346 320.364C322.542 337.446 324.748 361.994 328.279 377.557C329.286 378.207 330.336 378.788 331.422 379.295V379.286ZM320.271 340.5C320.054 340.5 319.842 340.565 319.662 340.685C319.481 340.805 319.34 340.977 319.257 341.177C319.174 341.377 319.151 341.598 319.193 341.811C319.235 342.024 319.339 342.219 319.492 342.373C319.644 342.528 319.839 342.633 320.052 342.676C320.265 342.719 320.485 342.699 320.686 342.617C320.887 342.535 321.06 342.395 321.181 342.216C321.303 342.036 321.369 341.824 321.37 341.607C321.371 341.462 321.344 341.319 321.289 341.184C321.234 341.05 321.154 340.928 321.051 340.825C320.949 340.722 320.828 340.641 320.694 340.585C320.56 340.529 320.416 340.5 320.271 340.5ZM314.397 345.446C314.279 345.446 314.163 345.481 314.065 345.546C313.966 345.612 313.89 345.705 313.845 345.815C313.799 345.924 313.787 346.044 313.81 346.16C313.834 346.276 313.891 346.383 313.974 346.466C314.058 346.55 314.164 346.607 314.28 346.63C314.396 346.653 314.517 346.641 314.626 346.596C314.735 346.551 314.828 346.474 314.894 346.376C314.96 346.277 314.995 346.162 314.995 346.044C314.995 345.885 314.932 345.733 314.82 345.621C314.708 345.509 314.556 345.446 314.397 345.446ZM319.294 358.512C319.058 358.513 318.827 358.585 318.632 358.717C318.436 358.849 318.284 359.037 318.195 359.255C318.105 359.474 318.083 359.714 318.13 359.946C318.177 360.177 318.291 360.39 318.459 360.556C318.627 360.722 318.84 360.836 319.071 360.881C319.303 360.927 319.543 360.902 319.761 360.812C319.979 360.721 320.166 360.568 320.297 360.371C320.428 360.175 320.498 359.944 320.498 359.708C320.498 359.55 320.466 359.394 320.406 359.248C320.345 359.102 320.256 358.97 320.145 358.859C320.033 358.748 319.9 358.66 319.754 358.6C319.608 358.541 319.451 358.511 319.294 358.512ZM400.001 340.411C399.763 340.41 399.529 340.479 399.33 340.61C399.131 340.742 398.975 340.929 398.883 341.149C398.791 341.369 398.766 341.611 398.811 341.845C398.857 342.079 398.971 342.295 399.139 342.464C399.307 342.633 399.521 342.749 399.755 342.796C399.989 342.843 400.231 342.819 400.452 342.729C400.672 342.638 400.861 342.483 400.994 342.285C401.126 342.087 401.197 341.854 401.197 341.615C401.198 341.458 401.168 341.301 401.108 341.155C401.049 341.009 400.961 340.876 400.85 340.765C400.738 340.653 400.606 340.564 400.461 340.503C400.315 340.443 400.159 340.411 400.001 340.411ZM399.444 360.257C399.315 360.257 399.192 360.308 399.101 360.399C399.01 360.49 398.959 360.613 398.959 360.742C398.959 360.87 399.01 360.994 399.101 361.085C399.192 361.176 399.315 361.227 399.444 361.227C399.572 361.227 399.695 361.176 399.786 361.085C399.877 360.994 399.928 360.87 399.928 360.742C399.928 360.613 399.877 360.49 399.786 360.399C399.695 360.308 399.572 360.257 399.444 360.257ZM362.435 378.406C362.339 378.406 362.246 378.434 362.166 378.487C362.086 378.541 362.024 378.616 361.987 378.705C361.951 378.794 361.941 378.891 361.96 378.985C361.978 379.079 362.025 379.166 362.092 379.233C362.16 379.301 362.247 379.347 362.341 379.366C362.435 379.385 362.532 379.375 362.621 379.338C362.709 379.302 362.785 379.24 362.838 379.16C362.892 379.08 362.92 378.986 362.92 378.891C362.92 378.762 362.869 378.639 362.778 378.548C362.687 378.457 362.564 378.406 362.435 378.406ZM349.708 368.507C349.593 368.507 349.481 368.541 349.385 368.605C349.29 368.669 349.215 368.76 349.171 368.866C349.127 368.973 349.115 369.09 349.138 369.202C349.16 369.315 349.216 369.419 349.297 369.5C349.378 369.582 349.482 369.637 349.595 369.66C349.708 369.682 349.825 369.67 349.931 369.626C350.037 369.582 350.128 369.508 350.192 369.412C350.256 369.316 350.29 369.204 350.29 369.089C350.29 368.935 350.229 368.787 350.12 368.678C350.011 368.568 349.863 368.507 349.708 368.507ZM362.031 365.17C361.801 365.17 361.576 365.238 361.385 365.366C361.193 365.494 361.044 365.676 360.956 365.888C360.868 366.101 360.845 366.335 360.89 366.561C360.935 366.786 361.046 366.994 361.208 367.156C361.371 367.319 361.578 367.43 361.804 367.475C362.03 367.52 362.264 367.497 362.476 367.409C362.689 367.32 362.871 367.171 362.999 366.98C363.126 366.789 363.195 366.564 363.195 366.334C363.193 366.026 363.069 365.731 362.852 365.513C362.634 365.295 362.339 365.172 362.031 365.17ZM366.128 332.04C366.018 332.042 365.913 332.087 365.836 332.166C365.759 332.245 365.716 332.35 365.716 332.46C365.735 332.554 365.785 332.638 365.859 332.698C365.932 332.758 366.025 332.791 366.12 332.791C366.215 332.791 366.307 332.758 366.381 332.698C366.455 332.638 366.505 332.554 366.524 332.46C366.524 332.35 366.481 332.245 366.404 332.166C366.327 332.087 366.222 332.042 366.112 332.04H366.128ZM340.271 340.121C340.187 340.121 340.106 340.145 340.037 340.191C339.968 340.238 339.914 340.303 339.882 340.38C339.851 340.457 339.842 340.541 339.858 340.623C339.875 340.704 339.915 340.779 339.973 340.838C340.032 340.897 340.107 340.937 340.189 340.953C340.27 340.969 340.355 340.961 340.431 340.929C340.508 340.897 340.574 340.843 340.62 340.774C340.666 340.705 340.691 340.624 340.691 340.541C340.692 340.485 340.682 340.43 340.661 340.379C340.64 340.327 340.609 340.28 340.57 340.241C340.531 340.202 340.484 340.171 340.433 340.15C340.381 340.13 340.326 340.119 340.271 340.121ZM343.624 355.037C343.379 355.037 343.14 355.11 342.937 355.245C342.734 355.381 342.575 355.574 342.482 355.8C342.388 356.026 342.364 356.275 342.411 356.515C342.459 356.754 342.577 356.975 342.75 357.148C342.923 357.32 343.143 357.438 343.383 357.486C343.623 357.534 343.871 357.509 344.097 357.416C344.323 357.322 344.516 357.164 344.652 356.96C344.788 356.757 344.86 356.518 344.86 356.273C344.858 355.946 344.727 355.633 344.496 355.402C344.264 355.17 343.951 355.039 343.624 355.037ZM363.437 345.47C363.258 345.472 363.086 345.544 362.959 345.671C362.833 345.798 362.76 345.969 362.758 346.149C362.76 346.327 362.833 346.498 362.96 346.623C363.087 346.749 363.259 346.819 363.437 346.819C363.525 346.819 363.612 346.802 363.694 346.768C363.775 346.734 363.849 346.685 363.911 346.623C363.974 346.561 364.023 346.487 364.057 346.405C364.09 346.324 364.108 346.237 364.108 346.149C364.108 345.97 364.037 345.799 363.912 345.671C363.786 345.544 363.616 345.472 363.437 345.47ZM356.585 318.239C356.409 318.225 356.233 318.247 356.066 318.305C355.9 318.362 355.747 318.454 355.617 318.573C355.488 318.693 355.385 318.838 355.314 318.999C355.243 319.161 355.207 319.335 355.207 319.511C355.207 319.688 355.243 319.862 355.314 320.023C355.385 320.185 355.488 320.33 355.617 320.449C355.747 320.569 355.9 320.66 356.066 320.718C356.233 320.776 356.409 320.798 356.585 320.784C356.905 320.759 357.204 320.613 357.421 320.378C357.639 320.142 357.76 319.832 357.76 319.511C357.76 319.19 357.639 318.881 357.421 318.645C357.204 318.409 356.905 318.264 356.585 318.239ZM346.888 328.283C346.636 328.283 346.393 328.383 346.214 328.562C346.035 328.741 345.935 328.983 345.935 329.236C345.935 329.489 346.035 329.732 346.214 329.91C346.393 330.089 346.636 330.19 346.888 330.19C347.141 330.19 347.384 330.089 347.563 329.91C347.741 329.732 347.842 329.489 347.842 329.236C347.842 328.983 347.741 328.741 347.563 328.562C347.384 328.383 347.141 328.283 346.888 328.283ZM326.792 318.748C328.037 336.969 330.477 364.806 334.558 380.531C336.5 381.159 338.51 381.557 340.545 381.719C336.279 366.261 333.733 337.43 332.465 318.748C332.336 316.938 332.23 315.225 332.125 313.633C330.23 314.352 328.391 315.211 326.623 316.202C326.671 317.027 326.728 317.875 326.792 318.748ZM369.659 318.748C369.926 337.527 369.756 366.301 366.774 381.945H372.188C376.024 381.983 379.831 381.286 383.404 379.892C386.038 363.893 386.184 336.727 385.925 318.74C385.925 317.423 385.885 316.162 385.868 314.958C380.744 312.447 375.193 310.923 369.506 310.465C369.562 312.889 369.619 315.685 369.659 318.74V318.748ZM407.282 403.003C408.09 402.881 408.55 402.776 408.55 402.776C408.55 402.776 421.301 401.023 425.123 395.286C428.945 389.549 429.899 381.105 423.507 375.844C418.982 372.119 415.427 371.755 413.73 371.861C413.145 373.907 412.795 376.013 412.687 378.139C412.687 379.505 412.687 381.04 412.776 382.575C413.398 382.769 416.509 383.828 416.655 385.411C416.808 387.157 416.97 389.072 414.417 390.187C414.061 390.349 413.609 390.526 413.164 390.704C410.32 391.835 405.73 393.258 402.312 392.579L398.328 391.771C398.328 391.771 393.706 394.954 395.622 400.053C397.149 404.093 404.332 403.447 407.282 403.003Z" fill="black"/>
<g clip-path="url(#clip0)">
<path d="M176.501 451.421C233.342 451.421 279.421 405.342 279.421 348.501C279.421 291.66 233.342 245.581 176.501 245.581C119.66 245.581 73.5808 291.66 73.5808 348.501C73.5808 405.342 119.66 451.421 176.501 451.421Z" fill="#010101"/>
<path fill-rule="evenodd" clip-rule="evenodd" d="M144.263 335.253L176.5 303.016L208.737 335.286L227.495 316.529L176.5 265.5L125.505 316.495L144.263 335.253ZM93.5002 348.5L112.258 329.742L131.016 348.5L112.258 367.258L93.5002 348.5ZM144.263 361.747L176.5 393.984L208.737 361.714L227.529 380.472L176.5 431.5L125.505 380.505L125.472 380.472L144.263 361.747ZM221.984 348.5L240.742 329.742L259.5 348.5L240.742 367.258L221.984 348.5Z" fill="#F3BA2F"/>
<path fill-rule="evenodd" clip-rule="evenodd" d="M197.417 348.501L176.501 327.519L161.03 343.023L159.237 344.816L155.552 348.501L155.518 348.535L155.552 348.568L176.468 369.484L197.417 348.535V348.501Z" fill="#F3BA2F"/>
</g>
<defs>
<clipPath id="clip0">
<rect width="249" height="249" fill="white" transform="translate(52 224)"/>
</clipPath>
</defs>
</svg>
