<svg width="32" height="32" viewBox="0 0 32 32" fill="none" xmlns="http://www.w3.org/2000/svg">
<g clip-path="url(#clip0)">
<path d="M32 16C32 24.8366 25.3527 32 16.5161 32C7.67957 32 0 24.8366 0 16C0 7.16344 7.67957 0 16.5161 0C25.3527 0 32 7.16344 32 16Z" fill="#2B6E37"/>
<path d="M32 16C32 24.8366 25.3527 32 16.5161 32C7.67957 32 0 24.8366 0 16C0 7.16344 7.67957 0 16.5161 0C25.3527 0 32 7.16344 32 16Z" fill="#2B6E37"/>
<path d="M32 16C32 24.8366 25.3527 32 16.5161 32C7.67957 32 0 24.8366 0 16C0 7.16344 7.67957 0 16.5161 0C25.3527 0 32 7.16344 32 16Z" fill="#2B6E37"/>
<path d="M31.5 16C31.5 24.6985 25.0604 31.5 16.5 31.5C7.93959 31.5 0.5 24.6985 0.5 16C0.5 7.30151 7.93959 0.5 16.5 0.5C25.0604 0.5 31.5 7.30151 31.5 16Z" fill="white"/>
<path d="M31.5 16C31.5 24.6985 25.0604 31.5 16.5 31.5C7.93959 31.5 0.5 24.6985 0.5 16C0.5 7.30151 7.93959 0.5 16.5 0.5C25.0604 0.5 31.5 7.30151 31.5 16Z" fill="white"/>
<path d="M31.5 16C31.5 24.6985 25.0604 31.5 16.5 31.5C7.93959 31.5 0.5 24.6985 0.5 16C0.5 7.30151 7.93959 0.5 16.5 0.5C25.0604 0.5 31.5 7.30151 31.5 16Z" fill="white"/>
<path d="M15.3906 30.4688C15.9062 30.9531 16.625 31.1875 17.5156 31.1875C18.7969 31.1875 19.6094 30.5469 19.6094 29.5781C19.6094 28.9219 19.2031 28.5312 18.625 28.3438C18.3438 28.25 17.9688 28.125 17.4844 28.0156C16.5781 27.7969 16.1406 27.5625 16.1406 26.9844C16.1406 26.3281 16.6719 25.9219 17.5625 25.9219C18.2031 25.9219 18.7344 26.1406 19.2656 26.5938L19.5312 26.0781C19.0625 25.6094 18.3594 25.3594 17.5625 25.3594C16.3125 25.3594 15.4844 26.0312 15.4844 27.0156C15.4844 27.6875 15.875 28.0938 16.4375 28.3281C16.7188 28.4375 17.0781 28.5312 17.5156 28.6406C18.4531 28.8594 18.9375 29 18.9531 29.6094C18.9688 30.25 18.4375 30.625 17.5156 30.625C16.75 30.625 16.2031 30.4375 15.625 29.9688L15.3906 30.4688Z" fill="#4D2419"/>
<path d="M18.8586 17.5297C18.8586 17.5297 17.4009 9.67847 28.6823 9.67847C28.6823 9.67847 28.619 13.4632 26.1472 15.431C23.6754 17.3989 18.8586 17.5297 18.8586 17.5297Z" fill="#47B85B"/>
<path d="M28.6823 9.67847C28.6823 9.67847 28.6189 13.4682 26.1471 15.431C23.6753 17.3939 18.8585 17.5297 18.8585 17.5297C20.9944 14.4547 23.8718 12.361 25.9443 11.0927C27.1612 10.3478 28.6823 9.67847 28.6823 9.67847Z" fill="#399349"/>
<path d="M15.5628 13.6041C15.5628 13.6041 17.0205 5.75281 5.73901 5.75281C5.73901 5.75281 5.80239 9.53751 8.27418 11.5054C10.746 13.4732 15.5628 13.6041 15.5628 13.6041Z" fill="#47B85B"/>
<path d="M15.5628 13.6041C15.5628 13.6041 10.7396 13.4682 8.27418 11.5054C5.80239 9.54255 5.73901 5.75281 5.73901 5.75281C5.73901 5.75281 7.89391 6.72415 8.74952 7.20227C11.1389 8.54604 14.3015 10.7454 15.5628 13.6041Z" fill="#399349"/>
<path d="M17.5276 26L16.8938 25.9748C16.9002 25.8993 17.3755 18.4708 15.265 13.6896C14.0354 10.8964 10.9425 8.73731 8.5658 7.41367L8.92706 7.00098C11.3798 8.36488 14.5742 10.6045 15.8608 13.5236C18.0156 18.3954 17.534 25.9245 17.5276 26Z" fill="#2B6E37"/>
<path d="M7.97876 8.1698L10.8118 8.22155L10.7972 8.72488L7.96418 8.67313L7.97876 8.1698Z" fill="#2B6E37"/>
<path d="M12.9281 8.41284L13.2169 10.0837L12.5888 10.1521L12.3 8.48129L12.9281 8.41284Z" fill="#2B6E37"/>
<path d="M11.4139 11.0111L14.0441 11.0216L14.041 11.5248L11.4108 11.5144L11.4139 11.0111Z" fill="#2B6E37"/>
<path d="M17.3501 20.2021L16.7987 19.9555C17.3564 19.1603 17.9522 18.3047 18.5797 17.4038C20.7599 14.2734 23.6817 12.1345 25.7542 10.8914L26.1345 11.294C24.1127 12.5069 21.2606 14.5955 19.1374 17.6504C18.5099 18.5513 17.9078 19.4069 17.3501 20.2021Z" fill="#2B6E37"/>
<path d="M26.8765 12.0568L26.9297 12.5585L23.8524 12.7644L23.7992 12.2626L26.8765 12.0568Z" fill="#2B6E37"/>
<path d="M22.2321 12.3481L22.5262 13.7525L21.9013 13.8351L21.6072 12.4307L22.2321 12.3481Z" fill="#2B6E37"/>
<path d="M24.0874 14.7701L24.1394 15.2719L20.7525 15.4931L20.7005 14.9913L24.0874 14.7701Z" fill="#2B6E37"/>
<path d="M14.2508 13.7551C12.6854 13.579 9.80162 13.0807 8.04602 11.6816C5.51719 9.66842 5.42212 5.91391 5.42212 5.7579C5.42212 5.69247 5.45381 5.62704 5.51085 5.57671C5.56789 5.52638 5.65662 5.50122 5.73901 5.50122C9.40233 5.50122 12.1403 6.31654 13.8832 7.91699C16.4628 10.2925 15.905 13.5035 15.8797 13.6393L15.2522 13.5639L15.5628 13.5991L15.2522 13.5639C15.2586 13.5337 15.7909 10.4384 13.4016 8.23909C11.8361 6.80473 9.37064 6.05483 6.06859 6.00451C6.1383 6.87519 6.51224 9.74392 8.49601 11.3242C10.1185 12.6177 12.8565 13.0857 14.3396 13.2518L14.2508 13.7551Z" fill="#4D2419"/>
<path d="M18.8586 17.7813C18.7001 17.7813 18.567 17.6907 18.548 17.5649C18.5227 17.429 17.9586 14.2181 20.5445 11.8425C22.2811 10.2421 25.0191 9.42676 28.6824 9.42676C28.7648 9.42676 28.8472 9.45192 28.9105 9.50225C28.9739 9.55258 29.0056 9.61297 28.9993 9.68343C28.9993 9.84449 28.9042 13.594 26.369 15.6071C23.8402 17.6203 19.0677 17.7763 18.8649 17.7813H18.8586ZM28.3528 9.93004C25.0507 9.97534 22.5916 10.7303 21.0262 12.1646C19.0107 14.0117 19.0741 16.4979 19.1438 17.2579C20.2149 17.1925 23.9163 16.8452 25.9254 15.2498C27.9092 13.6745 28.2831 10.8058 28.3528 9.93004Z" fill="#4D2419"/>
<path d="M17.5276 26L16.8938 25.9748C16.9002 25.8993 17.3755 18.4708 15.265 13.6896C14.0354 10.8964 10.9425 8.73731 8.5658 7.41367L8.92706 7.00098C11.3798 8.36488 14.5742 10.6045 15.8608 13.5236C18.0156 18.3954 17.534 25.9245 17.5276 26Z" fill="#4D2419"/>
<path d="M7.97876 8.1698L10.8118 8.22155L10.7972 8.72488L7.96418 8.67313L7.97876 8.1698Z" fill="#4D2419"/>
<path d="M12.9281 8.41284L13.2169 10.0837L12.5888 10.1521L12.3 8.48129L12.9281 8.41284Z" fill="#4D2419"/>
<path d="M11.4139 11.0111L14.0441 11.0216L14.041 11.5248L11.4108 11.5144L11.4139 11.0111Z" fill="#4D2419"/>
<path d="M17.3501 20.2021L16.7987 19.9555C17.3564 19.1603 17.9522 18.3047 18.5797 17.4038C20.7599 14.2734 23.6817 12.1345 25.7542 10.8914L26.1345 11.294C24.1127 12.5069 21.2606 14.5955 19.1374 17.6504C18.5099 18.5513 17.9078 19.4069 17.3501 20.2021Z" fill="#4D2419"/>
<path d="M26.8765 12.0568L26.9297 12.5585L23.8524 12.7644L23.7992 12.2626L26.8765 12.0568Z" fill="#4D2419"/>
<path d="M22.2321 12.3481L22.5262 13.7525L21.9013 13.8351L21.6072 12.4307L22.2321 12.3481Z" fill="#4D2419"/>
<path d="M24.0874 14.7701L24.1394 15.2719L20.7525 15.4931L20.7005 14.9913L24.0874 14.7701Z" fill="#4D2419"/>
</g>
<defs>
<clipPath id="clip0">
<rect width="32" height="32" fill="white"/>
</clipPath>
</defs>
</svg>