<svg width="32" height="32" viewBox="0 0 32 32" fill="none" xmlns="http://www.w3.org/2000/svg">
<path d="M31.6786 4.29822C31.4771 4.21703 31.156 4.04734 30.7738 3.94642C30.391 3.83902 29.874 3.65805 29.3469 3.61351C28.8144 3.55826 28.2125 3.54135 27.5526 3.57292C26.9122 3.62507 26.2579 3.7615 25.5597 3.94247C24.8606 4.12345 24.2207 4.42338 23.5397 4.75149C22.8733 5.09173 22.2664 5.51428 21.6586 5.97658C21.0816 6.45269 20.5376 6.98123 20.0389 7.54135C19.5741 8.11724 19.1121 8.7109 18.7557 9.3429C18.3882 9.97235 18.0719 10.6182 17.8424 11.28C17.3533 12.59 17.1583 13.9385 17.1377 15.1385C17.1397 15.7477 17.1755 16.312 17.2516 16.833C17.3164 17.3471 17.4458 17.8255 17.5456 18.2105C17.587 18.3929 17.6437 18.5646 17.6987 18.7191C17.7962 18.5127 17.9033 18.2937 18.0226 18.0572C18.614 16.8831 19.4763 15.3567 20.4834 13.9267C20.9849 13.2104 21.5346 12.5308 22.0733 11.9143C22.3569 11.618 22.6309 11.3344 22.8911 11.0638C23.169 10.8129 23.4334 10.5759 23.6744 10.3577C23.9349 10.1609 24.1759 9.98194 24.3882 9.82239C24.5908 9.65297 24.8051 9.55459 24.9652 9.45368C25.2911 9.26087 25.4763 9.15037 25.4763 9.15037C25.4763 9.15037 25.2998 9.27468 24.99 9.4923C24.8395 9.60646 24.6388 9.71809 24.4488 9.90245C24.2531 10.0761 24.0319 10.2703 23.7897 10.484C23.5679 10.7179 23.3285 10.9708 23.074 11.2383C22.8406 11.523 22.5948 11.8235 22.34 12.1336C21.8607 12.7794 21.3765 13.4861 20.9424 14.2249C20.0674 15.6964 19.3457 17.2527 18.8603 18.4392C18.7851 18.6232 18.7177 18.7932 18.656 18.9542C18.0654 20.3213 17.7494 21.7333 17.5924 23.0396C17.1986 21.766 16.6233 20.4118 15.7787 19.156C15.6879 19.0083 16.5412 18.5629 16.676 18.7478C16.7025 18.5869 16.7261 18.4065 16.7335 18.2213C16.7608 17.8249 16.8003 17.3319 16.7704 16.8129C16.7498 16.2892 16.6808 15.7249 16.5714 15.1267C16.3304 13.9512 15.8918 12.6604 15.1696 11.463C14.8228 10.8558 14.393 10.2768 13.9171 9.72655C13.4506 9.17038 12.8868 8.67172 12.3245 8.19025C11.7308 7.73106 11.0988 7.31245 10.4457 6.94882C9.76237 6.60604 9.08837 6.30301 8.37012 6.09046C7.64031 5.89314 6.95645 5.71499 6.23538 5.66594C5.51515 5.6152 4.84877 5.60223 4.2086 5.66876C3.55152 5.75953 2.96293 5.88581 2.44905 6.03832C1.93968 6.17954 1.46357 6.45015 1.10867 6.62662C0.751233 6.79772 0.466808 7.02323 0.283862 7.14135C0.0989429 7.27073 0 7.35953 0 7.35953C0 7.35953 0.0603242 7.47538 0.17308 7.69441C0.2895 7.88299 0.439746 8.21619 0.637068 8.52401C0.818887 8.83662 1.03735 9.21746 1.28739 9.65551C1.52333 10.0809 1.78041 10.5144 2.04905 10.9406C2.31882 11.3753 2.5976 11.8523 2.89838 12.2714C3.19887 12.6968 3.51205 13.1681 3.85567 13.5614C4.53333 14.4039 5.31473 15.1746 6.19366 15.8706C6.6272 16.2362 7.10472 16.5353 7.58168 16.8583C8.06258 17.1698 8.57731 17.4385 9.09486 17.7006C9.6234 17.9464 10.1531 18.1838 10.6999 18.3749C11.2505 18.566 11.7849 18.7473 12.3239 18.8862C12.8575 19.0289 13.3813 19.1436 13.8669 19.2327C14.1987 19.3009 14.5198 19.3418 14.8189 19.3793C17.5318 23.1771 17.5416 28.2399 17.5416 28.3033L17.6927 28.3044C17.7049 28.3709 17.7133 28.4239 17.7173 28.4431L18.3977 28.3109H18.4392C18.4392 28.3089 18.4392 28.3033 18.4392 28.3024L18.5993 28.2717C18.5866 28.2077 17.6677 23.2293 19.6364 18.9993C19.9256 18.9057 20.2326 18.8082 20.5469 18.6799C21.008 18.5012 21.5019 18.294 21.9997 18.0555C22.504 17.8213 22.997 17.5444 23.5016 17.2558C24.0039 16.9666 24.4826 16.6368 24.9553 16.2971C25.4165 15.9439 25.8737 15.5879 26.2892 15.1921C26.6991 14.7864 27.1132 14.4059 27.4729 13.9664C28.2097 13.1219 28.8358 12.2199 29.3471 11.2688C29.6121 10.82 29.8342 10.2979 30.0502 9.82549C30.27 9.35699 30.4564 8.83775 30.6407 8.36164C30.8268 7.89427 30.9993 7.42013 31.1538 6.9584C31.3198 6.48342 31.4647 6.06848 31.5859 5.72796C31.7238 5.38884 31.8109 5.03451 31.8898 4.82704C31.9603 4.59223 31.9989 4.46735 31.9989 4.46735C31.9989 4.46735 31.8853 4.39321 31.6786 4.29822ZM6.88823 11.4946L9.55743 11.4906L5.77308 8.50118H7.35363L12.833 12.639H10.1815L13.982 16.4403L6.88823 11.4946Z" fill="#2B6E37"/>
</svg>
