<svg width="512" height="512" viewBox="0 0 512 512" fill="none" xmlns="http://www.w3.org/2000/svg">
<path d="M270.087 316.713C270.087 316.713 242.358 135.698 456.957 135.698C456.957 135.698 455.751 222.956 408.732 268.326C361.713 313.696 270.087 316.713 270.087 316.713Z" fill="#47B85B"/>
<path d="M456.957 135.698C456.957 135.698 455.751 223.072 408.732 268.326C361.713 313.58 270.087 316.713 270.087 316.713C310.716 245.815 365.451 197.545 404.874 168.304C428.022 151.13 456.957 135.698 456.957 135.698Z" fill="#399349"/>
<path d="M207.395 226.205C207.395 226.205 235.124 45.1903 20.5251 45.1903C20.5251 45.1903 21.7307 132.449 68.7496 177.819C115.768 223.188 207.395 226.205 207.395 226.205Z" fill="#47B85B"/>
<path d="M207.395 226.205C207.395 226.205 115.648 223.072 68.7496 177.819C21.7307 132.565 20.5251 45.1903 20.5251 45.1903C20.5251 45.1903 61.5159 67.5851 77.7917 78.6085C123.243 109.59 183.403 160.297 207.395 226.205Z" fill="#399349"/>
<path d="M244.769 512L232.713 511.42C232.833 509.679 241.876 338.411 201.729 228.178C178.34 163.778 119.506 113.999 74.2954 83.4818L81.1674 73.9669C127.825 105.412 188.587 157.048 213.061 224.349C254.052 336.671 244.89 510.259 244.769 512Z" fill="#2B6E37"/>
<path d="M63.1308 100.916L117.022 102.109L116.744 113.712L62.8535 112.519L63.1308 100.916Z" fill="#2B6E37"/>
<path d="M157.276 106.519L162.769 145.041L150.822 146.619L145.329 108.097L157.276 106.519Z" fill="#2B6E37"/>
<path d="M128.474 166.422L178.507 166.663L178.447 178.266L128.414 178.026L128.474 166.422Z" fill="#2B6E37"/>
<path d="M241.393 378.327L230.904 372.642C241.514 354.308 252.847 334.582 264.782 313.812C306.255 241.638 361.834 192.323 401.257 163.662L408.491 172.945C370.032 200.91 315.78 249.064 275.392 319.498C263.456 340.268 252.003 359.994 241.393 378.327Z" fill="#2B6E37"/>
<path d="M422.607 190.531L423.62 202.099L365.082 206.846L364.07 195.277L422.607 190.531Z" fill="#2B6E37"/>
<path d="M334.259 197.249L339.855 229.627L327.967 231.53L322.372 199.152L334.259 197.249Z" fill="#2B6E37"/>
<path d="M369.551 253.088L370.539 264.657L306.112 269.757L305.124 258.188L369.551 253.088Z" fill="#2B6E37"/>
<path d="M182.439 229.686C152.66 225.625 97.8048 214.137 64.4093 181.88C16.3054 135.466 14.4969 48.9033 14.4969 45.3062C14.4969 43.7978 15.0998 42.2893 16.1848 41.129C17.2699 39.9686 18.9577 39.3884 20.525 39.3884C90.2094 39.3884 142.292 58.1861 175.446 95.0853C224.515 149.854 213.905 223.884 213.423 227.017L201.487 225.277L207.395 226.089L201.487 225.277C201.608 224.581 211.735 153.219 166.284 102.512C136.505 69.4416 89.6066 52.1523 26.7942 50.992C28.1204 71.066 35.2335 137.206 72.9691 173.641C103.833 203.462 155.915 214.254 184.127 218.083L182.439 229.686Z" fill="#4D2419"/>
<path d="M270.087 322.514C267.073 322.514 264.541 320.426 264.179 317.525C263.697 314.392 252.967 240.362 302.156 185.593C335.19 148.694 387.272 129.896 456.957 129.896C458.524 129.896 460.091 130.476 461.297 131.637C462.503 132.797 463.105 134.189 462.985 135.814C462.985 139.527 461.176 225.973 412.952 272.387C364.848 318.801 274.065 322.398 270.207 322.514H270.087ZM450.688 141.5C387.875 142.544 341.097 159.949 311.319 193.019C272.98 235.604 274.186 292.926 275.512 310.447C295.887 308.938 366.295 300.932 404.513 264.149C442.248 227.83 449.361 161.69 450.688 141.5Z" fill="#4D2419"/>
<path d="M244.769 512L232.713 511.42C232.833 509.679 241.876 338.411 201.729 228.178C178.34 163.778 119.506 113.999 74.2954 83.4818L81.1674 73.9669C127.825 105.412 188.587 157.048 213.061 224.349C254.052 336.671 244.89 510.259 244.769 512Z" fill="#4D2419"/>
<path d="M63.1308 100.916L117.022 102.109L116.744 113.712L62.8535 112.519L63.1308 100.916Z" fill="#4D2419"/>
<path d="M157.276 106.519L162.769 145.041L150.822 146.619L145.329 108.097L157.276 106.519Z" fill="#4D2419"/>
<path d="M128.474 166.422L178.507 166.663L178.447 178.266L128.414 178.026L128.474 166.422Z" fill="#4D2419"/>
<path d="M241.393 378.327L230.904 372.642C241.514 354.308 252.847 334.582 264.782 313.812C306.255 241.638 361.834 192.323 401.257 163.662L408.491 172.945C370.032 200.91 315.78 249.064 275.392 319.498C263.456 340.268 252.003 359.994 241.393 378.327Z" fill="#4D2419"/>
<path d="M422.607 190.531L423.62 202.099L365.082 206.846L364.07 195.277L422.607 190.531Z" fill="#4D2419"/>
<path d="M334.259 197.249L339.855 229.627L327.967 231.53L322.372 199.152L334.259 197.249Z" fill="#4D2419"/>
<path d="M369.551 253.088L370.539 264.657L306.112 269.757L305.124 258.188L369.551 253.088Z" fill="#4D2419"/>
<path d="M270.087 316.713C270.087 316.713 242.358 135.698 456.957 135.698C456.957 135.698 455.751 222.956 408.732 268.326C361.713 313.696 270.087 316.713 270.087 316.713Z" fill="#47B85B"/>
<path d="M456.957 135.698C456.957 135.698 455.751 223.072 408.732 268.326C361.713 313.58 270.087 316.713 270.087 316.713C310.716 245.815 365.451 197.545 404.874 168.304C428.022 151.13 456.957 135.698 456.957 135.698Z" fill="#399349"/>
<path d="M207.395 226.205C207.395 226.205 235.124 45.1903 20.5251 45.1903C20.5251 45.1903 21.7307 132.449 68.7496 177.819C115.768 223.188 207.395 226.205 207.395 226.205Z" fill="#47B85B"/>
<path d="M207.395 226.205C207.395 226.205 115.648 223.072 68.7496 177.819C21.7307 132.565 20.5251 45.1903 20.5251 45.1903C20.5251 45.1903 61.5159 67.5851 77.7917 78.6085C123.243 109.59 183.403 160.297 207.395 226.205Z" fill="#399349"/>
<path d="M244.769 512L232.713 511.42C232.833 509.679 241.876 338.411 201.729 228.178C178.34 163.778 119.506 113.999 74.2954 83.4818L81.1674 73.9669C127.825 105.412 188.587 157.048 213.061 224.349C254.052 336.671 244.89 510.259 244.769 512Z" fill="#2B6E37"/>
<path d="M63.1308 100.916L117.022 102.109L116.744 113.712L62.8535 112.519L63.1308 100.916Z" fill="#2B6E37"/>
<path d="M157.276 106.519L162.769 145.041L150.822 146.619L145.329 108.097L157.276 106.519Z" fill="#2B6E37"/>
<path d="M128.474 166.422L178.507 166.663L178.447 178.266L128.414 178.026L128.474 166.422Z" fill="#2B6E37"/>
<path d="M241.393 378.327L230.904 372.642C241.514 354.308 252.847 334.582 264.782 313.812C306.255 241.638 361.834 192.323 401.257 163.662L408.491 172.945C370.032 200.91 315.78 249.064 275.392 319.498C263.456 340.268 252.003 359.994 241.393 378.327Z" fill="#2B6E37"/>
<path d="M422.607 190.531L423.62 202.099L365.082 206.846L364.07 195.277L422.607 190.531Z" fill="#2B6E37"/>
<path d="M334.259 197.249L339.855 229.627L327.967 231.53L322.372 199.152L334.259 197.249Z" fill="#2B6E37"/>
<path d="M369.551 253.088L370.539 264.657L306.112 269.757L305.124 258.188L369.551 253.088Z" fill="#2B6E37"/>
<path d="M182.439 229.686C152.66 225.625 97.8048 214.137 64.4093 181.88C16.3054 135.466 14.4969 48.9033 14.4969 45.3062C14.4969 43.7978 15.0998 42.2893 16.1848 41.129C17.2699 39.9686 18.9577 39.3884 20.525 39.3884C90.2094 39.3884 142.292 58.1861 175.446 95.0853C224.515 149.854 213.905 223.884 213.423 227.017L201.487 225.277L207.395 226.089L201.487 225.277C201.608 224.581 211.735 153.219 166.284 102.512C136.505 69.4416 89.6066 52.1523 26.7942 50.992C28.1204 71.066 35.2335 137.206 72.9691 173.641C103.833 203.462 155.915 214.254 184.127 218.083L182.439 229.686Z" fill="#4D2419"/>
<path d="M270.087 322.514C267.073 322.514 264.541 320.426 264.179 317.525C263.697 314.392 252.967 240.362 302.156 185.593C335.19 148.694 387.272 129.896 456.957 129.896C458.524 129.896 460.091 130.476 461.297 131.637C462.503 132.797 463.105 134.189 462.985 135.814C462.985 139.527 461.176 225.973 412.952 272.387C364.848 318.801 274.065 322.398 270.207 322.514H270.087ZM450.688 141.5C387.875 142.544 341.097 159.949 311.319 193.019C272.98 235.604 274.186 292.926 275.512 310.447C295.887 308.938 366.295 300.932 404.513 264.149C442.248 227.83 449.361 161.69 450.688 141.5Z" fill="#4D2419"/>
<path d="M244.769 512L232.713 511.42C232.833 509.679 241.876 338.411 201.729 228.178C178.34 163.778 119.506 113.999 74.2954 83.4818L81.1674 73.9669C127.825 105.412 188.587 157.048 213.061 224.349C254.052 336.671 244.89 510.259 244.769 512Z" fill="#4D2419"/>
<path d="M63.1308 100.916L117.022 102.109L116.744 113.712L62.8535 112.519L63.1308 100.916Z" fill="#4D2419"/>
<path d="M157.276 106.519L162.769 145.041L150.822 146.619L145.329 108.097L157.276 106.519Z" fill="#4D2419"/>
<path d="M128.474 166.422L178.507 166.663L178.447 178.266L128.414 178.026L128.474 166.422Z" fill="#4D2419"/>
<path d="M241.393 378.327L230.904 372.642C241.514 354.308 252.847 334.582 264.782 313.812C306.255 241.638 361.834 192.323 401.257 163.662L408.491 172.945C370.032 200.91 315.78 249.064 275.392 319.498C263.456 340.268 252.003 359.994 241.393 378.327Z" fill="#4D2419"/>
<path d="M422.607 190.531L423.62 202.099L365.082 206.846L364.07 195.277L422.607 190.531Z" fill="#4D2419"/>
<path d="M334.259 197.249L339.855 229.627L327.967 231.53L322.372 199.152L334.259 197.249Z" fill="#4D2419"/>
<path d="M369.551 253.088L370.539 264.657L306.112 269.757L305.124 258.188L369.551 253.088Z" fill="#4D2419"/>
</svg>