<svg width="32" height="32" viewBox="0 0 32 32" fill="none" xmlns="http://www.w3.org/2000/svg">
<path d="M21.9319 13.556C21.7258 13.4781 21.4914 13.407 21.2286 13.3502C20.9683 13.3022 20.6952 13.2882 20.4009 13.286C20.1044 13.2829 19.8207 13.335 19.5174 13.3926C19.2178 13.4572 18.9341 13.5591 18.6448 13.6782C18.3673 13.8057 18.0964 13.9566 17.8405 14.1262C17.5973 14.3039 17.3507 14.4897 17.1434 14.7017C16.9314 14.9112 16.739 15.1332 16.5785 15.3701C16.2468 15.8359 16.027 16.3481 15.8935 16.8201C15.829 17.0604 15.7841 17.2877 15.7592 17.5C15.7321 17.7104 15.7321 17.9118 15.7321 18.0743C15.7289 18.1509 15.733 18.2255 15.7374 18.2919C15.7988 18.2211 15.8642 18.1444 15.9353 18.0637C16.2935 17.6637 16.7942 17.1515 17.3438 16.6922C17.6169 16.4628 17.9072 16.2533 18.1821 16.0653C18.3252 15.979 18.4636 15.8957 18.5961 15.8153C18.7327 15.7464 18.8608 15.6797 18.9799 15.6186C19.1037 15.5684 19.2168 15.5235 19.3172 15.482C19.4151 15.4371 19.509 15.4212 19.5838 15.3975C19.7331 15.3564 19.8185 15.3327 19.8185 15.3327C19.8185 15.3327 19.735 15.362 19.5903 15.4153C19.5177 15.4437 19.4279 15.4683 19.3344 15.5204C19.238 15.5684 19.1296 15.6217 19.0123 15.68C18.8992 15.7489 18.7798 15.824 18.6495 15.9029C18.5276 15.9899 18.3985 16.0825 18.2644 16.1791C18.0072 16.3845 17.7404 16.6118 17.4919 16.8575C16.9906 17.3466 16.5417 17.8844 16.2259 18.3015C16.1361 18.4178 16.06 18.5247 15.9921 18.6186C16.08 18.6186 16.1906 18.6229 16.3144 18.6111C16.4706 18.5996 16.6679 18.5974 16.8662 18.5727C17.0682 18.5506 17.2843 18.5216 17.5063 18.4789C17.7298 18.4406 17.9539 18.3826 18.1843 18.3221C18.4125 18.2604 18.6367 18.1812 18.8608 18.0979C19.0794 18.0063 19.2982 17.9143 19.5033 17.8015C19.7079 17.6839 19.9108 17.5783 20.0985 17.442C20.4795 17.1864 20.8218 16.8958 21.1235 16.5735C21.2763 16.4251 21.4191 16.2418 21.5559 16.0784C21.6903 15.9169 21.8206 15.7311 21.9419 15.5621C22.0657 15.3969 22.1829 15.2289 22.292 15.0627C22.407 14.8909 22.5093 14.7438 22.5928 14.621C22.6845 14.5031 22.7549 14.3706 22.8073 14.2977C22.8609 14.2122 22.8896 14.1664 22.8896 14.1664C22.8896 14.1664 22.8522 14.1274 22.7808 14.0691C22.7101 14.0149 22.5994 13.9139 22.4585 13.8335C22.3213 13.7546 22.1342 13.6293 21.9319 13.556Z" fill="#2B6E37"/>
<path d="M26.4476 21.3815V19.6734H15.4779C15.5447 17.9791 15.8056 16.2279 16.0297 15.177C16.161 14.565 16.2767 14.0157 16.3487 13.5416C17.2992 13.4823 18.0537 12.7001 18.0537 11.7381C18.0537 11.6196 18.0431 11.493 18.0225 11.363C18.0802 11.4341 18.1366 11.5099 18.1964 11.5685C18.9047 12.2765 20.0573 12.2765 20.7653 11.5685C21.4515 10.8826 21.4674 9.78897 20.8295 9.07661C21.8119 9.05386 22.6028 8.25171 22.6028 7.26408C22.6028 6.26116 21.79 5.44717 20.7871 5.44717C20.7057 5.44717 20.6219 5.45621 20.5362 5.46588C20.582 5.4266 20.6375 5.38763 20.6771 5.34679C21.3863 4.63817 21.3863 3.48749 20.6771 2.77637C19.9675 2.06838 18.8175 2.06838 18.1091 2.77637C18.0537 2.83187 18.0022 2.90045 17.9511 2.96842C17.9533 2.91698 17.9576 2.86491 17.9576 2.81597C17.9576 1.81305 17.1433 1 16.1401 1C15.1709 1 14.3868 1.76006 14.3344 2.71496C13.6218 2.05529 12.5135 2.0662 11.8192 2.75985C11.1103 3.46878 11.1103 4.61947 11.8192 5.32933C11.8981 5.40727 11.9932 5.48552 12.0923 5.55878C12.015 5.55036 11.937 5.54382 11.8641 5.54382C10.8612 5.54382 10.0472 6.35625 10.0472 7.3601C10.0472 8.35771 10.8537 9.16733 11.8491 9.17482C11.1605 9.88468 11.1648 11.0188 11.8672 11.7212C12.5718 12.4258 13.709 12.428 14.4192 11.7343C14.4192 11.7356 14.4192 11.7365 14.4192 11.7377C14.4192 12.5761 14.9932 13.2769 15.7679 13.4851C15.698 13.9353 15.5855 14.4647 15.4595 15.0567C15.2977 15.8089 15.121 16.6448 15.005 17.4731C15.0019 17.4591 15.0019 17.4485 14.9975 17.4357C14.9024 17.099 14.7463 16.7352 14.5099 16.4056C14.3965 16.237 14.2599 16.0786 14.1093 15.9293C13.9616 15.7796 13.7873 15.6478 13.6143 15.5206C13.4319 15.4005 13.2399 15.2942 13.0431 15.2026C12.8377 15.1193 12.6354 15.0451 12.4237 14.9993C12.2083 14.9588 12.0072 14.922 11.7964 14.9251C11.5869 14.9251 11.3937 14.9357 11.2085 14.97C11.0217 15.0105 10.8537 15.0595 10.7081 15.115C10.5641 15.167 10.4319 15.2568 10.3337 15.3161C10.2333 15.3737 10.1557 15.4445 10.1064 15.4832C10.0553 15.5246 10.0291 15.5521 10.0291 15.5521C10.0291 15.5521 10.0484 15.5842 10.0868 15.6446C10.1242 15.6976 10.1753 15.7902 10.2398 15.8741C10.2985 15.9605 10.3711 16.0668 10.4528 16.1877C10.5307 16.3056 10.6143 16.4262 10.7019 16.5431C10.7904 16.6619 10.8811 16.7944 10.9771 16.9091C11.0732 17.0248 11.1739 17.156 11.2833 17.2605C11.4972 17.4887 11.7409 17.6957 12.0119 17.8771C12.1453 17.9744 12.2893 18.0501 12.4352 18.1309C12.5808 18.2119 12.7361 18.2783 12.8919 18.3423C13.0503 18.4009 13.2099 18.4573 13.3714 18.5022C13.5357 18.5452 13.6941 18.5857 13.8537 18.6141C14.0111 18.6431 14.1648 18.6655 14.3082 18.6814C14.4479 18.6998 14.5888 18.7017 14.6992 18.7083C14.7721 18.7148 14.8326 18.7126 14.8881 18.7126C14.8784 18.9695 14.8806 19.3015 14.8934 19.6738H5.552V21.3828H15.0368C15.0748 21.6771 15.1207 21.9695 15.1743 22.2579H6.26311C6.26311 22.2579 7.40133 32.9991 10.9915 32.9991C14.5826 32.9991 15.8171 32.9991 20.3142 32.9991C24.8122 32.9991 25.5283 22.2579 25.5283 22.2579H15.5805C15.5384 21.9826 15.5116 21.688 15.4926 21.3828H26.4476V21.3815V21.3815ZM14.6883 7.26314C14.6883 6.38929 15.3981 5.67787 16.2735 5.67787C17.1461 5.67787 17.8594 6.38961 17.8594 7.26314C17.8594 8.13761 17.1474 8.84841 16.2735 8.84841C15.3981 8.84966 14.6883 8.13761 14.6883 7.26314ZM14.7612 18.4882C14.5368 18.1917 14.2188 17.8098 13.8624 17.4619C13.6854 17.2879 13.4977 17.1249 13.3141 16.9808C13.219 16.9119 13.1273 16.8474 13.0419 16.7838C12.9493 16.7283 12.8639 16.6744 12.7844 16.6254C12.6999 16.5843 12.6248 16.5459 12.5562 16.5119C12.4895 16.4752 12.4249 16.4586 12.3738 16.4378C12.2706 16.4003 12.2114 16.3791 12.2114 16.3791C12.2114 16.3791 12.2715 16.3963 12.3779 16.425C12.4299 16.4421 12.4979 16.4533 12.5665 16.4858C12.6375 16.5144 12.7195 16.5472 12.8068 16.5818C12.8916 16.6257 12.9833 16.6725 13.0799 16.7221C13.1725 16.7797 13.272 16.8368 13.3748 16.8998C13.5713 17.032 13.7755 17.1819 13.9712 17.3446C14.3382 17.6517 14.668 17.9878 14.918 18.2643C14.9074 18.3977 14.8975 18.5309 14.8922 18.6621C14.851 18.6057 14.812 18.5524 14.7612 18.4882Z" fill="#2B6E37"/>
</svg>
