<svg width="175" height="175" viewBox="0 0 175 175" fill="none" xmlns="http://www.w3.org/2000/svg">
<g clip-path="url(#clip0)">
<g clip-path="url(#clip1)">
<path d="M65.1733 56.3558C65.1733 49.4509 60.9747 41.4291 55.7959 38.439C53.3624 37.0339 51.145 36.9906 49.4788 38.0556V38.055L41.6711 42.4337L41.6724 42.4343C39.7687 43.6239 38.5718 46.2453 38.5718 49.9319C38.5718 56.8374 42.7698 64.8586 47.9486 67.8487C50.2228 69.1616 52.3077 69.2855 53.9313 68.4274L53.9307 68.428L62.0435 63.8723H62.0404C63.9624 62.6925 65.1733 60.0631 65.1733 56.3558V56.3558Z" fill="#2B5D99"/>
<path d="M44.2336 44.139C43.5909 44.139 43.0215 43.6788 42.9055 43.0239C42.7761 42.2897 43.2656 41.5896 43.9999 41.4596C44.2379 41.4181 49.8782 40.4373 53.9974 41.144C54.7323 41.2698 55.2254 41.9674 55.0997 42.7023C54.974 43.4371 54.277 43.9297 53.5409 43.8046C49.88 43.1765 44.5235 44.1085 44.4698 44.1183C44.3905 44.1323 44.3118 44.139 44.2336 44.139V44.139Z" fill="#162F4D"/>
<path d="M48.5293 38.5879L51.1032 40.0485C51.3137 40.1681 51.5426 40.2242 51.7678 40.2242C52.2378 40.2242 52.695 39.9789 52.9434 39.5406C53.3114 38.8925 53.0837 38.0685 52.4356 37.7004L51.7758 37.3263C50.9341 37.3739 50.1595 37.6205 49.4784 38.0557L49.479 38.0551L48.5293 38.5879Z" fill="#162F4D"/>
<path d="M56.3168 38.76C56.2844 40.1321 56.2332 43.0801 56.3382 44.7628C56.3833 45.4782 56.9772 46.0287 57.684 46.0287C57.7127 46.0287 57.7413 46.0281 57.7694 46.0256C58.5134 45.9793 59.0792 45.3384 59.0328 44.5944C58.9749 43.6654 58.9688 42.275 58.9804 41.0183C58.1411 40.1302 57.2476 39.3655 56.3168 38.76Z" fill="#162F4D"/>
<path d="M59.6194 50.0783C59.3997 50.0783 59.1769 50.0246 58.9712 49.9111C57.5381 49.1244 52.955 48.9889 50.4043 49.0871C49.6683 49.1176 49.0323 48.5354 49.003 47.7907C48.9743 47.0455 49.5547 46.4187 50.3 46.3894C51.0525 46.3607 57.7206 46.1458 60.2701 47.5448C60.9238 47.9037 61.1624 48.7246 60.8041 49.3777C60.5582 49.825 60.0961 50.0783 59.6194 50.0783Z" fill="#162F4D"/>
<path d="M63.2326 47.6241C62.4245 48.627 60.5593 50.9847 59.6786 52.4478C59.294 53.0862 59.4997 53.9156 60.1388 54.3002C60.356 54.4314 60.5965 54.4937 60.8333 54.4937C61.2917 54.4937 61.7379 54.2605 61.9912 53.84C62.5185 52.9635 63.4914 51.6659 64.3087 50.6149C64.0151 49.6005 63.6538 48.5977 63.2326 47.6241V47.6241Z" fill="#162F4D"/>
<path d="M61.8251 58.8967C61.4937 58.8967 61.1616 58.7758 60.901 58.5305C60.0325 57.715 56.0646 56.2172 53.5243 55.4146C52.8133 55.19 52.4196 54.4313 52.6442 53.7209C52.8688 53.0098 53.6262 52.6149 54.3373 52.8402C55.4567 53.1936 61.1232 55.035 62.7498 56.5633C63.293 57.0736 63.3192 57.928 62.809 58.4713C62.5435 58.7538 62.1846 58.8967 61.8251 58.8967Z" fill="#162F4D"/>
<path d="M65.1205 57.6547L65.01 57.7432C62.914 59.4241 61.4883 60.5587 60.7717 61.116C60.1833 61.5737 60.0771 62.4215 60.5349 63.0099C60.801 63.3523 61.1989 63.5311 61.6012 63.5311C61.8911 63.5311 62.1828 63.4384 62.4288 63.2467C62.726 63.0154 63.1441 62.6858 63.6758 62.264C64.4521 61.1117 64.9624 59.5553 65.1205 57.6547V57.6547Z" fill="#162F4D"/>
<path d="M59.9924 63.9353C57.4057 63.1949 55.4929 61.1167 55.474 61.0959C54.9753 60.5441 54.1232 60.5002 53.5703 60.9982C53.0161 61.4969 52.9715 62.3508 53.4702 62.9044C53.5562 62.9996 55.3598 64.9777 58.0588 66.1099L60.7975 64.5725C60.629 64.2734 60.3482 64.0372 59.9924 63.9353V63.9353Z" fill="#162F4D"/>
<path d="M57.326 60.7601C57.326 67.665 53.1274 70.8389 47.9486 67.8494C42.7698 64.8593 38.5718 56.8374 38.5718 49.9325C38.5718 43.0276 42.7698 39.8532 47.9486 42.8433C53.1274 45.8334 57.326 53.8546 57.326 60.7601Z" fill="#162F4D"/>
<path d="M58.7922 33.3816C56.0054 31.7727 53.4669 31.7233 51.559 32.9428V32.9422L43.0269 37.7273C44.3416 37.0565 44.3416 37.0565 43.0269 37.7273L44.2018 39.4809C45.7655 38.8266 47.7058 39.0243 49.8073 40.2377C54.7206 43.0746 58.7483 50.4391 59.1481 57.0834L59.1511 57.0864L60.5122 57.8726L60.5439 57.8909L69.4911 52.7249C69.0516 45.1028 64.4313 36.6372 58.7922 33.3816V33.3816Z" fill="#EA2642"/>
<path d="M90.0002 71.3625C90.0002 65.5855 86.4883 58.8747 82.1554 56.3735C80.1193 55.1979 78.2644 55.1619 76.8704 56.0524V56.0518L70.3384 59.7151L70.3402 59.7157C68.7472 60.7106 67.7456 62.9042 67.7456 65.9883C67.7456 71.7647 71.2582 78.4755 75.5905 80.9773C77.4929 82.0754 79.2373 82.1791 80.5953 81.4613L87.3818 77.6503H87.3794C88.9871 76.6634 90.0002 74.4631 90.0002 71.3625Z" fill="#2B5D99"/>
<path d="M72.4817 61.1416C71.9446 61.1416 71.4679 60.7565 71.3715 60.209C71.2628 59.595 71.6724 59.0091 72.287 58.9004C72.486 58.865 77.204 58.0447 80.6506 58.6361C81.2653 58.7417 81.6779 59.3252 81.5723 59.9399C81.4673 60.5545 80.8838 60.9665 80.2686 60.8621C77.2058 60.3366 72.7246 61.1166 72.6795 61.1246C72.6135 61.1362 72.547 61.1416 72.4817 61.1416V61.1416Z" fill="#162F4D"/>
<path d="M76.0752 56.4974L78.2285 57.72C78.4049 57.8195 78.5966 57.8671 78.7852 57.8671C79.1782 57.8671 79.5603 57.6614 79.7684 57.2946C80.0761 56.7526 79.8856 56.0635 79.3436 55.7552L78.7919 55.4421C78.0875 55.4818 77.4393 55.6887 76.8699 56.0525V56.0519L76.0752 56.4974Z" fill="#162F4D"/>
<path d="M82.5912 56.6421C82.5644 57.7896 82.521 60.256 82.6095 61.6635C82.6468 62.2622 83.1436 62.7224 83.735 62.7224C83.7588 62.7224 83.7832 62.7218 83.8064 62.7206C84.4296 62.6815 84.902 62.145 84.8636 61.5231C84.8147 60.7455 84.8098 59.5822 84.8196 58.5311C84.1177 57.7883 83.37 57.1481 82.5912 56.6421V56.6421Z" fill="#162F4D"/>
<path d="M85.3538 66.1105C85.1701 66.1105 84.9839 66.0659 84.8112 65.9707C83.6125 65.3128 79.7782 65.1986 77.6444 65.281C77.0292 65.3067 76.4964 64.8196 76.4726 64.1964C76.4481 63.5733 76.934 63.0484 77.5572 63.0246C78.187 63.0001 83.7657 62.8207 85.8982 63.9913C86.4451 64.291 86.6447 64.9777 86.345 65.5245C86.1393 65.8987 85.753 66.1105 85.3538 66.1105V66.1105Z" fill="#162F4D"/>
<path d="M88.3773 64.0573C87.7011 64.8965 86.1404 66.8691 85.4037 68.0929C85.0821 68.627 85.2542 69.3209 85.7888 69.6426C85.9707 69.7524 86.1715 69.8043 86.3699 69.8043C86.7532 69.8043 87.1261 69.6096 87.3385 69.2574C87.7798 68.5244 88.5934 67.4386 89.277 66.5591C89.0322 65.7107 88.7295 64.8715 88.3773 64.0573V64.0573Z" fill="#162F4D"/>
<path d="M87.1985 73.4879C86.9214 73.4879 86.6437 73.3866 86.4258 73.1821C85.6995 72.4991 82.3798 71.2467 80.2546 70.5747C79.6601 70.3867 79.3305 69.7525 79.5179 69.158C79.7059 68.5629 80.34 68.2327 80.9351 68.4213C81.8714 68.7174 86.6114 70.2573 87.9724 71.536C88.4272 71.9626 88.4491 72.6773 88.0225 73.132C87.7997 73.3682 87.4994 73.4879 87.1985 73.4879V73.4879Z" fill="#162F4D"/>
<path d="M89.9557 72.449L89.8635 72.5228C88.11 73.9285 86.9174 74.8782 86.318 75.3445C85.8255 75.7272 85.737 76.4364 86.1196 76.929C86.3424 77.2152 86.6757 77.3647 87.012 77.3647C87.2543 77.3647 87.4984 77.2872 87.7047 77.1273C87.9531 76.9338 88.3029 76.658 88.7478 76.3046C89.3966 75.3408 89.8233 74.0389 89.9557 72.449V72.449Z" fill="#162F4D"/>
<path d="M85.6657 77.7029C83.502 77.0833 81.9016 75.3451 81.8858 75.3274C81.4683 74.8659 80.756 74.8287 80.2928 75.2462C79.8295 75.6631 79.7923 76.3772 80.2097 76.8404C80.2812 76.9204 81.7899 78.575 84.0482 79.5223L86.3389 78.2357C86.1985 77.9861 85.9635 77.7883 85.6657 77.7029V77.7029Z" fill="#162F4D"/>
<path d="M83.4353 75.0466C83.4353 80.823 79.9233 83.4787 75.5905 80.9768C71.2582 78.4756 67.7456 71.7648 67.7456 65.9884C67.7456 60.2115 71.2576 57.5564 75.5905 60.0576C79.9233 62.5589 83.4353 69.2697 83.4353 75.0466V75.0466Z" fill="#162F4D"/>
<path d="M77.6741 42.4405C77.6643 42.0719 77.436 41.7209 76.9795 41.4572C75.948 40.8615 74.1469 40.9366 72.9567 41.6239C72.2963 42.0047 71.9642 42.4936 71.9734 42.9556H71.9722V54.5346H71.9728C71.9813 54.9051 72.2096 55.2573 72.6674 55.5222C73.6989 56.1173 75.5 56.0428 76.6908 55.3549C77.3518 54.9735 77.6844 54.4834 77.6741 54.0207H77.6753V42.4405H77.6741Z" fill="#B6C5CE"/>
<path d="M76.6905 43.7795C75.4997 44.4667 73.6986 44.5418 72.6671 43.9461C71.6362 43.351 71.7656 42.311 72.9564 41.6237C74.1472 40.9358 75.9483 40.8614 76.9792 41.4571C78.0101 42.0522 77.8807 43.0922 76.6905 43.7795V43.7795Z" fill="#D6E5E5"/>
<path d="M76.15 36.9698C76.1457 36.797 76.0444 36.6329 75.8314 36.5096C75.3492 36.2313 74.5076 36.266 73.9509 36.5877C73.6421 36.7653 73.4926 36.9936 73.4962 37.209L73.4907 37.2096V42.6222H73.4913C73.495 42.795 73.6018 42.9598 73.816 43.0837C74.2976 43.362 75.1399 43.3272 75.6959 43.0055C76.0054 42.8273 76.1604 42.5978 76.1555 42.3818H76.1561V36.9692L76.15 36.9698Z" fill="#B6C5CE"/>
<path d="M75.6962 37.5954C75.1401 37.9164 74.2978 37.9512 73.8163 37.6735C73.3341 37.3952 73.3945 36.9087 73.9512 36.5877C74.5078 36.266 75.3495 36.2313 75.8316 36.5096C76.3132 36.7879 76.2528 37.2737 75.6962 37.5954V37.5954Z" fill="#D6E5E5"/>
<path d="M75.3028 37.3683C74.9964 37.5453 74.5338 37.5642 74.2683 37.411C74.0034 37.2584 74.0363 36.9911 74.3427 36.8141C74.6491 36.6371 75.1118 36.6182 75.3773 36.7714C75.6422 36.924 75.6092 37.1919 75.3028 37.3683Z" fill="#B6C5CE"/>
<path d="M86.501 59.219L83.3461 57.3977C82.1095 56.6836 80.5781 56.719 79.3757 57.4886C78.8661 57.8152 78.6153 58.4255 78.7489 59.0157C79.134 60.718 80.2247 62.1767 81.7488 63.027L84.0132 64.2898L86.501 59.219Z" fill="#FF4D73"/>
<path d="M87.0104 60.6222C87.0104 61.9851 86.1821 63.5683 85.1598 64.1586C84.1375 64.7488 83.3086 64.1225 83.3086 62.7596C83.3086 61.3967 84.1375 59.8135 85.1598 59.2233C86.1821 58.6331 87.0104 59.2593 87.0104 60.6222V60.6222Z" fill="#D6E5E5"/>
<path d="M86.5244 60.9029C86.5244 61.9082 85.9135 63.0751 85.1597 63.5103C84.4059 63.9455 83.7949 63.4835 83.7949 62.4788C83.7949 61.4736 84.4059 60.3066 85.1597 59.8714C85.9135 59.4362 86.5244 59.8983 86.5244 60.9029V60.9029Z" fill="white"/>
<path d="M80.8191 83.9834L71.1694 89.5541C68.7 90.9799 65.6573 90.9799 63.1879 89.5541L35.7373 73.7057V68.2662L83.8831 76.3955V78.6764C83.8831 80.8657 82.7155 82.8884 80.8191 83.9834V83.9834Z" fill="#162F4D"/>
<path d="M81.4862 58.8821L65.5487 49.6804L61.2219 31.9039L46.3947 23.3438L30.4639 32.5411L25.9009 47.0437V63.2369L63.7805 85.1022C64.8566 85.6088 66.0175 85.8584 67.179 85.8584V85.8657C68.338 85.8657 69.4965 85.61 70.5701 85.1052L83.8831 77.4197V62.4716C83.8831 60.7827 82.851 59.4521 81.4862 58.8821V58.8821Z" fill="#BF0025"/>
<path d="M61.2212 31.9039L65.5486 49.6804L48.0083 59.8074L45.291 41.1019L61.2212 31.9039Z" fill="#EA2642"/>
<path d="M79.3889 65.4788L82.3619 59.3881L65.5486 49.6804L48.0083 59.8074L67.8203 71.246L79.3889 65.4788Z" fill="#FF4D73"/>
<path d="M78.0557 59.1067L72.5741 62.272C69.2355 64.1995 67.1792 67.7615 67.1792 71.6165V85.8657C68.3383 85.8657 69.4967 85.61 70.5703 85.1058L83.8833 77.4197V62.4716C83.8833 59.4808 80.646 57.6113 78.0557 59.1067V59.1067Z" fill="#EA2642"/>
<path d="M79.9919 61.91C80.5651 61.91 81.1833 62.3654 81.1833 63.1014V76.4907L69.8784 83.0178V72.2463C69.8784 69.3649 71.4287 66.6805 73.9232 65.2395L79.4054 62.0748C79.5946 61.9656 79.7924 61.91 79.9919 61.91Z" fill="#D6E5E5"/>
<path d="M27.687 48.0746L31.7013 35.0607L43.3596 41.7916L45.2914 58.2388L27.687 48.0746Z" fill="#2C92BF"/>
<path d="M46.752 41.7428L49.3936 59.0078L63.962 50.5966L60.3036 33.9181L46.752 41.7428Z" fill="#2C92BF"/>
<path d="M36.6016 72.9696C36.6016 66.0641 32.4036 58.0428 27.2247 55.0527C24.7906 53.6477 22.5739 53.6044 20.907 54.6694V54.6682L13.0994 59.0475L13.1006 59.0481C11.1969 60.237 10 62.8591 10 66.5456C10 73.4505 14.198 81.4724 19.3774 84.4619C21.651 85.7754 23.736 85.8987 25.3595 85.0405V85.0411L33.4717 80.4855H33.4686C35.3906 79.3056 36.6016 76.6763 36.6016 72.9696Z" fill="#2B5D99"/>
<path d="M15.6614 60.7522C15.0187 60.7522 14.4492 60.292 14.3339 59.6371C14.2039 58.9034 14.694 58.2027 15.4282 58.0734C15.6663 58.0312 21.3059 57.0504 25.4258 57.7572C26.1601 57.8835 26.6538 58.5812 26.5275 59.316C26.4018 60.0503 25.7047 60.5434 24.9693 60.4177C21.3084 59.7897 15.9519 60.7223 15.8976 60.7314C15.8183 60.7455 15.7395 60.7522 15.6614 60.7522Z" fill="#162F4D"/>
<path d="M19.9575 55.201L22.532 56.6616C22.7419 56.7812 22.9708 56.838 23.1967 56.838C23.6666 56.838 24.1232 56.592 24.3722 56.1538C24.7402 55.5056 24.5126 54.6816 23.8644 54.3142L23.2046 53.9395C22.3623 53.9871 21.5884 54.2336 20.9072 54.6688V54.6682L19.9575 55.201Z" fill="#162F4D"/>
<path d="M27.7459 55.3738C27.7135 56.7458 27.6623 59.6938 27.7679 61.3766C27.8124 62.0919 28.4063 62.6418 29.1131 62.6418C29.1418 62.6418 29.1704 62.6412 29.1985 62.6394C29.9431 62.593 30.5083 61.9521 30.4619 61.2081C30.404 60.2792 30.3985 58.8882 30.4095 57.6321C29.5708 56.744 28.6767 55.9786 27.7459 55.3738Z" fill="#162F4D"/>
<path d="M31.0471 66.6915C30.8274 66.6915 30.6052 66.6384 30.3989 66.5248C28.9658 65.7381 24.3827 65.602 21.832 65.7009C21.0959 65.7308 20.4599 65.1491 20.4312 64.4039C20.4019 63.6592 20.9824 63.0318 21.7276 63.0031C22.4802 62.9744 29.1489 62.759 31.6977 64.1585C32.3514 64.5168 32.5901 65.3377 32.2318 65.9914C31.9858 66.4388 31.5244 66.6915 31.0471 66.6915Z" fill="#162F4D"/>
<path d="M34.6609 64.2373C33.8527 65.2407 31.9875 67.5985 31.1068 69.0609C30.7223 69.7 30.9279 70.5294 31.567 70.9133C31.7849 71.0446 32.0247 71.1074 32.2616 71.1074C32.7199 71.1074 33.1661 70.8743 33.4194 70.4537C33.9474 69.5773 34.9196 68.2791 35.7369 67.2286C35.4439 66.2136 35.082 65.2108 34.6609 64.2373V64.2373Z" fill="#162F4D"/>
<path d="M33.2528 75.5105C32.9214 75.5105 32.5893 75.389 32.3287 75.1443C31.4602 74.3282 27.4923 72.831 24.952 72.0278C24.2415 71.8032 23.8473 71.0452 24.0719 70.3341C24.2965 69.623 25.0545 69.2281 25.7656 69.454C26.885 69.8074 32.5509 71.6488 34.1775 73.1765C34.7207 73.6874 34.7475 74.5412 34.2367 75.0845C33.9712 75.367 33.6123 75.5105 33.2528 75.5105V75.5105Z" fill="#162F4D"/>
<path d="M36.5486 74.2678L36.4381 74.3569C34.3421 76.0372 32.9164 77.1719 32.1998 77.7291C31.6114 78.1869 31.5052 79.0353 31.9636 79.6237C32.2291 79.9655 32.6277 80.1443 33.0299 80.1443C33.3192 80.1443 33.6109 80.0515 33.8575 79.8599C34.1548 79.6292 34.5722 79.2996 35.1039 78.8772C35.8802 77.7249 36.3905 76.1691 36.5486 74.2678V74.2678Z" fill="#162F4D"/>
<path d="M31.4206 80.549C28.8339 79.8086 26.9211 77.7304 26.9022 77.709C26.4035 77.1579 25.5515 77.1133 24.9985 77.612C24.4443 78.1106 24.3997 78.9645 24.8984 79.5181C24.9845 79.6133 26.788 81.5914 29.4876 82.7236L32.2257 81.1856C32.0572 80.8865 31.7764 80.6509 31.4206 80.549Z" fill="#162F4D"/>
<path d="M28.7543 77.3733C28.7543 84.2782 24.5563 87.4526 19.3774 84.4625C14.198 81.4724 10 73.4505 10 66.5456C10 59.6401 14.198 56.4663 19.3774 59.4564C24.5563 62.4465 28.7543 70.4684 28.7543 77.3733Z" fill="#162F4D"/>
<path d="M25.3597 75.4134C25.3597 79.8183 22.6809 81.8428 19.3771 79.9355C16.0732 78.0281 13.395 72.911 13.395 68.5054C13.395 64.1005 16.0732 62.076 19.3771 63.9833C22.6809 65.8907 25.3597 71.0079 25.3597 75.4134V75.4134Z" fill="#D6E5E5"/>
<path d="M22.9292 74.0103C22.9292 76.6263 21.3392 77.8287 19.377 76.6959C17.4153 75.5631 15.8247 72.5247 15.8247 69.9088C15.8247 67.2928 17.4153 66.0904 19.377 67.2232C21.3392 68.3554 22.9292 71.3944 22.9292 74.0103Z" fill="#BF0025"/>
<path d="M30.22 49.9954C27.4331 48.3865 24.8953 48.3364 22.9867 49.5559V49.5553L14.4546 54.3405C15.7693 53.6697 15.7693 53.6697 14.4546 54.3405L15.6295 56.0946C17.1932 55.4397 19.1335 55.6381 21.235 56.8514C26.1483 59.6877 30.176 67.0529 30.5758 73.6965L30.5782 73.6996L31.9399 74.4857L31.9717 74.504L40.9188 69.338C40.4794 61.7166 35.859 53.251 30.22 49.9954V49.9954Z" fill="#EA2642"/>
<path d="M15.6295 56.0946C17.1932 55.4397 19.1329 55.638 21.235 56.8514C26.1477 59.6877 30.176 67.0528 30.5758 73.6965L30.5782 73.6995L31.9393 74.4857C31.5371 66.8368 26.8997 58.3083 21.235 55.0374C18.663 53.5525 16.3033 53.3974 14.4546 54.3404L15.6295 56.0946Z" fill="#BF0025"/>
<path d="M61.4283 87.9757C61.4283 82.1993 57.9164 75.4885 53.5841 72.9866C51.548 71.8111 49.6931 71.7751 48.2985 72.6662L48.2991 72.6656L41.7671 76.3289H41.7683C40.1759 77.3244 39.1743 79.5174 39.1743 82.6015C39.1743 88.3785 42.6863 95.0893 47.0192 97.5905C48.9216 98.6892 50.6654 98.7923 52.0234 98.0745V98.0752L58.8106 94.2641H58.8075C60.4152 93.2766 61.4283 91.0769 61.4283 87.9757V87.9757Z" fill="#2B5D99"/>
<path d="M43.91 77.7554C43.3723 77.7554 42.8956 77.3703 42.7992 76.8222C42.6905 76.2082 43.1007 75.6229 43.7147 75.5136C43.9137 75.4788 48.6317 74.6579 52.0784 75.2493C52.693 75.3549 53.1056 75.9384 53 76.553C52.895 77.1677 52.3121 77.5803 51.6963 77.4753C48.6335 76.9498 44.1523 77.7298 44.1078 77.7377C44.0412 77.7493 43.9753 77.7554 43.91 77.7554Z" fill="#162F4D"/>
<path d="M47.5044 73.1112L49.6577 74.3331C49.8335 74.4332 50.0252 74.4802 50.2137 74.4802C50.6074 74.4802 50.9889 74.2745 51.197 73.9083C51.5053 73.3657 51.3148 72.6766 50.7722 72.369L50.2205 72.0559C49.5161 72.0956 48.8685 72.3019 48.2985 72.6656V72.665L47.5044 73.1112Z" fill="#162F4D"/>
<path d="M54.0202 73.2552C53.9928 74.4033 53.9501 76.8698 54.0379 78.2772C54.0752 78.8754 54.5726 79.3362 55.164 79.3362C55.1879 79.3362 55.2117 79.3356 55.2355 79.3337C55.858 79.2947 56.331 78.7588 56.292 78.1362C56.2438 77.3593 56.2389 76.1959 56.248 75.1443C55.5461 74.4015 54.7984 73.7618 54.0202 73.2552V73.2552Z" fill="#162F4D"/>
<path d="M56.782 82.7236C56.5982 82.7236 56.4121 82.6791 56.24 82.5845C55.0412 81.9259 51.207 81.8124 49.0732 81.8948C48.4574 81.9204 47.9252 81.4333 47.9007 80.8102C47.8769 80.187 48.3622 79.6621 48.9859 79.6377C49.6152 79.6139 55.1938 79.4338 57.327 80.6045C57.8733 80.9048 58.0735 81.5908 57.7732 82.1377C57.5675 82.5124 57.1811 82.7236 56.782 82.7236V82.7236Z" fill="#162F4D"/>
<path d="M59.8056 80.6704C59.1299 81.5096 57.5692 83.4823 56.8319 84.7061C56.5103 85.2401 56.6824 85.9341 57.2171 86.2557C57.3989 86.3656 57.6004 86.4181 57.7981 86.4181C58.1814 86.4181 58.555 86.2234 58.7667 85.8712C59.208 85.1382 60.0216 84.0518 60.7058 83.1729C60.4605 82.3239 60.1577 81.4852 59.8056 80.6704Z" fill="#162F4D"/>
<path d="M58.627 90.1016C58.3499 90.1016 58.0722 90.0003 57.8537 89.7952C57.1274 89.1128 53.8077 87.8598 51.6825 87.1884C51.088 87.0004 50.7584 86.3656 50.9464 85.7711C51.1344 85.1767 51.7685 84.8459 52.363 85.0344C53.2993 85.3305 58.0399 86.871 59.4004 88.1491C59.8551 88.5763 59.8776 89.291 59.4504 89.7451C59.2276 89.982 58.9279 90.1016 58.627 90.1016Z" fill="#162F4D"/>
<path d="M61.3841 89.0621L61.2919 89.136C59.539 90.5422 58.3458 91.4913 57.7464 91.9576C57.2545 92.3403 57.1654 93.0502 57.5487 93.5421C57.7708 93.8284 58.1041 93.9785 58.441 93.9785C58.6827 93.9785 58.9268 93.9004 59.1331 93.7405C59.3815 93.547 59.7313 93.2711 60.1762 92.9183C60.825 91.954 61.2523 90.6521 61.3841 89.0621V89.0621Z" fill="#162F4D"/>
<path d="M57.0933 94.3167C54.9296 93.6971 53.3293 91.9583 53.3134 91.9406C52.896 91.4797 52.1837 91.4425 51.721 91.8594C51.2572 92.2769 51.2199 92.991 51.6374 93.4542C51.7088 93.5336 53.2176 95.1882 55.4759 96.1355L57.7672 94.8495C57.6262 94.5992 57.3912 94.4015 57.0933 94.3167V94.3167Z" fill="#162F4D"/>
<path d="M54.8635 91.6598C54.8635 97.4368 51.3516 100.092 47.0187 97.5906C42.6864 95.0894 39.1738 88.3786 39.1738 82.6016C39.1738 76.8246 42.6864 74.1696 47.0187 76.6714C51.3516 79.1726 54.8635 85.8834 54.8635 91.6598V91.6598Z" fill="#162F4D"/>
<path d="M52.0233 90.0205C52.0233 93.7058 49.7827 95.3995 47.019 93.8034C44.2548 92.208 42.0142 87.9264 42.0142 84.2411C42.0142 80.5564 44.2548 78.862 47.019 80.4581C49.7827 82.0542 52.0233 86.3352 52.0233 90.0205V90.0205Z" fill="#D6E5E5"/>
<path d="M49.9904 88.8467C49.9904 91.0348 48.6604 92.0406 47.0192 91.0934C45.3773 90.1455 44.0474 87.6034 44.0474 85.4153C44.0474 83.2265 45.3773 82.2207 47.0192 83.1686C48.6604 84.1158 49.9904 86.6585 49.9904 88.8467Z" fill="#BF0025"/>
<path d="M70.8687 71.0385V80.2688C70.8687 80.6533 71.2849 80.8938 71.6182 80.7015C72.0186 80.4702 72.2651 80.043 72.2651 79.5809V70.35C72.2651 69.9655 71.8489 69.725 71.5156 69.9173C71.1152 70.1486 70.8687 70.5758 70.8687 71.0385V71.0385Z" fill="#162F4D"/>
<path d="M73.6621 69.4241V78.6544C73.6621 79.0396 74.0784 79.28 74.4116 79.0878C74.812 78.8565 75.0586 78.4292 75.0586 77.9666V68.7362C75.0586 68.3511 74.6423 68.1106 74.3091 68.3029C73.9087 68.5342 73.6621 68.9614 73.6621 69.4241V69.4241Z" fill="#162F4D"/>
<path d="M76.4556 67.8103V77.0407C76.4556 77.4252 76.8718 77.6657 77.2051 77.4734C77.6055 77.2421 77.8521 76.8148 77.8521 76.3528V67.1218C77.8521 66.7373 77.4358 66.4968 77.1025 66.6891C76.7021 66.9204 76.4556 67.3477 76.4556 67.8103V67.8103Z" fill="#162F4D"/>
<path d="M79.2495 66.1959V75.4263C79.2495 75.8108 79.6658 76.0513 79.999 75.859C80.3994 75.6277 80.646 75.2011 80.646 74.7384V65.5075C80.646 65.1229 80.2297 64.8825 79.8965 65.0747C79.4961 65.306 79.2495 65.7333 79.2495 66.1959Z" fill="#162F4D"/>
<path d="M65.4907 71.3252L62.3358 69.5039C61.0993 68.7898 59.5679 68.8252 58.3655 69.5955C57.8559 69.9214 57.605 70.5324 57.7387 71.122C58.1238 72.8249 59.2145 74.283 60.7385 75.1332L63.003 76.396L65.4907 71.3252Z" fill="#FF4D73"/>
<path d="M66.0006 72.7285C66.0006 74.0914 65.1724 75.6753 64.15 76.2649C63.1277 76.8551 62.2988 76.2289 62.2988 74.866C62.2988 73.5031 63.1277 71.9198 64.15 71.3296C65.1724 70.7394 66.0006 71.3656 66.0006 72.7285V72.7285Z" fill="#D6E5E5"/>
<path d="M65.5146 73.0093C65.5146 74.0146 64.9037 75.1816 64.1499 75.6167C63.3961 76.0519 62.7852 75.5899 62.7852 74.5853C62.7852 73.5806 63.3961 72.413 64.1499 71.9778C64.9037 71.5433 65.5146 72.0047 65.5146 73.0093Z" fill="white"/>
<path d="M30.4639 32.5411L45.2911 41.1019L61.2213 31.9039L46.3947 23.3438L30.4639 32.5411Z" fill="#FF4D73"/>
<path d="M27.687 48.0746L35.256 52.4447L43.8571 46.0281L43.3596 41.7916L39.1921 39.3856L27.7303 47.936L27.687 48.0746Z" fill="#83B2C6"/>
<path d="M49.3932 59.0078L54.4347 56.097L62.0098 41.6982L60.3032 33.9181L58.6565 34.869L48.6187 53.948L49.3932 59.0078Z" fill="#83B2C6"/>
</g>
<g clip-path="url(#clip2)">
<path d="M93.3904 37.3533C93.3904 32.7407 90.5862 27.3827 87.1266 25.3854C85.5006 24.4466 84.0197 24.4175 82.9067 25.1289L77.691 28.0534L77.6921 28.054C76.4204 28.8483 75.6206 30.6 75.6206 33.0621C75.6206 37.6747 78.4254 43.0333 81.8845 45.0306C83.4039 45.9073 84.7964 45.9902 85.8807 45.4173L91.2997 42.3741H91.2975C92.5813 41.5864 93.3904 39.8297 93.3904 37.3533V37.3533Z" fill="#2B5D99"/>
<path d="M121.028 53.1935C121.028 48.5809 118.224 43.2223 114.764 41.225C113.139 40.2867 111.658 40.2576 110.544 40.969V40.9684L105.329 43.8936L105.33 43.8941C104.059 44.6884 103.259 46.4396 103.259 48.9022C103.259 53.5148 106.063 58.8734 109.523 60.8707C111.042 61.7474 112.434 61.8304 113.518 61.2569V61.2575L118.937 58.2142H118.935C120.219 57.426 121.028 55.6698 121.028 53.1935V53.1935Z" fill="#2B5D99"/>
<path d="M140.067 32.5902L131.59 26.9663L129.532 16.0322C129.182 14.1766 128.041 12.566 126.405 11.6217L116.907 6.26862C116.488 6.02692 116.016 6.06592 115.656 6.2873L105.603 12.0925L92.3681 4.45148C92.0352 4.25922 91.6622 4.2779 91.3661 4.4372L91.3502 4.42841C91.3502 4.42841 72.49 15.3367 72.4433 15.3686C72.1813 15.5504 72 15.8503 72 16.214V27.598C72 29.0977 72.8004 30.4836 74.0989 31.2334L120.359 57.8104C120.88 58.1115 121.463 58.0812 121.926 57.8308L121.927 57.8324L121.957 57.8154C121.963 57.8115 121.97 57.8082 121.976 57.8044L140.729 46.9735L140.727 46.9713C141.227 46.7098 141.592 46.1929 141.592 45.548V36.2893C141.593 34.9028 141.044 33.5729 140.067 32.5902V32.5902Z" fill="#EA2642"/>
<path d="M73.5456 15.3214L96.2499 28.4297V18.197C96.2499 17.7213 96.5109 17.3362 96.874 17.1319C96.8734 17.1319 96.8734 17.1325 96.8729 17.1325L105.602 12.0925L92.3679 4.45148C92.0345 4.25922 91.662 4.2779 91.366 4.4372L91.35 4.42841C91.35 4.42841 74.2872 14.2969 72.5815 15.2878C72.8716 15.1472 73.227 15.1368 73.5456 15.3214V15.3214Z" fill="#FF4D73"/>
<path d="M96.2501 18.197C96.2501 17.7213 96.511 17.3362 96.8741 17.1319C96.8735 17.1319 96.8735 17.1324 96.873 17.1324L103.355 13.39L91.8165 6.72839L77.0146 15.2741L96.2506 26.3802V18.197H96.2501Z" fill="#BF0025"/>
<path d="M112.769 37.8357L110.71 26.9015C110.36 25.0459 109.219 23.4353 107.584 22.4916L98.0848 17.138C97.2697 16.6672 96.2501 17.2561 96.2501 18.1976V28.4297L73.5458 15.3214C72.8591 14.9248 72 15.4203 72 16.214V27.5981C72 29.0977 72.8004 30.4836 74.0989 31.2334L120.359 57.811C121.431 58.4295 122.771 57.6561 122.771 56.4179V47.1592C122.771 45.7727 122.222 44.4428 121.245 43.4596L112.769 37.8357Z" fill="#BF0025"/>
<path d="M115.787 56.135C115.787 60.7476 112.982 62.8679 109.523 60.8706C106.064 58.8733 103.259 53.5147 103.259 48.9021C103.259 44.2895 106.063 42.1697 109.523 44.167C112.982 46.1643 115.787 51.5224 115.787 56.135Z" fill="#162F4D"/>
<path d="M113.518 54.8259C113.518 57.7686 111.73 59.121 109.523 57.8466C107.315 56.5728 105.526 53.1544 105.526 50.2117C105.526 47.269 107.315 45.9166 109.523 47.191C111.73 48.4649 113.518 51.8832 113.518 54.8259V54.8259Z" fill="#D6E5E5"/>
<path d="M111.896 53.8889C111.896 55.6363 110.834 56.4394 109.523 55.6824C108.212 54.926 107.15 52.8963 107.15 51.1489C107.15 49.4015 108.212 48.5984 109.523 49.3548C110.834 50.1118 111.896 52.1415 111.896 53.8889V53.8889Z" fill="#BF0025"/>
<path d="M88.1483 40.2955C88.1483 44.9075 85.3441 47.0279 81.8845 45.0306C78.4254 43.0333 75.6206 37.6747 75.6206 33.0621C75.6206 28.45 78.4254 26.3297 81.8845 28.327C85.3441 30.3243 88.1483 35.6829 88.1483 40.2955V40.2955Z" fill="#162F4D"/>
<path d="M85.8807 38.9859C85.8807 41.9286 84.0916 43.281 81.8844 42.0071C79.6778 40.7327 77.8887 37.3143 77.8887 34.3716C77.8887 31.4289 79.6778 30.077 81.8844 31.3509C84.0916 32.6248 85.8807 36.0432 85.8807 38.9859V38.9859Z" fill="#D6E5E5"/>
<path d="M84.2573 38.0488C84.2573 39.7962 83.1949 40.5993 81.8842 39.8429C80.5741 39.0859 79.5117 37.0562 79.5117 35.3088C79.5117 33.5614 80.5741 32.7583 81.8842 33.5153C83.1949 34.2717 84.2573 36.3014 84.2573 38.0488Z" fill="#BF0025"/>
<path d="M112.769 37.8356L131.591 26.9663L140.067 32.5902L121.245 43.4595L112.769 37.8356Z" fill="#FF4D73"/>
<path d="M112.144 26.0737L114.188 37.0161L130.303 27.7096L128.085 16.8705L112.144 26.0737Z" fill="#2C92BF"/>
<path d="M109.689 24.4455L128.512 13.5778C127.971 12.7857 127.255 12.1128 126.405 11.6217L116.906 6.26863C116.489 6.02748 116.019 6.06593 115.659 6.28511L96.8721 17.1325C97.2275 16.932 97.6807 16.905 98.0844 17.138L107.583 22.4916C108.433 22.9821 109.148 23.6539 109.689 24.4455Z" fill="#FF4D73"/>
<path d="M96.25 18.197C96.25 17.9421 96.3269 17.7142 96.4527 17.5247L91.8165 14.8484L84.0464 19.3341L96.25 26.3802V18.197Z" fill="#8F001C"/>
<path d="M98.853 29.9261L111.123 37.0161L109.481 27.876C109.268 26.6851 108.54 25.6486 107.492 25.0427L98.8536 20.0499V29.9261H98.853Z" fill="#2C92BF"/>
<path d="M91.8165 14.8478V6.72839L77.0146 15.2741L84.0464 19.3341L91.8165 14.8478Z" fill="#EA2642"/>
<path d="M140.965 42.1708V36.4486C140.965 36.03 140.919 35.6158 140.832 35.2126L123.458 45.2399C123.545 45.6431 123.591 46.0567 123.591 46.4758V52.2014L140.965 42.1708Z" fill="#B6C5CE"/>
<path d="M127.325 46.829C127.325 47.9463 126.645 49.2443 125.807 49.7283C124.969 50.2122 124.29 49.6986 124.29 48.5813C124.29 47.464 124.969 46.166 125.807 45.682C126.645 45.1981 127.325 45.7117 127.325 46.829Z" fill="white"/>
<path d="M140.533 39.0282C140.533 40.1455 139.854 41.4436 139.016 41.9275C138.178 42.4115 137.499 41.8979 137.499 40.78C137.499 39.6627 138.178 38.3646 139.016 37.8812C139.854 37.3973 140.533 37.9109 140.533 39.0282V39.0282Z" fill="white"/>
<path d="M144 43.3321L142.685 42.5834L120.86 55.1841V57.2831C120.86 57.8802 121.201 58.3575 121.666 58.5965L121.663 58.5981L123.041 59.3749C123.451 59.5627 123.947 59.5693 124.394 59.3117L142.168 49.0499C143.302 48.3951 144 47.185 144 45.876V43.3321Z" fill="#162F4D"/>
<path d="M122.175 55.9322L144 43.332V45.8759C144 47.1849 143.301 48.3951 142.168 49.0499L124.393 59.3116C123.407 59.8807 122.175 59.1694 122.175 58.0317V55.9322Z" fill="#2B5D99"/>
<path d="M122.175 55.9323L120.86 55.1841L142.685 42.5834L144 43.3321L122.175 55.9323Z" fill="#2C92BF"/>
<path d="M109.798 29.6389L109.482 27.8761C109.268 26.6846 108.54 25.6481 107.492 25.0427L105.382 23.8232L98.854 28.6935V29.9261L104.804 33.3649L109.798 29.6389Z" fill="#83B2C6"/>
<path d="M114.188 37.0161L121.896 32.5645L128.664 19.7017L128.085 16.8705L122.077 20.3389L113.956 35.7747L114.188 37.0161Z" fill="#83B2C6"/>
</g>
<g clip-path="url(#clip3)">
<path d="M97.1038 96.0212C97.1038 96.0212 94.7795 95.716 92.5255 96.7725C90.2721 97.829 89.8027 98.7677 89.8027 98.7677C89.8027 98.7677 91.2078 100.44 94.2394 99.8944C97.2716 99.3488 98.8402 96.4637 98.8402 96.4637C98.8402 96.4637 98.1536 93.4345 96.7192 92.414C95.374 91.4569 93.582 91.5845 93.582 91.5845C93.582 91.5845 93.3 93.2746 94.3212 94.7773C95.0981 95.9192 97.1038 96.0212 97.1038 96.0212Z" fill="#BF0025"/>
<path d="M108.407 159.615C107.981 158.428 106.907 157.506 106.624 157.275C106.147 156.886 102.979 155.132 102.979 155.132L94.5215 158.455V159.609C94.5215 160.107 94.7839 160.569 95.213 160.822L100.944 164.146C102.916 165.285 105.347 165.285 107.319 164.146C108.003 163.751 108.416 163.124 108.566 162.447L108.569 162.446C108.569 162.446 108.9 160.988 108.407 159.615V159.615Z" fill="#2B5D99"/>
<path d="M121.506 151.985C121.08 150.799 120.005 149.877 119.723 149.645C119.246 149.257 116.078 147.503 116.078 147.503L107.62 150.826V151.98C107.62 152.479 107.883 152.939 108.312 153.193L114.043 156.517C116.015 157.656 118.446 157.656 120.418 156.517C121.102 156.122 121.515 155.494 121.665 154.818L121.668 154.816C121.669 154.817 121.999 153.359 121.506 151.985V151.985Z" fill="#2B5D99"/>
<path d="M123.583 117.313C123.583 117.313 124.041 120.036 123.583 122.149C123.126 124.261 120.133 124.966 120.133 124.966L118.583 118.804L123.583 117.313Z" fill="#F8DB8F"/>
<path d="M113.265 99.8944C113.265 99.8944 117.809 100.02 120.484 106.812C123.161 113.604 123.583 117.313 123.583 117.313C123.583 117.313 121.799 119.097 119.64 119.661C117.48 120.224 113.265 99.8944 113.265 99.8944Z" fill="#EF5F26"/>
<path d="M113.265 99.8944C113.265 99.8944 117.105 100.677 118.607 106.812C120.11 112.947 121.19 123.399 120.579 132.103C119.828 142.807 118.53 148.896 118.53 148.896C118.53 148.896 117.677 151.352 114.699 152.437C112.268 153.323 107.574 152.336 107.574 150.875V145.53L106.87 146.035L105.884 156.587C105.884 156.587 105.907 158.242 104.146 159.263C100.572 161.336 95.0382 160.202 94.5219 158.761C93.6753 156.4 91.3291 135.952 91.3291 130.741C91.3291 125.529 90.8482 112.959 92.4558 110.317C95.4136 105.458 113.265 99.8944 113.265 99.8944V99.8944Z" fill="#2C92BF"/>
<path d="M115.133 112.501C115.133 112.501 115.133 110.952 114.688 108.134C114.243 105.317 113.265 101.655 113.265 101.655C112.998 101.077 112.689 100.593 112.348 100.19C109.628 101.085 101.467 103.895 96.3569 106.993C97.2511 107.573 98.3918 108.539 99.5686 110.142C102.153 113.661 102.526 118.628 102.526 118.628L115.133 112.501Z" fill="#EF5F26"/>
<path d="M86.1876 134.825C86.1876 134.825 85.9447 139.352 89.4975 139.544C94.0752 139.791 93.864 133.488 93.864 133.488L86.1876 134.825Z" fill="#F8DB8F"/>
<path d="M115.133 102.523C115.45 101.594 115.154 100.877 115.133 100.418C115.111 99.9585 115.379 98.4864 115.309 97.5355C115.238 96.5845 114.687 95.7984 114.687 95.7984C114.679 93.7812 114.569 92.2889 114.569 92.2889C114.455 87.923 111.26 83.556 104.428 85.4578C97.5968 87.3591 97.1043 96.0212 97.1043 96.0212L96.4622 100.528L96.4634 100.527C95.8689 101.55 96.0923 103.767 96.5403 104.261C97.7378 105.581 99.1758 105.349 99.5243 105.267C99.5915 105.557 99.7099 105.833 99.921 106.057C100.519 106.691 101.787 106.339 102.21 106.812C102.632 107.285 102.527 107.571 103.337 108.275C104.147 108.98 105.062 108.698 106.007 108.803C106.952 108.909 106.435 109.507 107.28 110.036C108.125 110.564 109.287 109.789 109.569 110.353C109.851 110.916 110.837 111.268 111.893 110.74C112.95 110.212 112.984 108.416 113.583 107.853C114.182 107.289 114.111 107.043 114.324 106.155C114.536 105.267 115.062 105.352 115.32 104.331C115.578 103.31 114.816 103.451 115.133 102.523Z" fill="#F8DB8F"/>
<path d="M94.2864 129.05C94.2864 129.05 98.5826 126.656 98.3007 120.952C98.0187 115.247 94.3511 108.4 92.7062 109.951C87.9479 114.437 86.3988 122.501 86.1876 126.022C85.9764 129.543 86.1876 134.825 86.1876 134.825C86.1876 134.825 87.8362 135.469 89.7087 135.389C91.5813 135.308 93.864 133.488 93.864 133.488L94.2864 129.05Z" fill="#EF5F26"/>
<path d="M104.005 124.966L115.678 118.227V127.346C115.678 131.146 113.65 134.658 110.359 136.559C107.535 138.189 104.005 136.151 104.005 132.89V124.966Z" fill="#2B5D99"/>
<path d="M109.17 94.6832C111.522 93.7146 113.247 92.5598 114.508 91.4447C114.026 87.3846 110.818 83.6786 104.428 85.4571C97.5966 87.359 97.104 96.0211 97.104 96.0211C97.104 96.0211 101.987 97.641 109.17 94.6832Z" fill="#EA2642"/>
<path d="M115.133 102.523C115.449 101.594 115.154 100.876 115.133 100.417C115.111 99.9585 115.379 98.4863 115.308 97.5354C115.238 96.5845 114.687 95.7983 114.687 95.7983L103.04 102.523L99.9586 100.744C100.048 99.92 100.203 98.5577 100.343 97.7264C100.42 97.2717 100.571 96.8353 100.732 96.463C98.437 96.4624 97.104 96.0211 97.104 96.0211L96.4619 100.528C96.4619 100.528 97.8694 99.6484 98.9351 101.198C99.402 101.877 99.3928 103.24 99.4276 103.803C99.463 104.367 99.322 105.423 99.9208 106.057C100.52 106.691 101.787 106.339 102.21 106.812C102.632 107.286 102.526 107.571 103.336 108.275C104.146 108.979 105.062 108.698 106.007 108.804C106.952 108.909 106.435 109.507 107.28 110.036C108.125 110.564 109.287 109.789 109.569 110.353C109.851 110.916 110.836 111.268 111.893 110.74C112.949 110.212 112.985 108.416 113.583 107.853C114.182 107.289 114.111 107.043 114.323 106.155C114.536 105.267 115.062 105.353 115.321 104.332C115.579 103.311 114.816 103.451 115.133 102.523Z" fill="#162F4D"/>
<path d="M112.96 94.9475C112.96 95.3442 112.718 95.8057 112.42 95.9772C112.122 96.1493 111.881 95.9668 111.881 95.5695C111.881 95.1727 112.122 94.7113 112.42 94.5398C112.718 94.3677 112.96 94.5502 112.96 94.9475Z" fill="#162F4D"/>
<path d="M108.114 97.6868C108.114 98.0835 107.873 98.5449 107.575 98.717C107.277 98.8885 107.035 98.706 107.035 98.3093C107.035 97.912 107.277 97.4506 107.575 97.279C107.873 97.1069 108.114 97.2894 108.114 97.6868Z" fill="#162F4D"/>
<path d="M110.19 100.296L112.391 99.0253C112.708 98.8421 113.105 99.071 113.105 99.4378V100.017C113.105 100.595 112.796 101.129 112.296 101.418L110.095 102.689C109.778 102.872 109.381 102.643 109.381 102.277V101.697C109.381 101.119 109.689 100.585 110.19 100.296Z" fill="#F8DB8F"/>
<path d="M98.3009 120.952C98.1483 117.857 96.9984 114.429 95.7161 112.185C96.3124 114.738 95.7399 118.255 95.4133 120.811C94.991 124.121 94.2866 129.05 94.2866 129.05C94.2866 129.05 98.5829 126.656 98.3009 120.952Z" fill="#BD4B1E"/>
</g>
<path d="M162.343 52.4921C162.343 52.4921 165.531 54.5689 166.627 60.0473C167.576 64.7897 166.627 68.3054 166.627 68.3054L155.924 61.6249C155.924 61.6249 156.887 52.0228 162.343 52.4921Z" fill="#BD4B1E"/>
<path d="M145.663 43.13C145.663 43.13 144.562 39.545 147.661 37.5461C149.968 36.057 154.728 34.5434 159.725 38.6725C164.14 42.3194 163.806 51.9033 161.592 54.203C159.379 56.5017 145.663 43.13 145.663 43.13Z" fill="#EF5F26"/>
<path d="M153.024 110.877C153.399 109.748 154.344 108.87 154.593 108.651C155.012 108.282 157.8 106.613 157.8 106.613L165.242 109.36V110.873C165.242 111.346 165.011 111.785 164.634 112.026L159.591 115.187C157.855 116.271 155.717 116.271 153.981 115.187C153.379 114.812 153.015 114.216 152.884 113.571L152.881 113.57C152.881 113.57 152.59 112.184 153.024 110.877Z" fill="#2B5D99"/>
<path d="M140.209 104.73C140.584 103.601 141.529 102.724 141.778 102.505C142.197 102.134 144.986 100.466 144.986 100.466L152.428 103.213V104.725C152.428 105.199 152.197 105.637 151.819 105.878L146.776 109.04C145.041 110.125 142.902 110.125 141.166 109.04C140.565 108.665 140.201 108.068 140.069 107.425L140.066 107.424C140.066 107.424 139.776 106.037 140.209 104.73Z" fill="#2B5D99"/>
<path d="M138.025 77.3303C138.025 77.3303 137.765 80.925 138.937 83.6002C140.108 86.2743 142.564 84.7415 142.564 84.7415L142.257 77.8285L138.025 77.3303Z" fill="#F8DB8F"/>
<path d="M144.926 53.7113C144.926 53.7113 141.67 55.3774 139.847 60.0227C138.025 64.668 138.025 77.3304 138.025 77.3304L142.753 79.8935L144.926 53.7113Z" fill="#A2BF26"/>
<path d="M144.925 53.7124C144.925 53.7124 149.771 52.3823 155.949 55.9641C162.127 59.546 165.758 61.9705 167.06 64.5038C168.362 67.0371 168.191 84.9453 167.581 89.0903C166.886 93.805 165.584 97.7228 165.584 97.7228L165.237 109.359C165.237 109.359 162.597 111.859 158.727 111.307C154.951 110.768 154.387 108.891 154.387 108.891V99.2257L152.425 98.0001V103.243C152.425 103.243 148.957 105.821 146.199 104.962C142.695 103.87 142.501 102 142.501 102C142.501 102 141.735 88.5975 141.735 83.5298C141.735 78.4621 139.912 60.0697 144.925 53.7124Z" fill="#2C92BF"/>
<path d="M155.95 55.964C158.555 57.4744 160.706 58.7779 162.422 59.9715C161.179 60.7555 159.857 62.0323 159.054 63.4712C157.244 66.7138 157.248 71.8434 157.248 71.8434L145.187 64.3149C145.187 64.3149 145.868 57.0286 149.016 53.5747C150.898 53.7955 153.301 54.428 155.95 55.964Z" fill="#A2BF26"/>
<path d="M145.663 43.1311C145.663 43.1311 145.186 53.5001 146.531 56.4559C147.168 57.8553 148.517 58.651 149.812 59.0521C151.939 59.7081 156.079 58.763 157.902 57.3561C158.977 56.5263 159.248 56.1508 159.248 56.1508C159.248 56.1508 160.387 56.9956 161.233 56.362C162.08 55.7284 162.561 54.2297 162.21 53.0191C161.819 51.6698 161.396 51.529 161.027 51.3882C160.658 51.2474 160.051 51.8575 160.051 51.8575C160.051 51.8575 155.147 50.2383 152.217 47.2826C149.287 44.3258 147.822 41.1248 147.822 41.1248L145.663 43.1311Z" fill="#F8DB8F"/>
<path d="M155.924 77.7432L144.336 70.5101V80.2957C144.336 84.3756 146.349 88.1442 149.617 90.1847C152.42 91.934 155.924 89.7463 155.924 86.2466V77.7432Z" fill="#2B5D99"/>
<path d="M166.061 63.0585C166.48 63.5417 166.813 64.0206 167.061 64.5038C167.967 66.2659 168.16 75.4712 167.988 82.3053C166.389 82.8279 164.586 82.6434 163.285 81.3474C160.811 78.8845 160.225 73.8179 161.592 68.3982C162.83 63.4905 165.557 63.0894 166.061 63.0585Z" fill="#A2BF26"/>
<path d="M171.488 91.5766C171.488 91.5766 171.039 96.3659 168.841 96.9259C166.627 97.4891 165.338 95.8764 164.991 94.9846C164.644 94.0929 164.978 89.5116 164.978 89.5116L171.488 91.5766Z" fill="#F8DB8F"/>
<path d="M166.061 63.0585C166.061 63.0585 170.121 67.2718 171.488 76.0931C172.64 83.5256 171.488 91.5767 171.488 91.5767C171.488 91.5767 169.793 91.7655 167.777 91.1308C165.366 90.3714 164.978 89.5127 164.978 89.5127C164.978 89.5127 164.847 80.5037 164.197 74.4504C163.546 68.3982 162.457 63.9118 166.061 63.0585Z" fill="#A2BF26"/>
<path d="M146.782 46.9444C146.782 47.4905 147.09 48.1252 147.469 48.362C147.848 48.5988 148.155 48.3481 148.155 47.8009C148.155 47.2548 147.848 46.6201 147.469 46.3833C147.09 46.1465 146.782 46.3972 146.782 46.9444Z" fill="#162F4D"/>
<path d="M151.58 49.9278C151.58 50.474 151.887 51.1086 152.266 51.3454C152.645 51.5822 152.952 51.3316 152.952 50.7844C152.952 50.2382 152.645 49.6036 152.266 49.3668C151.887 49.13 151.58 49.3817 151.58 49.9278Z" fill="#162F4D"/>
<g clip-path="url(#clip4)">
<path d="M35.0376 145.515V161.769H35.0381C35.0483 162.097 35.2518 162.408 35.6571 162.642C36.5747 163.172 38.1777 163.106 39.2374 162.494C39.8237 162.156 40.1202 161.722 40.1135 161.311H40.114V142.584L35.0376 145.515Z" fill="#EF5F26"/>
<path d="M27.2995 157.755C26.454 157.755 25.7686 157.07 25.7686 156.224V149.971C25.7686 149.125 26.454 148.44 27.2995 148.44C28.1455 148.44 28.831 149.125 28.831 149.971V156.224C28.831 157.07 28.1455 157.755 27.2995 157.755Z" fill="#FFE14D"/>
<path d="M32.5202 155.277C31.6748 155.277 30.9888 154.591 30.9888 153.745V147.492C30.9888 146.647 31.6748 145.961 32.5202 145.961C33.3657 145.961 34.0517 146.647 34.0517 147.492V153.745C34.0517 154.591 33.3657 155.277 32.5202 155.277V155.277Z" fill="#FFE14D"/>
<path d="M43.2717 149.397C42.4262 149.397 41.7402 148.711 41.7402 147.865V141.612C41.7402 140.767 42.4262 140.081 43.2717 140.081C44.1177 140.081 44.8032 140.767 44.8032 141.612V147.865C44.8032 148.711 44.1177 149.397 43.2717 149.397Z" fill="#FFE14D"/>
<path d="M37.8166 152.523C36.9706 152.523 36.2852 151.838 36.2852 150.992V144.739C36.2852 143.893 36.9711 143.208 37.8166 143.208C38.6621 143.208 39.3476 143.893 39.3476 144.739V150.992C39.3476 151.838 38.6621 152.523 37.8166 152.523Z" fill="#FFE14D"/>
<path d="M47.0729 146.918C46.2275 146.918 45.542 146.232 45.542 145.387V139.134C45.542 138.288 46.2275 137.602 47.0729 137.602C47.9189 137.602 48.6044 138.288 48.6044 139.134V145.387C48.6044 146.232 47.9189 146.918 47.0729 146.918V146.918Z" fill="#FFE14D"/>
<path d="M66.8934 104.468C66.76 103.633 65.9759 103.064 65.1396 103.198L62.1942 103.668L65.1493 101.791C65.8634 101.338 66.0745 100.391 65.6211 99.6773C65.1672 98.9637 64.221 98.752 63.5074 99.206L61.1198 100.722L62.7897 98.4341C63.2881 97.7512 63.1389 96.7932 62.4554 96.2943C61.772 95.7959 60.8141 95.9452 60.3157 96.6286L53.8806 105.446C53.8698 105.461 54.3289 107.662 54.3519 107.675L60.9025 111.457C61.1438 111.596 61.407 111.662 61.6667 111.662C62.1958 111.662 62.7105 111.388 62.9942 110.896C63.4175 110.164 63.1665 109.227 62.434 108.805L59.6205 107.18L65.6221 106.222C66.4574 106.088 67.0263 105.303 66.8934 104.468V104.468Z" fill="#FFE14D"/>
<path d="M48.9824 118.077V138.362C48.9824 138.608 48.8863 138.842 48.7145 139.017C47.6784 140.074 43.7613 143.941 39.2839 146.781C35.2467 149.341 29.2507 151.225 26.7219 151.953C26.1244 152.125 25.5289 151.676 25.5289 151.054V135.816L17.1237 141.702C15.9685 142.511 14.4201 142.484 13.3007 141.625C12.8917 141.312 12.4935 140.913 12.1659 140.409C11.8551 139.931 11.6578 139.387 11.5366 138.839C11.1686 137.178 11.5008 135.439 12.357 133.968C14.5418 130.217 20.891 120.486 31.4993 113.515C40.9596 107.298 49.4654 103.992 53.6494 102.585C55.4359 101.984 57.3671 102.899 58.0464 104.658C58.3848 105.535 58.6491 106.564 58.6813 107.677C58.7197 109.035 58.5229 110.126 58.2744 110.943C57.9585 111.982 57.2582 112.862 56.3386 113.442L48.9824 118.077Z" fill="#2B5D99"/>
<path d="M39.6669 123.773L41.8527 107.55C38.6737 109.143 35.1589 111.11 31.4994 113.515C30.015 114.491 29.144 115.103 27.8262 116.162L39.6669 123.773Z" fill="#FFE14D"/>
<path d="M42.4276 110.126C42.4276 114.967 38.5028 118.892 33.6615 118.892C28.8202 118.892 24.896 114.967 24.896 110.126C24.896 105.284 28.8202 101.36 33.6615 101.36C38.5028 101.36 42.4276 105.284 42.4276 110.126Z" fill="#EF5F26"/>
<path d="M42.9484 111.298C36.7617 114.87 27.4022 115.258 22.0441 112.164C16.686 109.071 17.3577 103.667 23.5449 100.095C29.7321 96.5229 39.0911 96.1349 44.4497 99.2285C49.8078 102.322 49.1356 107.726 42.9484 111.298V111.298Z" fill="#F7BD69"/>
<path d="M42.5729 104.28C42.0444 99.6937 38.1498 96.1309 33.4209 96.1309C28.3317 96.1309 24.2056 100.257 24.2056 105.346C24.2056 105.488 24.2102 105.63 24.2163 105.771C30.5635 109.651 38.9646 107.769 42.5729 104.28Z" fill="#F8DB8F"/>
<path d="M24.6457 102.531C24.3609 103.418 24.2061 104.364 24.2061 105.346C24.2061 105.488 24.2101 105.63 24.2168 105.77C30.5635 109.651 38.9645 107.769 42.5729 104.281C42.4584 103.288 42.1783 102.348 41.7744 101.477C37.9289 104.436 30.5016 105.83 24.6457 102.531V102.531Z" fill="#BF0025"/>
<path d="M41.0487 126.857C41.0487 127.663 40.559 128.599 39.9543 128.949C39.3496 129.297 38.8599 128.927 38.8599 128.121C38.8599 127.315 39.3496 126.378 39.9543 126.029C40.559 125.681 41.0487 126.051 41.0487 126.857V126.857Z" fill="#FFE14D"/>
<path d="M41.0487 133.174C41.0487 133.98 40.559 134.916 39.9543 135.265C39.3496 135.614 38.8599 135.244 38.8599 134.438C38.8599 133.632 39.3496 132.695 39.9543 132.346C40.559 131.997 41.0487 132.368 41.0487 133.174V133.174Z" fill="#FFE14D"/>
<path d="M41.0487 140.093C41.0487 140.899 40.559 141.835 39.9543 142.184C39.3496 142.533 38.8599 142.162 38.8599 141.357C38.8599 140.551 39.3496 139.614 39.9543 139.265C40.559 138.916 41.0487 139.286 41.0487 140.093V140.093Z" fill="#FFE14D"/>
<path d="M16.0785 138.33C15.0659 136.75 13.0621 136.134 11.3344 136.867C9.44355 137.668 7.01038 138.796 5.06998 140.022C4.35485 140.473 4.14118 141.419 4.59254 142.134C5.04442 142.849 5.99059 143.064 6.70521 142.612C7.90493 141.854 9.31678 141.133 10.6494 140.515L6.99351 144.043C6.38471 144.63 6.36733 145.6 6.95466 146.208C7.542 146.817 8.51117 146.834 9.11998 146.247L11.5884 143.865L10.2563 147.488C9.96443 148.281 10.3713 149.162 11.1652 149.454C11.3395 149.518 11.5179 149.548 11.6932 149.548C12.3168 149.548 12.9031 149.164 13.1306 148.545L14.0937 145.927L14.3789 149.294C14.4464 150.093 15.1155 150.696 15.9032 150.696C15.9461 150.696 15.9901 150.694 16.0341 150.691C16.8765 150.619 17.5021 149.878 17.4306 149.035L16.673 140.081C16.6204 139.458 16.4164 138.857 16.0785 138.33Z" fill="#FFE14D"/>
</g>
</g>
<defs>
<clipPath id="clip0">
<rect width="175" height="175" fill="white"/>
</clipPath>
<clipPath id="clip1">
<rect width="80" height="80" fill="white" transform="translate(10 21)"/>
</clipPath>
<clipPath id="clip2">
<rect width="72" height="72" fill="white" transform="translate(72 -3)"/>
</clipPath>
<clipPath id="clip3">
<rect width="80" height="80" fill="white" transform="translate(65 85)"/>
</clipPath>
<clipPath id="clip4">
<rect width="67" height="67" fill="white" transform="translate(2 96)"/>
</clipPath>
</defs>
</svg>
