<svg width="1024" height="1024" viewBox="0 0 1024 1024" fill="none" xmlns="http://www.w3.org/2000/svg">
<g clip-path="url(#clip0)">
<rect width="1024" height="1024" fill="#C8D3DA"/>
<g clip-path="url(#clip1)">
<path d="M1036.74 -188.027L-180.463 -0.243896L-31.427 965.804L1185.78 778.021L1036.74 -188.027Z" fill="url(#paint0_linear)"/>
</g>
<path d="M451.912 308.921C397.28 277.564 302.628 281.244 302.628 281.244C302.628 281.244 296.562 335.751 351.194 367.108C405.826 398.465 500.46 394.793 500.46 394.793C500.46 394.793 506.542 340.278 451.912 308.921Z" fill="#71BE63"/>
<path d="M444.765 359.107C439.805 356 434.667 352.98 429.597 349.93L425.547 312.981L422.321 345.649L410.977 339.022L396.741 330.993L392.699 294.126L389.455 326.955C384.989 324.501 380.541 322.044 375.987 319.65C364.119 313.297 352.069 307.07 339.451 301.151C349.773 308.396 360.625 315.316 371.677 322.139C377.153 325.571 382.813 328.896 388.405 332.278L400.447 339.31L343.833 341.271L407.647 343.47L422.777 352.005C426.127 353.829 429.449 355.676 432.795 357.507L375.559 359.479L440.627 361.722C452.429 368.017 464.431 374.216 476.989 380.092C466.673 372.85 455.801 365.919 444.765 359.107Z" fill="#399349"/>
<path d="M711.288 889.368L711.277 889.372L711.288 889.368Z" fill="#3E3D43"/>
<path d="M677.08 575.121C588.468 522.459 442.728 520.996 351.566 571.85C291.802 605.19 270.334 652.738 287.598 696.372C287.02 694.913 286.482 693.452 285.992 691.984C300.886 736.524 315.782 781.057 330.676 825.599C345.57 870.14 360.466 914.672 375.36 959.213C380.29 973.952 392.488 988.071 412.002 999.669C465.27 1031.32 552.874 1032.2 607.676 1001.64C628.648 989.936 641.774 975.328 647.006 959.975C677.302 871.065 707.596 782.167 737.892 693.259C737.79 693.559 737.66 693.859 737.556 694.159C752.198 652.702 732.184 607.87 677.08 575.121Z" fill="#323A00"/>
<path d="M750.533 585.308C752.031 548.887 728.657 512.148 680.327 484.409C586.987 430.833 435.609 430.825 342.855 484.411C296.637 511.112 273.589 546.161 273.639 581.236C273.639 581.125 273.627 581.01 273.627 580.898L273.325 687.152C273.225 722.567 296.685 758.036 343.653 784.995C437.011 838.579 588.389 838.569 681.125 784.993C727.201 758.372 750.265 723.468 750.365 688.508L750.667 582.254C750.663 583.27 750.575 584.29 750.533 585.308Z" fill="#444E03"/>
<path d="M669.06 490.835C756.244 540.874 756.706 622.272 670.086 672.313C583.484 722.344 442.114 722.356 354.93 672.315C267.762 622.284 267.302 540.868 353.904 490.835C440.522 440.794 581.892 440.802 669.06 490.835Z" fill="#A66206"/>
<path d="M698.252 582.105L697.95 688.359C698.03 660.727 679.724 633.053 643.074 612.015C570.244 570.213 452.122 570.213 379.766 612.015C343.82 632.782 325.826 660.018 325.75 687.295L326.052 581.041C326.13 553.762 344.122 526.526 380.068 505.761C452.424 463.957 570.546 463.957 643.376 505.761C680.026 526.799 698.33 554.472 698.252 582.105Z" fill="#242900"/>
<path d="M750.667 582.25L750.365 688.503C750.265 723.463 727.199 758.37 681.125 784.989C588.391 838.565 437.011 838.575 343.653 784.991C296.683 758.032 273.223 722.561 273.325 687.147L273.627 580.894C273.527 616.309 296.987 651.778 343.955 678.737C437.313 732.321 588.691 732.309 681.427 678.735C727.503 652.116 750.567 617.212 750.667 582.25Z" fill="#687600"/>
<path d="M680.175 484.408C773.533 537.992 774.025 625.152 681.275 678.738C588.542 732.315 437.162 732.325 343.804 678.74C250.464 625.164 249.97 537.986 342.704 484.41C435.458 430.824 586.835 430.834 680.175 484.408ZM380.766 657.386C453.596 699.19 571.717 699.188 644.073 657.384C716.429 615.581 716.045 547.564 643.213 505.76C570.384 463.958 452.262 463.958 379.906 505.76C307.55 547.566 307.936 615.585 380.766 657.386Z" fill="#92A700"/>
<path d="M525.297 200.723C525.381 198.693 524.077 196.649 521.377 195.1C516.165 192.107 507.745 192.107 502.567 195.1C499.987 196.591 498.699 198.543 498.701 200.496C498.701 200.49 498.701 200.484 498.701 200.478V653.074C498.695 655.047 500.005 657.023 502.629 658.526C507.841 661.519 516.261 661.519 521.439 658.526C524.013 657.041 525.297 655.097 525.305 653.148V200.552C525.303 200.609 525.299 200.667 525.297 200.723Z" fill="#71BE63"/>
<path d="M521.377 195.104C526.589 198.096 526.615 202.943 521.437 205.934C516.259 208.926 507.841 208.926 502.627 205.934C497.415 202.941 497.389 198.094 502.567 195.104C507.745 192.113 516.167 192.113 521.377 195.104Z" fill="#71BE63"/>
<path d="M525.305 200.557V653.154C525.299 655.102 524.011 657.047 521.439 658.532C516.261 661.525 507.843 661.525 502.629 658.532C500.005 657.027 498.697 655.051 498.701 653.08V200.484C498.695 202.456 500.005 204.433 502.629 205.936C507.841 208.928 516.261 208.928 521.439 205.936C524.013 204.451 525.301 202.506 525.305 200.557Z" fill="#71BE63"/>
<path d="M662.917 447.97C608.285 416.613 513.651 420.285 513.651 420.285C513.651 420.285 507.567 474.802 562.199 506.157C616.815 537.504 711.465 533.824 711.465 533.824C711.465 533.824 717.531 479.315 662.917 447.97Z" fill="#71BE63"/>
<path d="M642.988 489.862C637.512 486.43 631.818 483.106 626.242 479.734L614.222 472.699L670.816 470.739L607.018 468.532L591.868 459.988C588.524 458.167 585.212 456.328 581.876 454.503L639.07 452.52L573.98 450.268C562.19 443.961 550.218 437.777 537.672 431.908C547.992 439.153 558.83 446.082 569.898 452.896C574.862 456.006 579.992 459.022 585.05 462.078L589.118 499.022L592.344 466.367L603.672 472.97L617.904 480.996L621.966 517.875L625.21 485.049C629.668 487.5 634.114 489.966 638.678 492.352C650.53 498.694 662.596 504.931 675.198 510.841C664.896 503.603 654.024 496.674 642.988 489.862Z" fill="#399349"/>
<path d="M610.4 301.091L667.264 268.238C665.626 265.709 634.51 217.668 594 194.417C591.806 193.159 589.64 192.018 587.498 190.964L592.17 188.264C620.906 171.986 624.442 127.428 624.63 125.082C622.486 124.058 581.76 104.567 553.024 120.857C552.918 120.917 552.812 120.978 552.706 121.04L548.3 123.585C548.464 121.193 548.564 118.73 548.57 116.191C548.702 69.9034 522.416 19.1246 521.032 16.4524L464.17 49.3048C464.162 49.3107 464.14 49.3266 464.132 49.3366C441.07 22.0236 418.73 7.0518 417.16 6L360.294 38.8524C360.42 40.7055 362.192 66.7798 374.082 99.7455C373.984 99.7832 373.906 99.8131 373.858 99.833L316.994 132.685C318.63 135.214 349.738 183.261 390.258 206.518C392.45 207.775 394.616 208.918 396.758 209.972C395.166 210.892 393.598 211.799 392.088 212.674C363.342 228.946 359.806 273.503 359.62 275.85C361.764 276.873 402.5 296.361 431.236 280.081C431.828 279.745 432.398 279.379 432.97 279.019C432.496 279.317 432.028 279.625 431.542 279.906L435.96 277.355C435.796 279.747 435.698 282.208 435.69 284.749C435.558 331.026 461.834 381.809 463.216 384.481L520.082 351.629C520.092 351.621 520.114 351.603 520.126 351.593C543.186 378.904 565.524 393.88 567.094 394.932L623.958 362.079C623.832 360.226 622.06 334.15 610.172 301.182C610.272 301.14 610.352 301.109 610.4 301.091Z" fill="#943EC7"/>
<path d="M492.825 244.103C491.417 245.166 489.94 246.152 488.388 247.051L431.521 279.904C433.073 279.007 434.551 278.021 435.959 276.955C453.019 267.101 475.765 253.958 492.825 244.103Z" fill="#A258CB"/>
<path d="M448.938 179.823C450.602 178.879 452.312 178.059 454.062 177.352L397.196 210.204C395.448 210.912 393.738 211.731 392.072 212.675C409.134 202.819 431.84 189.609 448.938 179.823Z" fill="#A258CB"/>
<path d="M316.996 132.685L373.862 99.8326C375.508 99.1904 406.788 86.9604 447.306 110.219L390.442 143.072C349.922 119.815 318.644 132.043 316.996 132.685Z" fill="#C93B90"/>
<path d="M520.547 184.032C519.309 184.99 495.811 203.189 492.835 244.102L435.971 276.954C438.947 236.043 462.449 217.843 463.683 216.884C480.741 207.03 503.487 193.89 520.547 184.032Z" fill="#A258CB"/>
<path d="M463.693 216.888C462.455 217.847 438.957 236.045 435.981 276.958C434.481 278.092 432.899 279.139 431.235 280.08C402.499 296.358 361.765 276.875 359.619 275.849C359.805 273.505 363.345 228.947 392.087 212.673C393.751 211.729 395.461 210.909 397.211 210.202C434.471 228.323 462.233 217.461 463.693 216.888Z" fill="#C93B90"/>
<path d="M454.061 177.352C491.319 195.473 519.081 184.607 520.543 184.036L463.679 216.889C462.219 217.461 434.455 228.325 397.197 210.204C414.257 200.348 437.001 187.207 454.061 177.352Z" fill="#A258CB"/>
<path d="M390.421 143.069C392.767 144.415 395.085 145.853 397.375 147.368C434.613 172.007 462.223 214.641 463.675 216.884C462.215 217.457 434.451 228.321 397.193 210.2C394.905 209.088 392.585 207.861 390.239 206.517C349.719 183.26 318.613 135.213 316.975 132.684C318.625 132.04 349.903 119.812 390.421 143.069Z" fill="#F17FC3"/>
<path d="M390.424 143.069L447.288 110.217C449.634 111.563 451.952 113 454.242 114.515C491.48 139.154 519.09 181.789 520.542 184.032L463.678 216.884C462.226 214.639 434.616 172.009 397.378 147.368C395.088 145.853 392.772 144.415 390.424 143.069Z" fill="#A258CB"/>
<path d="M463.678 216.882C464.906 219.256 488.238 264.333 490.968 308.524C491.134 311.238 491.22 313.944 491.214 316.62C491.082 362.898 464.592 383.395 463.198 384.474C461.814 381.802 435.54 331.02 435.672 284.742C435.68 282.062 435.78 279.467 435.964 276.952C438.942 236.039 462.442 217.841 463.678 216.882Z" fill="#F17FC3"/>
<path d="M463.677 216.896L520.541 184.043C521.769 186.417 545.101 231.494 547.831 275.685C547.997 278.399 548.085 281.105 548.077 283.782C547.945 330.059 521.455 350.556 520.061 351.636L463.197 384.488C464.591 383.408 491.079 362.911 491.213 316.634C491.221 313.956 491.135 311.252 490.967 308.538C488.237 264.346 464.907 219.268 463.677 216.896Z" fill="#C93B90"/>
<path d="M520.536 184.032C521.988 186.277 549.608 228.927 586.848 253.568L529.984 286.42C492.742 261.781 465.126 219.129 463.672 216.884C480.73 207.03 503.476 193.89 520.536 184.032Z" fill="#A258CB"/>
<path d="M463.674 216.888C465.126 219.132 492.746 261.783 529.986 286.424C531.724 289.134 533.426 291.91 535.078 294.759C563.626 343.915 566.9 392.381 567.07 394.932C564.926 393.497 524.224 366.237 495.676 317.081C494.022 314.232 492.454 311.383 490.964 308.532C488.234 264.338 464.904 219.26 463.674 216.888Z" fill="#C93B90"/>
<path d="M591.954 261.901C620.502 311.057 623.776 359.523 623.946 362.074L567.082 394.927C566.908 392.376 563.636 343.909 535.09 294.753C533.438 291.904 531.736 289.126 529.998 286.418L586.862 253.566C588.6 256.276 590.3 259.052 591.954 261.901Z" fill="#A3196C"/>
<path d="M493.262 92.4097C495.996 136.597 519.316 181.66 520.542 184.032L463.678 216.884C462.45 214.512 439.132 169.448 436.398 125.262C453.458 115.404 476.204 102.266 493.262 92.4097Z" fill="#A258CB"/>
<path d="M488.542 83.8571C490.194 86.7043 491.766 89.5615 493.254 92.4087L436.389 125.261C434.899 122.412 433.329 119.555 431.677 116.709C403.129 67.5413 362.415 40.2859 360.273 38.8524L417.137 6C419.277 7.43355 459.991 34.6889 488.542 83.8571Z" fill="#A3196C"/>
<path d="M360.273 38.8506C362.417 40.2841 403.131 67.5395 431.677 116.708C433.329 119.555 434.901 122.41 436.389 125.259C439.123 169.447 462.443 214.509 463.669 216.881C462.217 214.637 434.607 172.006 397.369 147.365C395.631 144.657 393.927 141.877 392.275 139.028C363.719 89.8679 360.445 41.4016 360.273 38.8506Z" fill="#C93B90"/>
<path d="M463.672 216.883L520.536 184.03C521.996 183.46 549.77 172.613 587.026 190.731C589.318 191.844 591.634 193.069 593.982 194.415L537.118 227.267C534.772 225.921 532.454 224.696 530.162 223.583C492.906 205.464 465.136 216.312 463.672 216.883Z" fill="#A258CB"/>
<path d="M537.12 227.271C577.63 250.522 608.746 298.563 610.384 301.092C608.738 301.734 577.448 313.97 536.94 290.719C534.596 289.375 532.276 287.935 529.988 286.422C492.746 261.784 465.13 219.131 463.676 216.886C465.136 216.315 492.91 205.469 530.166 223.587C532.454 224.7 534.772 225.925 537.12 227.271Z" fill="#F17FC3"/>
<path d="M537.123 227.272L593.987 194.42C634.497 217.671 665.613 265.712 667.251 268.241L610.387 301.093C608.749 298.564 577.633 250.523 537.123 227.272Z" fill="#C93B90"/>
<path d="M464.153 49.3066C465.537 51.9789 491.821 102.758 491.691 149.045C491.683 151.723 491.583 154.322 491.399 156.833C488.425 197.746 464.913 215.929 463.677 216.887C462.449 214.515 439.131 169.451 436.397 125.265C436.227 122.549 436.143 119.847 436.151 117.167C436.281 70.8775 462.759 50.3863 464.153 49.3066Z" fill="#F17FC3"/>
<path d="M464.152 49.3035L521.016 16.4512C522.4 19.1234 548.684 69.9021 548.554 116.189C548.546 118.868 548.446 121.466 548.262 123.977C545.288 164.89 521.776 183.073 520.54 184.031L463.676 216.884C464.914 215.927 488.426 197.745 491.398 156.83C491.582 154.317 491.682 151.72 491.69 149.042C491.82 102.753 465.536 51.9758 464.152 49.3035Z" fill="#C93B90"/>
<path d="M624.601 125.08C624.415 127.424 620.875 171.982 592.141 188.262L535.277 221.114C564.013 204.836 567.549 160.279 567.737 157.932C584.797 148.077 607.543 134.936 624.601 125.08Z" fill="#A3196C"/>
<path d="M567.752 157.935C567.566 160.279 564.026 204.837 535.292 221.117C533.626 222.059 531.916 222.88 530.166 223.586C492.91 205.467 465.138 216.315 463.676 216.886C464.914 215.929 488.426 197.746 491.398 156.832C492.898 155.698 494.48 154.652 496.144 153.712C524.88 137.42 565.606 156.909 567.752 157.935Z" fill="#C93B90"/>
<path d="M553.006 120.86C581.742 104.57 622.468 124.059 624.612 125.085L567.748 157.938C565.604 156.914 524.878 137.423 496.142 153.713C496.036 153.772 495.93 153.834 495.824 153.896L552.688 121.043C552.794 120.98 552.9 120.92 553.006 120.86Z" fill="#A3196C"/>
<path d="M467.661 180.271C486.541 191.109 501.795 217.382 501.733 238.939C501.701 249.632 497.911 257.158 491.797 260.711C491.745 260.743 491.695 260.774 491.641 260.806C468.595 274.034 443.715 263.548 430.407 240.637C417.123 217.766 420.381 191.167 443.335 177.909C449.551 174.318 458.157 174.817 467.661 180.271Z" fill="#FECE00"/>
<g clip-path="url(#clip2)">
<path d="M500.342 819C526.721 819 548.106 797.615 548.106 771.236C548.106 744.857 526.721 723.472 500.342 723.472C473.963 723.472 452.578 744.857 452.578 771.236C452.578 797.615 473.963 819 500.342 819Z" fill="#92A700"/>
<path d="M500.341 808.944C521.167 808.944 538.05 792.062 538.05 771.236C538.05 750.41 521.167 733.527 500.341 733.527C479.515 733.527 462.633 750.41 462.633 771.236C462.633 792.062 479.515 808.944 500.341 808.944Z" fill="#5A6600"/>
<path d="M519.5 738.5C528.024 745.413 532.5 753.67 532.5 765.5C532.5 786.326 526 797.5 507 806.5C498.093 810.719 488.935 807.233 486 806.5C495 809.794 494.005 809 503 809C523.5 806.5 537 792.5 538.5 772.5C538.5 754.837 529 744.5 519.5 738.5Z" fill="#475100"/>
<path d="M523.424 766.069L525.1 764.453C525.695 763.878 525.385 762.87 524.569 762.73L523.456 762.54C523.474 763.008 523.483 763.479 523.483 763.951C523.482 764.662 523.462 765.368 523.424 766.069V766.069Z" fill="#FECE85"/>
<path d="M505.012 779.824C505.012 779.824 501.708 760.196 527.28 760.196C527.28 760.196 527.136 769.658 521.533 774.578C515.93 779.497 505.012 779.824 505.012 779.824Z" fill="#92A700"/>
<path d="M527.279 760.196C527.279 760.196 527.135 769.671 521.533 774.578C515.93 779.485 505.012 779.824 505.012 779.824C509.853 772.137 516.375 766.903 521.073 763.732C523.831 761.87 527.279 760.196 527.279 760.196Z" fill="#81920C"/>
<path d="M497.543 770.01C497.543 770.01 500.847 750.382 475.275 750.382C475.275 750.382 475.419 759.844 481.022 764.763C486.624 769.683 497.543 770.01 497.543 770.01Z" fill="#92A700"/>
<path d="M497.543 770.01C497.543 770.01 486.61 769.67 481.022 764.763C475.419 759.856 475.275 750.382 475.275 750.382C475.275 750.382 480.16 752.81 482.099 754.005C487.515 757.365 494.684 762.863 497.543 770.01Z" fill="#81920C"/>
<path d="M501.995 801L500.559 800.937C500.573 800.748 501.65 782.177 496.866 770.224C494.079 763.241 487.069 757.843 481.682 754.534L482.501 753.502C488.06 756.912 495.301 762.511 498.217 769.809C503.101 781.988 502.009 800.811 501.995 801Z" fill="#EB8C00"/>
<path d="M480.352 756.425L486.773 756.554L486.74 757.812L480.319 757.683L480.352 756.425Z" fill="#EB8C00"/>
<path d="M491.57 757.032L492.225 761.209L490.801 761.38L490.147 757.203L491.57 757.032Z" fill="#EB8C00"/>
<path d="M488.139 763.528L494.1 763.554L494.093 764.812L488.131 764.786L488.139 763.528Z" fill="#EB8C00"/>
<path d="M501.594 786.505L500.344 785.889C501.608 783.901 502.958 781.762 504.381 779.51C509.322 771.684 515.945 766.336 520.643 763.229L521.505 764.235C516.922 767.267 510.457 772.489 505.645 780.126C504.223 782.378 502.858 784.517 501.594 786.505Z" fill="#EB8C00"/>
<path d="M523.186 766.142L523.306 767.397L516.331 767.911L516.21 766.657L523.186 766.142Z" fill="#EB8C00"/>
<path d="M512.658 766.87L513.325 770.381L511.908 770.587L511.242 767.076L512.658 766.87Z" fill="#EB8C00"/>
<path d="M516.865 772.925L516.983 774.18L509.306 774.733L509.188 773.478L516.865 772.925Z" fill="#EB8C00"/>
<path d="M494.568 770.388C491.02 769.947 484.484 768.702 480.504 765.204C474.772 760.171 474.557 750.785 474.557 750.395C474.557 750.231 474.628 750.067 474.758 749.942C474.887 749.816 475.088 749.753 475.275 749.753C483.578 749.753 489.785 751.791 493.735 755.792C499.582 761.731 498.318 769.759 498.26 770.098L496.838 769.91L497.542 769.998L496.838 769.91C496.853 769.834 498.059 762.096 492.643 756.598C489.095 753.012 483.507 751.137 476.022 751.011C476.18 753.188 477.028 760.36 481.524 764.31C485.202 767.544 491.408 768.714 494.77 769.129L494.568 770.388Z" fill="#242900"/>
<path d="M505.013 780.453C504.654 780.453 504.352 780.227 504.309 779.912C504.251 779.573 502.973 771.545 508.834 765.606C512.77 761.605 518.976 759.567 527.28 759.567C527.467 759.567 527.653 759.63 527.797 759.756C527.941 759.881 528.013 760.032 527.998 760.209C527.998 760.611 527.783 769.985 522.036 775.018C516.304 780.051 505.487 780.441 505.027 780.453H505.013ZM526.533 760.825C519.048 760.938 513.474 762.826 509.926 766.412C505.358 771.029 505.501 777.245 505.659 779.145C508.087 778.981 516.477 778.113 521.031 774.124C525.527 770.186 526.375 763.014 526.533 760.825V760.825Z" fill="#242900"/>
<path d="M501.995 801L500.559 800.937C500.573 800.748 501.65 782.177 496.866 770.224C494.079 763.241 487.069 757.843 481.682 754.534L482.501 753.502C488.06 756.912 495.301 762.511 498.217 769.809C503.101 781.988 502.009 800.811 501.995 801Z" fill="#242900"/>
<path d="M480.352 756.425L486.773 756.554L486.74 757.812L480.319 757.683L480.352 756.425Z" fill="#242900"/>
<path d="M491.57 757.032L492.225 761.209L490.801 761.38L490.147 757.203L491.57 757.032Z" fill="#242900"/>
<path d="M488.139 763.528L494.1 763.554L494.093 764.812L488.131 764.786L488.139 763.528Z" fill="#242900"/>
<path d="M501.594 786.505L500.344 785.889C501.608 783.901 502.958 781.762 504.381 779.51C509.322 771.684 515.945 766.336 520.643 763.229L521.505 764.235C516.922 767.267 510.457 772.489 505.645 780.126C504.223 782.378 502.858 784.517 501.594 786.505Z" fill="#242900"/>
<path d="M523.186 766.142L523.306 767.397L516.331 767.911L516.21 766.657L523.186 766.142Z" fill="#242900"/>
<path d="M512.658 766.87L513.325 770.381L511.908 770.587L511.242 767.076L512.658 766.87Z" fill="#242900"/>
<path d="M516.865 772.925L516.983 774.18L509.306 774.733L509.188 773.478L516.865 772.925Z" fill="#242900"/>
</g>
</g>
<defs>
<linearGradient id="paint0_linear" x1="489.95" y1="-103.671" x2="638.986" y2="862.377" gradientUnits="userSpaceOnUse">
<stop stop-color="white"/>
<stop offset="0.40625" stop-color="#9AF4EF"/>
<stop offset="0.791667" stop-color="#B0EB81"/>
<stop offset="1" stop-color="#C8D3DA"/>
</linearGradient>
<clipPath id="clip0">
<rect width="1024" height="1024" fill="white"/>
</clipPath>
<clipPath id="clip1">
<rect width="1231.6" height="977.476" fill="white" transform="translate(-180.463 -0.243896) rotate(-8.7701)"/>
</clipPath>
<clipPath id="clip2">
<rect width="181" height="181" fill="white" transform="translate(415 638)"/>
</clipPath>
</defs>
</svg>
