<svg width="512" height="512" viewBox="0 0 512 512" fill="none" xmlns="http://www.w3.org/2000/svg">
<g clip-path="url(#clip0)">
<path d="M205.465 70.5352C205.465 70.5352 190.59 68.5821 176.164 75.3438C161.742 82.1055 158.738 88.1133 158.738 88.1133C158.738 88.1133 167.73 98.8164 187.133 95.3243C206.539 91.8321 216.578 73.3672 216.578 73.3672C216.578 73.3672 212.184 53.9805 203.004 47.4493C194.395 41.3243 182.926 42.1407 182.926 42.1407C182.926 42.1407 181.121 52.9571 187.656 62.5743C192.629 69.8828 205.465 70.5352 205.465 70.5352Z" fill="#BF0025"/>
<path d="M277.805 477.535C275.078 469.941 268.203 464.039 266.391 462.558C263.344 460.07 243.066 448.848 243.066 448.848L188.938 470.113V477.5C188.938 480.687 190.617 483.641 193.363 485.262L230.039 506.535C242.664 513.824 258.219 513.824 270.844 506.535C275.219 504.008 277.863 499.992 278.82 495.66L278.844 495.652C278.844 495.656 280.957 486.324 277.805 477.535Z" fill="#2B5D99"/>
<path d="M361.637 428.707C358.91 421.113 352.035 415.211 350.227 413.73C347.176 411.242 326.898 400.019 326.898 400.019L272.77 421.285V428.672C272.77 431.863 274.453 434.812 277.195 436.433L313.875 457.707C326.5 464.996 342.055 464.996 354.676 457.707C359.055 455.179 361.699 451.164 362.656 446.832L362.676 446.824C362.68 446.828 364.793 437.496 361.637 428.707Z" fill="#2B5D99"/>
<path d="M374.934 206.805C374.934 206.805 377.863 224.23 374.934 237.754C372.004 251.273 352.848 255.781 352.848 255.781L342.934 216.344L374.934 206.805Z" fill="#F8DB8F"/>
<path d="M308.895 95.3242C308.895 95.3242 337.977 96.125 355.102 139.598C372.23 183.066 374.934 206.805 374.934 206.805C374.934 206.805 363.516 218.223 349.695 221.828C335.871 225.434 308.895 95.3242 308.895 95.3242Z" fill="#EF5F26"/>
<path d="M308.895 95.3242C308.895 95.3242 333.469 100.332 343.082 139.598C352.699 178.859 359.613 245.754 355.703 301.457C350.895 369.965 342.59 408.934 342.59 408.934C342.59 408.934 337.129 424.652 318.071 431.598C302.516 437.266 272.469 430.953 272.469 421.602V387.391L267.965 390.621L261.653 458.156C261.653 458.156 261.805 468.746 250.535 475.281C227.656 488.551 192.242 481.293 188.938 472.07C183.52 456.957 168.504 326.094 168.504 292.742C168.504 259.387 165.426 178.938 175.715 162.031C194.645 130.934 308.895 95.3242 308.895 95.3242Z" fill="#2C92BF"/>
<path d="M320.848 176.004C320.848 176.004 320.848 166.09 318 148.059C315.156 130.031 308.895 106.594 308.895 106.594C307.188 102.891 305.207 99.7969 303.027 97.2188C285.621 102.945 233.387 120.926 200.684 140.758C206.406 144.465 213.707 150.652 221.238 160.906C237.777 183.43 240.168 215.219 240.168 215.219L320.848 176.004Z" fill="#EF5F26"/>
<path d="M135.602 318.883C135.602 318.883 134.047 347.855 156.785 349.082C186.082 350.66 184.731 310.32 184.731 310.32L135.602 318.883Z" fill="#F8DB8F"/>
<path d="M320.847 112.145C322.875 106.203 320.984 101.609 320.847 98.6719C320.711 95.7344 322.426 86.3125 321.972 80.2266C321.523 74.1406 317.996 69.1094 317.996 69.1094C317.945 56.1992 317.242 46.6484 317.242 46.6484C316.508 18.707 296.058 -9.24219 252.336 2.92969C208.617 15.0977 205.465 70.5352 205.465 70.5352L201.355 99.3789L201.363 99.375C197.558 105.922 198.988 120.109 201.855 123.27C209.519 131.719 218.722 130.234 220.953 129.711C221.383 131.562 222.14 133.332 223.492 134.762C227.32 138.82 235.433 136.566 238.14 139.598C240.844 142.625 240.168 144.453 245.351 148.961C250.535 153.469 256.394 151.664 262.441 152.34C268.492 153.016 265.183 156.848 270.59 160.23C276 163.609 283.437 158.652 285.238 162.258C287.043 165.863 293.351 168.117 300.113 164.738C306.875 161.355 307.097 149.863 310.929 146.258C314.761 142.652 314.308 141.074 315.668 135.391C317.027 129.711 320.394 130.254 322.047 123.719C323.699 117.184 318.82 118.086 320.847 112.145Z" fill="#F8DB8F"/>
<path d="M187.434 281.922C187.434 281.922 214.93 266.597 213.125 230.09C211.32 193.582 187.848 149.758 177.32 159.687C146.867 188.398 136.953 240.008 135.602 262.543C134.25 285.078 135.602 318.883 135.602 318.883C135.602 318.883 146.152 323.004 158.137 322.488C170.121 321.972 184.731 310.32 184.731 310.32L187.434 281.922Z" fill="#EF5F26"/>
<path d="M249.633 255.781L324.34 212.652V271.012C324.34 295.336 311.363 317.812 290.297 329.977C272.227 340.41 249.633 327.367 249.633 306.496V255.781Z" fill="#2B5D99"/>
<path d="M282.688 61.9727C297.742 55.7735 308.781 48.3828 316.848 41.2461C313.766 15.2617 293.234 -8.45701 252.34 2.92581C208.617 15.0977 205.465 70.5352 205.465 70.5352C205.465 70.5352 236.715 80.9024 282.688 61.9727Z" fill="#EA2642"/>
<path d="M320.848 112.145C322.875 106.203 320.984 101.609 320.848 98.6719C320.711 95.7344 322.426 86.3125 321.973 80.2266C321.523 74.1406 317.996 69.1094 317.996 69.1094L243.453 112.145L223.734 100.762C224.305 95.4883 225.297 86.7695 226.195 81.4492C226.688 78.5391 227.652 75.7461 228.684 73.3633C213.996 73.3594 205.465 70.5352 205.465 70.5352L201.355 99.3789C201.355 99.3789 210.363 93.75 217.184 103.664C220.172 108.016 220.113 116.734 220.336 120.34C220.562 123.949 219.66 130.707 223.492 134.766C227.324 138.82 235.438 136.566 238.141 139.598C240.844 142.629 240.168 144.457 245.352 148.961C250.535 153.469 256.395 151.668 262.445 152.344C268.492 153.02 265.184 156.848 270.594 160.23C276 163.609 283.438 158.652 285.238 162.258C287.043 165.863 293.352 168.117 300.113 164.738C306.875 161.359 307.102 149.863 310.93 146.258C314.762 142.652 314.312 141.074 315.668 135.391C317.027 129.711 320.395 130.258 322.051 123.723C323.703 117.188 318.82 118.086 320.848 112.145Z" fill="#162F4D"/>
<path d="M306.941 63.6641C306.941 66.2031 305.395 69.1563 303.488 70.2539C301.582 71.3555 300.039 70.1875 300.039 67.6445C300.039 65.1055 301.582 62.1523 303.488 61.0547C305.395 59.9531 306.941 61.1211 306.941 63.6641Z" fill="#162F4D"/>
<path d="M275.926 81.1953C275.926 83.7344 274.383 86.6875 272.477 87.7891C270.57 88.8867 269.023 87.7188 269.023 85.1797C269.023 82.6367 270.57 79.6836 272.477 78.5859C274.383 77.4844 275.926 78.6524 275.926 81.1953Z" fill="#162F4D"/>
<path d="M289.215 97.8946L303.305 89.7618C305.336 88.5899 307.875 90.0547 307.875 92.4024V96.1094C307.875 99.8086 305.898 103.227 302.695 105.078L288.609 113.211C286.578 114.383 284.039 112.918 284.039 110.57V106.863C284.039 103.164 286.012 99.7461 289.215 97.8946Z" fill="#F8DB8F"/>
<path d="M213.125 230.09C212.148 210.285 204.789 188.344 196.582 173.984C200.398 190.32 196.734 212.832 194.645 229.188C191.941 250.375 187.434 281.922 187.434 281.922C187.434 281.922 214.93 266.598 213.125 230.09Z" fill="#BD4B1E"/>
</g>
<defs>
<clipPath id="clip0">
<rect width="512" height="512" fill="white"/>
</clipPath>
</defs>
</svg>
