<svg width="512" height="512" viewBox="0 0 512 512" fill="none" xmlns="http://www.w3.org/2000/svg">
<g clip-path="url(#clip0)">
<path d="M205.817 105.547C205.817 105.547 183.758 118.836 176.176 153.894C169.61 184.25 176.176 206.746 176.176 206.746L250.227 163.992C250.227 163.992 243.567 102.543 205.817 105.547Z" fill="#BD4B1E"/>
<path d="M321.219 45.6329C321.219 45.6329 328.84 22.6914 307.402 9.89457C291.441 0.36723 258.5 -9.32418 223.922 17.1016C193.379 40.4454 195.695 101.785 211.012 116.5C226.324 131.215 321.219 45.6329 321.219 45.6329Z" fill="#EF5F26"/>
<path d="M270.297 479.214C267.703 471.991 261.164 466.374 259.441 464.968C256.539 462.6 237.25 451.925 237.25 451.925L185.758 469.503V479.182C185.758 482.214 187.359 485.022 189.969 486.565L224.859 506.8C236.871 513.733 251.664 513.733 263.676 506.8C267.84 504.397 270.355 500.577 271.266 496.456L271.285 496.448C271.285 496.448 273.297 487.577 270.297 479.214Z" fill="#2B5D99"/>
<path d="M358.957 439.874C356.363 432.651 349.824 427.034 348.102 425.628C345.203 423.261 325.91 412.585 325.91 412.585L274.418 430.163V439.843C274.418 442.874 276.02 445.682 278.633 447.225L313.523 467.46C325.531 474.397 340.328 474.397 352.34 467.46C356.5 465.057 359.016 461.241 359.93 457.12L359.949 457.112C359.949 457.112 361.957 448.237 358.957 439.874Z" fill="#2B5D99"/>
<path d="M374.07 264.515C374.07 264.515 375.871 287.523 367.762 304.64C359.656 321.757 342.668 311.948 342.668 311.948L344.789 267.702L374.07 264.515Z" fill="#F8DB8F"/>
<path d="M326.32 113.355C326.32 113.355 348.844 124.015 361.457 153.742C374.066 183.472 374.066 264.515 374.066 264.515L341.355 280.922L326.32 113.355Z" fill="#A2BF26"/>
<path d="M326.32 113.355C326.32 113.355 292.793 104.843 250.047 127.769C207.305 150.691 182.184 166.207 173.172 182.422C164.164 198.636 165.348 313.25 169.57 339.773C174.375 369.953 183.383 395.027 183.383 395.027L185.785 469.5C185.785 469.5 204.055 485.5 230.828 481.961C256.953 478.511 260.86 466.5 260.86 466.5V404.64L274.434 396.8V430.355C274.434 430.355 298.426 446.855 317.512 441.355C341.75 434.367 343.094 422.402 343.094 422.402C343.094 422.402 348.395 336.621 348.395 304.191C348.395 271.758 361.008 154.043 326.32 113.355Z" fill="#2C92BF"/>
<path d="M250.047 127.769C232.023 137.437 217.145 145.781 205.273 153.422C213.871 158.437 223.02 166.605 228.574 175.816C241.098 196.57 241.066 229.398 241.066 229.398L324.52 181.219C324.52 181.219 319.809 134.586 298.027 112.476C285.004 113.894 268.379 117.937 250.047 127.769Z" fill="#A2BF26"/>
<path d="M321.219 45.6328C321.219 45.6328 324.52 111.996 315.211 130.914C310.805 139.871 301.473 144.965 292.508 147.527C277.793 151.73 249.148 145.684 236.535 136.676C229.102 131.367 227.227 128.961 227.227 128.961C227.227 128.961 219.344 134.367 213.488 130.312C207.633 126.258 204.305 116.668 206.73 108.918C209.434 100.285 212.359 99.3828 214.914 98.4805C217.465 97.582 221.668 101.484 221.668 101.484C221.668 101.484 255.602 91.125 275.871 72.207C296.145 53.2852 306.277 32.793 306.277 32.793L321.219 45.6328Z" fill="#F8DB8F"/>
<path d="M250.227 267.152L330.406 220.859V283.492C330.406 309.601 316.477 333.722 293.867 346.777C274.473 357.976 250.227 343.976 250.227 321.578V267.152Z" fill="#2B5D99"/>
<path d="M180.094 173.171C177.195 176.269 174.891 179.332 173.172 182.421C166.906 193.703 165.57 252.613 166.762 296.351C177.82 299.699 190.301 298.515 199.301 290.226C216.414 274.46 220.469 242.031 211.012 207.347C202.445 175.937 183.578 173.375 180.094 173.171Z" fill="#A2BF26"/>
<path d="M142.543 355.69C142.543 355.69 145.649 386.343 160.86 389.925C176.176 393.526 185.094 383.206 187.497 377.499C189.899 371.796 187.586 342.476 187.586 342.476L142.543 355.69Z" fill="#F8DB8F"/>
<path d="M180.094 173.171C180.094 173.171 152 200.14 142.543 256.593C134.574 304.164 142.543 355.691 142.543 355.691C142.543 355.691 154.27 356.902 168.219 352.839C184.899 347.98 187.586 342.48 187.586 342.48C187.586 342.48 188.488 284.824 192.992 246.085C197.496 207.347 205.028 178.636 180.094 173.171Z" fill="#A2BF26"/>
<path d="M313.473 70.043C313.473 73.5391 311.344 77.6016 308.723 79.1172C306.098 80.6329 303.973 79.0235 303.973 75.5274C303.973 72.0274 306.098 67.9649 308.723 66.4493C311.344 64.9375 313.473 66.543 313.473 70.043Z" fill="#162F4D"/>
<path d="M280.282 89.1329C280.282 92.6329 278.157 96.6954 275.536 98.2071C272.911 99.7227 270.786 98.1173 270.786 94.6173C270.786 91.1212 272.911 87.0587 275.536 85.543C278.157 84.0274 280.282 85.6368 280.282 89.1329Z" fill="#162F4D"/>
</g>
<defs>
<clipPath id="clip0">
<rect width="512" height="512" fill="white"/>
</clipPath>
</defs>
</svg>
