<?xml version="1.0" encoding="iso-8859-1"?>
<!-- Generator: Adobe Illustrator 19.0.0, SVG Export Plug-In . SVG Version: 6.00 Build 0)  -->
<svg version="1.1" id="Capa_1" xmlns="http://www.w3.org/2000/svg" xmlns:xlink="http://www.w3.org/1999/xlink" x="0px" y="0px"
	 viewBox="0 0 512.001 512.001" style="enable-background:new 0 0 512.001 512.001;" xml:space="preserve">
<path style="fill:#B3FA08;" d="M227.512,152.376c-27.196-15.702-74.314-13.859-74.314-13.859s-3.02,27.294,24.176,42.996
	s74.306,13.863,74.306,13.863S254.708,168.078,227.512,152.376z"/>
<path style="fill:#9CDD03;" d="M223.951,177.505c-2.469-1.556-5.027-3.069-7.551-4.596l-2.016-18.502l-1.606,16.358l-5.647-3.318
	l-7.086-4.021l-2.012-18.461l-1.614,16.438c-2.223-1.229-4.437-2.459-6.704-3.658c-5.908-3.181-11.907-6.299-18.188-9.263
	c5.138,3.628,10.541,7.092,16.043,10.509c2.726,1.718,5.544,3.383,8.328,5.077l5.994,3.522l-28.183,0.982l31.767,1.101l7.532,4.274
	c1.667,0.913,3.321,1.838,4.987,2.755l-28.493,0.988l32.392,1.123c5.875,3.152,11.85,6.256,18.102,9.198
	C234.856,184.386,229.445,180.916,223.951,177.505z"/>
<path style="fill:#3E3D43;" d="M355.204,444.586l-0.001,0.002L355.204,444.586z"/>
<path style="fill:#3D3D3D;" d="M338.176,287.231c-44.111-26.37-116.661-27.103-162.043-1.637
	c-29.751,16.694-40.438,40.503-31.844,62.353c-0.288-0.73-0.556-1.463-0.8-2.197c7.415,22.303,14.829,44.603,22.244,66.906
	c7.415,22.303,14.829,44.603,22.244,66.906c2.454,7.38,8.526,14.45,18.241,20.257c26.517,15.851,70.127,16.292,97.408,0.985
	c10.44-5.858,16.974-13.173,19.579-20.861c15.082-44.521,30.162-89.035,45.244-133.556c-0.051,0.151-0.115,0.3-0.167,0.451
	C375.57,326.079,365.607,303.63,338.176,287.231z"/>
<path style="fill:#3E3D43;" d="M374.746,292.332c0.746-18.238-10.89-36.634-34.949-50.524
	c-46.465-26.827-121.822-26.831-167.995,0.001c-23.007,13.371-34.481,30.921-34.456,48.484c0-0.056-0.006-0.113-0.006-0.169
	l-0.151,53.206c-0.05,17.734,11.628,35.495,35.01,48.994c46.474,26.831,121.831,26.826,167.995-0.001
	c22.937-13.33,34.418-30.808,34.468-48.314l0.151-53.206C374.812,291.312,374.767,291.822,374.746,292.332z"/>
<path style="fill:#A66206;" d="M334.185,245.024c43.401,25.057,43.63,65.816,0.511,90.874
	c-43.111,25.053-113.485,25.058-156.886,0.001c-43.392-25.053-43.622-65.821-0.511-90.874
	C220.418,219.967,290.792,219.971,334.185,245.024z"/>
<path style="fill:#2E2E30;" d="M348.718,290.727l-0.151,53.206c0.039-13.836-9.073-27.694-27.318-38.228
	c-36.255-20.932-95.056-20.932-131.076,0c-17.894,10.399-26.851,24.037-26.89,37.696l0.151-53.206
	c0.038-13.659,8.996-27.298,26.89-37.696c36.019-20.933,94.821-20.933,131.076,0C339.645,263.033,348.756,276.891,348.718,290.727z"
	/>
<path style="fill:#4B4B4C;" d="M374.813,290.802l-0.151,53.206c-0.05,17.505-11.532,34.985-34.468,48.314
	c-46.163,26.827-121.521,26.832-167.995,0.001c-23.382-13.499-35.061-31.261-35.01-48.994l0.151-53.206
	c-0.05,17.734,11.628,35.495,35.01,48.994c46.474,26.831,121.831,26.826,167.995-0.001
	C363.281,325.787,374.763,308.307,374.813,290.802z"/>
<path style="fill:#57565C;" d="M339.721,241.807c46.474,26.831,46.719,70.476,0.547,97.309
	c-46.163,26.827-121.521,26.832-167.995,0.001c-46.465-26.827-46.711-70.481-0.547-97.309
	C217.897,214.976,293.255,214.98,339.721,241.807z M190.673,328.424c36.255,20.933,95.057,20.932,131.076-0.001
	c36.019-20.933,35.828-54.992-0.428-75.924c-36.255-20.932-95.056-20.932-131.076,0
	C154.226,273.433,154.418,307.492,190.673,328.424"/>
<path style="fill:#B3FA08;" d="M262.618,99.755c0.042-1.016-0.608-2.04-1.951-2.815c-2.594-1.498-6.786-1.498-9.364,0
	c-1.284,0.747-1.925,1.725-1.924,2.702c0-0.003,0-0.006,0-0.009v226.633c-0.003,0.988,0.649,1.977,1.955,2.73
	c2.594,1.498,6.786,1.498,9.364,0c1.281-0.744,1.922-1.717,1.924-2.693V99.67C262.622,99.699,262.619,99.727,262.618,99.755z"/>
<g style="enable-background:new    ;">
	<path style="fill:#B3FA08;" d="M260.666,96.94c2.594,1.498,2.608,3.926,0.03,5.423c-2.578,1.498-6.768,1.498-9.364,0
		c-2.594-1.498-2.608-3.926-0.03-5.423C253.881,95.441,258.072,95.441,260.666,96.94z"/>
	<path style="fill:#9CDD03;" d="M262.622,99.67v226.633c-0.003,0.976-0.644,1.949-1.924,2.693c-2.577,1.498-6.768,1.498-9.364,0
		c-1.306-0.753-1.957-1.743-1.955-2.73V99.632c-0.003,0.988,0.649,1.977,1.955,2.73c2.594,1.498,6.786,1.498,9.364,0
		C261.978,101.619,262.619,100.645,262.622,99.67z"/>
</g>
<path style="fill:#B3FA08;" d="M332.551,222.003c-27.196-15.702-74.306-13.863-74.306-13.863s-3.028,27.299,24.168,43
	c27.188,15.697,74.306,13.854,74.306,13.854S359.738,237.7,332.551,222.003z"/>
<path style="fill:#9CDD03;" d="M322.625,242.979c-2.726-1.718-5.56-3.383-8.336-5.072l-5.984-3.523l28.173-0.982l-31.759-1.105
	l-7.541-4.278c-1.664-0.912-3.313-1.833-4.974-2.747l28.472-0.992l-32.402-1.128c-5.869-3.158-11.829-6.254-18.075-9.193
	c5.137,3.628,10.532,7.098,16.043,10.509c2.471,1.557,5.025,3.068,7.542,4.598l2.025,18.5l1.606-16.352l5.639,3.307l7.085,4.019
	l2.022,18.466l1.614-16.437c2.219,1.228,4.433,2.462,6.704,3.657c5.9,3.176,11.907,6.299,18.18,9.259
	C333.53,249.859,328.119,246.39,322.625,242.979z"/>
<g>
	<path style="fill:#C60024;" d="M279.369,188.262l23.189-13.477c3.228-1.84,0.252-13.417-6.788-28.672
		c1.248-0.089,2.278-0.356,3.048-0.818c-0.016,0.009-0.028,0.02-0.044,0.029l23.189-13.477c1.099-0.639,1.694-1.652,1.698-3.057
		c0.021-7.314-15.965-22.485-35.706-33.882c-2.814-1.625-5.547-3.072-8.173-4.362l5.87-3.411
		c14.004-7.981,21.72-20.747,17.234-28.517c-0.871-1.508-2.137-2.717-3.715-3.629c-6.552-3.783-18.477-2.426-29.762,4.005
		c-0.103,0.059-0.206,0.118-0.309,0.178l-5.628,3.27c0.211-2.941,0.336-6.06,0.345-9.342c0.064-22.684-5.046-44.052-11.411-47.727
		c-1.247-0.72-2.449-0.707-3.577-0.052L225.64,18.799c0.028-0.017,0.057-0.027,0.085-0.043c-0.77,0.425-1.505,1.153-2.198,2.148
		c-7.165-10.198-13.728-17.513-18.013-19.986c-1.578-0.911-2.848-1.166-3.723-0.666L178.601,13.73
		c0.328-0.187,0.713-0.268,1.147-0.248c-0.434-0.02-0.819,0.061-1.147,0.249c-3.228,1.84-0.252,13.414,6.788,28.667
		c-1.224,0.088-2.238,0.347-3.003,0.792l-23.189,13.476c0.149-0.086,0.306-0.165,0.473-0.238c-1.4,0.611-2.167,1.701-2.171,3.296
		c-0.021,7.314,15.965,22.478,35.706,33.876c2.813,1.625,5.546,3.077,8.172,4.362l-5.869,3.411
		c-14.004,7.981-21.721,20.753-17.234,28.523c0.871,1.507,2.136,2.717,3.713,3.627c6.551,3.783,18.477,2.423,29.764-4.009
		c0.375-0.213,0.739-0.433,1.104-0.653c-0.215,0.13-0.426,0.263-0.644,0.39l5.476-3.182c-0.211,2.946-0.33,6.067-0.34,9.349
		c-0.064,22.678,5.041,44.049,11.406,47.724c1.362,0.786,2.671,0.693,3.889-0.154c-0.103,0.072-0.207,0.144-0.312,0.206
		l23.189-13.477c0.741-0.431,1.449-1.142,2.118-2.102c7.164,10.197,13.726,17.512,18.009,19.984
		C277.223,188.506,278.493,188.761,279.369,188.262z"/>
	<path style="fill:#C60024;" d="M212.212,129.248l23.189-13.476c1.975-1.148,3.813-2.397,5.511-3.711l-23.189,13.477
		C216.024,126.851,214.185,128.101,212.212,129.248z"/>
	<path style="fill:#C60024;" d="M201.972,98.256l23.189-13.476c-2.148,0.857-4.319,1.895-6.463,3.117l-23.189,13.477
		C197.654,100.151,199.824,99.113,201.972,98.256z"/>
	<path style="fill:#C60024;" d="M232.331,183.19l23.189-13.476c4.632-2.692,8.015-16.231,8.067-34.467
		c0.009-3.476-0.107-6.922-0.323-10.281l-23.189,13.476c0.217,3.359,0.333,6.805,0.323,10.281
		C240.346,166.959,236.963,180.498,232.331,183.19z"/>
	<path style="fill:#C60024;" d="M182.388,43.188l-23.189,13.477c4.619-2.684,18.136,1.243,34.082,10.449
		c3.025,1.746,5.96,3.586,8.764,5.465l23.189-13.477c-2.804-1.878-5.739-3.718-8.764-5.465
		C200.524,44.432,187.008,40.504,182.388,43.188z"/>
	<path style="fill:#C60024;" d="M279.369,188.262l23.189-13.477c4.515-2.573-3.103-24.199-17.017-48.298
		c-2.131-3.69-4.288-7.227-6.424-10.557l-23.189,13.477c2.137,3.331,4.294,6.867,6.425,10.557
		C276.265,164.063,283.885,185.689,279.369,188.262z"/>
	<path style="fill:#C60024;" d="M217.898,63.543l23.189-13.476c-1.815-3.52-3.793-7.147-5.929-10.846
		c-11.213-19.422-23.09-34.519-29.643-38.303c-1.578-0.911-2.848-1.166-3.723-0.666l-23.189,13.476
		c0.877-0.5,2.145-0.245,3.723,0.666c6.552,3.783,18.429,18.881,29.643,38.303C214.105,56.397,216.083,60.024,217.898,63.543z"/>
	<path style="fill:#C60024;" d="M298.774,145.326l23.189-13.477c1.099-0.639,1.694-1.652,1.698-3.057
		c0.021-7.314-15.965-22.485-35.706-33.882c-3.025-1.746-5.961-3.296-8.766-4.656L256,103.73c2.805,1.36,5.741,2.91,8.766,4.656
		c19.741,11.398,35.726,26.569,35.706,33.882C300.468,143.674,299.873,144.687,298.774,145.326z"/>
	<path style="fill:#C60024;" d="M248.831,5.325l-23.189,13.477c1.128-0.656,2.33-0.668,3.577,0.052
		c6.365,3.675,11.476,25.042,11.411,47.727c-0.009,3.476-0.145,6.777-0.38,9.868l23.189-13.476c0.235-3.092,0.371-6.392,0.38-9.868
		c0.064-22.684-5.046-44.052-11.411-47.727C251.162,4.657,249.96,4.669,248.831,5.325z"/>
</g>
<path style="fill:#FE0B37;" d="M228.754,183.138c6.365,3.675,11.579-11.738,11.644-34.416c0.009-3.476-0.107-6.922-0.323-10.281
	c1.815,3.521,3.798,7.156,5.929,10.846c11.215,19.424,23.092,34.528,29.644,38.309c1.577,0.91,2.846,1.165,3.721,0.666
	c4.515-2.573-3.103-24.199-17.017-48.298c-2.131-3.69-4.288-7.227-6.425-10.557c2.804,1.885,5.739,3.718,8.764,5.465
	c19.741,11.398,35.76,14.711,35.78,7.396c0.021-7.314-15.965-22.485-35.706-33.882c-3.025-1.746-5.961-3.296-8.766-4.656
	c2.148-0.857,4.319-1.895,6.463-3.117c14.004-7.981,21.72-20.747,17.234-28.517c-0.871-1.508-2.137-2.717-3.715-3.629
	c-6.552-3.783-18.477-2.426-29.762,4.005c-2.144,1.228-4.142,2.559-5.972,3.975c0.235-3.092,0.371-6.392,0.38-9.868
	c0.064-22.684-5.046-44.052-11.411-47.727c-6.365-3.675-11.574,11.735-11.639,34.418c-0.009,3.476,0.102,6.919,0.318,10.272
	c-1.815-3.52-3.793-7.147-5.929-10.846c-11.213-19.422-23.09-34.519-29.643-38.303c-1.578-0.911-2.848-1.166-3.723-0.666
	c-4.515,2.573,3.103,24.193,17.017,48.292c2.131,3.69,4.288,7.227,6.425,10.557c-2.804-1.878-5.739-3.718-8.764-5.465
	c-19.741-11.398-35.76-14.704-35.78-7.391s15.965,22.478,35.706,33.876c3.025,1.746,5.961,3.303,8.766,4.656
	c-2.148,0.857-4.319,1.895-6.463,3.117c-14.004,7.981-21.721,20.753-17.234,28.523c0.871,1.507,2.136,2.717,3.713,3.627
	c6.551,3.783,18.477,2.423,29.764-4.009c2.149-1.219,4.142-2.559,5.972-3.975c-0.235,3.098-0.366,6.402-0.375,9.878
	C217.283,158.093,222.389,179.464,228.754,183.138z"/>
<path style="fill:#C60024;" d="M269.101,59.175l-23.189,13.477c0.103-0.059,0.206-0.118,0.309-0.178
	c11.285-6.431,23.21-7.788,29.762-4.005c1.579,0.911,2.844,2.12,3.715,3.629c4.486,7.77-3.23,20.536-17.234,28.517l23.189-13.477
	c14.004-7.981,21.721-20.747,17.234-28.517c-0.871-1.508-2.137-2.717-3.715-3.629c-6.552-3.783-18.477-2.426-29.762,4.005
	C269.307,59.056,269.204,59.116,269.101,59.175z"/>
<path style="fill:#FED322;" d="M228.216,77.51c11.501,6.64,20.789,22.736,20.752,35.945c-0.019,6.551-2.328,11.162-6.052,13.339
	c-0.032,0.019-0.063,0.039-0.096,0.058c-14.038,8.104-29.191,1.681-37.295-12.357c-8.09-14.013-6.106-30.308,7.874-38.432
	C217.186,73.862,222.428,74.168,228.216,77.51z"/>
<g>
</g>
<g>
</g>
<g>
</g>
<g>
</g>
<g>
</g>
<g>
</g>
<g>
</g>
<g>
</g>
<g>
</g>
<g>
</g>
<g>
</g>
<g>
</g>
<g>
</g>
<g>
</g>
<g>
</g>
</svg>
