<svg width="243" height="243" viewBox="0 0 243 243" fill="none" xmlns="http://www.w3.org/2000/svg">
<path d="M170.808 136.193C170.808 120.625 180.272 102.542 191.948 95.8007C197.436 92.6323 202.434 92.5341 206.19 94.9349L223.793 104.805L223.79 104.807C228.081 107.488 230.781 113.4 230.781 121.71C230.781 137.277 221.315 155.362 209.64 162.103C204.512 165.062 199.812 165.342 196.153 163.408L177.864 153.138H177.871C173.538 150.479 170.808 144.55 170.808 136.193Z" fill="#2B5D99"/>
<path d="M77.5282 189.653C77.5282 174.085 86.9925 156 98.6687 149.259C104.154 146.092 109.153 145.994 112.911 148.395V148.393L130.512 158.265L130.508 158.267C134.8 160.948 137.5 166.858 137.5 175.17C137.5 190.737 128.035 208.823 116.359 215.563C111.233 218.522 106.533 218.802 102.873 216.867V216.869L84.5843 206.598H84.5917C80.2572 203.937 77.5282 198.01 77.5282 189.653Z" fill="#2B5D99"/>
<path d="M13.2742 120.117L41.8824 101.136L48.831 64.2336C50.0101 57.971 53.8626 52.5352 59.3818 49.3483L91.4402 31.2816C92.8529 30.4659 94.4454 30.5975 95.6616 31.3446L129.591 50.9371L174.258 25.1488C175.381 24.4999 176.64 24.5629 177.639 25.1006L177.693 25.0709C177.693 25.0709 241.346 61.8865 241.504 61.994C242.388 62.6077 243 63.6199 243 64.8472V103.268C243 108.33 240.299 113.007 235.916 115.538L79.79 205.235C78.0306 206.251 76.0617 206.149 74.4988 205.304L74.4951 205.309L74.395 205.252C74.3746 205.239 74.3524 205.228 74.332 205.215L11.0402 168.661L11.0458 168.653C9.35869 167.771 8.12582 166.026 8.12582 163.85V132.601C8.12396 127.922 9.97606 123.434 13.2742 120.117Z" fill="#EA2642"/>
<path d="M237.783 61.8346L161.156 106.075V71.54C161.156 69.9345 160.275 68.6348 159.05 67.9452C159.052 67.9452 159.052 67.947 159.053 67.947L129.592 50.9371L174.258 25.1488C175.383 24.4999 176.64 24.5629 177.639 25.1006L177.693 25.0709C177.693 25.0709 235.28 58.377 241.037 61.7215C240.058 61.2469 238.858 61.2117 237.783 61.8346Z" fill="#FF4D73"/>
<path d="M161.156 71.5401C161.156 69.9346 160.275 68.635 159.05 67.9453C159.051 67.9453 159.051 67.9472 159.053 67.9472L137.177 55.3163L176.119 32.8335L226.075 61.6753L161.154 99.1583V71.5401H161.156Z" fill="#BF0025"/>
<path d="M105.406 137.82L112.354 100.917C113.534 94.6548 117.386 89.2191 122.905 86.034L154.964 67.9655C157.715 66.3767 161.156 68.3641 161.156 71.5417V106.075L237.783 61.8345C240.1 60.4959 243 62.1682 243 64.8472V103.268C243 108.33 240.299 113.007 235.916 115.538L79.79 205.237C76.1711 207.325 71.6493 204.714 71.6493 200.535V169.287C71.6493 164.608 73.4996 160.119 76.7977 156.801L105.406 137.82Z" fill="#BF0025"/>
<path d="M95.2185 199.58C95.2185 215.148 104.683 222.304 116.359 215.563C128.033 208.822 137.5 190.737 137.5 175.169C137.5 159.602 128.035 152.448 116.359 159.188C104.683 165.929 95.2185 184.013 95.2185 199.58Z" fill="#162F4D"/>
<path d="M102.874 195.163C102.874 205.094 108.91 209.659 116.359 205.358C123.808 201.058 129.847 189.521 129.847 179.59C129.847 169.658 123.808 165.094 116.359 169.395C108.91 173.694 102.874 185.231 102.874 195.163Z" fill="#D6E5E5"/>
<path d="M108.35 192C108.35 197.897 111.936 200.608 116.359 198.053C120.783 195.5 124.368 188.65 124.368 182.752C124.368 176.855 120.783 174.145 116.359 176.697C111.936 179.252 108.35 186.103 108.35 192Z" fill="#BF0025"/>
<path d="M188.5 146.122C188.5 161.688 197.964 168.844 209.64 162.103C221.315 155.362 230.781 137.277 230.781 121.71C230.781 106.144 221.315 98.9878 209.64 105.729C197.964 112.47 188.5 130.555 188.5 146.122Z" fill="#162F4D"/>
<path d="M196.153 141.703C196.153 151.634 202.191 156.198 209.64 151.899C217.088 147.598 223.126 136.061 223.126 126.129C223.126 116.198 217.088 111.635 209.64 115.935C202.191 120.234 196.153 131.771 196.153 141.703Z" fill="#D6E5E5"/>
<path d="M201.631 138.54C201.631 144.437 205.217 147.148 209.64 144.595C214.062 142.04 217.647 135.19 217.647 129.292C217.647 123.395 214.062 120.684 209.64 123.239C205.217 125.792 201.631 132.642 201.631 138.54Z" fill="#BF0025"/>
<path d="M105.406 137.82L41.8828 101.136L13.2746 120.117L76.7999 156.801L105.406 137.82Z" fill="#FF4D73"/>
<path d="M107.514 98.1239L100.616 135.054L46.2265 103.645L53.7146 67.063L107.514 98.1239Z" fill="#2C92BF"/>
<path d="M115.798 92.6289L52.2704 55.9505C54.0965 53.2771 56.5122 51.0061 59.3821 49.3486L91.4405 31.282C92.8495 30.4681 94.4346 30.5979 95.649 31.3376L159.056 67.9474C157.856 67.2707 156.327 67.1799 154.964 67.9659L122.906 86.0345C120.038 87.69 117.626 89.9574 115.798 92.6289Z" fill="#FF4D73"/>
<path d="M161.156 71.5399C161.156 70.6797 160.897 69.9103 160.472 69.2707L176.119 60.2383L202.343 75.3776L161.156 99.1581V71.5399Z" fill="#8F001C"/>
<path d="M152.37 111.125L110.96 135.054L116.5 104.207C117.221 100.187 119.678 96.6888 123.215 94.6439L152.368 77.7935V111.125H152.37Z" fill="#2C92BF"/>
<path d="M176.119 60.2366V32.8335L226.075 61.6753L202.343 75.3778L176.119 60.2366Z" fill="#EA2642"/>
<path d="M10.2453 152.452V133.139C10.2453 131.726 10.401 130.329 10.694 128.968L69.3286 162.81C69.0357 164.17 68.88 165.566 68.88 166.981V186.305L10.2453 152.452Z" fill="#B6C5CE"/>
<path d="M56.2804 168.173C56.2804 171.944 58.5737 176.325 61.401 177.958C64.2301 179.591 66.5234 177.858 66.5234 174.087C66.5234 170.316 64.2301 165.935 61.401 164.302C58.5737 162.668 56.2804 164.402 56.2804 168.173Z" fill="white"/>
<path d="M11.7007 141.845C11.7007 145.616 13.9922 149.997 16.8213 151.63C19.6486 153.264 21.9419 151.53 21.9419 147.757C21.9419 143.986 19.6486 139.606 16.8213 137.974C13.9922 136.341 11.7007 138.074 11.7007 141.845Z" fill="white"/>
<path d="M0.000320435 156.371L4.44051 153.844L78.0977 196.371V203.455C78.0977 205.471 76.9482 207.082 75.3798 207.888L75.3872 207.894L70.7375 210.515C69.3545 211.149 67.6804 211.171 66.1731 210.302L6.18507 175.668C2.35854 173.458 0.000320435 169.374 0.000320435 164.956V156.371Z" fill="#162F4D"/>
<path d="M73.6592 198.896L0.000167847 156.371V164.956C0.000167847 169.374 2.35838 173.458 6.18492 175.668L66.1748 210.302C69.5008 212.222 73.6592 209.822 73.6592 205.982V198.896Z" fill="#2B5D99"/>
<path d="M73.6594 198.896L78.0996 196.371L4.44059 153.844L0.000396729 156.371L73.6594 198.896Z" fill="#2C92BF"/>
<path d="M115.432 110.156L116.5 104.207C117.221 100.186 119.678 96.6871 123.215 94.6441L130.336 90.5283L152.368 106.965V111.126L132.286 122.731L115.432 110.156Z" fill="#83B2C6"/>
<path d="M100.615 135.054L74.5988 120.03L51.7582 76.6182L53.7141 67.063L73.9907 78.7688L101.399 130.865L100.615 135.054Z" fill="#83B2C6"/>
</svg>
