<svg width="106" height="223" viewBox="0 0 106 223" fill="none" xmlns="http://www.w3.org/2000/svg">
<path d="M74.8035 30.6546C74.8035 30.6546 81.2329 29.7852 87.4681 32.7949C93.7016 35.8046 95 38.4787 95 38.4787C95 38.4787 91.1133 43.2427 82.7271 41.6883C74.3392 40.1339 70 31.9151 70 31.9151C70 31.9151 71.8994 23.286 75.8672 20.379C79.5884 17.6527 84.5455 18.0161 84.5455 18.0161C84.5455 18.0161 85.3255 22.8305 82.5008 27.1111C80.3515 30.3642 74.8035 30.6546 74.8035 30.6546Z" fill="#BF0025"/>
<path d="M42.7649 207.719C43.9687 204.352 47.004 201.735 47.8042 201.079C49.1494 199.976 58.1019 195 58.1019 195L82 204.428V207.703C82 209.116 81.2584 210.426 80.046 211.144L63.8535 220.576C58.2796 223.808 51.4121 223.808 45.8381 220.576C43.9066 219.456 42.739 217.675 42.3165 215.755L42.3061 215.751C42.3061 215.753 41.3731 211.616 42.7649 207.719Z" fill="#41474F"/>
<path d="M6.74695 186.719C7.9206 183.352 10.88 180.735 11.6585 180.079C12.9717 178.976 21.7001 174 21.7001 174L45 183.428V186.703C45 188.118 44.2753 189.426 43.0949 190.144L27.3061 199.576C21.8716 202.808 15.1761 202.808 9.7433 199.576C7.85839 198.456 6.72005 196.675 6.30809 194.755L6.29969 194.751C6.298 194.753 5.38834 190.616 6.74695 186.719Z" fill="#41474F"/>
<path d="M0.586487 90C0.586487 90 -0.733109 97.4718 0.586487 103.27C1.90608 109.067 10.5345 111 10.5345 111L15 94.0901L0.586487 90Z" fill="#F8DB8F"/>
<path d="M29 42C29 42 16.6695 42.3416 9.40861 60.8878C2.1461 79.4322 1 89.5594 1 89.5594C1 89.5594 5.84112 94.4305 11.7008 95.9686C17.5622 97.5068 29 42 29 42Z" fill="#236418"/>
<path d="M29.8196 42C29.8196 42 19.1433 44.1727 14.9668 61.2087C10.7886 78.243 7.78472 107.266 9.4835 131.434C11.5726 161.157 15.1806 178.064 15.1806 178.064C15.1806 178.064 17.5531 184.884 25.8332 187.897C32.5909 190.356 45.6448 187.618 45.6448 183.56V168.717L47.6016 170.119L50.3441 199.42C50.3441 199.42 50.2779 204.015 55.1739 206.85C65.1137 212.607 80.4994 209.458 81.9352 205.457C84.289 198.9 90.8126 142.123 90.8126 127.653C90.8126 113.181 92.1499 78.2769 87.6798 70.9418C79.4557 57.4497 29.8196 42 29.8196 42Z" fill="#2E86AD"/>
<path d="M25 76.0512C25 76.0512 25 71.7663 26.2323 63.9732C27.4629 56.1817 30.1726 46.0519 30.1726 46.0519C30.9113 44.4514 31.7683 43.1143 32.7116 42C40.244 44.475 62.848 52.2463 77 60.8177C74.5236 62.4199 71.3642 65.0942 68.1051 69.526C60.948 79.2607 59.9135 93 59.9135 93L25 76.0512Z" fill="#2C7420"/>
<path d="M104.99 138.751C104.99 138.751 105.655 151.443 95.9414 151.98C83.4268 152.672 84.0041 135 84.0041 135L104.99 138.751Z" fill="#F8DB8F"/>
<path d="M24.6774 48.5239C23.7898 45.9531 24.6176 43.9654 24.6774 42.6944C24.7373 41.4233 23.9865 37.3465 24.1849 34.7132C24.3816 32.0798 25.9259 29.9028 25.9259 29.9028C25.9481 24.3166 26.256 20.184 26.256 20.184C26.5775 8.09392 35.5306 -3.99958 54.6733 1.26713C73.8143 6.53216 75.1944 30.5197 75.1944 30.5197L76.9936 43.0003L76.9902 42.9986C78.656 45.8314 78.03 51.9703 76.7747 53.3377C73.4192 56.9936 69.3899 56.3513 68.4134 56.1248C68.2252 56.926 67.8934 57.6917 67.3017 58.3103C65.6257 60.0664 62.0735 59.0912 60.8883 60.4028C59.7048 61.7127 60.0007 62.5037 57.7312 64.4542C55.4617 66.4047 52.8964 65.6239 50.2489 65.9163C47.5998 66.2087 49.0483 67.8668 46.6814 69.3305C44.3127 70.7925 41.0564 68.6477 40.268 70.2077C39.4778 71.7678 36.7158 72.7431 33.7554 71.281C30.795 69.8173 30.6975 64.8447 29.0197 63.2846C27.342 61.7245 27.5404 61.0417 26.9452 58.5824C26.35 56.1248 24.8758 56.3598 24.1524 53.532C23.429 50.7043 25.565 51.0947 24.6774 48.5239Z" fill="#F8DB8F"/>
<path d="M83.2059 123.2C83.2059 123.2 71.2524 116.484 72.037 100.483C72.8216 84.4817 83.0258 65.2738 87.6024 69.6259C100.841 82.2097 105.151 104.83 105.739 114.707C106.326 124.584 105.739 139.4 105.739 139.4C105.739 139.4 101.152 141.206 95.9421 140.98C90.7321 140.754 84.381 135.647 84.381 135.647L83.2059 123.2Z" fill="#2C7420"/>
<path d="M56 110.892L23 92V117.563C23 128.218 28.7321 138.063 38.0376 143.392C46.0198 147.962 56 142.249 56 133.106V110.892Z" fill="#3A4E6B"/>
<g clip-path="url(#clip0)">
<path d="M40.1488 124.949C40.1488 124.949 39.1669 115.224 50.1196 116.232C50.1196 116.232 49.8491 120.851 47.3408 123.035C44.8324 125.219 40.1488 124.949 40.1488 124.949Z" fill="#47B85B"/>
<path d="M50.1195 116.232C50.1195 116.232 49.8487 120.857 47.3407 123.035C44.8326 125.213 40.1487 124.949 40.1487 124.949C42.392 121.382 45.3011 119.08 47.3832 117.715C48.6057 116.914 50.1195 116.232 50.1195 116.232Z" fill="#399349"/>
<path d="M37.1656 119.858C37.1656 119.858 39.0142 110.394 28.0615 109.386C28.0615 109.386 27.9142 114.017 30.2053 116.642C32.4964 119.268 37.1656 119.858 37.1656 119.858Z" fill="#47B85B"/>
<path d="M37.1656 119.858C37.1656 119.858 32.4905 119.261 30.2053 116.642C27.9139 114.023 28.0615 109.386 28.0615 109.386C28.0615 109.386 30.1 110.766 30.9043 111.426C33.1498 113.282 36.0989 116.252 37.1656 119.858Z" fill="#399349"/>
<path d="M38.3888 135.181L37.7748 135.094C37.7851 135.002 38.6567 125.967 36.8716 119.936C35.832 116.413 32.9484 113.498 30.714 111.668L31.0875 111.196C33.3936 113.082 36.3711 116.104 37.4591 119.786C39.2823 125.932 38.3991 135.089 38.3888 135.181Z" fill="#2B6E37"/>
<path d="M30.1025 112.54L32.8502 112.856L32.8082 113.47L30.0606 113.154L30.1025 112.54Z" fill="#2B6E37"/>
<path d="M34.8939 113.279L35.0821 115.346L34.4685 115.374L34.2804 113.306L34.8939 113.279Z" fill="#2B6E37"/>
<path d="M33.2809 116.319L35.8339 116.566L35.803 117.181L33.2501 116.933L33.2809 116.319Z" fill="#2B6E37"/>
<path d="M38.5366 128.08L38.0148 127.729C38.6002 126.807 39.2259 125.815 39.8847 124.77C42.1742 121.139 45.1289 118.786 47.2096 117.452L47.5565 117.978C45.5267 119.28 42.6426 121.578 40.4126 125.121C39.7537 126.166 39.122 127.158 38.5366 128.08Z" fill="#2B6E37"/>
<path d="M48.2347 118.977L48.2587 119.595L45.2597 119.572L45.2357 118.954L48.2347 118.977Z" fill="#2B6E37"/>
<path d="M43.7097 118.918L43.9178 120.66L43.3065 120.706L43.0985 118.963L43.7097 118.918Z" fill="#2B6E37"/>
<path d="M45.3771 122.044L45.3998 122.661L42.0994 122.629L42.0767 122.012L45.3771 122.044Z" fill="#2B6E37"/>
<path d="M35.8834 119.925C34.3733 119.57 31.6011 118.703 29.9739 116.837C27.6299 114.151 27.7448 109.555 27.7534 109.364C27.757 109.284 27.7914 109.207 27.8496 109.15C27.9077 109.094 27.9952 109.071 28.0752 109.079C31.6318 109.406 34.2449 110.646 35.8487 112.758C38.222 115.891 37.5032 119.765 37.4711 119.929L36.8661 119.781L37.1657 119.851L36.8661 119.781C36.874 119.744 37.5617 116.009 35.3633 113.108C33.9226 111.216 31.5705 110.079 28.3674 109.723C28.3871 110.793 28.5918 114.332 30.4305 116.441C31.9343 118.166 34.5666 118.982 35.9973 119.318L35.8834 119.925Z" fill="white"/>
<path d="M40.135 125.256C39.9811 125.242 39.8569 125.12 39.8454 124.964C39.8283 124.796 39.4579 120.822 42.0995 118.15C43.8738 116.349 46.5769 115.597 50.1335 115.924C50.2135 115.932 50.2921 115.97 50.3508 116.037C50.4096 116.104 50.437 116.181 50.427 116.266C50.4181 116.463 50.1188 121.036 47.5465 123.27C44.9802 125.504 40.3383 125.269 40.1411 125.257L40.135 125.256ZM49.7858 116.51C46.5774 116.27 44.1483 116.973 42.5494 118.586C40.4907 120.663 40.415 123.707 40.4407 124.642C41.4842 124.658 45.0969 124.564 47.1355 122.794C49.1483 121.046 49.6697 117.574 49.7858 116.51Z" fill="white"/>
<path d="M38.3888 135.181L37.7748 135.094C37.7851 135.002 38.6567 125.967 36.8716 119.936C35.832 116.413 32.9484 113.498 30.714 111.668L31.0875 111.196C33.3936 113.082 36.3711 116.104 37.4591 119.786C39.2823 125.932 38.3991 135.089 38.3888 135.181Z" fill="white"/>
<path d="M30.1025 112.54L32.8502 112.856L32.8082 113.47L30.0606 113.154L30.1025 112.54Z" fill="white"/>
<path d="M34.8939 113.279L35.0821 115.346L34.4685 115.374L34.2804 113.306L34.8939 113.279Z" fill="white"/>
<path d="M33.2809 116.319L35.8339 116.566L35.803 117.181L33.2501 116.933L33.2809 116.319Z" fill="white"/>
<path d="M38.5366 128.08L38.0148 127.729C38.6002 126.807 39.2259 125.815 39.8847 124.77C42.1742 121.139 45.1289 118.786 47.2096 117.452L47.5565 117.978C45.5267 119.28 42.6426 121.578 40.4126 125.121C39.7537 126.166 39.122 127.158 38.5366 128.08Z" fill="white"/>
<path d="M48.2347 118.977L48.2587 119.595L45.2597 119.572L45.2357 118.954L48.2347 118.977Z" fill="white"/>
<path d="M43.7097 118.918L43.9178 120.66L43.3065 120.706L43.0985 118.963L43.7097 118.918Z" fill="white"/>
<path d="M45.3771 122.044L45.3998 122.661L42.0994 122.629L42.0767 122.012L45.3771 122.044Z" fill="white"/>
<path d="M40.1488 124.949C40.1488 124.949 39.1669 115.224 50.1196 116.232C50.1196 116.232 49.8491 120.851 47.3408 123.035C44.8324 125.219 40.1488 124.949 40.1488 124.949Z" fill="#47B85B"/>
<path d="M50.1195 116.232C50.1195 116.232 49.8487 120.857 47.3407 123.035C44.8326 125.213 40.1487 124.949 40.1487 124.949C42.392 121.382 45.3011 119.08 47.3832 117.715C48.6057 116.914 50.1195 116.232 50.1195 116.232Z" fill="#399349"/>
<path d="M37.1656 119.858C37.1656 119.858 39.0142 110.394 28.0615 109.386C28.0615 109.386 27.9142 114.017 30.2053 116.642C32.4964 119.268 37.1656 119.858 37.1656 119.858Z" fill="#47B85B"/>
<path d="M37.1656 119.858C37.1656 119.858 32.4905 119.261 30.2053 116.642C27.9139 114.023 28.0615 109.386 28.0615 109.386C28.0615 109.386 30.1 110.766 30.9043 111.426C33.1498 113.282 36.0989 116.252 37.1656 119.858Z" fill="#399349"/>
<path d="M38.3888 135.181L37.7748 135.094C37.7851 135.002 38.6567 125.967 36.8716 119.936C35.832 116.413 32.9484 113.498 30.714 111.668L31.0875 111.196C33.3936 113.082 36.3711 116.104 37.4591 119.786C39.2823 125.932 38.3991 135.089 38.3888 135.181Z" fill="#2B6E37"/>
<path d="M30.1025 112.54L32.8502 112.856L32.8082 113.47L30.0606 113.154L30.1025 112.54Z" fill="#2B6E37"/>
<path d="M34.8939 113.279L35.0821 115.346L34.4685 115.374L34.2804 113.306L34.8939 113.279Z" fill="#2B6E37"/>
<path d="M33.2809 116.319L35.8339 116.566L35.803 117.181L33.2501 116.933L33.2809 116.319Z" fill="#2B6E37"/>
<path d="M38.5366 128.08L38.0148 127.729C38.6002 126.807 39.2259 125.815 39.8847 124.77C42.1742 121.139 45.1289 118.786 47.2096 117.452L47.5565 117.978C45.5267 119.28 42.6426 121.578 40.4126 125.121C39.7537 126.166 39.122 127.158 38.5366 128.08Z" fill="#2B6E37"/>
<path d="M48.2347 118.977L48.2587 119.595L45.2597 119.572L45.2357 118.954L48.2347 118.977Z" fill="#2B6E37"/>
<path d="M43.7097 118.918L43.9178 120.66L43.3065 120.706L43.0985 118.963L43.7097 118.918Z" fill="#2B6E37"/>
<path d="M45.3771 122.044L45.3998 122.661L42.0994 122.629L42.0767 122.012L45.3771 122.044Z" fill="#2B6E37"/>
<path d="M35.8834 119.925C34.3733 119.57 31.6011 118.703 29.9739 116.837C27.6299 114.151 27.7448 109.555 27.7534 109.364C27.757 109.284 27.7914 109.207 27.8496 109.15C27.9077 109.094 27.9952 109.071 28.0752 109.079C31.6318 109.406 34.2449 110.646 35.8487 112.758C38.222 115.891 37.5032 119.765 37.4711 119.929L36.8661 119.781L37.1657 119.851L36.8661 119.781C36.874 119.744 37.5617 116.009 35.3633 113.108C33.9226 111.216 31.5705 110.079 28.3674 109.723C28.3871 110.793 28.5918 114.332 30.4305 116.441C31.9343 118.166 34.5666 118.982 35.9973 119.318L35.8834 119.925Z" fill="white"/>
<path d="M40.135 125.256C39.9811 125.242 39.8569 125.12 39.8454 124.964C39.8283 124.796 39.4579 120.822 42.0995 118.15C43.8738 116.349 46.5769 115.597 50.1335 115.924C50.2135 115.932 50.2921 115.97 50.3508 116.037C50.4096 116.104 50.437 116.181 50.427 116.266C50.4181 116.463 50.1188 121.036 47.5465 123.27C44.9802 125.504 40.3383 125.269 40.1411 125.257L40.135 125.256ZM49.7858 116.51C46.5774 116.27 44.1483 116.973 42.5494 118.586C40.4907 120.663 40.415 123.707 40.4407 124.642C41.4842 124.658 45.0969 124.564 47.1355 122.794C49.1483 121.046 49.6697 117.574 49.7858 116.51Z" fill="white"/>
<path d="M38.3888 135.181L37.7748 135.094C37.7851 135.002 38.6567 125.967 36.8716 119.936C35.832 116.413 32.9484 113.498 30.714 111.668L31.0875 111.196C33.3936 113.082 36.3711 116.104 37.4591 119.786C39.2823 125.932 38.3991 135.089 38.3888 135.181Z" fill="white"/>
<path d="M30.1025 112.54L32.8502 112.856L32.8082 113.47L30.0606 113.154L30.1025 112.54Z" fill="white"/>
<path d="M34.8939 113.279L35.0821 115.346L34.4685 115.374L34.2804 113.306L34.8939 113.279Z" fill="white"/>
<path d="M33.2809 116.319L35.8339 116.566L35.803 117.181L33.2501 116.933L33.2809 116.319Z" fill="white"/>
<path d="M38.5366 128.08L38.0148 127.729C38.6002 126.807 39.2259 125.815 39.8847 124.77C42.1742 121.139 45.1289 118.786 47.2096 117.452L47.5565 117.978C45.5267 119.28 42.6426 121.578 40.4126 125.121C39.7537 126.166 39.122 127.158 38.5366 128.08Z" fill="white"/>
<path d="M48.2347 118.977L48.2587 119.595L45.2597 119.572L45.2357 118.954L48.2347 118.977Z" fill="white"/>
<path d="M43.7097 118.918L43.9178 120.66L43.3065 120.706L43.0985 118.963L43.7097 118.918Z" fill="white"/>
<path d="M45.3771 122.044L45.3998 122.661L42.0994 122.629L42.0767 122.012L45.3771 122.044Z" fill="white"/>
</g>
<path d="M41.0279 27.0299C34.405 24.3261 29.5486 21.1027 26 17.99C27.3559 6.65701 36.3881 -3.68786 54.3786 1.27672C73.6132 6.58546 75 30.7644 75 30.7644C75 30.7644 61.2524 35.286 41.0279 27.0299Z" fill="#EA2642"/>
<path d="M24.4031 48.8008C23.5152 46.2153 24.3432 44.2163 24.4031 42.938C24.4629 41.6596 23.712 37.5595 23.9104 34.9111C24.1071 32.2627 25.6518 30.0732 25.6518 30.0732L58.2962 48.8008L66.9316 43.8474C66.6818 41.5525 66.2473 37.7584 65.8539 35.4432C65.6383 34.1768 65.2158 32.9613 64.7642 31.9244C71.1963 31.9227 74.9323 30.6937 74.9323 30.6937L76.7319 43.2456C76.7319 43.2456 72.7872 40.7961 69.8004 45.1104C68.4917 47.0041 68.5174 50.7982 68.4199 52.3672C68.3207 53.9379 68.7158 56.8787 67.0377 58.6449C65.3595 60.4093 61.8065 59.4285 60.6227 60.7476C59.4389 62.0667 59.7349 62.8623 57.4649 64.8222C55.1948 66.7839 52.6288 66.0003 49.979 66.2943C47.3309 66.5884 48.7799 68.2543 46.4106 69.7264C44.0431 71.1968 40.786 69.0396 39.9974 70.6086C39.2071 72.1776 36.4443 73.1585 33.4832 71.6881C30.5221 70.2177 30.4229 65.2149 28.7464 63.6459C27.0683 62.0769 27.265 61.3902 26.6714 58.9169C26.0761 56.4452 24.6015 56.6832 23.8762 53.8393C23.1526 50.9954 25.2909 51.3864 24.4031 48.8008Z" fill="#162F4D"/>
<path d="M30.4924 27.7042C30.4924 28.8091 31.1698 30.0942 32.0046 30.5719C32.8394 31.0513 33.5151 30.543 33.5151 29.4364C33.5151 28.3315 32.8394 27.0464 32.0046 26.5687C31.1698 26.0893 30.4924 26.5976 30.4924 27.7042Z" fill="#162F4D"/>
<path d="M44.0759 35.3336C44.0759 36.4385 44.7516 37.7236 45.5864 38.203C46.4212 38.6807 47.0986 38.1724 47.0986 37.0675C47.0986 35.9609 46.4212 34.6758 45.5864 34.1981C44.7516 33.7187 44.0759 34.227 44.0759 35.3336Z" fill="#162F4D"/>
<path d="M38.6114 42.5203L32.1091 39.1699C31.1717 38.6871 30 39.2906 30 40.2577V41.7849C30 43.3088 30.9122 44.7169 32.3904 45.4797L38.8909 48.8301C39.8283 49.3129 41 48.7094 41 47.7423V46.2151C41 44.6912 40.0896 43.2831 38.6114 42.5203Z" fill="#F8DB8F"/>
<path d="M72.0363 100.43C72.4531 91.8067 75.5936 82.2526 79.0959 76C77.4673 83.1133 79.0309 92.9157 79.9228 100.037C81.0763 109.263 83 123 83 123C83 123 71.2662 116.327 72.0363 100.43Z" fill="#236418"/>
<defs>
<clipPath id="clip0">
<rect width="26.2416" height="27.1651" fill="white" transform="matrix(0.995798 0.0915795 -0.0451208 0.998982 27.1221 106.895)"/>
</clipPath>
</defs>
</svg>
