<svg width="243" height="194" viewBox="0 0 243 194" fill="none" xmlns="http://www.w3.org/2000/svg">
<path d="M170.808 111.513C170.808 95.9451 180.272 77.8617 191.948 71.1208C197.436 67.9524 202.434 67.8541 206.19 70.255L223.793 80.1254L223.79 80.1272C228.081 82.808 230.781 88.7203 230.781 97.0296C230.781 112.597 221.315 130.682 209.64 137.423C204.512 140.382 199.812 140.662 196.153 138.729L177.864 128.458H177.871C173.538 125.799 170.808 119.87 170.808 111.513Z" fill="#2B5D99"/>
<path d="M77.5282 164.973C77.5282 149.405 86.9925 131.32 98.6687 124.579C104.154 121.413 109.153 121.314 112.911 123.715V123.713L130.512 133.586L130.508 133.587C134.8 136.268 137.5 142.179 137.5 150.49C137.5 166.057 128.035 184.143 116.359 190.884C111.233 193.842 106.533 194.122 102.873 192.187V192.189L84.5843 181.918H84.5917C80.2572 179.257 77.5282 173.33 77.5282 164.973Z" fill="#2B5D99"/>
<path d="M13.2742 95.4373L41.8824 76.4566L48.831 39.5539C50.0101 33.2913 53.8626 27.8555 59.3818 24.6686L91.4402 6.60191C92.8529 5.78617 94.4454 5.9178 95.6616 6.66494L129.591 26.2574L174.258 0.469065C175.381 -0.179815 176.64 -0.116781 177.639 0.420863L177.693 0.391199C177.693 0.391199 241.346 37.2068 241.504 37.3143C242.388 37.928 243 38.9402 243 40.1675V78.5887C243 83.6499 240.299 88.3274 235.916 90.858L79.79 180.556C78.0306 181.571 76.0617 181.469 74.4988 180.624L74.4951 180.63L74.395 180.572C74.3746 180.559 74.3524 180.548 74.332 180.535L11.0402 143.981L11.0458 143.974C9.35869 143.091 8.12582 141.346 8.12582 139.17V107.922C8.12398 103.242 9.97604 98.754 13.2742 95.4373Z" fill="#2F5937"/>
<path d="M237.783 37.1549L199.469 59.2752L161.156 81.3955V46.8603C161.156 45.2548 160.275 43.9552 159.05 43.2655L159.053 43.2673L129.592 26.2574L174.258 0.469065C175.383 -0.179815 176.64 -0.116781 177.639 0.420863L177.693 0.391199C177.693 0.391199 235.28 33.6973 241.037 37.0418C240.058 36.5672 238.858 36.532 237.783 37.1549Z" fill="#386B41"/>
<path d="M161.156 46.8602C161.156 45.2547 160.275 43.9551 159.05 43.2654C159.051 43.2654 159.051 43.2672 159.053 43.2672L137.177 30.6363L176.119 8.15356L226.075 36.9954L161.154 74.4784V46.8602H161.156Z" fill="#1F4025"/>
<path d="M105.406 113.141L112.354 76.2378C113.534 69.9752 117.386 64.5394 122.905 61.3543L154.964 43.2858C157.715 41.697 161.156 43.6844 161.156 46.8621V81.3954L237.783 37.1548C240.1 35.8163 243 37.4885 243 40.1675V78.5886C243 83.6498 240.299 88.3273 235.916 90.858L79.79 180.557C76.1711 182.645 71.6493 180.034 71.6493 175.856V144.607C71.6493 139.928 73.4996 135.44 76.7977 132.121L105.406 113.141Z" fill="#1F4025"/>
<path d="M95.2185 174.901C95.2185 190.468 104.683 197.624 116.359 190.883C128.033 184.143 137.5 166.057 137.5 150.49C137.5 134.922 128.035 127.768 116.359 134.509C104.683 141.25 95.2185 159.333 95.2185 174.901Z" fill="#162F4D"/>
<path d="M102.874 170.483C102.874 180.414 108.91 184.979 116.359 180.677C123.808 176.378 129.847 164.841 129.847 154.909C129.847 144.978 123.808 140.413 116.359 144.715C108.91 149.014 102.874 160.551 102.874 170.483Z" fill="#D6E5E5"/>
<path d="M108.35 167.32C108.35 173.217 111.936 175.928 116.359 173.373C120.783 170.82 124.368 163.97 124.368 158.072C124.368 152.175 120.783 149.465 116.359 152.018C111.936 154.572 108.35 161.423 108.35 167.32Z" fill="#1F4025"/>
<path d="M188.5 121.442C188.5 137.008 197.964 144.164 209.64 137.423C221.315 130.682 230.781 112.597 230.781 97.0295C230.781 81.4638 221.315 74.3076 209.64 81.0485C197.964 87.7895 188.5 105.875 188.5 121.442Z" fill="#162F4D"/>
<path d="M196.153 117.022C196.153 126.954 202.191 131.518 209.64 127.219C217.088 122.918 223.126 111.381 223.126 101.449C223.126 91.5176 217.088 86.9551 209.64 91.2544C202.191 95.5537 196.153 107.091 196.153 117.022Z" fill="#D6E5E5"/>
<path d="M201.631 113.86C201.631 119.757 205.217 122.468 209.64 119.915C214.062 117.36 217.647 110.51 217.647 104.612C217.647 98.7149 214.062 96.0044 209.64 98.5591C205.217 101.112 201.631 107.962 201.631 113.86Z" fill="#1F4025"/>
<path d="M105.406 113.14L41.8828 76.4563L13.2746 95.437L76.7999 132.121L105.406 113.14Z" fill="#386B41"/>
<path d="M107.514 73.4438L100.616 110.374L46.2265 78.9648L53.7146 42.3828L107.514 73.4438Z" fill="#2C92BF"/>
<path d="M115.798 67.9488L52.2704 31.2703C54.0965 28.597 56.5122 26.3259 59.3821 24.6685L91.4405 6.60178C92.8495 5.7879 94.4346 5.91767 95.649 6.6574L159.056 43.2672C157.856 42.5905 156.327 42.4997 154.964 43.2857L122.906 61.3543C120.038 63.0098 117.626 65.2772 115.798 67.9488Z" fill="#386B41"/>
<path d="M161.156 46.86C161.156 45.9998 160.897 45.2304 160.472 44.5908L176.119 35.5583L202.343 50.6976L161.156 74.4782V46.86Z" fill="#1E3622"/>
<path d="M152.37 86.4456L110.96 110.374L116.5 79.5266C117.221 75.5073 119.678 72.0089 123.215 69.964L152.368 53.1135V86.4456H152.37Z" fill="#2C92BF"/>
<path d="M176.119 35.5567V8.15356L226.075 36.9954L202.343 50.6978L176.119 35.5567Z" fill="#386B41"/>
<path d="M10.2453 127.772V108.459C10.2453 107.047 10.401 105.649 10.694 104.288L69.3286 138.13C69.0357 139.491 68.88 140.887 68.88 142.301V161.625L10.2453 127.772Z" fill="#B6C5CE"/>
<path d="M56.2804 143.493C56.2804 147.264 58.5737 151.645 61.401 153.278C64.2301 154.911 66.5234 153.178 66.5234 149.407C66.5234 145.636 64.2301 141.255 61.401 139.622C58.5737 137.989 56.2804 139.722 56.2804 143.493Z" fill="white"/>
<path d="M11.7007 117.165C11.7007 120.936 13.9922 125.317 16.8213 126.95C19.6486 128.584 21.9419 126.85 21.9419 123.077C21.9419 119.307 19.6486 114.926 16.8213 113.294C13.9922 111.661 11.7007 113.394 11.7007 117.165Z" fill="white"/>
<path d="M0.000320435 131.691L4.44051 129.164L78.0977 171.691V178.775C78.0977 180.791 76.9482 182.402 75.3798 183.208L75.3872 183.214L70.7375 185.835C69.3545 186.469 67.6804 186.491 66.1731 185.622L6.18507 150.988C2.35854 148.779 0.000320435 144.694 0.000320435 140.276V131.691Z" fill="#162F4D"/>
<path d="M73.6592 174.216L0.000167847 131.691V140.276C0.000167847 144.694 2.35838 148.778 6.18492 150.988L66.1748 185.622C69.5008 187.543 73.6592 185.142 73.6592 181.302V174.216Z" fill="#2B5D99"/>
<path d="M73.6594 174.216L78.0996 171.691L4.44059 129.164L0.000396729 131.691L73.6594 174.216Z" fill="#2C92BF"/>
<path d="M115.432 85.4758L116.5 79.5265C117.221 75.5053 119.678 72.0069 123.215 69.9639L130.336 65.8481L152.368 82.2852V86.4455L132.286 98.0511L115.432 85.4758Z" fill="#83B2C6"/>
<path d="M100.615 110.374L74.5988 95.3499L51.7582 51.938L53.7141 42.3828L73.9907 54.0886L101.399 106.184L100.615 110.374Z" fill="#83B2C6"/>
<g clip-path="url(#clip0)">
<path d="M105.539 40.2708C105.539 40.2708 110.637 29.9833 120.949 37.904C120.949 37.904 117.791 42.3252 113.92 42.9117C110.049 43.4983 105.539 40.2708 105.539 40.2708Z" fill="#47B85B"/>
<path d="M120.949 37.9041C120.949 37.9041 117.787 42.3312 113.92 42.9118C110.053 43.4924 105.538 40.2709 105.538 40.2709C110.01 38.142 114.355 37.6919 117.288 37.6504C119.01 37.6259 120.949 37.9041 120.949 37.9041Z" fill="#399349"/>
<path d="M105.741 33.3249C105.741 33.3249 113.505 25.0844 103.192 17.1637C103.192 17.1637 100.15 21.674 100.798 25.7313C101.446 29.7887 105.741 33.3249 105.741 33.3249Z" fill="#47B85B"/>
<path d="M105.741 33.3249C105.741 33.3249 101.444 29.7783 100.798 25.7313C100.146 21.6799 103.192 17.1637 103.192 17.1637C103.192 17.1637 104.367 19.8228 104.757 20.9876C105.84 24.2508 106.93 29.0664 105.741 33.3249Z" fill="#399349"/>
<path d="M97.3841 49.3308L96.8254 48.8562C96.893 48.7715 103.412 40.34 105.399 33.2167C106.563 29.0576 105.504 24.3384 104.416 21.1079L105.084 20.8746C106.209 24.206 107.294 29.0913 106.08 33.439C104.059 40.7004 97.4518 49.2462 97.3841 49.3308Z" fill="#2B6E37"/>
<path d="M103.26 21.5881L105.807 23.6383L105.382 24.2218L102.834 22.1717L103.26 21.5881Z" fill="#2B6E37"/>
<path d="M107.585 25.3496L106.48 27.5239L105.85 27.1637L106.955 24.9895L107.585 25.3496Z" fill="#2B6E37"/>
<path d="M104.073 27.3523L106.468 29.2113L106.053 29.8029L103.658 27.944L104.073 27.3523Z" fill="#2B6E37"/>
<path d="M101.971 42.365L101.669 41.687C102.83 41.1403 104.076 40.549 105.387 39.9265C109.944 37.7635 114.367 37.291 117.279 37.2793L117.297 38.0214C114.456 38.0331 110.138 38.4951 105.695 40.6091C104.383 41.2316 103.132 41.8184 101.971 42.365Z" fill="#2B6E37"/>
<path d="M117.35 39.4424L116.988 40.0718L114.007 38.1542L114.369 37.5248L117.35 39.4424Z" fill="#2B6E37"/>
<path d="M112.866 36.5253L111.985 38.3889L111.346 38.0475L112.227 36.1839L112.866 36.5253Z" fill="#2B6E37"/>
<path d="M112.578 40.6858L112.215 41.3144L108.938 39.1974L109.301 38.5689L112.578 40.6858Z" fill="#2B6E37"/>
<path d="M104.418 32.5819C103.132 31.2749 100.904 28.6623 100.445 25.7789C99.7825 21.628 102.771 17.1311 102.899 16.947C102.952 16.8698 103.035 16.8149 103.128 16.7955C103.222 16.7762 103.323 16.8088 103.399 16.8667C106.747 19.4386 108.582 22.323 108.864 25.4351C109.276 30.0492 106.137 33.4463 106.002 33.5889L105.49 33.0593L105.745 33.3189L105.49 33.0593C105.521 33.0281 108.543 29.7497 108.16 25.4771C107.904 22.6855 106.265 20.0696 103.288 17.6919C102.638 18.7682 100.63 22.4157 101.149 25.6732C101.573 28.3385 103.692 30.8131 104.912 32.0504L104.418 32.5819Z" fill="white"/>
<path d="M105.333 40.5676C105.188 40.4564 105.14 40.2561 105.226 40.0942C105.314 39.9161 107.429 35.7313 111.738 34.7439C114.636 34.0747 117.807 35.035 121.155 37.607C121.231 37.6648 121.285 37.7523 121.302 37.8563C121.319 37.9601 121.298 38.0536 121.235 38.1323C121.103 38.3224 117.945 42.6798 113.979 43.2752C110.018 43.8752 105.528 40.7085 105.338 40.5721L105.333 40.5676ZM120.442 37.9695C117.386 35.7045 114.52 34.8687 111.914 35.4621C108.559 36.2265 106.581 39.2047 106.022 40.1503C107.055 40.8251 110.722 43.0141 113.866 42.5422C116.969 42.0762 119.661 38.9538 120.442 37.9695Z" fill="white"/>
<path d="M97.3841 49.3308L96.8254 48.8562C96.893 48.7715 103.412 40.34 105.399 33.2167C106.563 29.0576 105.504 24.3384 104.416 21.1079L105.084 20.8746C106.209 24.206 107.294 29.0913 106.08 33.439C104.059 40.7004 97.4518 49.2462 97.3841 49.3308Z" fill="white"/>
<path d="M103.26 21.5881L105.807 23.6383L105.382 24.2218L102.834 22.1717L103.26 21.5881Z" fill="white"/>
<path d="M107.585 25.3496L106.48 27.5239L105.85 27.1637L106.955 24.9895L107.585 25.3496Z" fill="white"/>
<path d="M104.073 27.3523L106.468 29.2113L106.053 29.8029L103.658 27.944L104.073 27.3523Z" fill="white"/>
<path d="M101.971 42.365L101.669 41.687C102.83 41.1403 104.076 40.549 105.387 39.9265C109.944 37.7635 114.367 37.291 117.279 37.2793L117.297 38.0214C114.456 38.0331 110.138 38.4951 105.695 40.6091C104.383 41.2316 103.132 41.8184 101.971 42.365Z" fill="white"/>
<path d="M117.35 39.4424L116.988 40.0718L114.007 38.1542L114.369 37.5248L117.35 39.4424Z" fill="white"/>
<path d="M112.866 36.5253L111.985 38.3889L111.346 38.0475L112.227 36.1839L112.866 36.5253Z" fill="white"/>
<path d="M112.578 40.6858L112.215 41.3144L108.938 39.1974L109.301 38.5689L112.578 40.6858Z" fill="white"/>
<path d="M105.539 40.2708C105.539 40.2708 110.637 29.9833 120.949 37.904C120.949 37.904 117.791 42.3252 113.92 42.9117C110.049 43.4983 105.539 40.2708 105.539 40.2708Z" fill="#47B85B"/>
<path d="M120.949 37.9041C120.949 37.9041 117.787 42.3312 113.92 42.9118C110.053 43.4924 105.538 40.2709 105.538 40.2709C110.01 38.142 114.355 37.6919 117.288 37.6504C119.01 37.6259 120.949 37.9041 120.949 37.9041Z" fill="#399349"/>
<path d="M105.741 33.3249C105.741 33.3249 113.505 25.0844 103.192 17.1637C103.192 17.1637 100.15 21.674 100.798 25.7313C101.446 29.7887 105.741 33.3249 105.741 33.3249Z" fill="#47B85B"/>
<path d="M105.741 33.3249C105.741 33.3249 101.444 29.7783 100.798 25.7313C100.146 21.6799 103.192 17.1637 103.192 17.1637C103.192 17.1637 104.367 19.8228 104.757 20.9876C105.84 24.2508 106.93 29.0664 105.741 33.3249Z" fill="#399349"/>
<path d="M97.3841 49.3308L96.8254 48.8562C96.893 48.7715 103.412 40.34 105.399 33.2167C106.563 29.0576 105.504 24.3384 104.416 21.1079L105.084 20.8746C106.209 24.206 107.294 29.0913 106.08 33.439C104.059 40.7004 97.4518 49.2462 97.3841 49.3308Z" fill="#2B6E37"/>
<path d="M103.26 21.5881L105.807 23.6383L105.382 24.2218L102.834 22.1717L103.26 21.5881Z" fill="#2B6E37"/>
<path d="M107.585 25.3496L106.48 27.5239L105.85 27.1637L106.955 24.9895L107.585 25.3496Z" fill="#2B6E37"/>
<path d="M104.073 27.3523L106.468 29.2113L106.053 29.8029L103.658 27.944L104.073 27.3523Z" fill="#2B6E37"/>
<path d="M101.971 42.365L101.669 41.687C102.83 41.1403 104.076 40.549 105.387 39.9265C109.944 37.7635 114.367 37.291 117.279 37.2793L117.297 38.0214C114.456 38.0331 110.138 38.4951 105.695 40.6091C104.383 41.2316 103.132 41.8184 101.971 42.365Z" fill="#2B6E37"/>
<path d="M117.35 39.4424L116.988 40.0718L114.007 38.1542L114.369 37.5248L117.35 39.4424Z" fill="#2B6E37"/>
<path d="M112.866 36.5253L111.985 38.3889L111.346 38.0475L112.227 36.1839L112.866 36.5253Z" fill="#2B6E37"/>
<path d="M112.578 40.6858L112.215 41.3144L108.938 39.1974L109.301 38.5689L112.578 40.6858Z" fill="#2B6E37"/>
<path d="M104.418 32.5819C103.132 31.2749 100.904 28.6623 100.445 25.7789C99.7825 21.628 102.771 17.1311 102.899 16.947C102.952 16.8698 103.035 16.8149 103.128 16.7955C103.222 16.7762 103.323 16.8088 103.399 16.8667C106.747 19.4386 108.582 22.323 108.864 25.4351C109.276 30.0492 106.137 33.4463 106.002 33.5889L105.49 33.0593L105.745 33.3189L105.49 33.0593C105.521 33.0281 108.543 29.7497 108.16 25.4771C107.904 22.6855 106.265 20.0696 103.288 17.6919C102.638 18.7682 100.63 22.4157 101.149 25.6732C101.573 28.3385 103.692 30.8131 104.912 32.0504L104.418 32.5819Z" fill="white"/>
<path d="M105.333 40.5676C105.188 40.4564 105.14 40.2561 105.226 40.0942C105.314 39.9161 107.429 35.7313 111.738 34.7439C114.636 34.0747 117.807 35.035 121.155 37.607C121.231 37.6648 121.285 37.7523 121.302 37.8563C121.319 37.9601 121.298 38.0536 121.235 38.1323C121.103 38.3224 117.945 42.6798 113.979 43.2752C110.018 43.8752 105.528 40.7085 105.338 40.5721L105.333 40.5676ZM120.442 37.9695C117.386 35.7045 114.52 34.8687 111.914 35.4621C108.559 36.2265 106.581 39.2047 106.022 40.1503C107.055 40.8251 110.722 43.0141 113.866 42.5422C116.969 42.0762 119.661 38.9538 120.442 37.9695Z" fill="white"/>
<path d="M97.3841 49.3308L96.8254 48.8562C96.893 48.7715 103.412 40.34 105.399 33.2167C106.563 29.0576 105.504 24.3384 104.416 21.1079L105.084 20.8746C106.209 24.206 107.294 29.0913 106.08 33.439C104.059 40.7004 97.4518 49.2462 97.3841 49.3308Z" fill="white"/>
<path d="M103.26 21.5881L105.807 23.6383L105.382 24.2218L102.834 22.1717L103.26 21.5881Z" fill="white"/>
<path d="M107.585 25.3496L106.48 27.5239L105.85 27.1637L106.955 24.9895L107.585 25.3496Z" fill="white"/>
<path d="M104.073 27.3523L106.468 29.2113L106.053 29.8029L103.658 27.944L104.073 27.3523Z" fill="white"/>
<path d="M101.971 42.365L101.669 41.687C102.83 41.1403 104.076 40.549 105.387 39.9265C109.944 37.7635 114.367 37.291 117.279 37.2793L117.297 38.0214C114.456 38.0331 110.138 38.4951 105.695 40.6091C104.383 41.2316 103.132 41.8184 101.971 42.365Z" fill="white"/>
<path d="M117.35 39.4424L116.988 40.0718L114.007 38.1542L114.369 37.5248L117.35 39.4424Z" fill="white"/>
<path d="M112.866 36.5253L111.985 38.3889L111.346 38.0475L112.227 36.1839L112.866 36.5253Z" fill="white"/>
<path d="M112.578 40.6858L112.215 41.3144L108.938 39.1974L109.301 38.5689L112.578 40.6858Z" fill="white"/>
</g>
<g clip-path="url(#clip1)">
<path d="M56.8899 106.108C56.8899 106.108 60.9292 97.9571 69.0996 104.233C69.0996 104.233 66.5976 107.736 63.5304 108.2C60.4632 108.665 56.8899 106.108 56.8899 106.108Z" fill="#47B85B"/>
<path d="M69.0995 104.233C69.0995 104.233 66.5942 107.74 63.5303 108.2C60.4664 108.66 56.8898 106.108 56.8898 106.108C60.4322 104.421 63.8748 104.065 66.1988 104.032C67.5635 104.012 69.0995 104.233 69.0995 104.233Z" fill="#399349"/>
<path d="M57.0503 100.605C57.0503 100.605 63.2011 94.0757 55.0308 87.8002C55.0308 87.8002 52.6206 91.3736 53.1336 94.5883C53.6467 97.8029 57.0503 100.605 57.0503 100.605Z" fill="#47B85B"/>
<path d="M57.0503 100.605C57.0503 100.605 53.6454 97.7947 53.1336 94.5883C52.6173 91.3784 55.0308 87.8002 55.0308 87.8002C55.0308 87.8002 55.961 89.9069 56.2704 90.8299C57.1288 93.4153 57.992 97.2307 57.0503 100.605Z" fill="#399349"/>
<path d="M50.429 113.286L49.9863 112.91C50.0399 112.843 55.2049 106.163 56.7792 100.519C57.7014 97.2236 56.8626 93.4847 56.0002 90.9251L56.5297 90.7403C57.421 93.3797 58.2809 97.2504 57.3184 100.695C55.7174 106.448 50.4826 113.219 50.429 113.286Z" fill="#2B6E37"/>
<path d="M55.0843 91.3056L57.1025 92.9299L56.7653 93.3923L54.7471 91.768L55.0843 91.3056Z" fill="#2B6E37"/>
<path d="M58.511 94.2859L57.6358 96.0085L57.1366 95.7232L58.0117 94.0005L58.511 94.2859Z" fill="#2B6E37"/>
<path d="M55.7288 95.8726L57.6269 97.3455L57.2981 97.8142L55.3999 96.3414L55.7288 95.8726Z" fill="#2B6E37"/>
<path d="M54.0632 107.767L53.8238 107.23C54.7438 106.797 55.7305 106.328 56.7696 105.835C60.38 104.121 63.8842 103.747 66.1918 103.738L66.2059 104.326C63.9546 104.335 60.5337 104.701 57.0135 106.376C55.9744 106.869 54.9831 107.334 54.0632 107.767Z" fill="#2B6E37"/>
<path d="M66.2482 105.452L65.9611 105.95L63.5988 104.431L63.8859 103.932L66.2482 105.452Z" fill="#2B6E37"/>
<path d="M62.6952 103.14L61.9969 104.617L61.4908 104.346L62.1891 102.87L62.6952 103.14Z" fill="#2B6E37"/>
<path d="M62.4675 106.437L62.1795 106.935L59.5831 105.257L59.8711 104.759L62.4675 106.437Z" fill="#2B6E37"/>
<path d="M56.0024 100.016C54.983 98.9805 53.2179 96.9106 52.8544 94.626C52.3294 91.3373 54.697 87.7744 54.7983 87.6285C54.8407 87.5673 54.9061 87.5238 54.9801 87.5085C55.0541 87.4932 55.1347 87.519 55.1943 87.5648C57.8474 89.6026 59.3012 91.8879 59.5249 94.3536C59.8514 98.0094 57.3637 100.701 57.2572 100.814L56.8518 100.394L57.0538 100.6L56.8518 100.394C56.876 100.37 59.2702 97.7721 58.967 94.3869C58.7641 92.1751 57.4652 90.1026 55.1064 88.2187C54.5919 89.0714 53.001 91.9613 53.4122 94.5422C53.7479 96.654 55.427 98.6146 56.3933 99.5949L56.0024 100.016Z" fill="white"/>
<path d="M56.7263 106.343C56.6115 106.255 56.5739 106.096 56.6418 105.968C56.7116 105.827 58.3868 102.511 61.8012 101.729C64.0975 101.199 66.6095 101.96 69.2626 103.997C69.3222 104.043 69.3656 104.113 69.3788 104.195C69.3921 104.277 69.3758 104.351 69.3255 104.414C69.221 104.564 66.7189 108.017 63.5765 108.488C60.4386 108.964 56.881 106.455 56.7309 106.347L56.7263 106.343ZM68.6973 104.285C66.2764 102.49 64.0056 101.828 61.941 102.298C59.2827 102.904 57.7152 105.263 57.2725 106.012C58.0907 106.547 60.9966 108.281 63.487 107.908C65.946 107.538 68.0785 105.064 68.6973 104.285Z" fill="white"/>
<path d="M50.429 113.286L49.9863 112.91C50.0399 112.843 55.2049 106.163 56.7792 100.519C57.7014 97.2236 56.8626 93.4847 56.0002 90.9251L56.5297 90.7403C57.421 93.3797 58.2809 97.2504 57.3184 100.695C55.7174 106.448 50.4826 113.219 50.429 113.286Z" fill="white"/>
<path d="M55.0843 91.3056L57.1025 92.9299L56.7653 93.3923L54.7471 91.768L55.0843 91.3056Z" fill="white"/>
<path d="M58.511 94.2859L57.6358 96.0085L57.1366 95.7232L58.0117 94.0005L58.511 94.2859Z" fill="white"/>
<path d="M55.7288 95.8726L57.6269 97.3455L57.2981 97.8142L55.3999 96.3414L55.7288 95.8726Z" fill="white"/>
<path d="M54.0632 107.767L53.8238 107.23C54.7438 106.797 55.7305 106.328 56.7696 105.835C60.38 104.121 63.8842 103.747 66.1918 103.738L66.2059 104.326C63.9546 104.335 60.5337 104.701 57.0135 106.376C55.9744 106.869 54.9831 107.334 54.0632 107.767Z" fill="white"/>
<path d="M66.2482 105.452L65.9611 105.95L63.5988 104.431L63.8859 103.932L66.2482 105.452Z" fill="white"/>
<path d="M62.6952 103.14L61.9969 104.617L61.4908 104.346L62.1891 102.87L62.6952 103.14Z" fill="white"/>
<path d="M62.4675 106.437L62.1795 106.935L59.5831 105.257L59.8711 104.759L62.4675 106.437Z" fill="white"/>
<path d="M56.8899 106.108C56.8899 106.108 60.9292 97.9571 69.0996 104.233C69.0996 104.233 66.5976 107.736 63.5304 108.2C60.4632 108.665 56.8899 106.108 56.8899 106.108Z" fill="#47B85B"/>
<path d="M69.0995 104.233C69.0995 104.233 66.5942 107.74 63.5303 108.2C60.4664 108.66 56.8898 106.108 56.8898 106.108C60.4322 104.421 63.8748 104.065 66.1988 104.032C67.5635 104.012 69.0995 104.233 69.0995 104.233Z" fill="#399349"/>
<path d="M57.0503 100.605C57.0503 100.605 63.2011 94.0757 55.0308 87.8002C55.0308 87.8002 52.6206 91.3736 53.1336 94.5883C53.6467 97.8029 57.0503 100.605 57.0503 100.605Z" fill="#47B85B"/>
<path d="M57.0503 100.605C57.0503 100.605 53.6454 97.7947 53.1336 94.5883C52.6173 91.3784 55.0308 87.8002 55.0308 87.8002C55.0308 87.8002 55.961 89.9069 56.2704 90.8299C57.1288 93.4153 57.992 97.2307 57.0503 100.605Z" fill="#399349"/>
<path d="M50.429 113.286L49.9863 112.91C50.0399 112.843 55.2049 106.163 56.7792 100.519C57.7014 97.2236 56.8626 93.4847 56.0002 90.9251L56.5297 90.7403C57.421 93.3797 58.2809 97.2504 57.3184 100.695C55.7174 106.448 50.4826 113.219 50.429 113.286Z" fill="#2B6E37"/>
<path d="M55.0843 91.3056L57.1025 92.9299L56.7653 93.3923L54.7471 91.768L55.0843 91.3056Z" fill="#2B6E37"/>
<path d="M58.511 94.2859L57.6358 96.0085L57.1366 95.7232L58.0117 94.0005L58.511 94.2859Z" fill="#2B6E37"/>
<path d="M55.7288 95.8726L57.6269 97.3455L57.2981 97.8142L55.3999 96.3414L55.7288 95.8726Z" fill="#2B6E37"/>
<path d="M54.0632 107.767L53.8238 107.23C54.7438 106.797 55.7305 106.328 56.7696 105.835C60.38 104.121 63.8842 103.747 66.1918 103.738L66.2059 104.326C63.9546 104.335 60.5337 104.701 57.0135 106.376C55.9744 106.869 54.9831 107.334 54.0632 107.767Z" fill="#2B6E37"/>
<path d="M66.2482 105.452L65.9611 105.95L63.5988 104.431L63.8859 103.932L66.2482 105.452Z" fill="#2B6E37"/>
<path d="M62.6952 103.14L61.9969 104.617L61.4908 104.346L62.1891 102.87L62.6952 103.14Z" fill="#2B6E37"/>
<path d="M62.4675 106.437L62.1795 106.935L59.5831 105.257L59.8711 104.759L62.4675 106.437Z" fill="#2B6E37"/>
<path d="M56.0024 100.016C54.983 98.9805 53.2179 96.9106 52.8544 94.626C52.3294 91.3373 54.697 87.7744 54.7983 87.6285C54.8407 87.5673 54.9061 87.5238 54.9801 87.5085C55.0541 87.4932 55.1347 87.519 55.1943 87.5648C57.8474 89.6026 59.3012 91.8879 59.5249 94.3536C59.8514 98.0094 57.3637 100.701 57.2572 100.814L56.8518 100.394L57.0538 100.6L56.8518 100.394C56.876 100.37 59.2702 97.7721 58.967 94.3869C58.7641 92.1751 57.4652 90.1026 55.1064 88.2187C54.5919 89.0714 53.001 91.9613 53.4122 94.5422C53.7479 96.654 55.427 98.6146 56.3933 99.5949L56.0024 100.016Z" fill="white"/>
<path d="M56.7263 106.343C56.6115 106.255 56.5739 106.096 56.6418 105.968C56.7116 105.827 58.3868 102.511 61.8012 101.729C64.0975 101.199 66.6095 101.96 69.2626 103.997C69.3222 104.043 69.3656 104.113 69.3788 104.195C69.3921 104.277 69.3758 104.351 69.3255 104.414C69.221 104.564 66.7189 108.017 63.5765 108.488C60.4386 108.964 56.881 106.455 56.7309 106.347L56.7263 106.343ZM68.6973 104.285C66.2764 102.49 64.0056 101.828 61.941 102.298C59.2827 102.904 57.7152 105.263 57.2725 106.012C58.0907 106.547 60.9966 108.281 63.487 107.908C65.946 107.538 68.0785 105.064 68.6973 104.285Z" fill="white"/>
<path d="M50.429 113.286L49.9863 112.91C50.0399 112.843 55.2049 106.163 56.7792 100.519C57.7014 97.2236 56.8626 93.4847 56.0002 90.9251L56.5297 90.7403C57.421 93.3797 58.2809 97.2504 57.3184 100.695C55.7174 106.448 50.4826 113.219 50.429 113.286Z" fill="white"/>
<path d="M55.0843 91.3056L57.1025 92.9299L56.7653 93.3923L54.7471 91.768L55.0843 91.3056Z" fill="white"/>
<path d="M58.511 94.2859L57.6358 96.0085L57.1366 95.7232L58.0117 94.0005L58.511 94.2859Z" fill="white"/>
<path d="M55.7288 95.8726L57.6269 97.3455L57.2981 97.8142L55.3999 96.3414L55.7288 95.8726Z" fill="white"/>
<path d="M54.0632 107.767L53.8238 107.23C54.7438 106.797 55.7305 106.328 56.7696 105.835C60.38 104.121 63.8842 103.747 66.1918 103.738L66.2059 104.326C63.9546 104.335 60.5337 104.701 57.0135 106.376C55.9744 106.869 54.9831 107.334 54.0632 107.767Z" fill="white"/>
<path d="M66.2482 105.452L65.9611 105.95L63.5988 104.431L63.8859 103.932L66.2482 105.452Z" fill="white"/>
<path d="M62.6952 103.14L61.9969 104.617L61.4908 104.346L62.1891 102.87L62.6952 103.14Z" fill="white"/>
<path d="M62.4675 106.437L62.1795 106.935L59.5831 105.257L59.8711 104.759L62.4675 106.437Z" fill="white"/>
</g>
<g clip-path="url(#clip2)">
<path d="M160.588 113.711C160.588 113.711 156.368 103.703 168.37 101.212C168.37 101.212 169.589 106.205 167.628 109.34C165.668 112.475 160.588 113.711 160.588 113.711Z" fill="#47B85B"/>
<path d="M168.37 101.211C168.37 101.211 169.591 106.211 167.629 109.34C165.666 112.468 160.588 113.711 160.588 113.711C161.815 109.193 164.164 105.803 165.938 103.677C166.979 102.428 168.37 101.211 168.37 101.211Z" fill="#399349"/>
<path d="M155.747 109.274C155.747 109.274 154.628 98.6222 142.626 101.114C142.626 101.114 143.98 106.079 147.279 108.122C150.578 110.165 155.747 109.274 155.747 109.274Z" fill="#47B85B"/>
<path d="M155.747 109.274C155.747 109.274 150.569 110.16 147.279 108.122C143.982 106.086 142.626 101.114 142.626 101.114C142.626 101.114 145.249 101.916 146.322 102.356C149.321 103.596 153.433 105.791 155.747 109.274Z" fill="#399349"/>
<path d="M162.051 125.149L161.368 125.256C161.349 125.155 159.33 115.276 155.459 109.452C153.201 106.049 149.177 103.891 146.198 102.675L146.442 102.052C149.515 103.305 153.675 105.546 156.036 109.102C159.985 115.036 162.032 125.048 162.051 125.149Z" fill="#2B6E37"/>
<path d="M145.83 103.799L148.862 103.242L149.018 103.907L145.986 104.465L145.83 103.799Z" fill="#2B6E37"/>
<path d="M151.178 103.026L152.054 105.16L151.409 105.389L150.534 103.255L151.178 103.026Z" fill="#2B6E37"/>
<path d="M150.451 106.779L153.253 106.211L153.421 106.874L150.619 107.441L150.451 106.779Z" fill="#2B6E37"/>
<path d="M159.891 117.56L159.221 117.357C159.544 116.188 159.887 114.931 160.248 113.607C161.503 109.007 163.885 105.547 165.667 103.454L166.208 103.9C164.47 105.942 162.146 109.32 160.925 113.808C160.564 115.132 160.214 116.39 159.891 117.56Z" fill="#2B6E37"/>
<path d="M167.257 104.739L167.485 105.388L164.281 106.338L164.053 105.69L167.257 104.739Z" fill="#2B6E37"/>
<path d="M162.415 106.148L163.206 107.931L162.569 108.178L161.779 106.395L162.415 106.148Z" fill="#2B6E37"/>
<path d="M165.212 108.925L165.438 109.574L161.91 110.613L161.684 109.964L165.212 108.925Z" fill="#2B6E37"/>
<path d="M154.402 109.762C152.677 109.876 149.439 109.858 147.096 108.405C143.721 106.314 142.343 101.396 142.29 101.19C142.268 101.104 142.28 101.011 142.323 100.933C142.367 100.854 142.453 100.801 142.54 100.783C146.438 99.9737 149.628 100.442 152.026 102.162C155.578 104.718 156.076 109.066 156.096 109.25L155.402 109.289L155.745 109.267L155.402 109.289C155.399 109.248 154.913 105.058 151.623 102.693C149.47 101.151 146.592 100.709 143.062 101.372C143.432 102.502 144.805 106.194 147.453 107.835C149.619 109.178 152.691 109.189 154.325 109.08L154.402 109.762Z" fill="white"/>
<path d="M160.673 114.042C160.505 114.077 160.332 113.987 160.269 113.826C160.196 113.652 158.504 109.553 160.448 105.856C161.751 103.367 164.387 101.689 168.285 100.88C168.372 100.862 168.468 100.877 168.553 100.929C168.638 100.982 168.692 101.054 168.709 101.148C168.764 101.36 169.937 106.314 167.925 109.523C165.919 112.73 160.894 113.989 160.68 114.04L160.673 114.042ZM168.105 101.615C164.607 102.404 162.248 103.941 161.07 106.173C159.554 109.049 160.466 112.306 160.799 113.29C161.916 112.968 165.736 111.693 167.331 109.15C168.906 106.64 168.329 102.783 168.105 101.615Z" fill="white"/>
<path d="M162.051 125.149L161.368 125.256C161.349 125.155 159.33 115.276 155.459 109.452C153.201 106.049 149.177 103.891 146.198 102.675L146.442 102.052C149.515 103.305 153.675 105.546 156.036 109.102C159.985 115.036 162.032 125.048 162.051 125.149Z" fill="white"/>
<path d="M145.83 103.799L148.862 103.242L149.018 103.907L145.986 104.465L145.83 103.799Z" fill="white"/>
<path d="M151.178 103.026L152.054 105.16L151.409 105.389L150.534 103.255L151.178 103.026Z" fill="white"/>
<path d="M150.451 106.779L153.253 106.211L153.421 106.874L150.619 107.441L150.451 106.779Z" fill="white"/>
<path d="M159.891 117.56L159.221 117.357C159.544 116.188 159.887 114.931 160.248 113.607C161.503 109.007 163.885 105.547 165.667 103.454L166.208 103.9C164.47 105.942 162.146 109.32 160.925 113.808C160.564 115.132 160.214 116.39 159.891 117.56Z" fill="white"/>
<path d="M167.257 104.739L167.485 105.388L164.281 106.338L164.053 105.69L167.257 104.739Z" fill="white"/>
<path d="M162.415 106.148L163.206 107.931L162.569 108.178L161.779 106.395L162.415 106.148Z" fill="white"/>
<path d="M165.212 108.925L165.438 109.574L161.91 110.613L161.684 109.964L165.212 108.925Z" fill="white"/>
<path d="M160.588 113.711C160.588 113.711 156.368 103.703 168.37 101.212C168.37 101.212 169.589 106.205 167.628 109.34C165.668 112.475 160.588 113.711 160.588 113.711Z" fill="#47B85B"/>
<path d="M168.37 101.211C168.37 101.211 169.591 106.211 167.629 109.34C165.666 112.468 160.588 113.711 160.588 113.711C161.815 109.193 164.164 105.803 165.938 103.677C166.979 102.428 168.37 101.211 168.37 101.211Z" fill="#399349"/>
<path d="M155.747 109.274C155.747 109.274 154.628 98.6222 142.626 101.114C142.626 101.114 143.98 106.079 147.279 108.122C150.578 110.165 155.747 109.274 155.747 109.274Z" fill="#47B85B"/>
<path d="M155.747 109.274C155.747 109.274 150.569 110.16 147.279 108.122C143.982 106.086 142.626 101.114 142.626 101.114C142.626 101.114 145.249 101.916 146.322 102.356C149.321 103.596 153.433 105.791 155.747 109.274Z" fill="#399349"/>
<path d="M162.051 125.149L161.368 125.256C161.349 125.155 159.33 115.276 155.459 109.452C153.201 106.049 149.177 103.891 146.198 102.675L146.442 102.052C149.515 103.305 153.675 105.546 156.036 109.102C159.985 115.036 162.032 125.048 162.051 125.149Z" fill="#2B6E37"/>
<path d="M145.83 103.799L148.862 103.242L149.018 103.907L145.986 104.465L145.83 103.799Z" fill="#2B6E37"/>
<path d="M151.178 103.026L152.054 105.16L151.409 105.389L150.534 103.255L151.178 103.026Z" fill="#2B6E37"/>
<path d="M150.451 106.779L153.253 106.211L153.421 106.874L150.619 107.441L150.451 106.779Z" fill="#2B6E37"/>
<path d="M159.891 117.56L159.221 117.357C159.544 116.188 159.887 114.931 160.248 113.607C161.503 109.007 163.885 105.547 165.667 103.454L166.208 103.9C164.47 105.942 162.146 109.32 160.925 113.808C160.564 115.132 160.214 116.39 159.891 117.56Z" fill="#2B6E37"/>
<path d="M167.257 104.739L167.485 105.388L164.281 106.338L164.053 105.69L167.257 104.739Z" fill="#2B6E37"/>
<path d="M162.415 106.148L163.206 107.931L162.569 108.178L161.779 106.395L162.415 106.148Z" fill="#2B6E37"/>
<path d="M165.212 108.925L165.438 109.574L161.91 110.613L161.684 109.964L165.212 108.925Z" fill="#2B6E37"/>
<path d="M154.402 109.762C152.677 109.876 149.439 109.858 147.096 108.405C143.721 106.314 142.343 101.396 142.29 101.19C142.268 101.104 142.28 101.011 142.323 100.933C142.367 100.854 142.453 100.801 142.54 100.783C146.438 99.9737 149.628 100.442 152.026 102.162C155.578 104.718 156.076 109.066 156.096 109.25L155.402 109.289L155.745 109.267L155.402 109.289C155.399 109.248 154.913 105.058 151.623 102.693C149.47 101.151 146.592 100.709 143.062 101.372C143.432 102.502 144.805 106.194 147.453 107.835C149.619 109.178 152.691 109.189 154.325 109.08L154.402 109.762Z" fill="white"/>
<path d="M160.673 114.042C160.505 114.077 160.332 113.987 160.269 113.826C160.196 113.652 158.504 109.553 160.448 105.856C161.751 103.367 164.387 101.689 168.285 100.88C168.372 100.862 168.468 100.877 168.553 100.929C168.638 100.982 168.692 101.054 168.709 101.148C168.764 101.36 169.937 106.314 167.925 109.523C165.919 112.73 160.894 113.989 160.68 114.04L160.673 114.042ZM168.105 101.615C164.607 102.404 162.248 103.941 161.07 106.173C159.554 109.049 160.466 112.306 160.799 113.29C161.916 112.968 165.736 111.693 167.331 109.15C168.906 106.64 168.329 102.783 168.105 101.615Z" fill="white"/>
<path d="M162.051 125.149L161.368 125.256C161.349 125.155 159.33 115.276 155.459 109.452C153.201 106.049 149.177 103.891 146.198 102.675L146.442 102.052C149.515 103.305 153.675 105.546 156.036 109.102C159.985 115.036 162.032 125.048 162.051 125.149Z" fill="white"/>
<path d="M145.83 103.799L148.862 103.242L149.018 103.907L145.986 104.465L145.83 103.799Z" fill="white"/>
<path d="M151.178 103.026L152.054 105.16L151.409 105.389L150.534 103.255L151.178 103.026Z" fill="white"/>
<path d="M150.451 106.779L153.253 106.211L153.421 106.874L150.619 107.441L150.451 106.779Z" fill="white"/>
<path d="M159.891 117.56L159.221 117.357C159.544 116.188 159.887 114.931 160.248 113.607C161.503 109.007 163.885 105.547 165.667 103.454L166.208 103.9C164.47 105.942 162.146 109.32 160.925 113.808C160.564 115.132 160.214 116.39 159.891 117.56Z" fill="white"/>
<path d="M167.257 104.739L167.485 105.388L164.281 106.338L164.053 105.69L167.257 104.739Z" fill="white"/>
<path d="M162.415 106.148L163.206 107.931L162.569 108.178L161.779 106.395L162.415 106.148Z" fill="white"/>
<path d="M165.212 108.925L165.438 109.574L161.91 110.613L161.684 109.964L165.212 108.925Z" fill="white"/>
</g>
<defs>
<clipPath id="clip0">
<rect width="31.0231" height="31.8977" fill="white" transform="matrix(0.79306 0.609143 -0.570239 0.821479 103.812 14.0933)"/>
</clipPath>
<clipPath id="clip1">
<rect width="24.5796" height="25.2726" fill="white" transform="matrix(0.79306 0.609143 -0.570239 0.821479 55.5215 85.3674)"/>
</clipPath>
<clipPath id="clip2">
<rect width="29.2465" height="30.1769" fill="white" transform="matrix(0.979124 -0.203261 0.250184 0.968198 140.812 98.7734)"/>
</clipPath>
</defs>
</svg>
