<svg width="332" height="351" viewBox="0 0 332 351" fill="none" xmlns="http://www.w3.org/2000/svg">
<g clip-path="url(#clip0)">
<path d="M330.623 126.668L295.08 90.2911C294.386 89.5787 293.649 89.2949 292.649 89.327L286.757 89.3806L139.88 1.37061L89.7531 2.91577L39.6232 62.5665L5.11914 139.415C7.13285 145.713 7.93073 149.789 7.93073 149.789V258.422L160.831 350.042L324.473 250.158V130.749L326.003 132.187C327.426 133.647 329.597 133.521 330.975 132.016C332.353 130.511 332.046 128.125 330.623 126.668Z" fill="#1F4025"/>
<path d="M292.78 92.9878L242.653 94.533L192.523 154.186L160.831 225.068V350.042L242.653 300.098L324.473 250.155V125.182L292.78 92.9878Z" fill="#386B41"/>
<path d="M280.716 159.483L204.59 205.951V323.332L280.716 276.865V159.483Z" fill="#1F4025"/>
<path d="M192.523 154.186L39.6258 62.5664L3.58936 142.826L156.489 234.446L192.523 154.186Z" fill="#4D2419"/>
<path d="M39.6255 62.5665L89.7529 2.91309L242.653 94.5329L192.523 154.186L39.6255 62.5665Z" fill="#784032"/>
<path d="M89.7529 2.91309L139.88 1.37061L292.78 92.9877L242.653 94.5329L89.7529 2.91309Z" fill="#4D2419"/>
<path d="M98.5728 268.7V220.883L128.875 239.377V287.204L98.5728 268.7Z" fill="#2C92BF"/>
<path d="M128.874 259.003V245.233L114.948 256.336V270.105L128.874 259.003Z" fill="#83B2C6"/>
<path d="M94.3936 212.434V272.053L133.057 295.653V236.035L94.3936 212.434ZM98.5729 220.883L110.767 228.322V276.145L98.5729 268.697V220.883ZM128.875 287.204L114.949 278.699V230.877L128.875 239.377V287.204Z" fill="#E6E6E6"/>
<path d="M110.766 248.787V235.006L98.5728 244.751V258.529L110.766 248.787Z" fill="#83B2C6"/>
<path d="M34.9497 229.503V181.686L65.2516 200.182V248.01L34.9497 229.503Z" fill="#2C92BF"/>
<path d="M65.2514 219.809V206.039L51.3252 217.139V230.909L65.2514 219.809Z" fill="#83B2C6"/>
<path d="M30.7681 173.237V232.859L69.4338 256.459V196.838L30.7681 173.237ZM34.95 181.686L47.1437 189.128V236.95L34.95 229.503V181.686ZM65.2518 248.008L51.3256 239.503V191.68L65.2518 200.18V248.008Z" fill="#E6E6E6"/>
<path d="M47.1434 209.59V195.81L34.9497 205.555V219.335L47.1434 209.59Z" fill="#83B2C6"/>
<path d="M156.489 238.238C155.873 238.238 155.266 238.072 154.718 237.746L1.81849 146.126C0.0960735 145.092 -0.509305 142.779 0.465886 140.958C1.44361 139.134 3.62956 138.494 5.35704 139.528L154.901 229.136L189.283 152.558C189.428 152.234 189.615 151.934 189.84 151.667L239.968 92.0131C240.626 91.2339 241.559 90.7733 242.546 90.7411L292.674 89.1986C293.677 89.1665 294.581 89.5521 295.275 90.2644L330.909 126.781C332.332 128.237 332.368 130.639 330.987 132.144C329.609 133.649 327.337 133.687 325.916 132.228L291.369 96.828L244.304 98.2768L195.542 156.299L159.729 236.072C159.301 237.025 158.518 237.746 157.568 238.062C157.216 238.182 156.851 238.238 156.489 238.238Z" fill="#E6E6E6"/>
<path d="M204.59 205.951V323.332L280.716 276.868V159.483L204.59 205.951ZM272.481 270.266L248.002 246.296L272.481 187.952V270.266ZM226.054 298.604L243.977 255.886L264.13 275.301L226.054 298.604ZM265.807 180.192L241.325 238.536L216.847 210.075L265.807 180.192ZM212.825 219.664L237.303 248.125L212.825 306.469V219.664Z" fill="#E6E6E6"/>
<g clip-path="url(#clip1)">
<path d="M138.929 88.2535C138.929 88.2535 148.34 62.7198 174.646 78.7767C174.646 78.7767 168.323 89.9948 159.348 92.3565C150.374 94.7182 138.929 88.2535 138.929 88.2535Z" fill="#47B85B"/>
<path d="M174.646 78.7771C174.646 78.7771 168.315 90.0102 159.348 92.3569C150.382 94.7036 138.928 88.2539 138.928 88.2539C148.926 82.1057 159.052 79.9455 165.954 79.1057C170.007 78.612 174.646 78.7771 174.646 78.7771Z" fill="#399349"/>
<path d="M137.649 71.8336C137.649 71.8336 153.859 50.4495 127.553 34.3926C127.553 34.3926 121.525 45.7912 124.078 55.1891C126.631 64.5869 137.649 71.8336 137.649 71.8336Z" fill="#47B85B"/>
<path d="M137.649 71.8337C137.649 71.8337 126.624 64.5629 124.078 55.1891C121.517 45.8063 127.553 34.3926 127.553 34.3926C127.553 34.3926 130.993 40.3619 132.208 43.0083C135.587 50.4242 139.373 61.497 137.649 71.8337Z" fill="#399349"/>
<path d="M122.004 111.668L120.567 110.691C120.705 110.474 133.935 88.955 136.815 71.6652C138.506 61.5692 134.817 50.7158 131.435 43.3781L132.95 42.6592C136.444 50.2254 140.238 61.4637 138.475 72.0169C135.551 89.6405 122.142 111.451 122.004 111.668Z" fill="#2B6E37"/>
<path d="M128.832 44.802L135.353 48.9889L134.498 50.4718L127.977 46.285L128.832 44.802Z" fill="#2B6E37"/>
<path d="M139.976 52.5721L137.923 57.9755L136.347 57.2861L138.4 51.8827L139.976 52.5721Z" fill="#2B6E37"/>
<path d="M132.206 58.1808L138.322 61.9556L137.493 63.4548L131.377 59.6801L132.206 58.1808Z" fill="#2B6E37"/>
<path d="M131.05 94.0916L130.167 92.57C132.765 90.9878 135.55 89.2794 138.483 87.4806C148.675 81.2302 158.978 78.9977 165.839 78.2331L166.069 79.9774C159.375 80.724 149.317 82.9053 139.382 89.0114C136.448 90.81 133.648 92.5095 131.05 94.0916Z" fill="#2B6E37"/>
<path d="M166.555 83.313L165.86 84.888L158.349 81.1232L159.044 79.5482L166.555 83.313Z" fill="#2B6E37"/>
<path d="M155.25 77.573L153.644 82.1878L152.052 81.5449L153.658 76.9302L155.25 77.573Z" fill="#2B6E37"/>
<path d="M155.624 87.4505L154.926 89.0237L146.667 84.8641L147.365 83.2908L155.624 87.4505Z" fill="#2B6E37"/>
<path d="M134.343 70.4173C130.98 67.6629 125.069 62.0697 123.258 55.3905C120.647 45.7761 126.551 34.4226 126.806 33.9564C126.913 33.7609 127.093 33.6105 127.308 33.5413C127.523 33.4721 127.771 33.5232 127.964 33.6405C136.506 38.8545 141.56 45.1876 143.012 52.4503C145.151 63.2196 138.611 72.0198 138.33 72.3897L136.99 71.2712L137.657 71.8184L136.99 71.2712C137.054 71.19 143.346 62.6995 141.364 52.7272C140.054 46.2132 135.528 40.4635 127.911 35.6134C126.653 38.3141 122.844 47.4179 124.891 54.9632C126.564 61.1373 132.184 66.4328 135.371 69.0399L134.343 70.4173Z" fill="white"/>
<path d="M138.518 89.0054C138.148 88.7799 137.986 88.3199 138.147 87.9168C138.309 87.4747 142.233 77.0778 152.139 73.6604C158.8 71.3501 166.515 72.8109 175.057 78.0249C175.249 78.1421 175.4 78.3345 175.465 78.5752C175.531 78.8158 175.506 79.0413 175.377 79.2429C175.114 79.7241 168.774 90.7918 159.578 93.1987C150.396 95.6145 139.014 89.288 138.532 89.0144L138.518 89.0054ZM173.467 79.0597C165.693 74.4951 158.727 73.2507 152.737 75.3084C145.023 77.9586 141.114 85.4776 140.037 87.8475C142.641 89.1765 151.838 93.407 159.127 91.4996C166.323 89.6163 171.875 81.5769 173.467 79.0597Z" fill="white"/>
<path d="M122.004 111.668L120.567 110.691C120.705 110.474 133.935 88.955 136.815 71.6652C138.506 61.5692 134.817 50.7158 131.435 43.3781L132.95 42.6592C136.444 50.2254 140.238 61.4637 138.475 72.0169C135.551 89.6405 122.142 111.451 122.004 111.668Z" fill="white"/>
<path d="M128.832 44.802L135.353 48.9889L134.498 50.4718L127.977 46.285L128.832 44.802Z" fill="white"/>
<path d="M139.976 52.5721L137.923 57.9755L136.347 57.2861L138.4 51.8827L139.976 52.5721Z" fill="white"/>
<path d="M132.206 58.1808L138.322 61.9556L137.493 63.4548L131.377 59.6801L132.206 58.1808Z" fill="white"/>
<path d="M131.05 94.0916L130.167 92.57C132.765 90.9878 135.55 89.2794 138.483 87.4806C148.675 81.2302 158.978 78.9977 165.839 78.2331L166.069 79.9774C159.375 80.724 149.317 82.9053 139.382 89.0114C136.448 90.81 133.648 92.5095 131.05 94.0916Z" fill="white"/>
<path d="M166.555 83.313L165.86 84.888L158.349 81.1232L159.044 79.5482L166.555 83.313Z" fill="white"/>
<path d="M155.25 77.573L153.644 82.1878L152.052 81.5449L153.658 76.9302L155.25 77.573Z" fill="white"/>
<path d="M155.624 87.4505L154.926 89.0237L146.667 84.8641L147.365 83.2908L155.624 87.4505Z" fill="white"/>
<path d="M138.929 88.2535C138.929 88.2535 148.34 62.7198 174.646 78.7767C174.646 78.7767 168.323 89.9948 159.348 92.3565C150.374 94.7182 138.929 88.2535 138.929 88.2535Z" fill="#47B85B"/>
<path d="M174.646 78.7771C174.646 78.7771 168.315 90.0102 159.348 92.3569C150.382 94.7036 138.928 88.2539 138.928 88.2539C148.926 82.1057 159.052 79.9455 165.954 79.1057C170.007 78.612 174.646 78.7771 174.646 78.7771Z" fill="#399349"/>
<path d="M137.649 71.8336C137.649 71.8336 153.859 50.4495 127.553 34.3926C127.553 34.3926 121.525 45.7912 124.078 55.1891C126.631 64.5869 137.649 71.8336 137.649 71.8336Z" fill="#47B85B"/>
<path d="M137.649 71.8337C137.649 71.8337 126.624 64.5629 124.078 55.1891C121.517 45.8063 127.553 34.3926 127.553 34.3926C127.553 34.3926 130.993 40.3619 132.208 43.0083C135.587 50.4242 139.373 61.497 137.649 71.8337Z" fill="#399349"/>
<path d="M122.004 111.668L120.567 110.691C120.705 110.474 133.935 88.955 136.815 71.6652C138.506 61.5692 134.817 50.7158 131.435 43.3781L132.95 42.6592C136.444 50.2254 140.238 61.4637 138.475 72.0169C135.551 89.6405 122.142 111.451 122.004 111.668Z" fill="#2B6E37"/>
<path d="M128.832 44.802L135.353 48.9889L134.498 50.4718L127.977 46.285L128.832 44.802Z" fill="#2B6E37"/>
<path d="M139.976 52.5721L137.923 57.9755L136.347 57.2861L138.4 51.8827L139.976 52.5721Z" fill="#2B6E37"/>
<path d="M132.206 58.1808L138.322 61.9556L137.493 63.4548L131.377 59.6801L132.206 58.1808Z" fill="#2B6E37"/>
<path d="M131.05 94.0916L130.167 92.57C132.765 90.9878 135.55 89.2794 138.483 87.4806C148.675 81.2302 158.978 78.9977 165.839 78.2331L166.069 79.9774C159.375 80.724 149.317 82.9053 139.382 89.0114C136.448 90.81 133.648 92.5095 131.05 94.0916Z" fill="#2B6E37"/>
<path d="M166.555 83.313L165.86 84.888L158.349 81.1232L159.044 79.5482L166.555 83.313Z" fill="#2B6E37"/>
<path d="M155.25 77.573L153.644 82.1878L152.052 81.5449L153.658 76.9302L155.25 77.573Z" fill="#2B6E37"/>
<path d="M155.624 87.4505L154.926 89.0237L146.667 84.8641L147.365 83.2908L155.624 87.4505Z" fill="#2B6E37"/>
<path d="M134.343 70.4173C130.98 67.6629 125.069 62.0697 123.258 55.3905C120.647 45.7761 126.551 34.4226 126.806 33.9564C126.913 33.7609 127.093 33.6105 127.308 33.5413C127.523 33.4721 127.771 33.5232 127.964 33.6405C136.506 38.8545 141.56 45.1876 143.012 52.4503C145.151 63.2196 138.611 72.0198 138.33 72.3897L136.99 71.2712L137.657 71.8184L136.99 71.2712C137.054 71.19 143.346 62.6995 141.364 52.7272C140.054 46.2132 135.528 40.4635 127.911 35.6134C126.653 38.3141 122.844 47.4179 124.891 54.9632C126.564 61.1373 132.184 66.4328 135.371 69.0399L134.343 70.4173Z" fill="white"/>
<path d="M138.518 89.0054C138.148 88.7799 137.986 88.3199 138.147 87.9168C138.309 87.4747 142.233 77.0778 152.139 73.6604C158.8 71.3501 166.515 72.8109 175.057 78.0249C175.249 78.1421 175.4 78.3345 175.465 78.5752C175.531 78.8158 175.506 79.0413 175.377 79.2429C175.114 79.7241 168.774 90.7918 159.578 93.1987C150.396 95.6145 139.014 89.288 138.532 89.0144L138.518 89.0054ZM173.467 79.0597C165.693 74.4951 158.727 73.2507 152.737 75.3084C145.023 77.9586 141.114 85.4776 140.037 87.8475C142.641 89.1765 151.838 93.407 159.127 91.4996C166.323 89.6163 171.875 81.5769 173.467 79.0597Z" fill="white"/>
<path d="M122.004 111.668L120.567 110.691C120.705 110.474 133.935 88.955 136.815 71.6652C138.506 61.5692 134.817 50.7158 131.435 43.3781L132.95 42.6592C136.444 50.2254 140.238 61.4637 138.475 72.0169C135.551 89.6405 122.142 111.451 122.004 111.668Z" fill="white"/>
<path d="M128.832 44.802L135.353 48.9889L134.498 50.4718L127.977 46.285L128.832 44.802Z" fill="white"/>
<path d="M139.976 52.5721L137.923 57.9755L136.347 57.2861L138.4 51.8827L139.976 52.5721Z" fill="white"/>
<path d="M132.206 58.1808L138.322 61.9556L137.493 63.4548L131.377 59.6801L132.206 58.1808Z" fill="white"/>
<path d="M131.05 94.0916L130.167 92.57C132.765 90.9878 135.55 89.2794 138.483 87.4806C148.675 81.2302 158.978 78.9977 165.839 78.2331L166.069 79.9774C159.375 80.724 149.317 82.9053 139.382 89.0114C136.448 90.81 133.648 92.5095 131.05 94.0916Z" fill="white"/>
<path d="M166.555 83.313L165.86 84.888L158.349 81.1232L159.044 79.5482L166.555 83.313Z" fill="white"/>
<path d="M155.25 77.573L153.644 82.1878L152.052 81.5449L153.658 76.9302L155.25 77.573Z" fill="white"/>
<path d="M155.624 87.4505L154.926 89.0237L146.667 84.8641L147.365 83.2908L155.624 87.4505Z" fill="white"/>
</g>
<g clip-path="url(#clip2)">
<path d="M243.401 162.217C243.401 162.217 239.627 144.12 260.49 143.885C260.49 143.885 260.893 152.625 256.592 157.22C252.291 161.814 243.401 162.217 243.401 162.217Z" fill="#47B85B"/>
<path d="M260.49 143.886C260.49 143.886 260.894 152.637 256.592 157.22C252.291 161.803 243.401 162.217 243.401 162.217C246.929 155.073 251.963 150.179 255.621 147.208C257.769 145.463 260.49 143.886 260.49 143.886Z" fill="#399349"/>
<path d="M236.767 153.222C236.767 153.222 238.384 135.064 217.521 135.299C217.521 135.299 218.158 144.036 223 148.528C227.841 153.02 236.767 153.222 236.767 153.222Z" fill="#47B85B"/>
<path d="M236.767 153.222C236.767 153.222 227.829 153.008 223 148.528C218.159 144.047 217.521 135.299 217.521 135.299C217.521 135.299 221.64 137.497 223.288 138.583C227.891 141.636 234.042 146.648 236.767 153.222Z" fill="#399349"/>
<path d="M242.103 181.801L240.928 181.756C240.929 181.582 240.788 164.421 236.228 153.426C233.57 147.002 227.554 142.082 222.977 139.075L223.588 138.115C228.311 141.213 234.526 146.317 237.307 153.03C241.961 164.233 242.105 181.627 242.103 181.801Z" fill="#2B6E37"/>
<path d="M221.995 140.833L227.242 140.893L227.284 142.055L222.037 141.995L221.995 140.833Z" fill="#2B6E37"/>
<path d="M231.182 141.291L231.945 145.143L230.793 145.314L230.029 141.462L231.182 141.291Z" fill="#2B6E37"/>
<path d="M228.738 147.321L233.604 147.291L233.667 148.453L228.802 148.483L228.738 147.321Z" fill="#2B6E37"/>
<path d="M240.979 168.418L239.925 167.86C240.848 166.013 241.832 164.025 242.868 161.932C246.47 154.659 251.58 149.66 255.242 146.746L256.001 147.668C252.428 150.511 247.441 155.392 243.934 162.49C242.897 164.583 241.901 166.571 240.979 168.418Z" fill="#2B6E37"/>
<path d="M257.478 149.414L257.645 150.571L251.982 151.111L251.815 149.953L257.478 149.414Z" fill="#2B6E37"/>
<path d="M248.928 150.183L249.665 153.42L248.521 153.623L247.784 150.387L248.928 150.183Z" fill="#2B6E37"/>
<path d="M252.692 155.737L252.857 156.894L246.624 157.475L246.459 156.318L252.692 155.737Z" fill="#2B6E37"/>
<path d="M234.362 153.598C231.442 153.224 226.041 152.133 222.602 148.939C217.649 144.344 216.957 135.677 216.936 135.317C216.927 135.166 216.976 135.014 217.075 134.897C217.173 134.78 217.334 134.72 217.486 134.718C224.261 134.642 229.437 136.467 232.88 140.126C237.977 145.557 237.386 152.982 237.358 153.297L236.187 153.135L236.766 153.21L236.187 153.135C236.195 153.066 236.754 145.908 232.033 140.88C228.941 137.601 224.279 135.921 218.165 135.873C218.414 137.882 219.499 144.498 223.385 148.105C226.563 151.058 231.691 152.081 234.457 152.434L234.362 153.598Z" fill="white"/>
<path d="M243.436 162.798C243.143 162.801 242.884 162.595 242.832 162.305C242.766 161.992 241.282 154.59 245.738 149.051C248.729 145.32 253.681 143.381 260.456 143.304C260.608 143.303 260.764 143.359 260.888 143.474C261.012 143.589 261.079 143.728 261.077 143.89C261.099 144.262 261.438 152.921 257.026 157.622C252.626 162.322 243.822 162.782 243.447 162.798L243.436 162.798ZM259.915 144.473C253.815 144.647 249.371 146.441 246.673 149.785C243.199 154.091 243.658 159.83 243.891 161.584C245.863 161.41 252.66 160.531 256.157 156.806C259.609 153.128 259.906 146.497 259.915 144.473Z" fill="white"/>
<path d="M242.103 181.801L240.928 181.756C240.929 181.582 240.788 164.421 236.228 153.426C233.57 147.002 227.554 142.082 222.977 139.075L223.588 138.115C228.311 141.213 234.526 146.317 237.307 153.03C241.961 164.233 242.105 181.627 242.103 181.801Z" fill="white"/>
<path d="M221.995 140.833L227.242 140.893L227.284 142.055L222.037 141.995L221.995 140.833Z" fill="white"/>
<path d="M231.182 141.291L231.945 145.143L230.793 145.314L230.029 141.462L231.182 141.291Z" fill="white"/>
<path d="M228.738 147.321L233.604 147.291L233.667 148.453L228.802 148.483L228.738 147.321Z" fill="white"/>
<path d="M240.979 168.418L239.925 167.86C240.848 166.013 241.832 164.025 242.868 161.932C246.47 154.659 251.58 149.66 255.242 146.746L256.001 147.668C252.428 150.511 247.441 155.392 243.934 162.49C242.897 164.583 241.901 166.571 240.979 168.418Z" fill="white"/>
<path d="M257.478 149.414L257.645 150.571L251.982 151.111L251.815 149.953L257.478 149.414Z" fill="white"/>
<path d="M248.928 150.183L249.665 153.42L248.521 153.623L247.784 150.387L248.928 150.183Z" fill="white"/>
<path d="M252.692 155.737L252.857 156.894L246.624 157.475L246.459 156.318L252.692 155.737Z" fill="white"/>
<path d="M243.401 162.217C243.401 162.217 239.627 144.12 260.49 143.885C260.49 143.885 260.893 152.625 256.592 157.22C252.291 161.814 243.401 162.217 243.401 162.217Z" fill="#47B85B"/>
<path d="M260.49 143.886C260.49 143.886 260.894 152.637 256.592 157.22C252.291 161.803 243.401 162.217 243.401 162.217C246.929 155.073 251.963 150.179 255.621 147.208C257.769 145.463 260.49 143.886 260.49 143.886Z" fill="#399349"/>
<path d="M236.767 153.222C236.767 153.222 238.384 135.064 217.521 135.299C217.521 135.299 218.158 144.036 223 148.528C227.841 153.02 236.767 153.222 236.767 153.222Z" fill="#47B85B"/>
<path d="M236.767 153.222C236.767 153.222 227.829 153.008 223 148.528C218.159 144.047 217.521 135.299 217.521 135.299C217.521 135.299 221.64 137.497 223.288 138.583C227.891 141.636 234.042 146.648 236.767 153.222Z" fill="#399349"/>
<path d="M242.103 181.801L240.928 181.756C240.929 181.582 240.788 164.421 236.228 153.426C233.57 147.002 227.554 142.082 222.977 139.075L223.588 138.115C228.311 141.213 234.526 146.317 237.307 153.03C241.961 164.233 242.105 181.627 242.103 181.801Z" fill="#2B6E37"/>
<path d="M221.995 140.833L227.242 140.893L227.284 142.055L222.037 141.995L221.995 140.833Z" fill="#2B6E37"/>
<path d="M231.182 141.291L231.945 145.143L230.793 145.314L230.029 141.462L231.182 141.291Z" fill="#2B6E37"/>
<path d="M228.738 147.321L233.604 147.291L233.667 148.453L228.802 148.483L228.738 147.321Z" fill="#2B6E37"/>
<path d="M240.979 168.418L239.925 167.86C240.848 166.013 241.832 164.025 242.868 161.932C246.47 154.659 251.58 149.66 255.242 146.746L256.001 147.668C252.428 150.511 247.441 155.392 243.934 162.49C242.897 164.583 241.901 166.571 240.979 168.418Z" fill="#2B6E37"/>
<path d="M257.478 149.414L257.645 150.571L251.982 151.111L251.815 149.953L257.478 149.414Z" fill="#2B6E37"/>
<path d="M248.928 150.183L249.665 153.42L248.521 153.623L247.784 150.387L248.928 150.183Z" fill="#2B6E37"/>
<path d="M252.692 155.737L252.857 156.894L246.624 157.475L246.459 156.318L252.692 155.737Z" fill="#2B6E37"/>
<path d="M234.362 153.598C231.442 153.224 226.041 152.133 222.602 148.939C217.649 144.344 216.957 135.677 216.936 135.317C216.927 135.166 216.976 135.014 217.075 134.897C217.173 134.78 217.334 134.72 217.486 134.718C224.261 134.642 229.437 136.467 232.88 140.126C237.977 145.557 237.386 152.982 237.358 153.297L236.187 153.135L236.766 153.21L236.187 153.135C236.195 153.066 236.754 145.908 232.033 140.88C228.941 137.601 224.279 135.921 218.165 135.873C218.414 137.882 219.499 144.498 223.385 148.105C226.563 151.058 231.691 152.081 234.457 152.434L234.362 153.598Z" fill="white"/>
<path d="M243.436 162.798C243.143 162.801 242.884 162.595 242.832 162.305C242.766 161.992 241.282 154.59 245.738 149.051C248.729 145.32 253.681 143.381 260.456 143.304C260.608 143.303 260.764 143.359 260.888 143.474C261.012 143.589 261.079 143.728 261.077 143.89C261.099 144.262 261.438 152.921 257.026 157.622C252.626 162.322 243.822 162.782 243.447 162.798L243.436 162.798ZM259.915 144.473C253.815 144.647 249.371 146.441 246.673 149.785C243.199 154.091 243.658 159.83 243.891 161.584C245.863 161.41 252.66 160.531 256.157 156.806C259.609 153.128 259.906 146.497 259.915 144.473Z" fill="white"/>
<path d="M242.103 181.801L240.928 181.756C240.929 181.582 240.788 164.421 236.228 153.426C233.57 147.002 227.554 142.082 222.977 139.075L223.588 138.115C228.311 141.213 234.526 146.317 237.307 153.03C241.961 164.233 242.105 181.627 242.103 181.801Z" fill="white"/>
<path d="M221.995 140.833L227.242 140.893L227.284 142.055L222.037 141.995L221.995 140.833Z" fill="white"/>
<path d="M231.182 141.291L231.945 145.143L230.793 145.314L230.029 141.462L231.182 141.291Z" fill="white"/>
<path d="M228.738 147.321L233.604 147.291L233.667 148.453L228.802 148.483L228.738 147.321Z" fill="white"/>
<path d="M240.979 168.418L239.925 167.86C240.848 166.013 241.832 164.025 242.868 161.932C246.47 154.659 251.58 149.66 255.242 146.746L256.001 147.668C252.428 150.511 247.441 155.392 243.934 162.49C242.897 164.583 241.901 166.571 240.979 168.418Z" fill="white"/>
<path d="M257.478 149.414L257.645 150.571L251.982 151.111L251.815 149.953L257.478 149.414Z" fill="white"/>
<path d="M248.928 150.183L249.665 153.42L248.521 153.623L247.784 150.387L248.928 150.183Z" fill="white"/>
<path d="M252.692 155.737L252.857 156.894L246.624 157.475L246.459 156.318L252.692 155.737Z" fill="white"/>
</g>
</g>
<defs>
<clipPath id="clip0">
<rect width="332" height="351" fill="white"/>
</clipPath>
<clipPath id="clip1">
<rect width="73.5299" height="75.603" fill="white" transform="matrix(0.853555 0.521003 -0.479287 0.877658 128.235 27)"/>
</clipPath>
<clipPath id="clip2">
<rect width="49.7799" height="51.3634" fill="white" transform="matrix(0.999937 -0.0112469 0.0593953 0.998235 215.256 130.796)"/>
</clipPath>
</defs>
</svg>
