<svg width="1024" height="1024" viewBox="0 0 1024 1024" fill="none" xmlns="http://www.w3.org/2000/svg">
<g id="nftCakePlantLP">
<rect width="1024" height="1024" fill="#71BE63"/>
<g id="background">
<g id="Group">
<path id="Vector" d="M1024 0H0V723H1024V0Z" fill="url(#paint0_linear)"/>
</g>
</g>
<g id="tree3">
<g id="Group_2">
<g id="Group_3">
<path id="Vector_2" d="M503.002 502.846C497.826 502.846 493.633 498.833 493.633 493.883V397.34C493.633 392.39 497.824 388.376 503.002 388.376C508.179 388.376 512.369 392.39 512.369 397.34V493.883C512.369 498.833 508.178 502.846 503.002 502.846Z" fill="#674447"/>
</g>
</g>
<g id="Group_4">
<g id="Group_5">
<path id="Vector_3" d="M562 389.116C562 420.317 535.585 445.611 503 445.611C470.415 445.611 444 420.317 444 389.116C444 357.915 470.415 262 503 262C535.585 262 562 357.913 562 389.116Z" fill="#43AB5F"/>
</g>
</g>
<g id="Group_6">
<g id="Group_7">
<path id="Vector_4" d="M502.998 262C494.819 262 487.029 268.054 479.947 277.602H479.949C509.773 277.602 533.949 365.387 533.949 393.945C533.949 418.786 515.642 439.498 491.25 444.479C495.047 445.214 498.974 445.613 502.997 445.613C535.581 445.613 561.998 420.319 561.998 389.117C562 357.913 535.583 262 502.998 262Z" fill="#71BE63"/>
</g>
</g>
</g>
<g id="tree1">
<g id="Group_8">
<g id="Group_9">
<path id="Vector_5" d="M205.589 437.846C201.853 437.846 198.826 434.949 198.826 431.376V361.69C198.826 358.117 201.851 355.22 205.589 355.22C209.326 355.22 212.35 358.117 212.35 361.69V431.376C212.35 434.949 209.325 437.846 205.589 437.846Z" fill="#674447"/>
</g>
</g>
<g id="Group_10">
<g id="Group_11">
<path id="Vector_6" d="M248.174 355.754C248.174 378.276 229.107 396.533 205.587 396.533C182.067 396.533 163 378.276 163 355.754C163 333.233 182.067 264 205.587 264C229.107 264 248.174 333.232 248.174 355.754Z" fill="#43AB5F"/>
</g>
</g>
<g id="Group_12">
<g id="Group_13">
<path id="Vector_7" d="M205.586 264C199.682 264 194.059 268.37 188.947 275.262H188.948C210.476 275.262 227.927 338.627 227.927 359.24C227.927 377.17 214.712 392.12 197.106 395.716C199.847 396.246 202.681 396.534 205.585 396.534C229.105 396.534 248.173 378.277 248.173 355.755C248.174 333.232 229.106 264 205.586 264Z" fill="#71BE63"/>
</g>
</g>
</g>
<g id="tree2">
<g id="Group_14">
<g id="Group_15">
<path id="Vector_8" d="M288.002 488.846C282.826 488.846 278.633 484.833 278.633 479.883V383.34C278.633 378.39 282.824 374.376 288.002 374.376C293.179 374.376 297.369 378.39 297.369 383.34V479.883C297.369 484.833 293.178 488.846 288.002 488.846Z" fill="#674447"/>
</g>
</g>
<g id="Group_16">
<g id="Group_17">
<path id="Vector_9" d="M347 375.116C347 406.317 320.585 431.611 288 431.611C255.415 431.611 229 406.317 229 375.116C229 343.915 255.415 248 288 248C320.585 248 347 343.913 347 375.116Z" fill="#43AB5F"/>
</g>
</g>
<g id="Group_18">
<g id="Group_19">
<path id="Vector_10" d="M287.998 248C279.819 248 272.029 254.054 264.947 263.602H264.949C294.773 263.602 318.949 351.387 318.949 379.945C318.949 404.786 300.642 425.498 276.25 430.479C280.047 431.214 283.974 431.613 287.997 431.613C320.581 431.613 346.998 406.319 346.998 375.117C347 343.913 320.583 248 287.998 248Z" fill="#71BE63"/>
</g>
</g>
</g>
<g id="casualGardener" clip-path="url(#clip0)">
<g id="Group_20">
<path id="Vector_11" d="M782.808 246.687C782.808 246.687 808.658 262.261 817.543 303.344C825.238 338.918 817.543 365.28 817.543 365.28L730.765 315.178C730.765 315.178 738.569 243.167 782.808 246.687Z" fill="#230A00"/>
<path id="Vector_12" d="M647.571 176.476C647.571 176.476 638.64 149.591 663.763 134.595C682.467 123.43 721.07 112.073 761.591 143.041C797.383 170.397 794.669 242.279 776.72 259.523C758.776 276.767 647.571 176.476 647.571 176.476Z" fill="#230A00"/>
<path id="Vector_13" d="M707.245 684.579C710.285 676.114 717.948 669.532 719.967 667.884C723.368 665.109 745.972 652.6 745.972 652.6L806.314 673.199V684.541C806.314 688.095 804.438 691.385 801.38 693.193L760.493 716.906C746.416 725.031 729.081 725.031 715.004 716.906C710.125 714.09 707.177 709.614 706.11 704.784L706.088 704.775C706.088 704.775 703.73 694.379 707.245 684.579Z" fill="#42271E"/>
<path id="Vector_14" d="M603.347 638.477C606.387 630.013 614.05 623.43 616.068 621.783C619.465 619.009 642.074 606.498 642.074 606.498L702.416 627.097V638.441C702.416 641.993 700.539 645.284 697.477 647.092L656.59 670.805C642.518 678.934 625.178 678.934 611.101 670.805C606.226 667.989 603.278 663.517 602.207 658.688L602.184 658.678C602.184 658.678 599.831 648.278 603.347 638.477Z" fill="#42271E"/>
<path id="Vector_15" d="M585.636 432.979C585.636 432.979 583.526 459.941 593.029 480C602.528 500.059 622.436 488.564 622.436 488.564L619.95 436.713L585.636 432.979Z" fill="#8D5524"/>
<path id="Vector_16" d="M641.594 255.838C641.594 255.838 615.198 268.33 600.418 303.166C585.641 338.006 585.641 432.979 585.641 432.979L623.975 452.205L641.594 255.838Z" fill="#1CA0AA"/>
<path id="Vector_17" d="M641.593 255.838C641.593 255.838 680.882 245.863 730.975 272.729C781.064 299.591 810.502 317.774 821.063 336.776C831.619 355.776 830.232 490.09 825.284 521.171C819.653 556.539 809.097 585.922 809.097 585.922L806.282 673.195C806.282 673.195 784.872 691.945 753.498 687.798C722.882 683.755 718.304 669.68 718.304 669.68V597.187L702.397 588V627.322C702.397 627.322 674.281 646.658 651.915 640.213C623.511 632.024 621.936 618.002 621.936 618.002C621.936 618.002 615.724 517.478 615.724 479.474C615.724 441.466 600.943 303.519 641.593 255.838Z" fill="#8F5BFD"/>
<path id="Vector_18" d="M730.976 272.729C752.098 284.059 769.533 293.837 783.445 302.791C773.37 308.668 762.648 318.24 756.139 329.034C741.463 353.355 741.5 391.826 741.5 391.826L643.703 335.366C643.703 335.366 649.223 280.718 674.749 254.808C690.011 256.469 709.493 261.207 730.976 272.729Z" fill="#1FC7D4"/>
<path id="Vector_19" d="M647.572 176.476C647.572 176.476 643.703 254.245 654.612 276.415C659.776 286.911 670.711 292.881 681.217 295.883C698.461 300.809 732.03 293.723 746.811 283.167C755.521 276.946 757.718 274.126 757.718 274.126C757.718 274.126 766.956 280.461 773.819 275.709C780.68 270.959 784.58 259.72 781.738 250.638C778.57 240.521 775.142 239.464 772.148 238.407C769.158 237.354 764.233 241.926 764.233 241.926C764.233 241.926 724.467 229.787 700.714 207.617C676.955 185.443 665.082 161.429 665.082 161.429L647.572 176.476Z" fill="#8D5524"/>
<path id="Vector_20" d="M730.766 436.068L636.806 381.819V455.217C636.806 485.813 653.129 514.08 679.625 529.379C702.352 542.503 730.766 526.097 730.766 499.849V436.068Z" fill="#553499"/>
<g id="pancakeswap 2" clip-path="url(#clip1)">
<path id="Vector_21" fill-rule="evenodd" clip-rule="evenodd" d="M668.443 439.943C668.386 435.406 672.184 431.852 676.251 432.521C679.85 433.112 682.292 436.822 681.651 440.722L680.202 449.538C681.14 449.692 682.107 449.677 683.046 449.831C683.984 449.986 684.767 450.114 685.677 450.438L687.127 441.622C687.768 437.723 691.27 434.99 694.868 435.582C698.936 436.25 701.396 440.834 700.045 445.139L696.624 455.198C702.251 459.083 706.108 464.941 705.077 471.214L704.436 475.113C703.572 480.369 699.718 484.263 694.707 486.399C689.669 488.705 683.445 489.423 676.718 488.317C669.991 487.211 664.325 484.538 660.29 480.74C656.383 477.138 653.979 472.215 654.843 466.96L655.484 463.06C656.516 456.787 661.889 452.447 668.464 450.568L668.443 439.943ZM694.054 456.168L698.095 444.296C699.066 441.321 697.506 438.105 694.534 437.616C692.031 437.205 689.634 439.074 689.188 441.787L687.349 452.976C686.751 452.704 685.969 452.575 685.343 452.473C684.404 452.318 683.65 452.02 682.711 451.866C681.772 451.711 680.834 451.557 679.867 451.572C679.241 451.469 678.431 451.51 677.806 451.407L679.618 440.387C680.063 437.675 678.392 435.136 675.889 434.725C673.073 434.262 670.409 436.784 670.533 439.938L670.56 452.48C663.543 454.112 658.382 458.139 657.49 463.564L656.849 467.464C655.483 475.771 664.537 484.224 677.053 486.282C689.568 488.34 700.852 483.23 702.218 474.923L702.859 471.023C703.935 465.454 700.335 459.987 694.054 456.168Z" fill="#633001"/>
<path id="Vector_22" d="M702.401 474.779C701.035 483.087 689.752 488.196 677.236 486.138C664.721 484.081 655.667 475.627 657.033 467.32L657.674 463.42L703.199 470.905L702.558 474.805L702.401 474.779Z" fill="#FEDC90"/>
<path id="Vector_23" fill-rule="evenodd" clip-rule="evenodd" d="M670.535 439.939C670.411 436.784 673.075 434.262 675.891 434.725C678.394 435.137 680.066 437.675 679.62 440.388L677.78 451.577C679.372 451.665 680.965 451.753 682.685 452.036C684.25 452.293 685.786 452.72 687.323 453.146L689.163 441.957C689.609 439.244 692.005 437.374 694.508 437.786C697.324 438.249 699.04 441.491 698.069 444.466L694.029 456.338C700.153 460.131 703.909 465.624 703.017 471.05C701.652 479.357 690.368 484.467 677.852 482.409C665.337 480.351 656.283 471.898 657.649 463.59C658.541 458.165 663.702 454.138 670.718 452.506L670.535 439.939Z" fill="#D1884F"/>
<path id="Vector_24" d="M674.113 465.078C673.75 467.282 672.348 468.967 670.94 468.735C669.532 468.504 668.744 466.459 669.106 464.255C669.469 462.051 670.87 460.366 672.278 460.598C673.686 460.829 674.475 462.874 674.113 465.078Z" fill="#633001"/>
<path id="Vector_25" d="M691.476 467.933C691.113 470.137 689.712 471.822 688.304 471.59C686.896 471.359 686.107 469.314 686.47 467.11C686.832 464.906 688.234 463.221 689.642 463.453C691.05 463.684 691.838 465.729 691.476 467.933Z" fill="#633001"/>
</g>
<path id="Vector_26" d="M812.951 325.935C816.349 329.565 819.049 333.154 821.063 336.774C828.406 349.996 829.972 419.031 828.575 470.286C815.616 474.21 800.99 472.822 790.443 463.108C770.389 444.633 765.637 406.63 776.719 365.985C786.759 329.176 808.869 326.174 812.951 325.935Z" fill="#1CA0AA"/>
<path id="Vector_27" d="M856.957 539.824C856.957 539.824 853.317 575.745 835.492 579.943C817.543 584.163 807.093 572.069 804.277 565.381C801.462 558.698 804.172 524.339 804.172 524.339L856.957 539.824Z" fill="#8D5524"/>
<path id="Vector_28" d="M812.952 325.935C812.952 325.935 845.874 357.539 856.957 423.695C866.296 479.442 856.957 539.825 856.957 539.825C856.957 539.825 843.214 541.244 826.868 536.483C807.321 530.789 804.172 524.344 804.172 524.344C804.172 524.344 803.115 456.778 797.837 411.381C792.559 365.985 783.732 332.339 812.952 325.935Z" fill="#1FC7D4"/>
<path id="Vector_29" d="M656.648 205.081C656.648 209.178 659.143 213.939 662.215 215.715C665.291 217.491 667.781 215.605 667.781 211.508C667.781 207.407 665.291 202.646 662.215 200.87C659.143 199.098 656.648 200.98 656.648 205.081Z" fill="#162F4D"/>
<path id="Vector_30" d="M695.544 227.452C695.544 231.554 698.034 236.315 701.105 238.086C704.182 239.862 706.672 237.981 706.672 233.879C706.672 229.782 704.182 225.022 701.105 223.246C698.034 221.469 695.544 223.355 695.544 227.452Z" fill="#162F4D"/>
</g>
</g>
<g id="plant-dai" clip-path="url(#clip2)">
<g id="Group_21">
<g id="Group_22">
<path id="Vector_31" d="M234.685 513.231C228.884 513.231 223.196 510.17 219.755 504.515L202.352 475.931C196.896 466.968 199.151 454.891 207.388 448.954C215.626 443.022 226.726 445.475 232.183 454.433L249.582 483.017C255.039 491.98 252.788 504.057 244.55 509.994C241.51 512.183 238.077 513.231 234.685 513.231Z" fill="#2B5D99"/>
<path id="Vector_32" d="M450.549 822.635L263.186 515.081L263.218 515.058L249.608 492.702C246.593 487.752 240.46 486.395 235.91 489.677C230.865 493.31 228.392 499.573 228.987 505.7C229.093 508.122 229.765 510.544 231.088 512.716L429.252 837.996C432.152 842.754 433.087 848.435 431.884 853.993C430.681 859.551 427.52 864.186 422.975 867.038L355.71 909.295C349.597 913.13 347.504 921.635 351.029 928.284C353.397 932.744 357.694 935.235 362.11 935.235C364.275 935.235 366.475 934.635 368.484 933.372L435.752 891.116C446.31 884.484 453.971 873.274 456.758 860.358C459.552 847.442 457.291 833.695 450.549 822.635Z" fill="#B6C5CE"/>
<path id="Vector_33" d="M73.6549 614.257C67.854 614.257 62.1662 611.196 58.7214 605.541L41.3185 576.957C35.8656 567.994 38.1204 555.917 46.3543 549.981C54.5962 544.048 65.6962 546.501 71.1491 555.46L88.552 584.043C94.0088 593.006 91.754 605.083 83.5162 611.02C80.4759 613.209 77.0472 614.257 73.6549 614.257Z" fill="#2B5D99"/>
<path id="Vector_34" d="M443.552 948.214C443.552 898.424 415.726 840.575 381.404 819.017C365.272 808.884 350.578 808.571 339.53 816.252V816.245L315.075 831.617L315.083 831.624C302.469 840.196 294.535 859.105 294.535 885.691C294.535 935.48 322.358 993.322 356.681 1014.89C371.759 1024.35 385.575 1025.25 396.333 1019.06L396.33 1019.06L422.807 1002.41H422.784C435.526 993.905 443.552 974.943 443.552 948.214Z" fill="#162F4D"/>
<path id="Vector_35" d="M418.833 963.772C418.833 1013.56 391.01 1036.45 356.684 1014.89C322.362 993.323 294.535 935.481 294.535 885.691C294.535 835.898 322.362 813.011 356.684 834.576C391.01 856.133 418.833 913.975 418.833 963.772Z" fill="#2B5D99"/>
<path id="Vector_36" d="M396.339 949.631C396.339 981.4 378.587 996 356.691 982.245C334.791 968.491 317.043 931.586 317.043 899.824C317.043 868.059 334.794 853.459 356.691 867.214C378.587 880.968 396.339 917.866 396.339 949.631Z" fill="#D6E5E5"/>
<path id="Vector_37" d="M380.228 939.519C380.228 958.379 369.693 967.052 356.69 958.881C343.686 950.716 333.145 928.803 333.145 909.94C333.145 891.077 343.686 882.41 356.69 890.575C369.693 898.744 380.228 920.656 380.228 939.519Z" fill="#BF0025"/>
<path id="Vector_38" d="M493.413 739.115L493.223 739.106C494.984 722.207 483.555 704.215 461.364 691.068L370.084 635.635C339.264 617.384 294.998 613.94 265.159 627.474C225.512 645.466 190.876 667.223 162.235 692.129C151.662 701.321 147.609 712.702 149.645 724.193H149.642L149.645 724.197C150.54 729.244 152.613 734.314 155.823 739.229L180.067 798.2C182.877 806.719 189.694 815.123 200.275 822.172L273.551 869.782C296.346 884.965 330.168 890.505 357.29 883.498C404.174 871.375 440.397 848.624 459.69 819.172C461.045 817.105 462.097 814.979 462.871 812.81L462.881 812.786C463.006 812.424 463.119 812.06 463.232 811.698L486.087 756.741C486.616 755.97 487.145 755.199 487.655 754.424C490.726 749.742 492.523 744.801 493.148 739.749L493.413 739.115Z" fill="#BF0025"/>
<path id="Vector_39" d="M162.234 692.129C140.681 710.87 146.162 738.674 175.224 758.031L263.473 815.372C290.927 833.663 331.659 840.33 364.324 831.891C420.792 817.295 464.421 789.891 487.653 754.42C501.095 733.904 490.472 708.315 461.363 691.068L370.075 635.635C339.263 617.384 294.992 613.94 265.157 627.474C225.51 645.465 190.874 667.223 162.234 692.129Z" fill="#EA2642"/>
<path id="Vector_40" d="M307.145 652.605C324.537 652.605 342.075 657.076 355.298 664.867L446.421 720.207L446.704 720.374C457.614 726.835 461.595 732.948 462.543 735.274C443.624 763.986 406.243 786.765 357.25 799.428C350.279 801.228 342.63 802.14 334.514 802.14C314.375 802.14 293.806 796.449 279.496 786.916L279.351 786.817L279.205 786.726L191.117 729.491C184.681 725.184 181.572 721.295 180.354 719.176C180.621 718.894 180.965 718.564 181.39 718.194C207.796 695.226 239.954 675.067 276.97 658.273C285.026 654.618 295.741 652.605 307.145 652.605Z" fill="#BF0025"/>
<path id="Vector_41" d="M279.346 786.82L279.492 786.915C293.802 796.448 314.37 802.14 334.511 802.14C342.627 802.14 350.272 801.227 357.243 799.427C375.785 794.634 392.656 788.392 407.501 780.929L355.292 749.226C342.072 741.431 324.53 736.965 307.14 736.965C295.737 736.965 285.021 738.977 276.966 742.629C264.093 748.473 251.823 754.727 240.16 761.36L279.2 786.726L279.346 786.82Z" fill="#8F001C"/>
<path id="Vector_42" d="M362.361 921.168C358.832 914.516 351.019 912.238 344.907 916.077L329.361 925.842C313.704 935.681 293.621 930.53 283.638 914.137L102.185 616.085L88.5752 593.729C85.5594 588.778 79.4265 587.422 74.8765 590.703C67.6588 595.9 65.6833 606.484 70.4639 614.332L80.8798 631.438L262.333 929.491C273.781 948.298 292.84 958.621 312.319 958.621C322.488 958.621 332.771 955.807 342.139 949.923L357.687 940.158C363.797 936.319 365.894 927.814 362.361 921.168Z" fill="#B6C5CE"/>
<path id="Vector_43" d="M122.316 688.214C117.9 688.214 113.605 685.721 111.241 681.26C107.711 674.613 109.804 666.109 115.916 662.268L276.878 561.163C282.99 557.322 290.807 559.603 294.333 566.25C297.863 572.9 295.77 581.405 289.658 585.241L128.696 686.351C126.684 687.615 124.486 688.214 122.316 688.214Z" fill="#B6C5CE"/>
<path id="Vector_44" d="M330.645 801.947C408.142 801.947 470.967 733.612 470.967 649.316C470.967 565.02 408.142 496.684 330.645 496.684C253.147 496.684 190.322 565.02 190.322 649.316C190.322 733.612 253.147 801.947 330.645 801.947Z" fill="#F4B731"/>
<path id="Vector_45" fill-rule="evenodd" clip-rule="evenodd" d="M274.95 569.82H333.423C368.987 569.82 395.949 590.845 405.978 621.434H424.191V639.926H409.813C410.094 642.848 410.239 645.824 410.239 648.848V649.305C410.239 652.657 410.058 656.007 409.7 659.336H424.191V677.827H405.629C395.336 707.992 368.587 728.817 333.423 728.817H274.95V677.82H254.631V659.329H274.95V639.922H254.631V621.431H274.95V569.817V569.82ZM291.295 677.824V712.227H333.423C359.416 712.227 378.729 698.448 387.72 677.824H291.295ZM392.726 659.333H291.295V639.926H392.755C393.129 642.978 393.323 646.112 393.323 649.301V649.754C393.323 652.957 393.123 656.156 392.726 659.329V659.333ZM333.423 586.378C359.536 586.378 378.907 600.519 387.842 621.434H291.295V586.378H333.423Z" fill="#FFFDFA"/>
<g id="Group_23" style="mix-blend-mode:multiply" opacity="0.2">
<g id="Group_24" style="mix-blend-mode:multiply" opacity="0.2">
<g id="Vector_46" style="mix-blend-mode:multiply" opacity="0.2">
<path fill-rule="evenodd" clip-rule="evenodd" d="M330.645 791.993C403.09 791.993 461.816 728.116 461.816 649.316C461.816 570.516 403.09 506.638 330.645 506.638C258.2 506.638 199.474 570.516 199.474 649.316C199.474 728.116 258.2 791.993 330.645 791.993ZM330.645 801.947C408.142 801.947 470.967 733.61 470.967 649.316C470.967 565.021 408.142 496.684 330.645 496.684C253.148 496.684 190.322 565.021 190.322 649.316C190.322 733.61 253.148 801.947 330.645 801.947Z" fill="#191326"/>
</g>
</g>
</g>
</g>
</g>
<path id="Vector_47" d="M332.258 805.456C410.647 805.456 474.193 736.337 474.193 651.07C474.193 565.804 410.647 496.684 332.258 496.684C253.869 496.684 190.322 565.804 190.322 651.07C190.322 736.337 253.869 805.456 332.258 805.456Z" fill="url(#paint1_linear)"/>
<path id="Vector_48" fill-rule="evenodd" clip-rule="evenodd" d="M236.899 669.003C236.873 669.576 236.86 670.15 236.86 670.728C236.86 672.91 237.043 675.065 237.397 677.188H236.86V680.53C236.86 682.161 236.962 683.778 237.161 685.377C241.048 716.576 282.141 741.126 332.259 741.126C382.377 741.126 423.47 716.576 427.357 685.377C427.556 683.778 427.658 682.161 427.658 680.53V677.188H427.121C427.475 675.065 427.658 672.91 427.658 670.728C427.658 670.15 427.645 669.576 427.619 669.003C426.181 636.335 384.037 610.132 332.259 610.132C280.481 610.132 238.338 636.335 236.899 669.003ZM229.063 669.003C229.773 649.069 242.72 632.329 260.74 620.883C279.419 609.016 304.724 601.947 332.259 601.947C359.794 601.947 385.099 609.016 403.778 620.883C421.798 632.329 434.745 649.069 435.455 669.003H435.485V680.53C435.485 701.223 422.316 718.604 403.778 730.376C385.099 742.242 359.794 749.316 332.259 749.316C304.724 749.316 279.419 742.242 260.74 730.376C242.202 718.604 229.033 701.223 229.033 680.53V669.003H229.063Z" fill="#606063"/>
<path id="Vector_49" d="M425.806 678.687C425.806 713.817 383.923 742.298 332.258 742.298C280.592 742.298 238.709 713.817 238.709 678.687V668.614H425.806V678.687Z" fill="#BEBEBE"/>
<path id="Vector_50" d="M425.806 670.371C425.806 704.285 383.923 731.772 332.258 731.772C280.592 731.772 238.709 704.285 238.709 670.371C238.709 636.457 280.592 608.965 332.258 608.965C383.923 608.965 425.806 636.457 425.806 670.371Z" fill="#FAF9FA"/>
<path id="Vector_51" fill-rule="evenodd" clip-rule="evenodd" d="M252.809 650.58C252.809 650.62 252.809 650.655 252.809 650.69C252.809 653.364 253.182 655.985 253.897 658.527H252.808V661.972C252.808 663.489 252.929 664.992 253.164 666.474C256.717 688.832 286.44 706.281 322.581 706.281C358.722 706.281 388.445 688.832 391.998 666.474C392.233 664.992 392.354 663.489 392.354 661.972V658.527H391.267C391.962 656.055 392.334 653.508 392.354 650.909C392.354 650.839 392.354 650.764 392.354 650.69C392.354 650.655 392.354 650.62 392.354 650.58C392.26 626.162 361.058 606.381 322.582 606.381C284.106 606.381 252.903 626.162 252.809 650.58ZM245.163 650.58H245.162V661.972C245.162 678.023 255.376 691.269 269.257 700.084C283.27 708.981 302.141 714.228 322.581 714.228C343.02 714.228 361.893 708.981 375.905 700.084C389.786 691.269 400 678.023 400 661.972V650.94C400 650.856 400.001 650.773 400.001 650.69C400.001 634.639 389.787 621.397 375.906 612.578C361.893 603.681 343.021 598.438 322.582 598.438C302.142 598.438 283.27 603.681 269.258 612.578C255.408 621.375 245.21 634.582 245.163 650.58Z" fill="#633001"/>
<path id="Vector_52" d="M390.323 664.582C390.323 688.125 359.272 707.211 320.968 707.211C282.664 707.211 251.613 688.125 251.613 664.582V654.579H390.323V664.582Z" fill="#FEDC90"/>
<path id="Vector_53" d="M390.323 651.07C390.323 676.262 359.272 696.684 320.968 696.684C282.664 696.684 251.613 676.262 251.613 651.07C251.613 625.874 282.664 605.456 320.968 605.456C359.272 605.456 390.323 625.874 390.323 651.07Z" fill="#D1884F"/>
<path id="Vector_54" fill-rule="evenodd" clip-rule="evenodd" d="M275.23 625.675C275.23 625.712 275.23 625.754 275.23 625.791C275.23 628.627 275.596 631.403 276.295 634.104H275.23V637.753C275.23 639.366 275.347 640.96 275.578 642.527C279.057 666.241 308.16 684.747 343.548 684.747C378.936 684.747 408.04 666.241 411.519 642.527C411.749 640.96 411.867 639.366 411.867 637.753V634.104H410.803C411.484 631.477 411.848 628.781 411.867 626.024C411.868 625.945 411.868 625.87 411.868 625.791C411.868 625.754 411.868 625.712 411.868 625.675C411.776 599.772 381.224 578.797 343.549 578.797C305.874 578.797 275.322 599.772 275.23 625.675ZM267.743 625.675H267.742V637.753C267.742 654.777 277.744 668.825 291.335 678.174C305.056 687.611 323.535 693.176 343.548 693.176C363.562 693.176 382.041 687.611 395.761 678.174C409.353 668.825 419.354 654.777 419.354 637.753V626.056C419.355 625.968 419.355 625.88 419.355 625.791C419.355 608.768 409.354 594.719 395.762 585.37C382.042 575.933 363.563 570.369 343.549 570.369C323.535 570.369 305.057 575.933 291.336 585.37C277.775 594.7 267.789 608.703 267.743 625.675Z" fill="#633001"/>
<path id="Vector_55" d="M412.904 640.017C412.904 663.562 382.575 682.649 345.162 682.649C307.749 682.649 277.42 663.562 277.42 640.017V630.018H412.904V640.017Z" fill="#FEDC90"/>
<path id="Vector_56" d="M412.904 626.509C412.904 651.7 382.575 672.123 345.162 672.123C307.749 672.123 277.42 651.7 277.42 626.509C277.42 601.317 307.749 580.895 345.162 580.895C382.575 580.895 412.904 601.317 412.904 626.509Z" fill="#D1884F"/>
<path id="Vector_57" fill-rule="evenodd" clip-rule="evenodd" d="M252.809 603.038C252.809 603.078 252.809 603.115 252.809 603.155C252.809 605.91 253.182 608.606 253.897 611.225H252.808V614.775C252.808 616.342 252.929 617.886 253.164 619.413C256.717 642.449 286.44 660.427 322.581 660.427C358.722 660.427 388.445 642.449 391.998 619.413C392.233 617.886 392.354 616.342 392.354 614.775V611.225H391.267C391.962 608.678 392.334 606.055 392.354 603.377C392.354 603.304 392.354 603.227 392.354 603.155C392.354 603.115 392.354 603.078 392.354 603.038C392.26 577.879 361.058 557.503 322.582 557.503C284.106 557.503 252.903 577.879 252.809 603.038ZM245.163 603.038H245.162V614.775C245.162 631.312 255.376 644.96 269.257 654.041C283.27 663.209 302.141 668.614 322.581 668.614C343.02 668.614 361.893 663.209 375.905 654.041C389.786 644.96 400 631.312 400 614.775V603.408C400 603.322 400.001 603.237 400.001 603.155C400.001 586.613 389.787 572.971 375.906 563.884C361.893 554.717 343.021 549.316 322.582 549.316C302.142 549.316 283.27 554.717 269.258 563.884C255.408 572.948 245.21 586.555 245.163 603.038Z" fill="#633001"/>
<path id="Vector_58" d="M390.323 616.125C390.323 641.238 359.272 661.596 320.968 661.596C282.664 661.596 251.613 641.238 251.613 616.125V605.456H390.323V616.125Z" fill="#FEDC90"/>
<path id="Vector_59" d="M390.323 601.95C390.323 627.14 359.272 647.562 320.968 647.562C282.664 647.562 251.613 627.14 251.613 601.95C251.613 576.755 282.664 556.333 320.968 556.333C359.272 556.333 390.323 576.755 390.323 601.95Z" fill="#D1884F"/>
<path id="Vector_60" fill-rule="evenodd" clip-rule="evenodd" d="M274.193 605.515C274.193 614.077 279.457 621.748 287.761 626.906L282.008 638.683L282.009 638.688H282.008V668.493C282.008 672.434 284.711 675.631 288.046 675.631C291.381 675.631 294.085 672.434 294.085 668.493V644.787L300.275 632.115C304.233 633.107 308.481 633.649 312.903 633.649C334.282 633.649 351.613 621.054 351.613 605.515C351.613 589.981 334.282 577.386 312.903 577.386C291.524 577.386 274.193 589.981 274.193 605.515Z" fill="url(#paint2_linear)"/>
<path id="Vector_61" fill-rule="evenodd" clip-rule="evenodd" d="M285.083 625.138C284.125 624.589 283.205 624.008 282.327 623.397C275.28 618.517 270.941 611.856 270.941 604.514C270.941 589.536 289.006 577.393 311.29 577.393C333.574 577.393 351.639 589.536 351.639 604.514C351.639 619.496 333.574 631.639 311.29 631.639C306.681 631.639 302.253 631.116 298.127 630.16L291.675 642.378V665.235C291.675 669.034 288.857 672.117 285.381 672.117C281.904 672.117 279.087 669.034 279.087 665.235V636.497L285.083 625.138ZM272.661 636.617V665.235C272.661 672.914 278.356 679.141 285.381 679.141C292.406 679.141 298.1 672.914 298.1 665.235V644.261L301.447 637.923C304.625 638.41 307.919 638.663 311.29 638.663C323.424 638.663 334.717 635.368 343.186 629.677C351.55 624.057 358.064 615.359 358.064 604.514C358.064 593.672 351.55 584.974 343.186 579.354C334.717 573.664 323.424 570.369 311.29 570.369C299.156 570.369 287.863 573.664 279.394 579.354C271.03 584.974 264.516 593.672 264.516 604.514C264.516 614.031 269.501 621.865 276.427 627.48L273.566 632.897C273.293 633.397 273.075 633.937 272.922 634.504C272.734 635.2 272.649 635.913 272.661 636.617Z" fill="#633001"/>
<path id="Vector_62" d="M283.871 594.927C283.871 602.678 293.259 608.965 304.839 608.965C316.419 608.965 325.807 602.678 325.807 594.927C325.807 587.177 316.419 580.895 304.839 580.895C293.259 580.895 283.871 587.177 283.871 594.927Z" fill="#9E7200"/>
<path id="Vector_63" d="M283.871 591.421H325.807V594.93H283.871V591.421Z" fill="#9E7200"/>
<path id="Vector_64" d="M283.871 586.161C283.871 594.88 293.259 601.948 304.839 601.948C316.419 601.948 325.807 594.88 325.807 586.161C325.807 577.441 316.419 570.369 304.839 570.369C293.259 570.369 283.871 577.441 283.871 586.161Z" fill="#F0B90B"/>
<path id="Vector_65" d="M297.579 586.019L302.971 581.596C304.11 580.661 305.566 580.661 306.706 581.596L312.097 586.019C313.171 586.9 313.171 588.924 312.097 589.805L306.706 594.228C305.566 595.163 304.11 595.163 302.971 594.228L297.579 589.805C296.505 588.924 296.505 586.9 297.579 586.019Z" fill="#9E7200"/>
<path id="Vector_66" fill-rule="evenodd" clip-rule="evenodd" d="M286.039 569.426C290.725 565.509 296.819 563.351 303.227 563.351C309.634 563.351 315.728 565.509 320.414 569.426C325.026 573.287 329.033 579.62 329.033 587.914V594.928C329.033 603.223 325.026 609.556 320.414 613.417C315.728 617.334 309.634 619.491 303.227 619.491C296.819 619.491 290.725 617.334 286.039 613.417C281.427 609.556 277.42 603.223 277.42 594.928V587.914C277.42 579.62 281.427 573.287 286.039 569.426ZM303.227 571.537C292.414 571.537 283.649 578.871 283.649 587.914V594.928C283.649 603.971 292.414 611.305 303.227 611.305C314.039 611.305 322.804 603.971 322.804 594.928V587.914C322.804 578.871 314.039 571.537 303.227 571.537Z" fill="#633001"/>
<g id="Group_25">
<path id="Vector_67" d="M128.682 933.01C128.682 933.01 114.722 851.223 222.764 851.223C222.764 851.223 222.158 890.649 198.485 911.147C174.813 931.647 128.682 933.01 128.682 933.01Z" fill="#47B85B"/>
<path id="Vector_68" d="M222.762 851.223C222.762 851.223 222.155 890.701 198.483 911.147C174.81 931.595 128.68 933.01 128.68 933.01C149.135 900.977 176.692 879.167 196.54 865.955C208.195 858.195 222.762 851.223 222.762 851.223Z" fill="#399349"/>
<path id="Vector_69" d="M97.1197 892.118C97.1197 892.118 111.08 810.331 3.03711 810.331C3.03711 810.331 3.6441 849.756 27.3165 870.256C50.9891 890.755 97.1197 892.118 97.1197 892.118Z" fill="#47B85B"/>
<path id="Vector_70" d="M97.1196 892.118C97.1196 892.118 50.9278 890.703 27.3165 870.256C3.6441 849.809 3.03711 810.331 3.03711 810.331C3.03711 810.331 23.6746 820.449 31.8688 825.43C54.7519 839.428 85.0402 862.339 97.1196 892.118Z" fill="#399349"/>
<path id="Vector_71" d="M115.937 1021.25L109.867 1020.98C109.928 1020.2 114.48 942.813 94.2677 893.007C82.4918 863.91 52.871 841.419 30.1094 827.63L33.5692 823.331C57.0591 837.539 87.6519 860.869 99.9736 891.278C120.61 942.028 115.998 1020.46 115.937 1021.25Z" fill="#2B6E37"/>
<path id="Vector_72" d="M24.4853 835.507L51.6174 836.046L51.4776 841.289L24.3457 840.75L24.4853 835.507Z" fill="#2B6E37"/>
<path id="Vector_73" d="M71.8864 838.039L74.6522 855.445L68.6369 856.157L65.8711 838.752L71.8864 838.039Z" fill="#2B6E37"/>
<path id="Vector_74" d="M57.3832 865.104L82.5727 865.213L82.543 870.455L57.3535 870.346L57.3832 865.104Z" fill="#2B6E37"/>
<path id="Vector_75" d="M114.234 960.847L108.953 958.278C114.294 949.994 120 941.081 126.01 931.697C146.89 899.087 174.872 876.806 194.72 863.856L198.362 868.05C178.999 880.685 151.685 902.442 131.351 934.266C125.341 943.65 119.575 952.563 114.234 960.847Z" fill="#2B6E37"/>
<path id="Vector_76" d="M205.467 875.999L205.977 881.225L176.506 883.37L175.996 878.142L205.467 875.999Z" fill="#2B6E37"/>
<path id="Vector_77" d="M160.989 879.033L163.805 893.662L157.821 894.523L155.004 879.893L160.989 879.033Z" fill="#2B6E37"/>
<path id="Vector_78" d="M178.757 904.261L179.255 909.488L146.818 911.792L146.32 906.565L178.757 904.261Z" fill="#2B6E37"/>
<path id="Vector_79" d="M84.5523 893.689C69.5605 891.855 41.9425 886.664 25.1291 872.089C0.910481 851.118 0 812.007 0 810.381C0 809.7 0.303494 809.018 0.849767 808.494C1.39604 807.97 2.24581 807.708 3.03486 807.708C38.1185 807.708 64.3401 816.201 81.0318 832.873C105.737 857.619 100.395 891.068 100.152 892.483L94.1428 891.697L97.1174 892.064L94.1428 891.697C94.2041 891.383 99.3019 859.139 76.4196 836.228C61.4267 821.286 37.815 813.475 6.19125 812.95C6.85886 822.02 10.4401 851.904 29.4387 868.366C44.9773 881.841 71.1991 886.716 85.4028 888.446L84.5523 893.689Z" fill="#4D2419"/>
<path id="Vector_80" d="M128.68 935.63C127.162 935.63 125.888 934.686 125.706 933.375C125.463 931.96 120.061 898.511 144.826 873.765C161.458 857.093 187.68 848.6 222.763 848.6C223.552 848.6 224.341 848.862 224.948 849.386C225.555 849.91 225.858 850.539 225.798 851.273C225.798 852.951 224.887 892.01 200.608 912.981C176.389 933.953 130.683 935.578 128.741 935.63H128.68ZM219.606 853.842C187.982 854.314 164.431 862.179 149.439 877.12C130.137 896.361 130.744 922.26 131.412 930.177C141.67 929.496 177.118 925.878 196.359 909.259C215.358 892.849 218.939 862.965 219.606 853.842Z" fill="#4D2419"/>
<path id="Vector_81" d="M115.937 1021.25L109.867 1020.98C109.928 1020.2 114.48 942.813 94.2677 893.007C82.4918 863.91 52.871 841.419 30.1094 827.63L33.5692 823.331C57.0591 837.539 87.6519 860.869 99.9736 891.278C120.61 942.028 115.998 1020.46 115.937 1021.25Z" fill="#4D2419"/>
<path id="Vector_82" d="M24.4853 835.507L51.6174 836.046L51.4776 841.289L24.3457 840.75L24.4853 835.507Z" fill="#4D2419"/>
<path id="Vector_83" d="M71.8864 838.039L74.6522 855.445L68.6369 856.157L65.8711 838.752L71.8864 838.039Z" fill="#4D2419"/>
<path id="Vector_84" d="M57.3832 865.104L82.5727 865.213L82.543 870.455L57.3535 870.346L57.3832 865.104Z" fill="#4D2419"/>
<path id="Vector_85" d="M114.234 960.847L108.953 958.278C114.294 949.994 120 941.081 126.01 931.697C146.89 899.087 174.872 876.806 194.72 863.856L198.362 868.05C178.999 880.685 151.685 902.442 131.351 934.266C125.341 943.65 119.575 952.563 114.234 960.847Z" fill="#4D2419"/>
<path id="Vector_86" d="M205.467 875.999L205.977 881.225L176.506 883.37L175.996 878.142L205.467 875.999Z" fill="#4D2419"/>
<path id="Vector_87" d="M160.989 879.033L163.805 893.662L157.821 894.523L155.004 879.893L160.989 879.033Z" fill="#4D2419"/>
<path id="Vector_88" d="M178.757 904.261L179.255 909.488L146.818 911.792L146.32 906.565L178.757 904.261Z" fill="#4D2419"/>
</g>
</g>
</g>
<defs>
<linearGradient id="paint0_linear" x1="564" y1="0" x2="564" y2="723" gradientUnits="userSpaceOnUse">
<stop offset="0.40625" stop-color="#9AF4EF"/>
<stop offset="0.791667" stop-color="#B0EB81"/>
<stop offset="1" stop-color="#71BE63"/>
</linearGradient>
<linearGradient id="paint1_linear" x1="332.258" y1="496.684" x2="332.258" y2="805.456" gradientUnits="userSpaceOnUse">
<stop stop-color="#54DADE"/>
<stop offset="0.762" stop-color="#24C7D6"/>
</linearGradient>
<linearGradient id="paint2_linear" x1="313.322" y1="578.327" x2="313.322" y2="674.892" gradientUnits="userSpaceOnUse">
<stop stop-color="#9F4A08"/>
<stop offset="0.37" stop-color="#7D3900"/>
<stop offset="1" stop-color="#8D4104"/>
</linearGradient>
<clipPath id="clip0">
<rect width="600" height="600" fill="white" transform="matrix(-1 0 0 1 1024 123)"/>
</clipPath>
<clipPath id="clip1">
<rect width="50.2584" height="54.9811" fill="white" transform="translate(660.92 430) rotate(9.33679)"/>
</clipPath>
<clipPath id="clip2">
<rect width="600" height="600" fill="white" transform="translate(0 423)"/>
</clipPath>
</defs>
</svg>
