<svg width="1024" height="1024" viewBox="0 0 1024 1024" fill="none" xmlns="http://www.w3.org/2000/svg">
<g id="nftBNBPlantLP">
<rect width="1024" height="1024" fill="#71BE63"/>
<g id="background">
<g id="Group">
<path id="Vector" d="M1024 0H0V723H1024V0Z" fill="url(#paint0_linear)"/>
</g>
</g>
<g id="casualGardener" clip-path="url(#clip0)">
<g id="Group_2">
<path id="Vector_2" d="M782.808 246.687C782.808 246.687 808.658 262.261 817.543 303.344C825.238 338.918 817.543 365.28 817.543 365.28L730.765 315.178C730.765 315.178 738.569 243.167 782.808 246.687Z" fill="#BD4B1E"/>
<path id="Vector_3" d="M647.571 176.476C647.571 176.476 638.64 149.591 663.763 134.595C682.467 123.43 721.07 112.073 761.591 143.041C797.383 170.397 794.669 242.279 776.72 259.523C758.776 276.767 647.571 176.476 647.571 176.476Z" fill="#EF5F26"/>
<path id="Vector_4" d="M707.245 684.579C710.285 676.114 717.948 669.532 719.967 667.884C723.368 665.109 745.972 652.6 745.972 652.6L806.314 673.199V684.541C806.314 688.095 804.438 691.385 801.38 693.193L760.493 716.906C746.416 725.031 729.081 725.031 715.004 716.906C710.125 714.09 707.177 709.614 706.11 704.784L706.088 704.775C706.088 704.775 703.73 694.379 707.245 684.579Z" fill="#42271E"/>
<path id="Vector_5" d="M603.347 638.477C606.387 630.013 614.05 623.43 616.068 621.783C619.465 619.009 642.074 606.498 642.074 606.498L702.416 627.097V638.441C702.416 641.993 700.539 645.284 697.477 647.092L656.59 670.805C642.518 678.934 625.178 678.934 611.101 670.805C606.226 667.989 603.278 663.517 602.207 658.688L602.184 658.678C602.184 658.678 599.831 648.278 603.347 638.477Z" fill="#42271E"/>
<path id="Vector_6" d="M585.636 432.979C585.636 432.979 583.526 459.941 593.029 480C602.528 500.059 622.436 488.564 622.436 488.564L619.95 436.713L585.636 432.979Z" fill="#F8DB8F"/>
<path id="Vector_7" d="M641.594 255.838C641.594 255.838 615.198 268.33 600.418 303.166C585.641 338.006 585.641 432.979 585.641 432.979L623.975 452.205L641.594 255.838Z" fill="#EB1CB1"/>
<path id="Vector_8" d="M641.593 255.838C641.593 255.838 680.882 245.863 730.975 272.729C781.064 299.591 810.502 317.774 821.063 336.776C831.619 355.776 830.232 490.09 825.284 521.171C819.653 556.539 809.097 585.922 809.097 585.922L806.282 673.195C806.282 673.195 784.872 691.945 753.498 687.798C722.882 683.755 718.304 669.68 718.304 669.68V597.187L702.397 588V627.322C702.397 627.322 674.281 646.658 651.915 640.213C623.511 632.024 621.936 618.002 621.936 618.002C621.936 618.002 615.724 517.478 615.724 479.474C615.724 441.466 600.943 303.519 641.593 255.838Z" fill="#979A07"/>
<path id="Vector_9" d="M730.976 272.729C752.098 284.059 769.533 293.837 783.445 302.791C773.37 308.668 762.648 318.24 756.139 329.034C741.463 353.355 741.5 391.826 741.5 391.826L643.703 335.366C643.703 335.366 649.223 280.718 674.749 254.808C690.011 256.469 709.493 261.207 730.976 272.729Z" fill="#EB1CB1"/>
<path id="Vector_10" d="M647.572 176.476C647.572 176.476 643.703 254.245 654.612 276.415C659.776 286.911 670.711 292.881 681.217 295.883C698.461 300.809 732.03 293.723 746.811 283.167C755.521 276.946 757.718 274.126 757.718 274.126C757.718 274.126 766.956 280.461 773.819 275.709C780.68 270.959 784.58 259.72 781.738 250.638C778.57 240.521 775.142 239.464 772.148 238.407C769.158 237.354 764.233 241.926 764.233 241.926C764.233 241.926 724.467 229.787 700.714 207.617C676.955 185.443 665.082 161.429 665.082 161.429L647.572 176.476Z" fill="#F8DB8F"/>
<path id="Vector_11" d="M730.766 436.068L636.806 381.819V455.217C636.806 485.813 653.129 514.08 679.625 529.379C702.352 542.503 730.766 526.097 730.766 499.849V436.068Z" fill="#41521E"/>
<path id="Vector_12" d="M812.951 325.935C816.349 329.565 819.049 333.154 821.063 336.774C828.406 349.996 829.972 419.031 828.575 470.286C815.616 474.21 800.99 472.822 790.443 463.108C770.389 444.633 765.637 406.63 776.719 365.985C786.759 329.176 808.869 326.174 812.951 325.935Z" fill="#971773"/>
<path id="Vector_13" d="M856.957 539.824C856.957 539.824 853.317 575.745 835.492 579.943C817.543 584.163 807.093 572.069 804.277 565.381C801.462 558.698 804.172 524.339 804.172 524.339L856.957 539.824Z" fill="#F8DB8F"/>
<path id="Vector_14" d="M812.952 325.935C812.952 325.935 845.874 357.539 856.957 423.695C866.296 479.442 856.957 539.825 856.957 539.825C856.957 539.825 843.214 541.244 826.868 536.483C807.321 530.789 804.172 524.344 804.172 524.344C804.172 524.344 803.115 456.778 797.837 411.381C792.559 365.985 783.732 332.339 812.952 325.935Z" fill="#EB1CB1"/>
<path id="Vector_15" d="M656.648 205.081C656.648 209.178 659.143 213.939 662.215 215.715C665.291 217.491 667.781 215.605 667.781 211.508C667.781 207.407 665.291 202.646 662.215 200.87C659.143 199.098 656.648 200.98 656.648 205.081Z" fill="#162F4D"/>
<path id="Vector_16" d="M695.544 227.452C695.544 231.554 698.034 236.315 701.105 238.086C704.182 239.862 706.672 237.981 706.672 233.879C706.672 229.782 704.182 225.022 701.105 223.246C698.034 221.469 695.544 223.355 695.544 227.452Z" fill="#162F4D"/>
</g>
</g>
<g id="tree2">
<g id="Group_3">
<g id="Group_4">
<path id="Vector_17" d="M365.002 463.846C359.826 463.846 355.633 459.833 355.633 454.883V358.34C355.633 353.39 359.824 349.376 365.002 349.376C370.179 349.376 374.369 353.39 374.369 358.34V454.883C374.369 459.833 370.178 463.846 365.002 463.846Z" fill="#674447"/>
</g>
</g>
<g id="Group_5">
<g id="Group_6">
<path id="Vector_18" d="M424 350.116C424 381.317 397.585 406.611 365 406.611C332.415 406.611 306 381.317 306 350.116C306 318.915 332.415 223 365 223C397.585 223 424 318.913 424 350.116Z" fill="#43AB5F"/>
</g>
</g>
<g id="Group_7">
<g id="Group_8">
<path id="Vector_19" d="M364.998 223C356.819 223 349.029 229.054 341.947 238.602H341.949C371.773 238.602 395.949 326.387 395.949 354.945C395.949 379.786 377.642 400.498 353.25 405.479C357.047 406.214 360.974 406.613 364.997 406.613C397.581 406.613 423.998 381.319 423.998 350.117C424 318.913 397.583 223 364.998 223Z" fill="#71BE63"/>
</g>
</g>
</g>
<g id="tree1">
<g id="Group_9">
<g id="Group_10">
<path id="Vector_20" d="M73.5013 543.846C67.0533 543.846 61.8301 538.847 61.8301 532.68V412.41C61.8301 406.244 67.0512 401.244 73.5013 401.244C79.9514 401.244 85.1704 406.244 85.1704 412.41V532.68C85.1704 538.847 79.9494 543.846 73.5013 543.846Z" fill="#674447"/>
</g>
</g>
<g id="Group_11">
<g id="Group_12">
<path id="Vector_21" d="M147 402.165C147 441.034 114.093 472.545 73.5 472.545C32.9074 472.545 0 441.034 0 402.165C0 363.296 32.9074 243.809 73.5 243.809C114.093 243.809 147 363.294 147 402.165Z" fill="#43AB5F"/>
</g>
</g>
<g id="Group_13">
<g id="Group_14">
<path id="Vector_22" d="M73.4972 243.809C63.3074 243.809 53.6038 251.351 44.7812 263.246H44.7833C81.9373 263.246 112.055 372.605 112.055 408.182C112.055 439.127 89.248 464.929 58.8615 471.134C63.5922 472.05 68.4837 472.547 73.4952 472.547C114.088 472.547 146.997 441.036 146.997 402.167C146.999 363.294 114.09 243.809 73.4972 243.809Z" fill="#71BE63"/>
</g>
</g>
</g>
<g id="tree3">
<g id="Group_15">
<g id="Group_16">
<path id="Vector_23" d="M920.589 422.846C916.853 422.846 913.826 419.949 913.826 416.376V346.69C913.826 343.117 916.851 340.22 920.589 340.22C924.326 340.22 927.35 343.117 927.35 346.69V416.376C927.35 419.949 924.325 422.846 920.589 422.846Z" fill="#674447"/>
</g>
</g>
<g id="Group_17">
<g id="Group_18">
<path id="Vector_24" d="M963.174 340.754C963.174 363.276 944.107 381.533 920.587 381.533C897.067 381.533 878 363.276 878 340.754C878 318.233 897.067 249 920.587 249C944.107 249 963.174 318.232 963.174 340.754Z" fill="#43AB5F"/>
</g>
</g>
<g id="Group_19">
<g id="Group_20">
<path id="Vector_25" d="M920.586 249C914.682 249 909.059 253.37 903.947 260.262H903.948C925.476 260.262 942.927 323.627 942.927 344.24C942.927 362.17 929.712 377.12 912.106 380.716C914.847 381.246 917.681 381.534 920.585 381.534C944.105 381.534 963.173 363.277 963.173 340.755C963.174 318.232 944.106 249 920.586 249Z" fill="#71BE63"/>
</g>
</g>
</g>
<g id="plant-bnb" clip-path="url(#clip1)">
<g id="Group_21">
<g id="Group_22">
<path id="Vector_26" d="M234.685 514.231C228.884 514.231 223.196 511.17 219.755 505.515L202.352 476.931C196.896 467.968 199.151 455.891 207.388 449.954C215.626 444.022 226.726 446.475 232.183 455.433L249.582 484.017C255.039 492.98 252.788 505.057 244.55 510.994C241.51 513.183 238.077 514.231 234.685 514.231Z" fill="#2B5D99"/>
<path id="Vector_27" d="M450.549 823.635L263.186 516.081L263.218 516.059L249.608 493.703C246.593 488.752 240.46 487.396 235.91 490.677C230.865 494.311 228.392 500.574 228.987 506.7C229.093 509.122 229.765 511.545 231.088 513.716L429.252 838.997C432.152 843.755 433.087 849.435 431.884 854.993C430.681 860.551 427.52 865.186 422.975 868.039L355.71 910.295C349.597 914.13 347.504 922.635 351.029 929.285C353.397 933.744 357.694 936.235 362.11 936.235C364.275 936.235 366.475 935.635 368.484 934.372L435.752 892.116C446.31 885.485 453.971 874.274 456.758 861.358C459.552 848.443 457.291 834.695 450.549 823.635Z" fill="#B6C5CE"/>
<path id="Vector_28" d="M73.6569 615.257C67.8559 615.257 62.1682 612.196 58.7233 606.541L41.3204 577.957C35.8675 568.994 38.1224 556.917 46.3562 550.981C54.5982 545.048 65.6982 547.501 71.1511 556.46L88.554 585.043C94.0108 594.006 91.7559 606.083 83.5182 612.02C80.4779 614.209 77.0491 615.257 73.6569 615.257Z" fill="#2B5D99"/>
<path id="Vector_29" d="M443.552 949.214C443.552 899.425 415.726 841.575 381.404 820.017C365.272 809.884 350.578 809.572 339.53 817.253V817.246L315.075 832.617L315.083 832.625C302.469 841.196 294.535 860.105 294.535 886.691C294.535 936.481 322.358 994.323 356.681 1015.89C371.759 1025.35 385.575 1026.25 396.333 1020.06L396.33 1020.06L422.807 1003.41H422.784C435.526 994.905 443.552 975.944 443.552 949.214Z" fill="#162F4D"/>
<path id="Vector_30" d="M418.833 964.772C418.833 1014.56 391.01 1037.45 356.684 1015.89C322.362 994.323 294.535 936.481 294.535 886.691C294.535 836.898 322.362 814.011 356.684 835.576C391.01 857.133 418.833 914.975 418.833 964.772Z" fill="#2B5D99"/>
<path id="Vector_31" d="M396.339 950.632C396.339 982.4 378.587 997 356.691 983.246C334.791 969.491 317.043 932.586 317.043 900.825C317.043 869.06 334.794 854.46 356.691 868.214C378.587 881.968 396.339 918.867 396.339 950.632Z" fill="#D6E5E5"/>
<path id="Vector_32" d="M380.23 940.519C380.23 959.379 369.695 968.052 356.692 959.88C343.688 951.716 333.146 929.803 333.146 910.94C333.146 892.077 343.688 883.41 356.692 891.575C369.695 899.744 380.23 921.656 380.23 940.519Z" fill="#BF0025"/>
<path id="Vector_33" d="M493.413 740.115L493.223 740.106C494.984 723.207 483.555 705.215 461.364 692.068L370.084 636.635C339.264 618.384 294.998 614.94 265.159 628.474C225.512 646.465 190.876 668.223 162.235 693.129C151.662 702.321 147.609 713.702 149.645 725.193H149.642L149.645 725.197C150.54 730.244 152.613 735.314 155.823 740.229L180.067 799.2C182.877 807.719 189.694 816.123 200.275 823.172L273.551 870.782C296.346 885.965 330.168 891.505 357.29 884.498C404.174 872.375 440.397 849.624 459.69 820.172C461.045 818.105 462.097 815.979 462.871 813.81L462.881 813.786C463.006 813.424 463.119 813.06 463.232 812.698L486.087 757.741C486.616 756.97 487.145 756.199 487.655 755.424C490.726 750.742 492.523 745.801 493.148 740.749L493.413 740.115Z" fill="#BF0025"/>
<path id="Vector_34" d="M162.234 693.129C140.681 711.87 146.162 739.674 175.224 759.031L263.473 816.372C290.927 834.663 331.659 841.33 364.324 832.891C420.792 818.295 464.421 790.891 487.653 755.42C501.095 734.904 490.472 709.315 461.363 692.068L370.075 636.635C339.263 618.384 294.992 614.94 265.157 628.474C225.51 646.465 190.874 668.223 162.234 693.129Z" fill="#EA2642"/>
<path id="Vector_35" d="M307.145 653.605C324.537 653.605 342.075 658.076 355.298 665.867L446.421 721.207L446.704 721.375C457.614 727.836 461.595 733.949 462.543 736.275C443.624 764.986 406.243 787.765 357.25 800.428C350.279 802.228 342.63 803.141 334.514 803.141C314.375 803.141 293.806 797.449 279.496 787.916L279.351 787.818L279.205 787.727L191.117 730.492C184.681 726.184 181.572 722.295 180.354 720.177C180.621 719.895 180.965 719.564 181.39 719.195C207.796 696.226 239.954 676.068 276.97 659.274C285.026 655.618 295.741 653.605 307.145 653.605Z" fill="#BF0025"/>
<path id="Vector_36" d="M279.348 787.821L279.494 787.916C293.804 797.449 314.372 803.141 334.513 803.141C342.629 803.141 350.274 802.228 357.245 800.428C375.787 795.635 392.658 789.393 407.503 781.93L355.294 750.227C342.074 742.432 324.532 737.966 307.142 737.966C295.739 737.966 285.023 739.978 276.968 743.63C264.095 749.474 251.825 755.728 240.162 762.361L279.202 787.727L279.348 787.821Z" fill="#8F001C"/>
<path id="Vector_37" d="M362.361 922.168C358.832 915.516 351.019 913.238 344.907 917.077L329.361 926.842C313.704 936.68 293.621 931.53 283.638 915.137L102.185 617.085L88.5752 594.729C85.5594 589.778 79.4265 588.422 74.8765 591.703C67.6588 596.9 65.6833 607.484 70.4639 615.332L80.8797 632.438L262.333 930.491C273.781 949.298 292.84 959.621 312.319 959.621C322.488 959.621 332.771 956.807 342.139 950.923L357.687 941.158C363.797 937.319 365.894 928.814 362.361 922.168Z" fill="#B6C5CE"/>
<path id="Vector_38" d="M122.318 689.215C117.902 689.215 113.607 686.722 111.243 682.261C107.713 675.614 109.806 667.11 115.918 663.269L276.88 562.164C282.992 558.323 290.809 560.604 294.335 567.251C297.865 573.901 295.772 582.406 289.66 586.242L128.698 687.352C126.686 688.616 124.488 689.215 122.318 689.215Z" fill="#B6C5CE"/>
<path id="Vector_39" d="M327.583 798.105C401.48 798.105 461.387 732.93 461.387 652.531C461.387 572.132 401.48 506.955 327.583 506.955C253.687 506.955 193.781 572.132 193.781 652.531C193.781 732.93 253.687 798.105 327.583 798.105Z" fill="#F0B90B"/>
<path id="Vector_40" d="M277.69 652.531L257.218 674.96L236.604 652.531L257.218 630.103L277.69 652.531ZM327.588 598.242L362.85 636.604L383.463 614.175L348.208 575.969L327.588 553.54L271.858 614.17L292.473 636.598L327.588 598.242ZM397.959 630.103L377.488 652.531L398.104 674.96L418.575 652.531L397.959 630.103ZM327.588 706.821L292.334 668.459L271.863 690.888L327.588 751.523L383.459 690.738L362.843 668.464L327.588 706.821ZM327.588 674.96L348.204 652.531L327.588 630.103L306.974 652.531L327.588 674.96Z" fill="#FFFDFA"/>
<g id="Group_23" style="mix-blend-mode:multiply" opacity="0.1">
<g id="Vector_41" style="mix-blend-mode:multiply" opacity="0.1">
<path d="M327.586 790.576C397.661 790.576 454.467 728.772 454.467 652.531C454.467 576.291 397.661 514.485 327.586 514.485C257.512 514.485 200.705 576.291 200.705 652.531C200.705 728.772 257.512 790.576 327.586 790.576Z" stroke="#191326" stroke-width="3"/>
</g>
</g>
</g>
</g>
<g id="Group_24">
<path id="Vector_42" d="M128.681 934.009C128.681 934.009 114.72 852.222 222.762 852.222C222.762 852.222 222.156 891.648 198.484 912.147C174.811 932.647 128.681 934.009 128.681 934.009Z" fill="#47B85B"/>
<path id="Vector_43" d="M222.762 852.222C222.762 852.222 222.155 891.7 198.483 912.147C174.81 932.595 128.68 934.009 128.68 934.009C149.135 901.977 176.692 880.166 196.54 866.954C208.195 859.195 222.762 852.222 222.762 852.222Z" fill="#399349"/>
<path id="Vector_44" d="M97.1197 893.118C97.1197 893.118 111.08 811.33 3.03711 811.33C3.03711 811.33 3.6441 850.756 27.3165 871.255C50.9891 891.754 97.1197 893.118 97.1197 893.118Z" fill="#47B85B"/>
<path id="Vector_45" d="M97.1196 893.118C97.1196 893.118 50.9278 891.702 27.3165 871.255C3.6441 850.808 3.03711 811.33 3.03711 811.33C3.03711 811.33 23.6746 821.449 31.8688 826.429C54.7519 840.427 85.0402 863.338 97.1196 893.118Z" fill="#399349"/>
<path id="Vector_46" d="M115.935 1022.25L109.865 1021.98C109.926 1021.2 114.478 943.813 94.2657 894.007C82.4898 864.91 52.8691 842.419 30.1074 828.63L33.5672 824.331C57.0571 838.539 87.6499 861.869 99.9717 892.278C120.608 943.028 115.996 1021.46 115.935 1022.25Z" fill="#2B6E37"/>
<path id="Vector_47" d="M24.4853 836.507L51.6174 837.046L51.4776 842.29L24.3457 841.751L24.4853 836.507Z" fill="#2B6E37"/>
<path id="Vector_48" d="M71.8864 839.038L74.6523 856.444L68.6369 857.156L65.8711 839.751L71.8864 839.038Z" fill="#2B6E37"/>
<path id="Vector_49" d="M57.3832 866.103L82.5726 866.212L82.543 871.454L57.3535 871.346L57.3832 866.103Z" fill="#2B6E37"/>
<path id="Vector_50" d="M114.234 961.847L108.953 959.278C114.294 950.994 120 942.081 126.01 932.697C146.89 900.087 174.872 877.806 194.72 864.856L198.362 869.05C178.999 881.685 151.685 903.442 131.351 935.266C125.341 944.65 119.575 953.563 114.234 961.847Z" fill="#2B6E37"/>
<path id="Vector_51" d="M205.467 876.998L205.977 882.224L176.506 884.369L175.996 879.142L205.467 876.998Z" fill="#2B6E37"/>
<path id="Vector_52" d="M160.991 880.033L163.807 894.662L157.822 895.523L155.006 880.893L160.991 880.033Z" fill="#2B6E37"/>
<path id="Vector_53" d="M178.757 905.261L179.255 910.489L146.818 912.793L146.32 907.565L178.757 905.261Z" fill="#2B6E37"/>
<path id="Vector_54" d="M84.5523 894.689C69.5605 892.855 41.9425 887.664 25.1291 873.089C0.910481 852.118 0 813.007 0 811.381C0 810.7 0.303494 810.018 0.849767 809.494C1.39604 808.97 2.24581 808.708 3.03486 808.708C38.1185 808.708 64.3401 817.201 81.0318 833.873C105.737 858.619 100.395 892.068 100.152 893.483L94.1428 892.697L97.1174 893.064L94.1428 892.697C94.2041 892.383 99.3019 860.139 76.4196 837.228C61.4267 822.286 37.815 814.475 6.19125 813.95C6.85886 823.02 10.4401 852.904 29.4387 869.366C44.9773 882.841 71.1991 887.716 85.4028 889.446L84.5523 894.689Z" fill="#4D2419"/>
<path id="Vector_55" d="M128.682 936.63C127.164 936.63 125.89 935.686 125.708 934.375C125.465 932.96 120.063 899.512 144.828 874.765C161.46 858.093 187.681 849.6 222.765 849.6C223.554 849.6 224.343 849.862 224.949 850.386C225.557 850.91 225.86 851.539 225.8 852.273C225.8 853.951 224.889 893.01 200.609 913.981C176.391 934.953 130.685 936.578 128.743 936.63H128.682ZM219.608 854.842C187.984 855.314 164.433 863.179 149.441 878.12C130.139 897.361 130.746 923.26 131.414 931.177C141.672 930.496 177.12 926.878 196.361 910.259C215.36 893.849 218.941 863.965 219.608 854.842Z" fill="#4D2419"/>
<path id="Vector_56" d="M115.935 1022.25L109.865 1021.98C109.926 1021.2 114.478 943.813 94.2657 894.007C82.4898 864.91 52.8691 842.419 30.1074 828.63L33.5672 824.331C57.0571 838.539 87.6499 861.869 99.9717 892.278C120.608 943.028 115.996 1021.46 115.935 1022.25Z" fill="#4D2419"/>
<path id="Vector_57" d="M24.4853 836.507L51.6174 837.046L51.4776 842.29L24.3457 841.751L24.4853 836.507Z" fill="#4D2419"/>
<path id="Vector_58" d="M71.8864 839.038L74.6523 856.444L68.6369 857.156L65.8711 839.751L71.8864 839.038Z" fill="#4D2419"/>
<path id="Vector_59" d="M57.3832 866.103L82.5726 866.212L82.543 871.454L57.3535 871.346L57.3832 866.103Z" fill="#4D2419"/>
<path id="Vector_60" d="M114.234 961.847L108.953 959.278C114.294 950.994 120 942.081 126.01 932.697C146.89 900.087 174.872 877.806 194.72 864.856L198.362 869.05C178.999 881.685 151.685 903.442 131.351 935.266C125.341 944.65 119.575 953.563 114.234 961.847Z" fill="#4D2419"/>
<path id="Vector_61" d="M205.467 876.998L205.977 882.224L176.506 884.369L175.996 879.142L205.467 876.998Z" fill="#4D2419"/>
<path id="Vector_62" d="M160.991 880.033L163.807 894.662L157.822 895.523L155.006 880.893L160.991 880.033Z" fill="#4D2419"/>
<path id="Vector_63" d="M178.757 905.261L179.255 910.489L146.818 912.793L146.32 907.565L178.757 905.261Z" fill="#4D2419"/>
</g>
</g>
</g>
<defs>
<linearGradient id="paint0_linear" x1="564" y1="0" x2="564" y2="723" gradientUnits="userSpaceOnUse">
<stop offset="0.40625" stop-color="#9AF4EF"/>
<stop offset="0.791667" stop-color="#B0EB81"/>
<stop offset="1" stop-color="#71BE63"/>
</linearGradient>
<clipPath id="clip0">
<rect width="600" height="600" fill="white" transform="matrix(-1 0 0 1 1024 123)"/>
</clipPath>
<clipPath id="clip1">
<rect width="600" height="600" fill="white" transform="translate(0 424)"/>
</clipPath>
</defs>
</svg>
