<svg width="1024" height="1024" viewBox="0 0 1024 1024" fill="none" xmlns="http://www.w3.org/2000/svg">
<g id="nftBusdPlantLP" clip-path="url(#clip0)">
<rect width="1024" height="1024" fill="#71BE63"/>
<g id="background">
<g id="Group">
<path id="Vector" d="M1024 0H0V723H1024V0Z" fill="url(#paint0_linear)"/>
</g>
</g>
<g id="tree2">
<g id="Group_2">
<g id="Group_3">
<path id="Vector_2" d="M882.002 517.846C876.826 517.846 872.633 513.833 872.633 508.883V412.34C872.633 407.39 876.824 403.376 882.002 403.376C887.179 403.376 891.369 407.39 891.369 412.34V508.883C891.369 513.833 887.178 517.846 882.002 517.846Z" fill="#674447"/>
</g>
</g>
<g id="Group_4">
<g id="Group_5">
<path id="Vector_3" d="M941 404.116C941 435.317 914.585 460.611 882 460.611C849.415 460.611 823 435.317 823 404.116C823 372.915 849.415 277 882 277C914.585 277 941 372.913 941 404.116Z" fill="#43AB5F"/>
</g>
</g>
<g id="Group_6">
<g id="Group_7">
<path id="Vector_4" d="M881.998 277C873.819 277 866.029 283.054 858.947 292.602H858.949C888.773 292.602 912.949 380.387 912.949 408.945C912.949 433.786 894.642 454.498 870.25 459.479C874.047 460.214 877.974 460.613 881.997 460.613C914.581 460.613 940.998 435.319 940.998 404.117C941 372.913 914.583 277 881.998 277Z" fill="#71BE63"/>
</g>
</g>
</g>
<g id="tree1">
<g id="Group_8">
<g id="Group_9">
<path id="Vector_5" d="M111.847 514.873C105.983 514.873 101.232 510.326 101.232 504.718V395.336C101.232 389.728 105.981 385.181 111.847 385.181C117.713 385.181 122.46 389.728 122.46 395.336V504.718C122.46 510.326 117.711 514.873 111.847 514.873Z" fill="#674447"/>
</g>
</g>
<g id="Group_10">
<g id="Group_11">
<path id="Vector_6" d="M178.691 386.019C178.691 421.369 148.763 450.027 111.846 450.027C74.9281 450.027 45 421.369 45 386.019C45 350.669 74.9281 242 111.846 242C148.763 242 178.691 350.667 178.691 386.019Z" fill="#43AB5F"/>
</g>
</g>
<g id="Group_12">
<g id="Group_13">
<path id="Vector_7" d="M111.843 242C102.575 242 93.7503 248.859 85.7266 259.677H85.7284C119.519 259.677 146.91 359.136 146.91 391.491C146.91 419.635 126.167 443.1 98.5321 448.744C102.834 449.577 107.283 450.029 111.841 450.029C148.758 450.029 178.688 421.371 178.688 386.021C178.69 350.667 148.76 242 111.843 242Z" fill="#71BE63"/>
</g>
</g>
</g>
<g id="casualFarmer" clip-path="url(#clip1)">
<g id="Group_14">
<path id="Vector_8" d="M764.155 204.546C764.155 204.546 783.039 202.067 801.354 210.651C819.663 219.235 823.477 226.862 823.477 226.862C823.477 226.862 812.061 240.45 787.428 236.017C762.792 231.584 750.047 208.142 750.047 208.142C750.047 208.142 755.625 183.53 767.279 175.238C778.209 167.462 792.769 168.499 792.769 168.499C792.769 168.499 795.061 182.231 786.764 194.44C780.451 203.718 764.155 204.546 764.155 204.546Z" fill="#C19403"/>
<path id="Vector_9" d="M672.317 721.245C675.779 711.605 684.507 704.112 686.808 702.232C690.676 699.073 716.42 684.826 716.42 684.826L785.137 711.823V721.201C785.137 725.247 783.005 728.997 779.519 731.055L732.958 758.062C716.93 767.315 697.182 767.315 681.155 758.062C675.6 754.854 672.244 749.755 671.029 744.256L670.998 744.246C670.998 744.251 668.316 732.403 672.317 721.245Z" fill="#2B5D99"/>
<path id="Vector_10" d="M565.89 659.257C569.352 649.616 578.08 642.123 580.375 640.243C584.248 637.084 609.992 622.836 609.992 622.836L678.709 649.834V659.212C678.709 663.263 676.572 667.007 673.091 669.065L626.525 696.073C610.497 705.327 590.75 705.327 574.727 696.073C569.167 692.864 565.811 687.767 564.596 682.267L564.571 682.257C564.565 682.262 561.883 670.415 565.89 659.257Z" fill="#2B5D99"/>
<path id="Vector_11" d="M549.01 377.545C549.01 377.545 545.291 399.667 549.01 416.836C552.729 433.999 577.049 439.722 577.049 439.722L589.635 389.655L549.01 377.545Z" fill="#E0AC69"/>
<path id="Vector_12" d="M632.848 236.017C632.848 236.017 595.927 237.033 574.186 292.224C552.442 347.408 549.009 377.545 549.009 377.545C549.009 377.545 563.505 392.041 581.051 396.617C598.601 401.195 632.848 236.017 632.848 236.017Z" fill="#BB26EF"/>
<path id="Vector_13" d="M632.847 236.017C632.847 236.017 601.649 242.374 589.445 292.224C577.236 342.067 568.459 426.992 573.422 497.709C579.526 584.682 590.07 634.154 590.07 634.154C590.07 634.154 597.003 654.109 621.197 662.927C640.945 670.123 679.091 662.108 679.091 650.237V606.805L684.809 610.905L692.822 696.643C692.822 696.643 692.629 710.088 706.937 718.384C735.982 735.231 780.941 726.016 785.136 714.307C792.014 695.121 811.077 528.986 811.077 486.645C811.077 444.3 814.985 342.167 801.923 320.703C777.891 281.225 632.847 236.017 632.847 236.017Z" fill="#2C92BF"/>
<path id="Vector_14" d="M617.673 338.442C617.673 338.442 617.673 325.856 621.288 302.965C624.899 280.078 632.847 250.324 632.847 250.324C635.014 245.623 637.529 241.695 640.297 238.422C662.394 245.692 728.707 268.519 770.225 293.696C762.96 298.403 753.692 306.257 744.131 319.275C723.134 347.87 720.098 388.227 720.098 388.227L617.673 338.442Z" fill="#BB26EF"/>
<path id="Vector_15" d="M852.848 519.832C852.848 519.832 854.822 556.613 825.956 558.171C788.762 560.174 790.478 508.961 790.478 508.961L852.848 519.832Z" fill="#E0AC69"/>
<path id="Vector_16" d="M617.674 257.372C615.1 249.828 617.5 243.996 617.674 240.267C617.847 236.538 615.67 224.576 616.246 216.85C616.816 209.124 621.294 202.736 621.294 202.736C621.358 186.347 622.251 174.222 622.251 174.222C623.183 138.749 649.145 103.267 704.651 118.719C760.154 134.167 764.155 204.547 764.155 204.547L769.373 241.165L769.363 241.16C774.193 249.471 772.378 267.482 768.738 271.495C759.008 282.221 747.325 280.336 744.493 279.672C743.947 282.022 742.986 284.269 741.269 286.085C736.41 291.236 726.11 288.375 722.673 292.224C719.24 296.067 720.099 298.388 713.519 304.111C706.937 309.834 699.499 307.542 691.822 308.4C684.14 309.259 688.341 314.123 681.477 318.417C674.609 322.707 665.167 316.414 662.881 320.992C660.589 325.568 652.581 328.43 643.997 324.14C635.412 319.845 635.13 305.256 630.265 300.679C625.4 296.101 625.976 294.098 624.249 286.883C622.524 279.672 618.249 280.361 616.151 272.065C614.053 263.769 620.247 264.914 617.674 257.372Z" fill="#E0AC69"/>
<path id="Vector_17" d="M787.046 472.909C787.046 472.909 752.139 453.453 754.431 407.106C756.722 360.758 786.521 305.122 799.886 317.728C838.547 354.177 851.133 419.698 852.848 448.306C854.565 476.915 852.848 519.832 852.848 519.832C852.848 519.832 839.455 525.064 824.24 524.408C809.026 523.753 790.478 508.961 790.478 508.961L787.046 472.909Z" fill="#BB26EF"/>
<path id="Vector_18" d="M708.082 439.722L613.239 384.968V459.058C613.239 489.938 629.714 518.472 656.458 533.916C679.398 547.161 708.082 530.603 708.082 504.106V439.722Z" fill="#2B5D99"/>
<path id="Vector_19" d="M666.117 193.676C647.006 185.806 632.991 176.423 622.75 167.363C626.663 134.375 652.729 104.263 704.645 118.714C760.153 134.167 764.154 204.547 764.154 204.547C764.154 204.547 724.481 217.708 666.117 193.676Z" fill="#F0B90B"/>
<path id="Vector_20" d="M617.673 257.371C615.1 249.828 617.5 243.996 617.673 240.267C617.847 236.538 615.67 224.576 616.245 216.85C616.816 209.124 621.294 202.736 621.294 202.736L715.928 257.371L740.962 242.92C740.237 236.225 738.978 225.156 737.838 218.402C737.212 214.708 735.988 211.162 734.678 208.137C753.325 208.132 764.155 204.546 764.155 204.546L769.373 241.164C769.373 241.164 757.937 234.018 749.278 246.604C745.484 252.129 745.559 263.197 745.276 267.775C744.989 272.357 746.134 280.936 741.269 286.089C736.405 291.236 726.104 288.375 722.672 292.224C719.24 296.072 720.099 298.392 713.517 304.11C706.937 309.833 699.498 307.547 691.817 308.405C684.14 309.263 688.34 314.123 681.472 318.417C674.609 322.707 665.166 316.413 662.881 320.991C660.589 325.568 652.58 328.43 643.997 324.14C635.412 319.85 635.124 305.256 630.264 300.679C625.399 296.101 625.971 294.098 624.249 286.883C622.524 279.672 618.248 280.366 616.146 272.07C614.048 263.774 620.247 264.914 617.673 257.371Z" fill="#4D2316"/>
<path id="Vector_21" d="M635.328 195.823C635.328 199.047 637.29 202.796 639.711 204.189C642.131 205.588 644.09 204.105 644.09 200.877C644.09 197.653 642.131 193.904 639.711 192.511C637.29 191.112 635.328 192.595 635.328 195.823Z" fill="#162F4D"/>
<path id="Vector_22" d="M674.703 218.08C674.703 221.303 676.662 225.052 679.082 226.451C681.503 227.844 683.467 226.362 683.467 223.138C683.467 219.91 681.503 216.161 679.082 214.767C676.662 213.369 674.703 214.851 674.703 218.08Z" fill="#162F4D"/>
<path id="Vector_23" d="M657.831 239.28L639.944 228.955C637.365 227.467 634.142 229.327 634.142 232.308V237.014C634.142 241.71 636.652 246.05 640.718 248.4L658.601 258.725C661.179 260.213 664.402 258.353 664.402 255.372V250.666C664.402 245.97 661.898 241.631 657.831 239.28Z" fill="#E0AC69"/>
<path id="Vector_24" d="M754.431 407.106C755.672 381.963 765.014 354.108 775.433 335.878C770.589 356.617 775.24 385.197 777.892 405.961C781.325 432.859 787.047 472.909 787.047 472.909C787.047 472.909 752.14 453.454 754.431 407.106Z" fill="#9E1ECB"/>
</g>
</g>
<g id="plant-busd" clip-path="url(#clip2)">
<g id="Group_15">
<path id="Vector_25" d="M234.685 515.231C228.884 515.231 223.196 512.17 219.755 506.515L202.352 477.931C196.896 468.968 199.151 456.891 207.388 450.954C215.626 445.022 226.726 447.475 232.183 456.433L249.582 485.017C255.039 493.98 252.788 506.057 244.55 511.994C241.51 514.183 238.077 515.231 234.685 515.231Z" fill="#2B5D99"/>
<path id="Vector_26" d="M450.547 824.635L263.184 517.081L263.216 517.059L249.606 494.703C246.591 489.752 240.458 488.396 235.908 491.677C230.864 495.31 228.39 501.573 228.985 507.7C229.091 510.122 229.763 512.544 231.086 514.716L429.25 839.997C432.15 844.754 433.085 850.435 431.882 855.993C430.679 861.551 427.518 866.186 422.973 869.039L355.708 911.295C349.595 915.13 347.502 923.635 351.027 930.284C353.395 934.744 357.692 937.235 362.108 937.235C364.273 937.235 366.473 936.635 368.482 935.372L435.75 893.116C446.308 886.484 453.969 875.274 456.756 862.358C459.55 849.442 457.289 835.695 450.547 824.635Z" fill="#B6C5CE"/>
<path id="Vector_27" d="M73.6549 616.257C67.854 616.257 62.1662 613.196 58.7214 607.541L41.3185 578.957C35.8656 569.995 38.1204 557.918 46.3543 551.981C54.5962 546.048 65.6962 548.501 71.1491 557.46L88.552 586.044C94.0088 595.007 91.754 607.083 83.5162 613.02C80.4759 615.209 77.0472 616.257 73.6549 616.257Z" fill="#2B5D99"/>
<path id="Vector_28" d="M443.552 950.214C443.552 900.425 415.726 842.576 381.404 821.018C365.272 810.885 350.578 810.572 339.53 818.253V818.246L315.075 833.618L315.083 833.625C302.469 842.197 294.535 861.106 294.535 887.692C294.535 937.481 322.358 995.323 356.681 1016.89C371.759 1026.35 385.575 1027.25 396.333 1021.06L396.33 1021.06L422.807 1004.41H422.785C435.526 995.906 443.552 976.944 443.552 950.214Z" fill="#162F4D"/>
<path id="Vector_29" d="M418.833 965.772C418.833 1015.56 391.01 1038.45 356.684 1016.89C322.362 995.323 294.535 937.481 294.535 887.691C294.535 837.898 322.362 815.011 356.684 836.576C391.01 858.133 418.833 915.975 418.833 965.772Z" fill="#2B5D99"/>
<path id="Vector_30" d="M396.337 951.632C396.337 983.4 378.585 998 356.689 984.246C334.789 970.491 317.041 933.586 317.041 901.825C317.041 870.06 334.792 855.46 356.689 869.214C378.585 882.969 396.337 919.867 396.337 951.632Z" fill="#D6E5E5"/>
<path id="Vector_31" d="M380.23 941.52C380.23 960.379 369.695 969.053 356.692 960.881C343.688 952.716 333.146 930.804 333.146 911.941C333.146 893.077 343.688 884.411 356.692 892.576C369.695 900.744 380.23 922.656 380.23 941.52Z" fill="#BF0025"/>
<path id="Vector_32" d="M493.413 741.115L493.223 741.106C494.984 724.207 483.555 706.215 461.364 693.068L370.084 637.636C339.264 619.384 294.998 615.94 265.159 629.474C225.512 647.466 190.876 669.223 162.235 694.13C151.662 703.322 147.609 714.702 149.645 726.193H149.642L149.645 726.197C150.54 731.245 152.613 736.314 155.823 741.229L180.067 800.2C182.877 808.719 189.694 817.123 200.275 824.172L273.551 871.783C296.346 886.965 330.168 892.505 357.29 885.498C404.174 873.376 440.397 850.625 459.69 821.172C461.045 819.105 462.097 816.979 462.871 814.811L462.881 814.786C463.006 814.425 463.119 814.06 463.232 813.698L486.087 758.741C486.616 757.97 487.145 757.199 487.655 756.424C490.726 751.743 492.523 746.801 493.148 741.749L493.413 741.115Z" fill="#BF0025"/>
<path id="Vector_33" d="M162.234 694.13C140.681 712.87 146.162 740.675 175.224 760.031L263.473 817.372C290.927 835.663 331.659 842.33 364.324 833.891C420.792 819.295 464.421 791.891 487.653 756.42C501.095 735.905 490.472 710.316 461.363 693.068L370.076 637.636C339.263 619.384 294.992 615.94 265.157 629.474C225.51 647.466 190.874 669.223 162.234 694.13Z" fill="#EA2642"/>
<path id="Vector_34" d="M307.145 654.605C324.537 654.605 342.075 659.076 355.298 666.867L446.421 722.207L446.704 722.375C457.614 728.836 461.595 734.949 462.543 737.275C443.624 765.986 406.243 788.765 357.25 801.428C350.279 803.228 342.63 804.141 334.514 804.141C314.375 804.141 293.806 798.449 279.496 788.916L279.351 788.818L279.205 788.727L191.117 731.492C184.681 727.184 181.572 723.295 180.354 721.177C180.621 720.895 180.965 720.564 181.39 720.195C207.796 697.226 239.954 677.068 276.97 660.274C285.026 656.618 295.741 654.605 307.145 654.605Z" fill="#BF0025"/>
<path id="Vector_35" d="M279.346 788.821L279.492 788.916C293.802 798.449 314.37 804.141 334.511 804.141C342.627 804.141 350.272 803.228 357.243 801.428C375.785 796.635 392.656 790.393 407.501 782.93L355.292 751.227C342.072 743.432 324.53 738.966 307.14 738.966C295.737 738.966 285.021 740.978 276.966 744.63C264.093 750.474 251.823 756.728 240.16 763.361L279.2 788.727L279.346 788.821Z" fill="#8F001C"/>
<path id="Vector_36" d="M362.361 923.168C358.832 916.516 351.019 914.239 344.907 918.077L329.361 927.842C313.704 937.681 293.621 932.53 283.638 916.137L102.185 618.085L88.5752 595.729C85.5594 590.779 79.4265 589.422 74.8765 592.703C67.6588 597.9 65.6833 608.484 70.4639 616.332L80.8797 633.439L262.333 931.491C273.781 950.298 292.84 960.621 312.319 960.621C322.488 960.621 332.771 957.807 342.139 951.923L357.687 942.158C363.797 938.319 365.894 929.814 362.361 923.168Z" fill="#B6C5CE"/>
<path id="Vector_37" d="M122.316 690.215C117.9 690.215 113.605 687.722 111.241 683.261C107.711 676.614 109.804 668.11 115.916 664.269L276.878 563.164C282.99 559.323 290.807 561.604 294.333 568.251C297.863 574.901 295.77 583.406 289.658 587.242L128.696 688.352C126.684 689.616 124.486 690.215 122.316 690.215Z" fill="#B6C5CE"/>
<g id="Group_16" style="mix-blend-mode:multiply" opacity="0.1">
<g id="Group_17" style="mix-blend-mode:multiply" opacity="0.1">
<g id="Vector_38" style="mix-blend-mode:multiply" opacity="0.1">
<path d="M327.584 791.576C397.659 791.576 454.465 729.772 454.465 653.531C454.465 577.291 397.659 515.485 327.584 515.485C257.51 515.485 200.703 577.291 200.703 653.531C200.703 729.772 257.51 791.576 327.584 791.576Z" stroke="#191326" stroke-width="3"/>
</g>
</g>
</g>
<g id="Group_18" style="mix-blend-mode:multiply" opacity="0.2">
<g id="Group_19" style="mix-blend-mode:multiply" opacity="0.2">
<g id="Group_20" style="mix-blend-mode:multiply" opacity="0.2">
<g id="Vector_39" style="mix-blend-mode:multiply" opacity="0.2">
<path fill-rule="evenodd" clip-rule="evenodd" d="M327.418 790.484C399.863 790.484 458.589 726.607 458.589 647.807C458.589 569.007 399.863 505.13 327.418 505.13C254.973 505.13 196.247 569.007 196.247 647.807C196.247 726.607 254.973 790.484 327.418 790.484ZM327.418 800.439C404.915 800.439 467.741 732.102 467.741 647.807C467.741 563.512 404.915 495.176 327.418 495.176C249.922 495.176 187.096 563.512 187.096 647.807C187.096 732.102 249.922 800.439 327.418 800.439Z" fill="#191326"/>
</g>
</g>
</g>
</g>
<path id="Vector_40" d="M330.645 800.439C408.142 800.439 470.967 732.103 470.967 647.807C470.967 563.511 408.142 495.176 330.645 495.176C253.147 495.176 190.322 563.511 190.322 647.807C190.322 732.103 253.147 800.439 330.645 800.439Z" fill="#F0B90B"/>
<path id="Vector_41" fill-rule="evenodd" clip-rule="evenodd" d="M270.925 609.039L330.702 544.018L354.538 569.944L294.76 634.965L270.925 609.039ZM270.967 686.737L366.499 582.828L390.335 608.754L294.802 712.663L270.967 686.737ZM402.225 621.761L306.696 725.67L330.531 751.597L426.06 647.684L402.225 621.758V621.761ZM235.225 647.86L259.06 621.933L282.896 647.86L259.06 673.786L235.225 647.86Z" fill="#FFFDFA"/>
<g id="Group_21" style="mix-blend-mode:multiply" opacity="0.2">
<g id="Vector_42" style="mix-blend-mode:multiply" opacity="0.2">
<path d="M330.645 795.463C405.616 795.463 466.393 729.355 466.393 647.807C466.393 566.259 405.616 500.151 330.645 500.151C255.673 500.151 194.896 566.259 194.896 647.807C194.896 729.355 255.673 795.463 330.645 795.463Z" stroke="#191326" stroke-width="2.837"/>
</g>
</g>
</g>
<g id="Group_22">
<path id="Vector_43" d="M128.682 935.009C128.682 935.009 114.722 853.222 222.764 853.222C222.764 853.222 222.158 892.648 198.485 913.147C174.813 933.647 128.682 935.009 128.682 935.009Z" fill="#47B85B"/>
<path id="Vector_44" d="M222.762 853.222C222.762 853.222 222.155 892.7 198.483 913.147C174.81 933.595 128.68 935.009 128.68 935.009C149.135 902.977 176.692 881.167 196.54 867.955C208.195 860.195 222.762 853.222 222.762 853.222Z" fill="#399349"/>
<path id="Vector_45" d="M97.1197 894.118C97.1197 894.118 111.08 812.33 3.03711 812.33C3.03711 812.33 3.6441 851.756 27.3165 872.256C50.9891 892.754 97.1197 894.118 97.1197 894.118Z" fill="#47B85B"/>
<path id="Vector_46" d="M97.1196 894.118C97.1196 894.118 50.9278 892.702 27.3165 872.256C3.6441 851.808 3.03711 812.33 3.03711 812.33C3.03711 812.33 23.6746 822.449 31.8688 827.429C54.7519 841.428 85.0402 864.339 97.1196 894.118Z" fill="#399349"/>
<path id="Vector_47" d="M115.935 1023.25L109.865 1022.98C109.926 1022.2 114.478 944.814 94.2657 895.007C82.4898 865.91 52.8691 843.419 30.1074 829.63L33.5672 825.331C57.0571 839.539 87.6499 862.87 99.9717 893.278C120.608 944.028 115.996 1022.46 115.935 1023.25Z" fill="#2B6E37"/>
<path id="Vector_48" d="M24.4853 837.508L51.6174 838.047L51.4776 843.29L24.3457 842.751L24.4853 837.508Z" fill="#2B6E37"/>
<path id="Vector_49" d="M71.8864 840.039L74.6522 857.444L68.6369 858.157L65.8711 840.752L71.8864 840.039Z" fill="#2B6E37"/>
<path id="Vector_50" d="M57.3832 867.103L82.5727 867.213L82.543 872.455L57.3535 872.346L57.3832 867.103Z" fill="#2B6E37"/>
<path id="Vector_51" d="M114.234 962.848L108.953 960.279C114.294 951.995 120 943.082 126.01 933.697C146.89 901.088 174.872 878.807 194.72 865.857L198.362 870.051C178.999 882.686 151.685 904.443 131.351 936.266C125.341 945.651 119.575 954.564 114.234 962.848Z" fill="#2B6E37"/>
<path id="Vector_52" d="M205.467 877.999L205.977 883.225L176.506 885.37L175.996 880.143L205.467 877.999Z" fill="#2B6E37"/>
<path id="Vector_53" d="M160.989 881.033L163.805 895.663L157.821 896.523L155.004 881.894L160.989 881.033Z" fill="#2B6E37"/>
<path id="Vector_54" d="M178.757 906.262L179.255 911.489L146.818 913.793L146.32 908.566L178.757 906.262Z" fill="#2B6E37"/>
<path id="Vector_55" d="M84.5523 895.689C69.5605 893.855 41.9425 888.664 25.1291 874.09C0.910481 853.118 0 814.007 0 812.382C0 811.7 0.303494 811.019 0.849767 810.494C1.39604 809.97 2.24581 809.708 3.03486 809.708C38.1185 809.708 64.3401 818.201 81.0318 834.873C105.737 859.619 100.395 893.069 100.152 894.483L94.1428 893.698L97.1174 894.064L94.1428 893.698C94.2041 893.383 99.3019 861.139 76.4196 838.229C61.4267 823.287 37.815 815.475 6.19125 814.951C6.85886 824.021 10.4401 853.905 29.4387 870.367C44.9773 883.841 71.1991 888.716 85.4028 890.447L84.5523 895.689Z" fill="#4D2419"/>
<path id="Vector_56" d="M128.68 937.63C127.162 937.63 125.888 936.687 125.706 935.376C125.463 933.96 120.061 900.512 144.826 875.765C161.458 859.094 187.68 850.6 222.763 850.6C223.552 850.6 224.341 850.862 224.947 851.387C225.555 851.911 225.858 852.54 225.798 853.274C225.798 854.952 224.887 894.011 200.608 914.982C176.389 935.953 130.683 937.578 128.741 937.63H128.68ZM219.606 855.843C187.982 856.315 164.431 864.179 149.439 879.121C130.137 898.362 130.744 924.261 131.412 932.178C141.67 931.497 177.118 927.879 196.359 911.259C215.358 894.849 218.939 864.966 219.606 855.843Z" fill="#4D2419"/>
<path id="Vector_57" d="M115.935 1023.25L109.865 1022.98C109.926 1022.2 114.478 944.814 94.2657 895.007C82.4898 865.91 52.8691 843.419 30.1074 829.63L33.5672 825.331C57.0571 839.539 87.6499 862.87 99.9717 893.278C120.608 944.028 115.996 1022.46 115.935 1023.25Z" fill="#4D2419"/>
<path id="Vector_58" d="M24.4853 837.508L51.6174 838.047L51.4776 843.29L24.3457 842.751L24.4853 837.508Z" fill="#4D2419"/>
<path id="Vector_59" d="M71.8864 840.039L74.6522 857.444L68.6369 858.157L65.8711 840.752L71.8864 840.039Z" fill="#4D2419"/>
<path id="Vector_60" d="M57.3832 867.103L82.5727 867.213L82.543 872.455L57.3535 872.346L57.3832 867.103Z" fill="#4D2419"/>
<path id="Vector_61" d="M114.234 962.848L108.953 960.279C114.294 951.995 120 943.082 126.01 933.697C146.89 901.088 174.872 878.807 194.72 865.857L198.362 870.051C178.999 882.686 151.685 904.443 131.351 936.266C125.341 945.651 119.575 954.564 114.234 962.848Z" fill="#4D2419"/>
<path id="Vector_62" d="M205.467 877.999L205.977 883.225L176.506 885.37L175.996 880.143L205.467 877.999Z" fill="#4D2419"/>
<path id="Vector_63" d="M160.989 881.033L163.805 895.663L157.821 896.523L155.004 881.894L160.989 881.033Z" fill="#4D2419"/>
<path id="Vector_64" d="M178.757 906.262L179.255 911.489L146.818 913.793L146.32 908.566L178.757 906.262Z" fill="#4D2419"/>
</g>
</g>
</g>
<defs>
<linearGradient id="paint0_linear" x1="564" y1="0" x2="564" y2="723" gradientUnits="userSpaceOnUse">
<stop offset="0.40625" stop-color="#9AF4EF"/>
<stop offset="0.791667" stop-color="#B0EB81"/>
<stop offset="1" stop-color="#71BE63"/>
</linearGradient>
<clipPath id="clip0">
<rect width="1024" height="1024" fill="white"/>
</clipPath>
<clipPath id="clip1">
<rect width="650" height="650" fill="white" transform="matrix(-1 0 0 1 1025 115)"/>
</clipPath>
<clipPath id="clip2">
<rect width="600" height="600" fill="white" transform="translate(0 425)"/>
</clipPath>
</defs>
</svg>
