<svg width="1024" height="1024" viewBox="0 0 1024 1024" fill="none" xmlns="http://www.w3.org/2000/svg">
<g id="nftUsdcPlantLP" clip-path="url(#clip0)">
<rect width="1024" height="1024" fill="#71BE63"/>
<g id="background">
<g id="Group">
<path id="Vector" d="M1024 0H0V723H1024V0Z" fill="url(#paint0_linear)"/>
</g>
</g>
<g id="tree3">
<g id="Group_2">
<g id="Group_3">
<path id="Vector_2" d="M531.002 476.846C525.826 476.846 521.633 472.833 521.633 467.883V371.34C521.633 366.39 525.824 362.376 531.002 362.376C536.179 362.376 540.369 366.39 540.369 371.34V467.883C540.369 472.833 536.178 476.846 531.002 476.846Z" fill="#674447"/>
</g>
</g>
<g id="Group_4">
<g id="Group_5">
<path id="Vector_3" d="M590 363.116C590 394.317 563.585 419.611 531 419.611C498.415 419.611 472 394.317 472 363.116C472 331.915 498.415 236 531 236C563.585 236 590 331.913 590 363.116Z" fill="#43AB5F"/>
</g>
</g>
<g id="Group_6">
<g id="Group_7">
<path id="Vector_4" d="M530.998 236C522.819 236 515.029 242.054 507.947 251.602H507.949C537.773 251.602 561.949 339.387 561.949 367.945C561.949 392.786 543.642 413.498 519.25 418.479C523.047 419.214 526.974 419.613 530.997 419.613C563.581 419.613 589.998 394.319 589.998 363.117C590 331.913 563.583 236 530.998 236Z" fill="#71BE63"/>
</g>
</g>
</g>
<g id="tree2">
<g id="Group_8">
<g id="Group_9">
<path id="Vector_5" d="M417.589 439.846C413.853 439.846 410.826 436.949 410.826 433.376V363.69C410.826 360.117 413.851 357.22 417.589 357.22C421.326 357.22 424.35 360.117 424.35 363.69V433.376C424.35 436.949 421.325 439.846 417.589 439.846Z" fill="#674447"/>
</g>
</g>
<g id="Group_10">
<g id="Group_11">
<path id="Vector_6" d="M460.174 357.754C460.174 380.276 441.107 398.533 417.587 398.533C394.067 398.533 375 380.276 375 357.754C375 335.233 394.067 266 417.587 266C441.107 266 460.174 335.232 460.174 357.754Z" fill="#43AB5F"/>
</g>
</g>
<g id="Group_12">
<g id="Group_13">
<path id="Vector_7" d="M417.586 266C411.682 266 406.059 270.37 400.947 277.262H400.948C422.476 277.262 439.927 340.627 439.927 361.24C439.927 379.17 426.712 394.12 409.106 397.716C411.847 398.246 414.681 398.534 417.585 398.534C441.105 398.534 460.173 380.277 460.173 357.755C460.174 335.232 441.106 266 417.586 266Z" fill="#71BE63"/>
</g>
</g>
</g>
<g id="tree1">
<g id="Group_14">
<g id="Group_15">
<path id="Vector_8" d="M72.5887 448.846C68.8526 448.846 65.8262 445.949 65.8262 442.376V372.69C65.8262 369.117 68.8514 366.22 72.5887 366.22C76.3259 366.22 79.3499 369.117 79.3499 372.69V442.376C79.3499 445.949 76.3248 448.846 72.5887 448.846Z" fill="#674447"/>
</g>
</g>
<g id="Group_16">
<g id="Group_17">
<path id="Vector_9" d="M115.174 366.754C115.174 389.276 96.107 407.533 72.5871 407.533C49.0671 407.533 30 389.276 30 366.754C30 344.233 49.0671 275 72.5871 275C96.107 275 115.174 344.232 115.174 366.754Z" fill="#43AB5F"/>
</g>
</g>
<g id="Group_18">
<g id="Group_19">
<path id="Vector_10" d="M72.5858 275C66.6816 275 61.0592 279.37 55.9473 286.262H55.9485C77.476 286.262 94.9268 349.627 94.9268 370.24C94.9268 388.17 81.712 403.12 64.1056 406.716C66.8467 407.246 69.6808 407.534 72.5846 407.534C96.1046 407.534 115.173 389.277 115.173 366.755C115.174 344.232 96.1058 275 72.5858 275Z" fill="#71BE63"/>
</g>
</g>
</g>
<g id="casualFarmer" clip-path="url(#clip1)">
<g id="Group_20">
<path id="Vector_11" d="M672.317 721.245C675.779 711.605 684.507 704.112 686.808 702.232C690.676 699.073 716.42 684.826 716.42 684.826L785.137 711.823V721.201C785.137 725.247 783.005 728.997 779.519 731.055L732.958 758.062C716.93 767.315 697.182 767.315 681.155 758.062C675.6 754.854 672.244 749.755 671.029 744.256L670.998 744.246C670.998 744.251 668.316 732.403 672.317 721.245Z" fill="#2B5D99"/>
<path id="Vector_12" d="M565.89 659.257C569.352 649.616 578.08 642.123 580.375 640.243C584.248 637.084 609.992 622.836 609.992 622.836L678.709 649.834V659.212C678.709 663.263 676.572 667.007 673.091 669.065L626.525 696.073C610.497 705.327 590.75 705.327 574.727 696.073C569.167 692.864 565.811 687.767 564.596 682.267L564.571 682.257C564.565 682.262 561.883 670.415 565.89 659.257Z" fill="#2B5D99"/>
<path id="Vector_13" d="M549.01 377.545C549.01 377.545 545.291 399.667 549.01 416.836C552.729 433.999 577.049 439.722 577.049 439.722L589.635 389.655L549.01 377.545Z" fill="#F8DB8F"/>
<path id="Vector_14" d="M632.848 236.017C632.848 236.017 595.927 237.034 574.186 292.224C552.442 347.408 549.009 377.545 549.009 377.545C549.009 377.545 563.505 392.041 581.051 396.618C598.601 401.196 632.848 236.017 632.848 236.017Z" fill="#399349"/>
<path id="Vector_15" d="M632.847 236.017C632.847 236.017 601.649 242.375 589.445 292.224C577.236 342.067 568.459 426.992 573.422 497.709C579.526 584.682 590.07 634.155 590.07 634.155C590.07 634.155 597.003 654.109 621.197 662.927C640.945 670.123 679.091 662.108 679.091 650.237V606.805L684.809 610.906L692.822 696.643C692.822 696.643 692.629 710.088 706.937 718.384C735.982 735.231 780.941 726.017 785.136 714.308C792.014 695.121 811.077 528.987 811.077 486.645C811.077 444.3 814.985 342.167 801.923 320.703C777.891 281.225 632.847 236.017 632.847 236.017Z" fill="#2C92BF"/>
<path id="Vector_16" d="M617.673 338.442C617.673 338.442 617.673 325.856 621.288 302.965C624.899 280.078 632.847 250.324 632.847 250.324C635.014 245.623 637.529 241.695 640.297 238.422C662.394 245.692 728.707 268.519 770.225 293.696C762.96 298.403 753.692 306.257 744.131 319.275C723.134 347.87 720.098 388.227 720.098 388.227L617.673 338.442Z" fill="#399349"/>
<path id="Vector_17" d="M852.848 519.832C852.848 519.832 854.822 556.613 825.956 558.171C788.762 560.174 790.478 508.961 790.478 508.961L852.848 519.832Z" fill="#F8DB8F"/>
<path id="Vector_18" d="M617.674 257.372C615.1 249.828 617.5 243.996 617.674 240.267C617.847 236.538 615.67 224.576 616.246 216.85C616.816 209.124 621.294 202.736 621.294 202.736C621.358 186.347 622.251 174.222 622.251 174.222C623.183 138.749 649.145 103.267 704.651 118.719C760.154 134.167 764.155 204.547 764.155 204.547L769.373 241.165L769.363 241.16C774.193 249.471 772.378 267.482 768.738 271.495C759.008 282.221 747.325 280.336 744.493 279.672C743.947 282.022 742.986 284.269 741.269 286.085C736.41 291.236 726.11 288.375 722.673 292.224C719.24 296.067 720.099 298.388 713.519 304.111C706.937 309.834 699.499 307.542 691.822 308.4C684.14 309.259 688.341 314.123 681.477 318.417C674.609 322.707 665.167 316.414 662.881 320.992C660.589 325.568 652.581 328.43 643.997 324.14C635.412 319.845 635.13 305.256 630.265 300.679C625.4 296.101 625.976 294.098 624.249 286.883C622.524 279.672 618.249 280.361 616.151 272.065C614.053 263.769 620.247 264.914 617.674 257.372Z" fill="#F8DB8F"/>
<path id="Vector_19" d="M787.046 472.909C787.046 472.909 752.139 453.453 754.431 407.106C756.722 360.758 786.521 305.122 799.886 317.728C838.547 354.177 851.133 419.698 852.848 448.306C854.565 476.915 852.848 519.832 852.848 519.832C852.848 519.832 839.455 525.064 824.24 524.408C809.026 523.753 790.478 508.961 790.478 508.961L787.046 472.909Z" fill="#399349"/>
<path id="Vector_20" d="M708.082 439.722L613.239 384.968V459.058C613.239 489.938 629.714 518.472 656.458 533.916C679.398 547.161 708.082 530.603 708.082 504.106V439.722Z" fill="#2B5D99"/>
<path id="Vector_21" d="M617.673 257.371C615.1 249.828 617.5 243.996 617.673 240.267C617.847 236.538 615.67 224.576 616.245 216.85C616.816 209.124 621.294 202.736 621.294 202.736L715.928 257.371L740.962 242.92C740.237 236.225 738.978 225.156 737.838 218.402C737.212 214.708 735.988 211.162 734.678 208.137C753.325 208.132 764.155 204.546 764.155 204.546L769.373 241.164C769.373 241.164 757.937 234.018 749.278 246.604C745.484 252.129 745.559 263.197 745.276 267.775C744.989 272.357 746.134 280.936 741.269 286.089C736.405 291.236 726.104 288.375 722.672 292.224C719.24 296.072 720.099 298.392 713.517 304.11C706.937 309.833 699.498 307.547 691.817 308.405C684.14 309.263 688.34 314.123 681.472 318.417C674.609 322.707 665.166 316.413 662.881 320.991C660.589 325.568 652.58 328.43 643.997 324.14C635.412 319.85 635.124 305.256 630.264 300.679C625.399 296.101 625.971 294.098 624.249 286.883C622.524 279.672 618.248 280.366 616.146 272.07C614.048 263.774 620.247 264.914 617.673 257.371Z" fill="#4D2316"/>
<path id="Vector_22" d="M635.328 195.823C635.328 199.047 637.29 202.796 639.711 204.189C642.131 205.588 644.09 204.105 644.09 200.877C644.09 197.653 642.131 193.904 639.711 192.511C637.29 191.112 635.328 192.595 635.328 195.823Z" fill="#162F4D"/>
<path id="Vector_23" d="M674.703 218.08C674.703 221.303 676.662 225.053 679.082 226.451C681.503 227.844 683.467 226.362 683.467 223.138C683.467 219.91 681.503 216.161 679.082 214.767C676.662 213.369 674.703 214.852 674.703 218.08Z" fill="#162F4D"/>
<path id="Vector_24" d="M657.831 239.28L639.944 228.955C637.365 227.467 634.142 229.327 634.142 232.308V237.014C634.142 241.71 636.652 246.05 640.718 248.4L658.601 258.725C661.179 260.213 664.402 258.353 664.402 255.372V250.666C664.402 245.97 661.898 241.631 657.831 239.28Z" fill="#F8DB8F"/>
<path id="Vector_25" d="M754.431 407.106C755.672 381.963 765.014 354.108 775.433 335.878C770.589 356.617 775.24 385.197 777.892 405.961C781.325 432.859 787.047 472.909 787.047 472.909C787.047 472.909 752.14 453.454 754.431 407.106Z" fill="#297036"/>
</g>
<path id="Vector_26" d="M755.844 152.532C758.344 159.472 760.853 160.917 761.785 164.532C762.716 168.147 761.621 170.478 763.344 178.032C765.071 185.584 763.343 206 763.343 206C763.343 206 739.503 216 736.001 209.5C732.5 203 701 203 703.845 198.532C706.691 194.064 662.691 179.064 652.345 179.532C642 180 633.844 171.5 633.844 171.5C635.844 165.103 624.076 165.959 623 161.5C621.927 157.037 625.711 147.388 628.845 141.032C631.981 134.682 631.697 136.16 633.844 131.472C635.992 126.784 641.477 125.414 644.344 124.532C644.344 124.532 647.756 119.111 654.844 116.032C661.929 112.953 666.344 114.532 672.344 112.032C672.344 112.032 681.344 113.293 685.844 109.407C690.344 105.52 703.879 107.832 713.344 109.407C722.811 110.981 729.074 118.147 732.844 124.532C736.615 130.916 741.894 133.721 746.344 141.032C750.79 148.344 751.701 141.032 755.844 152.532Z" fill="#4D2316"/>
</g>
<g id="plant-bnb" clip-path="url(#clip2)">
<g id="Group_21">
<g id="Group_22">
<path id="Vector_27" d="M234.685 510.231C228.884 510.231 223.196 507.17 219.755 501.515L202.352 472.931C196.896 463.968 199.151 451.891 207.388 445.954C215.626 440.022 226.726 442.475 232.183 451.433L249.582 480.017C255.039 488.98 252.788 501.057 244.55 506.994C241.51 509.183 238.077 510.231 234.685 510.231Z" fill="#2B5D99"/>
<path id="Vector_28" d="M450.549 819.635L263.186 512.081L263.218 512.059L249.608 489.703C246.593 484.752 240.46 483.396 235.91 486.677C230.865 490.311 228.392 496.574 228.987 502.7C229.093 505.122 229.765 507.545 231.088 509.716L429.252 834.997C432.152 839.755 433.087 845.435 431.884 850.993C430.681 856.551 427.52 861.186 422.975 864.039L355.71 906.295C349.597 910.13 347.504 918.635 351.029 925.285C353.397 929.744 357.694 932.235 362.11 932.235C364.275 932.235 366.475 931.635 368.484 930.372L435.752 888.116C446.31 881.485 453.971 870.274 456.758 857.358C459.552 844.442 457.291 830.695 450.549 819.635Z" fill="#B6C5CE"/>
<path id="Vector_29" d="M73.6549 611.257C67.854 611.257 62.1662 608.196 58.7214 602.541L41.3185 573.957C35.8656 564.995 38.1204 552.918 46.3543 546.981C54.5962 541.048 65.6962 543.501 71.1491 552.46L88.552 581.044C94.0088 590.007 91.754 602.083 83.5162 608.02C80.4759 610.209 77.0472 611.257 73.6549 611.257Z" fill="#2B5D99"/>
<path id="Vector_30" d="M443.552 945.214C443.552 895.425 415.726 837.576 381.404 816.018C365.272 805.885 350.578 805.572 339.53 813.253V813.246L315.075 828.618L315.083 828.625C302.469 837.197 294.535 856.106 294.535 882.692C294.535 932.481 322.358 990.323 356.681 1011.89C371.759 1021.35 385.575 1022.25 396.333 1016.06L396.33 1016.06L422.807 999.414H422.784C435.526 990.906 443.552 971.944 443.552 945.214Z" fill="#162F4D"/>
<path id="Vector_31" d="M418.833 960.772C418.833 1010.56 391.01 1033.45 356.684 1011.89C322.362 990.323 294.535 932.481 294.535 882.692C294.535 832.899 322.362 810.011 356.684 831.576C391.01 853.134 418.833 910.976 418.833 960.772Z" fill="#2B5D99"/>
<path id="Vector_32" d="M396.339 946.632C396.339 978.4 378.587 993 356.691 979.246C334.791 965.491 317.043 928.586 317.043 896.825C317.043 865.06 334.794 850.46 356.691 864.214C378.587 877.969 396.339 914.867 396.339 946.632Z" fill="#D6E5E5"/>
<path id="Vector_33" d="M380.228 936.52C380.228 955.379 369.693 964.053 356.69 955.881C343.686 947.716 333.145 925.804 333.145 906.941C333.145 888.077 343.686 879.411 356.69 887.576C369.693 895.744 380.228 917.656 380.228 936.52Z" fill="#BF0025"/>
<path id="Vector_34" d="M493.413 736.115L493.223 736.106C494.984 719.207 483.555 701.215 461.364 688.068L370.084 632.636C339.264 614.384 294.998 610.94 265.159 624.474C225.512 642.466 190.876 664.223 162.235 689.13C151.662 698.322 147.609 709.702 149.645 721.193H149.642L149.645 721.197C150.54 726.245 152.613 731.314 155.823 736.229L180.067 795.2C182.877 803.719 189.694 812.123 200.275 819.172L273.551 866.783C296.346 881.965 330.168 887.505 357.29 880.498C404.174 868.376 440.397 845.625 459.69 816.172C461.045 814.105 462.097 811.979 462.871 809.811L462.881 809.786C463.006 809.425 463.119 809.06 463.232 808.698L486.087 753.741C486.616 752.97 487.145 752.199 487.655 751.424C490.726 746.743 492.523 741.801 493.148 736.749L493.413 736.115Z" fill="#BF0025"/>
<path id="Vector_35" d="M162.234 689.13C140.681 707.87 146.162 735.675 175.224 755.031L263.473 812.372C290.927 830.663 331.659 837.33 364.324 828.891C420.792 814.295 464.421 786.891 487.653 751.42C501.095 730.905 490.472 705.316 461.363 688.068L370.075 632.636C339.263 614.384 294.992 610.94 265.157 624.474C225.51 642.466 190.874 664.223 162.234 689.13Z" fill="#EA2642"/>
<path id="Vector_36" d="M307.145 649.605C324.537 649.605 342.075 654.076 355.298 661.867L446.421 717.207L446.704 717.375C457.614 723.836 461.595 729.949 462.543 732.275C443.624 760.986 406.243 783.765 357.25 796.428C350.279 798.228 342.63 799.141 334.514 799.141C314.375 799.141 293.806 793.449 279.496 783.916L279.351 783.818L279.205 783.727L191.117 726.492C184.681 722.184 181.572 718.295 180.354 716.177C180.621 715.895 180.965 715.564 181.39 715.195C207.796 692.226 239.954 672.068 276.97 655.274C285.026 651.618 295.741 649.605 307.145 649.605Z" fill="#BF0025"/>
<path id="Vector_37" d="M279.346 783.821L279.492 783.916C293.802 793.449 314.37 799.141 334.511 799.141C342.627 799.141 350.272 798.228 357.243 796.428C375.785 791.635 392.656 785.393 407.501 777.93L355.292 746.227C342.072 738.432 324.53 733.966 307.14 733.966C295.737 733.966 285.021 735.978 276.966 739.63C264.093 745.474 251.823 751.728 240.16 758.361L279.2 783.727L279.346 783.821Z" fill="#8F001C"/>
<path id="Vector_38" d="M362.361 918.168C358.832 911.516 351.019 909.239 344.907 913.077L329.361 922.842C313.704 932.681 293.621 927.53 283.638 911.137L102.185 613.085L88.5752 590.729C85.5594 585.779 79.4265 584.422 74.8765 587.703C67.6588 592.9 65.6833 603.484 70.4639 611.332L80.8798 628.439L262.333 926.491C273.781 945.298 292.84 955.621 312.319 955.621C322.488 955.621 332.771 952.807 342.139 946.923L357.687 937.158C363.797 933.319 365.894 924.814 362.361 918.168Z" fill="#B6C5CE"/>
<path id="Vector_39" d="M122.316 685.215C117.9 685.215 113.605 682.722 111.241 678.261C107.711 671.614 109.804 663.11 115.916 659.269L276.878 558.164C282.99 554.323 290.807 556.604 294.333 563.251C297.863 569.901 295.77 578.406 289.658 582.242L128.696 683.352C126.684 684.616 124.486 685.215 122.316 685.215Z" fill="#B6C5CE"/>
<g id="Group_23" style="mix-blend-mode:multiply" opacity="0.1">
<g id="Vector_40" style="mix-blend-mode:multiply" opacity="0.1">
<path d="M327.586 786.576C397.661 786.576 454.467 724.772 454.467 648.531C454.467 572.291 397.661 510.485 327.586 510.485C257.512 510.485 200.705 572.291 200.705 648.531C200.705 724.772 257.512 786.576 327.586 786.576Z" stroke="#191326" stroke-width="3"/>
</g>
</g>
</g>
</g>
<g id="Group_24">
<path id="Vector_41" d="M128.682 930.009C128.682 930.009 114.722 848.222 222.764 848.222C222.764 848.222 222.158 887.648 198.485 908.147C174.813 928.647 128.682 930.009 128.682 930.009Z" fill="#47B85B"/>
<path id="Vector_42" d="M222.762 848.222C222.762 848.222 222.155 887.7 198.483 908.147C174.81 928.595 128.68 930.009 128.68 930.009C149.135 897.977 176.692 876.166 196.54 862.954C208.195 855.195 222.762 848.222 222.762 848.222Z" fill="#399349"/>
<path id="Vector_43" d="M97.1197 889.117C97.1197 889.117 111.08 807.33 3.03711 807.33C3.03711 807.33 3.6441 846.755 27.3165 867.255C50.9891 887.754 97.1197 889.117 97.1197 889.117Z" fill="#47B85B"/>
<path id="Vector_44" d="M97.1196 889.117C97.1196 889.117 50.9278 887.702 27.3165 867.255C3.6441 846.808 3.03711 807.33 3.03711 807.33C3.03711 807.33 23.6746 817.448 31.8688 822.429C54.7519 836.427 85.0402 859.338 97.1196 889.117Z" fill="#399349"/>
<path id="Vector_45" d="M115.937 1018.25L109.867 1017.98C109.928 1017.2 114.48 939.813 94.2677 890.007C82.4918 860.91 52.871 838.418 30.1094 824.63L33.5692 820.331C57.0591 834.539 87.6519 857.869 99.9736 888.278C120.61 939.028 115.998 1017.46 115.937 1018.25Z" fill="#2B6E37"/>
<path id="Vector_46" d="M24.4853 832.507L51.6174 833.046L51.4776 838.289L24.3457 837.75L24.4853 832.507Z" fill="#2B6E37"/>
<path id="Vector_47" d="M71.8864 835.038L74.6522 852.444L68.6369 853.156L65.8711 835.751L71.8864 835.038Z" fill="#2B6E37"/>
<path id="Vector_48" d="M57.3832 862.103L82.5727 862.212L82.543 867.454L57.3535 867.346L57.3832 862.103Z" fill="#2B6E37"/>
<path id="Vector_49" d="M114.234 957.847L108.953 955.278C114.294 946.994 120 938.081 126.01 928.697C146.89 896.087 174.872 873.806 194.72 860.856L198.362 865.05C178.999 877.685 151.685 899.442 131.351 931.266C125.341 940.65 119.575 949.563 114.234 957.847Z" fill="#2B6E37"/>
<path id="Vector_50" d="M205.467 872.998L205.977 878.225L176.506 880.369L175.996 875.142L205.467 872.998Z" fill="#2B6E37"/>
<path id="Vector_51" d="M160.989 876.033L163.805 890.662L157.821 891.523L155.004 876.893L160.989 876.033Z" fill="#2B6E37"/>
<path id="Vector_52" d="M178.757 901.261L179.255 906.489L146.818 908.793L146.32 903.566L178.757 901.261Z" fill="#2B6E37"/>
<path id="Vector_53" d="M84.5523 890.689C69.5605 888.855 41.9425 883.664 25.1291 869.089C0.910481 848.118 0 809.007 0 807.381C0 806.7 0.303494 806.018 0.849767 805.494C1.39604 804.97 2.24581 804.708 3.03486 804.708C38.1185 804.708 64.3401 813.201 81.0318 829.873C105.737 854.619 100.395 888.068 100.152 889.483L94.1428 888.697L97.1174 889.064L94.1428 888.697C94.2041 888.383 99.3019 856.139 76.4196 833.228C61.4267 818.286 37.815 810.475 6.19125 809.95C6.85886 819.02 10.4401 848.904 29.4387 865.366C44.9773 878.841 71.1991 883.716 85.4028 885.446L84.5523 890.689Z" fill="#4D2419"/>
<path id="Vector_54" d="M128.68 932.63C127.162 932.63 125.888 931.686 125.706 930.376C125.463 928.96 120.061 895.512 144.826 870.765C161.458 854.093 187.68 845.6 222.763 845.6C223.552 845.6 224.341 845.862 224.948 846.386C225.555 846.911 225.858 847.54 225.798 848.274C225.798 849.951 224.887 889.01 200.608 909.981C176.389 930.953 130.683 932.578 128.741 932.63H128.68ZM219.606 850.843C187.982 851.314 164.431 859.179 149.439 874.12C130.137 893.362 130.744 919.261 131.412 927.178C141.67 926.496 177.118 922.878 196.359 906.259C215.358 889.849 218.939 859.965 219.606 850.843Z" fill="#4D2419"/>
<path id="Vector_55" d="M115.937 1018.25L109.867 1017.98C109.928 1017.2 114.48 939.813 94.2677 890.007C82.4918 860.91 52.871 838.418 30.1094 824.63L33.5692 820.331C57.0591 834.539 87.6519 857.869 99.9736 888.278C120.61 939.028 115.998 1017.46 115.937 1018.25Z" fill="#4D2419"/>
<path id="Vector_56" d="M24.4853 832.507L51.6174 833.046L51.4776 838.289L24.3457 837.75L24.4853 832.507Z" fill="#4D2419"/>
<path id="Vector_57" d="M71.8864 835.038L74.6522 852.444L68.6369 853.156L65.8711 835.751L71.8864 835.038Z" fill="#4D2419"/>
<path id="Vector_58" d="M57.3832 862.103L82.5727 862.212L82.543 867.454L57.3535 867.346L57.3832 862.103Z" fill="#4D2419"/>
<path id="Vector_59" d="M114.234 957.847L108.953 955.278C114.294 946.994 120 938.081 126.01 928.697C146.89 896.087 174.872 873.806 194.72 860.856L198.362 865.05C178.999 877.685 151.685 899.442 131.351 931.266C125.341 940.65 119.575 949.563 114.234 957.847Z" fill="#4D2419"/>
<path id="Vector_60" d="M205.467 872.998L205.977 878.225L176.506 880.369L175.996 875.142L205.467 872.998Z" fill="#4D2419"/>
<path id="Vector_61" d="M160.989 876.033L163.805 890.662L157.821 891.523L155.004 876.893L160.989 876.033Z" fill="#4D2419"/>
<path id="Vector_62" d="M178.757 901.261L179.255 906.489L146.818 908.793L146.32 903.566L178.757 901.261Z" fill="#4D2419"/>
</g>
<path id="Vector_63" d="M333.871 798.947C411.368 798.947 474.194 730.611 474.194 646.316C474.194 562.021 411.368 493.684 333.871 493.684C256.375 493.684 193.549 562.021 193.549 646.316C193.549 730.611 256.375 798.947 333.871 798.947Z" fill="#2775CA"/>
<path id="Vector_64" d="M308.869 753.182C308.869 756.723 306.236 758.744 303.136 757.733C260.701 743.073 230.033 699.779 230.033 648.733C230.033 597.687 260.856 554.393 303.136 539.733C306.391 538.723 308.869 540.744 308.869 544.28V553.21C308.869 555.568 307.165 558.431 304.994 559.277C271.543 572.417 247.536 607.459 247.536 648.565C247.536 689.67 271.543 724.712 305.153 738.189C307.169 739.031 309.027 741.726 309.027 744.256V753.182H308.872H308.869ZM342.972 717.916C342.972 720.61 340.959 722.631 338.636 722.631H329.962C327.485 722.631 325.624 720.442 325.624 717.916V702.754C306.42 699.891 297.127 688.266 294.649 672.431C294.553 671.793 294.584 671.139 294.741 670.515C294.898 669.891 295.177 669.311 295.56 668.815C295.942 668.319 296.418 667.919 296.956 667.642C297.494 667.365 298.08 667.218 298.675 667.21H308.588C310.601 667.21 312.459 668.894 312.924 671.084C314.785 680.519 319.74 687.761 335.227 687.761C346.533 687.761 354.588 680.852 354.588 670.579C354.588 660.305 349.788 656.428 333.214 653.396C308.588 650.028 296.972 641.94 296.972 620.88C296.972 604.708 308.124 592.242 325.624 589.544V574.719C325.624 572.024 327.64 570.003 329.962 570.003H338.636C341.114 570.003 342.972 572.193 342.972 574.719V589.88C357.065 592.575 366.049 601.337 368.991 615.824C369.611 618.519 367.598 621.217 364.965 621.217H355.672C353.659 621.217 352.111 619.701 351.491 617.68C349.011 608.414 342.972 604.54 332.44 604.54C320.824 604.54 314.785 610.603 314.785 619.196C314.785 628.294 318.191 632.842 336.001 635.537C360.162 639.073 372.556 646.656 372.556 668.894C372.556 685.908 360.94 699.558 342.972 702.758V717.919V717.916ZM365.014 757.961C361.762 758.972 359.285 756.951 359.285 753.414V744.484C359.285 741.789 360.833 739.431 363.156 738.421C396.765 724.944 420.772 689.901 420.772 648.796C420.772 607.691 396.611 572.817 363.001 559.34C360.988 558.498 359.13 555.803 359.13 553.277V544.347C359.13 540.81 361.762 538.621 364.859 539.8C386.1 547.183 404.631 561.723 417.773 581.317C430.915 600.912 437.987 624.545 437.965 648.8C438.12 699.845 407.453 743.14 365.014 757.965V757.961Z" fill="white"/>
<g id="Vector_65" style="mix-blend-mode:multiply" opacity="0.2">
<path d="M333.871 793.972C408.843 793.972 469.62 727.864 469.62 646.316C469.62 564.768 408.843 498.66 333.871 498.66C258.9 498.66 198.123 564.768 198.123 646.316C198.123 727.864 258.9 793.972 333.871 793.972Z" stroke="#191326" stroke-width="2.837"/>
</g>
</g>
</g>
<defs>
<linearGradient id="paint0_linear" x1="564" y1="0" x2="564" y2="723" gradientUnits="userSpaceOnUse">
<stop offset="0.40625" stop-color="#9AF4EF"/>
<stop offset="0.791667" stop-color="#B0EB81"/>
<stop offset="1" stop-color="#71BE63"/>
</linearGradient>
<clipPath id="clip0">
<rect width="1024" height="1024" fill="white"/>
</clipPath>
<clipPath id="clip1">
<rect width="650" height="650" fill="white" transform="matrix(-1 0 0 1 1025 115)"/>
</clipPath>
<clipPath id="clip2">
<rect width="600" height="600" fill="white" transform="translate(0 420)"/>
</clipPath>
</defs>
</svg>
