<svg width="264" height="264" viewBox="0 0 264 264" fill="none" xmlns="http://www.w3.org/2000/svg">
<path d="M182.072 116.674C182.072 93.888 168.217 67.4158 151.127 57.5485C143.096 52.9119 135.779 52.7689 130.28 56.2836V56.2816L104.515 70.7312L104.519 70.7332C98.2369 74.6588 94.2871 83.3096 94.2871 95.4751C94.2871 118.263 108.141 144.733 125.231 154.601C132.735 158.933 139.616 159.342 144.973 156.51L144.971 156.512L171.744 141.479H171.734C178.076 137.585 182.072 128.908 182.072 116.674Z" fill="#2B5D99"/>
<path d="M112.97 76.3591C110.849 76.3591 108.97 74.8404 108.587 72.6792C108.16 70.2562 109.776 67.946 112.199 67.5169C112.984 67.38 131.597 64.1432 145.191 66.4756C147.616 66.8905 149.243 69.1927 148.828 71.6178C148.413 74.0428 146.113 75.6683 143.684 75.2553C131.603 73.1828 113.927 76.2584 113.75 76.2906C113.488 76.337 113.228 76.3591 112.97 76.3591Z" fill="#162F4D"/>
<path d="M127.146 58.0402L135.64 62.8601C136.335 63.2549 137.09 63.4402 137.833 63.4402C139.384 63.4402 140.893 62.6305 141.712 61.1843C142.927 59.0453 142.176 56.3262 140.037 55.1116L137.859 53.877C135.082 54.0341 132.526 54.8478 130.278 56.2839L130.28 56.2819L127.146 58.0402Z" fill="#162F4D"/>
<path d="M152.847 58.6084C152.74 63.1362 152.571 72.8646 152.918 78.4177C153.067 80.7783 155.026 82.595 157.359 82.595C157.453 82.595 157.548 82.593 157.641 82.585C160.096 82.4319 161.963 80.317 161.81 77.8618C161.619 74.7962 161.599 70.2079 161.637 66.0608C158.867 63.1302 155.919 60.6064 152.847 58.6084Z" fill="#162F4D"/>
<path d="M163.743 95.9586C163.018 95.9586 162.283 95.7814 161.604 95.4068C156.875 92.8105 141.751 92.3634 133.333 92.6877C130.904 92.7884 128.806 90.8669 128.709 88.4096C128.614 85.9503 130.53 83.8817 132.989 83.7851C135.472 83.6904 157.477 82.9814 165.89 87.5979C168.047 88.7822 168.835 91.4912 167.653 93.6464C166.841 95.1228 165.316 95.9586 163.743 95.9586Z" fill="#162F4D"/>
<path d="M175.669 87.8599C173.003 91.1691 166.847 98.9498 163.941 103.778C162.672 105.885 163.351 108.622 165.46 109.891C166.177 110.324 166.97 110.529 167.752 110.529C169.264 110.529 170.737 109.76 171.573 108.372C173.313 105.48 176.523 101.198 179.22 97.7292C178.252 94.3817 177.059 91.0724 175.669 87.8599Z" fill="#162F4D"/>
<path d="M171.023 125.06C169.929 125.06 168.834 124.661 167.973 123.851C165.107 121.16 152.013 116.217 143.63 113.569C141.284 112.828 139.985 110.324 140.726 107.98C141.467 105.633 143.967 104.33 146.313 105.073C150.007 106.239 168.707 112.316 174.074 117.36C175.867 119.043 175.954 121.863 174.27 123.656C173.394 124.588 172.209 125.06 171.023 125.06Z" fill="#162F4D"/>
<path d="M181.897 120.96L181.533 121.253C174.616 126.799 169.911 130.544 167.546 132.383C165.605 133.893 165.254 136.691 166.765 138.633C167.643 139.763 168.956 140.353 170.283 140.353C171.24 140.353 172.203 140.047 173.015 139.414C173.996 138.651 175.375 137.563 177.13 136.171C179.692 132.369 181.375 127.233 181.897 120.96Z" fill="#162F4D"/>
<path d="M164.974 141.686C156.438 139.243 150.125 132.385 150.063 132.316C148.417 130.495 145.606 130.35 143.781 131.994C141.952 133.64 141.805 136.457 143.451 138.284C143.735 138.598 149.686 145.126 158.593 148.863L167.631 143.789C167.075 142.802 166.148 142.023 164.974 141.686Z" fill="#162F4D"/>
<path d="M156.176 131.209C156.176 153.995 142.321 164.468 125.231 154.603C108.141 144.736 94.2871 118.264 94.2871 95.4774C94.2871 72.6912 108.141 62.2156 125.231 72.083C142.321 81.9503 156.176 108.42 156.176 131.209Z" fill="#162F4D"/>
<path d="M161.014 40.8592C151.817 35.5499 143.44 35.3868 137.144 39.4111V39.409L108.988 55.2001C113.327 52.9865 113.327 52.9865 108.988 55.2001L112.866 60.9867C118.026 58.8276 124.429 59.4802 131.364 63.4843C147.578 72.8461 160.869 97.149 162.188 119.075L162.198 119.085L166.69 121.679L166.795 121.74L196.32 104.692C194.87 79.5392 179.623 51.6028 161.014 40.8592Z" fill="#EA2642"/>
<path d="M264 166.196C264 147.132 252.41 124.987 238.112 116.733C231.393 112.853 225.272 112.734 220.671 115.673V115.671L199.116 127.76L199.122 127.762C193.865 131.045 190.56 138.284 190.56 148.462C190.56 167.524 202.151 189.669 216.448 197.925C222.726 201.549 228.482 201.891 232.964 199.523L255.359 186.946H255.351C260.656 183.689 264 176.428 264 166.196Z" fill="#2B5D99"/>
<path d="M206.19 132.467C204.417 132.467 202.844 131.196 202.526 129.39C202.167 127.363 203.519 125.43 205.547 125.071C206.204 124.955 221.773 122.247 233.147 124.199C235.175 124.548 236.537 126.473 236.189 128.501C235.842 130.53 233.917 131.889 231.886 131.545C221.779 129.811 206.991 132.385 206.842 132.411C206.625 132.449 206.405 132.467 206.19 132.467Z" fill="#162F4D"/>
<path d="M218.049 117.142L225.155 121.176C225.737 121.504 226.369 121.661 226.992 121.661C228.289 121.661 229.55 120.983 230.237 119.772C231.252 117.984 230.623 115.71 228.835 114.692L227.014 113.659C224.69 113.79 222.55 114.473 220.671 115.673V115.671L218.049 117.142Z" fill="#162F4D"/>
<path d="M239.55 117.619C239.462 121.406 239.319 129.545 239.611 134.19C239.733 136.166 241.373 137.684 243.325 137.684C243.403 137.684 243.484 137.682 243.56 137.678C245.617 137.549 247.176 135.779 247.049 133.726C246.888 131.16 246.872 127.321 246.904 123.853C244.588 121.402 242.12 119.289 239.55 117.619Z" fill="#162F4D"/>
<path d="M248.666 148.865C248.06 148.865 247.446 148.718 246.876 148.403C242.92 146.232 230.267 145.855 223.226 146.127C221.195 146.212 219.437 144.605 219.358 142.548C219.278 140.492 220.881 138.76 222.938 138.681C225.016 138.6 243.426 138.008 250.463 141.871C252.268 142.86 252.926 145.126 251.937 146.931C251.259 148.166 249.984 148.865 248.666 148.865Z" fill="#162F4D"/>
<path d="M258.644 142.089C256.413 144.858 251.263 151.368 248.831 155.406C247.77 157.169 248.338 159.459 250.102 160.52C250.703 160.883 251.365 161.054 252.02 161.054C253.285 161.054 254.515 160.412 255.216 159.25C256.673 156.831 259.358 153.247 261.613 150.345C260.806 147.545 259.807 144.776 258.644 142.089Z" fill="#162F4D"/>
<path d="M254.755 173.21C253.84 173.21 252.924 172.875 252.205 172.2C249.808 169.947 238.853 165.814 231.84 163.596C229.878 162.976 228.79 160.883 229.409 158.921C230.029 156.957 232.122 155.868 234.086 156.49C237.175 157.467 252.817 162.549 257.309 166.768C258.809 168.176 258.882 170.535 257.474 172.035C256.739 172.815 255.748 173.21 254.755 173.21Z" fill="#162F4D"/>
<path d="M263.853 169.782L263.549 170.025C257.762 174.664 253.826 177.798 251.849 179.337C250.223 180.6 249.931 182.94 251.194 184.566C251.929 185.51 253.029 186.004 254.139 186.004C254.938 186.004 255.744 185.748 256.425 185.22C257.245 184.582 258.399 183.671 259.867 182.505C262.008 179.325 263.416 175.029 263.853 169.782Z" fill="#162F4D"/>
<path d="M249.696 187.12C242.555 185.075 237.274 179.339 237.222 179.281C235.844 177.758 233.494 177.635 231.965 179.013C230.436 180.389 230.313 182.745 231.691 184.274C231.927 184.538 236.906 189.998 244.358 193.124L251.917 188.878C251.454 188.054 250.678 187.402 249.696 187.12Z" fill="#162F4D"/>
<path d="M242.336 178.354C242.336 197.416 230.746 206.179 216.448 197.923C202.151 189.669 190.56 167.524 190.56 148.462C190.56 129.398 202.149 120.636 216.448 128.89C230.746 137.144 242.336 159.29 242.336 178.354Z" fill="#162F4D"/>
<path d="M223.324 70.7532C223.292 69.5367 222.539 68.3786 221.032 67.5084C217.628 65.5426 211.684 65.7904 207.757 68.0583C205.577 69.3151 204.482 70.9285 204.512 72.4532H204.508V110.664H204.51C204.538 111.886 205.291 113.049 206.802 113.923C210.206 115.887 216.15 115.641 220.079 113.371C222.261 112.112 223.358 110.495 223.324 108.968H223.328V70.7532H223.324Z" fill="#B6C5CE"/>
<path d="M220.079 75.1725C216.149 77.4404 210.206 77.6882 206.802 75.7224C203.4 73.7586 203.827 70.3264 207.756 68.0585C211.686 65.7885 217.63 65.5428 221.032 67.5086C224.434 69.4724 224.007 72.9046 220.079 75.1725Z" fill="#D6E5E5"/>
<path d="M218.295 52.7003C218.281 52.1303 217.946 51.5885 217.243 51.1817C215.652 50.2632 212.875 50.378 211.038 51.4395C210.019 52.0256 209.525 52.7789 209.537 53.4899L209.519 53.4919V71.3535H209.521C209.533 71.9235 209.886 72.4673 210.593 72.8762C212.182 73.7946 214.961 73.6798 216.796 72.6184C217.817 72.0302 218.329 71.2729 218.313 70.5599H218.315V52.6983L218.295 52.7003Z" fill="#B6C5CE"/>
<path d="M216.796 54.7648C214.961 55.8243 212.182 55.9391 210.592 55.0227C209.001 54.1042 209.201 52.4989 211.038 51.4395C212.874 50.378 215.652 50.2632 217.243 51.1817C218.832 52.1001 218.633 53.7034 216.796 54.7648Z" fill="#D6E5E5"/>
<path d="M215.501 54.0156C214.49 54.5997 212.963 54.6622 212.087 54.1566C211.213 53.6531 211.322 52.7709 212.333 52.1868C213.344 51.6027 214.87 51.5402 215.747 52.0458C216.621 52.5493 216.512 53.4335 215.501 54.0156Z" fill="#B6C5CE"/>
<path d="M252.453 126.123L242.042 120.112C237.961 117.756 232.908 117.873 228.94 120.412C227.258 121.49 226.43 123.504 226.871 125.452C228.142 131.069 231.741 135.883 236.771 138.689L244.243 142.856L252.453 126.123Z" fill="#FF4D73"/>
<path d="M254.135 130.753C254.135 135.251 251.402 140.476 248.028 142.423C244.654 144.371 241.919 142.305 241.919 137.807C241.919 133.309 244.654 128.085 248.028 126.137C251.402 124.189 254.135 126.256 254.135 130.753Z" fill="#D6E5E5"/>
<path d="M252.531 131.68C252.531 134.997 250.515 138.848 248.028 140.284C245.54 141.72 243.524 140.196 243.524 136.88C243.524 133.563 245.54 129.712 248.028 128.276C250.515 126.84 252.531 128.364 252.531 131.68Z" fill="white"/>
<path d="M233.703 207.845L201.859 226.228C193.71 230.933 183.669 230.933 175.52 226.228L84.9331 173.929V155.979L243.814 182.805V190.332C243.814 197.557 239.961 204.232 233.703 207.845Z" fill="#162F4D"/>
<path d="M235.904 125.011L183.31 94.6454L169.032 35.983L120.102 7.73438L67.5305 38.0858L52.4727 85.9442V139.382L177.475 211.537C181.026 213.209 184.857 214.033 188.69 214.033V214.057C192.515 214.057 196.338 213.213 199.881 211.547L243.814 186.185V136.856C243.814 131.283 240.408 126.892 235.904 125.011Z" fill="#BF0025"/>
<path d="M169.031 35.9829L183.311 94.6453L125.428 128.064L116.461 66.3363L169.031 35.9829Z" fill="#EA2642"/>
<path d="M228.984 146.78L238.795 126.681L183.311 94.6455L125.428 128.064L190.807 165.812L228.984 146.78Z" fill="#FF4D73"/>
<path d="M224.583 125.752L206.494 136.198C195.476 142.558 188.69 154.313 188.69 167.034V214.057C192.515 214.057 196.338 213.213 199.881 211.549L243.814 186.185V136.856C243.814 126.987 233.131 120.818 224.583 125.752Z" fill="#EA2642"/>
<path d="M230.974 135.003C232.865 135.003 234.905 136.505 234.905 138.935V183.119L197.599 204.659V169.113C197.599 159.604 202.715 150.746 210.947 145.99L229.038 135.547C229.663 135.186 230.315 135.003 230.974 135.003Z" fill="#D6E5E5"/>
<path d="M58.3662 89.3463L71.6133 46.4004L110.086 68.6125L116.461 122.888L58.3662 89.3463Z" fill="#2C92BF"/>
<path d="M121.281 68.4514L129.998 125.426L178.074 97.6688L166.001 42.6299L121.281 68.4514Z" fill="#2C92BF"/>
<path d="M87.7852 171.5C87.7852 148.712 73.9318 122.242 56.8416 112.374C48.8091 107.738 41.4937 107.595 35.993 111.109V111.105L10.2279 125.557L10.2319 125.559C3.94977 129.482 0 138.135 0 150.301C0 173.087 13.8534 199.559 30.9456 209.424C38.4483 213.759 45.3287 214.166 50.6863 211.334V211.336L77.4565 196.302H77.4465C83.7891 192.409 87.7852 183.732 87.7852 171.5Z" fill="#2B5D99"/>
<path d="M18.6832 131.182C16.5622 131.182 14.683 129.664 14.3024 127.502C13.8733 125.081 15.4907 122.769 17.9137 122.342C18.6993 122.203 37.3101 118.966 50.9057 121.299C53.3287 121.716 54.9582 124.018 54.5412 126.443C54.1263 128.866 51.8262 130.493 49.3991 130.079C37.3182 128.006 19.6419 131.084 19.4626 131.114C19.2008 131.16 18.941 131.182 18.6832 131.182Z" fill="#162F4D"/>
<path d="M32.8589 112.863L41.3546 117.683C42.0475 118.078 42.8028 118.265 43.548 118.265C45.0989 118.265 46.6055 117.454 47.4273 116.008C48.6418 113.869 47.8906 111.149 45.7515 109.937L43.5742 108.7C40.7947 108.857 38.2407 109.671 35.9929 111.107V111.105L32.8589 112.863Z" fill="#162F4D"/>
<path d="M58.5596 113.434C58.4529 117.961 58.2837 127.69 58.6321 133.243C58.7792 135.603 60.739 137.418 63.0713 137.418C63.166 137.418 63.2607 137.416 63.3533 137.41C65.8106 137.257 67.6757 135.142 67.5226 132.687C67.3313 129.621 67.3132 125.031 67.3494 120.886C64.582 117.955 61.6312 115.43 58.5596 113.434Z" fill="#162F4D"/>
<path d="M69.4562 150.782C68.7311 150.782 67.998 150.607 67.3172 150.232C62.5879 147.636 47.4636 147.187 39.0464 147.513C36.6173 147.612 34.5186 145.692 34.4239 143.233C34.3272 140.776 36.2427 138.705 38.702 138.611C41.1855 138.516 63.1922 137.805 71.6033 142.423C73.7605 143.606 74.548 146.315 73.3657 148.472C72.554 149.948 71.0313 150.782 69.4562 150.782Z" fill="#162F4D"/>
<path d="M81.3823 142.683C78.7155 145.994 72.5603 153.775 69.6538 158.601C68.3849 160.71 69.0637 163.447 71.1725 164.714C71.8916 165.147 72.6831 165.354 73.4646 165.354C74.9773 165.354 76.4496 164.585 77.2855 163.197C79.0277 160.305 82.2363 156.021 84.9333 152.555C83.9665 149.205 82.7721 145.896 81.3823 142.683Z" fill="#162F4D"/>
<path d="M76.7356 179.884C75.6419 179.884 74.5462 179.484 73.6862 178.676C70.82 175.983 57.726 171.042 49.343 168.392C46.9986 167.65 45.6974 165.149 46.4386 162.802C47.1798 160.456 49.6814 159.153 52.0279 159.898C55.7219 161.064 74.4193 167.141 79.7871 172.182C81.5797 173.868 81.6683 176.686 79.9824 178.478C79.1063 179.411 77.922 179.884 76.7356 179.884Z" fill="#162F4D"/>
<path d="M87.61 175.784L87.2455 176.078C80.3289 181.623 75.6238 185.367 73.2592 187.206C71.3175 188.717 70.967 191.516 72.4797 193.458C73.3558 194.586 74.6711 195.176 75.9984 195.176C76.9531 195.176 77.9159 194.87 78.7296 194.237C79.7105 193.476 81.0882 192.388 82.8425 190.995C85.4045 187.192 87.0884 182.058 87.61 175.784Z" fill="#162F4D"/>
<path d="M70.6867 196.511C62.1507 194.068 55.8383 187.21 55.7759 187.139C54.1303 185.321 51.3186 185.174 49.4937 186.819C47.6649 188.465 47.5179 191.283 49.1634 193.109C49.4474 193.424 55.3993 199.952 64.3079 203.688L73.3434 198.612C72.7875 197.625 71.861 196.848 70.6867 196.511Z" fill="#162F4D"/>
<path d="M61.8891 186.032C61.8891 208.818 48.0357 219.294 30.9456 209.426C13.8534 199.559 0 173.087 0 150.3C0 127.512 13.8534 117.039 30.9456 126.906C48.0357 136.773 61.8891 163.245 61.8891 186.032Z" fill="#162F4D"/>
<path d="M50.6862 179.565C50.6862 194.101 41.8461 200.782 30.9434 194.487C20.0408 188.193 11.2026 171.307 11.2026 156.768C11.2026 142.232 20.0408 135.551 30.9434 141.845C41.8461 148.14 50.6862 165.026 50.6862 179.565Z" fill="#D6E5E5"/>
<path d="M42.666 174.934C42.666 183.566 37.4191 187.534 30.9436 183.796C24.4701 180.058 19.2212 170.031 19.2212 161.399C19.2212 152.766 24.4701 148.798 30.9436 152.536C37.4191 156.273 42.666 166.301 42.666 174.934Z" fill="#BF0025"/>
<path d="M66.7269 95.6846C57.5303 90.3753 49.1554 90.2101 42.8571 94.2344V94.2324L14.7012 110.023C19.0397 107.81 19.0397 107.81 14.7012 110.023L18.5784 115.812C23.7387 113.651 30.1417 114.306 37.0765 118.31C53.2905 127.669 66.5819 151.974 67.9012 173.898L67.9092 173.909L72.4028 176.503L72.5076 176.563L102.033 159.515C100.583 134.365 85.3358 106.428 66.7269 95.6846Z" fill="#EA2642"/>
<path d="M18.5784 115.812C23.7387 113.651 30.1397 114.306 37.0765 118.31C53.2885 127.67 66.5819 151.975 67.9012 173.899L67.9092 173.909L72.4008 176.503C71.0735 151.262 55.7699 123.118 37.0765 112.324C28.5888 107.423 20.8021 106.912 14.7012 110.024L18.5784 115.812Z" fill="#BF0025"/>
<path d="M169.713 221.02C169.713 201.958 158.124 179.812 143.827 171.556C137.108 167.677 130.987 167.558 126.385 170.499L126.387 170.497L104.831 182.585H104.835C99.5801 185.871 96.2749 193.107 96.2749 203.285C96.2749 222.349 107.864 244.495 122.163 252.749C128.441 256.374 134.195 256.715 138.677 254.346V254.348L161.074 241.772H161.064C166.37 238.513 169.713 231.254 169.713 221.02Z" fill="#2B5D99"/>
<path d="M111.905 187.293C110.13 187.293 108.557 186.022 108.239 184.213C107.881 182.187 109.234 180.255 111.26 179.895C111.917 179.78 127.487 177.071 138.86 179.023C140.889 179.371 142.25 181.297 141.902 183.325C141.555 185.353 139.632 186.715 137.6 186.368C127.493 184.634 112.705 187.208 112.558 187.234C112.338 187.273 112.12 187.293 111.905 187.293Z" fill="#162F4D"/>
<path d="M123.764 171.967L130.87 175.999C131.45 176.33 132.083 176.485 132.705 176.485C134.004 176.485 135.263 175.806 135.95 174.597C136.967 172.807 136.339 170.533 134.548 169.518L132.727 168.484C130.403 168.615 128.266 169.296 126.385 170.497V170.495L123.764 171.967Z" fill="#162F4D"/>
<path d="M145.265 172.442C145.174 176.231 145.033 184.37 145.323 189.015C145.446 190.989 147.088 192.509 149.04 192.509C149.118 192.509 149.197 192.507 149.275 192.501C151.33 192.372 152.891 190.604 152.762 188.55C152.603 185.986 152.587 182.147 152.617 178.676C150.3 176.225 147.833 174.114 145.265 172.442Z" fill="#162F4D"/>
<path d="M154.379 203.688C153.773 203.688 153.159 203.541 152.591 203.229C148.635 201.055 135.982 200.681 128.94 200.953C126.908 201.037 125.152 199.43 125.071 197.374C124.993 195.317 126.594 193.585 128.652 193.504C130.729 193.426 149.138 192.832 156.178 196.695C157.98 197.686 158.641 199.95 157.65 201.754C156.971 202.991 155.696 203.688 154.379 203.688Z" fill="#162F4D"/>
<path d="M164.357 196.912C162.128 199.682 156.977 206.191 154.544 210.23C153.483 211.992 154.051 214.282 155.815 215.344C156.416 215.706 157.08 215.879 157.733 215.879C158.998 215.879 160.23 215.237 160.929 214.075C162.386 211.656 165.07 208.071 167.328 205.17C166.519 202.368 165.52 199.601 164.357 196.912Z" fill="#162F4D"/>
<path d="M160.47 228.035C159.556 228.035 158.639 227.701 157.918 227.024C155.521 224.772 144.566 220.637 137.553 218.422C135.591 217.801 134.504 215.706 135.124 213.745C135.744 211.783 137.837 210.691 139.799 211.314C142.889 212.29 158.533 217.374 163.022 221.592C164.523 223.002 164.597 225.36 163.187 226.859C162.452 227.64 161.463 228.035 160.47 228.035Z" fill="#162F4D"/>
<path d="M169.566 224.605L169.262 224.849C163.477 229.489 159.54 232.621 157.562 234.16C155.938 235.423 155.644 237.766 156.909 239.389C157.642 240.334 158.742 240.829 159.854 240.829C160.652 240.829 161.457 240.571 162.138 240.044C162.958 239.405 164.112 238.495 165.58 237.33C167.721 234.148 169.131 229.852 169.566 224.605Z" fill="#162F4D"/>
<path d="M155.409 241.945C148.268 239.901 142.987 234.162 142.935 234.104C141.557 232.583 139.207 232.46 137.68 233.836C136.149 235.214 136.026 237.57 137.404 239.099C137.64 239.361 142.619 244.821 150.071 247.947L157.632 243.703C157.167 242.878 156.392 242.225 155.409 241.945Z" fill="#162F4D"/>
<path d="M148.049 233.177C148.049 252.241 136.459 261.003 122.161 252.749C107.864 244.495 96.2729 222.349 96.2729 203.285C96.2729 184.221 107.864 175.459 122.161 183.715C136.459 191.969 148.049 214.115 148.049 233.177Z" fill="#162F4D"/>
<path d="M138.677 227.767C138.677 239.929 131.283 245.518 122.163 240.251C113.04 234.986 105.646 220.856 105.646 208.695C105.646 196.536 113.04 190.944 122.163 196.211C131.283 201.478 138.677 215.606 138.677 227.767Z" fill="#D6E5E5"/>
<path d="M131.968 223.894C131.968 231.115 127.579 234.434 122.163 231.308C116.745 228.18 112.356 219.791 112.356 212.571C112.356 205.348 116.745 202.028 122.163 205.156C127.579 208.282 131.968 216.673 131.968 223.894Z" fill="#BF0025"/>
<path d="M200.866 165.127V195.587C200.866 196.856 202.24 197.649 203.34 197.015C204.661 196.252 205.475 194.842 205.475 193.317V162.855C205.475 161.586 204.101 160.792 203.001 161.427C201.68 162.19 200.866 163.6 200.866 165.127Z" fill="#162F4D"/>
<path d="M210.085 159.799V190.259C210.085 191.53 211.459 192.324 212.558 191.689C213.88 190.926 214.693 189.516 214.693 187.989V157.529C214.693 156.258 213.32 155.465 212.22 156.099C210.899 156.863 210.085 158.272 210.085 159.799Z" fill="#162F4D"/>
<path d="M219.304 154.474V184.934C219.304 186.203 220.677 186.997 221.777 186.362C223.098 185.599 223.912 184.189 223.912 182.664V152.202C223.912 150.933 222.538 150.14 221.439 150.774C220.117 151.537 219.304 152.947 219.304 154.474Z" fill="#162F4D"/>
<path d="M228.522 149.147V179.607C228.522 180.876 229.896 181.67 230.996 181.035C232.317 180.272 233.131 178.864 233.131 177.337V146.875C233.131 145.606 231.757 144.812 230.657 145.447C229.336 146.21 228.522 147.62 228.522 149.147Z" fill="#162F4D"/>
<path d="M183.12 166.073L172.708 160.063C168.628 157.707 163.574 157.823 159.606 160.365C157.924 161.441 157.097 163.457 157.538 165.403C158.809 171.022 162.408 175.834 167.437 178.64L174.91 182.807L183.12 166.073Z" fill="#FF4D73"/>
<path d="M184.801 170.704C184.801 175.202 182.068 180.428 178.694 182.374C175.321 184.322 172.585 182.255 172.585 177.758C172.585 173.26 175.321 168.035 178.694 166.088C182.068 164.14 184.801 166.206 184.801 170.704Z" fill="#D6E5E5"/>
<path d="M183.198 171.631C183.198 174.948 181.182 178.799 178.694 180.235C176.207 181.671 174.19 180.146 174.19 176.831C174.19 173.516 176.207 169.663 178.694 168.227C181.182 166.793 183.198 168.315 183.198 171.631Z" fill="white"/>
<path d="M67.5308 38.0858L116.461 66.3364L169.03 35.983L120.102 7.73438L67.5308 38.0858Z" fill="#FF4D73"/>
<path d="M58.3662 89.3459L83.3438 103.767L111.727 82.5925L110.086 68.6122L96.3331 60.6724L58.5092 88.8887L58.3662 89.3459Z" fill="#83B2C6"/>
<path d="M129.998 125.426L146.635 115.82L171.633 68.3044L166.001 42.6299L160.567 45.7679L127.442 108.729L129.998 125.426Z" fill="#83B2C6"/>
</svg>
