<svg width="186" height="171" viewBox="0 0 186 171" fill="none" xmlns="http://www.w3.org/2000/svg">
<g clip-path="url(#clip0)">
<g clip-path="url(#clip1)">
<path d="M72.7517 25.7158C70.9534 25.7158 69.1903 24.8434 68.1236 23.2317L62.7287 15.0853C61.0371 12.5309 61.7361 9.08904 64.2898 7.39699C66.8436 5.7062 70.2846 6.40536 71.9762 8.9585L77.3698 17.1049C79.0615 19.6593 78.3637 23.1012 75.81 24.7932C74.8675 25.4171 73.8034 25.7158 72.7517 25.7158Z" fill="#2B5D99"/>
<path d="M139.67 113.896L81.5875 26.243L81.5976 26.2367L77.3785 19.8652C76.4436 18.4543 74.5424 18.0677 73.1319 19.0029C71.5682 20.0384 70.8015 21.8234 70.986 23.5694C71.0186 24.2598 71.2269 24.9501 71.6373 25.569L133.068 118.274C133.967 119.63 134.257 121.249 133.884 122.833C133.511 124.417 132.531 125.738 131.122 126.551L110.27 138.594C108.375 139.687 107.726 142.111 108.819 144.006C109.553 145.277 110.885 145.987 112.254 145.987C112.925 145.987 113.607 145.816 114.23 145.456L135.083 133.413C138.356 131.523 140.731 128.328 141.595 124.647C142.461 120.966 141.76 117.048 139.67 113.896V113.896Z" fill="#B6C5CE"/>
<path d="M22.8332 54.5083C21.0349 54.5083 19.2717 53.6359 18.2038 52.0242L12.8089 43.8778C11.1185 41.3234 11.8175 37.8815 14.37 36.1895C16.925 34.4987 20.366 35.1978 22.0564 37.751L27.4513 45.8974C29.1429 48.4518 28.4439 51.8937 25.8902 53.5857C24.9477 54.2096 23.8848 54.5083 22.8332 54.5083Z" fill="#2B5D99"/>
<path d="M137.501 149.686C137.501 135.496 128.875 119.009 118.235 112.865C113.234 109.977 108.679 109.888 105.254 112.077V112.075L97.6731 116.456L97.6756 116.458C93.7653 118.901 91.3057 124.29 91.3057 131.867C91.3057 146.057 99.9307 162.542 110.571 168.688C115.245 171.385 119.528 171.64 122.863 169.876L122.862 169.878L131.07 165.133H131.063C135.013 162.708 137.501 157.304 137.501 149.686V149.686Z" fill="#162F4D"/>
<path d="M129.838 154.12C129.838 168.31 121.213 174.832 110.572 168.688C99.932 162.542 91.3057 146.057 91.3057 131.867C91.3057 117.676 99.932 111.153 110.572 117.299C121.213 123.443 129.838 139.928 129.838 154.12Z" fill="#2B5D99"/>
<path d="M122.865 150.09C122.865 159.144 117.362 163.305 110.574 159.385C103.785 155.465 98.2832 144.947 98.2832 135.895C98.2832 126.842 103.786 122.681 110.574 126.601C117.362 130.521 122.865 141.037 122.865 150.09V150.09Z" fill="#D6E5E5"/>
<path d="M117.871 147.208C117.871 152.583 114.605 155.055 110.574 152.726C106.543 150.399 103.275 144.154 103.275 138.778C103.275 133.402 106.543 130.932 110.574 133.259C114.605 135.587 117.871 141.832 117.871 147.208V147.208Z" fill="#BF0025"/>
<path d="M152.958 90.0927L152.899 90.0902C153.445 85.2739 149.902 80.1463 143.023 76.3994L114.726 60.6011C105.172 55.3994 91.4493 54.4178 82.1993 58.2751C69.9086 63.4027 59.1715 69.6036 50.2929 76.7019C47.0151 79.3216 45.7589 82.5651 46.3901 85.84H46.3889L46.3901 85.8412C46.6675 87.2797 47.31 88.7245 48.3051 90.1253L55.8209 106.932C56.6918 109.36 58.8051 111.755 62.0854 113.764L84.8007 127.333C91.8672 131.66 102.352 133.239 110.76 131.242C125.294 127.787 136.523 121.303 142.504 112.909C142.924 112.32 143.25 111.714 143.49 111.096L143.493 111.089C143.532 110.986 143.567 110.882 143.602 110.779L150.687 95.1161C150.851 94.8965 151.015 94.6768 151.173 94.4559C152.125 93.1216 152.682 91.7132 152.876 90.2735L152.958 90.0927Z" fill="#BF0025"/>
<path d="M50.293 76.7019C43.6118 82.0429 45.3109 89.9672 54.32 95.4839L81.6773 111.826C90.1881 117.039 102.815 118.939 112.941 116.534C130.446 112.374 143.971 104.564 151.173 94.4546C155.34 88.6078 152.047 81.3149 143.023 76.3994L114.724 60.6011C105.172 55.3994 91.4481 54.4178 82.1993 58.2751C69.9086 63.4027 59.1715 69.6036 50.293 76.7019V76.7019Z" fill="#EA2642"/>
<path d="M95.2145 65.4375C100.606 65.4375 106.043 66.7116 110.142 68.9321L138.39 84.704L138.478 84.7517C141.86 86.5931 143.094 88.3354 143.388 88.9982C137.523 97.181 125.935 103.673 110.747 107.282C108.586 107.795 106.215 108.055 103.699 108.055C97.4558 108.055 91.0796 106.433 86.6434 103.716L86.5983 103.688L86.5531 103.662L59.246 87.3501C57.2507 86.1224 56.2869 85.0141 55.9092 84.4103C55.992 84.33 56.0987 84.2358 56.2304 84.1304C64.4163 77.5844 74.3854 71.8392 85.8604 67.053C88.3577 66.0111 91.6794 65.4375 95.2145 65.4375V65.4375Z" fill="#BF0025"/>
<path d="M86.5978 103.689L86.643 103.716C91.0791 106.433 97.4554 108.055 103.699 108.055C106.215 108.055 108.585 107.795 110.746 107.282C116.494 105.916 121.724 104.137 126.326 102.01L110.141 92.9747C106.043 90.753 100.605 89.4802 95.2141 89.4802C91.679 89.4802 88.3572 90.0538 85.8599 91.0944C81.8693 92.7601 78.0656 94.5425 74.4502 96.4329L86.5526 103.662L86.5978 103.689Z" fill="#8F001C"/>
<path d="M112.332 141.978C111.238 140.082 108.816 139.433 106.921 140.527L102.102 143.31C97.2482 146.114 91.0225 144.646 87.9279 139.974L31.6774 55.0293L27.4583 48.6577C26.5234 47.2469 24.6222 46.8602 23.2117 47.7954C20.9742 49.2766 20.3618 52.2929 21.8438 54.5297L25.0727 59.405L81.3233 144.35C84.8722 149.71 90.7803 152.652 96.819 152.652C99.9714 152.652 103.159 151.85 106.063 150.173L110.883 147.39C112.777 146.296 113.427 143.872 112.332 141.978V141.978Z" fill="#B6C5CE"/>
<path d="M37.9183 75.5862C36.5492 75.5862 35.2177 74.8757 34.4849 73.6042C33.3906 71.71 34.0394 69.2862 35.9343 68.1916L85.8324 39.3766C87.7273 38.282 90.1506 38.9322 91.2436 40.8264C92.3379 42.7218 91.6891 45.1456 89.7942 46.2389L39.8961 75.0552C39.2724 75.4155 38.591 75.5862 37.9183 75.5862Z" fill="#B6C5CE"/>
<path d="M37 171C57.4345 171 74 154.435 74 134C74 113.565 57.4345 97 37 97C16.5655 97 0 113.565 0 134C0 154.435 16.5655 171 37 171Z" fill="#F0B90B"/>
<path fill-rule="evenodd" clip-rule="evenodd" d="M21.3536 124.662L37.0156 109L43.2607 115.245L27.5986 130.907L21.3536 124.662V124.662ZM21.3646 143.377L46.3946 118.348L52.6396 124.593L27.6096 149.622L21.3646 143.377ZM55.755 127.726L30.7258 152.755L36.9708 159L62 133.97L55.755 127.725V127.726ZM12 134.013L18.245 127.768L24.4901 134.013L18.245 140.258L12 134.013Z" fill="#FFFDFA"/>
<g style="mix-blend-mode:multiply" opacity="0.2">
<path d="M37 170C56.8823 170 73 153.882 73 134C73 114.118 56.8823 98 37 98C17.1177 98 1 114.118 1 134C1 153.882 17.1177 170 37 170Z" stroke="#191326" stroke-width="2.837"/>
</g>
<path d="M104.957 108.082C128.551 108.082 147.677 89.7072 147.677 67.0409C147.677 44.3747 128.551 26 104.957 26C81.3629 26 62.2363 44.3747 62.2363 67.0409C62.2363 89.7072 81.3629 108.082 104.957 108.082Z" fill="#F0B90B"/>
<path d="M89.0253 67.041L82.4891 73.3641L75.9072 67.041L82.4891 60.7178L89.0253 67.041ZM104.957 51.7355L116.215 62.5505L122.797 56.2274L111.54 45.4563L104.957 39.1331L87.1633 56.226L93.7452 62.5491L104.957 51.7355ZM127.425 60.7178L120.889 67.041L127.471 73.3641L134.007 67.041L127.425 60.7178ZM104.957 82.3464L93.701 71.5314L87.1648 77.8545L104.957 94.9488L122.795 77.8121L116.213 71.5328L104.957 82.3464ZM104.957 73.3641L111.539 67.041L104.957 60.7178L98.3752 67.041L104.957 73.3641V73.3641Z" fill="#FFFDFA"/>
<g style="mix-blend-mode:multiply" opacity="0.1">
<path d="M104.957 105.959C127.331 105.959 145.468 88.5348 145.468 67.0409C145.468 45.547 127.331 28.1228 104.957 28.1228C82.5836 28.1228 64.4463 45.547 64.4463 67.0409C64.4463 88.5348 82.5836 105.959 104.957 105.959Z" stroke="#191326" stroke-width="3"/>
</g>
</g>
</g>
<defs>
<clipPath id="clip0">
<rect width="186" height="171" fill="white"/>
</clipPath>
<clipPath id="clip1">
<rect width="236" height="196" fill="white" transform="translate(0 -25)"/>
</clipPath>
</defs>
</svg>
