<svg width="186" height="171" viewBox="0 0 186 171" fill="none" xmlns="http://www.w3.org/2000/svg">
<g clip-path="url(#clip0)">
<g clip-path="url(#clip1)">
<path d="M72.7517 25.7158C70.9534 25.7158 69.1903 24.8434 68.1236 23.2317L62.7287 15.0853C61.0371 12.5309 61.7361 9.08904 64.2898 7.39699C66.8436 5.7062 70.2846 6.40536 71.9762 8.9585L77.3698 17.1049C79.0615 19.6593 78.3637 23.1012 75.81 24.7932C74.8675 25.4171 73.8034 25.7158 72.7517 25.7158Z" fill="#2B5D99"/>
<path d="M139.67 113.896L81.5875 26.243L81.5976 26.2367L77.3785 19.8652C76.4436 18.4543 74.5424 18.0677 73.1319 19.0029C71.5682 20.0384 70.8015 21.8234 70.986 23.5694C71.0186 24.2598 71.2269 24.9501 71.6373 25.569L133.068 118.274C133.967 119.63 134.257 121.249 133.884 122.833C133.511 124.417 132.531 125.738 131.122 126.551L110.27 138.594C108.375 139.687 107.726 142.111 108.819 144.006C109.553 145.277 110.885 145.987 112.254 145.987C112.925 145.987 113.607 145.816 114.23 145.456L135.083 133.413C138.356 131.523 140.731 128.328 141.595 124.647C142.461 120.966 141.76 117.048 139.67 113.896V113.896Z" fill="#B6C5CE"/>
<path d="M22.8332 54.5083C21.0349 54.5083 19.2717 53.6359 18.2038 52.0242L12.8089 43.8778C11.1185 41.3234 11.8175 37.8815 14.37 36.1895C16.925 34.4987 20.366 35.1978 22.0564 37.751L27.4513 45.8974C29.1429 48.4518 28.4439 51.8937 25.8902 53.5857C24.9477 54.2096 23.8848 54.5083 22.8332 54.5083Z" fill="#2B5D99"/>
<path d="M137.501 149.686C137.501 135.496 128.875 119.009 118.235 112.865C113.234 109.977 108.679 109.888 105.254 112.077V112.075L97.6731 116.456L97.6756 116.458C93.7653 118.901 91.3057 124.29 91.3057 131.867C91.3057 146.057 99.9307 162.542 110.571 168.688C115.245 171.385 119.528 171.64 122.863 169.876L122.862 169.878L131.07 165.133H131.063C135.013 162.708 137.501 157.304 137.501 149.686V149.686Z" fill="#162F4D"/>
<path d="M129.838 154.12C129.838 168.31 121.213 174.832 110.572 168.688C99.932 162.542 91.3057 146.057 91.3057 131.867C91.3057 117.676 99.932 111.153 110.572 117.299C121.213 123.443 129.838 139.928 129.838 154.12Z" fill="#2B5D99"/>
<path d="M122.865 150.09C122.865 159.144 117.362 163.305 110.574 159.385C103.785 155.465 98.2832 144.947 98.2832 135.895C98.2832 126.842 103.786 122.681 110.574 126.601C117.362 130.521 122.865 141.037 122.865 150.09V150.09Z" fill="#D6E5E5"/>
<path d="M117.871 147.208C117.871 152.583 114.605 155.055 110.574 152.726C106.543 150.399 103.275 144.154 103.275 138.778C103.275 133.402 106.543 130.932 110.574 133.259C114.605 135.587 117.871 141.832 117.871 147.208V147.208Z" fill="#BF0025"/>
<path d="M152.958 90.0927L152.899 90.0902C153.445 85.2739 149.902 80.1463 143.023 76.3994L114.726 60.6011C105.172 55.3994 91.4493 54.4178 82.1993 58.2751C69.9086 63.4027 59.1715 69.6036 50.2929 76.7019C47.0151 79.3216 45.7589 82.5651 46.3901 85.84H46.3889L46.3901 85.8412C46.6675 87.2797 47.31 88.7245 48.3051 90.1253L55.8209 106.932C56.6918 109.36 58.8051 111.755 62.0854 113.764L84.8007 127.333C91.8672 131.66 102.352 133.239 110.76 131.242C125.294 127.787 136.523 121.303 142.504 112.909C142.924 112.32 143.25 111.714 143.49 111.096L143.493 111.089C143.532 110.986 143.567 110.882 143.602 110.779L150.687 95.1161C150.851 94.8965 151.015 94.6768 151.173 94.4559C152.125 93.1216 152.682 91.7132 152.876 90.2735L152.958 90.0927Z" fill="#BF0025"/>
<path d="M50.293 76.7019C43.6118 82.0429 45.3109 89.9672 54.32 95.4839L81.6773 111.826C90.1881 117.039 102.815 118.939 112.941 116.534C130.446 112.374 143.971 104.564 151.173 94.4546C155.34 88.6078 152.047 81.3149 143.023 76.3994L114.724 60.6011C105.172 55.3994 91.4481 54.4178 82.1993 58.2751C69.9086 63.4027 59.1715 69.6036 50.293 76.7019V76.7019Z" fill="#EA2642"/>
<path d="M95.2145 65.4375C100.606 65.4375 106.043 66.7116 110.142 68.9321L138.39 84.704L138.478 84.7517C141.86 86.5931 143.094 88.3354 143.388 88.9982C137.523 97.181 125.935 103.673 110.747 107.282C108.586 107.795 106.215 108.055 103.699 108.055C97.4558 108.055 91.0796 106.433 86.6434 103.716L86.5983 103.688L86.5531 103.662L59.246 87.3501C57.2507 86.1224 56.2869 85.0141 55.9092 84.4103C55.992 84.33 56.0987 84.2358 56.2304 84.1304C64.4163 77.5844 74.3854 71.8392 85.8604 67.053C88.3577 66.0111 91.6794 65.4375 95.2145 65.4375V65.4375Z" fill="#BF0025"/>
<path d="M86.5978 103.689L86.643 103.716C91.0791 106.433 97.4554 108.055 103.699 108.055C106.215 108.055 108.585 107.795 110.746 107.282C116.494 105.916 121.724 104.137 126.326 102.01L110.141 92.9747C106.043 90.753 100.605 89.4802 95.2141 89.4802C91.679 89.4802 88.3572 90.0538 85.8599 91.0944C81.8693 92.7601 78.0656 94.5425 74.4502 96.4329L86.5526 103.662L86.5978 103.689Z" fill="#8F001C"/>
<path d="M112.332 141.978C111.238 140.082 108.816 139.433 106.921 140.527L102.102 143.31C97.2482 146.114 91.0225 144.646 87.9279 139.974L31.6774 55.0293L27.4583 48.6577C26.5234 47.2469 24.6222 46.8602 23.2117 47.7954C20.9742 49.2766 20.3618 52.2929 21.8438 54.5297L25.0727 59.405L81.3233 144.35C84.8722 149.71 90.7803 152.652 96.819 152.652C99.9714 152.652 103.159 151.85 106.063 150.173L110.883 147.39C112.777 146.296 113.427 143.872 112.332 141.978V141.978Z" fill="#B6C5CE"/>
<path d="M37.9183 75.5862C36.5492 75.5862 35.2177 74.8757 34.4849 73.6042C33.3906 71.71 34.0394 69.2862 35.9343 68.1916L85.8324 39.3766C87.7273 38.282 90.1506 38.9322 91.2436 40.8264C92.3379 42.7218 91.6891 45.1456 89.7942 46.2389L39.8961 75.0552C39.2724 75.4155 38.591 75.5862 37.9183 75.5862Z" fill="#B6C5CE"/>
<path d="M104.957 108.082C128.551 108.082 147.677 89.7072 147.677 67.0409C147.677 44.3747 128.551 26 104.957 26C81.3629 26 62.2363 44.3747 62.2363 67.0409C62.2363 89.7072 81.3629 108.082 104.957 108.082Z" fill="#F0B90B"/>
<path d="M89.0253 67.041L82.4891 73.3641L75.9072 67.041L82.4891 60.7178L89.0253 67.041ZM104.957 51.7355L116.215 62.5505L122.797 56.2274L111.54 45.4563L104.957 39.1331L87.1633 56.226L93.7452 62.5491L104.957 51.7355ZM127.425 60.7178L120.889 67.041L127.471 73.3641L134.007 67.041L127.425 60.7178ZM104.957 82.3464L93.701 71.5314L87.1648 77.8545L104.957 94.9488L122.795 77.8121L116.213 71.5328L104.957 82.3464ZM104.957 73.3641L111.539 67.041L104.957 60.7178L98.3752 67.041L104.957 73.3641V73.3641Z" fill="#FFFDFA"/>
<g style="mix-blend-mode:multiply" opacity="0.1">
<path d="M104.957 105.959C127.331 105.959 145.468 88.5348 145.468 67.0409C145.468 45.547 127.331 28.1228 104.957 28.1228C82.5836 28.1228 64.4463 45.547 64.4463 67.0409C64.4463 88.5348 82.5836 105.959 104.957 105.959Z" stroke="#191326" stroke-width="3"/>
</g>
<path d="M35 169C53.7777 169 69 153.778 69 135C69 116.222 53.7777 101 35 101C16.2223 101 1 116.222 1 135C1 153.778 16.2223 169 35 169Z" fill="url(#paint0_linear)"/>
<path fill-rule="evenodd" clip-rule="evenodd" d="M12.9154 138.736C12.9095 138.863 12.9065 138.99 12.9065 139.118C12.9065 139.601 12.9487 140.078 13.0307 140.548H12.9065V141.288C12.9065 141.649 12.93 142.007 12.9762 142.361C13.8764 149.268 23.393 154.703 35 154.703C46.607 154.703 56.1236 149.268 57.0238 142.361C57.07 142.007 57.0935 141.649 57.0935 141.288V140.548H56.9693C57.0513 140.078 57.0935 139.601 57.0935 139.118C57.0935 138.99 57.0905 138.863 57.0846 138.736C56.7514 131.504 46.9913 125.703 35 125.703C23.0087 125.703 13.2486 131.504 12.9154 138.736ZM11.1008 138.736C11.2652 134.323 14.2635 130.617 18.4368 128.083C22.7628 125.456 28.6232 123.891 35 123.891C41.3768 123.891 47.2372 125.456 51.5632 128.083C55.7365 130.617 58.7348 134.323 58.8992 138.736H58.9062V141.288C58.9062 145.869 55.8564 149.717 51.5632 152.323C47.2372 154.95 41.3768 156.516 35 156.516C28.6232 156.516 22.7628 154.95 18.4368 152.323C14.1436 149.717 11.0938 145.869 11.0938 141.288V138.736H11.1008Z" fill="#606063"/>
<path d="M57.0931 141.289C57.0931 148.697 47.2016 154.703 34.9997 154.703C22.7978 154.703 12.9062 148.697 12.9062 141.289V139.165H57.0931V141.289Z" fill="#BEBEBE"/>
<path d="M57.0931 139.118C57.0931 146.527 47.2016 152.532 34.9997 152.532C22.7978 152.532 12.9062 146.527 12.9062 139.118C12.9062 131.709 22.7978 125.703 34.9997 125.703C47.2016 125.703 57.0931 131.709 57.0931 139.118Z" fill="#FAF9FA"/>
<path fill-rule="evenodd" clip-rule="evenodd" d="M16.3062 135.328C16.3061 135.337 16.3061 135.345 16.3061 135.353C16.3061 135.963 16.3945 136.561 16.564 137.141H16.3059V137.927C16.3059 138.273 16.3345 138.616 16.3903 138.954C17.2326 144.055 24.2794 148.036 32.8476 148.036C41.4159 148.036 48.4626 144.055 49.3049 138.954C49.3607 138.616 49.3893 138.273 49.3893 137.927V137.141H49.1317C49.2965 136.577 49.3846 135.996 49.3893 135.403C49.3894 135.387 49.3895 135.37 49.3895 135.353C49.3895 135.345 49.3895 135.337 49.3894 135.328C49.3672 129.757 41.9698 125.244 32.8478 125.244C23.7259 125.244 16.3285 129.757 16.3062 135.328ZM14.4934 135.328H14.4932V137.927C14.4932 141.589 16.9147 144.611 20.2056 146.622C23.5277 148.652 28.0018 149.849 32.8476 149.849C37.6934 149.849 42.1676 148.652 45.4896 146.622C48.7805 144.611 51.2021 141.589 51.2021 137.927V135.41C51.2022 135.391 51.2023 135.372 51.2023 135.353C51.2023 131.691 48.7807 128.67 45.4898 126.658C42.1677 124.628 37.6936 123.432 32.8478 123.432C28.002 123.432 23.5279 124.628 20.2058 126.658C16.9224 128.665 14.5045 131.678 14.4934 135.328Z" fill="#633001"/>
<path d="M49.389 137.927C49.389 143.51 41.983 148.036 32.8473 148.036C23.7116 148.036 16.3057 143.51 16.3057 137.927V135.555H49.389V137.927Z" fill="#FEDC90"/>
<path d="M49.389 135.354C49.389 140.937 41.983 145.463 32.8473 145.463C23.7116 145.463 16.3057 140.937 16.3057 135.354C16.3057 129.77 23.7116 125.245 32.8473 125.245C41.983 125.245 49.389 129.77 49.389 135.354Z" fill="#D1884F"/>
<path fill-rule="evenodd" clip-rule="evenodd" d="M21.2906 129.89C21.2906 129.898 21.2906 129.907 21.2906 129.915C21.2906 130.525 21.379 131.122 21.5484 131.703H21.2904V132.488C21.2904 132.835 21.3189 133.178 21.3747 133.515C22.217 138.616 29.2637 142.597 37.832 142.597C46.4003 142.597 53.4471 138.616 54.2894 133.515C54.3451 133.178 54.3737 132.835 54.3737 132.488V131.703H54.1161C54.2809 131.138 54.3691 130.558 54.3737 129.965C54.3739 129.948 54.3739 129.932 54.3739 129.915C54.3739 129.907 54.3739 129.898 54.3739 129.89C54.3516 124.318 46.9542 119.806 37.8322 119.806C28.7102 119.806 21.3128 124.318 21.2906 129.89ZM19.4778 129.89H19.4775V132.488C19.4775 136.15 21.8991 139.172 25.19 141.183C28.512 143.213 32.9862 144.41 37.832 144.41C42.6779 144.41 47.152 143.213 50.4741 141.183C53.765 139.172 56.1865 136.15 56.1865 132.488V129.972C56.1866 129.953 56.1867 129.934 56.1867 129.915C56.1867 126.253 53.7652 123.231 50.4742 121.22C47.1522 119.19 42.6781 117.993 37.8322 117.993C32.9864 117.993 28.5123 119.19 25.1902 121.22C21.9068 123.227 19.4889 126.239 19.4778 129.89Z" fill="#633001"/>
<path d="M54.3743 132.488C54.3743 138.071 46.9684 142.597 37.8327 142.597C28.6969 142.597 21.291 138.071 21.291 132.488V130.117H54.3743V132.488Z" fill="#FEDC90"/>
<path d="M54.3743 129.915C54.3743 135.498 46.9684 140.024 37.8327 140.024C28.6969 140.024 21.291 135.498 21.291 129.915C21.291 124.332 28.6969 119.806 37.8327 119.806C46.9684 119.806 54.3743 124.332 54.3743 129.915Z" fill="#D1884F"/>
<path fill-rule="evenodd" clip-rule="evenodd" d="M16.3062 124.451C16.3061 124.46 16.3061 124.468 16.3061 124.477C16.3061 125.087 16.3945 125.684 16.564 126.264H16.3059V127.05C16.3059 127.397 16.3345 127.739 16.3903 128.077C17.2326 133.178 24.2794 137.159 32.8476 137.159C41.4159 137.159 48.4626 133.178 49.3049 128.077C49.3607 127.739 49.3893 127.397 49.3893 127.05V126.264H49.1317C49.2965 125.7 49.3846 125.119 49.3893 124.526C49.3894 124.51 49.3895 124.493 49.3895 124.477C49.3895 124.468 49.3895 124.46 49.3894 124.451C49.3672 118.88 41.9698 114.368 32.8478 114.368C23.7259 114.368 16.3285 118.88 16.3062 124.451ZM14.4934 124.451H14.4932V127.05C14.4932 130.712 16.9147 133.734 20.2056 135.745C23.5277 137.775 28.0018 138.972 32.8476 138.972C37.6934 138.972 42.1676 137.775 45.4896 135.745C48.7805 133.734 51.2021 130.712 51.2021 127.05V124.533C51.2022 124.514 51.2023 124.495 51.2023 124.477C51.2023 120.814 48.7807 117.793 45.4898 115.781C42.1677 113.751 37.6936 112.555 32.8478 112.555C28.002 112.555 23.5279 113.751 20.2058 115.781C16.9224 117.788 14.5045 120.801 14.4934 124.451Z" fill="#633001"/>
<path d="M49.389 127.05C49.389 132.633 41.983 137.159 32.8473 137.159C23.7116 137.159 16.3057 132.633 16.3057 127.05V124.678H49.389V127.05Z" fill="#FEDC90"/>
<path d="M49.389 124.477C49.389 130.06 41.983 134.586 32.8473 134.586C23.7116 134.586 16.3057 130.06 16.3057 124.477C16.3057 118.893 23.7116 114.367 32.8473 114.367C41.983 114.367 49.389 118.893 49.389 124.477Z" fill="#D1884F"/>
<path fill-rule="evenodd" clip-rule="evenodd" d="M20.2188 125.105C20.2188 126.969 21.5732 128.639 23.7099 129.762L22.2295 132.326L22.2298 132.327H22.2295V138.816C22.2295 139.674 22.9251 140.37 23.7833 140.37C24.6414 140.37 25.3371 139.674 25.3371 138.816V133.655L26.9299 130.896C27.9483 131.112 29.0415 131.23 30.1793 131.23C35.6804 131.23 40.1399 128.488 40.1399 125.105C40.1399 121.723 35.6804 118.981 30.1793 118.981C24.6783 118.981 20.2188 121.723 20.2188 125.105Z" fill="url(#paint1_linear)"/>
<path fill-rule="evenodd" clip-rule="evenodd" d="M23.7092 129.762C23.4725 129.638 23.2454 129.507 23.0287 129.369C21.289 128.267 20.218 126.763 20.218 125.105C20.218 121.723 24.6775 118.981 30.1786 118.981C35.6797 118.981 40.1392 121.723 40.1392 125.105C40.1392 128.488 35.6797 131.23 30.1786 131.23C29.0408 131.23 27.9476 131.112 26.9292 130.896L25.3364 133.655V138.816C25.3364 139.674 24.6407 140.37 23.7826 140.37C22.9244 140.37 22.2288 139.674 22.2288 138.816V132.327L23.7092 129.762ZM20.6426 132.354V138.816C20.6426 140.55 22.0484 141.956 23.7826 141.956C25.5168 141.956 26.9226 140.55 26.9226 138.816V134.08L27.7487 132.649C28.5333 132.759 29.3465 132.816 30.1786 132.816C33.1741 132.816 35.9619 132.072 38.0526 130.787C40.1173 129.518 41.7253 127.554 41.7253 125.105C41.7253 122.657 40.1173 120.693 38.0526 119.424C35.9619 118.139 33.1741 117.395 30.1786 117.395C27.1831 117.395 24.3953 118.139 22.3047 119.424C20.2399 120.693 18.6318 122.657 18.6318 125.105C18.6318 127.254 19.8624 129.023 21.5723 130.291L20.866 131.514C20.7987 131.627 20.7449 131.749 20.707 131.877C20.6606 132.034 20.6397 132.195 20.6426 132.354Z" fill="#633001"/>
<path d="M23.3301 122.525C23.3301 124.277 25.562 125.698 28.3153 125.698C31.0685 125.698 33.3004 124.277 33.3004 122.525C33.3004 120.773 31.0685 119.353 28.3153 119.353C25.562 119.353 23.3301 120.773 23.3301 122.525Z" fill="#9E7200"/>
<path d="M23.3301 121.166H33.3004V122.525H23.3301V121.166Z" fill="#9E7200"/>
<path d="M23.3301 121.166C23.3301 122.918 25.562 124.338 28.3153 124.338C31.0685 124.338 33.3004 122.918 33.3004 121.166C33.3004 119.414 31.0685 117.993 28.3153 117.993C25.562 117.993 23.3301 119.414 23.3301 121.166Z" fill="#F0B90B"/>
<path d="M26.4237 120.783L27.8289 119.889C28.1258 119.7 28.5052 119.7 28.8022 119.889L30.2073 120.783C30.4871 120.961 30.4871 121.37 30.2073 121.548L28.8022 122.442C28.5052 122.631 28.1258 122.631 27.8289 122.442L26.4237 121.548C26.1439 121.37 26.1439 120.961 26.4237 120.783Z" fill="#9E7200"/>
<path fill-rule="evenodd" clip-rule="evenodd" d="M23.9389 117.584C25.1322 116.825 26.6838 116.407 28.3156 116.407C29.9472 116.407 31.4989 116.825 32.6922 117.584C33.8667 118.332 34.8869 119.559 34.8869 121.166V122.525C34.8869 124.132 33.8667 125.359 32.6922 126.107C31.4989 126.866 29.9472 127.284 28.3156 127.284C26.6838 127.284 25.1322 126.866 23.9389 126.107C22.7644 125.359 21.7441 124.132 21.7441 122.525V121.166C21.7441 119.559 22.7644 118.332 23.9389 117.584ZM28.3156 117.993C25.5623 117.993 23.3304 119.414 23.3304 121.166V122.525C23.3304 124.277 25.5623 125.698 28.3156 125.698C31.0688 125.698 33.3007 124.277 33.3007 122.525V121.166C33.3007 119.414 31.0688 117.993 28.3156 117.993Z" fill="#633001"/>
</g>
</g>
<defs>
<linearGradient id="paint0_linear" x1="35" y1="101" x2="35" y2="169" gradientUnits="userSpaceOnUse">
<stop stop-color="#54DADE"/>
<stop offset="0.762" stop-color="#24C7D6"/>
</linearGradient>
<linearGradient id="paint1_linear" x1="30.2871" y1="119.186" x2="30.2871" y2="140.209" gradientUnits="userSpaceOnUse">
<stop stop-color="#9F4A08"/>
<stop offset="0.37" stop-color="#7D3900"/>
<stop offset="1" stop-color="#8D4104"/>
</linearGradient>
<clipPath id="clip0">
<rect width="186" height="171" fill="white"/>
</clipPath>
<clipPath id="clip1">
<rect width="236" height="196" fill="white" transform="translate(0 -25)"/>
</clipPath>
</defs>
</svg>
