<?xml version="1.0" encoding="iso-8859-1"?>
<!-- Generator: Adobe Illustrator 19.0.0, SVG Export Plug-In . SVG Version: 6.00 Build 0)  -->
<svg version="1.1" id="Capa_1" xmlns="http://www.w3.org/2000/svg" xmlns:xlink="http://www.w3.org/1999/xlink" x="0px" y="0px"
	 viewBox="0 0 512 512" style="enable-background:new 0 0 512 512;" xml:space="preserve">
<path style="fill:#B3FA08;" d="M225.96,152.354c-27.316-15.771-74.642-13.92-74.642-13.92s-3.033,27.414,24.283,43.185
	s74.633,13.924,74.633,13.924S253.275,168.125,225.96,152.354z"/>
<path style="fill:#9CDD03;" d="M222.382,177.594c-2.48-1.563-5.049-3.082-7.584-4.616l-2.025-18.583l-1.613,16.43l-5.672-3.333
	l-7.118-4.038l-2.021-18.542l-1.622,16.511c-2.233-1.234-4.457-2.47-6.734-3.674c-5.934-3.195-11.959-6.327-18.268-9.304
	c5.161,3.644,10.587,7.124,16.113,10.556c2.738,1.726,5.568,3.398,8.364,5.099l6.021,3.537l-28.307,0.986l31.907,1.106l7.565,4.293
	c1.675,0.917,3.336,1.846,5.009,2.767l-28.618,0.992l32.534,1.128c5.901,3.166,11.902,6.284,18.181,9.239
	C233.336,184.506,227.9,181.02,222.382,177.594z"/>
<path style="fill:#3E3D43;" d="M355.641,444.287l-0.001,0.002L355.641,444.287z"/>
<path style="fill:#3D3D3D;" d="M338.538,286.239c-44.306-26.486-117.176-27.222-162.757-1.645
	c-29.882,16.768-40.616,40.682-31.984,62.628c-0.289-0.734-0.558-1.469-0.803-2.207c7.447,22.401,14.895,44.799,22.342,67.201
	s14.895,44.799,22.342,67.201c2.465,7.413,8.564,14.514,18.321,20.347c26.634,15.921,70.436,16.364,97.837,0.989
	c10.486-5.884,17.049-13.231,19.665-20.953c15.148-44.717,30.295-89.428,45.443-134.144c-0.051,0.151-0.116,0.302-0.168,0.453
	C376.097,325.258,366.09,302.71,338.538,286.239z"/>
<path style="fill:#3E3D43;" d="M375.269,291.362c0.749-18.318-10.938-36.796-35.103-50.747
	c-46.67-26.946-122.359-26.95-168.736,0.001c-23.109,13.429-34.633,31.057-34.608,48.698c0-0.056-0.006-0.114-0.006-0.17
	l-0.151,53.44c-0.05,17.812,11.68,35.651,35.164,49.21c46.679,26.95,122.368,26.945,168.736-0.001
	c23.038-13.389,34.57-30.944,34.62-48.527l0.151-53.44C375.334,290.337,375.29,290.85,375.269,291.362z"/>
<path style="fill:#A66206;" d="M334.529,243.846c43.592,25.167,43.823,66.106,0.513,91.274
	c-43.301,25.163-113.986,25.169-157.578,0.001c-43.584-25.163-43.814-66.111-0.513-91.275
	C220.26,218.678,290.945,218.682,334.529,243.846z"/>
<path style="fill:#2E2E30;" d="M349.126,289.75l-0.151,53.44c0.04-13.897-9.113-27.816-27.438-38.397
	c-36.415-21.024-95.476-21.024-131.654,0c-17.973,10.445-26.97,24.143-27.008,37.862l0.151-53.44
	c0.039-13.72,9.035-27.418,27.008-37.862c36.178-21.025,95.239-21.025,131.654,0C340.013,261.934,349.165,275.852,349.126,289.75z"
	/>
<path style="fill:#4B4B4C;" d="M375.336,289.824l-0.151,53.44c-0.05,17.583-11.583,35.139-34.62,48.527
	c-46.367,26.946-122.057,26.951-168.736,0.001c-23.485-13.559-35.215-31.399-35.164-49.21l0.151-53.44
	c-0.05,17.812,11.68,35.651,35.164,49.21c46.679,26.95,122.368,26.944,168.736-0.001
	C363.754,324.963,375.286,307.408,375.336,289.824z"/>
<path style="fill:#57565C;" d="M340.089,240.614c46.679,26.95,46.925,70.787,0.55,97.738
	c-46.367,26.946-122.057,26.951-168.736,0.001c-46.67-26.946-46.917-70.792-0.55-97.738
	C217.73,213.664,293.419,213.669,340.089,240.614z M190.384,327.613c36.415,21.025,95.476,21.024,131.654-0.001
	c36.178-21.025,35.986-55.234-0.43-76.259c-36.415-21.024-95.476-21.024-131.654,0C153.776,272.379,153.969,306.589,190.384,327.613
	"/>
<path style="fill:#B3FA08;" d="M262.647,97.936c0.042-1.021-0.61-2.049-1.96-2.828c-2.606-1.505-6.816-1.505-9.405,0
	c-1.29,0.75-1.934,1.732-1.933,2.714c0-0.003,0-0.006,0-0.009v227.632c-0.003,0.992,0.652,1.986,1.964,2.742
	c2.606,1.505,6.816,1.505,9.405,0c1.287-0.747,1.929-1.725,1.933-2.705V97.85C262.65,97.879,262.648,97.908,262.647,97.936z"/>
<g style="enable-background:new    ;">
	<path style="fill:#B3FA08;" d="M260.687,95.108c2.606,1.505,2.619,3.943,0.03,5.447c-2.589,1.505-6.798,1.505-9.405,0
		c-2.606-1.505-2.619-3.943-0.03-5.447C253.871,93.604,258.082,93.604,260.687,95.108z"/>
	<path style="fill:#9CDD03;" d="M262.65,97.85v227.632c-0.003,0.98-0.647,1.958-1.933,2.705c-2.589,1.505-6.798,1.505-9.405,0
		c-1.312-0.757-1.966-1.751-1.964-2.742V97.813c-0.003,0.992,0.652,1.986,1.964,2.742c2.606,1.505,6.816,1.505,9.405,0
		C262.004,99.808,262.648,98.83,262.65,97.85z"/>
</g>
<path style="fill:#B3FA08;" d="M331.461,222.288c-27.316-15.771-74.633-13.924-74.633-13.924s-3.042,27.419,24.274,43.189
	c27.308,15.766,74.633,13.915,74.633,13.915S358.768,238.053,331.461,222.288z"/>
<path style="fill:#9CDD03;" d="M321.491,243.356c-2.738-1.726-5.585-3.398-8.373-5.094l-6.01-3.538l28.297-0.986l-31.899-1.11
	l-7.575-4.297c-1.672-0.916-3.328-1.841-4.996-2.759l28.597-0.997l-32.545-1.133c-5.895-3.172-11.881-6.282-18.154-9.234
	c5.16,3.644,10.579,7.129,16.113,10.556c2.482,1.564,5.047,3.081,7.576,4.618l2.034,18.581l1.613-16.424l5.664,3.321l7.116,4.037
	l2.031,18.548l1.622-16.51c2.229,1.233,4.452,2.473,6.734,3.673c5.926,3.19,11.959,6.327,18.26,9.299
	C332.445,250.267,327.009,246.782,321.491,243.356z"/>
<g style="enable-background:new    ;">
	<path style="fill:#943EC7;" d="M305.183,148.415l28.432-16.523c-0.819-1.272-16.377-25.434-36.632-37.128
		c-1.097-0.633-2.18-1.207-3.251-1.737l2.336-1.358c14.368-8.187,16.136-30.597,16.23-31.777l0,0
		c-1.072-0.515-21.435-10.318-35.803-2.125c-0.053,0.03-0.106,0.061-0.159,0.092l-2.203,1.28c0.082-1.203,0.132-2.442,0.135-3.719
		c0.066-23.28-13.077-48.819-13.769-50.163L232.068,21.78c-0.004,0.003-0.015,0.011-0.019,0.016
		C220.518,8.059,209.348,0.529,208.563,0L180.13,16.523c0.063,0.932,0.949,14.046,6.894,30.626
		c-0.049,0.019-0.088,0.034-0.112,0.044L158.48,63.716c0.818,1.272,16.372,25.437,36.632,37.134c1.096,0.632,2.179,1.207,3.25,1.737
		c-0.796,0.463-1.58,0.919-2.335,1.359c-14.373,8.184-16.141,30.594-16.234,31.774c1.072,0.515,21.44,10.316,35.808,2.128
		c0.296-0.169,0.581-0.353,0.867-0.534c-0.237,0.15-0.471,0.305-0.714,0.446l2.209-1.283c-0.082,1.203-0.131,2.441-0.135,3.719
		c-0.066,23.275,13.072,48.816,13.763,50.16l28.433-16.523c0.005-0.004,0.016-0.013,0.022-0.018
		c11.53,13.736,22.699,21.268,23.484,21.797l28.432-16.523c-0.063-0.932-0.949-14.047-6.893-30.628
		C305.119,148.44,305.159,148.424,305.183,148.415z"/>
	<g>
		<path style="fill:#A258CB;" d="M246.405,119.752c-0.704,0.535-1.443,1.031-2.219,1.483l-28.433,16.523
			c0.776-0.451,1.515-0.947,2.219-1.483C226.502,131.319,237.875,124.709,246.405,119.752z"/>
		<path style="fill:#A258CB;" d="M224.459,87.422c0.832-0.475,1.687-0.887,2.562-1.243l-28.433,16.523
			c-0.874,0.356-1.729,0.768-2.562,1.243C204.557,98.988,215.91,92.344,224.459,87.422z"/>
		<path style="fill:#A258CB;" d="M158.48,63.715l28.433-16.523c0.823-0.323,16.463-6.474,36.722,5.224l-28.432,16.523
			C174.943,57.242,159.304,63.392,158.48,63.715z"/>
		<path style="fill:#A258CB;" d="M260.262,89.54c-0.619,0.482-12.368,9.635-13.856,30.212l-28.432,16.523
			c1.488-20.576,13.239-29.73,13.856-30.212C240.359,101.107,251.732,94.498,260.262,89.54z"/>
		<path style="fill:#A258CB;" d="M231.829,106.064c-0.619,0.482-12.368,9.635-13.856,30.212c-0.75,0.57-1.541,1.097-2.373,1.57
			c-14.368,8.187-34.735-1.612-35.808-2.128c0.093-1.179,1.863-23.589,16.234-31.774c0.832-0.475,1.687-0.887,2.562-1.243
			C217.218,111.815,231.099,106.352,231.829,106.064z"/>
		<path style="fill:#A258CB;" d="M227.021,86.179c18.629,9.114,32.51,3.649,33.241,3.362l-28.432,16.523
			c-0.73,0.288-14.612,5.752-33.241-3.362C207.119,97.745,218.491,91.136,227.021,86.179z"/>
	</g>
	<path style="fill:#B77FDA;" d="M195.202,68.939c1.173,0.677,2.332,1.4,3.477,2.162c18.619,12.392,32.424,33.835,33.15,34.963
		c-0.73,0.288-14.612,5.752-33.241-3.362c-1.144-0.559-2.304-1.176-3.477-1.852c-20.26-11.697-35.813-35.862-36.632-37.134
		C159.304,63.392,174.943,57.242,195.202,68.939z"/>
	<path style="fill:#A258CB;" d="M195.202,68.939l28.432-16.523c1.173,0.677,2.332,1.4,3.477,2.162
		c18.619,12.392,32.424,33.835,33.15,34.963l-28.432,16.523c-0.726-1.129-14.531-22.57-33.15-34.963
		C197.534,70.339,196.376,69.616,195.202,68.939z"/>
	<path style="fill:#B77FDA;" d="M231.829,106.064c0.614,1.194,12.28,23.865,13.645,46.091c0.083,1.365,0.126,2.726,0.123,4.072
		c-0.066,23.275-13.311,33.584-14.008,34.127c-0.692-1.344-13.829-26.885-13.763-50.16c0.004-1.348,0.054-2.653,0.146-3.918
		C219.461,115.699,231.211,106.546,231.829,106.064z"/>
	<g>
		<path style="fill:#A258CB;" d="M231.829,106.064l28.432-16.523c0.614,1.194,12.28,23.865,13.645,46.091
			c0.083,1.365,0.127,2.726,0.123,4.072c-0.066,23.275-13.311,33.584-14.008,34.127l-28.432,16.523
			c0.697-0.543,13.941-10.852,14.008-34.127c0.004-1.347-0.039-2.707-0.123-4.072C244.109,129.929,232.444,107.257,231.829,106.064z
			"/>
		<path style="fill:#A258CB;" d="M260.262,89.54c0.726,1.129,14.536,22.58,33.156,34.973l-28.432,16.523
			c-18.621-12.392-32.429-33.844-33.156-34.973C240.359,101.107,251.732,94.498,260.262,89.54z"/>
		<path style="fill:#A258CB;" d="M231.829,106.064c0.726,1.129,14.536,22.58,33.156,34.973c0.869,1.363,1.72,2.759,2.546,4.192
			c14.274,24.723,15.911,49.099,15.996,50.382c-1.072-0.722-21.423-14.432-35.697-39.155c-0.827-1.433-1.611-2.866-2.356-4.3
			C244.109,129.929,232.444,107.257,231.829,106.064z"/>
	</g>
	<path style="fill:#943EC7;" d="M295.964,128.705c14.274,24.723,15.911,49.099,15.996,50.382l-28.432,16.523
		c-0.087-1.283-1.723-25.659-15.996-50.382c-0.826-1.433-1.677-2.83-2.546-4.192l28.432-16.523
		C294.287,125.876,295.137,127.272,295.964,128.705z"/>
	<path style="fill:#A258CB;" d="M246.621,43.46c1.367,22.224,13.027,44.888,13.64,46.081l-28.432,16.523
		c-0.614-1.193-12.273-23.858-13.64-46.081C226.719,55.025,238.092,48.417,246.621,43.46z"/>
	<path style="fill:#943EC7;" d="M244.265,39.158c0.826,1.432,1.612,2.869,2.356,4.301l-28.432,16.523
		c-0.745-1.433-1.53-2.87-2.356-4.301c-14.274-24.729-34.631-38.437-35.702-39.158L208.563,0
		C209.633,0.721,229.99,14.429,244.265,39.158z"/>
	<g>
		<path style="fill:#A258CB;" d="M180.13,16.523c1.072,0.721,21.429,14.429,35.702,39.158c0.826,1.432,1.612,2.868,2.356,4.301
			c1.367,22.224,13.027,44.888,13.64,46.081c-0.726-1.129-14.531-22.57-33.15-34.963c-0.869-1.362-1.721-2.76-2.547-4.193
			C181.853,42.182,180.216,17.806,180.13,16.523z"/>
		<path style="fill:#A258CB;" d="M231.829,106.064l28.432-16.523c0.73-0.287,14.617-5.742,33.245,3.37
			c1.146,0.56,2.304,1.176,3.478,1.853l-28.432,16.523c-1.173-0.677-2.332-1.293-3.478-1.853
			C246.446,100.321,232.561,105.777,231.829,106.064z"/>
	</g>
	<path style="fill:#B77FDA;" d="M268.552,111.287c20.255,11.694,35.813,35.856,36.632,37.128
		c-0.823,0.323-16.468,6.477-36.722-5.217c-1.172-0.676-2.332-1.4-3.476-2.161c-18.621-12.392-32.429-33.844-33.156-34.973
		c0.73-0.287,14.617-5.742,33.245,3.37C266.219,109.994,267.378,110.61,268.552,111.287z"/>
	<path style="fill:#A258CB;" d="M268.552,111.287l28.432-16.523c20.255,11.694,35.813,35.856,36.632,37.128l-28.432,16.523
		C304.365,147.143,288.807,122.981,268.552,111.287z"/>
	<path style="fill:#B77FDA;" d="M232.068,21.78c0.692,1.344,13.834,26.883,13.769,50.163c-0.004,1.347-0.054,2.654-0.146,3.917
		c-1.487,20.577-13.243,29.722-13.861,30.204c-0.614-1.193-12.273-23.858-13.64-46.081c-0.085-1.366-0.127-2.725-0.123-4.073
		C218.132,32.629,231.371,22.323,232.068,21.78z"/>
	<path style="fill:#A258CB;" d="M232.068,21.78L260.5,5.257c0.692,1.344,13.834,26.883,13.769,50.163
		c-0.004,1.347-0.054,2.654-0.146,3.917c-1.487,20.577-13.243,29.722-13.861,30.204l-28.432,16.523
		c0.619-0.481,12.375-9.626,13.861-30.204c0.092-1.264,0.142-2.57,0.146-3.917C245.902,48.662,232.76,23.124,232.068,21.78z"/>
	<path style="fill:#943EC7;" d="M312.298,59.892c-0.093,1.179-1.863,23.589-16.23,31.777l-28.432,16.523
		c14.368-8.187,16.136-30.597,16.23-31.777C292.396,71.458,303.769,64.849,312.298,59.892z"/>
	<path style="fill:#A258CB;" d="M283.867,76.415c-0.093,1.179-1.863,23.589-16.23,31.777c-0.833,0.474-1.688,0.887-2.563,1.242
		c-18.628-9.113-32.514-3.657-33.245-3.37c0.619-0.481,12.375-9.626,13.861-30.204c0.75-0.57,1.541-1.096,2.373-1.569
		C262.431,66.097,282.794,75.899,283.867,76.415z"/>
	<path style="fill:#943EC7;" d="M276.496,57.768c14.368-8.193,34.731,1.609,35.803,2.125l-28.432,16.523
		c-1.072-0.515-21.435-10.318-35.803-2.125c-0.053,0.03-0.106,0.061-0.159,0.092l28.432-16.523
		C276.39,57.828,276.443,57.798,276.496,57.768z"/>
</g>
<path style="fill:#FECE00;" d="M233.826,87.649c9.44,5.451,17.067,18.665,17.036,29.507c-0.016,5.378-1.911,9.163-4.968,10.95
	c-0.026,0.016-0.051,0.032-0.078,0.048c-11.523,6.653-23.963,1.379-30.617-10.144c-6.642-11.503-5.013-24.881,6.464-31.549
	C224.771,84.655,229.074,84.906,233.826,87.649z"/>
<g>
</g>
<g>
</g>
<g>
</g>
<g>
</g>
<g>
</g>
<g>
</g>
<g>
</g>
<g>
</g>
<g>
</g>
<g>
</g>
<g>
</g>
<g>
</g>
<g>
</g>
<g>
</g>
<g>
</g>
</svg>
