<svg width="95" height="208" viewBox="0 0 95 208" fill="none" xmlns="http://www.w3.org/2000/svg">
<path d="M27.1134 43.0421C27.1134 43.0421 18.2291 48.2892 15.1754 62.1319C12.5307 74.1176 15.1754 83 15.1754 83L45 66.1189C45 66.1189 42.3176 41.856 27.1134 43.0421Z" fill="#BD4B1E"/>
<path d="M73.4628 18.531C73.4628 18.531 76.5735 9.21478 67.8234 4.01815C61.3087 0.149226 47.8631 -3.78632 33.7494 6.94482C21.2827 16.4244 22.2282 41.3337 28.4799 47.3092C34.73 53.2847 73.4628 18.531 73.4628 18.531Z" fill="#EF5F26"/>
<path d="M52.3497 194.356C51.3265 191.351 48.7469 189.013 48.0673 188.428C46.9224 187.443 39.3131 183 39.3131 183L19 190.315V194.343C19 195.605 19.6318 196.773 20.6612 197.416L34.4251 205.836C39.1636 208.721 44.9993 208.721 49.7378 205.836C51.3804 204.836 52.3728 203.246 52.7319 201.531L52.7396 201.528C52.7396 201.528 53.5332 197.837 52.3497 194.356Z" fill="#693107"/>
<path d="M88.33 178.356C87.2767 175.35 84.6213 173.013 83.9217 172.428C82.7447 171.442 74.9102 167 74.9102 167L54 174.315V178.343C54 179.604 54.6504 180.773 55.7116 181.415L69.8801 189.835C74.7563 192.722 80.7651 192.722 85.6428 189.835C87.3322 188.835 88.3538 187.247 88.7249 185.532L88.7329 185.529C88.7329 185.529 89.5482 181.836 88.33 178.356Z" fill="#693107"/>
<path d="M94.9299 107C94.9299 107 95.6713 116.619 92.3323 123.775C88.9949 130.931 82 126.831 82 126.831L82.8734 108.333L94.9299 107Z" fill="#F8DB8F"/>
<path d="M75 46C75 46 84.4347 50.326 89.7182 62.3893C95 74.4542 95 107.342 95 107.342L81.298 114L75 46Z" fill="#1CA0AA"/>
<path d="M75.237 45.6296C75.237 45.6296 61.7724 42.1621 44.6056 51.5016C27.4404 60.8395 17.3517 67.1603 13.7326 73.7659C10.1151 80.3714 10.5904 127.062 12.2862 137.868C14.2158 150.162 17.8333 160.377 17.8333 160.377L18.7981 190.715C18.7981 190.715 26.1352 197.234 36.8874 195.792C47.3791 194.387 48.9479 189.493 48.9479 189.493V164.293L54.3993 161.099V174.769C54.3993 174.769 64.0346 181.491 71.6995 179.25C81.4336 176.403 81.9732 171.529 81.9732 171.529C81.9732 171.529 84.102 136.583 84.102 123.372C84.102 110.159 89.1675 62.2049 75.237 45.6296Z" fill="#8F5BFD"/>
<path d="M45.0226 52.1474C37.7676 56.0337 31.7785 59.3877 27 62.4591C30.4608 64.4753 34.1433 67.7586 36.3792 71.4612C41.4203 79.8038 41.4077 93 41.4077 93L75 73.6328C75 73.6328 73.1037 54.8875 64.3361 46C59.0938 46.57 52.4018 48.1952 45.0226 52.1474Z" fill="#1FC7D4"/>
<path d="M72.7744 18.198C72.7744 18.198 74.0849 45.0639 70.389 52.7224C68.6395 56.3485 64.9343 58.4106 61.3749 59.448C55.5325 61.1495 44.1594 58.7016 39.1514 55.0549C36.2 52.9059 35.4555 51.9317 35.4555 51.9317C35.4555 51.9317 32.3257 54.1204 30.0009 52.4789C27.676 50.8374 26.3546 46.9552 27.3177 43.8177C28.391 40.3229 29.5527 39.9576 30.567 39.5923C31.5797 39.2286 33.2486 40.8084 33.2486 40.8084C33.2486 40.8084 46.7216 36.6146 54.7695 28.956C62.8189 21.2959 66.842 13 66.842 13L72.7744 18.198Z" fill="#F8DB8F"/>
<path d="M45 107.894L77 89V114.563C77 125.219 71.4406 135.063 62.4171 140.391C54.6767 144.962 45 139.248 45 130.107V107.894Z" fill="#553499"/>
<path d="M16.5316 70C15.3635 71.2646 14.4348 72.5149 13.7421 73.7764C11.2171 78.382 10.6787 102.432 11.1588 120.289C15.6154 121.655 20.645 121.172 24.272 117.788C31.1686 111.352 32.8027 98.1122 28.9915 83.9524C25.5392 71.1291 17.9358 70.0829 16.5316 70Z" fill="#1CA0AA"/>
<path d="M1 144.21C1 144.21 2.28145 156.294 8.55814 157.706C14.8783 159.126 18.5583 155.057 19.5496 152.808C20.5409 150.559 19.5867 139 19.5867 139L1 144.21Z" fill="#F8DB8F"/>
<path d="M16.8078 70C16.8078 70 5.31679 80.924 1.44863 103.791C-1.81079 123.06 1.44863 143.932 1.44863 143.932C1.44863 143.932 6.24508 144.422 11.9507 142.777C18.7731 140.808 19.8723 138.58 19.8723 138.58C19.8723 138.58 20.2414 115.226 22.0836 99.5347C23.9258 83.8433 27.0063 72.2136 16.8078 70Z" fill="#1FC7D4"/>
<path d="M70.4112 27.9247C70.4112 29.3477 69.5489 31.0012 68.4871 31.6181C67.4238 32.235 66.563 31.58 66.563 30.157C66.563 28.7324 67.4238 27.0788 68.4871 26.4619C69.5489 25.8466 70.4112 26.5001 70.4112 27.9247Z" fill="#162F4D"/>
<path d="M56.9668 35.6948C56.9668 37.1194 56.106 38.7729 55.0442 39.3882C53.9809 40.0051 53.1201 39.3516 53.1201 37.9271C53.1201 36.5041 53.9809 34.8505 55.0442 34.2336C56.106 33.6167 56.9668 34.2718 56.9668 35.6948Z" fill="#162F4D"/>
<g clip-path="url(#clip0)">
<path fill-rule="evenodd" clip-rule="evenodd" d="M65.6652 107.521C65.6859 105.883 64.3141 104.599 62.8448 104.84C61.5451 105.054 60.6627 106.394 60.8943 107.803L61.4179 110.987C61.0788 111.043 60.7297 111.037 60.3906 111.093C60.0516 111.149 59.769 111.195 59.44 111.312L58.9165 108.128C58.6849 106.719 57.4199 105.732 56.1201 105.946C54.6509 106.187 53.7623 107.843 54.2502 109.398L55.486 113.032C53.4533 114.435 52.06 116.551 52.4326 118.817L52.6642 120.225C52.9763 122.124 54.3683 123.53 56.1782 124.302C57.9983 125.135 60.2463 125.394 62.6763 124.995C65.1062 124.595 67.1529 123.63 68.6105 122.258C70.0216 120.957 70.89 119.179 70.5778 117.28L70.3462 115.872C69.9737 113.606 68.0328 112.038 65.6578 111.359L65.6652 107.521ZM56.4142 113.382L54.9546 109.094C54.6038 108.019 55.1673 106.857 56.241 106.681C57.1451 106.532 58.0107 107.207 58.1718 108.187L58.8363 112.229C59.0523 112.131 59.3348 112.084 59.5609 112.047C59.8999 111.991 60.1724 111.884 60.5115 111.828C60.8505 111.772 61.1896 111.716 61.5387 111.722C61.7648 111.685 62.0574 111.7 62.2834 111.662L61.6289 107.682C61.4678 106.702 62.0716 105.785 62.9757 105.636C63.9929 105.469 64.9552 106.38 64.9104 107.52L64.9007 112.05C67.4353 112.639 69.2995 114.094 69.6217 116.054L69.8533 117.462C70.3466 120.463 67.0763 123.516 62.5555 124.26C58.0347 125.003 53.9587 123.157 53.4654 120.157L53.2338 118.748C52.845 116.736 54.1454 114.762 56.4142 113.382Z" fill="#633001"/>
<path d="M53.3989 120.104C53.8922 123.105 57.9681 124.951 62.4889 124.208C67.0097 123.464 70.2801 120.411 69.7868 117.41L69.5552 116.001L53.1108 118.705L53.3423 120.114L53.3989 120.104Z" fill="#FEDC90"/>
<path fill-rule="evenodd" clip-rule="evenodd" d="M64.9105 107.52C64.9553 106.38 63.993 105.469 62.9758 105.636C62.0717 105.785 61.4679 106.702 61.629 107.682L62.2936 111.724C61.7184 111.755 61.1432 111.787 60.5216 111.889C59.9565 111.982 59.4015 112.136 58.8465 112.29L58.1819 108.249C58.0208 107.269 57.1553 106.593 56.2511 106.742C55.2339 106.909 54.614 108.08 54.9647 109.155L56.4243 113.443C54.212 114.814 52.8552 116.798 53.1774 118.757C53.6707 121.758 57.7466 123.604 62.2674 122.861C66.7882 122.117 70.0586 119.064 69.5653 116.063C69.2431 114.103 67.3789 112.649 64.8443 112.059L64.9105 107.52Z" fill="#D1884F"/>
<path d="M63.6174 116.601C63.7483 117.397 64.2546 118.005 64.7632 117.922C65.2718 117.838 65.5566 117.099 65.4257 116.303C65.2948 115.507 64.7885 114.899 64.2799 114.982C63.7713 115.066 63.4865 115.804 63.6174 116.601Z" fill="#633001"/>
<path d="M57.345 117.632C57.4759 118.428 57.9822 119.037 58.4908 118.953C58.9994 118.869 59.2842 118.131 59.1533 117.335C59.0224 116.538 58.5161 115.93 58.0075 116.013C57.4989 116.097 57.2141 116.836 57.345 117.632Z" fill="#633001"/>
</g>
<path d="M27.1134 43.0421C27.1134 43.0421 18.2291 48.2892 15.1754 62.1319C12.5307 74.1176 15.1754 83 15.1754 83L45 66.1189C45 66.1189 42.3176 41.856 27.1134 43.0421Z" fill="#BD4B1E"/>
<path d="M73.4628 18.531C73.4628 18.531 76.5735 9.21478 67.8234 4.01815C61.3087 0.149226 47.8631 -3.78632 33.7494 6.94482C21.2827 16.4244 22.2282 41.3337 28.4799 47.3092C34.73 53.2847 73.4628 18.531 73.4628 18.531Z" fill="#EF5F26"/>
<path d="M52.3497 194.356C51.3265 191.351 48.7469 189.013 48.0673 188.428C46.9224 187.443 39.3131 183 39.3131 183L19 190.315V194.343C19 195.605 19.6318 196.773 20.6612 197.416L34.4251 205.836C39.1636 208.721 44.9993 208.721 49.7378 205.836C51.3804 204.836 52.3728 203.246 52.7319 201.531L52.7396 201.528C52.7396 201.528 53.5332 197.837 52.3497 194.356Z" fill="#693107"/>
<path d="M88.33 178.356C87.2767 175.35 84.6213 173.013 83.9217 172.428C82.7447 171.442 74.9102 167 74.9102 167L54 174.315V178.343C54 179.604 54.6504 180.773 55.7116 181.415L69.8801 189.835C74.7563 192.722 80.7651 192.722 85.6428 189.835C87.3322 188.835 88.3538 187.247 88.7249 185.532L88.7329 185.529C88.7329 185.529 89.5482 181.836 88.33 178.356Z" fill="#693107"/>
<path d="M94.9299 107C94.9299 107 95.6713 116.619 92.3323 123.775C88.9949 130.931 82 126.831 82 126.831L82.8734 108.333L94.9299 107Z" fill="#F8DB8F"/>
<path d="M75 46C75 46 84.4347 50.326 89.7182 62.3893C95 74.4542 95 107.342 95 107.342L81.298 114L75 46Z" fill="#1CA0AA"/>
<path d="M75.237 45.6296C75.237 45.6296 61.7724 42.1621 44.6056 51.5016C27.4404 60.8395 17.3517 67.1603 13.7326 73.7659C10.1151 80.3714 10.5904 127.062 12.2862 137.868C14.2158 150.162 17.8333 160.377 17.8333 160.377L18.7981 190.715C18.7981 190.715 26.1352 197.234 36.8874 195.792C47.3791 194.387 48.9479 189.493 48.9479 189.493V164.293L54.3993 161.099V174.769C54.3993 174.769 64.0346 181.491 71.6995 179.25C81.4336 176.403 81.9732 171.529 81.9732 171.529C81.9732 171.529 84.102 136.583 84.102 123.372C84.102 110.159 89.1675 62.2049 75.237 45.6296Z" fill="#8F5BFD"/>
<path d="M45.0226 52.1474C37.7676 56.0337 31.7785 59.3877 27 62.4591C30.4608 64.4753 34.1433 67.7586 36.3792 71.4612C41.4203 79.8038 41.4077 93 41.4077 93L75 73.6328C75 73.6328 73.1037 54.8875 64.3361 46C59.0938 46.57 52.4018 48.1952 45.0226 52.1474Z" fill="#1FC7D4"/>
<path d="M72.7744 18.198C72.7744 18.198 74.0849 45.0639 70.389 52.7224C68.6395 56.3485 64.9343 58.4106 61.3749 59.448C55.5325 61.1495 44.1594 58.7016 39.1514 55.0549C36.2 52.9059 35.4555 51.9317 35.4555 51.9317C35.4555 51.9317 32.3257 54.1204 30.0009 52.4789C27.676 50.8374 26.3546 46.9552 27.3177 43.8177C28.391 40.3229 29.5527 39.9576 30.567 39.5923C31.5797 39.2286 33.2486 40.8084 33.2486 40.8084C33.2486 40.8084 46.7216 36.6146 54.7695 28.956C62.8189 21.2959 66.842 13 66.842 13L72.7744 18.198Z" fill="#F8DB8F"/>
<path d="M45 107.894L77 89V114.563C77 125.219 71.4406 135.063 62.4171 140.391C54.6767 144.962 45 139.248 45 130.107V107.894Z" fill="#553499"/>
<path d="M16.5316 70C15.3635 71.2646 14.4348 72.5149 13.7421 73.7764C11.2171 78.382 10.6787 102.432 11.1588 120.289C15.6154 121.655 20.645 121.172 24.272 117.788C31.1686 111.352 32.8027 98.1122 28.9915 83.9524C25.5392 71.1291 17.9358 70.0829 16.5316 70Z" fill="#1CA0AA"/>
<path d="M1 144.21C1 144.21 2.28145 156.294 8.55814 157.706C14.8783 159.126 18.5583 155.057 19.5496 152.808C20.5409 150.559 19.5867 139 19.5867 139L1 144.21Z" fill="#F8DB8F"/>
<path d="M16.8078 70C16.8078 70 5.31679 80.924 1.44863 103.791C-1.81079 123.06 1.44863 143.932 1.44863 143.932C1.44863 143.932 6.24508 144.422 11.9507 142.777C18.7731 140.808 19.8723 138.58 19.8723 138.58C19.8723 138.58 20.2414 115.226 22.0836 99.5347C23.9258 83.8433 27.0063 72.2136 16.8078 70Z" fill="#1FC7D4"/>
<path d="M70.4112 27.9247C70.4112 29.3477 69.5489 31.0012 68.4871 31.6181C67.4238 32.235 66.563 31.58 66.563 30.157C66.563 28.7324 67.4238 27.0788 68.4871 26.4619C69.5489 25.8466 70.4112 26.5001 70.4112 27.9247Z" fill="#162F4D"/>
<path d="M56.9668 35.6948C56.9668 37.1194 56.106 38.7729 55.0442 39.3882C53.9809 40.0051 53.1201 39.3516 53.1201 37.9271C53.1201 36.5041 53.9809 34.8505 55.0442 34.2336C56.106 33.6167 56.9668 34.2718 56.9668 35.6948Z" fill="#162F4D"/>
<g clip-path="url(#clip1)">
<path fill-rule="evenodd" clip-rule="evenodd" d="M65.6652 107.521C65.6859 105.883 64.3141 104.599 62.8448 104.84C61.5451 105.054 60.6627 106.394 60.8943 107.803L61.4179 110.987C61.0788 111.043 60.7297 111.037 60.3906 111.093C60.0516 111.149 59.769 111.195 59.44 111.312L58.9165 108.128C58.6849 106.719 57.4199 105.732 56.1201 105.946C54.6509 106.187 53.7623 107.843 54.2502 109.398L55.486 113.032C53.4533 114.435 52.06 116.551 52.4326 118.817L52.6642 120.225C52.9763 122.124 54.3683 123.53 56.1782 124.302C57.9983 125.135 60.2463 125.394 62.6763 124.995C65.1062 124.595 67.1529 123.63 68.6105 122.258C70.0216 120.957 70.89 119.179 70.5778 117.28L70.3462 115.872C69.9737 113.606 68.0328 112.038 65.6578 111.359L65.6652 107.521ZM56.4142 113.382L54.9546 109.094C54.6038 108.019 55.1673 106.857 56.241 106.681C57.1451 106.532 58.0107 107.207 58.1718 108.187L58.8363 112.229C59.0523 112.131 59.3348 112.084 59.5609 112.047C59.8999 111.991 60.1724 111.884 60.5115 111.828C60.8505 111.772 61.1896 111.716 61.5387 111.722C61.7648 111.685 62.0574 111.7 62.2834 111.662L61.6289 107.682C61.4678 106.702 62.0716 105.785 62.9757 105.636C63.9929 105.469 64.9552 106.38 64.9104 107.52L64.9007 112.05C67.4353 112.639 69.2995 114.094 69.6217 116.054L69.8533 117.462C70.3466 120.463 67.0763 123.516 62.5555 124.26C58.0347 125.003 53.9587 123.157 53.4654 120.157L53.2338 118.748C52.845 116.736 54.1454 114.762 56.4142 113.382Z" fill="#633001"/>
<path d="M53.3989 120.104C53.8922 123.105 57.9681 124.951 62.4889 124.208C67.0097 123.464 70.2801 120.411 69.7868 117.41L69.5552 116.001L53.1108 118.705L53.3423 120.114L53.3989 120.104Z" fill="#FEDC90"/>
<path fill-rule="evenodd" clip-rule="evenodd" d="M64.9105 107.52C64.9553 106.38 63.993 105.469 62.9758 105.636C62.0717 105.785 61.4679 106.702 61.629 107.682L62.2936 111.724C61.7184 111.755 61.1432 111.787 60.5216 111.889C59.9565 111.982 59.4015 112.136 58.8465 112.29L58.1819 108.249C58.0208 107.269 57.1553 106.593 56.2511 106.742C55.2339 106.909 54.614 108.08 54.9647 109.155L56.4243 113.443C54.212 114.814 52.8552 116.798 53.1774 118.757C53.6707 121.758 57.7466 123.604 62.2674 122.861C66.7882 122.117 70.0586 119.064 69.5653 116.063C69.2431 114.103 67.3789 112.649 64.8443 112.059L64.9105 107.52Z" fill="#D1884F"/>
<path d="M63.6174 116.601C63.7483 117.397 64.2546 118.005 64.7632 117.922C65.2718 117.838 65.5566 117.099 65.4257 116.303C65.2948 115.507 64.7885 114.899 64.2799 114.982C63.7713 115.066 63.4865 115.804 63.6174 116.601Z" fill="#633001"/>
<path d="M57.345 117.632C57.4759 118.428 57.9822 119.037 58.4908 118.953C58.9994 118.869 59.2842 118.131 59.1533 117.335C59.0224 116.538 58.5161 115.93 58.0075 116.013C57.4989 116.097 57.2141 116.836 57.345 117.632Z" fill="#633001"/>
</g>
<defs>
<clipPath id="clip0">
<rect width="18.1542" height="19.8601" fill="white" transform="matrix(-0.986752 0.162238 0.162238 0.986752 68.3828 103.93)"/>
</clipPath>
<clipPath id="clip1">
<rect width="18.1542" height="19.8601" fill="white" transform="matrix(-0.986752 0.162238 0.162238 0.986752 68.3828 103.93)"/>
</clipPath>
</defs>
</svg>
