<svg width="511" height="511" viewBox="0 0 511 511" fill="none" xmlns="http://www.w3.org/2000/svg">
<g clip-path="url(#clip0)">
<path d="M251.972 377.644V501.613H251.976C252.054 504.112 253.605 506.486 256.697 508.272C263.695 512.314 275.921 511.808 284.003 507.141C288.474 504.56 290.736 501.25 290.685 498.12H290.689V355.29L251.972 377.644Z" fill="#EF5F26"/>
<path d="M192.958 471.001C186.51 471.001 181.282 465.769 181.282 459.32V411.632C181.282 405.18 186.51 399.952 192.958 399.952C199.41 399.952 204.638 405.18 204.638 411.632V459.32C204.638 465.769 199.41 471.001 192.958 471.001Z" fill="#FFE14D"/>
<path d="M232.775 452.096C226.327 452.096 221.095 446.864 221.095 440.416V392.724C221.095 386.276 226.327 381.048 232.775 381.048C239.223 381.048 244.455 386.276 244.455 392.724V440.416C244.455 446.864 239.223 452.096 232.775 452.096Z" fill="#FFE14D"/>
<path d="M314.775 407.25C308.326 407.25 303.094 402.018 303.094 395.57V347.878C303.094 341.43 308.326 336.202 314.775 336.202C321.227 336.202 326.455 341.43 326.455 347.878V395.57C326.455 402.018 321.227 407.25 314.775 407.25Z" fill="#FFE14D"/>
<path d="M273.169 431.094C266.716 431.094 261.488 425.866 261.488 419.418V371.726C261.488 365.274 266.72 360.046 273.169 360.046C279.617 360.046 284.845 365.274 284.845 371.726V419.418C284.845 425.866 279.617 431.094 273.169 431.094Z" fill="#FFE14D"/>
<path d="M343.769 388.346C337.32 388.346 332.092 383.114 332.092 376.666V328.974C332.092 322.525 337.32 317.293 343.769 317.293C350.221 317.293 355.449 322.525 355.449 328.974V376.666C355.449 383.114 350.221 388.346 343.769 388.346Z" fill="#FFE14D"/>
<path d="M494.934 64.5846C493.916 58.2181 487.936 53.8751 481.558 54.8965L459.094 58.4832L481.632 44.1675C487.078 40.7094 488.688 33.493 485.23 28.0467C481.768 22.6042 474.552 20.9902 469.109 24.4521L450.899 36.0155L463.636 18.5652C467.437 13.3567 466.298 6.05063 461.086 2.24557C455.873 -1.55558 448.567 -0.417187 444.766 4.79528L395.686 72.0426C395.605 72.1557 399.106 88.9432 399.281 89.0406L449.242 117.887C451.082 118.951 453.09 119.454 455.07 119.454C459.105 119.454 463.031 117.36 465.195 113.614C468.423 108.027 466.509 100.885 460.922 97.6605L439.464 85.2707L485.238 77.9608C491.608 76.9432 495.947 70.9549 494.934 64.5846Z" fill="#FFE14D"/>
<path d="M358.33 168.382V323.091C358.33 324.962 357.597 326.752 356.287 328.089C348.385 336.143 318.51 365.64 284.362 387.297C253.57 406.825 207.84 421.196 188.553 426.743C183.996 428.057 179.454 424.63 179.454 419.886V303.668L115.349 348.564C106.538 354.732 94.7287 354.525 86.1908 347.98C83.0719 345.586 80.0348 342.549 77.5358 338.705C75.1655 335.056 73.6606 330.904 72.7366 326.728C69.9296 314.058 72.4637 300.795 78.9939 289.578C95.6566 260.97 144.081 186.752 224.99 133.583C297.141 86.1714 362.015 60.9512 393.925 50.2222C407.55 45.6413 422.279 52.6198 427.461 66.0311C430.042 72.7211 432.057 80.5691 432.303 89.0564C432.595 99.415 431.094 107.735 429.2 113.965C426.79 121.894 421.449 128.604 414.435 133.025L358.33 168.382Z" fill="#2B5D99"/>
<path d="M287.281 211.82L303.952 88.0933C279.706 100.237 252.899 115.243 224.989 133.586C213.668 141.025 207.024 145.695 196.974 153.773L287.281 211.82Z" fill="#FFE14D"/>
<path d="M308.334 107.734C308.334 144.658 278.401 174.592 241.477 174.592C204.553 174.592 174.623 144.658 174.623 107.734C174.623 70.8106 204.553 40.877 241.477 40.877C278.401 40.877 308.334 70.8106 308.334 107.734Z" fill="#EF5F26"/>
<path d="M312.307 116.674C265.122 143.918 193.738 146.877 152.873 123.282C112.007 99.6879 117.13 58.4756 164.319 31.232C211.508 3.9884 282.888 1.02934 323.757 24.6238C364.623 48.2183 359.496 89.4306 312.307 116.674Z" fill="#F7BD69"/>
<path d="M309.445 63.1538C305.414 28.1715 275.71 0.998047 239.644 0.998047C200.83 0.998047 169.36 32.4677 169.36 71.2824C169.36 72.3663 169.395 73.4462 169.442 74.5183C217.851 104.117 281.925 89.7619 309.445 63.1538Z" fill="#F8DB8F"/>
<path d="M172.717 49.8087C170.545 56.5768 169.364 63.7892 169.364 71.2824C169.364 72.3662 169.395 73.4461 169.446 74.5182C217.851 104.117 281.925 89.7618 309.445 63.1576C308.572 55.5865 306.436 48.4169 303.356 41.7737C274.026 64.3428 217.379 74.9705 172.717 49.8087Z" fill="#BF0025"/>
<path d="M297.819 235.34C297.819 241.489 294.085 248.631 289.472 251.294C284.86 253.952 281.125 251.13 281.125 244.982C281.125 238.834 284.86 231.691 289.472 229.029C294.085 226.37 297.819 229.192 297.819 235.34Z" fill="#FFE14D"/>
<path d="M297.819 283.52C297.819 289.668 294.085 296.806 289.472 299.469C284.86 302.132 281.125 299.305 281.125 293.161C281.125 287.013 284.86 279.87 289.472 277.208C294.085 274.545 297.819 277.371 297.819 283.52Z" fill="#FFE14D"/>
<path d="M297.819 336.288C297.819 342.436 294.085 349.574 289.472 352.237C284.86 354.9 281.125 352.073 281.125 345.929C281.125 339.781 284.86 332.639 289.472 329.976C294.085 327.313 297.819 330.14 297.819 336.288Z" fill="#FFE14D"/>
<path d="M107.372 322.845C99.6487 310.794 84.3661 306.097 71.1887 311.683C56.7677 317.796 38.2102 326.401 23.4111 335.749C17.9569 339.192 16.3273 346.404 19.7698 351.859C23.2161 357.313 30.4325 358.95 35.8828 355.5C45.0328 349.718 55.8008 344.225 65.9646 339.512L38.0816 366.416C33.4383 370.896 33.3058 378.291 37.7853 382.931C42.2648 387.574 49.6566 387.706 54.2999 383.227L73.1263 365.063L62.9665 392.693C60.7404 398.743 63.8437 405.457 69.8983 407.683C71.2277 408.174 72.5883 408.404 73.9255 408.404C78.6819 408.404 83.1536 405.476 84.8885 400.751L92.2335 380.782L94.4089 406.467C94.9235 412.556 100.027 417.161 106.035 417.161C106.362 417.161 106.697 417.145 107.033 417.118C113.458 416.572 118.23 410.923 117.684 404.494L111.906 336.202C111.504 331.445 109.949 326.861 107.372 322.845Z" fill="#FFE14D"/>
</g>
<defs>
<clipPath id="clip0">
<rect width="511" height="511" fill="white"/>
</clipPath>
</defs>
</svg>
 