<?xml version="1.0" encoding="iso-8859-1"?>
<!-- Generator: Adobe Illustrator 19.0.0, SVG Export Plug-In . SVG Version: 6.00 Build 0)  -->
<svg version="1.1" id="Capa_1" xmlns="http://www.w3.org/2000/svg" xmlns:xlink="http://www.w3.org/1999/xlink" x="0px" y="0px"
	 viewBox="0 0 512 512" style="enable-background:new 0 0 512 512;" xml:space="preserve">
<g>
	<polygon style="fill:#A66206;" points="254.942,335.402 165.616,387.358 165.616,460.047 255.557,512 344.917,460.044 
		344.917,387.355 	"/>
	<polygon style="fill:#A66206;" points="344.917,387.355 344.917,460.044 255.557,512 255.557,439.311 	"/>
</g>
<polygon style="fill:#D07400;" points="255.557,439.311 255.557,512 165.616,460.047 165.616,387.358 "/>
<polygon style="fill:#8FCC05;" points="344.917,387.355 255.557,439.311 165.616,387.358 254.942,335.402 "/>
<g>
	<polygon style="fill:#86BC06;" points="254.976,319.997 165.616,371.927 165.616,392.75 255.557,444.678 344.917,392.748 
		344.917,371.925 	"/>
	<polygon style="fill:#86BC06;" points="344.917,371.925 344.917,392.748 255.557,444.678 255.557,423.854 	"/>
</g>
<polygon style="fill:#8FCC05;" points="255.557,423.854 255.557,444.678 165.616,392.75 165.616,371.927 "/>
<polygon style="fill:#9CDD03;" points="344.917,371.925 255.557,423.854 165.616,371.927 254.976,319.997 "/>
<path style="fill:#FFA834;" d="M278.634,194.355c0.147-3.597-2.153-7.223-6.908-9.969c-9.186-5.303-24.026-5.303-33.152,0
	c-4.548,2.644-6.816,6.104-6.812,9.568c0-0.012-0.001-0.022-0.001-0.034v180.29c-0.009,3.497,2.298,6.999,6.921,9.668
	c9.186,5.303,24.026,5.303,33.152,0c4.534-2.634,6.804-6.082,6.813-9.534v-180.29C278.646,194.154,278.638,194.254,278.634,194.355z
	"/>
<g style="enable-background:new    ;">
	<path style="fill:#FEDAAA;" d="M271.726,184.386c9.186,5.303,9.234,13.899,0.108,19.203c-9.126,5.303-23.967,5.303-33.152,0
		c-9.186-5.303-9.234-13.899-0.108-19.203S262.541,179.082,271.726,184.386z"/>
	<path style="fill:#FFA834;" d="M278.647,194.054v180.29c-0.009,3.452-2.279,6.9-6.813,9.534c-9.126,5.303-23.967,5.303-33.152,0
		c-4.623-2.669-6.931-6.171-6.921-9.668V193.92c-0.009,3.497,2.298,6.999,6.921,9.668c9.186,5.303,24.026,5.303,33.152,0
		C276.368,200.954,278.637,197.506,278.647,194.054z"/>
</g>
<g>
	<rect x="239.09" y="213.763" style="fill:#FF9911;" width="1.593" height="96.903"/>
	<rect x="239.09" y="317.272" style="fill:#FF9911;" width="1.593" height="35.83"/>
	<rect x="254.408" y="246.545" style="fill:#FF9911;" width="1.593" height="133.413"/>
	<rect x="254.408" y="226.149" style="fill:#FF9911;" width="1.593" height="11.98"/>
	<rect x="268.345" y="232.138" style="fill:#FF9911;" width="1.593" height="126.471"/>
</g>
<circle style="fill:#9CDD03;" cx="256" cy="127.738" r="127.738"/>
<path style="fill:#8FCC05;" d="M339.815,31.345c10.964,18.848,17.247,40.754,17.247,64.13c0,70.548-57.19,127.738-127.738,127.738
	c-32.073,0-61.382-11.822-83.815-31.345c22.124,38.036,63.319,63.608,110.492,63.608c70.548,0,127.738-57.19,127.738-127.738
	C383.738,89.263,366.726,54.764,339.815,31.345z"/>
<g>
</g>
<g>
</g>
<g>
</g>
<g>
</g>
<g>
</g>
<g>
</g>
<g>
</g>
<g>
</g>
<g>
</g>
<g>
</g>
<g>
</g>
<g>
</g>
<g>
</g>
<g>
</g>
<g>
</g>
</svg>
