<svg width="96" height="96" viewBox="0 0 96 96" fill="none" xmlns="http://www.w3.org/2000/svg">
<path d="M48 96C74.5098 96 96 74.5098 96 48C96 21.4902 74.5098 0 48 0C21.4902 0 0 21.4902 0 48C0 74.5098 21.4902 96 48 96Z" fill="#F0B90B"/>
<path d="M29.3531 48L21.7031 55.7031L14 48L21.7031 40.2969L29.3531 48ZM48 29.3531L61.175 42.5281L68.8781 34.825L55.7031 21.7031L48 14L40.2969 21.7031L27.175 34.825L34.8781 42.5281L48 29.3531ZM74.2969 40.2969L66.6469 48L74.35 55.7031L82 48L74.2969 40.2969ZM48 66.6469L34.825 53.4719L27.175 61.175L40.35 74.35L48 82L55.7031 74.2969L68.8781 61.1219L61.175 53.4719L48 66.6469ZM48 55.7031L55.7031 48L48 40.2969L40.2969 48L48 55.7031Z" fill="#FFFDFA"/>
<path d="M75.2023 79.348C75.2023 79.348 72.2512 63.4531 95.0905 63.4531C95.0905 63.4531 94.9624 71.1154 89.9582 75.0992C84.954 79.0832 75.2023 79.348 75.2023 79.348Z" fill="#47B85B"/>
<path d="M95.0906 63.4531C95.0906 63.4531 94.9622 71.1255 89.958 75.0992C84.9538 79.0731 75.2021 79.348 75.2021 79.348C79.5263 73.1227 85.3516 68.8839 89.5474 66.3163C92.0111 64.8082 95.0906 63.4531 95.0906 63.4531Z" fill="#399349"/>
<path d="M68.5299 71.4009C68.5299 71.4009 71.4811 55.5059 48.6415 55.5059C48.6415 55.5059 48.7699 63.168 53.774 67.1521C58.7783 71.1359 68.5299 71.4009 68.5299 71.4009Z" fill="#47B85B"/>
<path d="M68.5299 71.4009C68.5299 71.4009 58.7653 71.1258 53.774 67.1521C48.7699 63.1782 48.6415 55.5059 48.6415 55.5059C48.6415 55.5059 53.0042 57.4724 54.7364 58.4403C59.5737 61.1608 65.9764 65.6134 68.5299 71.4009Z" fill="#399349"/>
<path d="M72.5077 96.4965L71.2246 96.4455C71.2375 96.2926 72.1998 81.2535 67.9271 71.5739C65.4377 65.919 59.1761 61.5479 54.3644 58.8682L55.0958 58.0327C60.0614 60.7939 66.5285 65.3281 69.1333 71.2378C73.4957 81.1009 72.5207 96.3436 72.5077 96.4965Z" fill="#2B6E37"/>
<path d="M53.176 60.3989L58.9115 60.5037L58.882 61.5227L53.1465 61.4179L53.176 60.3989Z" fill="#2B6E37"/>
<path d="M63.196 60.8909L63.7807 64.2735L62.5091 64.412L61.9244 61.0294L63.196 60.8909Z" fill="#2B6E37"/>
<path d="M60.1304 66.1509L65.4553 66.1721L65.449 67.1909L60.1241 67.1698L60.1304 66.1509Z" fill="#2B6E37"/>
<path d="M72.1484 84.7583L71.032 84.2591C72.1611 82.6492 73.3673 80.917 74.6377 79.0931C79.0515 72.7556 84.9668 68.4254 89.1626 65.9087L89.9325 66.7238C85.8393 69.1793 80.0652 73.4077 75.7668 79.5924C74.4964 81.4163 73.2774 83.1484 72.1484 84.7583Z" fill="#2B6E37"/>
<path d="M91.4347 68.2683L91.5424 69.284L85.3124 69.7009L85.2047 68.685L91.4347 68.2683Z" fill="#2B6E37"/>
<path d="M82.032 68.8579L82.6274 71.7011L81.3623 71.8684L80.7668 69.0251L82.032 68.8579Z" fill="#2B6E37"/>
<path d="M85.788 73.7612L85.8933 74.7771L79.0365 75.225L78.9312 74.2091L85.788 73.7612Z" fill="#2B6E37"/>
<path d="M65.8738 71.7064C62.7046 71.3499 56.8664 70.3411 53.3121 67.5086C48.1925 63.4329 48 55.8318 48 55.516C48 55.3835 48.0642 55.2511 48.1796 55.1492C48.2951 55.0473 48.4747 54.9963 48.6415 54.9963C56.058 54.9963 61.601 56.647 65.1296 59.8871C70.352 64.6963 69.2227 71.1971 69.1715 71.472L67.9011 71.3193L68.5299 71.3906L67.9011 71.3193C67.9141 71.2582 68.9917 64.9917 64.1546 60.5392C60.9852 57.6353 55.9938 56.1171 49.3088 56.0153C49.4499 57.778 50.207 63.5857 54.2231 66.785C57.5079 69.4037 63.051 70.3512 66.0536 70.6875L65.8738 71.7064Z" fill="#4D2419"/>
<path d="M75.2023 79.8575C74.8815 79.8575 74.612 79.6741 74.5735 79.4194C74.5223 79.1442 73.3803 72.6437 78.6155 67.8343C82.1312 64.5943 87.6744 62.9436 95.0908 62.9436C95.2576 62.9436 95.4244 62.9945 95.5526 63.0964C95.6809 63.1983 95.7451 63.3206 95.7323 63.4632C95.7323 63.7893 95.5398 71.3802 90.4072 75.4558C85.2877 79.5315 75.6257 79.8474 75.2151 79.8575H75.2023ZM94.4235 63.9625C87.7383 64.0542 82.7599 65.5826 79.5907 68.4864C75.5103 72.2259 75.6386 77.2592 75.7797 78.7979C77.9482 78.6654 85.4417 77.9623 89.5092 74.7324C93.5254 71.5432 94.2824 65.7355 94.4235 63.9625Z" fill="#4D2419"/>
<path d="M72.5077 96.4965L71.2246 96.4455C71.2375 96.2926 72.1998 81.2535 67.9271 71.5739C65.4377 65.919 59.1761 61.5479 54.3644 58.8682L55.0958 58.0327C60.0614 60.7939 66.5285 65.3281 69.1333 71.2378C73.4957 81.1009 72.5207 96.3436 72.5077 96.4965Z" fill="#4D2419"/>
<path d="M53.176 60.3989L58.9115 60.5037L58.882 61.5227L53.1465 61.4179L53.176 60.3989Z" fill="#4D2419"/>
<path d="M63.196 60.8909L63.7807 64.2735L62.5091 64.412L61.9244 61.0294L63.196 60.8909Z" fill="#4D2419"/>
<path d="M60.1304 66.1509L65.4553 66.1721L65.449 67.1909L60.1241 67.1698L60.1304 66.1509Z" fill="#4D2419"/>
<path d="M72.1484 84.7583L71.032 84.2591C72.1611 82.6492 73.3673 80.917 74.6377 79.0931C79.0515 72.7556 84.9668 68.4254 89.1626 65.9087L89.9325 66.7238C85.8393 69.1793 80.0652 73.4077 75.7668 79.5924C74.4964 81.4163 73.2774 83.1484 72.1484 84.7583Z" fill="#4D2419"/>
<path d="M91.4347 68.2683L91.5424 69.284L85.3124 69.7009L85.2047 68.685L91.4347 68.2683Z" fill="#4D2419"/>
<path d="M82.032 68.8579L82.6274 71.7011L81.3623 71.8684L80.7668 69.0251L82.032 68.8579Z" fill="#4D2419"/>
<path d="M85.788 73.7612L85.8933 74.7771L79.0365 75.225L78.9312 74.2091L85.788 73.7612Z" fill="#4D2419"/>
</svg>
