<svg width="96" height="96" viewBox="0 0 96 96" fill="none" xmlns="http://www.w3.org/2000/svg">
<path d="M48 96C74.5097 96 96 74.5097 96 48C96 21.4903 74.5097 0 48 0C21.4903 0 0 21.4903 0 48C0 74.5097 21.4903 96 48 96Z" fill="url(#paint0_linear)"/>
<path d="M35.125 31.4959C35.125 31.4959 47.7564 28.3354 46.9403 39.4822C46.9403 39.4822 36.6274 43.7303 35.125 31.4959Z" fill="#399349"/>
<path d="M74.5406 37.6641C74.5406 37.6641 62.8551 28.9471 58.6817 37.0524C58.6631 37.0524 64.9881 47.4346 74.5406 37.6641Z" fill="#399349"/>
<path d="M35.125 31.4959L46.9403 39.4822C47.7564 28.3184 35.125 31.4959 35.125 31.4959Z" fill="#47B85B"/>
<path d="M74.4849 37.7151C74.5034 37.6981 74.522 37.6811 74.5405 37.6641C74.5405 37.6641 62.855 28.9471 58.6816 37.0524C58.6816 37.0524 58.7002 37.0694 58.7187 37.1203L74.4849 37.7151Z" fill="#47B85B"/>
<path d="M41.5879 34.7935L51.6988 41.6368L50.5971 43.003L40.4861 36.1597L41.5879 34.7935Z" fill="#2B6E37"/>
<path d="M51.8076 35.9482L66.613 36.532L66.5332 38.2296L51.7279 37.6458L51.8076 35.9482Z" fill="#2B6E37"/>
<path d="M50.1312 50.1023L48.3506 49.6265L48.6103 48.8109C52.8949 35.1152 50.9474 22.9488 50.9288 22.8299L50.7804 21.9973L52.6167 21.7424L52.7651 22.575C52.8578 23.0848 54.8054 35.2172 50.4095 49.2697L50.1312 50.1023Z" fill="#2B6E37"/>
<path d="M79.1781 60.9434H19.8232L23.5329 84.0527C25.5732 85.9219 35.1628 89.1504 49.5007 89.1504C63.8386 89.1504 73.2426 86.0918 75.4684 84.0527L79.1781 60.9434Z" fill="#AC2C2C"/>
<path d="M21.0845 68.7598C27.02 70.1871 37.537 71.1387 49.5007 71.1387C61.4644 71.1387 71.9813 70.1871 77.9168 68.7598L79.1781 60.9434H19.8232L21.0845 68.7598Z" fill="#8D2323"/>
<path d="M49.5003 50.748C30.9519 50.748 15.9277 53.025 15.9277 55.8457V60.9434C15.9277 63.7641 30.9519 66.041 49.5003 66.041C68.0487 66.041 83.0729 63.7641 83.0729 60.9434V55.8457C83.0729 53.025 68.0487 50.748 49.5003 50.748Z" fill="#AC2C2C"/>
<path fill-rule="evenodd" clip-rule="evenodd" d="M49.5003 50.748C30.9519 50.748 15.9277 53.025 15.9277 55.8457V60.9434C15.9277 63.5262 28.6334 65.6672 45.0858 65.99C47.8866 61.5041 49.5003 56.3045 49.5003 50.748Z" fill="#CE4C4C"/>
<path d="M49.5003 60.9434C68.0419 60.9434 83.0729 58.6611 83.0729 55.8457C83.0729 53.0303 68.0419 50.748 49.5003 50.748C30.9587 50.748 15.9277 53.0303 15.9277 55.8457C15.9277 58.6611 30.9587 60.9434 49.5003 60.9434Z" fill="#862727"/>
<path d="M35.5889 14.8605C35.5889 18.7348 41.5985 18.9387 41.5985 18.9387C41.5985 18.9387 37.2582 20.8758 38.5937 24.3422C39.9292 27.8086 45.605 22.609 45.605 22.609C45.605 22.609 42.2663 29.3379 47.1631 29.3379C52.0598 29.3379 51.8373 22.7109 51.8373 22.7109C51.8373 22.7109 53.7848 29.7967 57.5131 26.3813C61.2413 22.9658 55.3985 20.6719 55.3985 20.6719C55.3985 20.6719 63.4115 23.1187 63.4115 18.327C63.4115 13.5352 56.8453 15.6762 56.8453 15.6762C56.8453 15.6762 63.8566 11.0883 60.6292 8.13164C57.4018 5.175 53.8405 10.6805 53.8405 10.6805C53.8405 10.6805 55.6211 3.84961 50.6131 3.84961C45.605 3.84961 46.7179 10.3746 46.7179 10.3746C46.7179 10.3746 44.4921 6.02461 41.2647 7.04414C38.0373 8.06367 41.4873 13.0254 41.4873 13.0254C41.4873 13.0254 35.5889 10.9863 35.5889 14.8605V14.8605Z" fill="#FFE3A8"/>
<path d="M71.3504 59.7199C65.4891 60.4845 57.8472 60.9433 49.5004 60.9433C41.1536 60.9433 33.5117 60.4845 27.6504 59.7199C30.006 57.6299 35.2181 53.3648 41.1722 50.9179C43.8802 49.7965 46.7181 49.0658 49.5189 49.0658C52.3198 49.0658 55.1577 49.8135 57.8657 50.9179C63.7827 53.3648 69.0133 57.6299 71.3504 59.7199Z" fill="#F89720"/>
<path d="M56.8453 15.6761C56.8453 15.6761 63.8566 11.0883 60.6292 8.13162C59.2751 6.89119 57.8469 7.14607 56.6598 7.85974C54.8235 16.016 47.4783 22.3201 38.3525 23.4076C38.3896 23.7135 38.4638 24.0193 38.5937 24.3592C39.9292 27.8256 45.605 22.626 45.605 22.626C45.605 22.626 42.2662 29.3549 47.163 29.3549C52.0598 29.3549 51.8372 22.7279 51.8372 22.7279C51.8372 22.7279 53.7848 29.8136 57.513 26.3982C61.2413 22.9828 55.3985 20.6888 55.3985 20.6888C55.3985 20.6888 63.4114 23.1187 63.4114 18.3269C63.4114 13.5351 56.8453 15.6761 56.8453 15.6761V15.6761Z" fill="#FFCB5C"/>
<path d="M49.5004 20.8418C52.0614 20.8418 54.1375 18.9399 54.1375 16.5938C54.1375 14.2476 52.0614 12.3457 49.5004 12.3457C46.9394 12.3457 44.8633 14.2476 44.8633 16.5938C44.8633 18.9399 46.9394 20.8418 49.5004 20.8418Z" fill="#F89720"/>
<path d="M49.5001 21.6914C46.4396 21.6914 43.9355 19.3975 43.9355 16.5938C43.9355 13.79 46.4396 11.4961 49.5001 11.4961C52.5605 11.4961 55.0646 13.79 55.0646 16.5938C55.0646 19.3975 52.5605 21.6914 49.5001 21.6914ZM49.5001 13.1953C47.4597 13.1953 45.7904 14.7246 45.7904 16.5938C45.7904 18.4629 47.4597 19.9922 49.5001 19.9922C51.5404 19.9922 53.2097 18.4629 53.2097 16.5938C53.2097 14.7246 51.5404 13.1953 49.5001 13.1953Z" fill="#4D2419"/>
<path d="M47.1627 30.1875C45.4377 30.1875 44.5845 29.4738 44.1579 28.8791C43.4345 27.8426 43.4902 26.3982 43.7684 25.1238C42.4886 25.9225 40.9305 26.6021 39.6321 26.3303C39.0015 26.1943 38.1668 25.8035 37.7216 24.6311C36.8684 22.4221 37.9256 20.6379 39.2426 19.4484C37.0353 18.8877 34.6611 17.5453 34.6611 14.8605C34.6611 13.3822 35.3845 12.6176 35.9966 12.2438C37.0539 11.5641 38.5192 11.5641 39.7063 11.734C39.1684 10.5615 38.6861 9.04922 39.1498 7.84277C39.4466 7.07812 40.0773 6.51738 40.9676 6.24551C42.9894 5.5998 44.6216 6.53437 45.7716 7.63887C45.92 6.51738 46.291 5.29395 47.1442 4.37637C47.9789 3.45879 49.1474 3 50.6127 3C52.0224 3 53.1724 3.47578 53.9329 4.35938C54.7861 5.34492 55.0458 6.7043 55.0829 7.92773C55.9176 7.21406 56.9748 6.56836 58.1248 6.43242C58.9224 6.34746 60.1095 6.44941 61.2781 7.51992C62.0942 8.26758 62.4837 9.20215 62.391 10.2047C62.2611 11.717 61.0926 13.1953 59.9055 14.3338C60.8886 14.3508 61.9087 14.5207 62.7434 15.0645C63.8006 15.7441 64.3386 16.8486 64.3386 18.31C64.3386 19.9582 63.5224 20.8588 62.8176 21.3176C61.7603 22.0143 60.3135 22.1842 58.941 22.1332C59.2563 22.541 59.4974 23.0168 59.6087 23.5266C59.8498 24.699 59.3676 25.8545 58.1619 26.976C56.7894 28.2334 55.5837 28.2674 54.8047 28.0635C53.7289 27.7916 52.9127 26.942 52.3006 25.9904C51.9853 27.01 51.4845 28.0635 50.6498 28.8621C49.7224 29.7457 48.5539 30.1875 47.1627 30.1875V30.1875ZM45.6047 21.7594C45.7902 21.7594 45.9756 21.8104 46.124 21.9123C46.495 22.1502 46.6248 22.592 46.4394 22.9658C45.7531 24.3422 44.9555 26.908 45.6974 27.9615C45.7902 28.0975 46.0684 28.4883 47.1442 28.4883C48.016 28.4883 48.7208 28.2334 49.2958 27.6896C50.9837 26.1094 50.891 22.7619 50.891 22.7279C50.8724 22.3031 51.2248 21.9293 51.6885 21.8613C52.1523 21.8104 52.5974 22.0822 52.7087 22.49C53.1168 23.9514 54.174 26.1434 55.2869 26.4152C55.7136 26.5172 56.2329 26.2963 56.8265 25.7695C57.5684 25.0898 57.9023 24.4271 57.7724 23.8494C57.5313 22.677 55.6394 21.6914 55.0087 21.4535C54.545 21.2666 54.3224 20.7908 54.5079 20.366C54.6934 19.9412 55.1942 19.7203 55.6765 19.8562C56.845 20.2131 60.2394 20.9268 61.7232 19.9412C62.224 19.6014 62.4652 19.0746 62.4652 18.31C62.4652 17.4094 62.2055 16.7977 61.649 16.4408C60.4248 15.6422 57.9208 16.2029 57.1418 16.4578C56.6966 16.5937 56.2144 16.4238 56.0103 16.05C55.7877 15.6762 55.9176 15.2174 56.2886 14.9625C57.4015 14.2318 60.3506 11.9039 60.5176 10.0518C60.5732 9.54199 60.3877 9.1002 59.9426 8.70937C59.4232 8.23359 58.8853 8.02969 58.3289 8.09766C56.7523 8.28457 55.0829 10.3746 54.6006 11.0883C54.3595 11.4451 53.8773 11.598 53.4506 11.4451C53.024 11.2922 52.7829 10.8674 52.8942 10.4596C53.1539 9.49102 53.5434 6.6873 52.4305 5.3959C52.0224 4.92012 51.4103 4.68223 50.5756 4.68223C49.6668 4.68223 48.999 4.93711 48.4982 5.46387C47.3111 6.73828 47.441 9.33809 47.5894 10.2217C47.6636 10.6465 47.3853 11.0373 46.9402 11.1732C46.495 11.2922 46.0313 11.1053 45.8273 10.7145C45.8087 10.6805 43.9168 7.06113 41.524 7.82578C41.0603 7.97871 40.9305 8.19961 40.8563 8.38652C40.4482 9.45703 41.5982 11.649 42.2289 12.5496C42.4515 12.8555 42.4144 13.2633 42.1732 13.5352C41.9136 13.824 41.5055 13.926 41.1345 13.79C40.3926 13.5352 38.0369 12.9574 37.0168 13.6031C36.8869 13.6881 36.4974 13.943 36.4974 14.8266C36.4974 17.8342 41.5611 18.0551 41.6168 18.0551C42.0434 18.0721 42.3958 18.3439 42.4886 18.7348C42.5813 19.1256 42.3773 19.4994 41.9877 19.6693C41.8394 19.7373 38.4079 21.3176 39.4466 24.0193C39.6506 24.5461 39.9103 24.5971 40.0216 24.6311C41.1345 24.8689 43.6015 23.1867 44.9369 21.9803C45.1224 21.8443 45.3636 21.7594 45.6047 21.7594V21.7594Z" fill="#4D2419"/>
<path d="M43.0633 41.0455C41.7834 41.0455 40.3738 40.8246 39.0383 40.1109C36.3673 38.7176 34.735 35.8459 34.2157 31.5808C34.16 31.173 34.4568 30.7822 34.8834 30.6633C35.1431 30.5953 41.2641 29.1 45.0665 31.9547C47.181 33.5349 48.1084 36.0838 47.8673 39.5332C47.8488 39.839 47.6262 40.1279 47.3294 40.2469C47.1996 40.2978 45.3633 41.0455 43.0633 41.0455V41.0455ZM36.1633 32.1586C36.7012 35.4211 37.9625 37.6131 39.9471 38.6496C42.2286 39.839 44.9367 39.2273 46.031 38.8875C46.1238 36.3047 45.4004 34.4185 43.8794 33.2801C41.5238 31.5129 37.777 31.8867 36.1633 32.1586Z" fill="#4D2419"/>
<path d="M66.4717 42.6938C66.1749 42.6938 65.8967 42.6768 65.6185 42.6428C60.7773 42.15 57.9765 37.6301 57.8652 37.4432L59.4789 36.6106C59.4975 36.6446 61.9459 40.5528 65.8225 40.9436C68.1596 41.1815 70.6265 40.111 73.1491 37.7491C71.0902 36.4067 65.5257 33.1781 61.8902 34.9283L61.037 33.416C66.6386 30.7143 74.7814 36.7125 75.1338 36.9674C75.3378 37.1203 75.4491 37.3242 75.4677 37.5621C75.4862 37.8 75.412 38.0209 75.2265 38.1908C72.3144 41.1985 69.3838 42.6938 66.4717 42.6938V42.6938Z" fill="#4D2419"/>
<path d="M41.5869 34.7935L51.6979 41.6368L50.5961 43.003L40.4851 36.1597L41.5869 34.7935Z" fill="#4D2419"/>
<path d="M51.8066 35.9482L66.612 36.532L66.5322 38.2296L51.7269 37.6458L51.8066 35.9482Z" fill="#4D2419"/>
<path d="M50.39 49.2867L48.6094 48.811C52.8941 35.1152 50.9465 22.9488 50.9279 22.8299L52.7642 22.575C52.8384 23.0848 54.786 35.2172 50.39 49.2867Z" fill="#4D2419"/>
<path d="M49.5 61.793C40.4855 61.793 31.9903 61.2662 25.6097 60.2807C16.0944 58.8363 15 57.0691 15 55.8457H16.8548C16.8548 56.1346 18.3944 57.477 25.9065 58.6154C32.1944 59.567 40.5782 60.0938 49.5 60.0938C58.4218 60.0938 66.7871 59.567 73.0936 58.6154C80.6056 57.477 82.1452 56.1346 82.1452 55.8457H84C84 57.0691 82.9056 58.8363 73.3903 60.2807C67.0097 61.2662 58.5145 61.793 49.5 61.793Z" fill="#4D2419"/>
<path d="M53.2285 66.8567L53.1914 65.1574C61.297 65.0215 68.7906 64.4438 74.2624 63.5092C80.7914 62.4047 82.1269 61.1983 82.1269 60.9264V55.8287C82.1269 55.8117 81.7559 54.6733 75.6906 53.5178C71.1833 52.6512 64.8212 52.0225 57.7914 51.7506L57.8656 50.0514C65.0067 50.3233 71.4801 50.969 76.0801 51.8526C81.4777 52.8891 84.0003 54.1635 84.0003 55.8287V60.9264C84.0003 62.0649 83.0357 63.7641 74.6148 65.1744C69.0317 66.126 61.4454 66.7207 53.2285 66.8567V66.8567Z" fill="#4D2419"/>
<path d="M49.5 66.8906C40.4855 66.8906 31.9903 66.3639 25.6097 65.3783C16.0944 63.934 15 62.1668 15 60.9434V55.8457C15 54.1805 17.504 52.9061 22.8831 51.8695C27.4645 50.9859 33.9194 50.3402 41.0419 50.0684L41.1161 51.7676C34.0863 52.0395 27.7427 52.6682 23.254 53.5348C17.2258 54.7072 16.8548 55.8287 16.8548 55.8457V60.9434C16.8548 61.2322 18.3944 62.5746 25.9065 63.7131C32.1944 64.6646 40.5782 65.1914 49.5 65.1914V66.8906Z" fill="#4D2419"/>
<path d="M49.5005 90C35.311 90 25.2392 86.8055 22.8836 84.6475C22.7352 84.5116 22.6424 84.3586 22.6239 84.1717L19.3037 63.5602L21.14 63.3053L24.4045 83.611C26.6674 85.3612 35.8303 88.3008 49.5005 88.3008C62.744 88.3008 72.0924 85.5821 74.5965 83.628L77.861 63.3223L79.6973 63.5772L76.3956 84.1887C76.3586 84.3756 76.2658 84.5285 76.136 84.6645C73.8731 86.7205 64.636 90 49.5005 90Z" fill="#4D2419"/>
<path d="M70.7195 60.3316C67.1953 57.2051 58.051 49.8984 49.5002 49.8984C40.9494 49.8984 31.8236 57.1881 28.2994 60.3146L27.001 59.0912C30.6921 55.8117 40.2816 48.1992 49.5002 48.1992C58.7187 48.1992 68.3082 55.8287 71.9993 59.1082L70.7195 60.3316Z" fill="#4D2419"/>
<defs>
<linearGradient id="paint0_linear" x1="48" y1="0" x2="48" y2="96" gradientUnits="userSpaceOnUse">
<stop stop-color="#ADEBE0"/>
<stop offset="0.762157" stop-color="#1F816F"/>
</linearGradient>
</defs>
</svg>
