<svg width="186" height="171" viewBox="0 0 186 171" fill="none" xmlns="http://www.w3.org/2000/svg">
<g clip-path="url(#clip0)">
<path d="M72.7517 25.7158C70.9534 25.7158 69.1903 24.8434 68.1236 23.2317L62.7287 15.0853C61.0371 12.5309 61.7361 9.08904 64.2898 7.39699C66.8436 5.7062 70.2846 6.40536 71.9762 8.9585L77.3698 17.1049C79.0615 19.6593 78.3637 23.1012 75.81 24.7932C74.8675 25.4171 73.8034 25.7158 72.7517 25.7158Z" fill="#2B5D99"/>
<path d="M139.67 113.896L81.5875 26.2431L81.5976 26.2368L77.3785 19.8653C76.4436 18.4544 74.5424 18.0678 73.1319 19.003C71.5682 20.0385 70.8015 21.8235 70.986 23.5695C71.0186 24.2599 71.2269 24.9502 71.6373 25.5691L133.068 118.274C133.967 119.63 134.257 121.249 133.884 122.833C133.511 124.417 132.531 125.738 131.122 126.551L110.27 138.594C108.375 139.687 107.726 142.111 108.819 144.006C109.553 145.277 110.885 145.987 112.254 145.987C112.925 145.987 113.607 145.816 114.23 145.456L135.083 133.413C138.356 131.523 140.731 128.328 141.595 124.647C142.461 120.966 141.76 117.048 139.67 113.896Z" fill="#B6C5CE"/>
<path d="M22.8332 54.5083C21.0349 54.5083 19.2717 53.6359 18.2038 52.0242L12.8089 43.8778C11.1185 41.3234 11.8175 37.8815 14.37 36.1895C16.925 34.4987 20.366 35.1978 22.0564 37.751L27.4513 45.8974C29.1429 48.4518 28.4439 51.8937 25.8902 53.5857C24.9477 54.2096 23.8848 54.5083 22.8332 54.5083Z" fill="#2B5D99"/>
<path d="M137.501 149.686C137.501 135.496 128.875 119.009 118.235 112.865C113.234 109.977 108.679 109.888 105.254 112.077V112.075L97.6731 116.456L97.6756 116.458C93.7653 118.901 91.3057 124.29 91.3057 131.867C91.3057 146.057 99.9307 162.542 110.571 168.688C115.245 171.385 119.528 171.64 122.863 169.876L122.862 169.878L131.07 165.133H131.063C135.013 162.708 137.501 157.304 137.501 149.686Z" fill="#162F4D"/>
<path d="M129.838 154.12C129.838 168.31 121.213 174.832 110.572 168.688C99.932 162.542 91.3057 146.057 91.3057 131.867C91.3057 117.676 99.932 111.153 110.572 117.299C121.213 123.443 129.838 139.928 129.838 154.12Z" fill="#2B5D99"/>
<path d="M122.865 150.09C122.865 159.144 117.362 163.305 110.574 159.385C103.785 155.465 98.2832 144.947 98.2832 135.895C98.2832 126.842 103.786 122.681 110.574 126.601C117.362 130.521 122.865 141.037 122.865 150.09Z" fill="#D6E5E5"/>
<path d="M117.871 147.208C117.871 152.583 114.605 155.055 110.574 152.726C106.543 150.399 103.275 144.154 103.275 138.778C103.275 133.402 106.543 130.932 110.574 133.259C114.605 135.587 117.871 141.832 117.871 147.208Z" fill="#BF0025"/>
<path d="M152.958 90.0927L152.899 90.0902C153.445 85.2739 149.902 80.1463 143.023 76.3994L114.726 60.6011C105.172 55.3994 91.4493 54.4178 82.1993 58.2751C69.9086 63.4027 59.1715 69.6036 50.2929 76.7019C47.0151 79.3216 45.7589 82.5651 46.3901 85.84H46.3889L46.3901 85.8412C46.6675 87.2797 47.31 88.7245 48.3051 90.1253L55.8209 106.932C56.6918 109.36 58.8051 111.755 62.0854 113.764L84.8007 127.333C91.8672 131.66 102.352 133.239 110.76 131.242C125.294 127.787 136.523 121.303 142.504 112.909C142.924 112.32 143.25 111.714 143.49 111.096L143.493 111.089C143.532 110.986 143.567 110.882 143.602 110.779L150.687 95.1161C150.851 94.8965 151.015 94.6768 151.173 94.4559C152.125 93.1216 152.682 91.7132 152.876 90.2735L152.958 90.0927Z" fill="#BF0025"/>
<path d="M50.293 76.7019C43.6118 82.0429 45.3109 89.9672 54.32 95.4839L81.6773 111.826C90.1881 117.039 102.815 118.939 112.941 116.534C130.446 112.374 143.971 104.564 151.173 94.4546C155.34 88.6078 152.047 81.3149 143.023 76.3994L114.724 60.6011C105.172 55.3994 91.4481 54.4178 82.1993 58.2751C69.9086 63.4027 59.1715 69.6036 50.293 76.7019Z" fill="#EA2642"/>
<path d="M95.2145 65.4375C100.606 65.4375 106.043 66.7116 110.142 68.9321L138.39 84.704L138.478 84.7517C141.86 86.5931 143.094 88.3354 143.388 88.9982C137.523 97.181 125.935 103.673 110.747 107.282C108.586 107.795 106.215 108.055 103.699 108.055C97.4558 108.055 91.0796 106.433 86.6434 103.716L86.5983 103.688L86.5531 103.662L59.246 87.3501C57.2507 86.1224 56.2869 85.0141 55.9092 84.4103C55.992 84.33 56.0987 84.2358 56.2304 84.1304C64.4163 77.5844 74.3854 71.8392 85.8604 67.053C88.3577 66.0111 91.6794 65.4375 95.2145 65.4375Z" fill="#BF0025"/>
<path d="M86.5978 103.689L86.643 103.716C91.0791 106.433 97.4554 108.055 103.699 108.055C106.215 108.055 108.585 107.795 110.746 107.282C116.494 105.916 121.724 104.137 126.326 102.01L110.141 92.9747C106.043 90.753 100.605 89.4802 95.2141 89.4802C91.679 89.4802 88.3572 90.0538 85.8599 91.0944C81.8693 92.7601 78.0656 94.5425 74.4502 96.4329L86.5526 103.662L86.5978 103.689Z" fill="#8F001C"/>
<path d="M112.332 141.978C111.238 140.082 108.816 139.433 106.921 140.527L102.102 143.31C97.2482 146.114 91.0225 144.646 87.9279 139.974L31.6774 55.0293L27.4583 48.6577C26.5234 47.2469 24.6222 46.8602 23.2117 47.7954C20.9742 49.2766 20.3618 52.2929 21.8438 54.5297L25.0727 59.405L81.3233 144.35C84.8722 149.71 90.7803 152.652 96.819 152.652C99.9714 152.652 103.159 151.85 106.063 150.173L110.883 147.39C112.777 146.296 113.427 143.872 112.332 141.978Z" fill="#B6C5CE"/>
<path d="M37.9183 75.5862C36.5492 75.5862 35.2177 74.8757 34.4849 73.6042C33.3906 71.71 34.0394 69.2862 35.9343 68.1916L85.8324 39.3766C87.7273 38.282 90.1506 38.9322 91.2436 40.8264C92.3379 42.7218 91.6891 45.1456 89.7942 46.2389L39.8961 75.0552C39.2724 75.4155 38.591 75.5862 37.9183 75.5862Z" fill="#B6C5CE"/>
<path d="M102.5 108C126.524 108 146 88.5244 146 64.5C146 40.4756 126.524 21 102.5 21C78.4756 21 59 40.4756 59 64.5C59 88.5244 78.4756 108 102.5 108Z" fill="#F4B731"/>
<path fill-rule="evenodd" clip-rule="evenodd" d="M85.2355 41.844H103.362C114.387 41.844 122.745 47.836 125.854 56.554H131.5V61.824H127.043C127.13 62.657 127.175 63.505 127.175 64.367V64.497C127.175 65.4525 127.119 66.4071 127.008 67.356H131.5V72.626H125.746C122.555 81.223 114.263 87.158 103.362 87.158H85.2355V72.624H78.9365V67.354H85.2355V61.823H78.9365V56.553H85.2355V41.843V41.844ZM90.3025 72.625V82.43H103.362C111.42 82.43 117.407 78.503 120.194 72.625H90.3025ZM121.746 67.355H90.3025V61.824H121.755C121.871 62.694 121.931 63.587 121.931 64.496V64.625C121.931 65.5378 121.869 66.4496 121.746 67.354V67.355ZM103.362 46.563C111.457 46.563 117.462 50.593 120.232 56.554H90.3025V46.563H103.362Z" fill="#FFFDFA"/>
<g style="mix-blend-mode:multiply" opacity="0.2">
<g style="mix-blend-mode:multiply" opacity="0.2">
<g style="mix-blend-mode:multiply" opacity="0.2">
<path fill-rule="evenodd" clip-rule="evenodd" d="M102.5 105.163C124.958 105.163 143.163 86.958 143.163 64.5C143.163 42.042 124.958 23.837 102.5 23.837C80.042 23.837 61.837 42.042 61.837 64.5C61.837 86.958 80.042 105.163 102.5 105.163ZM102.5 108C126.524 108 146 88.524 146 64.5C146 40.476 126.524 21 102.5 21C78.476 21 59 40.476 59 64.5C59 88.524 78.476 108 102.5 108Z" fill="#191326"/>
</g>
</g>
</g>
<path d="M103 109C127.301 109 147 89.3009 147 65C147 40.6991 127.301 21 103 21C78.6994 21 59 40.6991 59 65C59 89.3009 78.6994 109 103 109Z" fill="url(#paint0_linear)"/>
<path fill-rule="evenodd" clip-rule="evenodd" d="M73.4383 70.1108C73.4304 70.2743 73.4264 70.4378 73.4264 70.6026C73.4264 71.2244 73.4829 71.8384 73.5927 72.4435H73.4264V73.3961C73.4264 73.8609 73.4579 74.3217 73.5197 74.7775C74.7247 83.6692 87.4633 90.666 103 90.666C118.537 90.666 131.275 83.6692 132.48 74.7775C132.542 74.3217 132.574 73.8609 132.574 73.3961V72.4435H132.407C132.517 71.8384 132.574 71.2244 132.574 70.6026C132.574 70.4378 132.57 70.2743 132.562 70.1108C132.116 60.8006 119.051 53.3327 103 53.3327C86.9489 53.3327 73.8843 60.8006 73.4383 70.1108ZM71.0094 70.1108C71.2294 64.4297 75.2428 59.6587 80.8291 56.3966C86.6197 53.0147 94.4642 51 103 51C111.536 51 119.38 53.0147 125.171 56.3966C130.757 59.6587 134.771 64.4297 134.991 70.1108H135V73.3961C135 79.2935 130.918 84.2473 125.171 87.6021C119.38 90.984 111.536 93 103 93C94.4642 93 86.6197 90.984 80.8291 87.6021C75.0824 84.2473 71 79.2935 71 73.3961V70.1108H71.0094Z" fill="#606063"/>
<path d="M132 72.8706C132 82.8827 119.016 91 103 91C86.9838 91 74 82.8827 74 72.8706V70H132V72.8706Z" fill="#BEBEBE"/>
<path d="M132 70.5006C132 80.1661 119.016 88 103 88C86.9838 88 74 80.1661 74 70.5006C74 60.8352 86.9838 53 103 53C119.016 53 132 60.8352 132 70.5006Z" fill="#FAF9FA"/>
<path fill-rule="evenodd" clip-rule="evenodd" d="M78.3706 64.8604C78.3705 64.8717 78.3705 64.8817 78.3705 64.8917C78.3705 65.6537 78.4861 66.4007 78.7077 67.1252H78.3702V68.1071C78.3702 68.5393 78.4076 68.9678 78.4806 69.39C79.582 75.7622 88.7962 80.7352 99.9998 80.7352C111.204 80.7352 120.418 75.7622 121.519 69.39C121.592 68.9678 121.629 68.5393 121.629 68.1071V67.1252H121.293C121.508 66.4207 121.623 65.6949 121.629 64.9541C121.629 64.9341 121.63 64.9129 121.63 64.8917C121.63 64.8817 121.63 64.8717 121.629 64.8604C121.6 57.9012 111.928 52.2635 100 52.2635C88.0725 52.2635 78.3998 57.9012 78.3706 64.8604ZM76.0003 64.8604H76V68.1071C76 72.6816 79.1663 76.4567 83.4694 78.9688C87.8133 81.5047 93.6635 83 99.9998 83C106.336 83 112.186 81.5047 116.53 78.9688C120.833 76.4567 124 72.6816 124 68.1071V64.9629C124 64.9391 124 64.9154 124 64.8917C124 60.3171 120.834 56.5433 116.53 54.0299C112.187 51.494 106.336 50 100 50C93.6638 50 87.8136 51.494 83.4697 54.0299C79.1764 56.537 76.0148 60.3009 76.0003 64.8604Z" fill="#633001"/>
<path d="M121 68.8507C121 75.5605 111.374 81 99.4999 81C87.6258 81 78 75.5605 78 68.8507V66H121V68.8507Z" fill="#FEDC90"/>
<path d="M121 65C121 72.1796 111.374 78 99.4999 78C87.6258 78 78 72.1796 78 65C78 57.8191 87.6258 52 99.4999 52C111.374 52 121 57.8191 121 65Z" fill="#D1884F"/>
<path fill-rule="evenodd" clip-rule="evenodd" d="M85.3214 57.7624C85.3214 57.773 85.3214 57.7849 85.3214 57.7955C85.3214 58.6037 85.4346 59.3947 85.6514 60.1644H85.3211V61.2045C85.3211 61.6642 85.3576 62.1187 85.429 62.5652C86.5075 69.3235 95.5296 74.5979 106.5 74.5979C117.47 74.5979 126.492 69.3235 127.571 62.5652C127.642 62.1187 127.679 61.6642 127.679 61.2045V60.1644H127.349C127.56 59.4159 127.673 58.6474 127.679 57.8618C127.679 57.8392 127.679 57.818 127.679 57.7955C127.679 57.7849 127.679 57.773 127.679 57.7624C127.65 50.38 118.179 44.4021 106.5 44.4021C94.8209 44.4021 85.3498 50.38 85.3214 57.7624ZM83.0004 57.7624H83V61.2045C83 66.0563 86.1005 70.0601 90.3139 72.7245C94.5672 75.4141 100.296 77 106.5 77C112.704 77 118.433 75.4141 122.686 72.7245C126.899 70.0601 130 66.0563 130 61.2045V57.871C130 57.8459 130 57.8207 130 57.7955C130 52.9437 126.9 48.9399 122.686 46.2755C118.433 43.5859 112.704 42 106.5 42C100.296 42 94.5676 43.5859 90.3142 46.2755C86.1103 48.9346 83.0146 52.9252 83.0004 57.7624Z" fill="#633001"/>
<path d="M128 61.8498C128 68.5601 118.598 74 107 74C95.402 74 86 68.5601 86 61.8498V59H128V61.8498Z" fill="#FEDC90"/>
<path d="M128 58C128 65.1796 118.598 71 107 71C95.402 71 86 65.1796 86 58C86 50.8203 95.402 45 107 45C118.598 45 128 50.8203 128 58Z" fill="#D1884F"/>
<path fill-rule="evenodd" clip-rule="evenodd" d="M78.3706 51.3107C78.3705 51.3223 78.3705 51.3326 78.3705 51.3442C78.3705 52.1293 78.4861 52.8977 78.7077 53.6442H78.3702V54.6558C78.3702 55.1024 78.4076 55.5426 78.4806 55.9776C79.582 62.5428 88.7962 67.6666 99.9998 67.6666C111.204 67.6666 120.418 62.5428 121.519 55.9776C121.592 55.5426 121.629 55.1024 121.629 54.6558V53.6442H121.293C121.508 52.9183 121.623 52.1705 121.629 51.4073C121.629 51.3867 121.63 51.3648 121.63 51.3442C121.63 51.3326 121.63 51.3223 121.629 51.3107C121.6 44.1406 111.928 38.3334 100 38.3334C88.0725 38.3334 78.3998 44.1406 78.3706 51.3107ZM76.0003 51.3107H76V54.6558C76 59.369 79.1663 63.2584 83.4694 65.8467C87.8133 68.4594 93.6635 70 99.9998 70C106.336 70 112.186 68.4594 116.53 65.8467C120.833 63.2584 124 59.369 124 54.6558V51.4163C124 51.3918 124 51.3674 124 51.3442C124 46.6297 120.834 42.7416 116.53 40.152C112.187 37.5393 106.336 36 100 36C93.6638 36 87.8136 37.5393 83.4697 40.152C79.1764 42.7351 76.0148 46.613 76.0003 51.3107Z" fill="#633001"/>
<path d="M121 55.0408C121 62.1979 111.374 68 99.4999 68C87.6258 68 78 62.1979 78 55.0408V52H121V55.0408Z" fill="#FEDC90"/>
<path d="M121 51.0006C121 58.1799 111.374 64 99.4999 64C87.6258 64 78 58.1799 78 51.0006C78 43.8201 87.6258 38 99.4999 38C111.374 38 121 43.8201 121 51.0006Z" fill="#D1884F"/>
<path fill-rule="evenodd" clip-rule="evenodd" d="M85 52.0168C85 54.457 86.6317 56.6431 89.2059 58.1132L87.4224 61.4697L87.4228 61.471H87.4224V69.9657C87.4224 71.0889 88.2604 72 89.2943 72C90.3281 72 91.1663 71.0889 91.1663 69.9657V63.2095L93.0852 59.5977C94.3121 59.8805 95.6292 60.035 96.9999 60.035C103.627 60.035 109 56.4455 109 52.0168C109 47.5895 103.627 44 96.9999 44C90.3726 44 85 47.5895 85 52.0168Z" fill="url(#paint1_linear)"/>
<path fill-rule="evenodd" clip-rule="evenodd" d="M88.376 57.6092C88.0788 57.4527 87.7936 57.2873 87.5215 57.1132C85.3368 55.7223 83.9919 53.824 83.9919 51.7313C83.9919 47.4627 89.592 44.0018 96.5001 44.0018C103.408 44.0018 109.008 47.4627 109.008 51.7313C109.008 56.0012 103.408 59.462 96.5001 59.462C95.0713 59.462 93.6985 59.3131 92.4196 59.0405L90.4194 62.5228V69.0368C90.4194 70.1197 89.5458 70.9982 88.4682 70.9982C87.3905 70.9982 86.517 70.1197 86.517 69.0368V60.8466L88.376 57.6092ZM84.5251 60.8807V69.0368C84.5251 71.2254 86.2904 73 88.4682 73C90.6459 73 92.4113 71.2254 92.4113 69.0368V63.0592L93.4487 61.2531C94.434 61.3919 95.4551 61.4638 96.5001 61.4638C100.262 61.4638 103.763 60.5248 106.388 58.9029C108.981 57.3012 111 54.8223 111 51.7313C111 48.6415 108.981 46.1626 106.388 44.5609C103.763 42.9391 100.262 42 96.5001 42C92.7384 42 89.2376 42.9391 86.6123 44.5609C84.0194 46.1626 82 48.6415 82 51.7313C82 54.4437 83.5453 56.6764 85.6926 58.2769L84.8056 59.8205C84.7211 59.9631 84.6536 60.1171 84.606 60.2787C84.5477 60.4768 84.5214 60.68 84.5251 60.8807Z" fill="#633001"/>
<path d="M88 48.9994C88 51.2084 90.9101 53 94.5001 53C98.0899 53 101 51.2084 101 48.9994C101 46.7904 98.0899 45 94.5001 45C90.9101 45 88 46.7904 88 48.9994Z" fill="#9E7200"/>
<path d="M88 48H101V49H88V48Z" fill="#9E7200"/>
<path d="M88 46.5007C88 48.9858 90.9101 51 94.5001 51C98.0899 51 101 48.9858 101 46.5007C101 44.0156 98.0899 42 94.5001 42C90.9101 42 88 44.0156 88 46.5007Z" fill="#F0B90B"/>
<path d="M92.2496 46.4606L93.9212 45.1999C94.2743 44.9334 94.7257 44.9334 95.079 45.1999L96.7504 46.4606C97.0832 46.7116 97.0832 47.2884 96.7504 47.5394L95.079 48.8001C94.7257 49.0666 94.2743 49.0666 93.9212 48.8001L92.2496 47.5394C91.9168 47.2884 91.9168 46.7116 92.2496 46.4606Z" fill="#9E7200"/>
<path fill-rule="evenodd" clip-rule="evenodd" d="M88.6719 41.7314C90.1247 40.6149 92.0136 40 94.0001 40C95.9864 40 97.8755 40.6149 99.3282 41.7314C100.758 42.8317 102 44.6366 102 47.0005V48.9995C102 51.3634 100.758 53.1683 99.3282 54.2686C97.8755 55.3851 95.9864 56 94.0001 56C92.0136 56 90.1247 55.3851 88.6719 54.2686C87.2421 53.1683 86 51.3634 86 48.9995V47.0005C86 44.6366 87.2421 42.8317 88.6719 41.7314ZM94.0001 42.333C90.6483 42.333 87.9312 44.4233 87.9312 47.0005V48.9995C87.9312 51.5767 90.6483 53.667 94.0001 53.667C97.3519 53.667 100.069 51.5767 100.069 48.9995V47.0005C100.069 44.4233 97.3519 42.333 94.0001 42.333Z" fill="#633001"/>
<path d="M39.8912 145.353C39.8912 145.353 35.5635 122.043 69.0566 122.043C69.0566 122.043 68.8686 133.28 61.5302 139.122C54.1917 144.964 39.8912 145.353 39.8912 145.353Z" fill="#47B85B"/>
<path d="M69.0566 122.043C69.0566 122.043 68.8684 133.295 61.5299 139.122C54.1915 144.95 39.891 145.353 39.891 145.353C46.2322 136.223 54.7748 130.008 60.9278 126.242C64.5407 124.031 69.0566 122.043 69.0566 122.043Z" fill="#399349"/>
<path d="M30.1065 133.699C30.1065 133.699 34.4342 110.389 0.940918 110.389C0.940918 110.389 1.12909 121.625 8.46752 127.468C15.806 133.31 30.1065 133.699 30.1065 133.699Z" fill="#47B85B"/>
<path d="M30.1065 133.699C30.1065 133.699 15.787 133.295 8.46752 127.468C1.12909 121.64 0.940918 110.389 0.940918 110.389C0.940918 110.389 7.33854 113.273 9.87874 114.692C16.9725 118.682 26.3619 125.212 30.1065 133.699Z" fill="#399349"/>
<path d="M35.9396 170.5L34.0579 170.425C34.0769 170.201 35.488 148.147 29.2222 133.952C25.5717 125.659 16.3892 119.249 9.33313 115.32L10.4057 114.094C17.6875 118.144 27.1713 124.793 30.9911 133.459C37.3884 147.923 35.9586 170.276 35.9396 170.5Z" fill="#2B6E37"/>
<path d="M7.5904 117.565L16.0013 117.718L15.958 119.213L7.54712 119.059L7.5904 117.565Z" fill="#2B6E37"/>
<path d="M22.2844 118.286L23.1418 123.247L21.2771 123.45L20.4197 118.489L22.2844 118.286Z" fill="#2B6E37"/>
<path d="M17.7889 125.999L25.5976 126.031L25.5884 127.524L17.7797 127.494L17.7889 125.999Z" fill="#2B6E37"/>
<path d="M35.4128 153.287L33.7758 152.554C35.4315 150.194 37.2004 147.653 39.0633 144.979C45.5361 135.685 54.2105 129.335 60.3635 125.644L61.4926 126.84C55.4901 130.44 47.0226 136.641 40.7191 145.711C38.8561 148.386 37.0685 150.926 35.4128 153.287Z" fill="#2B6E37"/>
<path d="M63.6952 129.105L63.8531 130.594L54.717 131.205L54.5591 129.716L63.6952 129.105Z" fill="#2B6E37"/>
<path d="M49.9066 129.969L50.7798 134.139L48.9245 134.384L48.0514 130.215L49.9066 129.969Z" fill="#2B6E37"/>
<path d="M55.4146 137.16L55.569 138.649L45.5138 139.306L45.3594 137.816L55.4146 137.16Z" fill="#2B6E37"/>
<path d="M26.2112 134.146C21.5638 133.624 13.0022 132.144 7.79002 127.99C0.282249 122.014 0 110.867 0 110.404C0 110.21 0.0940832 110.015 0.263428 109.866C0.432772 109.716 0.6962 109.642 0.940805 109.642C11.8167 109.642 19.9454 112.062 25.1199 116.814C32.7784 123.866 31.1223 133.399 31.0472 133.803L29.1843 133.579L30.1064 133.683L29.1843 133.579C29.2033 133.489 30.7836 124.3 23.6901 117.77C19.0423 113.512 11.7227 111.285 1.91929 111.136C2.12625 113.721 3.23643 122.238 9.12599 126.929C13.943 130.77 22.0717 132.159 26.4749 132.652L26.2112 134.146Z" fill="#4D2419"/>
<path d="M39.8911 146.1C39.4206 146.1 39.0254 145.831 38.969 145.457C38.8939 145.054 37.2192 135.521 44.8964 128.468C50.0521 123.717 58.1809 121.296 69.0568 121.296C69.3014 121.296 69.546 121.371 69.734 121.52C69.9222 121.67 70.0163 121.849 69.9976 122.058C69.9976 122.536 69.7153 133.668 62.1886 139.645C54.6809 145.622 40.5119 146.085 39.9099 146.1H39.8911ZM68.0782 122.79C58.2747 122.925 50.9739 125.166 46.3265 129.424C40.3427 134.908 40.5309 142.289 40.7379 144.546C43.9178 144.352 54.9068 143.32 60.8716 138.584C66.7612 133.907 67.8713 125.39 68.0782 122.79Z" fill="#4D2419"/>
<path d="M35.9396 170.5L34.0579 170.425C34.0769 170.201 35.488 148.147 29.2222 133.952C25.5717 125.659 16.3892 119.249 9.33313 115.32L10.4057 114.094C17.6875 118.144 27.1713 124.793 30.9911 133.459C37.3884 147.923 35.9586 170.276 35.9396 170.5Z" fill="#4D2419"/>
<path d="M7.5904 117.565L16.0013 117.718L15.958 119.213L7.54712 119.059L7.5904 117.565Z" fill="#4D2419"/>
<path d="M22.2844 118.286L23.1418 123.247L21.2771 123.45L20.4197 118.489L22.2844 118.286Z" fill="#4D2419"/>
<path d="M17.7889 125.999L25.5976 126.031L25.5884 127.524L17.7797 127.494L17.7889 125.999Z" fill="#4D2419"/>
<path d="M35.4128 153.287L33.7758 152.554C35.4315 150.194 37.2004 147.653 39.0633 144.979C45.5361 135.685 54.2105 129.335 60.3635 125.644L61.4926 126.84C55.4901 130.44 47.0226 136.641 40.7191 145.711C38.8561 148.386 37.0685 150.926 35.4128 153.287Z" fill="#4D2419"/>
<path d="M63.6952 129.105L63.8531 130.594L54.717 131.205L54.5591 129.716L63.6952 129.105Z" fill="#4D2419"/>
<path d="M49.9066 129.969L50.7798 134.139L48.9245 134.384L48.0514 130.215L49.9066 129.969Z" fill="#4D2419"/>
<path d="M55.4146 137.16L55.569 138.649L45.5138 139.306L45.3594 137.816L55.4146 137.16Z" fill="#4D2419"/>
</g>
<defs>
<linearGradient id="paint0_linear" x1="103" y1="21" x2="103" y2="109" gradientUnits="userSpaceOnUse">
<stop stop-color="#54DADE"/>
<stop offset="0.762" stop-color="#24C7D6"/>
</linearGradient>
<linearGradient id="paint1_linear" x1="97.1298" y1="44.2684" x2="97.1298" y2="71.7892" gradientUnits="userSpaceOnUse">
<stop stop-color="#9F4A08"/>
<stop offset="0.37" stop-color="#7D3900"/>
<stop offset="1" stop-color="#8D4104"/>
</linearGradient>
</defs>
</svg>
