<svg width="110" height="110" viewBox="0 0 110 110" fill="none" xmlns="http://www.w3.org/2000/svg">
<g clip-path="url(#clip0)">
<path d="M62 110C88.5097 110 110 88.5101 110 62C110 35.4899 88.5097 14 62 14C35.4903 14 14 35.4899 14 62C14 88.5101 35.4903 110 62 110Z" fill="url(#paint0_linear)"/>
<path fill-rule="evenodd" clip-rule="evenodd" d="M29.6288 68.9309C29.6203 69.1099 29.616 69.289 29.616 69.4695C29.616 70.1505 29.6769 70.8231 29.7952 71.4857H29.616V72.5291C29.616 73.0381 29.6499 73.5429 29.7166 74.042C31.0157 83.7806 44.7495 91.4437 61.5 91.4437C78.2505 91.4437 91.9843 83.7806 93.2834 74.042C93.3501 73.5429 93.384 73.0381 93.384 72.5291V71.4857H93.2048C93.3231 70.8231 93.384 70.1505 93.384 69.4695C93.384 69.289 93.3797 69.1099 93.3712 68.9309C92.8903 58.734 78.8051 50.5549 61.5 50.5549C44.1949 50.5549 30.1097 58.734 29.6288 68.9309ZM27.0101 68.9309C27.2474 62.7087 31.5743 57.4834 37.597 53.9105C43.84 50.2066 52.2974 48 61.5 48C70.7026 48 79.16 50.2066 85.403 53.9105C91.4257 57.4834 95.7526 62.7087 95.9899 68.9309H96V72.5291C96 78.9881 91.5987 84.4137 85.403 88.088C79.16 91.792 70.7026 94 61.5 94C52.2974 94 43.84 91.792 37.597 88.088C31.4013 84.4137 27 78.9881 27 72.5291V68.9309H27.0101Z" fill="#606063"/>
<path d="M94 71.2807C94 82.7231 79.6732 92 62.0001 92C44.3269 92 30 82.7231 30 71.2807V68H94V71.2807Z" fill="#BEBEBE"/>
<path d="M94 69.0007C94 79.4946 79.6732 88 62.0001 88C44.3269 88 30 79.4946 30 69.0007C30 58.5068 44.3269 50 62.0001 50C79.6732 50 94 58.5068 94 69.0007Z" fill="#FAF9FA"/>
<path fill-rule="evenodd" clip-rule="evenodd" d="M34.6176 63.2114C34.6174 63.2236 34.6174 63.2345 34.6174 63.2454C34.6174 64.0767 34.7451 64.8917 34.9898 65.6821H34.6171V66.7532C34.6171 67.2247 34.6584 67.6921 34.739 68.1527C35.9551 75.1042 46.1292 80.5293 58.4998 80.5293C70.8706 80.5293 81.0445 75.1042 82.2606 68.1527C82.3411 67.6921 82.3824 67.2247 82.3824 66.7532V65.6821H82.0105C82.2484 64.9135 82.3756 64.1217 82.3824 63.3136C82.3826 63.2918 82.3827 63.2686 82.3827 63.2454C82.3827 63.2345 82.3827 63.2236 82.3826 63.2114C82.3505 55.6195 71.6703 49.4693 58.5001 49.4693C45.33 49.4693 34.6498 55.6195 34.6176 63.2114ZM32.0003 63.2114H32V66.7532C32 71.7436 35.4961 75.8619 40.2475 78.6024C45.0439 81.3688 51.5035 83 58.4998 83C65.4961 83 71.9559 81.3688 76.7521 78.6024C81.5034 75.8619 84.9997 71.7436 84.9997 66.7532V63.3231C84.9999 63.2972 85 63.2713 85 63.2454C85 58.255 81.5037 54.1381 76.7524 51.3963C71.956 48.6299 65.4964 47 58.5001 47C51.5038 47 45.0442 48.6299 40.2478 51.3963C35.5072 54.1313 32.0163 58.2373 32.0003 63.2114Z" fill="#633001"/>
<path d="M82 67.2308C82 74.8353 71.2548 81 57.9999 81C44.7451 81 34 74.8353 34 67.2308V64H82V67.2308Z" fill="#FEDC90"/>
<path d="M82 63C82 70.7319 71.2548 77 57.9999 77C44.7451 77 34 70.7319 34 63C34 55.2667 44.7451 49 57.9999 49C71.2548 49 82 55.2667 82 63Z" fill="#D1884F"/>
<path fill-rule="evenodd" clip-rule="evenodd" d="M42.5683 55.1134C42.5683 55.125 42.5683 55.1379 42.5683 55.1494C42.5683 56.0269 42.6935 56.8856 42.9335 57.7214H42.568V58.8506C42.568 59.3497 42.6084 59.8431 42.6875 60.3279C43.8806 67.6655 53.8625 73.3921 65.9999 73.3921C78.1372 73.3921 88.1192 67.6655 89.3124 60.3279C89.3913 59.8431 89.4318 59.3497 89.4318 58.8506V57.7214H89.0669C89.3004 56.9087 89.4253 56.0743 89.4318 55.2213C89.4321 55.1969 89.4321 55.1739 89.4321 55.1494C89.4321 55.1379 89.4321 55.125 89.4321 55.1134C89.4005 47.0983 78.9218 40.6079 66.0001 40.6079C53.0785 40.6079 42.5998 47.0983 42.5683 55.1134ZM40.0004 55.1134H40V58.8506C40 64.1183 43.4303 68.4653 48.092 71.3581C52.7977 74.2781 59.1356 76 65.9999 76C72.8643 76 79.202 74.2781 83.9079 71.3581C88.5696 68.4653 91.9997 64.1183 91.9997 58.8506V55.2314C91.9999 55.2041 92 55.1767 92 55.1494C92 49.8817 88.5699 45.5347 83.908 42.6419C79.2023 39.7219 72.8645 38 66.0001 38C59.1359 38 52.7981 39.7219 48.0923 42.6419C43.4412 45.5289 40.0161 49.8616 40.0004 55.1134Z" fill="#633001"/>
<path d="M90 60.0397C90 67.1974 79.4788 73 66.5001 73C53.5212 73 43 67.1974 43 60.0397V57H90V60.0397Z" fill="#FEDC90"/>
<path d="M90 55C90 62.7319 79.4788 69 66.5001 69C53.5212 69 43 62.7319 43 55C43 47.2681 53.5212 41 66.5001 41C79.4788 41 90 47.2681 90 55Z" fill="#D1884F"/>
<path fill-rule="evenodd" clip-rule="evenodd" d="M34.6176 47.6617C34.6174 47.6743 34.6174 47.6855 34.6174 47.6981C34.6174 48.5525 34.7451 49.3887 34.9898 50.201H34.6171V51.3019C34.6171 51.7879 34.6584 52.2669 34.739 52.7403C35.9551 59.8848 46.1292 65.4607 58.4998 65.4607C70.8706 65.4607 81.0445 59.8848 82.2606 52.7403C82.3411 52.2669 82.3824 51.7879 82.3824 51.3019V50.201H82.0105C82.2484 49.4111 82.3756 48.5973 82.3824 47.7667C82.3826 47.7443 82.3827 47.7205 82.3827 47.6981C82.3827 47.6855 82.3827 47.6743 82.3826 47.6617C82.3505 39.8589 71.6703 33.5393 58.5001 33.5393C45.33 33.5393 34.6498 39.8589 34.6176 47.6617ZM32.0003 47.6617H32V51.3019C32 56.4309 35.4961 60.6636 40.2475 63.4802C45.0439 66.3235 51.5035 68 58.4998 68C65.4961 68 71.9559 66.3235 76.7521 63.4802C81.5034 60.6636 84.9997 56.4309 84.9997 51.3019V47.7765C84.9999 47.7499 85 47.7233 85 47.6981C85 42.5677 81.5037 38.3364 76.7524 35.5184C71.956 32.6751 65.4964 31 58.5001 31C51.5038 31 45.0442 32.6751 40.2478 35.5184C35.5072 38.3294 32.0163 42.5495 32.0003 47.6617Z" fill="#633001"/>
<path d="M82 52.2308C82 59.8353 71.2548 66 57.9999 66C44.7451 66 34 59.8353 34 52.2308V49H82V52.2308Z" fill="#FEDC90"/>
<path d="M82 47.5007C82 55.5084 71.2548 62 57.9999 62C44.7451 62 34 55.5084 34 47.5007C34 39.4916 44.7451 33 57.9999 33C71.2548 33 82 39.4916 82 47.5007Z" fill="#D1884F"/>
<path fill-rule="evenodd" clip-rule="evenodd" d="M42 48.5895C42 51.2039 43.7677 53.5462 46.5564 55.1213L44.6243 58.7176L44.6247 58.719H44.6243V67.8204C44.6243 69.0238 45.5321 70 46.6522 70C47.7722 70 48.6801 69.0238 48.6801 67.8204V60.5816L50.759 56.7119C52.0881 57.0148 53.5149 57.1803 54.9999 57.1803C62.1797 57.1803 68 53.3344 68 48.5895C68 43.8459 62.1797 40 54.9999 40C47.8203 40 42 43.8459 42 48.5895Z" fill="url(#paint1_linear)"/>
<path fill-rule="evenodd" clip-rule="evenodd" d="M45.8157 55.1197C45.498 54.9481 45.1932 54.7668 44.9023 54.5757C42.5669 53.0502 41.1293 50.9682 41.1293 48.673C41.1293 43.9913 47.1156 40.1955 54.5001 40.1955C61.8846 40.1955 67.8709 43.9913 67.8709 48.673C67.8709 53.3561 61.8846 57.1519 54.5001 57.1519C52.9727 57.1519 51.5052 56.9886 50.1382 56.6895L48 60.5089V67.6533C48 68.841 47.0662 69.8045 45.9143 69.8045C44.7623 69.8045 43.8285 68.841 43.8285 67.6533V58.6705L45.8157 55.1197ZM41.6992 58.7079V67.6533C41.6992 70.0537 43.5863 72 45.9143 72C48.2422 72 50.1293 70.0537 50.1293 67.6533V61.0972L51.2382 59.1163C52.2915 59.2685 53.3831 59.3474 54.5001 59.3474C58.5211 59.3474 62.2634 58.3175 65.0699 56.5387C67.8415 54.782 70 52.0632 70 48.673C70 45.2842 67.8415 42.5655 65.0699 40.8088C62.2634 39.0299 58.5211 38 54.5001 38C50.479 38 46.7367 39.0299 43.9304 40.8088C41.1587 42.5655 39 45.2842 39 48.673C39 51.6479 40.6519 54.0967 42.9472 55.852L41.9991 57.5451C41.9088 57.7015 41.8366 57.8704 41.7857 58.0476C41.7234 58.2649 41.6953 58.4878 41.6992 58.7079Z" fill="#633001"/>
<path d="M46 45.4993C46 47.9844 49.134 50 53.0001 50C56.866 50 60 47.9844 60 45.4993C60 43.0142 56.866 41 53.0001 41C49.134 41 46 43.0142 46 45.4993Z" fill="#9E7200"/>
<path d="M46 44H60V46H46V44Z" fill="#9E7200"/>
<path d="M46 43.0008C46 45.762 49.134 48 53.0001 48C56.866 48 60 45.762 60 43.0008C60 40.2396 56.866 38 53.0001 38C49.134 38 46 40.2396 46 43.0008Z" fill="#F0B90B"/>
<path d="M50.2996 42.8257L52.3054 41.2499C52.7292 40.9167 53.2708 40.9167 53.6947 41.2499L55.7004 42.8257C56.0998 43.1395 56.0998 43.8605 55.7004 44.1742L53.6947 45.7501C53.2708 46.0833 52.7292 46.0833 52.3054 45.7501L50.2996 44.1742C49.9001 43.8605 49.9001 43.1395 50.2996 42.8257Z" fill="#9E7200"/>
<path fill-rule="evenodd" clip-rule="evenodd" d="M46.0059 36.9478C47.6402 35.6917 49.7653 35 52.0001 35C54.2347 35 56.3599 35.6917 57.9942 36.9478C59.6028 38.1856 61 40.2161 61 42.8755V45.1245C61 47.7839 59.6028 49.8144 57.9942 51.0522C56.3599 52.3083 54.2347 53 52.0001 53C49.7653 53 47.6402 52.3083 46.0059 51.0522C44.3974 49.8144 43 47.7839 43 45.1245V42.8755C43 40.2161 44.3974 38.1856 46.0059 36.9478ZM52.0001 37.6246C48.2293 37.6246 45.1726 39.9762 45.1726 42.8755V45.1245C45.1726 48.0238 48.2293 50.3754 52.0001 50.3754C55.7708 50.3754 58.8276 48.0238 58.8276 45.1245V42.8755C58.8276 39.9762 55.7708 37.6246 52.0001 37.6246Z" fill="#633001"/>
<path d="M61.5 110C88.2854 110 110 88.2854 110 61.5C110 34.7146 88.2854 13 61.5 13C34.7146 13 13 34.7146 13 61.5C13 88.2854 34.7146 110 61.5 110Z" fill="#2775CA"/>
<path d="M52.9189 95.4105C52.9189 96.5273 52.0201 97.1648 50.9616 96.846C36.4717 92.2219 26 78.5654 26 62.464C26 46.3627 36.5246 32.7062 50.9616 28.0821C52.073 27.7633 52.9189 28.4008 52.9189 29.5164V32.3332C52.9189 33.0769 52.3373 33.9801 51.596 34.2468C40.1737 38.3917 31.9766 49.445 31.9766 62.4109C31.9766 75.3768 40.1737 86.4301 51.65 90.6813C52.3384 90.9469 52.9729 91.7969 52.9729 92.5949V95.4105H52.92H52.9189ZM64.5636 84.2863C64.5636 85.1363 63.8763 85.7738 63.0833 85.7738H60.1214C59.2755 85.7738 58.6399 85.0832 58.6399 84.2863V79.5039C52.0829 78.6008 48.9095 74.9341 48.0636 69.9392C48.0306 69.7378 48.0413 69.5316 48.0949 69.3347C48.1486 69.1378 48.2439 68.9549 48.3745 68.7985C48.505 68.6421 48.6677 68.5159 48.8513 68.4285C49.0349 68.3412 49.2351 68.2947 49.4382 68.2923H52.8231C53.5104 68.2923 54.1448 68.8236 54.3034 69.5142C54.939 72.4903 56.6308 74.7747 61.919 74.7747C65.7797 74.7747 68.53 72.5955 68.53 69.3548C68.53 66.1142 66.8911 64.8912 61.2317 63.9349C52.8231 62.8724 48.8567 60.3213 48.8567 53.6784C48.8567 48.5773 52.6644 44.6449 58.6399 43.7938V39.1177C58.6399 38.2677 59.3284 37.6302 60.1214 37.6302H63.0833C63.9292 37.6302 64.5636 38.3208 64.5636 39.1177V43.9001C69.376 44.7501 72.4436 47.5137 73.4481 52.0836C73.6596 52.9336 72.9723 53.7847 72.0735 53.7847H68.9001C68.2128 53.7847 67.6841 53.3066 67.4726 52.6691C66.6256 49.7461 64.5636 48.5242 60.9673 48.5242C57.0009 48.5242 54.939 50.4367 54.939 53.1472C54.939 56.0171 56.1021 57.4514 62.1834 58.3014C70.4334 59.4171 74.6653 61.8088 74.6653 68.8236C74.6653 74.1903 70.6988 78.4957 64.5636 79.5051V84.2874V84.2863ZM72.09 96.918C70.9797 97.2367 70.1338 96.5992 70.1338 95.4836V92.6668C70.1338 91.8168 70.6625 91.0731 71.4556 90.7543C82.9318 86.5032 91.129 75.4498 91.129 62.484C91.129 49.5181 82.8789 38.5178 71.4027 34.2667C70.7154 34.0011 70.0809 33.1511 70.0809 32.3542V29.5375C70.0809 28.4218 70.9797 27.7312 72.0371 28.1031C79.2899 30.4319 85.6175 35.0182 90.1049 41.199C94.5924 47.3797 97.007 54.8344 96.9998 62.4851C97.0527 78.5864 86.581 92.2429 72.09 96.9191V96.918Z" fill="white"/>
<g style="mix-blend-mode:multiply" opacity="0.2">
<path d="M61.5 109C87.7335 109 109 87.7335 109 61.5C109 35.2665 87.7335 14 61.5 14C35.2665 14 14 35.2665 14 61.5C14 87.7335 35.2665 109 61.5 109Z" stroke="#191326" stroke-width="2.837"/>
</g>
<path d="M89.2023 93.348C89.2023 93.348 86.2512 77.4531 109.091 77.4531C109.091 77.4531 108.962 85.1154 103.958 89.0992C98.954 93.0832 89.2023 93.348 89.2023 93.348Z" fill="#47B85B"/>
<path d="M109.091 77.4531C109.091 77.4531 108.962 85.1255 103.958 89.0992C98.9539 93.0731 89.2022 93.348 89.2022 93.348C93.5263 87.1227 99.3517 82.8839 103.547 80.3163C106.011 78.8082 109.091 77.4531 109.091 77.4531Z" fill="#399349"/>
<path d="M82.53 85.4009C82.53 85.4009 85.4811 69.5059 62.6416 69.5059C62.6416 69.5059 62.7699 77.168 67.7741 81.1521C72.7783 85.1359 82.53 85.4009 82.53 85.4009Z" fill="#47B85B"/>
<path d="M82.53 85.4009C82.53 85.4009 72.7653 85.1258 67.7741 81.1521C62.7699 77.1782 62.6416 69.5059 62.6416 69.5059C62.6416 69.5059 67.0042 71.4724 68.7364 72.4403C73.5737 75.1608 79.9764 79.6134 82.53 85.4009Z" fill="#399349"/>
<path d="M86.5077 110.496L85.2246 110.445C85.2375 110.293 86.1998 95.2535 81.927 85.5739C79.4377 79.919 73.1761 75.5479 68.3644 72.8682L69.0958 72.0327C74.0614 74.7939 80.5285 79.3281 83.1332 85.2378C87.4957 95.1009 86.5206 110.344 86.5077 110.496Z" fill="#2B6E37"/>
<path d="M67.176 74.3989L72.9116 74.5037L72.882 75.5227L67.1465 75.4179L67.176 74.3989Z" fill="#2B6E37"/>
<path d="M77.196 74.8909L77.7807 78.2735L76.5091 78.412L75.9244 75.0294L77.196 74.8909Z" fill="#2B6E37"/>
<path d="M74.1304 80.1509L79.4553 80.1721L79.449 81.1909L74.1241 81.1698L74.1304 80.1509Z" fill="#2B6E37"/>
<path d="M86.1484 98.7583L85.032 98.2591C86.1611 96.6492 87.3673 94.917 88.6377 93.0931C93.0515 86.7556 98.9668 82.4254 103.163 79.9087L103.932 80.7238C99.8393 83.1793 94.0652 87.4077 89.7668 93.5924C88.4964 95.4163 87.2774 97.1484 86.1484 98.7583Z" fill="#2B6E37"/>
<path d="M105.435 82.2683L105.542 83.284L99.3123 83.7009L99.2046 82.685L105.435 82.2683Z" fill="#2B6E37"/>
<path d="M96.032 82.8579L96.6274 85.7011L95.3623 85.8684L94.7669 83.0251L96.032 82.8579Z" fill="#2B6E37"/>
<path d="M99.788 87.7612L99.8933 88.7771L93.0365 89.225L92.9312 88.2091L99.788 87.7612Z" fill="#2B6E37"/>
<path d="M79.8738 85.7064C76.7046 85.3499 70.8664 84.3411 67.3121 81.5086C62.1925 77.4329 62 69.8318 62 69.516C62 69.3835 62.0642 69.2511 62.1796 69.1492C62.2951 69.0473 62.4747 68.9963 62.6415 68.9963C70.058 68.9963 75.601 70.647 79.1296 73.8871C84.352 78.6963 83.2227 85.1971 83.1715 85.472L81.9011 85.3193L82.5299 85.3906L81.9011 85.3193C81.9141 85.2582 82.9917 78.9917 78.1546 74.5392C74.9852 71.6353 69.9938 70.1171 63.3088 70.0153C63.4499 71.778 64.207 77.5857 68.2231 80.785C71.5079 83.4037 77.051 84.3512 80.0536 84.6875L79.8738 85.7064Z" fill="#4D2419"/>
<path d="M89.2023 93.8575C88.8815 93.8575 88.612 93.6741 88.5735 93.4194C88.5223 93.1442 87.3803 86.6437 92.6155 81.8343C96.1312 78.5943 101.674 76.9436 109.091 76.9436C109.258 76.9436 109.424 76.9945 109.553 77.0964C109.681 77.1983 109.745 77.3206 109.732 77.4632C109.732 77.7893 109.54 85.3802 104.407 89.4558C99.2877 93.5315 89.6257 93.8474 89.2151 93.8575H89.2023ZM108.423 77.9625C101.738 78.0542 96.7599 79.5826 93.5907 82.4864C89.5103 86.2259 89.6386 91.2592 89.7797 92.7979C91.9482 92.6654 99.4417 91.9623 103.509 88.7324C107.525 85.5432 108.282 79.7355 108.423 77.9625Z" fill="#4D2419"/>
<path d="M86.5077 110.496L85.2246 110.445C85.2375 110.293 86.1998 95.2535 81.927 85.5739C79.4377 79.919 73.1761 75.5479 68.3644 72.8682L69.0958 72.0327C74.0614 74.7939 80.5285 79.3281 83.1332 85.2378C87.4957 95.1009 86.5206 110.344 86.5077 110.496Z" fill="#4D2419"/>
<path d="M67.176 74.3989L72.9116 74.5037L72.882 75.5227L67.1465 75.4179L67.176 74.3989Z" fill="#4D2419"/>
<path d="M77.196 74.8909L77.7807 78.2735L76.5091 78.412L75.9244 75.0294L77.196 74.8909Z" fill="#4D2419"/>
<path d="M74.1304 80.1509L79.4553 80.1721L79.449 81.1909L74.1241 81.1698L74.1304 80.1509Z" fill="#4D2419"/>
<path d="M86.1484 98.7583L85.032 98.2591C86.1611 96.6492 87.3673 94.917 88.6377 93.0931C93.0515 86.7556 98.9668 82.4254 103.163 79.9087L103.932 80.7238C99.8393 83.1793 94.0652 87.4077 89.7668 93.5924C88.4964 95.4163 87.2774 97.1484 86.1484 98.7583Z" fill="#4D2419"/>
<path d="M105.435 82.2683L105.542 83.284L99.3123 83.7009L99.2046 82.685L105.435 82.2683Z" fill="#4D2419"/>
<path d="M96.032 82.8579L96.6274 85.7011L95.3623 85.8684L94.7669 83.0251L96.032 82.8579Z" fill="#4D2419"/>
<path d="M99.788 87.7612L99.8933 88.7771L93.0365 89.225L92.9312 88.2091L99.788 87.7612Z" fill="#4D2419"/>
</g>
<defs>
<linearGradient id="paint0_linear" x1="62" y1="14" x2="62" y2="110" gradientUnits="userSpaceOnUse">
<stop stop-color="#54DADE"/>
<stop offset="0.762" stop-color="#24C7D6"/>
</linearGradient>
<linearGradient id="paint1_linear" x1="55.1406" y1="40.2875" x2="55.1406" y2="69.7742" gradientUnits="userSpaceOnUse">
<stop stop-color="#9F4A08"/>
<stop offset="0.37" stop-color="#7D3900"/>
<stop offset="1" stop-color="#8D4104"/>
</linearGradient>
<clipPath id="clip0">
<rect width="110" height="110" fill="white"/>
</clipPath>
</defs>
</svg>
